/* XPM */
static char * text_0_xpm[] = {
"16 32 53 1",
" 	c #000000",
".	c #7A7A7A",
"+	c #D5D5D5",
"@	c #F6F6F6",
"#	c #F8F8F8",
"$	c #D4D4D4",
"%	c #707070",
"&	c #222222",
"*	c #C3C3C3",
"=	c #FEFEFE",
"-	c #EDEDED",
";	c #FAFAFA",
">	c #FFFFFF",
",	c #FBFBFB",
"'	c #9E9E9E",
")	c #0D0D0D",
"!	c #717171",
"~	c #979797",
"{	c #FDFDFD",
"]	c #F9F9F9",
"^	c #494949",
"/	c #B3B3B3",
"(	c #ECECEC",
"_	c #515151",
":	c #D1D1D1",
"<	c #9A9A9A",
"[	c #6E6E6E",
"}	c #B2B2B2",
"|	c #ADADAD",
"1	c #B4B4B4",
"2	c #C4C4C4",
"3	c #161616",
"4	c #E0E0E0",
"5	c #909090",
"6	c #848484",
"7	c #CACACA",
"8	c #1C1C1C",
"9	c #F2F2F2",
"0	c #6D6D6D",
"a	c #585858",
"b	c #DCDCDC",
"c	c #C0C0C0",
"d	c #3D3D3D",
"e	c #636363",
"f	c #BCBCBC",
"g	c #F7F7F7",
"h	c #878787",
"i	c #BEBEBE",
"j	c #606060",
"k	c #323232",
"l	c #CBCBCB",
"m	c #CDCDCD",
"n	c #838383",
"                ",
"                ",
"                ",
"                ",
"                ",
"                ",
"                ",
"                ",
"                ",
"                ",
"                ",
"                ",
"                ",
"      .+@#$%    ",
"    &*==-;>,'   ",
"   )+>-!  ~{]^  ",
"   />(_    :><  ",
"  _;,[     }>|  ",
"  1>2     34>5  ",
"  4>6    37>-8  ",
"  9>0   ab>,.   ",
"  (>cdef]>gh    ",
"  i>>>>>>bj     ",
"  kl@;(mn       ",
"                ",
"                ",
"                ",
"                ",
"                ",
"                ",
"                ",
"                "};
