/* XPM */
static char * text_3_xpm[] = {
"16 32 51 1",
" 	c #000000",
".	c #AEAEAE",
"+	c #FEFEFE",
"@	c #FFFFFF",
"#	c #FCFCFC",
"$	c #F8F8F8",
"%	c #F5F5F5",
"&	c #F9F9F9",
"*	c #FDFDFD",
"=	c #C3C3C3",
"-	c #8D8D8D",
";	c #F6F6F6",
">	c #E7E7E7",
",	c #D1D1D1",
"'	c #DBDBDB",
")	c #E3E3E3",
"!	c #737373",
"~	c #585858",
"{	c #D5D5D5",
"]	c #DCDCDC",
"^	c #868686",
"/	c #9A9A9A",
"(	c #F7F7F7",
"_	c #FBFBFB",
":	c #EBEBEB",
"<	c #ABABAB",
"[	c #222222",
"}	c #F4F4F4",
"|	c #C6C6C6",
"1	c #6A6A6A",
"2	c #2E2E2E",
"3	c #6E6E6E",
"4	c #DADADA",
"5	c #9E9E9E",
"6	c #A8A8A8",
"7	c #C4C4C4",
"8	c #3D3D3D",
"9	c #9F9F9F",
"0	c #E6E6E6",
"a	c #DDDDDD",
"b	c #787878",
"c	c #B0B0B0",
"d	c #F1F1F1",
"e	c #E0E0E0",
"f	c #161616",
"g	c #CACACA",
"h	c #383838",
"i	c #B2B2B2",
"j	c #EEEEEE",
"k	c #C0C0C0",
"l	c #696969",
"                ",
"                ",
"                ",
"                ",
"                ",
"                ",
"                ",
"                ",
"                ",
"                ",
"                ",
"                ",
"                ",
"                ",
"   .+@#$%&*=    ",
"   -;&>,'*)!    ",
"      ~{]^      ",
"     /(@@_:<    ",
"    [}|1234@5   ",
"          6@7   ",
"         8>@9   ",
"   0ab23cd@ef   ",
"  [*@@@@@+gh    ",
"   ij+&0kl      ",
"                ",
"                ",
"                ",
"                ",
"                ",
"                ",
"                ",
"                "};
