/* XPM */
static char * text_8_xpm[] = {
"16 32 50 1",
" 	c #000000",
".	c #2A2A2A",
"+	c #ACACAC",
"@	c #EAEAEA",
"#	c #FBFBFB",
"$	c #D8D8D8",
"%	c #5C5C5C",
"&	c #6C6C6C",
"*	c #EDEDED",
"=	c #FFFFFF",
"-	c #E1E1E1",
";	c #DADADA",
">	c #E8E8E8",
",	c #8F8F8F",
"'	c #3D3D3D",
")	c #C9C9C9",
"!	c #FCFCFC",
"~	c #E5E5E5",
"{	c #B4B4B4",
"]	c #9E9E9E",
"^	c #1C1C1C",
"/	c #D2D2D2",
"(	c #C2C2C2",
"_	c #ABABAB",
":	c #F3F3F3",
"<	c #CACACA",
"[	c #DFDFDF",
"}	c #B9B9B9",
"|	c #939393",
"1	c #F4F4F4",
"2	c #EFEFEF",
"3	c #D1D1D1",
"4	c #323232",
"5	c #979797",
"6	c #FEFEFE",
"7	c #DCDCDC",
"8	c #383838",
"9	c #E2E2E2",
"0	c #262626",
"a	c #5A5A5A",
"b	c #2E2E2E",
"c	c #656565",
"d	c #D4D4D4",
"e	c #999999",
"f	c #F0F0F0",
"g	c #7F7F7F",
"h	c #818181",
"i	c #F6F6F6",
"j	c #EEEEEE",
"k	c #898989",
"                ",
"                ",
"                ",
"                ",
"                ",
"                ",
"                ",
"                ",
"                ",
"                ",
"                ",
"                ",
"                ",
"                ",
"     .+@#$%     ",
"    &*====-     ",
"    ;=>,')!~    ",
"    {=] ^/=(    ",
"     _:<[!}     ",
"     |12234     ",
"    567'8-90    ",
"    :6abcd=e    ",
"    f======g    ",
"    h;i#j3k     ",
"                ",
"                ",
"                ",
"                ",
"                ",
"                ",
"                ",
"                "};
