/* XPM */
static char * text_2_xpm[] = {
"16 32 48 1",
" 	c #000000",
".	c #323232",
"+	c #BBBBBB",
"@	c #F0F0F0",
"#	c #FDFDFD",
"$	c #E7E7E7",
"%	c #737373",
"&	c #6C6C6C",
"*	c #EAEAEA",
"=	c #FFFFFF",
"-	c #F7F7F7",
";	c #5C5C5C",
">	c #FAFAFA",
",	c #E5E5E5",
"'	c #808080",
")	c #565656",
"!	c #E0E0E0",
"~	c #C4C4C4",
"{	c #656565",
"]	c #F9F9F9",
"^	c #D0D0D0",
"/	c #222222",
"(	c #A8A8A8",
"_	c #DEDEDE",
":	c #A1A1A1",
"<	c #B4B4B4",
"[	c #1C1C1C",
"}	c #AFAFAF",
"|	c #727272",
"1	c #474747",
"2	c #8D8D8D",
"3	c #9E9E9E",
"4	c #F4F4F4",
"5	c #EFEFEF",
"6	c #7A7A7A",
"7	c #D2D2D2",
"8	c #EEEEEE",
"9	c #FBFBFB",
"0	c #FCFCFC",
"a	c #818181",
"b	c #ACACAC",
"c	c #FEFEFE",
"d	c #E9E9E9",
"e	c #626262",
"f	c #B0B0B0",
"g	c #BFBFBF",
"h	c #404040",
"i	c #0D0D0D",
"                ",
"                ",
"                ",
"                ",
"                ",
"                ",
"                ",
"                ",
"                ",
"                ",
"                ",
"                ",
"                ",
"     .+@#$%     ",
"    &*====-;    ",
"   %>=,')!=~    ",
"   {]^/  (=^    ",
"         _=:    ",
"        <=*[    ",
"       }=>|     ",
"     1^=>2      ",
"    34=56       ",
"  /7==#89===0a  ",
"  b========cde  ",
"  f>g%hi        ",
"                ",
"                ",
"                ",
"                ",
"                ",
"                ",
"                "};
