/* XPM */
static char * text_10_xpm[] = {
"16 32 37 1",
" 	c #000000",
".	c #BCBCBC",
"+	c #EEEEEE",
"@	c #424242",
"#	c #9D9D9D",
"$	c #FFFFFF",
"%	c #262626",
"&	c #5A5A5A",
"*	c #F7F7F7",
"=	c #FEFEFE",
"-	c #868686",
";	c #DADADA",
">	c #BDBDBD",
",	c #A5A5A5",
"'	c #DDDDDD",
")	c #161616",
"!	c #5F5F5F",
"~	c #F9F9F9",
"{	c #F5F5F5",
"]	c #535353",
"^	c #0D0D0D",
"/	c #DFDFDF",
"(	c #929292",
"_	c #B2B2B2",
":	c #C6C6C6",
"<	c #757575",
"[	c #FCFCFC",
"}	c #EAEAEA",
"|	c #2E2E2E",
"1	c #727272",
"2	c #B9B9B9",
"3	c #BBBBBB",
"4	c #4B4B4B",
"5	c #F0F0F0",
"6	c #353535",
"7	c #F3F3F3",
"8	c #7E7E7E",
"                ",
"                ",
"                ",
"                ",
"                ",
"                ",
"                ",
"                ",
"                ",
"                ",
"                ",
"                ",
"          .+@   ",
"         #$+%   ",
"        &*=-    ",
"        ;$>     ",
"       ,$')     ",
"      !~{]      ",
"     ^/$(       ",
"     _$:        ",
"    <[}|        ",
"   %}[1         ",
"   2$3          ",
"  4~56          ",
"  178           ",
"                ",
"                ",
"                ",
"                ",
"                ",
"                ",
"                "};
