/* XPM */
static char * text_5_xpm[] = {
"16 32 45 1",
" 	c #000000",
".	c #B7B7B7",
"+	c #F0F0F0",
"@	c #F9F9F9",
"#	c #FDFDFD",
"$	c #FFFFFF",
"%	c #F4F4F4",
"&	c #818181",
"*	c #A3A3A3",
"=	c #FCFCFC",
"-	c #E6E6E6",
";	c #585858",
">	c #6D6D6D",
",	c #FAFAFA",
"'	c #959595",
")	c #323232",
"!	c #D8D8D8",
"~	c #D6D6D6",
"{	c #696969",
"]	c #262626",
"^	c #707070",
"/	c #CECECE",
"(	c #E2E2E2",
"_	c #EEEEEE",
":	c #FBFBFB",
"<	c #E5E5E5",
"[	c #ACACAC",
"}	c #161616",
"|	c #424242",
"1	c #D0D0D0",
"2	c #B2B2B2",
"3	c #999999",
"4	c #DBDBDB",
"5	c #EDEDED",
"6	c #909090",
"7	c #353535",
"8	c #BDBDBD",
"9	c #EFEFEF",
"0	c #CDCDCD",
"a	c #1C1C1C",
"b	c #555555",
"c	c #CFCFCF",
"d	c #F1F1F1",
"e	c #D5D5D5",
"f	c #868686",
"                ",
"                ",
"                ",
"                ",
"                ",
"                ",
"                ",
"                ",
"                ",
"                ",
"                ",
"                ",
"                ",
"                ",
"      .+@#$$$%& ",
"     *$$$$$$=-; ",
"    >,#')       ",
"    !$~{]       ",
"    ^/(_:<[}    ",
"        |1$2    ",
"         3$4    ",
"   (567>8,$.    ",
"   9$$$$$$0a    ",
"   bcd#%ef      ",
"                ",
"                ",
"                ",
"                ",
"                ",
"                ",
"                ",
"                "};
