/* XPM */
static char * text_1_xpm[] = {
"16 32 40 1",
" 	c #000000",
".	c #707070",
"+	c #E0E0E0",
"@	c #DCDCDC",
"#	c #3D3D3D",
"$	c #C1C1C1",
"%	c #FDFDFD",
"&	c #FFFFFF",
"*	c #E9E9E9",
"=	c #161616",
"-	c #B4B4B4",
";	c #F5F5F5",
">	c #FEFEFE",
",	c #C7C7C7",
"'	c #6D6D6D",
")	c #FAFAFA",
"!	c #DFDFDF",
"~	c #828282",
"{	c #A2A2A2",
"]	c #A8A8A8",
"^	c #BFBFBF",
"/	c #838383",
"(	c #D6D6D6",
"_	c #4D4D4D",
":	c #F7F7F7",
"<	c #F1F1F1",
"[	c #222222",
"}	c #ECECEC",
"|	c #6C6C6C",
"1	c #A3A3A3",
"2	c #8E8E8E",
"3	c #989898",
"4	c #DEDEDE",
"5	c #FBFBFB",
"6	c #F3F3F3",
"7	c #C3C3C3",
"8	c #D2D2D2",
"9	c #EBEBEB",
"0	c #7A7A7A",
"a	c #323232",
"                ",
"                ",
"                ",
"                ",
"                ",
"                ",
"                ",
"                ",
"                ",
"                ",
"                ",
"                ",
"                ",
"       .+@      ",
"     #$%&*      ",
"   =-;>@&,      ",
"   ')!~{&]      ",
"       ^&/      ",
"       (&_      ",
"       *)       ",
"       :<       ",
"      [&} |12   ",
"   34;%&56&;7   ",
"   8&%!9;0a     ",
"                ",
"                ",
"                ",
"                ",
"                ",
"                ",
"                ",
"                "};
