/* XPM */
static char * collect_counter_xpm[] = {
"32 32 172 2",
"  	c #000000",
". 	c #590000",
"+ 	c #937070",
"@ 	c #B46C56",
"# 	c #C25624",
"$ 	c #C05628",
"% 	c #9F370E",
"& 	c #740000",
"* 	c #865451",
"= 	c #DAB09F",
"- 	c #D07D60",
"; 	c #D38565",
"> 	c #CC6032",
", 	c #BD4D26",
"' 	c #B64D28",
") 	c #7A2419",
"! 	c #6E0000",
"~ 	c #9D3521",
"{ 	c #BD5535",
"] 	c #CA7B60",
"^ 	c #E0B197",
"/ 	c #DF9877",
"( 	c #E4AC93",
"_ 	c #CC704E",
": 	c #B8816F",
"< 	c #650000",
"[ 	c #720000",
"} 	c #983426",
"| 	c #AE7162",
"1 	c #AF4D34",
"2 	c #C0522C",
"3 	c #C06548",
"4 	c #E7D6C2",
"5 	c #E9E8D5",
"6 	c #CDA793",
"7 	c #A23F2C",
"8 	c #620000",
"9 	c #D9B7A6",
"0 	c #EDEBDA",
"a 	c #EDC9B4",
"b 	c #B85134",
"c 	c #9B301C",
"d 	c #BC9888",
"e 	c #E2E0CC",
"f 	c #DDD1BF",
"g 	c #A03F2E",
"h 	c #8A0400",
"i 	c #580000",
"j 	c #700000",
"k 	c #AA7063",
"l 	c #E7E6D2",
"m 	c #E1D2C1",
"n 	c #A03C2C",
"o 	c #A73513",
"p 	c #AE4B34",
"q 	c #D5B3A4",
"r 	c #A63F2A",
"s 	c #A55544",
"t 	c #662E2A",
"u 	c #956659",
"v 	c #903228",
"w 	c #C8A798",
"x 	c #C9AB9A",
"y 	c #A5675C",
"z 	c #B57B6E",
"A 	c #B9593C",
"B 	c #B0411F",
"C 	c #902113",
"D 	c #952C1C",
"E 	c #BAA28F",
"F 	c #8C524B",
"G 	c #5A0000",
"H 	c #82302C",
"I 	c #7F0000",
"J 	c #860A00",
"K 	c #860400",
"L 	c #A86E62",
"M 	c #DDDAC6",
"N 	c #B07261",
"O 	c #A74530",
"P 	c #AF6352",
"Q 	c #800000",
"R 	c #8F4139",
"S 	c #440000",
"T 	c #5D0000",
"U 	c #710000",
"V 	c #7A0000",
"W 	c #83160E",
"X 	c #B48779",
"Y 	c #560000",
"Z 	c #4B0000",
"` 	c #520000",
" .	c #770000",
"..	c #850000",
"+.	c #860000",
"@.	c #390000",
"#.	c #790000",
"$.	c #79391C",
"%.	c #763F26",
"&.	c #610000",
"*.	c #670000",
"=.	c #6A0A00",
"-.	c #5E1F00",
";.	c #91726E",
">.	c #C1836E",
",.	c #C3562E",
"'.	c #A74224",
").	c #82472C",
"!.	c #AF8E62",
"~.	c #C3A670",
"{.	c #B39366",
"].	c #8A6944",
"^.	c #550000",
"/.	c #9E6158",
"(.	c #B04F39",
"_.	c #BF725D",
":.	c #CFA28F",
"<.	c #7A0E00",
"[.	c #AF8A5D",
"}.	c #E8D28C",
"|.	c #E5CF89",
"1.	c #CAAE76",
"2.	c #A28158",
"3.	c #5A4B16",
"4.	c #6C0000",
"5.	c #8A0000",
"6.	c #8F2E24",
"7.	c #9A4E48",
"8.	c #C0A06C",
"9.	c #DEC785",
"0.	c #CCB079",
"a.	c #A28058",
"b.	c #48480A",
"c.	c #4E7628",
"d.	c #450000",
"e.	c #76260A",
"f.	c #6A0000",
"g.	c #824F34",
"h.	c #B99B6B",
"i.	c #C9AC75",
"j.	c #876642",
"k.	c #485816",
"l.	c #547C2C",
"m.	c #6A8E37",
"n.	c #4D7428",
"o.	c #454104",
"p.	c #9E7B54",
"q.	c #D2B77B",
"r.	c #AC8C5E",
"s.	c #6B4824",
"t.	c #93704B",
"u.	c #9E7C55",
"v.	c #94704B",
"w.	c #5A4F1F",
"x.	c #44691F",
"y.	c #567D2E",
"z.	c #525D1C",
"A.	c #8A6F45",
"B.	c #B69667",
"C.	c #876B44",
"D.	c #3C4500",
"E.	c #4E5416",
"F.	c #474B0A",
"G.	c #42631C",
"H.	c #638935",
"I.	c #5A8130",
"J.	c #617128",
"K.	c #58561C",
"L.	c #586721",
"M.	c #527A2A",
"N.	c #557A2C",
"O.	c #6C9039",
"                                                                ",
"                                                                ",
"                                                                ",
"                                                                ",
"                                                                ",
"                                . .                             ",
"                            + @ # $ % &                         ",
"                          * = - ; > , ' )                       ",
"                        ! ~ { ] ^ / ( _ : <                     ",
"                      [ } | 1 2 3 4 5 6 7 &                     ",
"                    8 } 9 0 a b c d e f g h i                   ",
"                    j k l l m n o p 9 q r s [                   ",
"                  t u v w x y z A B c C D E F                   ",
"                  G H I J K L M N O P h Q R !                   ",
"                  S T U V j W k O @ X V Y T Z                   ",
"                      Z ` < 8  ...+.V G @.                      ",
"                      . #.$.%.&.*.*.=.-.                        ",
"                    ;.>.,.'.).!.~.~.{.].                        ",
"                  ^./.(._.:.<.[.}.|.1.2.3.                      ",
"                  Z 4.5.6.7.j 8.|.9.0.a.b.c.                    ",
"                    d.8 e.f.g.h.1.i.h.j.k.l.m.                  ",
"                  n.o.p.q.r.s.t.u.u.v.w.x.y.                    ",
"                    z.A.B.C.D.E.b.b.F.G.H.                      ",
"                    I.J.K.L.n.n.x.l.x.                          ",
"                            M.N.  I.                            ",
"                                O.                              ",
"                                                                ",
"                                                                ",
"                                                                ",
"                                                                ",
"                                                                ",
"                                                                "};
