/* XPM */
static char * text_4_xpm[] = {
"16 32 40 1",
" 	c #000000",
".	c #A5A5A5",
"+	c #F3F3F3",
"@	c #B2B2B2",
"#	c #4B4B4B",
"$	c #DADADA",
"%	c #FFFFFF",
"&	c #909090",
"*	c #828282",
"=	c #F1F1F1",
"-	c #F7F7F7",
";	c #F4F4F4",
">	c #222222",
",	c #0D0D0D",
"'	c #B6B6B6",
")	c #FDFDFD",
"!	c #D6D6D6",
"~	c #585858",
"{	c #F8F8F8",
"]	c #3B3B3B",
"^	c #D9D9D9",
"/	c #F9F9F9",
"(	c #A9A9A9",
"_	c #8E8E8E",
":	c #424242",
"<	c #E5E5E5",
"[	c #E9E9E9",
"}	c #F6F6F6",
"|	c #F5F5F5",
"1	c #868686",
"2	c #949494",
"3	c #FBFBFB",
"4	c #FEFEFE",
"5	c #9C9C9C",
"6	c #4F4F4F",
"7	c #2E2E2E",
"8	c #EFEFEF",
"9	c #454545",
"0	c #DBDBDB",
"a	c #6D6D6D",
"                ",
"                ",
"                ",
"                ",
"                ",
"                ",
"                ",
"                ",
"                ",
"                ",
"                ",
"                ",
"                ",
"                ",
"         .+@    ",
"       #$%%&    ",
"      *=-;->    ",
"    ,')!~{!     ",
"   ]^/( _%'     ",
"  :<%[[}%%%%|1  ",
"  23%%%%%%%%45  ",
"    >]#6<47     ",
"        8}      ",
"        {39     ",
"        0}a     ",
"                ",
"                ",
"                ",
"                ",
"                ",
"                ",
"                "};
