/* XPM */
static char * text_6_xpm[] = {
"16 32 49 1",
" 	c #000000",
".	c #A5A5A5",
"+	c #F0F0F0",
"@	c #E3E3E3",
"#	c #B8B8B8",
"$	c #FFFFFF",
"%	c #F8F8F8",
"&	c #C0C0C0",
"*	c #ADADAD",
"=	c #D9D9D9",
"-	c #404040",
";	c #898989",
">	c #FEFEFE",
",	c #DDDDDD",
"'	c #262626",
")	c #2E2E2E",
"!	c #EFEFEF",
"~	c #F2F2F2",
"{	c #494949",
"]	c #A8A8A8",
"^	c #C3C3C3",
"/	c #EEEEEE",
"(	c #FBFBFB",
"_	c #F9F9F9",
":	c #D0D0D0",
"<	c #3D3D3D",
"[	c #DBDBDB",
"}	c #565656",
"|	c #E4E4E4",
"1	c #C8C8C8",
"2	c #EDEDED",
"3	c #FCFCFC",
"4	c #A1A1A1",
"5	c #DEDEDE",
"6	c #717171",
"7	c #737373",
"8	c #E2E2E2",
"9	c #606060",
"0	c #AFAFAF",
"a	c #F3F3F3",
"b	c #909090",
"c	c #8D8D8D",
"d	c #F6F6F6",
"e	c #939393",
"f	c #919191",
"g	c #E8E8E8",
"h	c #FDFDFD",
"i	c #C4C4C4",
"j	c #4B4B4B",
"                ",
"                ",
"                ",
"                ",
"                ",
"                ",
"                ",
"                ",
"                ",
"                ",
"                ",
"                ",
"                ",
"       .+@      ",
"      #$%&      ",
"     *$=-       ",
"    ;>,'        ",
"   )!~{         ",
"   ]$]-^/(_:<   ",
"   [$}|$$$$$1   ",
"   234$56'7(,   ",
"   8$+$9}0a>b   ",
"   c>$$$$$de    ",
"    fgh(/ij     ",
"                ",
"                ",
"                ",
"                ",
"                ",
"                ",
"                ",
"                "};
