/* XPM */
static const char *collect_counter[] = {
/* columns rows colors chars-per-pixel */
"32 32 204 2 ",
"   c #4E151E",
".  c #551821",
"X  c #581921",
"o  c #581822",
"O  c #5A1B23",
"+  c #5F1D24",
"@  c #621F25",
"#  c #651F26",
"$  c #562B28",
"%  c #632125",
"&  c #672026",
"*  c #672027",
"=  c #642526",
"-  c #662727",
";  c #61262B",
":  c #6B2528",
">  c #642D2F",
",  c #692B2C",
"<  c #6B2A2D",
"1  c #6A2E2F",
"2  c #6F2F2E",
"3  c #6F2F2F",
"4  c #73262A",
"5  c #76272A",
"6  c #742B2B",
"7  c #77292C",
"8  c #762C2D",
"9  c #7C2B2C",
"0  c #782D2C",
"q  c #7E2D2E",
"w  c #79302F",
"e  c #79332F",
"r  c #652C31",
"t  c #6D3633",
"y  c #6D3638",
"u  c #713531",
"i  c #743336",
"p  c #763734",
"a  c #7E3132",
"s  c #7E3333",
"d  c #783737",
"f  c #713B36",
"g  c #7D3831",
"h  c #7E3C38",
"j  c #56533A",
"k  c #505639",
"l  c #575A3B",
"z  c #58583B",
"x  c #58593B",
"c  c #59593B",
"v  c #684137",
"b  c #7B443B",
"n  c #7E433F",
"m  c #655A3E",
"M  c #58633E",
"N  c #5C603E",
"B  c #6E4846",
"V  c #7D4E40",
"C  c #655D41",
"Z  c #7B5244",
"A  c #725843",
"S  c #5F6740",
"D  c #546C40",
"F  c #557041",
"G  c #557342",
"H  c #5B7944",
"J  c #5B7945",
"K  c #5A7A45",
"L  c #5C7B45",
"P  c #5F7E46",
"I  c #636240",
"U  c #636F42",
"Y  c #6A7745",
"T  c #617E47",
"R  c #823231",
"E  c #833432",
"W  c #873532",
"Q  c #883634",
"!  c #8C3833",
"~  c #883A37",
"^  c #8D3A34",
"/  c #8C3A35",
"(  c #863E3C",
")  c #883B39",
"_  c #91423D",
"`  c #9E4D3C",
"'  c #A54C3D",
"]  c #854947",
"[  c #954740",
"{  c #904843",
"}  c #914A45",
"|  c #9A4940",
" . c #9B4940",
".. c #9C4C42",
"X. c #984B44",
"o. c #855747",
"O. c #855D4B",
"+. c #9F5047",
"@. c #90534E",
"#. c #9F5248",
"$. c #8D5F5A",
"%. c #995C58",
"&. c #A55443",
"*. c #A05247",
"=. c #A45246",
"-. c #AD5341",
";. c #A55649",
":. c #A5574B",
">. c #AB5A4B",
",. c #AC5B4B",
"<. c #AD5D4E",
"1. c #B25B45",
"2. c #B85B44",
"3. c #BB5F47",
"4. c #B45E4B",
"5. c #896E54",
"6. c #88605E",
"7. c #897255",
"8. c #8C7055",
"9. c #8C7556",
"0. c #93765A",
"q. c #94765A",
"w. c #BD6243",
"e. c #BB6245",
"r. c #BE6248",
"t. c #B8614C",
"y. c #A36155",
"u. c #AC6C5F",
"i. c #B56450",
"p. c #BB6D58",
"a. c #956E64",
"s. c #9D6A63",
"d. c #9D7F60",
"f. c #937676",
"g. c #927874",
"h. c #A36F66",
"j. c #A6746B",
"k. c #A7766C",
"l. c #AB776B",
"z. c #AD786A",
"x. c #B17061",
"c. c #B07362",
"v. c #BA7867",
"b. c #B17F74",
"n. c #C6694A",
"m. c #C6765C",
"M. c #C47F69",
"N. c #608047",
"B. c #618047",
"V. c #628148",
"C. c #658449",
"Z. c #668449",
"A. c #6C8B4C",
"S. c #718F4D",
"D. c #73914E",
"F. c #9D8061",
"G. c #A08363",
"H. c #A08463",
"J. c #AC8C67",
"K. c #A98D68",
"L. c #AC8F6B",
"P. c #AF936E",
"I. c #B2966F",
"U. c #B48475",
"Y. c #BC8674",
"T. c #B0897D",
"R. c #B59A72",
"E. c #B69A72",
"W. c #BB9F73",
"Q. c #BEA476",
"!. c #C98169",
"~. c #CC876D",
"^. c #D7987C",
"/. c #C3A97A",
"(. c #C4AA7B",
"). c #C4AB7B",
"_. c #C6AD7D",
"`. c #CBB37F",
"'. c #B7988A",
"]. c #B6A090",
"[. c #C7A593",
"{. c #C8A090",
"}. c #C2A598",
"|. c #C3A899",
" X c #DBA993",
".X c #D8AE97",
"XX c #D2AD9E",
"oX c #CEAFA2",
"OX c #D1B3A4",
"+X c #D1B3A5",
"@X c #D6C187",
"#X c #DCC88B",
"$X c #DFCB8D",
"%X c #D5CABA",
"&X c #D9CBBC",
"*X c #DECFBD",
"=X c #E4C3B0",
"-X c #D5D2C0",
";X c #DAD8C6",
":X c #DEDDCB",
">X c #DFDDCB",
",X c #E0DFCE",
"<X c #E4E2D2",
"1X c #000000",
/* pixels */
"1X1X1X1X1X1X1X1X1X1X1X1X1X1X1X1X1X1X1X1X1X1X1X1X1X1X1X1X1X1X1X1X",
"1X1X1X1X1X1X1X1X1X1X1X1X1X1X1X1X1X1X1X1X1X1X1X1X1X1X1X1X1X1X1X1X",
"1X1X1X1X1X1X1X1X1X1X1X1X1X1X1X1X1X1X1X1X1X1X1X1X1X1X1X1X1X1X1X1X",
"1X1X1X1X1X1X1X1X1X1X1X1X1X1X1X1X1X1X1X1X1X1X1X1X1X1X1X1X1X1X1X1X",
"1X1X1X1X1X1X1X1X1X1X1X1X1X1X1X1X1X1X1X1X1X1X1X1X1X1X1X1X1X1X1X1X",
"1X1X1X1X1X1X1X1X1X1X1X1X1X1X1X1X= = 1X1X1X1X1X1X1X1X1X1X1X1X1X1X",
"1X1X1X1X1X1X1X1X1X1X1X1X1X1Xf.c.w.e.` w 1X1X1X1X1X1X1X1X1X1X1X1X",
"1X1X1X1X1X1X1X1X1X1X1X1X1X6.XX!.~.n.2.1.n 1X1X1X1X1X1X1X1X1X1X1X",
"1X1X1X1X1X1X1X1X1X1X1X1X6 ..t.M..X^. Xm.U.y 1X1X1X1X1X1X1X1X1X1X",
"1X1X1X1X1X1X1X1X1X1X1X0 X.l.,.3.p.*X,X[.*.w 1X1X1X1X1X1X1X1X1X1X",
"1X1X1X1X1X1X1X1X1X1X: X.OX<X=X4.| '.;X%X#./ % 1X1X1X1X1X1X1X1X1X",
"1X1X1X1X1X1X1X1X1X1X8 k.:X:X&X+.' >.OXoX=.y.d 1X1X1X1X1X1X1X1X1X",
"1X1X1X1X1X1X1X1X1XB a.} }.|.h.b.i.-.| _ [ ].$.1X1X1X1X1X1X1X1X1X",
"1X1X1X1X1X1X1X1X1Xr ] R ) ~ j.-Xz.;.u./ E @.i 1X1X1X1X1X1X1X1X1X",
"1X1X1X1X1X1X1X1X1X. * 7 q 5 ( k.;.c.T.s @ * O 1X1X1X1X1X1X1X1X1X",
"1X1X1X1X1X1X1X1X1X1X1XO + t < 9 W Q s #   1X1X1X1X1X1X1X1X1X1X1X",
"1X1X1X1X1X1X1X1X1X1X1X> g V Z 1 3 3 f v 1X1X1X1X1X1X1X1X1X1X1X1X",
"1X1X1X1X1X1X1X1X1X1Xg.Y.r.&.o.L.Q.Q.P.8.1X1X1X1X1X1X1X1X1X1X1X1X",
"1X1X1X1X1X1X1X1X1X; s.<.v.{.h J.$X#X).H.m 1X1X1X1X1X1X1X1X1X1X1X",
"1X1X1X1X1X1X1X1X1XO 4 ! { %.p W.#X@X_.G.z L 1X1X1X1X1X1X1X1X1X1X",
"1X1X1X1X1X1X1X1X1X1X$ < b u O.R.)./.R.5.M N.S.1X1X1X1X1X1X1X1X1X",
"1X1X1X1X1X1X1X1X1XJ j d.`.K.A 0.F.F.q.C F V.1X1X1X1X1X1X1X1X1X1X",
"1X1X1X1X1X1X1X1X1X1XS 9.I.7.k N z z l D A.1X1X1X1X1X1X1X1X1X1X1X",
"1X1X1X1X1X1X1X1X1X1XC.Y I U J J F N.F 1X1X1X1X1X1X1X1X1X1X1X1X1X",
"1X1X1X1X1X1X1X1X1X1X1X1X1X1XP T 1XC.1X1X1X1X1X1X1X1X1X1X1X1X1X1X",
"1X1X1X1X1X1X1X1X1X1X1X1X1X1X1X1XD.1X1X1X1X1X1X1X1X1X1X1X1X1X1X1X",
"1X1X1X1X1X1X1X1X1X1X1X1X1X1X1X1X1X1X1X1X1X1X1X1X1X1X1X1X1X1X1X1X",
"1X1X1X1X1X1X1X1X1X1X1X1X1X1X1X1X1X1X1X1X1X1X1X1X1X1X1X1X1X1X1X1X",
"1X1X1X1X1X1X1X1X1X1X1X1X1X1X1X1X1X1X1X1X1X1X1X1X1X1X1X1X1X1X1X1X",
"1X1X1X1X1X1X1X1X1X1X1X1X1X1X1X1X1X1X1X1X1X1X1X1X1X1X1X1X1X1X1X1X",
"1X1X1X1X1X1X1X1X1X1X1X1X1X1X1X1X1X1X1X1X1X1X1X1X1X1X1X1X1X1X1X1X",
"1X1X1X1X1X1X1X1X1X1X1X1X1X1X1X1X1X1X1X1X1X1X1X1X1X1X1X1X1X1X1X1X"
};
