/* XPM */
static char * text_moves_xpm[] = {
"71 32 2 1",
" 	c #000000",
".	c #FFFFFF",
"                                                                       ",
"                                                                       ",
"                                                                       ",
"                                                                       ",
"                                                                       ",
"                                                                       ",
"                                                                       ",
"                                                                       ",
"                                                                       ",
"                                                                       ",
"                   .                                                   ",
"        ..        ..                                                   ",
"       ...       ...                                                   ",
"       ....     ....                                                   ",
"       ....     ....                             ...                   ",
"       . ..    .. ..      ..        .           ....      .    ..      ",
"      .. ...  ... ..     .....    ...    ..    .. ..     ..    ..      ",
"      ..  .. ...  ..    ... .........    ..    .. ..    ..     ..      ",
"      ..  .....   ..    ..  ......  ..  ...    . ..     ..             ",
"     ...   ...    ..   ..   ..      ..  ....  ....     ....            ",
"     ...    ..   ...   ..   ..      .. ..  ......     .. ...           ",
"     ..          ...   ..  ..       .....     ...   ...    ..  ..      ",
"     ..           ..   ......        ...       ......     ... ...      ",
"     ..           ..    ...          ..         ....    ....   .       ",
"                  ..                                    ...            ",
"                                                                       ",
"                                                                       ",
"                                                                       ",
"                                                                       ",
"                                                                       ",
"                                                                       ",
"                                                                       "};
