/* XPM */
static const char *floor[] = {
/* columns rows colors chars-per-pixel */
"64 64 156 2 ",
"   c #563B25",
".  c #5B3D26",
"X  c #563C2A",
"o  c #583E2A",
"O  c #3E6C34",
"+  c #377234",
"@  c #3B7335",
"#  c #397836",
"$  c #3A7C38",
"%  c #5D442E",
"&  c #5F4A2F",
"*  c #54542F",
"=  c #5C4630",
"-  c #564E30",
";  c #5E4B32",
":  c #4E5531",
">  c #4D5C32",
",  c #545532",
"<  c #5C5333",
"1  c #545C34",
"2  c #5A5A35",
"3  c #5D5C38",
"4  c #62462E",
"5  c #65492F",
"6  c #6A4B2F",
"7  c #644732",
"8  c #694733",
"9  c #644933",
"0  c #6A4D37",
"q  c #6B4D37",
"w  c #6B4D36",
"e  c #684E36",
"r  c #694E36",
"t  c #684E37",
"y  c #694E37",
"u  c #694F37",
"i  c #6A4E36",
"p  c #6B4E36",
"a  c #6A4F36",
"s  c #6B4F36",
"d  c #6A4E37",
"f  c #6B4E37",
"g  c #6A4F37",
"h  c #6B4F37",
"j  c #694D35",
"k  c #6C4C35",
"l  c #6C4D35",
"z  c #6C4E34",
"x  c #6D4C36",
"c  c #6C4D36",
"v  c #6D4C37",
"b  c #6C4D37",
"n  c #6D4D37",
"m  c #6E4D36",
"M  c #6F4D37",
"N  c #6C4E36",
"B  c #6D4E36",
"V  c #6C4F36",
"C  c #6C4E37",
"Z  c #6D4E37",
"A  c #6C4F37",
"S  c #6D4F37",
"D  c #6E4E37",
"F  c #6A4D36",
"G  c #684D38",
"H  c #694E38",
"J  c #684F38",
"K  c #6A4E38",
"L  c #6B4E38",
"P  c #6A4F38",
"I  c #6B4F38",
"U  c #6B4F39",
"Y  c #6C4D38",
"T  c #6C4E38",
"R  c #6D4E38",
"E  c #6C4F38",
"W  c #6D4F38",
"Q  c #6C4F39",
"!  c #6B4F38",
"~  c #704F32",
"^  c #605130",
"/  c #635131",
"(  c #615133",
")  c #605134",
"_  c #635036",
"`  c #615735",
"'  c #645637",
"]  c #625235",
"[  c #695133",
"{  c #695136",
"}  c #6B5037",
"|  c #6B5137",
" . c #6D5034",
".. c #6C5037",
"X. c #6B5236",
"o. c #625A37",
"O. c #665538",
"+. c #695038",
"@. c #695039",
"#. c #6A5038",
"$. c #685338",
"%. c #6A5038",
"&. c #615C38",
"*. c #715031",
"=. c #735231",
"-. c #745231",
";. c #755634",
":. c #725030",
">. c #785635",
",. c #7A5A35",
"<. c #785C39",
"1. c #456533",
"2. c #4C6134",
"3. c #486534",
"4. c #4E6636",
"5. c #4C6335",
"6. c #456834",
"7. c #466D36",
"8. c #446B35",
"9. c #486A35",
"0. c #4B6A36",
"q. c #4F6738",
"w. c #4F6D38",
"e. c #526132",
"r. c #536132",
"t. c #536234",
"y. c #566737",
"u. c #536236",
"i. c #586337",
"p. c #5A6137",
"a. c #516A36",
"s. c #536A36",
"d. c #546638",
"f. c #556438",
"g. c #5A6138",
"h. c #516B38",
"j. c #437136",
"k. c #497037",
"l. c #4B7139",
"z. c #7D623B",
"x. c #82663F",
"c. c #866B42",
"v. c #866C42",
"b. c #876F45",
"n. c #8E7447",
"m. c #8B7244",
"M. c #957B4A",
"N. c #947B4B",
"B. c #9D834D",
"V. c #9E8651",
"C. c #A48D50",
"Z. c #A48C52",
"A. c #A48D54",
"S. c #A69157",
"D. c #A69054",
"F. c #AA9458",
/* pixels */
"z *.*.-.z j 9 9 9 9 7 7 9 9 9 d j d d T d 9 9 9 9 9 9 9 9 9 @.J C C d 9 9 9 9 9 9 9 9 9 9 9 9 T T C C d d d d 9 9 9 9 9 j d J J ",
"9 5 5 6 z d 9 9 9 9 < < 9 9 9 C J d C T d 9 9 9 9 9 9 9 9 9 @.T C J d 9 9 9 9 9 9 9 9 9 9 9 9 j d J d C d J J d d C d @.{ C C J ",
"9 ; ; 9 d d d 9 j 9 4.7.9 j d C d C C d d 9 9 9 9 9 9 9 9 j C d d { d 9 9 9 9 9 9 9 9 9 9 9 9 9 9 j d J C d C C d C ' w.y.[ j J ",
"C d d J @.C T d k j 2 1 d C C C d d T C d 9 9 9 9 9 9 7 7 9 d d C C d 9 9 9 9 9 9 = = ; 9 9 9 9 9 9 9 9 j d C T  .C ' @ 9.9 d J ",
"C d d d J d d d j j d j d C C T J T J T d 9 9 9 9 9 9 9 9 9 j C C C d 9 9 9 9 9 9 = % = 7 9 9 9 9 9 9 9 9 9 9 9 d d d < ) d d T ",
"9 9 9 9 9 9 9 9 4 9 9 9 9 d 9 J d d @.{ d 9 9 9 9 9 9 9 9 9 C d d C d 9 9 9 9 9 7 ; < ; 9 9 9 9 9 9 9 9 9 9 9 9 9 9 9 j j 9 9 9 ",
"9 9 ) 9 9 9 9 9 9 9 9 9 9 9 9 d d d i.a.3 9 9 9 9 9 9 9 9 9 d d C d d j 4 9 9 9 < ( e.e.( 9 9 9 9 9 7 4 4 7 9 9 9 9 9 9 9 9 9 9 ",
"9 2.3.9 9 9 9 9 9 9 9 9 9 9 9 9 d C d.$ u.9 9 9 9 9 9 9 9 9 9 d T J d 9 4 9 9 1 8.( 9 9 9 9 9 9 9 4 6 c.n.;.4 9 9 9 9 9 9 9 9 9 ",
"7 , , 9 9 9 9 9 9 9 9 9 9 9 9 9 d C 2 @ 2 9 9 9 9 9 9 9 9 9 9 9 d C C 9 7 9 9 < , 9 7 9 9 9 9 9 7 . v.D.A.M.z 7 9 9 9 9 9 6 6 9 ",
"9 9 9 9 9 9 9 9 9 9 9 9 9 9 9 9 9 d 9 ; 9 9 9 9 9 9 9 9 9 9 9 9 d J J 9 9 9 9 9 7 9 9 9 9 9 9 9 9 X b.F.A.V. .7 9 9 9 9 9 5 4 7 ",
"9 9 9 9 9 9 9 9 9 9 9 9 9 9 9 d d z 9 5 5 9 9 9 9 9 9 9 9 9 9 9 d d j i.j.2 7 9 9 9 9 9 9 9 9 9 9 X 6 M.N.,.4 9 9 9 9 9 9 = = = ",
"9 9 9 9 9 9 9 9 9 9 9 9 9 9 j d C C z z z 9 9 9 9 7 9 9 9 9 9 9 9 d C u.+ < 7 9 9 9 9 9 9 9 9 9 9 7         4 9 9 9 9 7 7 = = 7 ",
"9 9 9 9 9 9 ; ; 9 9 9 9 9 ) 2 3 @.d $.O.j 9 9 9 ) < 9 9 9 9 9 9 d d @.9 ; 9 9 9 9 9 9 9 9 9 9 9 9 9 7 % % 7 9 9 ) ) < 2 < 9 9 9 ",
"9 9 9 9 9 9 = = ; 9 9 9 9 ) u.2 @.O.9.i.j 9 9 9 1 6.; 7 9 9 9 9 d J d j 7 9 9 9 9 9 9 9 9 9 9 9 9 9 9 9 9 9 9 9 3.2.2 2.2 9 9 9 ",
"9 9 9 9 9 9 = % 7 9 9 u.2 d d { T { 1 < d 9 9 9 < , 9 9 9 9 9 d d d d 9 9 9 9 9 9 9 9 9 9 9 9 9 9 9 9 9 9 9 9 9 , , 7 9 9 9 9 9 ",
"9 9 9 9 9 9 5 5 9 9 < @ 4.d C C d C C J d 9 9 9 9 9 9 9 9 9 9 j 9 9 < u.1 ( 9 9 9 9 9 9 9 9 9 9 9 9 9 9 < i.< 9 9 7 4 9 9 9 9 9 ",
"9 9 9 9 9 j z j 9 9 9 < ( d J T J @.C C C 9 9 9 9 9 7 7 j d J 9 9 9 9 < 2 9 9 9 = = 9 9 9 9 9 9 j j 9 j 1 # 2 j 9 j 9 9 9 9 9 9 ",
"d 9 9 z j 9 d d 9 d d j j z z C @.d C C C d 9 9 9 9 9 9 J d 9 9 9 9 9 7 9 9 9 9 = % % 9 d ' ' d d d d d _ 2 _ C d d d d d z d d ",
"C d d C z z d d d 9 j 9 9 9 9 9 d T J J T T d 9 9 2 j.d.J 9 9 9 9 9 9 9 9 9 j 6 6 6 6 ] 3 l.h.C C @.J d d J T T @.@.C C @.C C ..",
"d d { z 9 d d 9 9 9 9 9 9 9 9 9 z C C C d d d d j 2 @ i.j 9 9 9 9 9 9 9 9 9 j z z z z ' u.u.3 d C C d @.d C ~ C d d d d d d d d ",
") u.2 9 9 9 9 9 9 9 9 9 9 9 6 6 6 j d T C 9 9 d d d _ 9 9 9 9 9 9 9 9 9 9 9 9 1 1 9 9 9 9 j j 9 z d d d d z z j 9 9 9 9 9 9 9 9 ",
"< 1., 9 9 7 7 9 9 9 9 9 9 9 5 4 4 4 9 J J 9 9 9 9 9 9 9 9 9 9 9 9 9 9 9 9 9 9 1.: 9 9 9 9 9 9 9 j 9 J C d ; = 7 9 9 9 9 9 9 9 9 ",
"9 9 9 9 9 2 < 9 9 9 9 9 9 9 = = = = 9 9 9 @.d 9 9 9 9 9 9 9 9 9 9 9 9 9 9 9 9 9 9 9 9 9 9 9 9 9 9 9 d T J 9 9 9 9 9 9 9 9 9 9 7 ",
"9 9 9 7 9 8.1 9 9 9 9 9 9 9 9 ; 7 7 9 9 9 < i.2 9 9 9 9 9 4 9 9 9 9 9 9 9 9 9 9 9 9 9 9 9 9 9 9 9 z C J d j 9 9 9 9 9 9 9 9 9 7 ",
"9 9 9 9 9 ; 9 9 9 9 9 9 9 9 9 9 9 9 9 9 9 ; 2 < d d d 9 9 9 9 9 9 9 9 9 9 9 9 9 9 9 9 9 9 9 9 9 9 C T 3 u.< 9 9 9 9 9 9 9 9 9 9 ",
"9 9 9 9 9 9 9 9 9 9 9 9 9 9 9 9 9 9 9 9 9 9 9 9 9 d J J d j 9 9 9 9 9 9 9 9 9 9 9 9 9 9 9 9 9 9 9 d C 3 6.< 7 9 9 9 9 9 9 9 9 9 ",
"9 9 9 9 9 9 9 7 9 9 9 9 9 9 9 9 9 9 9 9 9 9 9 9 9 9 j d T C d j 9 9 9 9 9 9 4 9 9 9 9 ) 9 9 9 9 9 d T @.9 9 9 9 9 9 9 9 9 9 9 7 ",
"9 9 9 9 9 9 2 < 9 9 9 9 9 9 9 9 9 9 9 9 9 9 9 9 9 9 = ; 2 O.T C j 9 9 9 9 < < 9 9 7 < 0.< 7 9 9 9 d d C C 9 9 9 9 9 9 2 ( 9 9 9 ",
"9 9 9 9 7 9 6.2.9 j 9 9 9 9 9 9 9 9 9 9 9 9 9 9 9 9 = : O 2 C C d 9 9 9 ; 2.1 9 9 7 < @ , 7 9 9 9 d C C d z 9 9 9 9 < 6.1 9 9 9 ",
"9 9 9 9 9 9 < < j d d 9 9 j j z 9 9 9 9 9 9 9 9 7 9 5 & - 9 d d d d 9 9 9 9 9 9 9 9 9 , 9 9 9 9 9 j d C d C d d j 5 9 < 9 9 9 9 ",
"C C C J d C C d J d J C d J d z 9 z d d d 9 9 9 ) 9 6 6 j 9 9 d C d 9 9 9 9 9 9 9 9 9 7 9 9 9 9 9 d C C d J T d d C C T C d d @.",
"T T C J d @.d d T C d J C J d d d C C J d C d u.9.9 j 9 9 9 9 9 J J d 9 9 9 9 9 9 9 9 9 9 9 9 9 9 d d d d J J d J T T J J C C @.",
"C  . .~ C d C C d C C d d d C T d C T C C C d 2 1 d j 9 9 9 9 d d C C d 9 9 9 9 9 9 9 9 9 9 9 9 d C C @.C d C C C d d d C  .C d ",
"z 6 z ~ z C T d d d J @.C C C C d d T C C T @.C C @.J d C d d C d C d d d d 9 9 9 9 9 9 9 j d J @.C C J T C d T d d d d ~ *.z d ",
"9 % 9 9 d C C C C d d @.d C J T J d J d C C J T C d C T J j z d d C d 9 9 9 d J J d d d d C C d d d d d 9 9 d j 9 9 j 9 5 5 9 9 ",
"9 ; 9 9 d T C C C J C C d d d d d d j j d d d 9 d z _ 9 9 9 d C J J j 7 4 9 z d d C d d d d d 9 9 9 j 9 9 9 9 9 9 9 9 9 9 % = 9 ",
"9 9 d C C o.g.o.C d d d d 9 9 9 j 9 9 9 9 9 9 9 9 3 4.1 9 d J J J d {  .~ ~ ~ C  .d j d 9 9 9 9 9 9 2 , < 9 9 9 9 9 9 9 = = ; 9 ",
"9 9 d d C ' i.3 d 9 9 9 9 9 9 9 9 9 9 9 9 9 9 9 9 9 < ) d d { d T O.0.a.o.X.C d d 9 9 9 9 9 9 9 9 9 , > < 7 9 9 9 9 9 9 z 9 9 9 ",
"9 d d J J d j 9 9 9 9 9 9 9 9 9 9 9 9 = 9 9 9 9 9 9 j d @.@.C C d _ 2.4.p.) 9 9 9 9 9 9 9 9 7 9 9 9 9 9 9 9 9 9 9 9 7 X.N.z.4 9 ",
"C C d d 9 9 9 9 ) 9 9 9 9 9 ( 4.1 7 4 % 9 9 7 9 9 d d d @.J d d d d d d d 9 9 9 9 9 9 9 9 9 ; 9 9 9 9 7 9 2.u.9 9 9 7 X.m. .% d ",
"T C d 9 9 9 9 2 6.2 9 9 9 9 9 > , 9 9 9 j 9 9 j d J C C @.C C d j C C C k j 9 9 9 9 9 9 7 < 3.> 7 9 ; 7 9 > : 9 9 9 9 4 4 % 9 d ",
"J d 9 9 9 9 9 ; : ; 9 9 9 ) 9 9 9 2 1 < 9 9 j d d d &.&.d d C C d d d d ' ' 9 9 9 9 9 9 9 9 : , 7 = = = = 9 9 9 9 9 9 d d C d J ",
"9 9 9 9 9 9 9 9 7 9 9 7 ( 7.1 8 9 < 1 < 9 d J 9 j 9 4.4.9 j 9 d d d C d q.7.9 7 9 9 9 9 9 9 9 9 5 4 4 % 4 9 9 9 9 9 d @.{ C C d ",
"9 9 9 9 9 9 9 9 9 9 9 9 ; 3.< 9 9 9 7 9 9 d 9 9 9 9 9 ; 9 9 9 9 9 d J d 2 , 9 9 9 9 9 9 9 9 9 9 j j 6 j 9 9 9 9 9 9 J C C X.g.< ",
"9 9 ) 9 9 9 9 9 9 9 9 9 9 9 9 9 9 9 9 j d 9 9 9 9 9 9 9 9 7 9 9 9 d J d j 7 9 9 9 9 9 9 9 9 9 9 9 9 ( 2 9 9 9 9 9 d C T T O.9.2 ",
"7 2 j.u.9 9 ; = 9 9 9 9 9 9 9 9 9 9 9 9 d 9 9 9 9 9 9 9 9 7 9 9 9 d d 9 9 9 9 9 9 9 9 9 9 9 9 9 9 7 , j.< 7 9 9 9 d C d d 9 ; 9 ",
"7 2 @ > 9 9 = = ; 4 9 9 9 9 9 9 9 9 9 d j 9 9 9 9 9 9 9 9 9 9 9 9 d d 9 9 9 9 9 9 9 9 9 9 9 9 9 9 9 < 1 9 9 9 9 9 C z d C d 9 9 ",
"9 9 ; 9 9 9 4 = 7 9 9 9 9 9 9 9 9 9 ) ' / 9 9 9 9 9 7 9 9 9 9 9 z z d j 9 9 9 9 j / 2 < 9 9 9 9 9 9 9 7 9 9 9 9 9 d J T C 9 9 9 ",
"9 7 8 9 9 5 6 5 9 9 9 9 9 9 9 9 9 9 1 u.' 9 9 9 9 9 9 9 9 9 9 9 d C d d 9 9 9 9 6 5 1 1 9 9 9 9 9 9 9 9 9 9 9 9 j d d C C 9 9 9 ",
"9 9 9 9 9 9 9 z 9 9 9 9 9 9 9 9 4 9 9 _ d 9 9 9 9 9 9 9 9 9 9 9 T T C J d d 9 9 9 ; < ' d j 9 9 9 9 9 9 9 9 9 9 9 C T T J 9 9 9 ",
"9 1 2.9 9 9 9 9 9 9 9 9 9 9 9 9 9 9 j C d 9 9 9 9 9 9 9 9 ; = 9 T d d J C C d 2 3., O k.{ z 9 d d d C d d J d d d T J J d j 9 9 ",
"9 : > 9 9 9 9 9 9 9 9 9 9 9 9 9 9 j d J d 9 9 9 9 7 9 9 9 = = 9 d J C C C C d 2 > ) 3.3.9 j 9 d C d J C T @.T C C T d C d 9 9 9 ",
"9 9 9 9 9 9 9 9 9 2 i.9 9 9 9 9 j z d d d 9 9 9 9 ( ( 9 9 5 5 9 d J J J C z 9 9 9 9 9 9 9 9 9 9 j d d @.d z ~ ~ d C C C d d 9 9 ",
"7 7 9 9 9 9 9 9 7 > @ 2 7 9 6 6 6 6 z C d 9 9 9 < 7.j.< 7 6 6 z @.J T @.d 9 9 9 9 9 9 9 9 9 9 9 9 9 9 d 9 9 5 z d d d d T d 9 9 ",
"7 7 9 9 9 9 9 7 9 / * 9 7 < 1 , ; 4 j C d 9 9 9 9 3.6.9 9 9 C C J C J d d 9 9 9 9 9 9 9 9 9 9 9 9 9 9 9 9 9 9 9 C C o.i.o.d d 9 ",
"9 9 9 9 9 9 7 z m.M.>.4 9 ; : , ; 9 _  .d 9 9 9 9 9 9 9 9 9 d T C C T C C d 9 9 9 9 9 9 9 9 9 9 9 9 7 9 9 9 T d {  .' i.3 C d j ",
"9 9 9 9 9 9 % <.D.A.m.9 9 9 9 9 j ' 0.i.C 9 9 9 1 3.9 7 9 9 J T T J @.$.@.@.d d 9 9 9 9 9 9 9 9 9 9 9 9 9 9 j { u.i.J J d C d d ",
"9 9 9 9 9 9 o 5 B.A.x.4 9 9 9 9 d O.2.2 d 9 9 9 , > 9 7 9 9 d J T T ' d.i.X.J d d d 9 9 9 9 9 9 9 < 0.2 9 9 9 9 > 1 T C d J d d ",
"d 9 9 9 9 9 %   5 4 . % 9 9 9 9 d T d J d 9 9 9 9 9 9 9 9 j C d J C C ' ' d j 9 9 C J 9 9 9 9 9 7 < @ 2.7 9 9 9 9 d C z d J T C ",
"@.9 9 9 9 9 9 % X X % 9 9 9 9 9 d C C C d 9 9 9 9 9 9 9 9 9 z z C C T C k j 9 9 9 9 d d j 9 9 9 9 9 < 9 9 9 9 9 9 9 j 9 C C J T ",
"@.C j 9 9 9 9 9 9 9 9 9 9 9 9 ) o.{ d C d 9 9 9 9 9 9 9 9 9 z 9 d C @.' ) 9 9 9 9 9 9 o.g.3 9 9 9 9 7 9 9 9 9 9 9 9 4 9 d d 9 9 ",
"d C d 9 9 9 9 9 9 9 9 9 9 9 9 2 7.' d d d 9 9 9 9 9 9 9 9 9 d J J T o.@ 8.; 7 9 9 9 9 < 1 o.d 9 9 9 9 9 9 9 9 9 9 9 9 9 9 z z z ",
"J T T d 9 9 9 9 9 9 9 9 9 9 9 9 ' { C C d 9 9 9 9 9 9 9 9 9 d d d T ) 3.> 9 9 9 9 9 9 9 9 C d d 9 9 9 9 9 9 9 9 9 9 9 9 9 9 C C ",
"J d d d 9 9 9 9 9 9 9 9 9 9 9 j C T C T d 9 9 9 9 9 9 9 9 9 C C d d d 6 6 6 j 9 9 9 9 9 9 d d C d 9 j 9 9 9 9 9 9 9 9 9 9 d @.J "
};
