/* XPM */
static const char *collectible[] = {
/* columns rows colors chars-per-pixel */
"64 64 194 2 ",
"   c #4C141C",
".  c #52171F",
"X  c #57191F",
"o  c #551A21",
"O  c #5B1C23",
"+  c #631F25",
"@  c #5E2428",
"#  c #562626",
"$  c #583233",
"%  c #632226",
"&  c #6A2226",
"*  c #632528",
"=  c #6D2428",
"-  c #662C2C",
";  c #6B2E2D",
":  c #72262A",
">  c #742A2B",
",  c #7B2B2C",
"<  c #67302F",
"1  c #77332E",
"2  c #7A2F30",
"3  c #763D37",
"4  c #783A37",
"5  c #653632",
"6  c #4B4C33",
"7  c #544C35",
"8  c #5B4D34",
"9  c #5B4730",
"0  c #4A5436",
"q  c #455A38",
"w  c #525436",
"e  c #5D5136",
"r  c #545438",
"t  c #5D5438",
"y  c #555E39",
"u  c #5D5A39",
"i  c #654B34",
"p  c #644939",
"a  c #74453B",
"s  c #774A3F",
"d  c #635236",
"f  c #6B513E",
"g  c #625A3A",
"h  c #655938",
"j  c #4F623B",
"k  c #5D613B",
"l  c #51633B",
"z  c #64683D",
"x  c #6F4E4A",
"c  c #764843",
"v  c #6D5540",
"b  c #745C45",
"n  c #785844",
"m  c #7D5B5A",
"M  c #735050",
"N  c #686F40",
"B  c #7E634B",
"V  c #6E7644",
"C  c #802F2E",
"Z  c #81302F",
"A  c #843532",
"S  c #8A3733",
"D  c #843A34",
"F  c #8B3A34",
"G  c #8C3D39",
"H  c #873F3C",
"J  c #933E36",
"K  c #913F39",
"L  c #85413F",
"P  c #8E433E",
"I  c #94423A",
"U  c #9C453A",
"Y  c #9B4A3C",
"T  c #954838",
"R  c #A34B3D",
"E  c #A94F3F",
"W  c #AA523D",
"Q  c #8C4641",
"!  c #944A44",
"~  c #9E4D42",
"^  c #934F48",
"/  c #88524B",
"(  c #93504B",
")  c #9D574E",
"_  c #985952",
"`  c #845A55",
"'  c #A14F44",
"]  c #A75446",
"[  c #AD5542",
"{  c #AC5A48",
"}  c #B15641",
"|  c #B55A44",
" . c #BB5F46",
".. c #B25E4C",
"X. c #A55D50",
"o. c #85654E",
"O. c #85694F",
"+. c #856A50",
"@. c #8B6951",
"#. c #9B655C",
"$. c #93615A",
"%. c #95755A",
"&. c #9A7A5C",
"*. c #BD6045",
"=. c #B5614D",
"-. c #BD644B",
";. c #AD695B",
":. c #A76558",
">. c #B36C5B",
",. c #B76955",
"<. c #896562",
"1. c #9C6D63",
"2. c #99786E",
"3. c #A16D63",
"4. c #A57469",
"5. c #AC7469",
"6. c #B27265",
"7. c #B87868",
"8. c #A47C72",
"9. c #C2674B",
"0. c #CA6C49",
"q. c #C1674B",
"w. c #CD704B",
"e. c #C87356",
"r. c #C87A62",
"t. c #718D4C",
"y. c #71904C",
"u. c #A2805E",
"i. c #9E8161",
"p. c #958174",
"a. c #A38463",
"s. c #A68A67",
"d. c #A78A68",
"f. c #AB8E6B",
"g. c #AF926D",
"h. c #B0946D",
"j. c #AD8377",
"k. c #BB8C7D",
"l. c #B38377",
"z. c #B59A72",
"x. c #B99F74",
"c. c #BDA376",
"v. c #BFA478",
"b. c #CA8269",
"n. c #C88269",
"m. c #C48A76",
"M. c #D48F74",
"N. c #D38E72",
"B. c #C4AC7B",
"V. c #C0A778",
"C. c #C9B07E",
"Z. c #AB8F83",
"A. c #AD9283",
"S. c #BC9D8E",
"D. c #B79789",
"F. c #BE9E92",
"G. c #B9A498",
"H. c #BBB6A3",
"J. c #C39787",
"K. c #C59E92",
"L. c #CCA08F",
"P. c #D8A28B",
"I. c #CCB580",
"U. c #CFB881",
"Y. c #D2BD84",
"T. c #C1AC9C",
"R. c #D1A995",
"E. c #D8B29E",
"W. c #C6ACA0",
"Q. c #CABCAC",
"!. c #C7B7A7",
"~. c #D3BBAB",
"^. c #D8B8A6",
"/. c #E2BCAA",
"(. c #D7C287",
"). c #D9C488",
"_. c #DDC98A",
"`. c #D8C287",
"'. c #CDC9B7",
"]. c #CCC6B5",
"[. c #DECBBC",
"{. c #D6CBBA",
"}. c #D4D1BF",
"|. c #DBCEC1",
" X c #D7D4C2",
".X c #DEDACA",
"XX c #DAD5C4",
"oX c #E4DBCB",
"OX c #E1E0CF",
"+X c #EAE9DA",
"@X c #E9E8D7",
"#X c #F0EADF",
"$X c #F4EDE2",
"%X c #FF00FF",
/* pixels */
"%X%X%X%X%X%X%X%X%X%X%X%X%X%X%X%X%X%X%X%X%X%X%X%X%X%X%X%X%X%X%X%X%X%X%X%X%X%X%X%X%X%X%X%X%X%X%X%X%X%X%X%X%X%X%X%X%X%X%X%X%X%X%X%X",
"%X%X%X%X%X%X%X%X%X%X%X%X%X%X%X%X%X%X%X%X%X%X%X%X%X%X%X%X%X%X%X%X%X%X%X%X%X%X%X%X%X%X%X%X%X%X%X%X%X%X%X%X%X%X%X%X%X%X%X%X%X%X%X%X",
"%X%X%X%X%X%X%X%X%X%X%X%X%X%X%X%X%X%X%X%X%X%X%X%X%X%X%X%X%X%X%X%X%X%X%X%X%X%X%X%X%X%X%X%X%X%X%X%X%X%X%X%X%X%X%X%X%X%X%X%X%X%X%X%X",
"%X%X%X%X%X%X%X%X%X%X%X%X%X%X%X%X%X%X%X%X%X%X%X%X%X%X%X%X%X%X%X%X%X%X%X%X%X%X%X%X%X%X%X%X%X%X%X%X%X%X%X%X%X%X%X%X%X%X%X%X%X%X%X%X",
"%X%X%X%X%X%X%X%X%X%X%X%X%X%X%X%X%X%X%X%X%X%X%X%X%X%X%X%X%X%X%X%X%X%X%X%X%X%X%X%X%X%X%X%X%X%X%X%X%X%X%X%X%X%X%X%X%X%X%X%X%X%X%X%X",
"%X%X%X%X%X%X%X%X%X%X%X%X%X%X%X%X%X%X%X%X%X%X%X%X%X%X%X%X%X%X%X%X%X%X%X%X%X%X%X%X%X%X%X%X%X%X%X%X%X%X%X%X%X%X%X%X%X%X%X%X%X%X%X%X",
"%X%X%X%X%X%X%X%X%X%X%X%X%X%X%X%X%X%X%X%X%X%X%X%X%X%X%X%X%X%X%X%X%X%X%X%X%X%X%X%X%X%X%X%X%X%X%X%X%X%X%X%X%X%X%X%X%X%X%X%X%X%X%X%X",
"%X%X%X%X%X%X%X%X%X%X%X%X%X%X%X%X%X%X%X%X%X%X%X%X%X%X%X%X%X%X%X%X%X%X%X%X%X%X%X%X%X%X%X%X%X%X%X%X%X%X%X%X%X%X%X%X%X%X%X%X%X%X%X%X",
"%X%X%X%X%X%X%X%X%X%X%X%X%X%X%X%X%X%X%X%X%X%X%X%X%X%X%X%X%X%X%X%X%X%X%X%X%X%X%X%X%X%X%X%X%X%X%X%X%X%X%X%X%X%X%X%X%X%X%X%X%X%X%X%X",
"%X%X%X%X%X%X%X%X%X%X%X%X%X%X%X%X%X%X%X%X%X%X%X%X%X%X%X%X%X%X%X%X%X%X%X%X%X%X%X%X%X%X%X%X%X%X%X%X%X%X%X%X%X%X%X%X%X%X%X%X%X%X%X%X",
"%X%X%X%X%X%X%X%X%X%X%X%X%X%X%X%X%X%X%X%X%X%X%X%X%X%X%X%X%X%X%X%X%X%X%X%X%X%X%X%X%X%X%X%X%X%X%X%X%X%X%X%X%X%X%X%X%X%X%X%X%X%X%X%X",
"%X%X%X%X%X%X%X%X%X%X%X%X%X%X%X%X%X%X%X%X%X%X%X%X%X%X%X%X%X%X%X%X%X%X%X%X%X%X%X%X%X%X%X%X%X%X%X%X%X%X%X%X%X%X%X%X%X%X%X%X%X%X%X%X",
"%X%X%X%X%X%X%X%X%X%X%X%X%X%X%X%X%X%X%X%X%X%X%X%X%X%X%X%X%X%X%X%X%X%X%X%X%X%X%X%X%X%X%X%X%X%X%X%X%X%X%X%X%X%X%X%X%X%X%X%X%X%X%X%X",
"%X%X%X%X%X%X%X%X%X%X%X%X%X%X%X%X%X%X%X%X%X%X%X%X%X%X%X%X%X%X%X%X%X%X%X%X%X%X%X%X%X%X%X%X%X%X%X%X%X%X%X%X%X%X%X%X%X%X%X%X%X%X%X%X",
"%X%X%X%X%X%X%X%X%X%X%X%X%X%X%X%X%X%X%X%X%X%X%X%X%X%X%X%X%X%X%X%X%X%X%X%X%X%X%X%X%X%X%X%X%X%X%X%X%X%X%X%X%X%X%X%X%X%X%X%X%X%X%X%X",
"%X%X%X%X%X%X%X%X%X%X%X%X%X%X%X%X%X%X%X%X%X%X%X%X%X%X%X%X%X%X%X%X%X%X%X%X%X%X%X%X%X%X%X%X%X%X%X%X%X%X%X%X%X%X%X%X%X%X%X%X%X%X%X%X",
"%X%X%X%X%X%X%X%X%X%X%X%X%X%X%X%X%X%X%X%X%X%X%X%X%X%X%X%X%X%X%X%X%X%X%X%X%X%X%X%X%X%X%X%X%X%X%X%X%X%X%X%X%X%X%X%X%X%X%X%X%X%X%X%X",
"%X%X%X%X%X%X%X%X%X%X%X%X%X%X%X%X%X%X%X%X%X%X%X%X%X%X%X%X%X%X%X%X%X%X%X%X%X%X%X%X%X%X%X%X%X%X%X%X%X%X%X%X%X%X%X%X%X%X%X%X%X%X%X%X",
"%X%X%X%X%X%X%X%X%X%X%X%X%X%X%X%X%X%X%X%X%X%X%X%X%X%X%X%X%X%X%X  .     %X%X%X%X%X%X%X%X%X%X%X%X%X%X%X%X%X%X%X%X%X%X%X%X%X%X%X%X%X",
"%X%X%X%X%X%X%X%X%X%X%X%X%X%X%X%X%X%X%X%X%X%X%X%X%X%X%X%X%X$ 3 T Y Y T D O %X%X%X%X%X%X%X%X%X%X%X%X%X%X%X%X%X%X%X%X%X%X%X%X%X%X%X",
"%X%X%X%X%X%X%X%X%X%X%X%X%X%X%X%X%X%X%X%X%X%X%X%X%X%X%X%X<.G.m.0.0.w.0.*.Y A %X%X%X%X%X%X%X%X%X%X%X%X%X%X%X%X%X%X%X%X%X%X%X%X%X%X",
"%X%X%X%X%X%X%X%X%X%X%X%X%X%X%X%X%X%X%X%X%X%X%X%X%X%X%X` !.^.r.e.e.0.0.| | [ 1 %X%X%X%X%X%X%X%X%X%X%X%X%X%X%X%X%X%X%X%X%X%X%X%X%X",
"%X%X%X%X%X%X%X%X%X%X%X%X%X%X%X%X%X%X%X%X%X%X%X%X%XX - 8.E.r.,.R.L.e.*.} q.9.;.` %X%X%X%X%X%X%X%X%X%X%X%X%X%X%X%X%X%X%X%X%X%X%X%X",
"%X%X%X%X%X%X%X%X%X%X%X%X%X%X%X%X%X%X%X%X%X%X%X%XO > F ] =. .7.~.^.N.M.P.M.q.m.S.c %X%X%X%X%X%X%X%X%X%X%X%X%X%X%X%X%X%X%X%X%X%X%X",
"%X%X%X%X%X%X%X%X%X%X%X%X%X%X%X%X%X%X%X%X%X%X%Xo > A K R U [ -.n.b.P.oX+X[.n.=.6.L X %X%X%X%X%X%X%X%X%X%X%X%X%X%X%X%X%X%X%X%X%X%X",
"%X%X%X%X%X%X%X%X%X%X%X%X%X%X%X%X%X%X%X%X%X%Xo > F ! 4.j.X.}  .} =.^.OX.X}.!.;.J A = %X%X%X%X%X%X%X%X%X%X%X%X%X%X%X%X%X%X%X%X%X%X",
"%X%X%X%X%X%X%X%X%X%X%X%X%X%X%X%X%X%X%X%X%X. > S ' J.{. X^.b. .U ~ S.].'. X'.4.F J , o %X%X%X%X%X%X%X%X%X%X%X%X%X%X%X%X%X%X%X%X%X",
"%X%X%X%X%X%X%X%X%X%X%X%X%X%X%X%X%X%X%X%X%Xo , I k.oX@X+X$X/...U I ) D.XX+X.Xl.U U A & %X%X%X%X%X%X%X%X%X%X%X%X%X%X%X%X%X%X%X%X%X",
"%X%X%X%X%X%X%X%X%X%X%X%X%X%X%X%X%X%X%X%X  & , _ Q.OXXXoX+X~.~ U R R ;.^.+X[.6.R ' ^ > X %X%X%X%X%X%X%X%X%X%X%X%X%X%X%X%X%X%X%X%X",
"%X%X%X%X%X%X%X%X%X%X%X%X%X%X%X%X%X%X%X%Xo 3 D ( T..X}.'.Q.j.G U | | E ;.K.5.I Y 5.A./ + %X%X%X%X%X%X%X%X%X%X%X%X%X%X%X%X%X%X%X%X",
"%X%X%X%X%X%X%X%X%X%X%X%X%X%X%X%X%X%X%X%Xx p.1.G _ W.|.D.#._ l.6.| | E I K F S ! D.H.2.* %X%X%X%X%X%X%X%X%X%X%X%X%X%X%X%X%X%X%X%X",
"%X%X%X%X%X%X%X%X%X%X%X%X%X%X%X%X%X%X%X%Xc 2.$.D A _ 4.! ! F. XG.;.R U ~ J F S G 1.Z./ + %X%X%X%X%X%X%X%X%X%X%X%X%X%X%X%X%X%X%X%X",
"%X%X%X%X%X%X%X%X%X%X%X%X%X%X%X%X%X%X%X  O 4 2 , A C , , ^ T.XX!.:.I >.k.) S , , D L : o %X%X%X%X%X%X%X%X%X%X%X%X%X%X%X%X%X%X%X%X",
"%X%X%X%X%X%X%X%X%X%X%X%X%X%X%X%X%X%X%X%Xo + : , , Z , , D #.G.k.] { K.!.3.A & = : & o   %X%X%X%X%X%X%X%X%X%X%X%X%X%X%X%X%X%X%X%X",
"%X%X%X%X%X%X%X%X%X%X%X%X%X%X%X%X%X%X%X%X  o + = : , > = : A P I U Y :.4.Q , o o O . %X%X%X%X%X%X%X%X%X%X%X%X%X%X%X%X%X%X%X%X%X%X",
"%X%X%X%X%X%X%X%X%X%X%X%X%X%X%X%X%X%X%X%X%X%X  o O + % < * : , A S S A A , % .     %X%X%X%X%X%X%X%X%X%X%X%X%X%X%X%X%X%X%X%X%X%X%X",
"%X%X%X%X%X%X%X%X%X%X%X%X%X%X%X%X%X%X%X%X%X%X%X%X    5 o.s % = > , , , = O o %X%X%X%X%X%X%X%X%X%X%X%X%X%X%X%X%X%X%X%X%X%X%X%X%X%X",
"%X%X%X%X%X%X%X%X%X%X%X%X%X%X%X%X%X%X%X%X%X%X%X# > G 3 c o.a @ % * * * < s p %X%X%X%X%X%X%X%X%X%X%X%X%X%X%X%X%X%X%X%X%X%X%X%X%X%X",
"%X%X%X%X%X%X%X%X%X%X%X%X%X%X%X%X%X%X%X%X%X%Xm 8.{ *.W D a %.%.&.a.a.&.&.i.B %X%X%X%X%X%X%X%X%X%X%X%X%X%X%X%X%X%X%X%X%X%X%X%X%X%X",
"%X%X%X%X%X%X%X%X%X%X%X%X%X%X%X%X%X%X%X%X%XM G.R.9. .e.{ 1 %.x.B.Y.).I.c.g.&.f %X%X%X%X%X%X%X%X%X%X%X%X%X%X%X%X%X%X%X%X%X%X%X%X%X",
"%X%X%X%X%X%X%X%X%X%X%X%X%X%X%X%X%X%X%X%X@ <.D.>.[ >.E.k.D 3 a.Y._._.`.B.z.a.b %X%X%X%X%X%X%X%X%X%X%X%X%X%X%X%X%X%X%X%X%X%X%X%X%X",
"%X%X%X%X%X%X%X%X%X%X%X%X%X%X%X%X%X%X%X%X% 4 P I Y 6.~.F.H ; u.)._._.(.C.c.d.b y %X%X%X%X%X%X%X%X%X%X%X%X%X%X%X%X%X%X%X%X%X%X%X%X",
"%X%X%X%X%X%X%X%X%X%X%X%X%X%X%X%X%X%X%X%Xo & , F J G #.( > a c.)._.).Y.B.c.a.v 0 y i %X%X%X%X%X%X%X%X%X%X%X%X%X%X%X%X%X%X%X%X%X%X",
"%X%X%X%X%X%X%X%X%X%X%X%X%X%X%X%X%X%X%X%X%Xo % > , = : : - @.c.C.U.I.B.V.z.i.f w e i i i %X%X%X%X%X%X%X%X%X%X%X%X%X%X%X%X%X%X%X%X",
"%X%X%X%X%X%X%X%X%X%X%X%X%X%X%X%X%X%X%Xy.t.9 # @ - / s - n i.g.z.c.V.x.z.s.O.7 8 d u i i %X%X%X%X%X%X%X%X%X%X%X%X%X%X%X%X%X%X%X%X",
"%X%X%X%X%X%X%X%X%X%X%X%X%X%X%X%X%X%X%Xt.V i p o.a.V.c.%.n +.a.f.g.g.f.d.%.v 6 w d i %X%X%X%X%X%X%X%X%X%X%X%X%X%X%X%X%X%X%X%X%X%X",
"%X%X%X%X%X%X%X%X%X%X%X%X%X%X%X%X%X%X%X%Xd i f a.C.(.I.s.p p B O.O.+.+.o.b r 8 d g d %X%X%X%X%X%X%X%X%X%X%X%X%X%X%X%X%X%X%X%X%X%X",
"%X%X%X%X%X%X%X%X%X%X%X%X%X%X%X%X%X%X%X%X%XN g +.h.v.g.+.7 6 8 t 7 7 8 e w l d h z k %X%X%X%X%X%X%X%X%X%X%X%X%X%X%X%X%X%X%X%X%X%X",
"%X%X%X%X%X%X%X%X%X%X%X%X%X%X%X%X%X%X%X%X%X%Xk h B O.b t 0 8 8 l j 0 8 y q q i i i %X%X%X%X%X%X%X%X%X%X%X%X%X%X%X%X%X%X%X%X%X%X%X",
"%X%X%X%X%X%X%X%X%X%X%X%X%X%X%X%X%X%X%X%X%Xg i i t u g e r i 8 0 e i i e q %X%Xi i %X%X%X%X%X%X%X%X%X%X%X%X%X%X%X%X%X%X%X%X%X%X%X",
"%X%X%X%X%X%X%X%X%X%X%X%X%X%X%X%X%X%X%X%X%X%Xi i i k z h u i i 6 8 i i i %X%X%Xi %X%X%X%X%X%X%X%X%X%X%X%X%X%X%X%X%X%X%X%X%X%X%X%X",
"%X%X%X%X%X%X%X%X%X%X%X%X%X%X%X%X%X%X%X%X%X%Xi i %X%Xd d g i i i i %Xi g %X%X%Xi i %X%X%X%X%X%X%X%X%X%X%X%X%X%X%X%X%X%X%X%X%X%X%X",
"%X%X%X%X%X%X%X%X%X%X%X%X%X%X%X%X%X%X%X%X%Xi i i i %X%Xi i i i i i i %Xi %X%X%X%X%X%X%X%X%X%X%X%X%X%X%X%X%X%X%X%X%X%X%X%X%X%X%X%X",
"%X%X%X%X%X%X%X%X%X%X%X%X%X%X%X%X%X%X%X%X%X%Xi i %X%Xi i %Xi i %Xi i %Xi %X%X%X%X%X%X%X%X%X%X%X%X%X%X%X%X%X%X%X%X%X%X%X%X%X%X%X%X",
"%X%X%X%X%X%X%X%X%X%X%X%X%X%X%X%X%X%X%X%X%X%X%X%X%X%X%X%X%Xi %Xi i i i i %X%X%X%X%X%X%X%X%X%X%X%X%X%X%X%X%X%X%X%X%X%X%X%X%X%X%X%X",
"%X%X%X%X%X%X%X%X%X%X%X%X%X%X%X%X%X%X%X%X%X%X%X%X%X%X%X%X%X%X%X%Xi i %Xi %X%X%X%X%X%X%X%X%X%X%X%X%X%X%X%X%X%X%X%X%X%X%X%X%X%X%X%X",
"%X%X%X%X%X%X%X%X%X%X%X%X%X%X%X%X%X%X%X%X%X%X%X%X%X%X%X%X%X%X%X%X%X%X%X%X%X%X%X%X%X%X%X%X%X%X%X%X%X%X%X%X%X%X%X%X%X%X%X%X%X%X%X%X",
"%X%X%X%X%X%X%X%X%X%X%X%X%X%X%X%X%X%X%X%X%X%X%X%X%X%X%X%X%X%X%X%X%X%X%X%X%X%X%X%X%X%X%X%X%X%X%X%X%X%X%X%X%X%X%X%X%X%X%X%X%X%X%X%X",
"%X%X%X%X%X%X%X%X%X%X%X%X%X%X%X%X%X%X%X%X%X%X%X%X%X%X%X%X%X%X%X%X%X%X%X%X%X%X%X%X%X%X%X%X%X%X%X%X%X%X%X%X%X%X%X%X%X%X%X%X%X%X%X%X",
"%X%X%X%X%X%X%X%X%X%X%X%X%X%X%X%X%X%X%X%X%X%X%X%X%X%X%X%X%X%X%X%X%X%X%X%X%X%X%X%X%X%X%X%X%X%X%X%X%X%X%X%X%X%X%X%X%X%X%X%X%X%X%X%X",
"%X%X%X%X%X%X%X%X%X%X%X%X%X%X%X%X%X%X%X%X%X%X%X%X%X%X%X%X%X%X%X%X%X%X%X%X%X%X%X%X%X%X%X%X%X%X%X%X%X%X%X%X%X%X%X%X%X%X%X%X%X%X%X%X",
"%X%X%X%X%X%X%X%X%X%X%X%X%X%X%X%X%X%X%X%X%X%X%X%X%X%X%X%X%X%X%X%X%X%X%X%X%X%X%X%X%X%X%X%X%X%X%X%X%X%X%X%X%X%X%X%X%X%X%X%X%X%X%X%X",
"%X%X%X%X%X%X%X%X%X%X%X%X%X%X%X%X%X%X%X%X%X%X%X%X%X%X%X%X%X%X%X%X%X%X%X%X%X%X%X%X%X%X%X%X%X%X%X%X%X%X%X%X%X%X%X%X%X%X%X%X%X%X%X%X",
"%X%X%X%X%X%X%X%X%X%X%X%X%X%X%X%X%X%X%X%X%X%X%X%X%X%X%X%X%X%X%X%X%X%X%X%X%X%X%X%X%X%X%X%X%X%X%X%X%X%X%X%X%X%X%X%X%X%X%X%X%X%X%X%X"
};
