/* XPM */
static const char *enemy_1_4[] = {
/* columns rows colors chars-per-pixel */
"64 64 26 1 ",
"  c #6D1924",
". c #442823",
"X c #4F2B27",
"o c #4E3F30",
"O c #4B3D36",
"+ c #673A35",
"@ c #794539",
"# c #684740",
"$ c #756959",
"% c #832428",
"& c #9E3931",
"* c #BB4F3C",
"= c #CF643D",
"- c #9A306C",
"; c #D5377E",
": c #866A5C",
"> c #A88E7B",
", c #A69F91",
"< c #A9A392",
"1 c #BDB7A6",
"2 c #CBB498",
"3 c #D2CEBC",
"4 c #F1DCB8",
"5 c #EDEBDB",
"6 c #FFFFF3",
"7 c #FF00FF",
/* pixels */
"7777777777777777777777777777777777777777777777777777777777777777",
"7777777777777777777777777777777777777777777777777777777777777777",
"7777777777777777777777777777777777777777777777777777777777777777",
"7777777777777777777777777777777777777777777777777777777777777777",
"7777777777777777777777777777777777777777777777777777777777777777",
"7777777777777777777777777777777777777777777777777777777777777777",
"7777777777777777777777777777777777777777777777777777777777777777",
"7777777777777777777777777777777777777777777777777777777777777777",
"7777777777777777777777777777777777777777777777777777777777777777",
"7777777777777777777777777777777777777777777777777777777777777777",
"7777777777777777777777777777777777777777777777777777777777777777",
"7777777777777777777777777777777777777777777777777777777777777777",
"777777777777777777777777777777XXX7777777777777777777777777777777",
"77777777777777777777777777777X&&&OO77777777777777777777777777777",
"7777777777777777777777777777X&**533OXX77777777777777777777777777",
"777777777777777777777777777X&**=*533%%XXX77777777777777777777777",
"77777777777777777777777777X%35===*5&&%%%<O7777777777777777777777",
"77777777777777777777777777X<556==**&&% 333O777777777777777777777",
"777777777777777777777777XX%3555=**33&%&*33O777777777777777777777",
"7777777777777777777777XX %&&35***333<&*&&O7777777777777777777777",
"777777777777777777777O< %%&&&&&&&336*&&XX77777777777777777777777",
"77777777777777777777O<<&%%%&&&&&%%=&&XX7777777777777777777777777",
"77777777777777777777X<%& %%<<%%%%*&XX>2.7.XOX7777777777777777777",
"777777777777777777777X%%&*1<<<%**&X:##...#:X&X777777777777777777",
"7777777777777777777777X%%&3355&&&X>#:.77ooo:XO777777777777777777",
"77777777777777777777777XXX%33&XXX##::.7o566o:X777777777777777777",
"77777777777777777777777777XXXX>>>>>>::.o5666o.777777777777777777",
"7777777777777777777777777.::>>>222>>>::o3566o7777777777777777777",
"7777777777777777777777777.>:2-22222-2:>.o3566o777777777777777777",
"777777777777777777777777.>>:2;-242-;2:>.#o356o777777777777777777",
"77777777777777777777777.42#:22;444;22::#:#o566o77777777777777777",
"7777777777777777777777o444#>224444422>#>:#o356o77777777777777777",
"7777777777777777777777o242$>26+++++62>>::#.o56o77777777777777777",
"777777777777777777777oo35$o$>6@6@6@6>#::#.7o35o77777777777777777",
"777777777777777777777oo335oo.>24442>.o#..3ooo3o77777777777777777",
"777777777777777777777o,o35o77.......77.o33o77o777777777777777777",
"7777777777777777777777oo,3o777777777777o,3o777777777777777777777",
"7777777777777777777777oo,3o777777777777o,,o777777777777777777777",
"7777777777777777777777o,o,o777777777777o,o7777777777777777777777",
"7777777777777777777777o$o,$o77777777777o$o7777777777777777777777",
"77777777777777777777777oo$$o777777777777o77777777777777777777777",
"7777777777777777777777777o$o777777777777777777777777777777777777",
"77777777777777777777777777o7777777777777777777777777777777777777",
"7777777777777777777777777777777777777777777777777777777777777777",
"7777777777777777777777777777777777777777777777777777777777777777",
"7777777777777777777777777777777777777777777777777777777777777777",
"7777777777777777777777777777777777777777777777777777777777777777",
"7777777777777777777777777777777777777777777777777777777777777777",
"7777777777777777777777777777777777777777777777777777777777777777",
"7777777777777777777777777777777777777777777777777777777777777777",
"7777777777777777777777777777777777777777777777777777777777777777",
"7777777777777777777777777777777777777777777777777777777777777777",
"7777777777777777777777777777777777777777777777777777777777777777",
"7777777777777777777777777777777777777777777777777777777777777777",
"7777777777777777777777777777777777777777777777777777777777777777",
"7777777777777777777777777777777777777777777777777777777777777777",
"7777777777777777777777777777777777777777777777777777777777777777",
"7777777777777777777777777777777777777777777777777777777777777777",
"7777777777777777777777777777777777777777777777777777777777777777",
"7777777777777777777777777777777777777777777777777777777777777777",
"7777777777777777777777777777777777777777777777777777777777777777",
"7777777777777777777777777777777777777777777777777777777777777777",
"7777777777777777777777777777777777777777777777777777777777777777",
"7777777777777777777777777777777777777777777777777777777777777777"
};
