/* XPM */
static const char *enemy_2_3[] = {
/* columns rows colors chars-per-pixel */
"64 64 23 1 ",
"  c #6D1924",
". c #442823",
"X c #4F2B27",
"o c #4E3F30",
"O c #4B3D36",
"+ c #684740",
"@ c #77544B",
"# c #756959",
"$ c #832428",
"% c #9E3931",
"& c #BB4F3C",
"* c #CF643D",
"= c #D5377E",
"- c #866A5C",
"; c #A88E7B",
": c #A69F91",
"> c #A9A392",
", c #CBB498",
"< c #D2CEBC",
"1 c #F1DCB8",
"2 c #EDEBDB",
"3 c #FFFFF3",
"4 c #FF00FF",
/* pixels */
"4444444444444444444444444444444444444444444444444444444444444444",
"4444444444444444444444444444444444444444444444444444444444444444",
"4444444444444444444444444444444444444444444444444444444444444444",
"4444444444444444444444444444444444444444444444444444444444444444",
"4444444444444444444444444444444444444444444444444444444444444444",
"4444444444444444444444444444444444444444444444444444444444444444",
"4444444444444444444444444444444444444444444444444444444444444444",
"4444444444444444444444444444444444444444444444444444444444444444",
"4444444444444444444444444444444444444444444444444444444444444444",
"4444444444444444444444444444444444444444444444444444444444444444",
"4444444444444444444444444444444444444444444444444444444444444444",
"4444444444444444444444444444444444444444444444444444444444444444",
"4444444444444444444444444444444444444444444444444444444444444444",
"444444444444444444444444444XXX4444444444444444444444444444444444",
"44444444444444444444444444X&%$OO44444444444444444444444444444444",
"4444444444444444444444444O3&&<>>OXX44444444444444444444444444444",
"444444444444444444444444O33&&<<>>$$XXX44444444444444444444444444",
"44444444444444444444444O22&&%%>>$ %%&2X4444444444444444444444444",
"44444444444444444444444X%&%%$$$ %%&&<<>O444444444444444444444444",
"444444444444444444444XX%%%$$$$%%&&%%>>>X444444444444444444444444",
"4444444444444444444OO%$$ $ %&%$XXXXXXOX4444444444444444444444444",
"444444444444444444O23*&%%&<>OXX@@+  XX44444444444444444444444444",
"44444444444444444X<2&%%%$OOO@---@;+.4444444444444444444444444444",
"44444444444444444X$$$$XXX--@--;--OXXX444444444444444444444444444",
"444444444444444444XXXX .-;;--;,;O#%&*X44444444444444444444444444",
"444444444444444444444X.-;,++++,;X$%&&O44444444444444444444444444",
"4444444444444444444444..++---@++-X$%<O44444444444444444444444444",
"444444444444444444444444.;;;;---.-X$$O44444444444444444444444444",
"44444444444444444444444.;,,,;+++;..XX444444444444444444444444444",
"44444444444444444444444.,,=,+;,,;--.4444444444444444444444444444",
"44444444444444444444444.1=o+;,11,;-;.444444444444444444444444444",
"44444444444444444444444.1o3#;,1,,;;;;.44444444444444444444444444",
"44444444444444444444444.o332#;,,;;;;;,..444444444444444444444444",
"44444444444444444444444o332<#+++@;;;;;,,.o4444444444444444444444",
"4444444444444444444444o332<o+;;;;;;;;;o;,.4444444444444444444444",
"4444444444444444444444o32<o;---------#<o;,.o44444444444444444444",
"444444444444444444444o32<o..-++++++--#<o-;1.44444444444444444444",
"444444444444444444444o2<oo44........o<2o...444444444444444444444",
"444444444444444444444o<o:o4444o::o44o:2o444444444444444444444444",
"4444444444444444444444oo:o4444o:o4444o2o444444444444444444444444",
"44444444444444444444444o<o4444o<o4444o23o44444444444444444444444",
"44444444444444444444444o2o44444o444444o3o44444444444444444444444",
"444444444444444444444444o44444444444444o444444444444444444444444",
"4444444444444444444444444444444444444444444444444444444444444444",
"4444444444444444444444444444444444444444444444444444444444444444",
"4444444444444444444444444444444444444444444444444444444444444444",
"4444444444444444444444444444444444444444444444444444444444444444",
"4444444444444444444444444444444444444444444444444444444444444444",
"4444444444444444444444444444444444444444444444444444444444444444",
"4444444444444444444444444444444444444444444444444444444444444444",
"4444444444444444444444444444444444444444444444444444444444444444",
"4444444444444444444444444444444444444444444444444444444444444444",
"4444444444444444444444444444444444444444444444444444444444444444",
"4444444444444444444444444444444444444444444444444444444444444444",
"4444444444444444444444444444444444444444444444444444444444444444",
"4444444444444444444444444444444444444444444444444444444444444444",
"4444444444444444444444444444444444444444444444444444444444444444",
"4444444444444444444444444444444444444444444444444444444444444444",
"4444444444444444444444444444444444444444444444444444444444444444",
"4444444444444444444444444444444444444444444444444444444444444444",
"4444444444444444444444444444444444444444444444444444444444444444",
"4444444444444444444444444444444444444444444444444444444444444444",
"4444444444444444444444444444444444444444444444444444444444444444",
"4444444444444444444444444444444444444444444444444444444444444444"
};
