/* XPM */
static const char *enemy_3_2[] = {
/* columns rows colors chars-per-pixel */
"64 64 27 1 ",
"  c #6D1924",
". c #442823",
"X c #4F2B27",
"o c #522B2B",
"O c #4E3F30",
"+ c #4B3D36",
"@ c #673A35",
"# c #794539",
"$ c #684740",
"% c #77544B",
"& c #756959",
"* c #832428",
"= c #9E3931",
"- c #BB4F3C",
"; c #CF643D",
": c #9A306C",
"> c #D5377E",
", c #866A5C",
"< c #A88E7B",
"1 c #A69F91",
"2 c #A9A392",
"3 c #CBB498",
"4 c #D2CEBC",
"5 c #F1DCB8",
"6 c #EDEBDB",
"7 c #FFFFF3",
"8 c #FF00FF",
/* pixels */
"8888888888888888888888888888888888888888888888888888888888888888",
"8888888888888888888888888888888888888888888888888888888888888888",
"8888888888888888888888888888888888888888888888888888888888888888",
"8888888888888888888888888888888888888888888888888888888888888888",
"8888888888888888888888888888888888888888888888888888888888888888",
"8888888888888888888888888888888888888888888888888888888888888888",
"8888888888888888888888888888888888888888888888888888888888888888",
"8888888888888888888888888888888888888888888888888888888888888888",
"8888888888888888888888888888888888888888888888888888888888888888",
"8888888888888888888888888888888888888888888888888888888888888888",
"8888888888888888888888888888888888888888888888888888888888888888",
"8888888888888888888888888888888888888888888888888888888888888888",
"888888888888888888888888888888888888XXX8888888888888888888888888",
"8888888888888888888888888888888888XX*=-X888888888888888888888888",
"88888888888888888888888888888888XX**=--7+88888888888888888888888",
"888888888888888888888888888888XX*22==-;77+8888888888888888888888",
"88888888888888888888888888XXXX**2244--;;66+888888888888888888888",
"8888888888888888888888888X***= *2244-----4X888888888888888888888",
"8888888888888888888888888X**=-=**22==---===XX8888888888888888888",
"88888888888888888888888888X224== ***====4***=XX88888888888888888",
"888888888888888888888888888+222-=* ****222*=-=4+8888888888888888",
"8888888888888888888888888888++2*=-=** 22246-=42+8888888888888888",
"888888888888888888888888888.3<XX*==--=-776=***+88888888888888888",
"88888888888888888888888888XXX+$,X**======**XXX888888888888888888",
"8888888888888888888888888X;-=&+$<XX*****XXX888888888888888888888",
"8888888888888888888888888+--=*X,$$%XXXXX..8888888888888888888888",
"8888888888888888888888888+4=*X,,,,,<<<<.888888888888888888888888",
"8888888888888888888888888+**X,.,,<<<333<.88888888888888888888888",
"88888888888888888888888888XX..<%<<<33:33.88888888888888888888888",
"888888888888888888888888888.<<<3$<333>:5.88888888888888888888888",
"88888888888888888888888888.<<<355$3333>5.88888888888888888888888",
"888888888888888888888888..3<<3335$<33355.88888888888888888888888",
"8888888888888888888888O.33<<<$333$<3@7@o888888888888888888888888",
"8888888888888888888888.3<O<<<$<3<$<<37#@.88888888888888888888888",
"88888888888888888888O.3<O4&,,$,&$,,,<335..8888888888888888888888",
"88888888888888888888.5<,O44&,$&6O$$O....<<.888888888888888888888",
"888888888888888888888...O46OO467O...88.,,&O888888888888888888888",
"888888888888888888888888O66OO46O8888888.&46O88888888888888888888",
"88888888888888888888888O46O8O67OO8888888O467O8888888888888888888",
"88888888888888888888888O67O8O67OO88888888O66O8888888888888888888",
"88888888888888888888888O6O88O6O1O888888888O67O888888888888888888",
"88888888888888888888888O7O88O7O4O8888888888O67O88888888888888888",
"888888888888888888888888O8888O8O888888888888OOO88888888888888888",
"8888888888888888888888888888888888888888888888888888888888888888",
"8888888888888888888888888888888888888888888888888888888888888888",
"8888888888888888888888888888888888888888888888888888888888888888",
"8888888888888888888888888888888888888888888888888888888888888888",
"8888888888888888888888888888888888888888888888888888888888888888",
"8888888888888888888888888888888888888888888888888888888888888888",
"8888888888888888888888888888888888888888888888888888888888888888",
"8888888888888888888888888888888888888888888888888888888888888888",
"8888888888888888888888888888888888888888888888888888888888888888",
"8888888888888888888888888888888888888888888888888888888888888888",
"8888888888888888888888888888888888888888888888888888888888888888",
"8888888888888888888888888888888888888888888888888888888888888888",
"8888888888888888888888888888888888888888888888888888888888888888",
"8888888888888888888888888888888888888888888888888888888888888888",
"8888888888888888888888888888888888888888888888888888888888888888",
"8888888888888888888888888888888888888888888888888888888888888888",
"8888888888888888888888888888888888888888888888888888888888888888",
"8888888888888888888888888888888888888888888888888888888888888888",
"8888888888888888888888888888888888888888888888888888888888888888",
"8888888888888888888888888888888888888888888888888888888888888888",
"8888888888888888888888888888888888888888888888888888888888888888"
};
