/* XPM */
static const char *enemy_3_5[] = {
/* columns rows colors chars-per-pixel */
"64 64 27 1 ",
"  c #6D1924",
". c #442823",
"X c #4F2B27",
"o c #522B2B",
"O c #4E3F30",
"+ c #4B3D36",
"@ c #673A35",
"# c #794539",
"$ c #684740",
"% c #77544B",
"& c #756959",
"* c #832428",
"= c #9E3931",
"- c #BB4F3C",
"; c #CF643D",
": c #9A306C",
"> c #D5377E",
", c #866A5C",
"< c #A88E7B",
"1 c #A69F91",
"2 c #A9A392",
"3 c #CBB498",
"4 c #D2CEBC",
"5 c #F1DCB8",
"6 c #EDEBDB",
"7 c #FFFFF3",
"8 c #FF00FF",
/* pixels */
"8888888888888888888888888888888888888888888888888888888888888888",
"8888888888888888888888888888888888888888888888888888888888888888",
"8888888888888888888888888888888888888888888888888888888888888888",
"8888888888888888888888888888888888888888888888888888888888888888",
"8888888888888888888888888888888888888888888888888888888888888888",
"8888888888888888888888888888888888888888888888888888888888888888",
"8888888888888888888888888888888888888888888888888888888888888888",
"8888888888888888888888888888888888888888888888888888888888888888",
"8888888888888888888888888888888888888888888888888888888888888888",
"8888888888888888888888888888888888888888888888888888888888888888",
"8888888888888888888888888888888888888888888888888888888888888888",
"8888888888888888888888888888888888888888888888888888888888888888",
"888888888888888888888888888888888888XXX8888888888888888888888888",
"8888888888888888888888888888888888XX*=-X888888888888888888888888",
"88888888888888888888888888888888XX**=--7+88888888888888888888888",
"888888888888888888888888888888XX*22==-;77+8888888888888888888888",
"88888888888888888888888888XXXX**2244--;;66+888888888888888888888",
"8888888888888888888888888X***= *2244-----4X888888888888888888888",
"8888888888888888888888888X**=-=**22==---===XX8888888888888888888",
"88888888888888888888888888X224== ***====4***=XX88888888888888888",
"888888888888888888888888888+222-=* ****222*=-=4+8888888888888888",
"8888888888888888888888888888++2*=-=** 22246-=42+8888888888888888",
"888888888888888888888888888.3<XX*==--=-776=***+88888888888888888",
"88888888888888888888888888XXX+$,X**======**XXX888888888888888888",
"8888888888888888888888888X;-=&+$<XX*****XXX888888888888888888888",
"8888888888888888888888888+--=*X,$$%XXXXX..8888888888888888888888",
"8888888888888888888888888+4=*X,,,,,<<<<.888888888888888888888888",
"8888888888888888888888888+**X,.,,<<<333<.88888888888888888888888",
"88888888888888888888888888XX..<<<<<33:33.88888888888888888888888",
"888888888888888888888888888.<<<,<<333>:5.88888888888888888888888",
"88888888888888888888888888.<<<<<%<3333>5.88888888888888888888888",
"888888888888888888888888..3<<<<33$<33355.88888888888888888888888",
"8888888888888888888888O.33<<<<3355$3@7@o888888888888888888888888",
"8888888888888888888888.3<O<<<<<3353$37#@888888888888888888888888",
"88888888888888888888O.3<O4&,,,$<33<<$335.88888888888888888888888",
"88888888888888888888.5<,O6&,,%%$<<<&O...888888888888888888888888",
"888888888888888888888...O6&.....$<&47O1O888888888888888888888888",
"888888888888888888888888O66O8O11OO4667O8888888888888888888888888",
"8888888888888888888888888O6OO14O88O467O8888888888888888888888888",
"8888888888888888888888888O6OO46O888O677O888888888888888888888888",
"8888888888888888888888888O7OO4O88888O67O888888888888888888888888",
"8888888888888888888888888O7OO6O888888O67O88888888888888888888888",
"88888888888888888888888888O88O88888888OOO88888888888888888888888",
"8888888888888888888888888888888888888888888888888888888888888888",
"8888888888888888888888888888888888888888888888888888888888888888",
"8888888888888888888888888888888888888888888888888888888888888888",
"8888888888888888888888888888888888888888888888888888888888888888",
"8888888888888888888888888888888888888888888888888888888888888888",
"8888888888888888888888888888888888888888888888888888888888888888",
"8888888888888888888888888888888888888888888888888888888888888888",
"8888888888888888888888888888888888888888888888888888888888888888",
"8888888888888888888888888888888888888888888888888888888888888888",
"8888888888888888888888888888888888888888888888888888888888888888",
"8888888888888888888888888888888888888888888888888888888888888888",
"8888888888888888888888888888888888888888888888888888888888888888",
"8888888888888888888888888888888888888888888888888888888888888888",
"8888888888888888888888888888888888888888888888888888888888888888",
"8888888888888888888888888888888888888888888888888888888888888888",
"8888888888888888888888888888888888888888888888888888888888888888",
"8888888888888888888888888888888888888888888888888888888888888888",
"8888888888888888888888888888888888888888888888888888888888888888",
"8888888888888888888888888888888888888888888888888888888888888888",
"8888888888888888888888888888888888888888888888888888888888888888",
"8888888888888888888888888888888888888888888888888888888888888888"
};
