/* XPM */
static const char *enemy_1_1[] = {
/* columns rows colors chars-per-pixel */
"64 64 26 1 ",
"  c #6D1924",
". c #442823",
"X c #4F2B27",
"o c #4E3F30",
"O c #4B3D36",
"+ c #673A35",
"@ c #794539",
"# c #684740",
"$ c #756959",
"% c #832428",
"& c #9E3931",
"* c #BB4F3C",
"= c #CF643D",
"- c #9A306C",
"; c #D5377E",
": c #866A5C",
"> c #A88E7B",
", c #A69F91",
"< c #A9A392",
"1 c #BDB7A6",
"2 c #CBB498",
"3 c #D2CEBC",
"4 c #F1DCB8",
"5 c #EDEBDB",
"6 c #FFFFF3",
"7 c #FF00FF",
/* pixels */
"7777777777777777777777777777777777777777777777777777777777777777",
"7777777777777777777777777777777777777777777777777777777777777777",
"7777777777777777777777777777777777777777777777777777777777777777",
"7777777777777777777777777777777777777777777777777777777777777777",
"7777777777777777777777777777777777777777777777777777777777777777",
"7777777777777777777777777777777777777777777777777777777777777777",
"7777777777777777777777777777777777777777777777777777777777777777",
"7777777777777777777777777777777777777777777777777777777777777777",
"7777777777777777777777777777777777777777777777777777777777777777",
"7777777777777777777777777777777777777777777777777777777777777777",
"7777777777777777777777777777777777777777777777777777777777777777",
"7777777777777777777777777777777777777777777777777777777777777777",
"777777777777777777777777777777XXX7777777777777777777777777777777",
"77777777777777777777777777777X&&&OO77777777777777777777777777777",
"7777777777777777777777777777X&**533OXX77777777777777777777777777",
"777777777777777777777777777X&**=*533%%XXX77777777777777777777777",
"77777777777777777777777777X%35===*5&&%%%<O7777777777777777777777",
"77777777777777777777777777X<556==**&&% 333O777777777777777777777",
"777777777777777777777777XX%3555=**33&%&*33O777777777777777777777",
"7777777777777777777777XX %&&35***333<&*&&O7777777777777777777777",
"777777777777777777777O< %%&&&&&&&336*&&XX77777777777777777777777",
"77777777777777777777O<<&%%%&&&&&%%=&&XX7777777777777777777777777",
"77777777777777777777X<%& %%<<%%%%*&XX>2.777777777777777777777777",
"777777777777777777777X%%&*1<<<%**&X:##..7OXXX7777777777777777777",
"7777777777777777777777ooo&3355&&&X>#:.77O$&*=X777777777777777777",
"777777777777777777777o665.%33&XXX##::.77X%&**O777777777777777777",
"77777777777777777777o6665oXXXX>>>>>>::.77X%&3O777777777777777777",
"77777777777777777777o6653o::>>>222>>>::..:X%%O777777777777777777",
"7777777777777777777o6653o.>:2-22222-2:>.>.7XX7777777777777777777",
"7777777777777777777o653o#.>:2;-242-;2:>>.77777777777777777777777",
"777777777777777777o665o#:#::22;444;22:#24.7777777777777777777777",
"777777777777777777o653o#:>#>224444422>#444o777777777777777777777",
"777777777777777777o65o.#::>>26+++++62>$242o777777777777777777777",
"777777777777777777o53o7.#::#>6@6@6@6>$o$53oo77777777777777777777",
"777777777777777777o3ooo3..#o.>24442>.oo533oo77777777777777777777",
"7777777777777777777o77o33o.77.......77o53o,o77777777777777777777",
"7777777777777777777777o3,o777777777777o3,oo777777777777777777777",
"7777777777777777777777o,,o777777777777o3,oo777777777777777777777",
"77777777777777777777777o,o777777777777o,o,o777777777777777777777",
"77777777777777777777777o$o77777777777o$,o$o777777777777777777777",
"777777777777777777777777o777777777777o$$oo7777777777777777777777",
"7777777777777777777777777777777777777o$o777777777777777777777777",
"77777777777777777777777777777777777777o7777777777777777777777777",
"7777777777777777777777777777777777777777777777777777777777777777",
"7777777777777777777777777777777777777777777777777777777777777777",
"7777777777777777777777777777777777777777777777777777777777777777",
"7777777777777777777777777777777777777777777777777777777777777777",
"7777777777777777777777777777777777777777777777777777777777777777",
"7777777777777777777777777777777777777777777777777777777777777777",
"7777777777777777777777777777777777777777777777777777777777777777",
"7777777777777777777777777777777777777777777777777777777777777777",
"7777777777777777777777777777777777777777777777777777777777777777",
"7777777777777777777777777777777777777777777777777777777777777777",
"7777777777777777777777777777777777777777777777777777777777777777",
"7777777777777777777777777777777777777777777777777777777777777777",
"7777777777777777777777777777777777777777777777777777777777777777",
"7777777777777777777777777777777777777777777777777777777777777777",
"7777777777777777777777777777777777777777777777777777777777777777",
"7777777777777777777777777777777777777777777777777777777777777777",
"7777777777777777777777777777777777777777777777777777777777777777",
"7777777777777777777777777777777777777777777777777777777777777777",
"7777777777777777777777777777777777777777777777777777777777777777",
"7777777777777777777777777777777777777777777777777777777777777777",
"7777777777777777777777777777777777777777777777777777777777777777"
};
