/* XPM */
static const char *enemy_1_2[] = {
/* columns rows colors chars-per-pixel */
"64 64 26 1 ",
"  c #6D1924",
". c #442823",
"X c #4F2B27",
"o c #4E3F30",
"O c #4B3D36",
"+ c #673A35",
"@ c #794539",
"# c #684740",
"$ c #756959",
"% c #832428",
"& c #9E3931",
"* c #BB4F3C",
"= c #CF643D",
"- c #9A306C",
"; c #D5377E",
": c #866A5C",
"> c #A88E7B",
", c #A69F91",
"< c #A9A392",
"1 c #BDB7A6",
"2 c #CBB498",
"3 c #D2CEBC",
"4 c #F1DCB8",
"5 c #EDEBDB",
"6 c #FFFFF3",
"7 c #FF00FF",
/* pixels */
"7777777777777777777777777777777777777777777777777777777777777777",
"7777777777777777777777777777777777777777777777777777777777777777",
"7777777777777777777777777777777777777777777777777777777777777777",
"7777777777777777777777777777777777777777777777777777777777777777",
"7777777777777777777777777777777777777777777777777777777777777777",
"7777777777777777777777777777777777777777777777777777777777777777",
"7777777777777777777777777777777777777777777777777777777777777777",
"7777777777777777777777777777777777777777777777777777777777777777",
"7777777777777777777777777777777777777777777777777777777777777777",
"7777777777777777777777777777777777777777777777777777777777777777",
"7777777777777777777777777777777777777777777777777777777777777777",
"7777777777777777777777777777777777777777777777777777777777777777",
"7777777777777777777777777777777777777777777777777777777777777777",
"7777777777777777777777777777777777777777777777777777777777777777",
"7777777777777777777777777777777777777777777777777777777777777777",
"777777777777777777777777777777XXX7777777777777777777777777777777",
"77777777777777777777777777777X&&&OO77777777777777777777777777777",
"7777777777777777777777777777X&**533OXX77777777777777777777777777",
"777777777777777777777777777X&**=*533%%XXX77777777777777777777777",
"77777777777777777777777777X%35===*5&&%%%<O7777777777777777777777",
"777777777777777777777777XXX<556==**&&% 333O777777777777777777777",
"7777777777777777777777XX %&3555=*333<&*&3O7777777777777777777777",
"777777777777777777777O< %%&&35**&336*&&XX77777777777777777777777",
"77777777777777777777O<<&%%%&&&&&%%=&&XX7777777777777777777777777",
"77777777777777777777X<%& %%<<%%%%*&XX>2.777777777777777777777777",
"777777777777777777777X%%&*1<<<%**&X:##..OXXX77777777777777777777",
"7777777777777777777777X%%&3355&&&X>#:.7O$&*=X7777777777777777777",
"77777777777777777777777XXX%33&XXX##::.7X%&**O7777777777777777777",
"7777777777777777777777o66oXXXX>>>>>>::.7X%&3O7777777777777777777",
"777777777777777777777o666$::>>>222>>>::.:X%%O7777777777777777777",
"777777777777777777777o665$>:2-22222-2:>>.7XX77777777777777777777",
"77777777777777777777o6653o>:2;-242-;2:>>2.7777777777777777777777",
"77777777777777777777o653o##:22;444;22:#242.777777777777777777777",
"7777777777777777777o663o..#>224444422>#444.777777777777777777777",
"7777777777777777777o65o,$o$>26+++++62>#$42.777777777777777777777",
"7777777777777777777o53o,$o7$>6@6@6@6>$o3$#.o77777777777777777777",
"7777777777777777777o5oo$o777.>24442>.oo,,o,o77777777777777777777",
"7777777777777777777o3oo$o7777.......77o,$o,o77777777777777777777",
"77777777777777777777o77o77777777777777o$o,o777777777777777777777",
"7777777777777777777777777777777777777o$$o$o777777777777777777777",
"7777777777777777777777777777777777777o$oo$o777777777777777777777",
"7777777777777777777777777777777777777o$o7o7777777777777777777777",
"77777777777777777777777777777777777777o7777777777777777777777777",
"7777777777777777777777777777777777777777777777777777777777777777",
"7777777777777777777777777777777777777777777777777777777777777777",
"7777777777777777777777777777777777777777777777777777777777777777",
"7777777777777777777777777777777777777777777777777777777777777777",
"7777777777777777777777777777777777777777777777777777777777777777",
"7777777777777777777777777777777777777777777777777777777777777777",
"7777777777777777777777777777777777777777777777777777777777777777",
"7777777777777777777777777777777777777777777777777777777777777777",
"7777777777777777777777777777777777777777777777777777777777777777",
"7777777777777777777777777777777777777777777777777777777777777777",
"7777777777777777777777777777777777777777777777777777777777777777",
"7777777777777777777777777777777777777777777777777777777777777777",
"7777777777777777777777777777777777777777777777777777777777777777",
"7777777777777777777777777777777777777777777777777777777777777777",
"7777777777777777777777777777777777777777777777777777777777777777",
"7777777777777777777777777777777777777777777777777777777777777777",
"7777777777777777777777777777777777777777777777777777777777777777",
"7777777777777777777777777777777777777777777777777777777777777777",
"7777777777777777777777777777777777777777777777777777777777777777",
"7777777777777777777777777777777777777777777777777777777777777777",
"7777777777777777777777777777777777777777777777777777777777777777"
};
