/* XPM */
static const char *exit_23[] = {
/* columns rows colors chars-per-pixel */
"64 64 223 2 ",
"   c #A5372C",
".  c #A63B2C",
"X  c #AB3D2C",
"o  c #B23D2D",
"O  c #AA3632",
"+  c #A63933",
"@  c #AC3B32",
"#  c #AC3938",
"$  c #A73534",
"%  c #B33C34",
"&  c #BA3D33",
"*  c #B4373D",
"=  c #B43B3B",
"-  c #BA3C3D",
";  c #C33E3B",
":  c #AC4325",
">  c #AE422B",
",  c #B14525",
"<  c #BA4B26",
"1  c #B3432B",
"2  c #B9472C",
"3  c #BC4A2B",
"4  c #B64A26",
"5  c #BF502E",
"6  c #B54232",
"7  c #BA4333",
"8  c #BE4B31",
"9  c #BF5030",
"0  c #C14D2D",
"q  c #C1452F",
"w  c #C3522C",
"e  c #CA562E",
"r  c #CC592C",
"t  c #C24434",
"y  c #C14932",
"u  c #CA4936",
"i  c #C1413B",
"p  c #CC453C",
"a  c #CC4A3B",
"s  c #C84539",
"d  c #D64B3C",
"f  c #D84A3F",
"g  c #C45431",
"h  c #CB5A33",
"j  c #CA5630",
"k  c #D55437",
"l  c #D35D33",
"z  c #D3523A",
"x  c #DC593A",
"c  c #DD533A",
"v  c #D25D2D",
"b  c #D6632F",
"n  c #D46134",
"m  c #DB6436",
"M  c #DD6936",
"N  c #DD6C3B",
"B  c #D46639",
"V  c #DE723E",
"C  c #E16C3A",
"Z  c #E26E36",
"A  c #E4733B",
"S  c #EB793D",
"D  c #E6753C",
"F  c #BB3A40",
"G  c #C33B48",
"H  c #CB4645",
"J  c #D24542",
"K  c #D54C41",
"L  c #D3414D",
"P  c #D84A49",
"I  c #DF514A",
"U  c #D94856",
"Y  c #E44D47",
"T  c #EA5B43",
"R  c #E4524D",
"E  c #EB544B",
"W  c #E75747",
"Q  c #F4594E",
"!  c #EC5A53",
"~  c #E35853",
"^  c #F35D55",
"/  c #F25B5B",
"(  c #F4525E",
")  c #E04E5B",
"_  c #EA6942",
"`  c #F66B47",
"'  c #E67C41",
"]  c #EB7C41",
"[  c #EE6353",
"{  c #F6655B",
"}  c #FA645D",
"|  c #F8695F",
" . c #F66857",
".. c #FB7C56",
"X. c #FC7149",
"o. c #EB546C",
"O. c #F65C64",
"+. c #F35F79",
"@. c #FA6A64",
"#. c #FC6F69",
"$. c #F66764",
"%. c #FA7565",
"&. c #FD796C",
"*. c #FD7B64",
"=. c #F56778",
"-. c #FC7B7A",
";. c #FE7675",
":. c #EA8343",
">. c #EC8A47",
",. c #F28B44",
"<. c #F38C49",
"1. c #F58445",
"2. c #EF934B",
"3. c #EE9C4D",
"4. c #F4934A",
"5. c #F59A4D",
"6. c #F89D4D",
"7. c #F79347",
"8. c #FA8856",
"9. c #EC9E51",
"0. c #F49D51",
"q. c #F89C51",
"w. c #ECA44E",
"e. c #E8AA4F",
"r. c #F3A34F",
"t. c #F9A54E",
"y. c #E5A553",
"u. c #EBA252",
"i. c #E7AA55",
"p. c #ECAB56",
"a. c #ECAF59",
"s. c #F4A252",
"d. c #F9A452",
"f. c #F4AB54",
"g. c #F9AB52",
"h. c #F5AD58",
"j. c #EDB258",
"k. c #EBB256",
"l. c #F3B055",
"z. c #F8B356",
"x. c #F4B45A",
"c. c #F9B35A",
"v. c #F2B95C",
"b. c #F8B85C",
"n. c #FF8B69",
"m. c #FD9868",
"M. c #FE857B",
"N. c #FE8976",
"B. c #FE927C",
"V. c #FEA87C",
"C. c #FEB97F",
"Z. c #FD7E82",
"A. c #FC7585",
"S. c #FC7B94",
"D. c #FE8785",
"F. c #FE9C8C",
"G. c #FF9787",
"H. c #FE8896",
"J. c #FF9B9B",
"K. c #FEA584",
"L. c #FFA88D",
"P. c #FEBD8E",
"I. c #FEA898",
"U. c #FFB496",
"Y. c #FFBA9A",
"T. c #FFB49C",
"R. c #FE98A3",
"E. c #FEA2A3",
"W. c #FFA6AD",
"Q. c #FFB4A5",
"!. c #FFBEAF",
"~. c #FFB5AF",
"^. c #FFAEBD",
"/. c #FFB7B4",
"(. c #FFC399",
"). c #FFD49F",
"_. c #FFC6A6",
"`. c #FFC6AA",
"'. c #FFD8A1",
"]. c #FFCCB3",
"[. c #FFC8BA",
"{. c #FFC1B7",
"}. c #FFD2BD",
"|. c #FFDDBC",
" X c #FFDBB3",
".X c #FFE9AC",
"XX c #FFE4B2",
"oX c #FFE7BB",
"OX c #FFF4B3",
"+X c #FFFBBC",
"@X c #FFFCB4",
"#X c #FFBFCD",
"$X c #FFDACB",
"%X c #FFD7C3",
"&X c #FFCCD8",
"*X c #FFD8D9",
"=X c #FFCBC8",
"-X c #FFE3C4",
";X c #FFE5CB",
":X c #FFECCB",
">X c #FFEAC2",
",X c #FFF3C4",
"<X c #FFFCCB",
"1X c #FFF9C4",
"2X c #FFEBD5",
"3X c #FFE9DB",
"4X c #FFFCD5",
"5X c #FFF6DA",
"6X c #FFFDDB",
"7X c #FFF7D2",
"8X c #FFDFE9",
"9X c #FFF4E3",
"0X c #FFFDE3",
"qX c #FFFDEC",
"wX c #FFF6ED",
"eX c #FFEAF4",
"rX c #FFE3F1",
"tX c #FFF7F4",
"yX c #FFFDF3",
"uX c #FFFEFA",
"iX c #FFE7E1",
"pX c #FF00FF",
"aX c black",
/* pixels */
"pXpXpXpXpXpXpXpXpXpXpXpXpXpXpXpXpXpXpXpXpXpXpXpXpXpXpXpXpXpXpXpXpXpXpXpXpXpXpXpXpXpXpXpXpXpXpXpXpXpXpXpXpXpXpXpXpXpXpXpXpXpXpXpX",
"pXpXpXpXpXpXpXpXpXpXpXpXpXpXpXpXpXpXpXpXpXpXpXpXpXpXpXpXpXpXpXpXpXpXpXpXpXpXpXpXpXpXpXpXpXpXpXpXpXpXpXpXpXpXpXpXpXpXpXpXpXpXpXpX",
"pXpXpXpXpXpXpXpXpXpXpXpXpXpXpXpXpXpXpXpXpXpXpXpXpXpXpXpXpXpXpXpXpXpXpXpXpXpXpXpXpXpXpXpXpXpXpXpXpXpXpXpXpXpXpXpXpXpXpXpXpXpXpXpX",
"pXpXpXpXpXpXpXpXpXpXpXpXpXpXpXpXpXpXpXpXpXpXpXpXpXpXpXpXpXpXpXpXpXpXpXpXpXpXpXpXpXpXpXpXpXpXpXpXpXpXpXpXpXpXpXpXpXpXpXpXpXpXpXpX",
"pXpXpXpXpXpXpXpXpXpXpXpXpXpXpXpXpXpXpXpXpXpXpXpXpXpXpXpXpXpXpXpXpXpXpXpXpXpXpXpXpXpXpXpXpXpXpXpXpXpXpXpXpXpXpXpXpXpXpXpXpXpXpXpX",
"pXpXpXpXpXpXpXpXpXpXpXpXpXpXpXpXpXpXpXpXpXpXpXpXpXpXpXpXpXpXpXpXpXpXpXpXpXpXpXpXpXpXpXpXpXpXpXpXpXpXpXpXpXpXpXpXpXpXpXpXpXpXpXpX",
"pXpXpXpXpXpXpXpXpXpXpXpXpXpXpXpXpXpXpXpXpXpXpXpXpXpXpXpXpXpXpXpXpXpXpXpXpXpXpXpXpXpXpXpXpXpXpXpXpXpXpXpXpXpXpXpXpXpXpXpXpXpXpXpX",
"pXpXpXpXpXpXpXpXpXpXpXpXpXpXpXpXpXpXpXpXpXpXpXpXpXpXpXpXpXpXpXpXpXpXpXpXpXpXpXpXpXpXpXpXpXpXpXpXpXpXpXpXpXpXpXpXpXpXpXpXpXpXpXpX",
"pXpXpXpXpXpXpXpXpXpXpXpXpXpXpXpXpXpXpXpXpXpXpXpXpXpXpXpXpXpXpXpXpXpXpXpXpXpXpXpXpXpXpXpXpXpXpXpXpXpXpXpXpXpXpXpXpXpXpXpXpXpXpXpX",
"pXpXpXpXpXpXpXpXpXpXpXpXpXpXpXpXpXpXpXpXpXpXpXpXpXpXpXpXpXpXpXpXpXpXpXpXpXpXpXpXpXpXpXpXpXpXpXpXpXpXpXpXpXpXpXpXpXpXpXpXpXpXpXpX",
"pXpXpXpXpXpXpXpXpXpXpXpXpXpXpXpXpXpXpXpXpXpXy.i.i.pXpXpXpXpXpXpXpXpXpXpXpXpXpXpXpXpXpXpXpXpXpXpXpXpXpXpXpXpXpXpXpXpXpXpXpXpXpXpX",
"pXpXpXpXpXpXpXpXpXpXpXpXpXpXpXpXpXpXpXk.v.b.c.c.c.x.l.p.pXpXpXpXpXpXpXpXpXpXpXpXpXpXpXpXpXpXpXpXpXpXpXpXpXpXpXpXpXpXpXpXpXpXpXpX",
"pXpXpXpXpXpXpXpXpXpXpXpXpXpXpXpXpXj.v.c.g.5.<.,.,.4.q.d.h.p.pXpXpXpXpXpXpXpXpXpXpXpXpXpXpXpXpXpXpXpXpXpXpXpXpXpXpXpXpXpXpXpXpXpX",
"pXpXpXpXpXpXpXpXpXpXpXpXpXpXpXpXv.b.d.<.D m r e e l m ' 4.d.f.pXpXpXpXpXpXpXpXpXpXpXpXpXpXpXpXpXpXpXpXpXpXpXpXpXpXpXpXpXpXpXpXpX",
"pXpXpXpXpXpXpXpXpXpXpXpXpXpXpXv.c.4.C l 0 , > > > : , 0 n S 4.s.pXpXpXpXpXpXpXpXpXpXpXpXpXpXpXpXpXpXpXpXpXpXpXpXpXpXpXpXpXpXpXpX",
"pXpXpXpXpXpXpXpXpXpXpXpXpXpXv.c.<.m 3 1 1 X 6 6 @ X X > 4 w C 4.d.pXpXpXpXpXpXpXpXpXpXpXpXpXpXpXpXpXpXpXpXpXpXpXpXpXpXpXpXpXpXpX",
"pXpXpXpXpXpXpXpXpXpXpXpXpXv.c.<.l 2 X X 1 % 7 y 6 % % 1 > > 3 Z <.s.pXpXpXpXpXpXpXpXpXpXpXpXpXpXpXpXpXpXpXpXpXpXpXpXpXpXpXpXpXpX",
"pXpXpXpXpXpXpXpXpXpXpXpXa.c.4.m 2 X . X 7 t a d p i i 7 7 > , w N 4.9.pXpXpXpXpXpXpXpXpXpXpXpXpXpXpXpXpXpXpXpXpXpXpXpXpXpXpXpXpX",
"pXpXpXpXpXpXpXpXpXpXpXpXb.q.C 3 > X @ & p K W Q E Y R K a 7 2 > 3 A 5.pXpXpXpXpXpXpXpXpXpXpXpXpXpXpXpXpXpXpXpXpXpXpXpXpXpXpXpXpX",
"pXpXpXpXpXpXpXpXpXpXpXj.h.] w > > % i J R { %.%.@.| } ^ R K y X X h :.0.pXpXpXpXpXpXpXpXpXpXpXpXpXpXpXpXpXpXpXpXpXpXpXpXpXpXpXpX",
"pXpXpXpXpXpXpXpXpXpXpXb.5.m 2 1 8 a Y ^ | &.B.K.F.G.M.&.@.! K % . 2 N 4.pXpXpXpXpXpXpXpXpXpXpXpXpXpXpXpXpXpXpXpXpXpXpXpXpXpXpXpX",
"pXpXpXpXpXpXpXpXpXpXa.h.] e < 0 z T Q  .*.n.K.(.`.`.T.L.B.#.~ - @ X g :.3.pXpXpXpXpXpXpXpXpXpXpXpXpXpXpXpXpXpXpXpXpXpXpXpXpXpXpX",
"pXpXpXpXpXpXpXpXpXpXx.6.m 2 3 k T ` X...n.V.T.|.;X$X}.].Y.B.$.L %   1 N 5.pXpXpXpXpXpXpXpXpXpXpXpXpXpXpXpXpXpXpXpXpXpXpXpXpXpXpX",
"pXpXpXpXpXpXpXpXpXpXc.,.r 1 3 x ` X.8.m.L.].$X3X9XiX3X2X|.T.-.) * $ X n 4.pXpXpXpXpXpXpXpXpXpXpXpXpXpXpXpXpXpXpXpXpXpXpXpXpXpXpX",
"pXpXpXpXpXpXpXpXpXp.d.S 0 1 7 z ` 1.m.(.-X2X5X0XyXtXyXqX5X].D.o.G # X g :.3.pXpXpXpXpXpXpXpXpXpXpXpXpXpXpXpXpXpXpXpXpXpXpXpXpXpX",
"pXpXpXpXpXpXpXpXpXp.5.M < 1 % u _ 8.C.XX<X1X1X4XqXuXuXuXwX=XH.=.U = @ 2 V 2.pXpXpXpXpXpXpXpXpXpXpXpXpXpXpXpXpXpXpXpXpXpXpXpXpXpX",
"pXpXpXpXpXpXpXpXpXh.<.r , 1 7 u _ 8.P.XX+X+X<X6XqXyXuXuXtX*XW.A.U F @ > B 2.pXpXpXpXpXpXpXpXpXpXpXpXpXpXpXpXpXpXpXpXpXpXpXpXpXpX",
"pXpXpXpXpXpXpXpXpXf.:.w > 7 y k _ m.(..X+X6X0X4X0XyXuXuXuX8X^.S.o.H @ > h 2.pXpXpXpXpXpXpXpXpXpXpXpXpXpXpXpXpXpXpXpXpXpXpXpXpXpX",
"pXpXpXpXpXpXpXpXy.f.S w 1 6 y x 8.V.).OX<XqXqX6X0XyXuXyXtXrX#XR.=.L % X h >.pXpXpXpXpXpXpXpXpXpXpXpXpXpXpXpXpXpXpXpXpXpXpXpXpXpX",
"pXpXpXpXpXpXpXpXu.d.D 3 1 1 q x ..V.'.OX4XqXqXqXyXuXuXyXtXeX&XR.+.L % X w :.3.pXpXpXpXpXpXpXpXpXpXpXpXpXpXpXpXpXpXpXpXpXpXpXpXpX",
"pXpXpXpXpXpXpXpXu.6.M 1 X o q c  .B.Y..X<X<X4XqXuXuXyXqXtXeX&XW.=.U & X w :.3.pXpXpXpXpXpXpXpXpXpXpXpXpXpXpXpXpXpXpXpXpXpXpXpXpX",
"pXpXpXpXpXpXpXpXu.5.M 1 . X & d { M.U.XX1X@X+X0XuXuXyXqXtXeX*X~.Z.! u 2 e :.3.pXpXpXpXpXpXpXpXpXpXpXpXpXpXpXpXpXpXpXpXpXpXpXpXpX",
"pXpXpXpXpXpXpXpXu.5.M 1   O % d { M.U.oX,XOX@X6XuXuXyXqXyXtX2X!.D. .x 3 w ] 3.pXpXpXpXpXpXpXpXpXpXpXpXpXpXpXpXpXpXpXpXpXpXpXpXpX",
"pXpXpXpXpXpXpXpXu.5.M 1   O & K | M.U.XXoXOX+X6XuXuX0X0XqXwX2X!.M.[ z 2 5 ' 9.pXpXpXpXpXpXpXpXpXpXpXpXpXpXpXpXpXpXpXpXpXpXpXpXpX",
"pXpXpXpXpXpXpXpXu.6.C 1   O & K { ;.I. X>X,X4XqXuXyX0X6X9X2X%XR.=.I t X 9 :.9.pXpXpXpXpXpXpXpXpXpXpXpXpXpXpXpXpXpXpXpXpXpXpXpXpX",
"pXpXpXpXpXpXpXpX9.q.A 2 . @ 7 d ^ #.F. X:X5X0X0XqXyXyXqX9X;X/.H.O.J & . g >.pXpXpXpXpXpXpXpXpXpXpXpXpXpXpXpXpXpXpXpXpXpXpXpXpXpX",
"pXpXpXpXpXpXpXpXpXd.] 0 X X % p Q @.D.`.:X0XqX0X0XyXuXyX4X-X~.Z./ J % . h 2.pXpXpXpXpXpXpXpXpXpXpXpXpXpXpXpXpXpXpXpXpXpXpXpXpXpX",
"pXpXpXpXpXpXpXpXpXs.,.e X . o ; Y } M.Q.:XqXyXqX0XqXyXqX4X$XE.;.! p O X B 5.pXpXpXpXpXpXpXpXpXpXpXpXpXpXpXpXpXpXpXpXpXpXpXpXpXpX",
"pXpXpXpXpXpXpXpXpXs.4.l X . X & Y  .;.I.-X0XqXqX0XqXqXqX5X}.G.@.Y i @ 1 V 0.pXpXpXpXpXpXpXpXpXpXpXpXpXpXpXpXpXpXpXpXpXpXpXpXpXpX",
"pXpXpXpXpXpXpXpXpXw.6.C 1 . X 7 d E @.F.|.7X5X9X5X5X9X5X-X(.N.{ J * $ 8 :.s.pXpXpXpXpXpXpXpXpXpXpXpXpXpXpXpXpXpXpXpXpXpXpXpXpXpX",
"pXpXpXpXpXpXpXpXpXpXd.] 0 X X 1 t f ^ B._.|.;X:X;X;X:XoX_.K.*.R ; $ . h 2.pXpXpXpXpXpXpXpXpXpXpXpXpXpXpXpXpXpXpXpXpXpXpXpXpXpXpX",
"pXpXpXpXpXpXpXpXpXpXs.<.l 1 X o o s E %.F.Q.[.}.[.{.]._.L.N.| P - @ 2 N 0.pXpXpXpXpXpXpXpXpXpXpXpXpXpXpXpXpXpXpXpXpXpXpXpXpXpXpX",
"pXpXpXpXpXpXpXpXpXpX9.q.D 3 X X 1 t f [ &.D.J.E.E.J.I.L.N.$.~ H % > g >.f.pXpXpXpXpXpXpXpXpXpXpXpXpXpXpXpXpXpXpXpXpXpXpXpXpXpXpX",
"pXpXpXpXpXpXpXpXpXpXpXd.<.l , : , 1 u T  .@.;.Z.A.;.-.N.| I H 7 X 2 N 0.pXpXpXpXpXpXpXpXpXpXpXpXpXpXpXpXpXpXpXpXpXpXpXpXpXpXpXpX",
"pXpXpXpXpXpXpXpXpXpXpX9.q.S w : : 1 0 k Y E / O.O.( / [ W s 6 > 1 l 4.f.pXpXpXpXpXpXpXpXpXpXpXpXpXpXpXpXpXpXpXpXpXpXpXpXpXpXpXpX",
"pXpXpXpXpXpXpXpXpXpXpXpXd.7.M < : , 3 0 s p P P L L L H s 7 1 X 8 ' f.pXpXpXpXpXpXpXpXpXpXpXpXpXpXpXpXpXpXpXpXpXpXpXpXpXpXpXpXpX",
"pXpXpXpXpXpXpXpXpXpXpXpX9.d.,.n 4 : 4 2 6 & i i - * * = % 6 1 2 N 5.l.pXpXpXpXpXpXpXpXpXpXpXpXpXpXpXpXpXpXpXpXpXpXpXpXpXpXpXpXpX",
"pXpXpXpXpXpXpXpXpXpXpXpXpX9.d.1.v < , : > @ 6 6 # # # + @ 1 0 M 4.f.pXpXpXpXpXpXpXpXpXpXpXpXpXpXpXpXpXpXpXpXpXpXpXpXpXpXpXpXpXpX",
"pXpXpXpXpXpXpXpXpXpXpXpXpXpXs.t.,.b < , : . X > @ + + . X w A 5.l.pXpXpXpXpXpXpXpXpXpXpXpXpXpXpXpXpXpXpXpXpXpXpXpXpXpXpXpXpXpXpX",
"pXpXpXpXpXpXpXpXpXpXpXpXpXpXpXr.t.7.Z r < : : : X X X 2 h S r.x.pXpXpXpXpXpXpXpXpXpXpXpXpXpXpXpXpXpXpXpXpXpXpXpXpXpXpXpXpXpXpXpX",
"pXpXpXpXpXpXpXpXpXpXpXpXpXpXpXpXw.g.6.,.A b r r e e n A 4.f.v.pXpXpXpXpXpXpXpXpXpXpXpXpXpXpXpXpXpXpXpXpXpXpXpXpXpXpXpXpXpXpXpXpX",
"pXpXpXpXpXpXpXpXpXpXpXpXpXpXpXpXpXw.f.g.t.4.,.,.,.<.5.f.x.j.pXpXpXpXpXpXpXpXpXpXpXpXpXpXpXpXpXpXpXpXpXpXpXpXpXpXpXpXpXpXpXpXpXpX",
"pXpXpXpXpXpXpXpXpXpXpXpXpXpXpXpXpXpXpXw.f.l.z.z.z.x.l.a.pXpXpXpXpXpXpXpXpXpXpXpXpXpXpXpXpXpXpXpXpXpXpXpXpXpXpXpXpXpXpXpXpXpXpXpX",
"pXpXpXpXpXpXpXpXpXpXpXpXpXpXpXpXpXpXpXpXpXpXe.e.i.pXpXpXpXpXpXpXpXpXpXpXpXpXpXpXpXpXpXpXpXpXpXpXpXpXpXpXpXpXpXpXpXpXpXpXpXpXpXpX",
"pXpXpXpXpXpXpXpXpXpXpXpXpXpXpXpXpXpXpXpXpXpXpXpXpXpXpXpXpXpXpXpXpXpXpXpXpXpXpXpXpXpXpXpXpXpXpXpXpXpXpXpXpXpXpXpXpXpXpXpXpXpXpXpX",
"pXpXpXpXpXpXpXpXpXpXpXpXpXpXpXpXpXpXpXpXpXpXpXpXpXpXpXpXpXpXpXpXpXpXpXpXpXpXpXpXpXpXpXpXpXpXpXpXpXpXpXpXpXpXpXpXpXpXpXpXpXpXpXpX",
"pXpXpXpXpXpXpXpXpXpXpXpXpXpXpXpXpXpXpXpXpXpXpXpXpXpXpXpXpXpXpXpXpXpXpXpXpXpXpXpXpXpXpXpXpXpXpXpXpXpXpXpXpXpXpXpXpXpXpXpXpXpXpXpX",
"pXpXpXpXpXpXpXpXpXpXpXpXpXpXpXpXpXpXpXpXpXpXpXpXpXpXpXpXpXpXpXpXpXpXpXpXpXpXpXpXpXpXpXpXpXpXpXpXpXpXpXpXpXpXpXpXpXpXpXpXpXpXpXpX",
"pXpXpXpXpXpXpXpXpXpXpXpXpXpXpXpXpXpXpXpXpXpXpXpXpXpXpXpXpXpXpXpXpXpXpXpXpXpXpXpXpXpXpXpXpXpXpXpXpXpXpXpXpXpXpXpXpXpXpXpXpXpXpXpX",
"pXpXpXpXpXpXpXpXpXpXpXpXpXpXpXpXpXpXpXpXpXpXpXpXpXpXpXpXpXpXpXpXpXpXpXpXpXpXpXpXpXpXpXpXpXpXpXpXpXpXpXpXpXpXpXpXpXpXpXpXpXpXpXpX",
"pXpXpXpXpXpXpXpXpXpXpXpXpXpXpXpXpXpXpXpXpXpXpXpXpXpXpXpXpXpXpXpXpXpXpXpXpXpXpXpXpXpXpXpXpXpXpXpXpXpXpXpXpXpXpXpXpXpXpXpXpXpXpXpX",
"pXpXpXpXpXpXpXpXpXpXpXpXpXpXpXpXpXpXpXpXpXpXpXpXpXpXpXpXpXpXpXpXpXpXpXpXpXpXpXpXpXpXpXpXpXpXpXpXpXpXpXpXpXpXpXpXpXpXpXpXpXpXpXpX",
"pXpXpXpXpXpXpXpXpXpXpXpXpXpXpXpXpXpXpXpXpXpXpXpXpXpXpXpXpXpXpXpXpXpXpXpXpXpXpXpXpXpXpXpXpXpXpXpXpXpXpXpXpXpXpXpXpXpXpXpXpXpXpXpX",
"pXpXpXpXpXpXpXpXpXpXpXpXpXpXpXpXpXpXpXpXpXpXpXpXpXpXpXpXpXpXpXpXpXpXpXpXpXpXpXpXpXpXpXpXpXpXpXpXpXpXpXpXpXpXpXpXpXpXpXpXpXpXpXpX"
};
