/* XPM */
static const char *exit_3[] = {
/* columns rows colors chars-per-pixel */
"64 64 224 2 ",
"   c #A63B2E",
".  c #AC3D2E",
"X  c #A73A32",
"o  c #AC3C32",
"O  c #AD3938",
"+  c #AB3739",
"@  c #B33C34",
"#  c #B93E34",
"$  c #B43A3C",
"%  c #BC3D3C",
"&  c #C33F3A",
"*  c #AC4626",
"=  c #AD432C",
"-  c #AF4926",
";  c #B34C24",
":  c #B3442D",
">  c #BA442E",
",  c #B44A2B",
"<  c #BC4D2C",
"1  c #B54926",
"2  c #B75025",
"3  c #BD522C",
"4  c #BE5526",
"5  c #AE4131",
"6  c #B34232",
"7  c #BC4333",
"8  c #BB4A32",
"9  c #BE4239",
"0  c #B44633",
"q  c #BD5230",
"w  c #C54C2E",
"e  c #C3462E",
"r  c #C2552E",
"t  c #C55A2C",
"y  c #CA5C2F",
"u  c #C34533",
"i  c #C34A33",
"p  c #CD4E36",
"a  c #C2423A",
"s  c #CB453C",
"d  c #CA4A3A",
"f  c #C34A3C",
"g  c #D6493D",
"h  c #C25531",
"j  c #C65B33",
"k  c #CC5D32",
"l  c #CB5134",
"z  c #D35535",
"x  c #DB533C",
"c  c #D05039",
"v  c #E35C3B",
"b  c #E2533A",
"n  c #CE622F",
"m  c #CE6233",
"M  c #CF663A",
"N  c #D26435",
"B  c #D76934",
"V  c #D66A38",
"C  c #DB6D3A",
"Z  c #DA6B35",
"A  c #DC723C",
"S  c #DF7236",
"D  c #E9653C",
"F  c #E2753C",
"G  c #E47A3D",
"H  c #BB3942",
"J  c #CE4A43",
"K  c #CD434C",
"L  c #C84344",
"P  c #D34B43",
"I  c #DC4C42",
"U  c #D84749",
"Y  c #DD5144",
"T  c #CE4150",
"R  c #DB4B56",
"E  c #E54D4B",
"W  c #E3544A",
"Q  c #E9534E",
"!  c #E55B4A",
"~  c #EB5847",
"^  c #F5594C",
"/  c #ED5D52",
"(  c #E65755",
")  c #F35E54",
"_  c #F45C5B",
"`  c #F85E55",
"'  c #E34B5A",
"]  c #EC6D48",
"[  c #F66746",
"{  c #E57D41",
"}  c #EB7D42",
"|  c #ED6356",
" . c #F56556",
".. c #F76758",
"X. c #FC7459",
"o. c #F67C4C",
"O. c #EF5867",
"+. c #F45966",
"@. c #E04A61",
"#. c #FD6C68",
"$. c #F86863",
"%. c #F97464",
"&. c #FC7D6B",
"*. c #FA7C65",
"=. c #F56975",
"-. c #FB7879",
";. c #EF6373",
":. c #E58242",
">. c #EC8543",
",. c #ED8A44",
"<. c #EB8D48",
"1. c #F18F46",
"2. c #F18D49",
"3. c #EE934B",
"4. c #ED9C4D",
"5. c #EA954B",
"6. c #F2944A",
"7. c #F49B4D",
"8. c #F49045",
"9. c #FA8558",
"0. c #EC9C51",
"q. c #F49D51",
"w. c #EBA44E",
"e. c #E6A74E",
"r. c #F7A24F",
"t. c #F8A44F",
"y. c #EDA251",
"u. c #EBAC56",
"i. c #E5A953",
"p. c #F4A452",
"a. c #F5AB54",
"s. c #F8AC55",
"d. c #F4AE58",
"f. c #F9A751",
"g. c #ECB256",
"h. c #EFB559",
"j. c #F4B356",
"k. c #F8B257",
"l. c #F5B359",
"z. c #F3B959",
"x. c #F9B859",
"c. c #FC826D",
"v. c #FC8967",
"b. c #FE8575",
"n. c #FE8B74",
"m. c #FD8A7E",
"M. c #FD837F",
"N. c #FD9174",
"B. c #FE947C",
"V. c #FEA77A",
"C. c #FE7C86",
"Z. c #FC7683",
"A. c #FD7C90",
"S. c #FA6E82",
"D. c #FF8B84",
"F. c #FE868B",
"G. c #FE9B87",
"H. c #FE999B",
"J. c #FE8B9C",
"K. c #FEA58B",
"L. c #FEA78B",
"P. c #FFB98B",
"I. c #FEA592",
"U. c #FEA89C",
"Y. c #FFB79B",
"T. c #FF9AA3",
"R. c #FFA9A2",
"E. c #FEA1AB",
"W. c #FFBEA6",
"Q. c #FFB3AA",
"!. c #FFBDAD",
"~. c #FEA0B3",
"^. c #FFBCB1",
"/. c #FFC393",
"(. c #FFC895",
"). c #FFD795",
"_. c #FFE49F",
"`. c #FFC3A3",
"'. c #FFC7AB",
"]. c #FFD3A8",
"[. c #FFC5B5",
"{. c #FFCAB7",
"}. c #FEC1B8",
"|. c #FFD8B1",
" X c #FFDCBC",
".X c #FFD6B7",
"XX c #FFF1AD",
"oX c #FFF9AF",
"OX c #FFE3BB",
"+X c #FFE9B7",
"@X c #FFFAB3",
"#X c #FFFCBD",
"$X c #FFF3B7",
"%X c #FEE6AC",
"&X c #FFB3CC",
"*X c #FFCBC3",
"=X c #FFD9C3",
"-X c #FFC4DC",
";X c #FECBD1",
":X c #FFD0DB",
">X c #FFE5C4",
",X c #FFE4CB",
"<X c #FFEBC9",
"1X c #FFF4C3",
"2X c #FFFAC9",
"3X c #FFE4D3",
"4X c #FFE6DB",
"5X c #FFF7D3",
"6X c #FFFCD5",
"7X c #FFF4DC",
"8X c #FFFCDD",
"9X c #FFDCF1",
"0X c #FED8E7",
"qX c #FFE6E3",
"wX c #FFF5E6",
"eX c #FFFDE3",
"rX c #FFFEEC",
"tX c #FFEBF4",
"yX c #FFE5F4",
"uX c #FFFDF3",
"iX c #FFFEFA",
"pX c #FFF5F1",
"aX c #FF00FF",
"sX c black",
/* pixels */
"aXaXaXaXaXaXaXaXaXaXaXaXaXaXaXaXaXaXaXaXaXaXaXaXaXaXaXaXaXaXaXaXaXaXaXaXaXaXaXaXaXaXaXaXaXaXaXaXaXaXaXaXaXaXaXaXaXaXaXaXaXaXaXaX",
"aXaXaXaXaXaXaXaXaXaXaXaXaXaXaXaXaXaXaXaXaXaXaXaXaXaXaXaXaXaXaXaXaXaXaXaXaXaXaXaXaXaXaXaXaXaXaXaXaXaXaXaXaXaXaXaXaXaXaXaXaXaXaXaX",
"aXaXaXaXaXaXaXaXaXaXaXaXaXaXaXaXaXaXaXaXaXaXaXaXaXaXaXaXaXaXaXaXaXaXaXaXaXaXaXaXaXaXaXaXaXaXaXaXaXaXaXaXaXaXaXaXaXaXaXaXaXaXaXaX",
"aXaXaXaXaXaXaXaXaXaXaXaXaXaXaXaXaXaXaXaXaXaXaXaXaXaXaXaXaXaXaXaXaXaXaXaXaXaXaXaXaXaXaXaXaXaXaXaXaXaXaXaXaXaXaXaXaXaXaXaXaXaXaXaX",
"aXaXaXaXaXaXaXaXaXaXaXaXaXaXaXaXaXaXaXaXaXaXaXaXaXaXaXaXaXaXaXaXaXaXaXaXaXaXaXaXaXaXaXaXaXaXaXaXaXaXaXaXaXaXaXaXaXaXaXaXaXaXaXaX",
"aXaXaXaXaXaXaXaXaXaXaXaXaXaXaXaXaXaXaXaXaXaXaXaXaXaXaXaXaXaXaXaXaXaXaXaXaXaXaXaXaXaXaXaXaXaXaXaXaXaXaXaXaXaXaXaXaXaXaXaXaXaXaXaX",
"aXaXaXaXaXaXaXaXaXaXaXaXaXaXaXaXaXaXaXaXaXaXaXaXaXaXaXaXaXaXaXaXaXaXaXaXaXaXaXaXaXaXaXaXaXaXaXaXaXaXaXaXaXaXaXaXaXaXaXaXaXaXaXaX",
"aXaXaXaXaXaXaXaXaXaXaXaXaXaXaXaXaXaXaXaXaXaXaXaXaXaXaXaXaXaXaXaXaXaXaXaXaXaXaXaXaXaXaXaXaXaXaXaXaXaXaXaXaXaXaXaXaXaXaXaXaXaXaXaX",
"aXaXaXaXaXaXaXaXaXaXaXaXaXaXaXaXaXaXaXaXaXaXaXaXaXaXaXaXaXaXaXaXaXaXaXaXaXaXaXaXaXaXaXaXaXaXaXaXaXaXaXaXaXaXaXaXaXaXaXaXaXaXaXaX",
"aXaXaXaXaXaXaXaXaXaXaXaXaXaXaXaXaXaXaXaXaXaXaXaXaXaXaXaXaXaXaXaXaXaXaXaXaXaXaXaXaXaXaXaXaXaXaXaXaXaXaXaXaXaXaXaXaXaXaXaXaXaXaXaX",
"aXaXaXaXaXaXaXaXaXaXaXaXaXaXaXaXaXaXaXaXaXaXi.i.i.aXaXaXaXaXaXaXaXaXaXaXaXaXaXaXaXaXaXaXaXaXaXaXaXaXaXaXaXaXaXaXaXaXaXaXaXaXaXaX",
"aXaXaXaXaXaXaXaXaXaXaXaXaXaXaXaXaXaXaXg.z.x.l.k.k.l.l.u.aXaXaXaXaXaXaXaXaXaXaXaXaXaXaXaXaXaXaXaXaXaXaXaXaXaXaXaXaXaXaXaXaXaXaXaX",
"aXaXaXaXaXaXaXaXaXaXaXaXaXaXaXaXaXg.z.x.f.7.8.,.,.1.7.f.d.u.aXaXaXaXaXaXaXaXaXaXaXaXaXaXaXaXaXaXaXaXaXaXaXaXaXaXaXaXaXaXaXaXaXaX",
"aXaXaXaXaXaXaXaXaXaXaXaXaXaXaXaXz.x.f.1.S N k t t y N G 6.p.p.aXaXaXaXaXaXaXaXaXaXaXaXaXaXaXaXaXaXaXaXaXaXaXaXaXaXaXaXaXaXaXaXaX",
"aXaXaXaXaXaXaXaXaXaXaXaXaXaXaXz.k.6.F k < : , : = = , 3 m G 6.p.aXaXaXaXaXaXaXaXaXaXaXaXaXaXaXaXaXaXaXaXaXaXaXaXaXaXaXaXaXaXaXaX",
"aXaXaXaXaXaXaXaXaXaXaXaXaXaXz.k.,.N < , = = : 6 o o = = 1 r S 6.p.aXaXaXaXaXaXaXaXaXaXaXaXaXaXaXaXaXaXaXaXaXaXaXaXaXaXaXaXaXaXaX",
"aXaXaXaXaXaXaXaXaXaXaXaXaXh.s.,.k 1 = : : 6 8 7 @ @ 6 6 : - 3 S 1.p.aXaXaXaXaXaXaXaXaXaXaXaXaXaXaXaXaXaXaXaXaXaXaXaXaXaXaXaXaXaX",
"aXaXaXaXaXaXaXaXaXaXaXaXu.l.2.N 1 = . @ 7 7 p d a a a 9 6 : , 3 C 6.0.aXaXaXaXaXaXaXaXaXaXaXaXaXaXaXaXaXaXaXaXaXaXaXaXaXaXaXaXaX",
"aXaXaXaXaXaXaXaXaXaXaXaXl.q.V , = o @ % s Y ! ! W W Y P s 7 : = 3 F 7.aXaXaXaXaXaXaXaXaXaXaXaXaXaXaXaXaXaXaXaXaXaXaXaXaXaXaXaXaX",
"aXaXaXaXaXaXaXaXaXaXaXg.s.{ r : 6 # s I Q ..*.&.&.%.../ W P 7 5 = k >.0.aXaXaXaXaXaXaXaXaXaXaXaXaXaXaXaXaXaXaXaXaXaXaXaXaXaXaXaX",
"aXaXaXaXaXaXaXaXaXaXaXl.7.B < , i s I ^  .X.n.G.K.G.m.&.X./ J 6 = , C 6.aXaXaXaXaXaXaXaXaXaXaXaXaXaXaXaXaXaXaXaXaXaXaXaXaXaXaXaX",
"aXaXaXaXaXaXaXaXaXaXu.s.} y < i c x ~ [ X.&.G.Y.'.Q.U.I.B.%.( L @ = j >.4.aXaXaXaXaXaXaXaXaXaXaXaXaXaXaXaXaXaXaXaXaXaXaXaXaXaXaX",
"aXaXaXaXaXaXaXaXaXaXl.7.B < < l x D [ X.N.I.^.=X=X*X*X{.Y.B.$.U $ X , A 7.aXaXaXaXaXaXaXaXaXaXaXaXaXaXaXaXaXaXaXaXaXaXaXaXaXaXaX",
"aXaXaXaXaXaXaXaXaXaXd.>.r : 8 z v [ 9.V.`.=X3X7XwXqXqX3X XY.-.' H X : N 2.aXaXaXaXaXaXaXaXaXaXaXaXaXaXaXaXaXaXaXaXaXaXaXaXaXaXaX",
"aXaXaXaXaXaXaXaXaXu.a.F < = 7 z D o.V.].OX+X1X6XuXuXuXpX4X}.C.O.K $ = h :.4.aXaXaXaXaXaXaXaXaXaXaXaXaXaXaXaXaXaXaXaXaXaXaXaXaXaX",
"aXaXaXaXaXaXaXaXaXd.7.B : o 6 p D 9.P.%XXXXX#X6XrXiXiXiXpX;XJ.=.R $ o , A 3.aXaXaXaXaXaXaXaXaXaXaXaXaXaXaXaXaXaXaXaXaXaXaXaXaXaX",
"aXaXaXaXaXaXaXaXaXd.1.k : 6 6 i ] v.P._.@X2X6X8XrXiXiXiXiX0X~.S.@.H 6 , V 3.aXaXaXaXaXaXaXaXaXaXaXaXaXaXaXaXaXaXaXaXaXaXaXaXaXaX",
"aXaXaXaXaXaXaXaXaXa.>.r : 8 i z ] N.P._.2XeXeX6XeXiXiXiXiX9X&XA.O.K @ : m 1.aXaXaXaXaXaXaXaXaXaXaXaXaXaXaXaXaXaXaXaXaXaXaXaXaXaX",
"aXaXaXaXaXaXaXaXy.f.G < = : w D 9.V.).XX6XrXrX8XeXuXiXiXuXyX&XJ.;.K @ = j <.aXaXaXaXaXaXaXaXaXaXaXaXaXaXaXaXaXaXaXaXaXaXaXaXaXaX",
"aXaXaXaXaXaXaXaXy.t.F < : : w v X.V.).@X8XrXrXrXrXiXiXiXuXtX-XT.=.T @ . h :.4.aXaXaXaXaXaXaXaXaXaXaXaXaXaXaXaXaXaXaXaXaXaXaXaXaX",
"aXaXaXaXaXaXaXaXy.7.C , = : e b ..N.(.$X2X2X6XrXiXiXiXrXpXtX-XE.-.R 7 : r :.4.aXaXaXaXaXaXaXaXaXaXaXaXaXaXaXaXaXaXaXaXaXaXaXaXaX",
"aXaXaXaXaXaXaXaXy.7.V : . @ > g ` b./.+X1X@X#XeXiXiXuXrXuXtX:XQ.M./ p < r :.4.aXaXaXaXaXaXaXaXaXaXaXaXaXaXaXaXaXaXaXaXaXaXaXaXaX",
"aXaXaXaXaXaXaXaXy.7.V =   o # g  .b./.+X$XoX@X6XiXiXuXrXuXuX4X!.m. .z < r :.4.aXaXaXaXaXaXaXaXaXaXaXaXaXaXaXaXaXaXaXaXaXaXaXaXaX",
"aXaXaXaXaXaXaXaXy.7.V =   o 7 I ..n.(.+XOX$X#X8XiXiXeX8XrXpX4X'.m.| p : q { 4.aXaXaXaXaXaXaXaXaXaXaXaXaXaXaXaXaXaXaXaXaXaXaXaXaX",
"aXaXaXaXaXaXaXaXy.7.C = X o 7 I ` &.Y.|.=X1X6XrXiXiXeX6XwX4X*XU.=.Y 7 . q :.0.aXaXaXaXaXaXaXaXaXaXaXaXaXaXaXaXaXaXaXaXaXaXaXaXaX",
"aXaXaXaXaXaXaXaX4.7.A , X o 7 g ^ #.I.|.,X7XeXrXrXuXrXrXwX3X^.F.+.P @ . h >.aXaXaXaXaXaXaXaXaXaXaXaXaXaXaXaXaXaXaXaXaXaXaXaXaXaX",
"aXaXaXaXaXaXaXaXaXp.G q = 6 7 s E $.G.'.,XwXrXeXeXuXiXiXeX>XQ.C._ s @ o j <.aXaXaXaXaXaXaXaXaXaXaXaXaXaXaXaXaXaXaXaXaXaXaXaXaXaX",
"aXaXaXaXaXaXaXaXaXp.>.j = o @ & I ` D.W.<XrXuXeXeXrXiXrX2X XU.-.Q s @ o M 3.aXaXaXaXaXaXaXaXaXaXaXaXaXaXaXaXaXaXaXaXaXaXaXaXaXaX",
"aXaXaXaXaXaXaXaXaXp.6.N = . @ # g ) -.Y.>XeXrXrXeXrXrXeX5X.XG.$.I a O 6 A 0.aXaXaXaXaXaXaXaXaXaXaXaXaXaXaXaXaXaXaXaXaXaXaXaXaXaX",
"aXaXaXaXaXaXaXaXaXy.7.C ,   . > p ~ #.I.OX5X7XwX8X8XeX5X>X`.n.) P $ X 8 :.y.aXaXaXaXaXaXaXaXaXaXaXaXaXaXaXaXaXaXaXaXaXaXaXaXaXaX",
"aXaXaXaXaXaXaXaXaX0.q.} q = = > u g / G.].OX>X,X,X,X<XOX'.K.*.W & O o j 3.aXaXaXaXaXaXaXaXaXaXaXaXaXaXaXaXaXaXaXaXaXaXaXaXaXaXaX",
"aXaXaXaXaXaXaXaXaXaXq.2.k = = , # a ! c.L.W.[.{.[.[.'.`.L.c...P $ X 0 A q.aXaXaXaXaXaXaXaXaXaXaXaXaXaXaXaXaXaXaXaXaXaXaXaXaXaXaX",
"aXaXaXaXaXaXaXaXaXaX0.q.F < = = : 7 x  .c.D.U.R.T.H.H.L.n.../ J O = j <.u.aXaXaXaXaXaXaXaXaXaXaXaXaXaXaXaXaXaXaXaXaXaXaXaXaXaXaX",
"aXaXaXaXaXaXaXaXaXaXaXp.2.k = = 1 > i v  .#.-.F.C.Z.-.b.%.( J f 5 , A q.aXaXaXaXaXaXaXaXaXaXaXaXaXaXaXaXaXaXaXaXaXaXaXaXaXaXaXaX",
"aXaXaXaXaXaXaXaXaXaXaX0.q.G 3 * - , > z x Q _ $.+.O.( | ! s 6 6 , k 3.d.aXaXaXaXaXaXaXaXaXaXaXaXaXaXaXaXaXaXaXaXaXaXaXaXaXaXaXaX",
"aXaXaXaXaXaXaXaXaXaXaXaXp.6.V , * ; < w u s Y E R K L J d 8 : = h { f.aXaXaXaXaXaXaXaXaXaXaXaXaXaXaXaXaXaXaXaXaXaXaXaXaXaXaXaXaX",
"aXaXaXaXaXaXaXaXaXaXaXaX0.p.,.m ; - 2 < > 6 a 9 % H $ $ 6 : , < C 7.j.aXaXaXaXaXaXaXaXaXaXaXaXaXaXaXaXaXaXaXaXaXaXaXaXaXaXaXaXaX",
"aXaXaXaXaXaXaXaXaXaXaXaXaXy.r.>.k 2 ; 1 : 6 6 6 @ + O O o : r C 6.d.aXaXaXaXaXaXaXaXaXaXaXaXaXaXaXaXaXaXaXaXaXaXaXaXaXaXaXaXaXaX",
"aXaXaXaXaXaXaXaXaXaXaXaXaXaXp.r.>.B 4 ; * = = 6 o X o o = h S 7.j.aXaXaXaXaXaXaXaXaXaXaXaXaXaXaXaXaXaXaXaXaXaXaXaXaXaXaXaXaXaXaX",
"aXaXaXaXaXaXaXaXaXaXaXaXaXaXaXp.f.8.S t 2 - = , = = = , j G r.j.aXaXaXaXaXaXaXaXaXaXaXaXaXaXaXaXaXaXaXaXaXaXaXaXaXaXaXaXaXaXaXaX",
"aXaXaXaXaXaXaXaXaXaXaXaXaXaXaXaXw.f.7.,.S n t t r j N F 3.f.j.aXaXaXaXaXaXaXaXaXaXaXaXaXaXaXaXaXaXaXaXaXaXaXaXaXaXaXaXaXaXaXaXaX",
"aXaXaXaXaXaXaXaXaXaXaXaXaXaXaXaXaXw.a.s.r.6.,.,.,.<.7.f.l.g.aXaXaXaXaXaXaXaXaXaXaXaXaXaXaXaXaXaXaXaXaXaXaXaXaXaXaXaXaXaXaXaXaXaX",
"aXaXaXaXaXaXaXaXaXaXaXaXaXaXaXaXaXaXaXw.a.d.k.k.k.k.j.g.aXaXaXaXaXaXaXaXaXaXaXaXaXaXaXaXaXaXaXaXaXaXaXaXaXaXaXaXaXaXaXaXaXaXaXaX",
"aXaXaXaXaXaXaXaXaXaXaXaXaXaXaXaXaXaXaXaXaXaXe.e.e.aXaXaXaXaXaXaXaXaXaXaXaXaXaXaXaXaXaXaXaXaXaXaXaXaXaXaXaXaXaXaXaXaXaXaXaXaXaXaX",
"aXaXaXaXaXaXaXaXaXaXaXaXaXaXaXaXaXaXaXaXaXaXaXaXaXaXaXaXaXaXaXaXaXaXaXaXaXaXaXaXaXaXaXaXaXaXaXaXaXaXaXaXaXaXaXaXaXaXaXaXaXaXaXaX",
"aXaXaXaXaXaXaXaXaXaXaXaXaXaXaXaXaXaXaXaXaXaXaXaXaXaXaXaXaXaXaXaXaXaXaXaXaXaXaXaXaXaXaXaXaXaXaXaXaXaXaXaXaXaXaXaXaXaXaXaXaXaXaXaX",
"aXaXaXaXaXaXaXaXaXaXaXaXaXaXaXaXaXaXaXaXaXaXaXaXaXaXaXaXaXaXaXaXaXaXaXaXaXaXaXaXaXaXaXaXaXaXaXaXaXaXaXaXaXaXaXaXaXaXaXaXaXaXaXaX",
"aXaXaXaXaXaXaXaXaXaXaXaXaXaXaXaXaXaXaXaXaXaXaXaXaXaXaXaXaXaXaXaXaXaXaXaXaXaXaXaXaXaXaXaXaXaXaXaXaXaXaXaXaXaXaXaXaXaXaXaXaXaXaXaX",
"aXaXaXaXaXaXaXaXaXaXaXaXaXaXaXaXaXaXaXaXaXaXaXaXaXaXaXaXaXaXaXaXaXaXaXaXaXaXaXaXaXaXaXaXaXaXaXaXaXaXaXaXaXaXaXaXaXaXaXaXaXaXaXaX",
"aXaXaXaXaXaXaXaXaXaXaXaXaXaXaXaXaXaXaXaXaXaXaXaXaXaXaXaXaXaXaXaXaXaXaXaXaXaXaXaXaXaXaXaXaXaXaXaXaXaXaXaXaXaXaXaXaXaXaXaXaXaXaXaX",
"aXaXaXaXaXaXaXaXaXaXaXaXaXaXaXaXaXaXaXaXaXaXaXaXaXaXaXaXaXaXaXaXaXaXaXaXaXaXaXaXaXaXaXaXaXaXaXaXaXaXaXaXaXaXaXaXaXaXaXaXaXaXaXaX",
"aXaXaXaXaXaXaXaXaXaXaXaXaXaXaXaXaXaXaXaXaXaXaXaXaXaXaXaXaXaXaXaXaXaXaXaXaXaXaXaXaXaXaXaXaXaXaXaXaXaXaXaXaXaXaXaXaXaXaXaXaXaXaXaX",
"aXaXaXaXaXaXaXaXaXaXaXaXaXaXaXaXaXaXaXaXaXaXaXaXaXaXaXaXaXaXaXaXaXaXaXaXaXaXaXaXaXaXaXaXaXaXaXaXaXaXaXaXaXaXaXaXaXaXaXaXaXaXaXaX",
"aXaXaXaXaXaXaXaXaXaXaXaXaXaXaXaXaXaXaXaXaXaXaXaXaXaXaXaXaXaXaXaXaXaXaXaXaXaXaXaXaXaXaXaXaXaXaXaXaXaXaXaXaXaXaXaXaXaXaXaXaXaXaXaX"
};
