/* XPM */
static const char *exit_10[] = {
/* columns rows colors chars-per-pixel */
"64 64 221 2 ",
"   c #AB3D2E",
".  c #B23D2E",
"X  c #A73932",
"o  c #AC3B32",
"O  c #AB3538",
"+  c #AC3938",
"@  c #A73736",
"#  c #B33C34",
"$  c #BA3E32",
"%  c #B63D3A",
"&  c #B83A3D",
"*  c #AE4626",
"=  c #AD432C",
"-  c #AF4924",
";  c #B34627",
":  c #B54C25",
">  c #B3432C",
",  c #BA452C",
"<  c #B5492D",
"1  c #BB4C2D",
"2  c #B94927",
"3  c #BE522D",
"4  c #BD5524",
"5  c #AD4131",
"6  c #B44333",
"7  c #BB4332",
"8  c #BC4D32",
"9  c #BC4139",
"0  c #B74238",
"q  c #BF5330",
"w  c #C3542D",
"e  c #C95B2C",
"r  c #C5592D",
"t  c #C44534",
"y  c #C54A32",
"u  c #C3433B",
"i  c #CB4A3B",
"p  c #CB4935",
"a  c #D44A3D",
"s  c #D4473E",
"d  c #C45632",
"f  c #CA5432",
"g  c #C75A32",
"h  c #CC5A32",
"j  c #C7563B",
"k  c #D25534",
"l  c #D25D33",
"z  c #DB533B",
"x  c #DC5F39",
"c  c #E2573E",
"v  c #CE612F",
"b  c #D1652F",
"n  c #D26234",
"m  c #DC6536",
"M  c #DB6B39",
"N  c #D86A38",
"B  c #DD713C",
"V  c #DD7235",
"C  c #CE633A",
"Z  c #E6683B",
"A  c #E4753D",
"S  c #E3783A",
"D  c #BB3940",
"F  c #C43B46",
"G  c #D43C4F",
"H  c #CB4542",
"J  c #CB4841",
"K  c #D54D43",
"L  c #D5494A",
"P  c #D84A46",
"I  c #DB5547",
"U  c #DA4652",
"Y  c #E04F4A",
"T  c #E45C4E",
"R  c #E85646",
"E  c #E44D58",
"W  c #EC5B52",
"Q  c #E75753",
"!  c #F15A57",
"~  c #F75E4A",
"^  c #E46441",
"/  c #F4664C",
"(  c #E57B40",
")  c #E87C42",
"_  c #ED6355",
"`  c #EE675A",
"'  c #F26456",
"]  c #F2645A",
"[  c #F96D57",
"{  c #F97554",
"}  c #F77759",
"|  c #EE506E",
" . c #F55D64",
".. c #F95B6B",
"X. c #FB696B",
"o. c #F66865",
"O. c #FB746B",
"+. c #FA796A",
"@. c #F6746A",
"#. c #FD7D7C",
"$. c #FD7675",
"%. c #F36772",
"&. c #EE8B3F",
"*. c #E68144",
"=. c #EC8543",
"-. c #EC8A45",
";. c #EA8A4A",
":. c #F28744",
">. c #F28D47",
",. c #F38D49",
"<. c #ED9D4E",
"1. c #EC944C",
"2. c #F2934A",
"3. c #F49A4D",
"4. c #F5974A",
"5. c #EC9D50",
"6. c #F59E51",
"7. c #F38353",
"8. c #E8A44E",
"9. c #F4A24D",
"0. c #F8A34B",
"q. c #EDA451",
"w. c #E6AB53",
"e. c #ECAB55",
"r. c #E7A750",
"t. c #F4A351",
"y. c #F8A452",
"u. c #F4AB54",
"i. c #F8AE54",
"p. c #F9AE58",
"a. c #F0AF58",
"s. c #EDB359",
"d. c #EDB156",
"f. c #F5B156",
"g. c #F4B45A",
"h. c #F9B45A",
"j. c #F5B95B",
"k. c #F8B054",
"l. c #FD8B63",
"z. c #FE9C6E",
"x. c #FB8274",
"c. c #FD8879",
"v. c #FD9579",
"b. c #FEA978",
"n. c #FFB072",
"m. c #FFC27D",
"M. c #FE7A83",
"N. c #FD7588",
"B. c #FC6D8C",
"V. c #FD8C82",
"C. c #FE8A88",
"Z. c #FE9B8A",
"A. c #FE9882",
"S. c #FF9C91",
"D. c #FF959C",
"F. c #FF9C9B",
"G. c #FE9592",
"H. c #FEAD8D",
"J. c #FEA08E",
"K. c #FFBA82",
"L. c #FFAE9B",
"P. c #FEA296",
"I. c #FFB999",
"U. c #FE87A7",
"Y. c #FE8BBD",
"T. c #FF9BB1",
"R. c #FFA9A4",
"E. c #FFB8A6",
"W. c #FFBBB3",
"Q. c #FFBDBC",
"!. c #FFB1BC",
"~. c #FFA6B3",
"^. c #FFCF88",
"/. c #FFD08E",
"(. c #FFC59A",
"). c #FFD598",
"_. c #FFE69A",
"`. c #FFE58C",
"'. c #FFC9AB",
"]. c #FFD7A6",
"[. c #FFC4B6",
"{. c #FFCEB3",
"}. c #FFC6BB",
"|. c #FFE7A8",
" X c #FFE6B3",
".X c #FFEBBF",
"XX c #FFE3BB",
"oX c #FFF2B5",
"OX c #FEA1CF",
"+X c #FFB6D8",
"@X c #FFC8C5",
"#X c #FFDFC3",
"$X c #FFDCCB",
"%X c #FFD5C6",
"&X c #FFC9DB",
"*X c #FFDAD6",
"=X c #FFE6C7",
"-X c #FFF4C6",
";X c #FFFCC5",
":X c #FFF6CA",
">X c #FFFCCB",
",X c #FFE3DB",
"<X c #FFE4D5",
"1X c #FFFCD4",
"2X c #FFF4DC",
"3X c #FFFDDD",
"4X c #FFF5D0",
"5X c #FFCDE3",
"6X c #FFD9E4",
"7X c #FFEBE5",
"8X c #FFECE9",
"9X c #FFE7E7",
"0X c #FFF5E2",
"qX c #FFFDE4",
"wX c #FFF4EB",
"eX c #FFFDEB",
"rX c #FFF6F1",
"tX c #FFFEF4",
"yX c #FFFEFA",
"uX c #FF00FF",
"iX c black",
/* pixels */
"uXuXuXuXuXuXuXuXuXuXuXuXuXuXuXuXuXuXuXuXuXuXuXuXuXuXuXuXuXuXuXuXuXuXuXuXuXuXuXuXuXuXuXuXuXuXuXuXuXuXuXuXuXuXuXuXuXuXuXuXuXuXuXuX",
"uXuXuXuXuXuXuXuXuXuXuXuXuXuXuXuXuXuXuXuXuXuXuXuXuXuXuXuXuXuXuXuXuXuXuXuXuXuXuXuXuXuXuXuXuXuXuXuXuXuXuXuXuXuXuXuXuXuXuXuXuXuXuXuX",
"uXuXuXuXuXuXuXuXuXuXuXuXuXuXuXuXuXuXuXuXuXuXuXuXuXuXuXuXuXuXuXuXuXuXuXuXuXuXuXuXuXuXuXuXuXuXuXuXuXuXuXuXuXuXuXuXuXuXuXuXuXuXuXuX",
"uXuXuXuXuXuXuXuXuXuXuXuXuXuXuXuXuXuXuXuXuXuXuXuXuXuXuXuXuXuXuXuXuXuXuXuXuXuXuXuXuXuXuXuXuXuXuXuXuXuXuXuXuXuXuXuXuXuXuXuXuXuXuXuX",
"uXuXuXuXuXuXuXuXuXuXuXuXuXuXuXuXuXuXuXuXuXuXuXuXuXuXuXuXuXuXuXuXuXuXuXuXuXuXuXuXuXuXuXuXuXuXuXuXuXuXuXuXuXuXuXuXuXuXuXuXuXuXuXuX",
"uXuXuXuXuXuXuXuXuXuXuXuXuXuXuXuXuXuXuXuXuXuXuXuXuXuXuXuXuXuXuXuXuXuXuXuXuXuXuXuXuXuXuXuXuXuXuXuXuXuXuXuXuXuXuXuXuXuXuXuXuXuXuXuX",
"uXuXuXuXuXuXuXuXuXuXuXuXuXuXuXuXuXuXuXuXuXuXuXuXuXuXuXuXuXuXuXuXuXuXuXuXuXuXuXuXuXuXuXuXuXuXuXuXuXuXuXuXuXuXuXuXuXuXuXuXuXuXuXuX",
"uXuXuXuXuXuXuXuXuXuXuXuXuXuXuXuXuXuXuXuXuXuXuXuXuXuXuXuXuXuXuXuXuXuXuXuXuXuXuXuXuXuXuXuXuXuXuXuXuXuXuXuXuXuXuXuXuXuXuXuXuXuXuXuX",
"uXuXuXuXuXuXuXuXuXuXuXuXuXuXuXuXuXuXuXuXuXuXuXuXuXuXuXuXuXuXuXuXuXuXuXuXuXuXuXuXuXuXuXuXuXuXuXuXuXuXuXuXuXuXuXuXuXuXuXuXuXuXuXuX",
"uXuXuXuXuXuXuXuXuXuXuXuXuXuXuXuXuXuXuXuXuXuXuXuXuXuXuXuXuXuXuXuXuXuXuXuXuXuXuXuXuXuXuXuXuXuXuXuXuXuXuXuXuXuXuXuXuXuXuXuXuXuXuXuX",
"uXuXuXuXuXuXuXuXuXuXuXuXuXuXuXuXuXuXuXuXuXuXw.w.w.uXuXuXuXuXuXuXuXuXuXuXuXuXuXuXuXuXuXuXuXuXuXuXuXuXuXuXuXuXuXuXuXuXuXuXuXuXuXuX",
"uXuXuXuXuXuXuXuXuXuXuXuXuXuXuXuXuXuXuXs.g.j.h.h.h.f.f.e.uXuXuXuXuXuXuXuXuXuXuXuXuXuXuXuXuXuXuXuXuXuXuXuXuXuXuXuXuXuXuXuXuXuXuXuX",
"uXuXuXuXuXuXuXuXuXuXuXuXuXuXuXuXuXs.j.h.y.6.,.:.:.,.4.y.i.e.uXuXuXuXuXuXuXuXuXuXuXuXuXuXuXuXuXuXuXuXuXuXuXuXuXuXuXuXuXuXuXuXuXuX",
"uXuXuXuXuXuXuXuXuXuXuXuXuXuXuXuXs.j.y.>.A m l f f h m A ,.y.u.uXuXuXuXuXuXuXuXuXuXuXuXuXuXuXuXuXuXuXuXuXuXuXuXuXuXuXuXuXuXuXuXuX",
"uXuXuXuXuXuXuXuXuXuXuXuXuXuXuXj.h.2.M h 1 < < =     > 1 l S 4.t.uXuXuXuXuXuXuXuXuXuXuXuXuXuXuXuXuXuXuXuXuXuXuXuXuXuXuXuXuXuXuXuX",
"uXuXuXuXuXuXuXuXuXuXuXuXuXuXj.p.-.n < = = > > o X o o   > w A ,.9.uXuXuXuXuXuXuXuXuXuXuXuXuXuXuXuXuXuXuXuXuXuXuXuXuXuXuXuXuXuXuX",
"uXuXuXuXuXuXuXuXuXuXuXuXuXs.p.-.h ; =   # 6 7 # # # # o o > 1 m ,.9.uXuXuXuXuXuXuXuXuXuXuXuXuXuXuXuXuXuXuXuXuXuXuXuXuXuXuXuXuXuX",
"uXuXuXuXuXuXuXuXuXuXuXuXs.h.,.l <   o # 9 i a H H u 9 0 # #   < M 2.<.uXuXuXuXuXuXuXuXuXuXuXuXuXuXuXuXuXuXuXuXuXuXuXuXuXuXuXuXuX",
"uXuXuXuXuXuXuXuXuXuXuXuXg.6.M 1 5 o # 9 a R / W W Q Y K t # o   1 S 3.uXuXuXuXuXuXuXuXuXuXuXuXuXuXuXuXuXuXuXuXuXuXuXuXuXuXuXuXuX",
"uXuXuXuXuXuXuXuXuXuXuXs.p.=.f 5 o 6 7 t c ~ [ O.O.X.o.' I i % # = g =.<.uXuXuXuXuXuXuXuXuXuXuXuXuXuXuXuXuXuXuXuXuXuXuXuXuXuXuXuX",
"uXuXuXuXuXuXuXuXuXuXuXj.6.M 1 6 # 7 t a W [ x.V.C.M.#.$.o.T i 0 o > M 2.uXuXuXuXuXuXuXuXuXuXuXuXuXuXuXuXuXuXuXuXuXuXuXuXuXuXuXuX",
"uXuXuXuXuXuXuXuXuXuXs.h.:.l 1 7 7 y z W +.V.P.E.R.D.D.G.c.@.I & +   d =.3.uXuXuXuXuXuXuXuXuXuXuXuXuXuXuXuXuXuXuXuXuXuXuXuXuXuXuX",
"uXuXuXuXuXuXuXuXuXuXg.3.M w 1 y k ^ } x.S.E.{.=X%XQ.Q.W.R.V.Q F & o < B 3.uXuXuXuXuXuXuXuXuXuXuXuXuXuXuXuXuXuXuXuXuXuXuXuXuXuXuX",
"uXuXuXuXuXuXuXuXuXuXi.=.d < 1 y x 7.b.H.I.]. X:X2X,X,X*X@XF.%.U F O = n 2.uXuXuXuXuXuXuXuXuXuXuXuXuXuXuXuXuXuXuXuXuXuXuXuXuXuXuX",
"uXuXuXuXuXuXuXuXuXe.t.B < > 1 f ^ l.K././._.oX1XqXqXeXwX,X!.N.E F O   w =.3.uXuXuXuXuXuXuXuXuXuXuXuXuXuXuXuXuXuXuXuXuXuXuXuXuXuX",
"uXuXuXuXuXuXuXuXuXu.4.n = 5 8 k / l.m.`.|.-X3XeXtXeXeXtXwX&XU.| G D o 1 S 3.uXuXuXuXuXuXuXuXuXuXuXuXuXuXuXuXuXuXuXuXuXuXuXuXuXuX",
"uXuXuXuXuXuXuXuXuXi.,.h = 5 7 z / l.n._.1XeXeXeXtXtXtXtXrX5XY.B.E H # > M 2.uXuXuXuXuXuXuXuXuXuXuXuXuXuXuXuXuXuXuXuXuXuXuXuXuXuX",
"uXuXuXuXuXuXuXuXuXu.=.d < < y c { z.^.oX3XeXqXqXqXeXtXyXrX6XOXN. .L # > n >.uXuXuXuXuXuXuXuXuXuXuXuXuXuXuXuXuXuXuXuXuXuXuXuXuXuX",
"uXuXuXuXuXuXuXuXuXt.( 3 < 1 k Z { n._.;XqXqXeXeXqX3XqXtXwX6X+XU.X.U % . g -.uXuXuXuXuXuXuXuXuXuXuXuXuXuXuXuXuXuXuXuXuXuXuXuXuXuX",
"uXuXuXuXuXuXuXuXq.y.B < = , p c { z.).;X1X3XeXtXtXqX3X0X8X9X&XT.$.Q i , e -.<.uXuXuXuXuXuXuXuXuXuXuXuXuXuXuXuXuXuXuXuXuXuXuXuXuX",
"uXuXuXuXuXuXuXuXq.6.M ;   # $ a [ z.).-X>X>XqXtXyXtX3X1XeXrX6X~.#._ i 2 e =.<.uXuXuXuXuXuXuXuXuXuXuXuXuXuXuXuXuXuXuXuXuXuXuXuXuX",
"uXuXuXuXuXuXuXuXq.4.N =   o # s ' z.]..X>X>X1XtXyXyXeXqXtXyX9X}.v._ i < w ( <.uXuXuXuXuXuXuXuXuXuXuXuXuXuXuXuXuXuXuXuXuXuXuXuXuX",
"uXuXuXuXuXuXuXuXq.4.N = o o # H ' b.|.-X>X;X>XeXyXyXyXtXyXyX7X[.A.` i , 3 ( <.uXuXuXuXuXuXuXuXuXuXuXuXuXuXuXuXuXuXuXuXuXuXuXuXuX",
"uXuXuXuXuXuXuXuXq.4.M > o . $ a } K.|.XX-X;X;X3XtXyXtXeXeXrX*XR.x.T t > 3 *.5.uXuXuXuXuXuXuXuXuXuXuXuXuXuXuXuXuXuXuXuXuXuXuXuXuX",
"uXuXuXuXuXuXuXuX5.4.M >   . t c { b.(.'.=X;X>X3XqXtXtXeXeX7X@XP.@.P $ > q *.5.uXuXuXuXuXuXuXuXuXuXuXuXuXuXuXuXuXuXuXuXuXuXuXuXuX",
"uXuXuXuXuXuXuXuX<.3.B <   > t z / v.H.E.#X1X1XqX1XqXtXtXtX7X}.J.o.K $   d ;.uXuXuXuXuXuXuXuXuXuXuXuXuXuXuXuXuXuXuXuXuXuXuXuXuXuX",
"uXuXuXuXuXuXuXuXuX6.( 1 = > 7 p R @.Z.E.$X2XeXqX1X3XtXyXtX2X{.A.] a $   g ;.uXuXuXuXuXuXuXuXuXuXuXuXuXuXuXuXuXuXuXuXuXuXuXuXuXuX",
"uXuXuXuXuXuXuXuXuX6.=.d = > > 7 s ] V.L.%X7XqXqX3X0XtXtX0X.X(.c.W a > = C 1.uXuXuXuXuXuXuXuXuXuXuXuXuXuXuXuXuXuXuXuXuXuXuXuXuXuX",
"uXuXuXuXuXuXuXuXuXt.,.n =   . . u Q x.P.Q.,XeXqX3X2XeXqX:X].H.O.I t o 6 B 5.uXuXuXuXuXuXuXuXuXuXuXuXuXuXuXuXuXuXuXuXuXuXuXuXuXuX",
"uXuXuXuXuXuXuXuXuX5.3.M >   . > $ K @.Z.E.$X0XqX2X2X0X4X XI.v.] a # o 8 *.q.uXuXuXuXuXuXuXuXuXuXuXuXuXuXuXuXuXuXuXuXuXuXuXuXuXuX",
"uXuXuXuXuXuXuXuXuXuX6.) 8   > > $ a ] c.L.{.$X<X<X$X=XXX'.Z.+.T u o o j 1.uXuXuXuXuXuXuXuXuXuXuXuXuXuXuXuXuXuXuXuXuXuXuXuXuXuXuX",
"uXuXuXuXuXuXuXuXuXuX6.,.h = = > , t R +.Z.L.E.[.W.W.'.I.H.x.W K % @ 6 B 5.uXuXuXuXuXuXuXuXuXuXuXuXuXuXuXuXuXuXuXuXuXuXuXuXuXuXuX",
"uXuXuXuXuXuXuXuXuXuX5.6.A 1 = ; > , a ` x.V.G.F.D.F.Z.V.c.` K u % o d ;.q.uXuXuXuXuXuXuXuXuXuXuXuXuXuXuXuXuXuXuXuXuXuXuXuXuXuXuX",
"uXuXuXuXuXuXuXuXuXuXuX6.:.h = * > > t I ] O.#.M.N.M.$.X.} T J 0 5 > N 3.uXuXuXuXuXuXuXuXuXuXuXuXuXuXuXuXuXuXuXuXuXuXuXuXuXuXuXuX",
"uXuXuXuXuXuXuXuXuXuXuX5.4.A 3 * ; > , t P W  .X..... .! _ I 9 o = g ;.u.uXuXuXuXuXuXuXuXuXuXuXuXuXuXuXuXuXuXuXuXuXuXuXuXuXuXuXuX",
"uXuXuXuXuXuXuXuXuXuXuXuXt.2.m : - ; > , y s L E U U L L K j 6 = 3 S t.uXuXuXuXuXuXuXuXuXuXuXuXuXuXuXuXuXuXuXuXuXuXuXuXuXuXuXuXuX",
"uXuXuXuXuXuXuXuXuXuXuXuX5.y.-.n : * ; 2 , 7 & u D & % 0 6 6 = 3 B 6.a.uXuXuXuXuXuXuXuXuXuXuXuXuXuXuXuXuXuXuXuXuXuXuXuXuXuXuXuXuX",
"uXuXuXuXuXuXuXuXuXuXuXuXuXq.y.=.e : ; : ; > 6 # O O + 5 5 = 1 M 3.g.uXuXuXuXuXuXuXuXuXuXuXuXuXuXuXuXuXuXuXuXuXuXuXuXuXuXuXuXuXuX",
"uXuXuXuXuXuXuXuXuXuXuXuXuXuXt.y.=.b 4 : * = = > o X X 5 < 8 M 3.g.uXuXuXuXuXuXuXuXuXuXuXuXuXuXuXuXuXuXuXuXuXuXuXuXuXuXuXuXuXuXuX",
"uXuXuXuXuXuXuXuXuXuXuXuXuXuXuXt.y.>.S e : * * = = = = 1 n ( 6.h.uXuXuXuXuXuXuXuXuXuXuXuXuXuXuXuXuXuXuXuXuXuXuXuXuXuXuXuXuXuXuXuX",
"uXuXuXuXuXuXuXuXuXuXuXuXuXuXuXuXq.u.0.&.V v r w w g n A 2.u.g.uXuXuXuXuXuXuXuXuXuXuXuXuXuXuXuXuXuXuXuXuXuXuXuXuXuXuXuXuXuXuXuXuX",
"uXuXuXuXuXuXuXuXuXuXuXuXuXuXuXuXuX8.u.i.0.2.-.=.=.-.3.u.g.s.uXuXuXuXuXuXuXuXuXuXuXuXuXuXuXuXuXuXuXuXuXuXuXuXuXuXuXuXuXuXuXuXuXuX",
"uXuXuXuXuXuXuXuXuXuXuXuXuXuXuXuXuXuXuX8.u.f.f.k.f.f.f.d.uXuXuXuXuXuXuXuXuXuXuXuXuXuXuXuXuXuXuXuXuXuXuXuXuXuXuXuXuXuXuXuXuXuXuXuX",
"uXuXuXuXuXuXuXuXuXuXuXuXuXuXuXuXuXuXuXuXuXuXr.r.r.uXuXuXuXuXuXuXuXuXuXuXuXuXuXuXuXuXuXuXuXuXuXuXuXuXuXuXuXuXuXuXuXuXuXuXuXuXuXuX",
"uXuXuXuXuXuXuXuXuXuXuXuXuXuXuXuXuXuXuXuXuXuXuXuXuXuXuXuXuXuXuXuXuXuXuXuXuXuXuXuXuXuXuXuXuXuXuXuXuXuXuXuXuXuXuXuXuXuXuXuXuXuXuXuX",
"uXuXuXuXuXuXuXuXuXuXuXuXuXuXuXuXuXuXuXuXuXuXuXuXuXuXuXuXuXuXuXuXuXuXuXuXuXuXuXuXuXuXuXuXuXuXuXuXuXuXuXuXuXuXuXuXuXuXuXuXuXuXuXuX",
"uXuXuXuXuXuXuXuXuXuXuXuXuXuXuXuXuXuXuXuXuXuXuXuXuXuXuXuXuXuXuXuXuXuXuXuXuXuXuXuXuXuXuXuXuXuXuXuXuXuXuXuXuXuXuXuXuXuXuXuXuXuXuXuX",
"uXuXuXuXuXuXuXuXuXuXuXuXuXuXuXuXuXuXuXuXuXuXuXuXuXuXuXuXuXuXuXuXuXuXuXuXuXuXuXuXuXuXuXuXuXuXuXuXuXuXuXuXuXuXuXuXuXuXuXuXuXuXuXuX",
"uXuXuXuXuXuXuXuXuXuXuXuXuXuXuXuXuXuXuXuXuXuXuXuXuXuXuXuXuXuXuXuXuXuXuXuXuXuXuXuXuXuXuXuXuXuXuXuXuXuXuXuXuXuXuXuXuXuXuXuXuXuXuXuX",
"uXuXuXuXuXuXuXuXuXuXuXuXuXuXuXuXuXuXuXuXuXuXuXuXuXuXuXuXuXuXuXuXuXuXuXuXuXuXuXuXuXuXuXuXuXuXuXuXuXuXuXuXuXuXuXuXuXuXuXuXuXuXuXuX",
"uXuXuXuXuXuXuXuXuXuXuXuXuXuXuXuXuXuXuXuXuXuXuXuXuXuXuXuXuXuXuXuXuXuXuXuXuXuXuXuXuXuXuXuXuXuXuXuXuXuXuXuXuXuXuXuXuXuXuXuXuXuXuXuX",
"uXuXuXuXuXuXuXuXuXuXuXuXuXuXuXuXuXuXuXuXuXuXuXuXuXuXuXuXuXuXuXuXuXuXuXuXuXuXuXuXuXuXuXuXuXuXuXuXuXuXuXuXuXuXuXuXuXuXuXuXuXuXuXuX",
"uXuXuXuXuXuXuXuXuXuXuXuXuXuXuXuXuXuXuXuXuXuXuXuXuXuXuXuXuXuXuXuXuXuXuXuXuXuXuXuXuXuXuXuXuXuXuXuXuXuXuXuXuXuXuXuXuXuXuXuXuXuXuXuX",
"uXuXuXuXuXuXuXuXuXuXuXuXuXuXuXuXuXuXuXuXuXuXuXuXuXuXuXuXuXuXuXuXuXuXuXuXuXuXuXuXuXuXuXuXuXuXuXuXuXuXuXuXuXuXuXuXuXuXuXuXuXuXuXuX"
};
