/* XPM */
static const char *exit_22[] = {
/* columns rows colors chars-per-pixel */
"64 64 223 2 ",
"   c #A73B2D",
".  c #AB3E2D",
"X  c #B23E2E",
"o  c #B83F2E",
"O  c #AD3C32",
"+  c #A93736",
"@  c #B23D34",
"#  c #B93D33",
"$  c #B43A3A",
"%  c #BD3E3C",
"&  c #B03739",
"*  c #C03F33",
"=  c #AC4626",
"-  c #AF4826",
";  c #AD422C",
":  c #B04627",
">  c #B54C27",
",  c #B2442C",
"<  c #BA452D",
"1  c #B5492C",
"2  c #BB4C2C",
"3  c #B94F27",
"4  c #BE512D",
"5  c #AD4131",
"6  c #B44331",
"7  c #BB4333",
"8  c #BA4834",
"9  c #BD5231",
"0  c #C3542D",
"q  c #C95A2D",
"w  c #C24634",
"e  c #C34B32",
"r  c #CA4C35",
"t  c #C3433B",
"y  c #CB453B",
"u  c #CA4938",
"i  c #D34B3B",
"p  c #D1473F",
"a  c #C25632",
"s  c #CA5C33",
"d  c #C55831",
"f  c #D15D34",
"g  c #D6533B",
"h  c #DA553A",
"j  c #DB5B3A",
"k  c #C1452F",
"l  c #E25F39",
"z  c #D2622F",
"x  c #CE6134",
"c  c #D56335",
"v  c #D96636",
"b  c #DA6B36",
"n  c #DC6D3B",
"m  c #D46A39",
"M  c #DC723C",
"N  c #DF7236",
"B  c #E2683A",
"V  c #E5753C",
"C  c #E37A3E",
"Z  c #E9793E",
"A  c #B33440",
"S  c #D33E4F",
"D  c #C03948",
"F  c #CD4544",
"G  c #C94447",
"H  c #D44B43",
"J  c #DC4C42",
"K  c #D3444B",
"L  c #DA494B",
"P  c #D44648",
"I  c #D74755",
"U  c #E24C48",
"Y  c #E5524C",
"T  c #EB534A",
"R  c #EB5B4E",
"E  c #E35444",
"W  c #F05A4F",
"Q  c #E14B5F",
"!  c #EC5955",
"~  c #E55A52",
"^  c #F35E55",
"/  c #F55A5C",
"(  c #F55552",
")  c #E96441",
"_  c #F5684A",
"`  c #EA7D42",
"'  c #E57F41",
"]  c #F67547",
"[  c #F36354",
"{  c #F66958",
"}  c #FA775A",
"|  c #EE645C",
" . c #EB546D",
".. c #F55962",
"X. c #F35F7E",
"o. c #EF6067",
"O. c #F96663",
"+. c #FB6C62",
"@. c #F86A6C",
"#. c #FA7365",
"$. c #FD796B",
"%. c #F46679",
"&. c #FD7475",
"*. c #FC747E",
"=. c #FD7B7A",
"-. c #FC7C73",
";. c #EB833F",
":. c #E68243",
">. c #EC8543",
",. c #ED8A44",
"<. c #EE8D49",
"1. c #F18B45",
"2. c #F18C48",
"3. c #FD8A4E",
"4. c #EE924A",
"5. c #EC9B4E",
"6. c #E79E4E",
"7. c #F3944B",
"8. c #F59B4D",
"9. c #FA8557",
"0. c #ED9E51",
"q. c #F39E51",
"w. c #FB9258",
"e. c #EBA34E",
"r. c #E6A74F",
"t. c #F3A24E",
"y. c #F8A34E",
"u. c #EBA252",
"i. c #E6A955",
"p. c #ECAC57",
"a. c #E7A756",
"s. c #F4A252",
"d. c #F8A553",
"f. c #F4AB54",
"g. c #F2AB58",
"h. c #F8AE58",
"j. c #F9AD53",
"k. c #EEB35A",
"l. c #EDB257",
"z. c #F5B156",
"x. c #F5B35A",
"c. c #F8B35A",
"v. c #F2B95B",
"b. c #F8B459",
"n. c #FB8765",
"m. c #FE8C75",
"M. c #FE8677",
"N. c #FE977B",
"B. c #FE9667",
"V. c #FDA467",
"C. c #FFA67C",
"Z. c #FEB778",
"A. c #FEC27B",
"S. c #FD7D88",
"D. c #FC7090",
"F. c #FD8482",
"G. c #FE8A86",
"H. c #FE9484",
"J. c #FF9C8D",
"K. c #FE9A87",
"L. c #FE9598",
"P. c #FE899E",
"I. c #FFAC85",
"U. c #FFA48B",
"Y. c #FEA99B",
"T. c #FFBD98",
"R. c #FF97A4",
"E. c #FF99B7",
"W. c #FEA6A1",
"Q. c #FEA9A9",
"!. c #FFB5AC",
"~. c #FFB6A7",
"^. c #FFBBB5",
"/. c #FFC19C",
"(. c #FFCA91",
"). c #FFD29C",
"_. c #FEC98D",
"`. c #FFC7A7",
"'. c #FFD9A1",
"]. c #FFC0B6",
"[. c #FFCAB4",
"{. c #FFCABB",
"}. c #FFC1B9",
"|. c #FFD3B6",
" X c #FFD4B9",
".X c #FFDFBF",
"XX c #FFEDAD",
"oX c #FFF1AF",
"OX c #FFE8B7",
"+X c #FFF3B3",
"@X c #FFF6BE",
"#X c #FFB3C9",
"$X c #FFC8C6",
"%X c #FFD5C3",
"&X c #FFDACB",
"*X c #FFD5DA",
"=X c #FFDAD8",
"-X c #FFCAD6",
";X c #FFEDC6",
":X c #FFE3CC",
">X c #FFE6C8",
",X c #FFF6C4",
"<X c #FFFCC3",
"1X c #FFFCCC",
"2X c #FFF2CE",
"3X c #FFE5D1",
"4X c #FFEAD7",
"5X c #FFF4D6",
"6X c #FFFCD3",
"7X c #FFF3DB",
"8X c #FFFCDD",
"9X c #FFC9E7",
"0X c #FFE9E8",
"qX c #FFFDE3",
"wX c #FFF3EB",
"eX c #FFFDEB",
"rX c #FFF7E1",
"tX c #FFEBF4",
"yX c #FFFDF4",
"uX c #FFFEFB",
"iX c #FFF5F5",
"pX c #FF00FF",
"aX c black",
/* pixels */
"pXpXpXpXpXpXpXpXpXpXpXpXpXpXpXpXpXpXpXpXpXpXpXpXpXpXpXpXpXpXpXpXpXpXpXpXpXpXpXpXpXpXpXpXpXpXpXpXpXpXpXpXpXpXpXpXpXpXpXpXpXpXpXpX",
"pXpXpXpXpXpXpXpXpXpXpXpXpXpXpXpXpXpXpXpXpXpXpXpXpXpXpXpXpXpXpXpXpXpXpXpXpXpXpXpXpXpXpXpXpXpXpXpXpXpXpXpXpXpXpXpXpXpXpXpXpXpXpXpX",
"pXpXpXpXpXpXpXpXpXpXpXpXpXpXpXpXpXpXpXpXpXpXpXpXpXpXpXpXpXpXpXpXpXpXpXpXpXpXpXpXpXpXpXpXpXpXpXpXpXpXpXpXpXpXpXpXpXpXpXpXpXpXpXpX",
"pXpXpXpXpXpXpXpXpXpXpXpXpXpXpXpXpXpXpXpXpXpXpXpXpXpXpXpXpXpXpXpXpXpXpXpXpXpXpXpXpXpXpXpXpXpXpXpXpXpXpXpXpXpXpXpXpXpXpXpXpXpXpXpX",
"pXpXpXpXpXpXpXpXpXpXpXpXpXpXpXpXpXpXpXpXpXpXpXpXpXpXpXpXpXpXpXpXpXpXpXpXpXpXpXpXpXpXpXpXpXpXpXpXpXpXpXpXpXpXpXpXpXpXpXpXpXpXpXpX",
"pXpXpXpXpXpXpXpXpXpXpXpXpXpXpXpXpXpXpXpXpXpXpXpXpXpXpXpXpXpXpXpXpXpXpXpXpXpXpXpXpXpXpXpXpXpXpXpXpXpXpXpXpXpXpXpXpXpXpXpXpXpXpXpX",
"pXpXpXpXpXpXpXpXpXpXpXpXpXpXpXpXpXpXpXpXpXpXpXpXpXpXpXpXpXpXpXpXpXpXpXpXpXpXpXpXpXpXpXpXpXpXpXpXpXpXpXpXpXpXpXpXpXpXpXpXpXpXpXpX",
"pXpXpXpXpXpXpXpXpXpXpXpXpXpXpXpXpXpXpXpXpXpXpXpXpXpXpXpXpXpXpXpXpXpXpXpXpXpXpXpXpXpXpXpXpXpXpXpXpXpXpXpXpXpXpXpXpXpXpXpXpXpXpXpX",
"pXpXpXpXpXpXpXpXpXpXpXpXpXpXpXpXpXpXpXpXpXpXpXpXpXpXpXpXpXpXpXpXpXpXpXpXpXpXpXpXpXpXpXpXpXpXpXpXpXpXpXpXpXpXpXpXpXpXpXpXpXpXpXpX",
"pXpXpXpXpXpXpXpXpXpXpXpXpXpXpXpXpXpXpXpXpXpXpXpXpXpXpXpXpXpXpXpXpXpXpXpXpXpXpXpXpXpXpXpXpXpXpXpXpXpXpXpXpXpXpXpXpXpXpXpXpXpXpXpX",
"pXpXpXpXpXpXpXpXpXpXpXpXpXpXpXpXpXpXpXpXpXpXa.i.i.pXpXpXpXpXpXpXpXpXpXpXpXpXpXpXpXpXpXpXpXpXpXpXpXpXpXpXpXpXpXpXpXpXpXpXpXpXpXpX",
"pXpXpXpXpXpXpXpXpXpXpXpXpXpXpXpXpXpXpXl.v.b.x.c.c.x.g.p.pXpXpXpXpXpXpXpXpXpXpXpXpXpXpXpXpXpXpXpXpXpXpXpXpXpXpXpXpXpXpXpXpXpXpXpX",
"pXpXpXpXpXpXpXpXpXpXpXpXpXpXpXpXpXl.v.b.j.8.1.>.,.2.8.d.f.p.pXpXpXpXpXpXpXpXpXpXpXpXpXpXpXpXpXpXpXpXpXpXpXpXpXpXpXpXpXpXpXpXpXpX",
"pXpXpXpXpXpXpXpXpXpXpXpXpXpXpXpXv.b.d.1.V c 0 0 0 s v Z 2.q.s.pXpXpXpXpXpXpXpXpXpXpXpXpXpXpXpXpXpXpXpXpXpXpXpXpXpXpXpXpXpXpXpXpX",
"pXpXpXpXpXpXpXpXpXpXpXpXpXpXpXv.b.7.B s 2 , ; ; ; ; 1 2 f Z 7.s.pXpXpXpXpXpXpXpXpXpXpXpXpXpXpXpXpXpXpXpXpXpXpXpXpXpXpXpXpXpXpXpX",
"pXpXpXpXpXpXpXpXpXpXpXpXpXpXv.h.1.c 2 ; ; ; O 6 O . ; ; , 0 n 2.s.pXpXpXpXpXpXpXpXpXpXpXpXpXpXpXpXpXpXpXpXpXpXpXpXpXpXpXpXpXpXpX",
"pXpXpXpXpXpXpXpXpXpXpXpXpXk.c.1.f 1 ; ; , 6 7 8 @ @ @ @ ; ; 2 v 2.q.pXpXpXpXpXpXpXpXpXpXpXpXpXpXpXpXpXpXpXpXpXpXpXpXpXpXpXpXpXpX",
"pXpXpXpXpXpXpXpXpXpXpXpXp.c.7.c 1 ; ; , 7 w u i t % % # 6 1 , 2 n 7.0.pXpXpXpXpXpXpXpXpXpXpXpXpXpXpXpXpXpXpXpXpXpXpXpXpXpXpXpXpX",
"pXpXpXpXpXpXpXpXpXpXpXpXx.q.n 2 . . X 7 y J T R U U L F y w 1 ; 4 V 7.pXpXpXpXpXpXpXpXpXpXpXpXpXpXpXpXpXpXpXpXpXpXpXpXpXpXpXpXpX",
"pXpXpXpXpXpXpXpXpXpXpXl.h.` 0 : ; @ t H Y ^ +.#.../ / ! Y H w O ; s >.5.pXpXpXpXpXpXpXpXpXpXpXpXpXpXpXpXpXpXpXpXpXpXpXpXpXpXpXpX",
"pXpXpXpXpXpXpXpXpXpXpXb.8.c 1 , 8 t J ^ +.$.N.K.G.S.=.$.O.! F @ . 1 b 7.pXpXpXpXpXpXpXpXpXpXpXpXpXpXpXpXpXpXpXpXpXpXpXpXpXpXpXpX",
"pXpXpXpXpXpXpXpXpXpXp.h.` 0 2 e g E W } $.m.I./.~.Q.Y.J.M.@.I t O . a :.5.pXpXpXpXpXpXpXpXpXpXpXpXpXpXpXpXpXpXpXpXpXpXpXpXpXpXpX",
"pXpXpXpXpXpXpXpXpXpXx.8.v 3 3 j ) _ { } n.C./.|.%X$X{.[.Y.F.o.K & + 6 n 7.pXpXpXpXpXpXpXpXpXpXpXpXpXpXpXpXpXpXpXpXpXpXpXpXpXpXpX",
"pXpXpXpXpXpXpXpXpXpXh.1.q , 2 j ] ] 9.B.I.`.:X4X0X*X=X3X XY.*.I A + O x <.pXpXpXpXpXpXpXpXpXpXpXpXpXpXpXpXpXpXpXpXpXpXpXpXpXpXpX",
"pXpXpXpXpXpXpXpXpXp.d.Z 0 , 7 g ] 3.V.(.>X4XrXeXiXtXtXwX4X].S. .D & 5 a :.5.pXpXpXpXpXpXpXpXpXpXpXpXpXpXpXpXpXpXpXpXpXpXpXpXpXpX",
"pXpXpXpXpXpXpXpXpXg.8.v 3 , 6 u ) w.A.OX6X1X1X8XyXyXyXuXwX$XP.X.K $ O 1 M 4.pXpXpXpXpXpXpXpXpXpXpXpXpXpXpXpXpXpXpXpXpXpXpXpXpXpX",
"pXpXpXpXpXpXpXpXpXg.<.s , 1 w r ) w._.+X<X1X6X8XeXqXeXuXiX-XR.D.Q A O ; c 7.pXpXpXpXpXpXpXpXpXpXpXpXpXpXpXpXpXpXpXpXpXpXpXpXpXpX",
"pXpXpXpXpXpXpXpXpXf.:.0 ; 6 r l ] V.).+X<X8XeX8XqXqXqXyXtX9XE.D. .F @ , x <.pXpXpXpXpXpXpXpXpXpXpXpXpXpXpXpXpXpXpXpXpXpXpXpXpXpX",
"pXpXpXpXpXpXpXpXu.f.C 4 , , e B 3.Z.'.+X1XeXeXqXeXeXeXeXtX9X#XR.%.P 7 , s ,.6.pXpXpXpXpXpXpXpXpXpXpXpXpXpXpXpXpXpXpXpXpXpXpXpXpX",
"pXpXpXpXpXpXpXpXu.d.V 3 , < k h } C.).oX6XeXeXyXyXyXeXqXwXtX*XQ.%.L 7 , 0 >.5.pXpXpXpXpXpXpXpXpXpXpXpXpXpXpXpXpXpXpXpXpXpXpXpXpX",
"pXpXpXpXpXpXpXpXu.8.b 1 . X # i { N./.XX1X8X8XyXuXyXqX6XqXiX4X^.F.~ u 1 0 :.5.pXpXpXpXpXpXpXpXpXpXpXpXpXpXpXpXpXpXpXpXpXpXpXpXpX",
"pXpXpXpXpXpXpXpXu.8.v ,   . # i { M.T.OX6X1X6XeXuXuXeXqXyXyX7X|.H.{ h 2 0 ;.5.pXpXpXpXpXpXpXpXpXpXpXpXpXpXpXpXpXpXpXpXpXpXpXpXpX",
"pXpXpXpXpXpXpXpXu.8.v ,   O # i } H.`.,X6X<X1XeXuXuXyXyXuXyX7X[.F.[ g < 0 ' 5.pXpXpXpXpXpXpXpXpXpXpXpXpXpXpXpXpXpXpXpXpXpXpXpXpX",
"pXpXpXpXpXpXpXpXu.8.b ,   O # g n.I.'.@X,X@X<XqXyXuXyXeXyXqX3X!.=.R u , 4 ' 5.pXpXpXpXpXpXpXpXpXpXpXpXpXpXpXpXpXpXpXpXpXpXpXpXpX",
"pXpXpXpXpXpXpXpX6.8.n 1   O 7 j } N.T.OX,X,X1X8XqXyXyXeXeX7X%XL.@.Y t X 9 :.0.pXpXpXpXpXpXpXpXpXpXpXpXpXpXpXpXpXpXpXpXpXpXpXpXpX",
"pXpXpXpXpXpXpXpX6.8.Z 2 . O 8 h { $.J.[.,X2X6X8X6XqXyXyXeX5X{.L.O.E 7 . a >.pXpXpXpXpXpXpXpXpXpXpXpXpXpXpXpXpXpXpXpXpXpXpXpXpXpX",
"pXpXpXpXpXpXpXpXpXt.` 4 ; , < i [ +.F.!.;X5XqX8X1X8XyXyXqX5X[.H.{ J # . s <.pXpXpXpXpXpXpXpXpXpXpXpXpXpXpXpXpXpXpXpXpXpXpXpXpXpX",
"pXpXpXpXpXpXpXpXpXt.>.d ; . , u T { =.~.>X7XeXeX8XqXeXeX8X:X~.M.[ p @ ; m 5.pXpXpXpXpXpXpXpXpXpXpXpXpXpXpXpXpXpXpXpXpXpXpXpXpXpX",
"pXpXpXpXpXpXpXpXpXt.7.c ; . X 7 J ( &.Y.%X7XeXeX8XqXeXeX7X XU.#.T t O , M q.pXpXpXpXpXpXpXpXpXpXpXpXpXpXpXpXpXpXpXpXpXpXpXpXpXpX",
"pXpXpXpXpXpXpXpXpXe.8.n 1 . . # y T +.H.{.3X5X8X7X7X7X7X.X/.m.{ P $ O 9 :.s.pXpXpXpXpXpXpXpXpXpXpXpXpXpXpXpXpXpXpXpXpXpXpXpXpXpX",
"pXpXpXpXpXpXpXpXpXpXd.` 2 . . X * J ^ -.W.{.:X>X:X&X%X.X`.K.#.Y y & O s 4.pXpXpXpXpXpXpXpXpXpXpXpXpXpXpXpXpXpXpXpXpXpXpXpXpXpXpX",
"pXpXpXpXpXpXpXpXpXpXs.2.s ; . . o y T O.F.W.].{.}.^.!.`.U.M.| K % O 6 n q.pXpXpXpXpXpXpXpXpXpXpXpXpXpXpXpXpXpXpXpXpXpXpXpXpXpXpX",
"pXpXpXpXpXpXpXpXpXpX0.q.V 2 ; ; , w i T #.F.L.R.R.L.L.U.M.+.~ G @ ; a >.f.pXpXpXpXpXpXpXpXpXpXpXpXpXpXpXpXpXpXpXpXpXpXpXpXpXpXpX",
"pXpXpXpXpXpXpXpXpXpXpXd.1.f : ; 1 < w J [ +.&.*.*.*.&.-.| R H 7 O 2 n q.pXpXpXpXpXpXpXpXpXpXpXpXpXpXpXpXpXpXpXpXpXpXpXpXpXpXpXpX",
"pXpXpXpXpXpXpXpXpXpXpX0.8.Z 0 = , 1 < i E Y / ....../ ! H i e 5 5 s 4.f.pXpXpXpXpXpXpXpXpXpXpXpXpXpXpXpXpXpXpXpXpXpXpXpXpXpXpXpX",
"pXpXpXpXpXpXpXpXpXpXpXpXs.7.b > = : 3 e t y P L K S L F # 7 8 5 8 ' f.pXpXpXpXpXpXpXpXpXpXpXpXpXpXpXpXpXpXpXpXpXpXpXpXpXpXpXpXpX",
"pXpXpXpXpXpXpXpXpXpXpXpX6.d.1.z > = > 3 6 @ % % $ A % $ + @ 2 2 m 8.l.pXpXpXpXpXpXpXpXpXpXpXpXpXpXpXpXpXpXpXpXpXpXpXpXpXpXpXpXpX",
"pXpXpXpXpXpXpXpXpXpXpXpXpX5.y.;.s > - ; , @ @ @ & + & O O ; 0 b 4.f.pXpXpXpXpXpXpXpXpXpXpXpXpXpXpXpXpXpXpXpXpXpXpXpXpXpXpXpXpXpX",
"pXpXpXpXpXpXpXpXpXpXpXpXpXpXt.y.>.c 3 - = ; ; 5 O + + 5 ; 4 M 8.z.pXpXpXpXpXpXpXpXpXpXpXpXpXpXpXpXpXpXpXpXpXpXpXpXpXpXpXpXpXpXpX",
"pXpXpXpXpXpXpXpXpXpXpXpXpXpXpXt.y.1.b q > - = = ; ; ; 2 s C 8.x.pXpXpXpXpXpXpXpXpXpXpXpXpXpXpXpXpXpXpXpXpXpXpXpXpXpXpXpXpXpXpXpX",
"pXpXpXpXpXpXpXpXpXpXpXpXpXpXpXpXe.j.8.,.N x q 0 0 d x M 4.f.x.pXpXpXpXpXpXpXpXpXpXpXpXpXpXpXpXpXpXpXpXpXpXpXpXpXpXpXpXpXpXpXpXpX",
"pXpXpXpXpXpXpXpXpXpXpXpXpXpXpXpXpXe.f.j.t.7.,.>.,.<.8.d.x.k.pXpXpXpXpXpXpXpXpXpXpXpXpXpXpXpXpXpXpXpXpXpXpXpXpXpXpXpXpXpXpXpXpXpX",
"pXpXpXpXpXpXpXpXpXpXpXpXpXpXpXpXpXpXpXe.f.f.z.z.z.z.x.p.pXpXpXpXpXpXpXpXpXpXpXpXpXpXpXpXpXpXpXpXpXpXpXpXpXpXpXpXpXpXpXpXpXpXpXpX",
"pXpXpXpXpXpXpXpXpXpXpXpXpXpXpXpXpXpXpXpXpXpXr.r.i.pXpXpXpXpXpXpXpXpXpXpXpXpXpXpXpXpXpXpXpXpXpXpXpXpXpXpXpXpXpXpXpXpXpXpXpXpXpXpX",
"pXpXpXpXpXpXpXpXpXpXpXpXpXpXpXpXpXpXpXpXpXpXpXpXpXpXpXpXpXpXpXpXpXpXpXpXpXpXpXpXpXpXpXpXpXpXpXpXpXpXpXpXpXpXpXpXpXpXpXpXpXpXpXpX",
"pXpXpXpXpXpXpXpXpXpXpXpXpXpXpXpXpXpXpXpXpXpXpXpXpXpXpXpXpXpXpXpXpXpXpXpXpXpXpXpXpXpXpXpXpXpXpXpXpXpXpXpXpXpXpXpXpXpXpXpXpXpXpXpX",
"pXpXpXpXpXpXpXpXpXpXpXpXpXpXpXpXpXpXpXpXpXpXpXpXpXpXpXpXpXpXpXpXpXpXpXpXpXpXpXpXpXpXpXpXpXpXpXpXpXpXpXpXpXpXpXpXpXpXpXpXpXpXpXpX",
"pXpXpXpXpXpXpXpXpXpXpXpXpXpXpXpXpXpXpXpXpXpXpXpXpXpXpXpXpXpXpXpXpXpXpXpXpXpXpXpXpXpXpXpXpXpXpXpXpXpXpXpXpXpXpXpXpXpXpXpXpXpXpXpX",
"pXpXpXpXpXpXpXpXpXpXpXpXpXpXpXpXpXpXpXpXpXpXpXpXpXpXpXpXpXpXpXpXpXpXpXpXpXpXpXpXpXpXpXpXpXpXpXpXpXpXpXpXpXpXpXpXpXpXpXpXpXpXpXpX",
"pXpXpXpXpXpXpXpXpXpXpXpXpXpXpXpXpXpXpXpXpXpXpXpXpXpXpXpXpXpXpXpXpXpXpXpXpXpXpXpXpXpXpXpXpXpXpXpXpXpXpXpXpXpXpXpXpXpXpXpXpXpXpXpX",
"pXpXpXpXpXpXpXpXpXpXpXpXpXpXpXpXpXpXpXpXpXpXpXpXpXpXpXpXpXpXpXpXpXpXpXpXpXpXpXpXpXpXpXpXpXpXpXpXpXpXpXpXpXpXpXpXpXpXpXpXpXpXpXpX",
"pXpXpXpXpXpXpXpXpXpXpXpXpXpXpXpXpXpXpXpXpXpXpXpXpXpXpXpXpXpXpXpXpXpXpXpXpXpXpXpXpXpXpXpXpXpXpXpXpXpXpXpXpXpXpXpXpXpXpXpXpXpXpXpX",
"pXpXpXpXpXpXpXpXpXpXpXpXpXpXpXpXpXpXpXpXpXpXpXpXpXpXpXpXpXpXpXpXpXpXpXpXpXpXpXpXpXpXpXpXpXpXpXpXpXpXpXpXpXpXpXpXpXpXpXpXpXpXpXpX",
"pXpXpXpXpXpXpXpXpXpXpXpXpXpXpXpXpXpXpXpXpXpXpXpXpXpXpXpXpXpXpXpXpXpXpXpXpXpXpXpXpXpXpXpXpXpXpXpXpXpXpXpXpXpXpXpXpXpXpXpXpXpXpXpX"
};
