/* XPM */
static const char *exit_13[] = {
/* columns rows colors chars-per-pixel */
"64 64 216 2 ",
"   c #AB3D2D",
".  c #B33F2D",
"X  c #AC3C32",
"o  c #A93736",
"O  c #B43D33",
"+  c #B93D34",
"@  c #B33B39",
"#  c #BB3D3C",
"$  c #B1343E",
"%  c #AE4525",
"&  c #AD422C",
"*  c #B24526",
"=  c #B54B25",
"-  c #BB4D26",
";  c #B3442C",
":  c #BA452D",
">  c #B6492C",
",  c #BA4B2B",
"<  c #B84627",
"1  c #BF542C",
"2  c #AF4133",
"3  c #B34131",
"4  c #BC4234",
"5  c #BC4735",
"6  c #C24D2D",
"7  c #C3542D",
"8  c #C95A2D",
"9  c #CB542F",
"0  c #C24333",
"q  c #C54934",
"w  c #C4443B",
"e  c #CA453C",
"r  c #C94B3A",
"t  c #C84A37",
"y  c #D44C3D",
"u  c #D94C3E",
"i  c #D2463E",
"p  c #C25532",
"a  c #CA5532",
"s  c #CB5B33",
"d  c #C75931",
"f  c #D25C34",
"g  c #DB513E",
"h  c #D95437",
"j  c #D15B2F",
"k  c #E4573E",
"l  c #D1612E",
"z  c #D8672F",
"x  c #CE6232",
"c  c #D46134",
"v  c #DA6636",
"b  c #DC6C36",
"n  c #DD6D3A",
"m  c #D76938",
"M  c #DE743B",
"N  c #DB7137",
"B  c #E26D39",
"V  c #E4743C",
"C  c #E57A3E",
"Z  c #E6753B",
"A  c #C23A42",
"S  c #CB4542",
"D  c #D44B43",
"F  c #D94D42",
"G  c #DB4B4B",
"H  c #D34748",
"J  c #DB5343",
"K  c #DF5749",
"L  c #E24F4E",
"P  c #E45C4E",
"I  c #EC5D4A",
"U  c #E45449",
"Y  c #EA5552",
"T  c #EC5A58",
"R  c #F35E52",
"E  c #ED544D",
"W  c #E96B45",
"Q  c #F7644B",
"!  c #EC7E42",
"~  c #EC6454",
"^  c #F56455",
"/  c #F26159",
"(  c #F76A59",
")  c #F87754",
"_  c #F8714F",
"`  c #E34E60",
"'  c #F45D73",
"]  c #FB6564",
"[  c #F66C64",
"{  c #FC6E69",
"}  c #F56267",
"|  c #FA7667",
" . c #F76575",
".. c #FE7D7C",
"X. c #FC7874",
"o. c #E8823F",
"O. c #F0893F",
"+. c #E68142",
"@. c #EC8442",
"#. c #ED8C45",
"$. c #EC8D4A",
"%. c #F18646",
"&. c #F18A45",
"*. c #F58D49",
"=. c #ED9C4D",
"-. c #EB964B",
";. c #F39145",
":. c #F3954A",
">. c #F39C4D",
",. c #F89B4E",
"<. c #FC8B5C",
"1. c #ED9F50",
"2. c #F09D50",
"3. c #EBA34E",
"4. c #E6A64E",
"5. c #F8A24E",
"6. c #EDA451",
"7. c #E6AA54",
"8. c #EDAB55",
"9. c #E9AF58",
"0. c #F4A351",
"q. c #F8A352",
"w. c #F4AB54",
"e. c #F8AD55",
"r. c #ECB157",
"t. c #EDB459",
"y. c #F4B157",
"u. c #F3B55A",
"i. c #F9B359",
"p. c #F5B85B",
"a. c #F8B458",
"s. c #FB826D",
"d. c #FD8D60",
"f. c #FE9A64",
"g. c #FD8475",
"h. c #FD857B",
"j. c #FD8B76",
"k. c #FE937D",
"l. c #FD997D",
"z. c #FC9475",
"x. c #FFA27C",
"c. c #FFBC7A",
"v. c #FFB476",
"b. c #FFA569",
"n. c #FEC376",
"m. c #FD7984",
"M. c #FB7993",
"N. c #FE8581",
"B. c #FE8A80",
"V. c #FE9C86",
"C. c #FE9587",
"Z. c #FF869F",
"A. c #FF9B93",
"S. c #FEA385",
"D. c #FEAC8C",
"F. c #FFAA9F",
"G. c #FFA498",
"H. c #FEB394",
"J. c #FFB39B",
"K. c #FEBA99",
"L. c #FFB68E",
"P. c #FE9BB3",
"I. c #FD88AB",
"U. c #FFAFA1",
"Y. c #FFA5A5",
"T. c #FFBAAC",
"R. c #FFB7AE",
"E. c #FFB5B4",
"W. c #FFBBBC",
"Q. c #FFABBC",
"!. c #FFC887",
"~. c #FFDE8A",
"^. c #FFD693",
"/. c #FFC5A3",
"(. c #FFC5AF",
"). c #FFCCA7",
"_. c #FFD7A8",
"`. c #FFC1B5",
"'. c #FFC1BF",
"]. c #FFD6B8",
"[. c #FFE4A4",
"{. c #FFF0A7",
"}. c #FFE3BB",
"|. c #FFE7B7",
" X c #FFF4BB",
".X c #FFFABA",
"XX c #FF9EC0",
"oX c #FFB1CD",
"OX c #FFCDCD",
"+X c #FFD4CD",
"@X c #FFD8C3",
"#X c #FFCAD6",
"$X c #FFDDDD",
"%X c #FFD6D8",
"&X c #FFE8C9",
"*X c #FFF4C4",
"=X c #FFFDC2",
"-X c #FFF3C8",
";X c #FFFCCB",
":X c #FFE3DB",
">X c #FFE8D3",
",X c #FFF7D5",
"<X c #FFFCD2",
"1X c #FFF4DC",
"2X c #FFFDDB",
"3X c #FFD9E1",
"4X c #FFECE4",
"5X c #FFEAE5",
"6X c #FFF3E4",
"7X c #FFFCE4",
"8X c #FFF5EC",
"9X c #FFFDEC",
"0X c #FFFDF4",
"qX c #FFFEFB",
"wX c #FF00FF",
"eX c black",
/* pixels */
"wXwXwXwXwXwXwXwXwXwXwXwXwXwXwXwXwXwXwXwXwXwXwXwXwXwXwXwXwXwXwXwXwXwXwXwXwXwXwXwXwXwXwXwXwXwXwXwXwXwXwXwXwXwXwXwXwXwXwXwXwXwXwXwX",
"wXwXwXwXwXwXwXwXwXwXwXwXwXwXwXwXwXwXwXwXwXwXwXwXwXwXwXwXwXwXwXwXwXwXwXwXwXwXwXwXwXwXwXwXwXwXwXwXwXwXwXwXwXwXwXwXwXwXwXwXwXwXwXwX",
"wXwXwXwXwXwXwXwXwXwXwXwXwXwXwXwXwXwXwXwXwXwXwXwXwXwXwXwXwXwXwXwXwXwXwXwXwXwXwXwXwXwXwXwXwXwXwXwXwXwXwXwXwXwXwXwXwXwXwXwXwXwXwXwX",
"wXwXwXwXwXwXwXwXwXwXwXwXwXwXwXwXwXwXwXwXwXwXwXwXwXwXwXwXwXwXwXwXwXwXwXwXwXwXwXwXwXwXwXwXwXwXwXwXwXwXwXwXwXwXwXwXwXwXwXwXwXwXwXwX",
"wXwXwXwXwXwXwXwXwXwXwXwXwXwXwXwXwXwXwXwXwXwXwXwXwXwXwXwXwXwXwXwXwXwXwXwXwXwXwXwXwXwXwXwXwXwXwXwXwXwXwXwXwXwXwXwXwXwXwXwXwXwXwXwX",
"wXwXwXwXwXwXwXwXwXwXwXwXwXwXwXwXwXwXwXwXwXwXwXwXwXwXwXwXwXwXwXwXwXwXwXwXwXwXwXwXwXwXwXwXwXwXwXwXwXwXwXwXwXwXwXwXwXwXwXwXwXwXwXwX",
"wXwXwXwXwXwXwXwXwXwXwXwXwXwXwXwXwXwXwXwXwXwXwXwXwXwXwXwXwXwXwXwXwXwXwXwXwXwXwXwXwXwXwXwXwXwXwXwXwXwXwXwXwXwXwXwXwXwXwXwXwXwXwXwX",
"wXwXwXwXwXwXwXwXwXwXwXwXwXwXwXwXwXwXwXwXwXwXwXwXwXwXwXwXwXwXwXwXwXwXwXwXwXwXwXwXwXwXwXwXwXwXwXwXwXwXwXwXwXwXwXwXwXwXwXwXwXwXwXwX",
"wXwXwXwXwXwXwXwXwXwXwXwXwXwXwXwXwXwXwXwXwXwXwXwXwXwXwXwXwXwXwXwXwXwXwXwXwXwXwXwXwXwXwXwXwXwXwXwXwXwXwXwXwXwXwXwXwXwXwXwXwXwXwXwX",
"wXwXwXwXwXwXwXwXwXwXwXwXwXwXwXwXwXwXwXwXwXwXwXwXwXwXwXwXwXwXwXwXwXwXwXwXwXwXwXwXwXwXwXwXwXwXwXwXwXwXwXwXwXwXwXwXwXwXwXwXwXwXwXwX",
"wXwXwXwXwXwXwXwXwXwXwXwXwXwXwXwXwXwXwXwXwXwX7.7.7.wXwXwXwXwXwXwXwXwXwXwXwXwXwXwXwXwXwXwXwXwXwXwXwXwXwXwXwXwXwXwXwXwXwXwXwXwXwXwX",
"wXwXwXwXwXwXwXwXwXwXwXwXwXwXwXwXwXwXwX9.u.p.a.i.a.y.w.8.wXwXwXwXwXwXwXwXwXwXwXwXwXwXwXwXwXwXwXwXwXwXwXwXwXwXwXwXwXwXwXwXwXwXwXwX",
"wXwXwXwXwXwXwXwXwXwXwXwXwXwXwXwXwXt.p.a.e.,.*.%.%.*.,.q.w.8.wXwXwXwXwXwXwXwXwXwXwXwXwXwXwXwXwXwXwXwXwXwXwXwXwXwXwXwXwXwXwXwXwXwX",
"wXwXwXwXwXwXwXwXwXwXwXwXwXwXwXwXt.p.q.&.Z v f a a f v Z *.q.w.wXwXwXwXwXwXwXwXwXwXwXwXwXwXwXwXwXwXwXwXwXwXwXwXwXwXwXwXwXwXwXwXwX",
"wXwXwXwXwXwXwXwXwXwXwXwXwXwXwXu.e.:.n 9 , , *   & ; ; , s Z :.0.wXwXwXwXwXwXwXwXwXwXwXwXwXwXwXwXwXwXwXwXwXwXwXwXwXwXwXwXwXwXwXwX",
"wXwXwXwXwXwXwXwXwXwXwXwXwXwXu.e.%.c ,     ; ;     &     ; 7 b &.>.wXwXwXwXwXwXwXwXwXwXwXwXwXwXwXwXwXwXwXwXwXwXwXwXwXwXwXwXwXwXwX",
"wXwXwXwXwXwXwXwXwXwXwXwXwXt.e.@.f ; & X X 4 4 + 4 4 3 X X & , c #.>.wXwXwXwXwXwXwXwXwXwXwXwXwXwXwXwXwXwXwXwXwXwXwXwXwXwXwXwXwXwX",
"wXwXwXwXwXwXwXwXwXwXwXwXr.a.:.f ;   X O 4 y g F F y e 4 3 X   > m ;.=.wXwXwXwXwXwXwXwXwXwXwXwXwXwXwXwXwXwXwXwXwXwXwXwXwXwXwXwXwX",
"wXwXwXwXwXwXwXwXwXwXwXwXa.q.B , X X O 4 t k Q ^ ^ R E F r 4 X & , V :.wXwXwXwXwXwXwXwXwXwXwXwXwXwXwXwXwXwXwXwXwXwXwXwXwXwXwXwXwX",
"wXwXwXwXwXwXwXwXwXwXwXt.i.@.a ; X X O 0 u I ( | s.{ ] / P r 4 2 & d @.=.wXwXwXwXwXwXwXwXwXwXwXwXwXwXwXwXwXwXwXwXwXwXwXwXwXwXwXwX",
"wXwXwXwXwXwXwXwXwXwXwXp.,.v , ; ; O 0 u R | g.C.V.N.N...[ P r @ X ; m :.wXwXwXwXwXwXwXwXwXwXwXwXwXwXwXwXwXwXwXwXwXwXwXwXwXwXwXwX",
"wXwXwXwXwXwXwXwXwXwXr.a.@.9 > : 6 t U / X.C.J././.U.F.A.N.[ G # o o p @.=.wXwXwXwXwXwXwXwXwXwXwXwXwXwXwXwXwXwXwXwXwXwXwXwXwXwXwX",
"wXwXwXwXwXwXwXwXwXwXu.5.B 6 , 6 f W ( g.C.J._.}.-X&X@X`.Y.m.T S o o > M >.wXwXwXwXwXwXwXwXwXwXwXwXwXwXwXwXwXwXwXwXwXwXwXwXwXwXwX",
"wXwXwXwXwXwXwXwXwXwXw.%.j - , 6 W <.z.x.S.L._.-X2X7X6X>XW.Z. .H $ o & x #.wXwXwXwXwXwXwXwXwXwXwXwXwXwXwXwXwXwXwXwXwXwXwXwXwXwXwX",
"wXwXwXwXwXwXwXwXwX8.q.n , > , 9 W f.c.c.!./.&X2X9X0X0X8X%XQ.M.` A @ & 1 +.=.wXwXwXwXwXwXwXwXwXwXwXwXwXwXwXwXwXwXwXwXwXwXwXwXwXwX",
"wXwXwXwXwXwXwXwXwXw.:.f & ; 6 h Q d.n.~.|.>X6X9X0XqXqX0X4X#XI.' G w 2 > M >.wXwXwXwXwXwXwXwXwXwXwXwXwXwXwXwXwXwXwXwXwXwXwXwXwXwX",
"wXwXwXwXwXwXwXwXwXw.&.a & ; 6 k Q <.n.{.2X9X2X2X9XqXqXqX8X%XXXm.T S @ & m :.wXwXwXwXwXwXwXwXwXwXwXwXwXwXwXwXwXwXwXwXwXwXwXwXwXwX",
"wXwXwXwXwXwXwXwXwXw.! 7 ; ; t k _ f.!. X2X7X2X<X7X0XqXqX8X$XoXZ.} H @   x #.wXwXwXwXwXwXwXwXwXwXwXwXwXwXwXwXwXwXwXwXwXwXwXwXwXwX",
"wXwXwXwXwXwXwXwXwXq.C 6 * ; q g ) b.^.*X2X2X9X2X2X0X0X0X0X4X#XP. .G @   8 #.wXwXwXwXwXwXwXwXwXwXwXwXwXwXwXwXwXwXwXwXwXwXwXwXwXwX",
"wXwXwXwXwXwXwXwX6.q.V , * : 5 g ) v.[.;X2X7X0X9X9X0X9X7X0X0X3XP. .G 4 ; 8 @.=.wXwXwXwXwXwXwXwXwXwXwXwXwXwXwXwXwXwXwXwXwXwXwXwXwX",
"wXwXwXwXwXwXwXwX6.,.b *   ; 0 g ) v.[.*X;X2X9X0XqXqX9X7X0X0X3XP.X.Y t > 9 o.=.wXwXwXwXwXwXwXwXwXwXwXwXwXwXwXwXwXwXwXwXwXwXwXwXwX",
"wXwXwXwXwXwXwXwX6.,.v *   . 4 u _ x./.]. X=X;X9XqXqX0X9X0X0X5XE.h.~ r , 7 o.=.wXwXwXwXwXwXwXwXwXwXwXwXwXwXwXwXwXwXwXwXwXwXwXwXwX",
"wXwXwXwXwXwXwXwX6.:.v ;   . + i ^ l.J.). X=X.X2XqXqX0X0X0X0X5X`.k.~ r : 7 +.=.wXwXwXwXwXwXwXwXwXwXwXwXwXwXwXwXwXwXwXwXwXwXwXwXwX",
"wXwXwXwXwXwXwXwX3.:.v &   O O e ~ l.K.].*X=X.X<X0XqX9X7X9X9X$XR.j.~ r > 7 +.=.wXwXwXwXwXwXwXwXwXwXwXwXwXwXwXwXwXwXwXwXwXwXwXwXwX",
"wXwXwXwXwXwXwXwX=.,.b *   X O e ~ l.K.].-X;X.X<X0XqX7X2X7X6XOXF.s.P q ; 7 +.=.wXwXwXwXwXwXwXwXwXwXwXwXwXwXwXwXwXwXwXwXwXwXwXwXwX",
"wXwXwXwXwXwXwXwX=.,.n >   3 O e P z.H.(.&X<X<X7X0X0X9X7X7X5X'.C.[ D 4   p @.wXwXwXwXwXwXwXwXwXwXwXwXwXwXwXwXwXwXwXwXwXwXwXwXwXwX",
"wXwXwXwXwXwXwXwXwX,.C ,   O O 0 K s.S.T.+X1X7X9X0X0X0X9X9X:X(.k./ i 4 ; s $.wXwXwXwXwXwXwXwXwXwXwXwXwXwXwXwXwXwXwXwXwXwXwXwXwXwX",
"wXwXwXwXwXwXwXwXwX>.@.9 &   3 0 J | k.U.+X1X7X9X0X0X0X0X6X@XK.j.P e ; ; m -.wXwXwXwXwXwXwXwXwXwXwXwXwXwXwXwXwXwXwXwXwXwXwXwXwXwX",
"wXwXwXwXwXwXwXwXwX>.*.f *   ; : r ~ g.G.'.:X7X7X0X0X0X7X-X/.V.| U 0 . > M 2.wXwXwXwXwXwXwXwXwXwXwXwXwXwXwXwXwXwXwXwXwXwXwXwXwXwX",
"wXwXwXwXwXwXwXwXwX=.:.B ;   . ; 0 K | C.Y.OX4X7X9X9X9X,X|.H.h./ D +   , +.6.wXwXwXwXwXwXwXwXwXwXwXwXwXwXwXwXwXwXwXwXwXwXwXwXwXwX",
"wXwXwXwXwXwXwXwXwXwX,.! 6   . ; : y ( g.A.E.+X1X1X1X,X}./.V.{ E w X   s $.wXwXwXwXwXwXwXwXwXwXwXwXwXwXwXwXwXwXwXwXwXwXwXwXwXwXwX",
"wXwXwXwXwXwXwXwXwXwX>.*.f & & ; ; q P | h.A.T.@X].].}.).D.g./ D + X 3 n >.wXwXwXwXwXwXwXwXwXwXwXwXwXwXwXwXwXwXwXwXwXwXwXwXwXwXwX",
"wXwXwXwXwXwXwXwXwXwX=.,.V , % * . : g / { ..A.G.G.J.H.S.j.( J 4 X X p @.6.wXwXwXwXwXwXwXwXwXwXwXwXwXwXwXwXwXwXwXwXwXwXwXwXwXwXwX",
"wXwXwXwXwXwXwXwXwXwXwX,.&.c * % ; : q J T { ....m.B.j.| ( I r 4 X ; m >.wXwXwXwXwXwXwXwXwXwXwXwXwXwXwXwXwXwXwXwXwXwXwXwXwXwXwXwX",
"wXwXwXwXwXwXwXwXwXwXwX=.,.C 7 % * > , q D Y } ] ] ] ] ^ I U w 2 & d #.w.wXwXwXwXwXwXwXwXwXwXwXwXwXwXwXwXwXwXwXwXwXwXwXwXwXwXwXwX",
"wXwXwXwXwXwXwXwXwXwXwXwX0.:.v = % * < : 4 S G Y Y L L U D r 3 & 1 C 0.wXwXwXwXwXwXwXwXwXwXwXwXwXwXwXwXwXwXwXwXwXwXwXwXwXwXwXwXwX",
"wXwXwXwXwXwXwXwXwXwXwXwX=.q.&.l = % * ; ; O # e S # # q 5 ; & , N >.8.wXwXwXwXwXwXwXwXwXwXwXwXwXwXwXwXwXwXwXwXwXwXwXwXwXwXwXwXwX",
"wXwXwXwXwXwXwXwXwXwXwXwXwX1.5.@.l - % % *   3 4 O o o 3 ; & , m :.y.wXwXwXwXwXwXwXwXwXwXwXwXwXwXwXwXwXwXwXwXwXwXwXwXwXwXwXwXwXwX",
"wXwXwXwXwXwXwXwXwXwXwXwXwXwX0.5.&.z - * % % * ; X o o & > 1 n :.w.wXwXwXwXwXwXwXwXwXwXwXwXwXwXwXwXwXwXwXwXwXwXwXwXwXwXwXwXwXwXwX",
"wXwXwXwXwXwXwXwXwXwXwXwXwXwXwX0.5.;.B 8 = % % % &   & , c C >.y.wXwXwXwXwXwXwXwXwXwXwXwXwXwXwXwXwXwXwXwXwXwXwXwXwXwXwXwXwXwXwXwX",
"wXwXwXwXwXwXwXwXwXwXwXwXwXwXwXwX3.w.5.O.b l 8 7 9 a c V :.w.u.wXwXwXwXwXwXwXwXwXwXwXwXwXwXwXwXwXwXwXwXwXwXwXwXwXwXwXwXwXwXwXwXwX",
"wXwXwXwXwXwXwXwXwXwXwXwXwXwXwXwXwX3.w.e.5.;.&.@.@.*.,.w.y.r.wXwXwXwXwXwXwXwXwXwXwXwXwXwXwXwXwXwXwXwXwXwXwXwXwXwXwXwXwXwXwXwXwXwX",
"wXwXwXwXwXwXwXwXwXwXwXwXwXwXwXwXwXwXwX4.w.w.w.e.e.y.y.r.wXwXwXwXwXwXwXwXwXwXwXwXwXwXwXwXwXwXwXwXwXwXwXwXwXwXwXwXwXwXwXwXwXwXwXwX",
"wXwXwXwXwXwXwXwXwXwXwXwXwXwXwXwXwXwXwXwXwXwX4.4.4.wXwXwXwXwXwXwXwXwXwXwXwXwXwXwXwXwXwXwXwXwXwXwXwXwXwXwXwXwXwXwXwXwXwXwXwXwXwXwX",
"wXwXwXwXwXwXwXwXwXwXwXwXwXwXwXwXwXwXwXwXwXwXwXwXwXwXwXwXwXwXwXwXwXwXwXwXwXwXwXwXwXwXwXwXwXwXwXwXwXwXwXwXwXwXwXwXwXwXwXwXwXwXwXwX",
"wXwXwXwXwXwXwXwXwXwXwXwXwXwXwXwXwXwXwXwXwXwXwXwXwXwXwXwXwXwXwXwXwXwXwXwXwXwXwXwXwXwXwXwXwXwXwXwXwXwXwXwXwXwXwXwXwXwXwXwXwXwXwXwX",
"wXwXwXwXwXwXwXwXwXwXwXwXwXwXwXwXwXwXwXwXwXwXwXwXwXwXwXwXwXwXwXwXwXwXwXwXwXwXwXwXwXwXwXwXwXwXwXwXwXwXwXwXwXwXwXwXwXwXwXwXwXwXwXwX",
"wXwXwXwXwXwXwXwXwXwXwXwXwXwXwXwXwXwXwXwXwXwXwXwXwXwXwXwXwXwXwXwXwXwXwXwXwXwXwXwXwXwXwXwXwXwXwXwXwXwXwXwXwXwXwXwXwXwXwXwXwXwXwXwX",
"wXwXwXwXwXwXwXwXwXwXwXwXwXwXwXwXwXwXwXwXwXwXwXwXwXwXwXwXwXwXwXwXwXwXwXwXwXwXwXwXwXwXwXwXwXwXwXwXwXwXwXwXwXwXwXwXwXwXwXwXwXwXwXwX",
"wXwXwXwXwXwXwXwXwXwXwXwXwXwXwXwXwXwXwXwXwXwXwXwXwXwXwXwXwXwXwXwXwXwXwXwXwXwXwXwXwXwXwXwXwXwXwXwXwXwXwXwXwXwXwXwXwXwXwXwXwXwXwXwX",
"wXwXwXwXwXwXwXwXwXwXwXwXwXwXwXwXwXwXwXwXwXwXwXwXwXwXwXwXwXwXwXwXwXwXwXwXwXwXwXwXwXwXwXwXwXwXwXwXwXwXwXwXwXwXwXwXwXwXwXwXwXwXwXwX",
"wXwXwXwXwXwXwXwXwXwXwXwXwXwXwXwXwXwXwXwXwXwXwXwXwXwXwXwXwXwXwXwXwXwXwXwXwXwXwXwXwXwXwXwXwXwXwXwXwXwXwXwXwXwXwXwXwXwXwXwXwXwXwXwX",
"wXwXwXwXwXwXwXwXwXwXwXwXwXwXwXwXwXwXwXwXwXwXwXwXwXwXwXwXwXwXwXwXwXwXwXwXwXwXwXwXwXwXwXwXwXwXwXwXwXwXwXwXwXwXwXwXwXwXwXwXwXwXwXwX",
"wXwXwXwXwXwXwXwXwXwXwXwXwXwXwXwXwXwXwXwXwXwXwXwXwXwXwXwXwXwXwXwXwXwXwXwXwXwXwXwXwXwXwXwXwXwXwXwXwXwXwXwXwXwXwXwXwXwXwXwXwXwXwXwX"
};
