/* XPM */
static const char *exit_0[] = {
/* columns rows colors chars-per-pixel */
"64 64 220 2 ",
"   c #A63B2D",
".  c #AB3D2C",
"X  c #A6372F",
"o  c #B23E2D",
"O  c #B93F2E",
"+  c #AB3634",
"@  c #AD3B32",
"#  c #A73634",
"$  c #B33D33",
"%  c #B93D32",
"&  c #B53A3B",
"*  c #BA3C3B",
"=  c #B2363D",
"-  c #AC4325",
";  c #AD422B",
":  c #B44A25",
">  c #B2442C",
",  c #BA452D",
"<  c #B7492A",
"1  c #BC4C2B",
"2  c #B74926",
"3  c #BF522D",
"4  c #BF5126",
"5  c #AE4032",
"6  c #B54132",
"7  c #BC4333",
"8  c #BE4E30",
"9  c #BC443B",
"0  c #BF5030",
"q  c #C04B2D",
"w  c #C4532C",
"e  c #CB5A2E",
"r  c #C9552F",
"t  c #D15F2D",
"y  c #C24333",
"u  c #C24C32",
"i  c #CE4D35",
"p  c #C5433C",
"a  c #CD4B3B",
"s  c #C84639",
"d  c #D64B3A",
"f  c #D94C3E",
"g  c #D24B3B",
"h  c #C45431",
"j  c #CB5B33",
"k  c #C95730",
"l  c #D35E33",
"z  c #DC5A39",
"x  c #D75439",
"c  c #E4583F",
"v  c #D4622F",
"b  c #D56235",
"n  c #DA6635",
"m  c #DC6A36",
"M  c #DC6C3B",
"N  c #D16539",
"B  c #DE723B",
"V  c #E06D39",
"C  c #E16F34",
"Z  c #F06A3F",
"A  c #E5753C",
"S  c #E97A3D",
"D  c #E37639",
"F  c #BC3B40",
"G  c #C63D48",
"H  c #D33E4D",
"J  c #CB4543",
"K  c #D34944",
"L  c #D4454B",
"P  c #D74947",
"I  c #DB5544",
"U  c #D64654",
"Y  c #E34D4B",
"T  c #E24F46",
"R  c #E85648",
"E  c #F35A4C",
"W  c #EF4E5D",
"Q  c #E45454",
"!  c #EB5A57",
"~  c #F25C54",
"^  c #F35E5A",
"/  c #EC6E44",
"(  c #F66948",
")  c #E67C41",
"_  c #EB7D41",
"`  c #FB7749",
"'  c #EE6254",
"]  c #F66354",
"[  c #F9695D",
"{  c #F76757",
"}  c #FA7657",
"|  c #E24D60",
" . c #EB596D",
".. c #F55964",
"X. c #F56364",
"o. c #FB6C62",
"O. c #F66C65",
"+. c #FC7669",
"@. c #FD7A6B",
"#. c #FA7665",
"$. c #F76776",
"%. c #FC7879",
"&. c #E9833F",
"*. c #E78243",
"=. c #EC8543",
"-. c #ED8E47",
";. c #F28B44",
":. c #F28E48",
">. c #F08643",
",. c #EF944B",
"<. c #ED9C4E",
"1. c #EF9147",
"2. c #F4944A",
"3. c #F69A4D",
"4. c #F79A49",
"5. c #FD8654",
"6. c #EC9E51",
"7. c #E79F51",
"8. c #F29D51",
"9. c #F89C51",
"0. c #EBA54E",
"q. c #E5A64F",
"w. c #F3A34F",
"e. c #F8A34E",
"r. c #ECA252",
"t. c #E6A954",
"y. c #ECAB56",
"u. c #E6A956",
"i. c #F4A251",
"p. c #F8A653",
"a. c #F4AB54",
"s. c #F9AC55",
"d. c #F2AC58",
"f. c #EDB259",
"g. c #EDB658",
"h. c #F5B256",
"j. c #F5B359",
"k. c #F8B259",
"l. c #F3B95B",
"z. c #F8B457",
"x. c #FF8E6B",
"c. c #FD996C",
"v. c #FB9E64",
"b. c #FF8274",
"n. c #FD8B75",
"m. c #FE857C",
"M. c #FE8A7B",
"N. c #FE957B",
"B. c #FD6F81",
"V. c #FD7C82",
"C. c #FC7484",
"Z. c #FC7E93",
"A. c #FE8D8B",
"S. c #FE9889",
"D. c #FE8C94",
"F. c #FE9C9E",
"G. c #FEA385",
"H. c #FFAA8C",
"J. c #FFAA96",
"K. c #FFB994",
"L. c #FFB29B",
"P. c #FFBC9A",
"I. c #FFB495",
"U. c #FEB483",
"Y. c #FE97A3",
"T. c #FFA7A9",
"R. c #FFB5AD",
"E. c #FFBBAB",
"W. c #FFBDA3",
"Q. c #FFADB9",
"!. c #FFB8B5",
"~. c #FFC894",
"^. c #FFC599",
"/. c #FFCBA7",
"(. c #FFCCAB",
"). c #FFC4B3",
"_. c #FFC8BA",
"`. c #FFD2BB",
"'. c #FFD8B3",
"]. c #FFD1A8",
"[. c #FFECAB",
"{. c #FFECB3",
"}. c #FFE6BB",
"|. c #FFEEBA",
" X c #FEE5B6",
".X c #FFFABA",
"XX c #FFBCCF",
"oX c #FFCCC2",
"OX c #FFCBCA",
"+X c #FFD5C3",
"@X c #FFD2C9",
"#X c #FFDBDA",
"$X c #FFCDD9",
"%X c #FFE5C5",
"&X c #FFEEC8",
"*X c #FFF4C4",
"=X c #FFFBC2",
"-X c #FFF2CB",
";X c #FFFCCB",
":X c #FFE6D2",
">X c #FFEBD3",
",X c #FFE4DA",
"<X c #FFE8DC",
"1X c #FFF7D7",
"2X c #FFFCD2",
"3X c #FFFCDB",
"4X c #FFF1DC",
"5X c #FFDFEC",
"6X c #FFEAE7",
"7X c #FFF7E3",
"8X c #FFFDE3",
"9X c #FFFEEC",
"0X c #FFF4EE",
"qX c #FFEAF5",
"wX c #FFF4F5",
"eX c #FFFDF3",
"rX c #FFF5F9",
"tX c #FFFEFB",
"yX c #FF00FF",
"uX c black",
/* pixels */
"yXyXyXyXyXyXyXyXyXyXyXyXyXyXyXyXyXyXyXyXyXyXyXyXyXyXyXyXyXyXyXyXyXyXyXyXyXyXyXyXyXyXyXyXyXyXyXyXyXyXyXyXyXyXyXyXyXyXyXyXyXyXyXyX",
"yXyXyXyXyXyXyXyXyXyXyXyXyXyXyXyXyXyXyXyXyXyXyXyXyXyXyXyXyXyXyXyXyXyXyXyXyXyXyXyXyXyXyXyXyXyXyXyXyXyXyXyXyXyXyXyXyXyXyXyXyXyXyXyX",
"yXyXyXyXyXyXyXyXyXyXyXyXyXyXyXyXyXyXyXyXyXyXyXyXyXyXyXyXyXyXyXyXyXyXyXyXyXyXyXyXyXyXyXyXyXyXyXyXyXyXyXyXyXyXyXyXyXyXyXyXyXyXyXyX",
"yXyXyXyXyXyXyXyXyXyXyXyXyXyXyXyXyXyXyXyXyXyXyXyXyXyXyXyXyXyXyXyXyXyXyXyXyXyXyXyXyXyXyXyXyXyXyXyXyXyXyXyXyXyXyXyXyXyXyXyXyXyXyXyX",
"yXyXyXyXyXyXyXyXyXyXyXyXyXyXyXyXyXyXyXyXyXyXyXyXyXyXyXyXyXyXyXyXyXyXyXyXyXyXyXyXyXyXyXyXyXyXyXyXyXyXyXyXyXyXyXyXyXyXyXyXyXyXyXyX",
"yXyXyXyXyXyXyXyXyXyXyXyXyXyXyXyXyXyXyXyXyXyXyXyXyXyXyXyXyXyXyXyXyXyXyXyXyXyXyXyXyXyXyXyXyXyXyXyXyXyXyXyXyXyXyXyXyXyXyXyXyXyXyXyX",
"yXyXyXyXyXyXyXyXyXyXyXyXyXyXyXyXyXyXyXyXyXyXyXyXyXyXyXyXyXyXyXyXyXyXyXyXyXyXyXyXyXyXyXyXyXyXyXyXyXyXyXyXyXyXyXyXyXyXyXyXyXyXyXyX",
"yXyXyXyXyXyXyXyXyXyXyXyXyXyXyXyXyXyXyXyXyXyXyXyXyXyXyXyXyXyXyXyXyXyXyXyXyXyXyXyXyXyXyXyXyXyXyXyXyXyXyXyXyXyXyXyXyXyXyXyXyXyXyXyX",
"yXyXyXyXyXyXyXyXyXyXyXyXyXyXyXyXyXyXyXyXyXyXyXyXyXyXyXyXyXyXyXyXyXyXyXyXyXyXyXyXyXyXyXyXyXyXyXyXyXyXyXyXyXyXyXyXyXyXyXyXyXyXyXyX",
"yXyXyXyXyXyXyXyXyXyXyXyXyXyXyXyXyXyXyXyXyXyXyXyXyXyXyXyXyXyXyXyXyXyXyXyXyXyXyXyXyXyXyXyXyXyXyXyXyXyXyXyXyXyXyXyXyXyXyXyXyXyXyXyX",
"yXyXyXyXyXyXyXyXyXyXyXyXyXyXyXyXyXyXyXyXyXyXu.u.u.yXyXyXyXyXyXyXyXyXyXyXyXyXyXyXyXyXyXyXyXyXyXyXyXyXyXyXyXyXyXyXyXyXyXyXyXyXyXyX",
"yXyXyXyXyXyXyXyXyXyXyXyXyXyXyXyXyXyXyXg.l.l.k.k.k.k.j.y.yXyXyXyXyXyXyXyXyXyXyXyXyXyXyXyXyXyXyXyXyXyXyXyXyXyXyXyXyXyXyXyXyXyXyXyX",
"yXyXyXyXyXyXyXyXyXyXyXyXyXyXyXyXyXf.l.z.s.4.;.>.>.2.3.p.a.y.yXyXyXyXyXyXyXyXyXyXyXyXyXyXyXyXyXyXyXyXyXyXyXyXyXyXyXyXyXyXyXyXyXyX",
"yXyXyXyXyXyXyXyXyXyXyXyXyXyXyXyXg.l.p.:.A b k w w e n A :.i.i.yXyXyXyXyXyXyXyXyXyXyXyXyXyXyXyXyXyXyXyXyXyXyXyXyXyXyXyXyXyXyXyXyX",
"yXyXyXyXyXyXyXyXyXyXyXyXyXyXyXl.k.2.V e 1 > ; ; ; - : 1 l S 2.i.yXyXyXyXyXyXyXyXyXyXyXyXyXyXyXyXyXyXyXyXyXyXyXyXyXyXyXyXyXyXyXyX",
"yXyXyXyXyXyXyXyXyXyXyXyXyXyXl.k.>.b 1 > > ; 5 5 @ . . ; > w V :.i.yXyXyXyXyXyXyXyXyXyXyXyXyXyXyXyXyXyXyXyXyXyXyXyXyXyXyXyXyXyXyX",
"yXyXyXyXyXyXyXyXyXyXyXyXyXg.k.>.l < . . > 6 7 6 $ $ @ @ ; - w m :.i.yXyXyXyXyXyXyXyXyXyXyXyXyXyXyXyXyXyXyXyXyXyXyXyXyXyXyXyXyXyX",
"yXyXyXyXyXyXyXyXyXyXyXyXf.k.2.b < ; ; o $ 7 a a p p * & 6 > > 1 V 2.6.yXyXyXyXyXyXyXyXyXyXyXyXyXyXyXyXyXyXyXyXyXyXyXyXyXyXyXyXyX",
"yXyXyXyXyXyXyXyXyXyXyXyXl.9.m < ; > 7 7 p K R R Y Y P J p 7 > ; w A 3.yXyXyXyXyXyXyXyXyXyXyXyXyXyXyXyXyXyXyXyXyXyXyXyXyXyXyXyXyX",
"yXyXyXyXyXyXyXyXyXyXyXf.s._ w ; ; 6 s I Q ^ #.+.O.X.^ ~ Q K 7 ; > j =.8.yXyXyXyXyXyXyXyXyXyXyXyXyXyXyXyXyXyXyXyXyXyXyXyXyXyXyXyX",
"yXyXyXyXyXyXyXyXyXyXyXl.3.n < > 7 a T ~ } @.N.G.S.A.m.@.o.Q J 6 . > M 2.yXyXyXyXyXyXyXyXyXyXyXyXyXyXyXyXyXyXyXyXyXyXyXyXyXyXyXyX",
"yXyXyXyXyXyXyXyXyXyXy.s._ w < u x R E { } x.G.P.E.E.W.H.M.O.Q p @ . k =.<.yXyXyXyXyXyXyXyXyXyXyXyXyXyXyXyXyXyXyXyXyXyXyXyXyXyXyX",
"yXyXyXyXyXyXyXyXyXyXj.3.n 1 1 x R ( ( } x.H.W._.+X@XoX).L.M.X.L & X > M 2.yXyXyXyXyXyXyXyXyXyXyXyXyXyXyXyXyXyXyXyXyXyXyXyXyXyXyX",
"yXyXyXyXyXyXyXyXyXyXk.>.r > u z Z ` 5.c.I.`.:X<X6X6X#X#X`.J.%.Q F # ; j -.yXyXyXyXyXyXyXyXyXyXyXyXyXyXyXyXyXyXyXyXyXyXyXyXyXyXyX",
"yXyXyXyXyXyXyXyXyXy.p.A 1 ; 7 z ( ` c.^.%X>X1X8XeXrXwX0X,X!.A. .G @ . h =.<.yXyXyXyXyXyXyXyXyXyXyXyXyXyXyXyXyXyXyXyXyXyXyXyXyXyX",
"yXyXyXyXyXyXyXyXyXd.3.n < > 6 i Z 5.U. X*X.X=X3X9XeXtXtX0XOXF.$.U * . < B ,.yXyXyXyXyXyXyXyXyXyXyXyXyXyXyXyXyXyXyXyXyXyXyXyXyXyX",
"yXyXyXyXyXyXyXyXyXd.:.e > > 7 i / v.~.{..X=X2X8X9X9XeXtXrX#XT.C.| F @ > b ,.yXyXyXyXyXyXyXyXyXyXyXyXyXyXyXyXyXyXyXyXyXyXyXyXyXyX",
"yXyXyXyXyXyXyXyXyXa.=.3 ; 6 u z / c.~.[.=X8X8X3X8X9XeXeXrX5XQ.Z. .G $ > b 1.yXyXyXyXyXyXyXyXyXyXyXyXyXyXyXyXyXyXyXyXyXyXyXyXyXyX",
"yXyXyXyXyXyXyXyXt.a.S 1 . 6 y z ` N.^.[.;X9X9X8X9XeXeX9XeXqXXXY.$.L 7 > j -.yXyXyXyXyXyXyXyXyXyXyXyXyXyXyXyXyXyXyXyXyXyXyXyXyXyX",
"yXyXyXyXyXyXyXyXr.p.D < . o 7 x } N.^.[.2X8X8X9XeXeX8X8XeXqX$XY.$.L % . w *.<.yXyXyXyXyXyXyXyXyXyXyXyXyXyXyXyXyXyXyXyXyXyXyXyXyX",
"yXyXyXyXyXyXyXyXr.3.m < . o O d { M.K.[.;X;X;X9XtXeX8X8X9XwX#XR.V.Q y > 3 *.<.yXyXyXyXyXyXyXyXyXyXyXyXyXyXyXyXyXyXyXyXyXyXyXyXyX",
"yXyXyXyXyXyXyXyXr.3.n >   . O f { m.K.{.*X.X=X9XtXtX9X9XeXrX,XR.V.' i , w &.<.yXyXyXyXyXyXyXyXyXyXyXyXyXyXyXyXyXyXyXyXyXyXyXyXyX",
"yXyXyXyXyXyXyXyXr.3.m >   + % f [ m.P.|.*X.X;X9XtXtXeXeXeXeX>XE.%.~ i , w =.<.yXyXyXyXyXyXyXyXyXyXyXyXyXyXyXyXyXyXyXyXyXyXyXyXyX",
"yXyXyXyXyXyXyXyXr.3.m >   @ 7 I [ b.^.|.*X;X3X9XeXtX9X9XeX0X>XR.%.! a > 3 ) <.yXyXyXyXyXyXyXyXyXyXyXyXyXyXyXyXyXyXyXyXyXyXyXyXyX",
"yXyXyXyXyXyXyXyXr.3.V <   . 7 f { b.I.|.2X3X8X3X8XeX8X8X9X4X+XF.$.I 7 . 0 *.6.yXyXyXyXyXyXyXyXyXyXyXyXyXyXyXyXyXyXyXyXyXyXyXyXyX",
"yXyXyXyXyXyXyXyX7.3.A < . . % f ] +.J. X2X8X8X2X3XeX9X9X8X>X).D.X.P %   h =.yXyXyXyXyXyXyXyXyXyXyXyXyXyXyXyXyXyXyXyXyXyXyXyXyXyX",
"yXyXyXyXyXyXyXyXyXi._ 1 .   O d E o.S.'.2X9X8X;X2XeXeX9X1X%XR.V.^ d $   j -.yXyXyXyXyXyXyXyXyXyXyXyXyXyXyXyXyXyXyXyXyXyXyXyXyXyX",
"yXyXyXyXyXyXyXyXyXp.=.k . . o s R [ M.(.-X9X9X3X3X9XeX8X-X+XT.%.E g @ . N ,.yXyXyXyXyXyXyXyXyXyXyXyXyXyXyXyXyXyXyXyXyXyXyXyXyXyX",
"yXyXyXyXyXyXyXyXyXi.2.l ;   o y T ] b.W.&X3X8X8X3X9XeX8X>X!.A.o.T p @ > B 8.yXyXyXyXyXyXyXyXyXyXyXyXyXyXyXyXyXyXyXyXyXyXyXyXyXyX",
"yXyXyXyXyXyXyXyXyXr.3.V >   . , d R #.J.}.-X>X,X<X7X8X3X%XL.@.~ K & @ 8 *.r.yXyXyXyXyXyXyXyXyXyXyXyXyXyXyXyXyXyXyXyXyXyXyXyXyXyX",
"yXyXyXyXyXyXyXyXyXyXi._ q . . o y f { N./.`.oXoX@X:X-X&X].G.o.Y * #   j ,.yXyXyXyXyXyXyXyXyXyXyXyXyXyXyXyXyXyXyXyXyXyXyXyXyXyXyX",
"yXyXyXyXyXyXyXyXyXyXi.:.l ; . o O s R @.S.T.R.!.!._.'./.H.n.[ P = # > M 8.yXyXyXyXyXyXyXyXyXyXyXyXyXyXyXyXyXyXyXyXyXyXyXyXyXyXyX",
"yXyXyXyXyXyXyXyXyXyX6.9.A 1 . ; > y f ] @.V.D.Y.Y.F.L.H.n.#.' J $ . k =.a.yXyXyXyXyXyXyXyXyXyXyXyXyXyXyXyXyXyXyXyXyXyXyXyXyXyXyX",
"yXyXyXyXyXyXyXyXyXyXyXi.;.l - - > , i c ] ..$.%.B.%.m.n.O.Q I s . < M 8.yXyXyXyXyXyXyXyXyXyXyXyXyXyXyXyXyXyXyXyXyXyXyXyXyXyXyXyX",
"yXyXyXyXyXyXyXyXyXyXyX6.9.S w - - 2 q i I Y W ....W ^ { I p u > > j :.d.yXyXyXyXyXyXyXyXyXyXyXyXyXyXyXyXyXyXyXyXyXyXyXyXyXyXyXyX",
"yXyXyXyXyXyXyXyXyXyXyXyXi.2.n 2 - : 1 q y p J L H H L I s 6 > ; 8 ) a.yXyXyXyXyXyXyXyXyXyXyXyXyXyXyXyXyXyXyXyXyXyXyXyXyXyXyXyXyX",
"yXyXyXyXyXyXyXyXyXyXyXyX<.i.>.v 2 - : < $ $ & * = = = 9 6 . ; 1 M 3.h.yXyXyXyXyXyXyXyXyXyXyXyXyXyXyXyXyXyXyXyXyXyXyXyXyXyXyXyXyX",
"yXyXyXyXyXyXyXyXyXyXyXyXyX6.e.=.t 2 : - . @ $ @ # # # @ @ ; 1 m 2.d.yXyXyXyXyXyXyXyXyXyXyXyXyXyXyXyXyXyXyXyXyXyXyXyXyXyXyXyXyXyX",
"yXyXyXyXyXyXyXyXyXyXyXyXyXyXr.e.>.v 4 - - . . . @ X X   ; w B 4.h.yXyXyXyXyXyXyXyXyXyXyXyXyXyXyXyXyXyXyXyXyXyXyXyXyXyXyXyXyXyXyX",
"yXyXyXyXyXyXyXyXyXyXyXyXyXyXyXw.e.:.C e 2 - - - . . ; < j S e.l.yXyXyXyXyXyXyXyXyXyXyXyXyXyXyXyXyXyXyXyXyXyXyXyXyXyXyXyXyXyXyXyX",
"yXyXyXyXyXyXyXyXyXyXyXyXyXyXyXyX0.a.3.>.C v e w w e b A :.a.j.yXyXyXyXyXyXyXyXyXyXyXyXyXyXyXyXyXyXyXyXyXyXyXyXyXyXyXyXyXyXyXyXyX",
"yXyXyXyXyXyXyXyXyXyXyXyXyXyXyXyXyX0.a.s.e.2.;.=.=.;.3.a.k.f.yXyXyXyXyXyXyXyXyXyXyXyXyXyXyXyXyXyXyXyXyXyXyXyXyXyXyXyXyXyXyXyXyXyX",
"yXyXyXyXyXyXyXyXyXyXyXyXyXyXyXyXyXyXyX0.a.a.h.z.z.h.j.f.yXyXyXyXyXyXyXyXyXyXyXyXyXyXyXyXyXyXyXyXyXyXyXyXyXyXyXyXyXyXyXyXyXyXyXyX",
"yXyXyXyXyXyXyXyXyXyXyXyXyXyXyXyXyXyXyXyXyXyXq.t.t.yXyXyXyXyXyXyXyXyXyXyXyXyXyXyXyXyXyXyXyXyXyXyXyXyXyXyXyXyXyXyXyXyXyXyXyXyXyXyX",
"yXyXyXyXyXyXyXyXyXyXyXyXyXyXyXyXyXyXyXyXyXyXyXyXyXyXyXyXyXyXyXyXyXyXyXyXyXyXyXyXyXyXyXyXyXyXyXyXyXyXyXyXyXyXyXyXyXyXyXyXyXyXyXyX",
"yXyXyXyXyXyXyXyXyXyXyXyXyXyXyXyXyXyXyXyXyXyXyXyXyXyXyXyXyXyXyXyXyXyXyXyXyXyXyXyXyXyXyXyXyXyXyXyXyXyXyXyXyXyXyXyXyXyXyXyXyXyXyXyX",
"yXyXyXyXyXyXyXyXyXyXyXyXyXyXyXyXyXyXyXyXyXyXyXyXyXyXyXyXyXyXyXyXyXyXyXyXyXyXyXyXyXyXyXyXyXyXyXyXyXyXyXyXyXyXyXyXyXyXyXyXyXyXyXyX",
"yXyXyXyXyXyXyXyXyXyXyXyXyXyXyXyXyXyXyXyXyXyXyXyXyXyXyXyXyXyXyXyXyXyXyXyXyXyXyXyXyXyXyXyXyXyXyXyXyXyXyXyXyXyXyXyXyXyXyXyXyXyXyXyX",
"yXyXyXyXyXyXyXyXyXyXyXyXyXyXyXyXyXyXyXyXyXyXyXyXyXyXyXyXyXyXyXyXyXyXyXyXyXyXyXyXyXyXyXyXyXyXyXyXyXyXyXyXyXyXyXyXyXyXyXyXyXyXyXyX",
"yXyXyXyXyXyXyXyXyXyXyXyXyXyXyXyXyXyXyXyXyXyXyXyXyXyXyXyXyXyXyXyXyXyXyXyXyXyXyXyXyXyXyXyXyXyXyXyXyXyXyXyXyXyXyXyXyXyXyXyXyXyXyXyX",
"yXyXyXyXyXyXyXyXyXyXyXyXyXyXyXyXyXyXyXyXyXyXyXyXyXyXyXyXyXyXyXyXyXyXyXyXyXyXyXyXyXyXyXyXyXyXyXyXyXyXyXyXyXyXyXyXyXyXyXyXyXyXyXyX",
"yXyXyXyXyXyXyXyXyXyXyXyXyXyXyXyXyXyXyXyXyXyXyXyXyXyXyXyXyXyXyXyXyXyXyXyXyXyXyXyXyXyXyXyXyXyXyXyXyXyXyXyXyXyXyXyXyXyXyXyXyXyXyXyX",
"yXyXyXyXyXyXyXyXyXyXyXyXyXyXyXyXyXyXyXyXyXyXyXyXyXyXyXyXyXyXyXyXyXyXyXyXyXyXyXyXyXyXyXyXyXyXyXyXyXyXyXyXyXyXyXyXyXyXyXyXyXyXyXyX",
"yXyXyXyXyXyXyXyXyXyXyXyXyXyXyXyXyXyXyXyXyXyXyXyXyXyXyXyXyXyXyXyXyXyXyXyXyXyXyXyXyXyXyXyXyXyXyXyXyXyXyXyXyXyXyXyXyXyXyXyXyXyXyXyX"
};
