/* XPM */
static const char *exit_18[] = {
/* columns rows colors chars-per-pixel */
"64 64 211 2 ",
"   c #AC3E2D",
".  c #A73E2B",
"X  c #B33E2E",
"o  c #A63932",
"O  c #AD3D32",
"+  c #AB3738",
"@  c #B43D34",
"#  c #BA3E33",
"$  c #B53D3A",
"%  c #B6393B",
"&  c #C03F3C",
"*  c #AD4525",
"=  c #AD422C",
"-  c #B44A25",
";  c #BA4E26",
":  c #B2442C",
">  c #BA432E",
",  c #B54A2B",
"<  c #BA4B2C",
"1  c #B14727",
"2  c #BE512A",
"3  c #AF4032",
"4  c #B34331",
"5  c #BC4333",
"6  c #BD4A33",
"7  c #BE423A",
"8  c #BF5332",
"9  c #C3492F",
"0  c #C2552C",
"q  c #C9562E",
"w  c #C65A2D",
"e  c #CA5A2E",
"r  c #C24536",
"t  c #C44A34",
"y  c #C3423A",
"u  c #C9443D",
"i  c #CC4C3B",
"p  c #C84936",
"a  c #D34C3C",
"s  c #DA4E3C",
"d  c #C25433",
"f  c #C55B31",
"g  c #CC5C34",
"h  c #CC5433",
"j  c #D3523B",
"k  c #DA553B",
"l  c #D65936",
"z  c #D3622E",
"x  c #CA6134",
"c  c #D46334",
"v  c #DA6636",
"b  c #D46A36",
"n  c #DA6935",
"m  c #D66A3A",
"M  c #DC6D3A",
"N  c #D86338",
"B  c #DC723B",
"V  c #E4643E",
"C  c #E4743C",
"Z  c #E47A3E",
"A  c #E57739",
"S  c #B83741",
"D  c #C53E47",
"F  c #BF4240",
"G  c #CB4442",
"H  c #D44C41",
"J  c #DB4D44",
"K  c #D7494A",
"L  c #DD5546",
"P  c #DA4955",
"I  c #E24D4B",
"U  c #E25245",
"Y  c #E9554B",
"T  c #EC5C4E",
"R  c #E55949",
"E  c #ED5C51",
"W  c #E95551",
"Q  c #F25C54",
"!  c #F75F5E",
"~  c #F05650",
"^  c #DF7540",
"/  c #EC6348",
"(  c #F6774B",
")  c #F36D53",
"_  c #F46B5B",
"`  c #FA6A5E",
"'  c #F66559",
"]  c #F67457",
"[  c #EE6F4A",
"{  c #ED5964",
"}  c #F65B63",
"|  c #E85371",
" . c #FC6E64",
".. c #F96765",
"X. c #FB746B",
"o. c #FB7666",
"O. c #F76977",
"+. c #FD7B75",
"@. c #FE767B",
"#. c #FE7D7B",
"$. c #FD7671",
"%. c #E7813F",
"&. c #F0863F",
"*. c #E68342",
"=. c #EC8443",
"-. c #ED8B45",
";. c #EE8D4A",
":. c #F18B45",
">. c #F18D48",
",. c #F08542",
"<. c #EE944A",
"1. c #ED9C4D",
"2. c #E79E4E",
"3. c #F3944B",
"4. c #F59C4D",
"5. c #F59047",
"6. c #F98658",
"7. c #EB9D50",
"8. c #F99954",
"9. c #EBA34D",
"0. c #E5A54F",
"q. c #F2A34F",
"w. c #F8A24D",
"e. c #F7AA4F",
"r. c #EBA152",
"t. c #E6A954",
"y. c #ECAA56",
"u. c #F4A251",
"i. c #F4AC54",
"p. c #F9AB52",
"a. c #F8AF58",
"s. c #F8A253",
"d. c #EDB359",
"f. c #ECB057",
"g. c #F3B359",
"h. c #F9B35A",
"j. c #F4B85B",
"k. c #F8B157",
"l. c #FE8965",
"z. c #FD8B74",
"x. c #FE897B",
"c. c #FE9777",
"v. c #FE9567",
"b. c #FEA663",
"n. c #FEAA7A",
"m. c #FFBE77",
"M. c #FFC26F",
"N. c #FC7D98",
"B. c #F86C8E",
"V. c #FE8482",
"C. c #FE8B82",
"Z. c #FE9886",
"A. c #FF9792",
"S. c #FE9A9B",
"D. c #FE9E95",
"F. c #FEA687",
"G. c #FFA29A",
"H. c #FFAB9C",
"J. c #FFB999",
"K. c #FEB685",
"L. c #FE92AC",
"P. c #FFABA7",
"I. c #FFB8AA",
"U. c #FFA3B7",
"Y. c #FFBDB6",
"T. c #FEB5B6",
"R. c #FFC194",
"E. c #FFC89B",
"W. c #FED18A",
"Q. c #FFE59E",
"!. c #FFCBA3",
"~. c #FFC8A8",
"^. c #FFD8A3",
"/. c #FFC4BA",
"(. c #FFCCBB",
"). c #FFC5B4",
"_. c #FFDCB3",
"`. c #FFD6BB",
"'. c #FFE8B6",
"]. c #FFF5B9",
"[. c #FEE8A2",
"{. c #FFB7C8",
"}. c #FFCBC5",
"|. c #FFD7C7",
" X c #FFCFDC",
".X c #FFD3D6",
"XX c #FFE3CC",
"oX c #FFEBCC",
"OX c #FFEAC6",
"+X c #FFFCC4",
"@X c #FFFCCB",
"#X c #FFF3C3",
"$X c #FFE3D3",
"%X c #FFECDA",
"&X c #FFEAD7",
"*X c #FFF4D5",
"=X c #FFFDD2",
"-X c #FFF4DB",
";X c #FFFCDB",
":X c #FFD0E6",
">X c #FFEEEC",
",X c #FFF5E1",
"<X c #FFFDE4",
"1X c #FFFDEB",
"2X c #FFF6E8",
"3X c #FFE7F2",
"4X c #FFF5F5",
"5X c #FFFDF3",
"6X c #FFFFFB",
"7X c #FF00FF",
"8X c black",
/* pixels */
"7X7X7X7X7X7X7X7X7X7X7X7X7X7X7X7X7X7X7X7X7X7X7X7X7X7X7X7X7X7X7X7X7X7X7X7X7X7X7X7X7X7X7X7X7X7X7X7X7X7X7X7X7X7X7X7X7X7X7X7X7X7X7X7X",
"7X7X7X7X7X7X7X7X7X7X7X7X7X7X7X7X7X7X7X7X7X7X7X7X7X7X7X7X7X7X7X7X7X7X7X7X7X7X7X7X7X7X7X7X7X7X7X7X7X7X7X7X7X7X7X7X7X7X7X7X7X7X7X7X",
"7X7X7X7X7X7X7X7X7X7X7X7X7X7X7X7X7X7X7X7X7X7X7X7X7X7X7X7X7X7X7X7X7X7X7X7X7X7X7X7X7X7X7X7X7X7X7X7X7X7X7X7X7X7X7X7X7X7X7X7X7X7X7X7X",
"7X7X7X7X7X7X7X7X7X7X7X7X7X7X7X7X7X7X7X7X7X7X7X7X7X7X7X7X7X7X7X7X7X7X7X7X7X7X7X7X7X7X7X7X7X7X7X7X7X7X7X7X7X7X7X7X7X7X7X7X7X7X7X7X",
"7X7X7X7X7X7X7X7X7X7X7X7X7X7X7X7X7X7X7X7X7X7X7X7X7X7X7X7X7X7X7X7X7X7X7X7X7X7X7X7X7X7X7X7X7X7X7X7X7X7X7X7X7X7X7X7X7X7X7X7X7X7X7X7X",
"7X7X7X7X7X7X7X7X7X7X7X7X7X7X7X7X7X7X7X7X7X7X7X7X7X7X7X7X7X7X7X7X7X7X7X7X7X7X7X7X7X7X7X7X7X7X7X7X7X7X7X7X7X7X7X7X7X7X7X7X7X7X7X7X",
"7X7X7X7X7X7X7X7X7X7X7X7X7X7X7X7X7X7X7X7X7X7X7X7X7X7X7X7X7X7X7X7X7X7X7X7X7X7X7X7X7X7X7X7X7X7X7X7X7X7X7X7X7X7X7X7X7X7X7X7X7X7X7X7X",
"7X7X7X7X7X7X7X7X7X7X7X7X7X7X7X7X7X7X7X7X7X7X7X7X7X7X7X7X7X7X7X7X7X7X7X7X7X7X7X7X7X7X7X7X7X7X7X7X7X7X7X7X7X7X7X7X7X7X7X7X7X7X7X7X",
"7X7X7X7X7X7X7X7X7X7X7X7X7X7X7X7X7X7X7X7X7X7X7X7X7X7X7X7X7X7X7X7X7X7X7X7X7X7X7X7X7X7X7X7X7X7X7X7X7X7X7X7X7X7X7X7X7X7X7X7X7X7X7X7X",
"7X7X7X7X7X7X7X7X7X7X7X7X7X7X7X7X7X7X7X7X7X7X7X7X7X7X7X7X7X7X7X7X7X7X7X7X7X7X7X7X7X7X7X7X7X7X7X7X7X7X7X7X7X7X7X7X7X7X7X7X7X7X7X7X",
"7X7X7X7X7X7X7X7X7X7X7X7X7X7X7X7X7X7X7X7X7X7Xt.t.t.7X7X7X7X7X7X7X7X7X7X7X7X7X7X7X7X7X7X7X7X7X7X7X7X7X7X7X7X7X7X7X7X7X7X7X7X7X7X7X",
"7X7X7X7X7X7X7X7X7X7X7X7X7X7X7X7X7X7X7Xf.j.j.h.k.k.k.i.y.7X7X7X7X7X7X7X7X7X7X7X7X7X7X7X7X7X7X7X7X7X7X7X7X7X7X7X7X7X7X7X7X7X7X7X7X",
"7X7X7X7X7X7X7X7X7X7X7X7X7X7X7X7X7Xf.j.h.p.4.>.-.-.>.3.s.i.y.7X7X7X7X7X7X7X7X7X7X7X7X7X7X7X7X7X7X7X7X7X7X7X7X7X7X7X7X7X7X7X7X7X7X",
"7X7X7X7X7X7X7X7X7X7X7X7X7X7X7X7Xd.h.s.:.A n e 0 d g N C >.u.i.7X7X7X7X7X7X7X7X7X7X7X7X7X7X7X7X7X7X7X7X7X7X7X7X7X7X7X7X7X7X7X7X7X",
"7X7X7X7X7X7X7X7X7X7X7X7X7X7X7Xj.k.3.M q < , = = = = , < g C 3.u.7X7X7X7X7X7X7X7X7X7X7X7X7X7X7X7X7X7X7X7X7X7X7X7X7X7X7X7X7X7X7X7X",
"7X7X7X7X7X7X7X7X7X7X7X7X7X7Xj.a.-.c < = = : O O 3 : = = = 2 v ;.u.7X7X7X7X7X7X7X7X7X7X7X7X7X7X7X7X7X7X7X7X7X7X7X7X7X7X7X7X7X7X7X",
"7X7X7X7X7X7X7X7X7X7X7X7X7Xg.k.:.g :     4 5 5 7 5 # 4 4 = = , c -.4.7X7X7X7X7X7X7X7X7X7X7X7X7X7X7X7X7X7X7X7X7X7X7X7X7X7X7X7X7X7X",
"7X7X7X7X7X7X7X7X7X7X7X7Xf.h.3.N :     X 5 p a H u u y r 5 4 = , m ;.1.7X7X7X7X7X7X7X7X7X7X7X7X7X7X7X7X7X7X7X7X7X7X7X7X7X7X7X7X7X",
"7X7X7X7X7X7X7X7X7X7X7X7Xj.4.M 6 =   X > p s R T Y I I J i 6 4 = < B 3.7X7X7X7X7X7X7X7X7X7X7X7X7X7X7X7X7X7X7X7X7X7X7X7X7X7X7X7X7X",
"7X7X7X7X7X7X7X7X7X7X7Xd.k.=.t = : X 5 a U Q `  ...} ! Q Y j 6 3 = f *.1.7X7X7X7X7X7X7X7X7X7X7X7X7X7X7X7X7X7X7X7X7X7X7X7X7X7X7X7X",
"7X7X7X7X7X7X7X7X7X7X7Xj.4.v ; : : r a T ` X.x.Z.V.@.#.$...E i @ O , m <.7X7X7X7X7X7X7X7X7X7X7X7X7X7X7X7X7X7X7X7X7X7X7X7X7X7X7X7X",
"7X7X7X7X7X7X7X7X7X7Xf.k.=.q , < h L E  .z.Z.J.!.I.P.G.A.x. .K $ O O d *.<.7X7X7X7X7X7X7X7X7X7X7X7X7X7X7X7X7X7X7X7X7X7X7X7X7X7X7X",
"7X7X7X7X7X7X7X7X7X7Xg.4.n < ; q V ) ] l.c.n.E.'.|.|.`.).H.V.{ G @ o 4 B 3.7X7X7X7X7X7X7X7X7X7X7X7X7X7X7X7X7X7X7X7X7X7X7X7X7X7X7X",
"7X7X7X7X7X7X7X7X7X7Xa.:.e - ; l ( 6.l.v.n.R._.oX%X%X%XoX(.G.O.P % + O x ;.7X7X7X7X7X7X7X7X7X7X7X7X7X7X7X7X7X7X7X7X7X7X7X7X7X7X7X",
"7X7X7X7X7X7X7X7X7Xy.s.C 0 , < j [ 8.b.m.^.OX,X2X4X>X>X2X&X/.N.| S + O 8 *.1.7X7X7X7X7X7X7X7X7X7X7X7X7X7X7X7X7X7X7X7X7X7X7X7X7X7X",
"7X7X7X7X7X7X7X7X7Xi.3.c , , t a / 8.M.Q.*X<X<X1X5X4X4X4X2X}.L.| D $ 3 , B <.7X7X7X7X7X7X7X7X7X7X7X7X7X7X7X7X7X7X7X7X7X7X7X7X7X7X",
"7X7X7X7X7X7X7X7X7Xi.>.h = : t k / 6.W.].=X;X=X;X1X1X5X6X4X.XU.B.P y O = b <.7X7X7X7X7X7X7X7X7X7X7X7X7X7X7X7X7X7X7X7X7X7X7X7X7X7X",
"7X7X7X7X7X7X7X7X7Xa.=.0 1 : t V ( b.W.].@X;X<X<X<X;X1X5X4X XU.N.{ G O = x ;.7X7X7X7X7X7X7X7X7X7X7X7X7X7X7X7X7X7X7X7X7X7X7X7X7X7X",
"7X7X7X7X7X7X7X7Xr.p.Z 0 , < p k 6.m.[.+X=X<X5X<X<X<X<X1X3X:X{.L.O.K 5 : f -.1.7X7X7X7X7X7X7X7X7X7X7X7X7X7X7X7X7X7X7X7X7X7X7X7X7X",
"7X7X7X7X7X7X7X7Xr.u.C ; , < 9 k ( n.^.].@X<X5X5X5X5X1X;X>X3X.XU.O.I r : w -.1.7X7X7X7X7X7X7X7X7X7X7X7X7X7X7X7X7X7X7X7X7X7X7X7X7X",
"7X7X7X7X7X7X7X7Xr.4.n - = : 5 s ) c.!.'.+X;X<X5X6X5X<X=X2X4X%XT.#.T p : w =.1.7X7X7X7X7X7X7X7X7X7X7X7X7X7X7X7X7X7X7X7X7X7X7X7X7X",
"7X7X7X7X7X7X7X7Xr.4.n 1   @ # s ) c.J.'.@X=X=X1X6X6X1X<X5X5X,X`.Z.) j < 0 %.1.7X7X7X7X7X7X7X7X7X7X7X7X7X7X7X7X7X7X7X7X7X7X7X7X7X",
"7X7X7X7X7X7X7X7Xr.4.c =   O # a ] F.!.#X=X@X+X<X6X6X6X5X6X5X,X/.x.) j < 0 %.1.7X7X7X7X7X7X7X7X7X7X7X7X7X7X7X7X7X7X7X7X7X7X7X7X7X",
"7X7X7X7X7X7X7X7Xr.4.n 1   O # a 6.K.^.].@X+X+X<X6X6X5X1X5X<X$XP.+.T p : 0 *.1.7X7X7X7X7X7X7X7X7X7X7X7X7X7X7X7X7X7X7X7X7X7X7X7X7X",
"7X7X7X7X7X7X7X7X2.4.M ,   O 5 k 6.n.J._.#X+X+X;X<X5X5X1X<X-X}.S.X.Y r : 0 *.7.7X7X7X7X7X7X7X7X7X7X7X7X7X7X7X7X7X7X7X7X7X7X7X7X7X",
"7X7X7X7X7X7X7X7X2.4.C < = 4 5 j ) z.Z.I.OX*X=X;X=X<X5X5X<X-X(.A. .U 5   f -.7X7X7X7X7X7X7X7X7X7X7X7X7X7X7X7X7X7X7X7X7X7X7X7X7X7X",
"7X7X7X7X7X7X7X7X7X4.Z 0 = : > p / o.V.I.oX;X2X<X=X;X5X1X1X-X).Z._ H @ : g ;.7X7X7X7X7X7X7X7X7X7X7X7X7X7X7X7X7X7X7X7X7X7X7X7X7X7X",
"7X7X7X7X7X7X7X7X7Xq.,.e = = : 5 L ` #.P.XX,X1X1X;X<X1X1X2XXXJ.z.E u @ : m 1.7X7X7X7X7X7X7X7X7X7X7X7X7X7X7X7X7X7X7X7X7X7X7X7X7X7X",
"7X7X7X7X7X7X7X7X7Xq.5.c 1     @ a Q $.G.|.-X<X1X<X,X2X2X*X_.F.o.L 7 O < ^ 4.7X7X7X7X7X7X7X7X7X7X7X7X7X7X7X7X7X7X7X7X7X7X7X7X7X7X",
"7X7X7X7X7X7X7X7X7X9.4.M :     X y Y  .C.Y.$X;X;X-X%X%X*X'.R.c._ H $ 3 8 *.u.7X7X7X7X7X7X7X7X7X7X7X7X7X7X7X7X7X7X7X7X7X7X7X7X7X7X",
"7X7X7X7X7X7X7X7X7X7X4.^ <     X # J ' +.S./.$XoXXX|.|.`.!.F.X.E u @ = g <.7X7X7X7X7X7X7X7X7X7X7X7X7X7X7X7X7X7X7X7X7X7X7X7X7X7X7X",
"7X7X7X7X7X7X7X7X7X7Xu.>.g : =   X a T ` C.H.Y.}./.Y.).~.F.z.' J r O 4 M 4.7X7X7X7X7X7X7X7X7X7X7X7X7X7X7X7X7X7X7X7X7X7X7X7X7X7X7X",
"7X7X7X7X7X7X7X7X7X7X2.4.C < *   : 9 s ' o.x.A.S.S.S.D.F.z.o.R y 4 = d -.i.7X7X7X7X7X7X7X7X7X7X7X7X7X7X7X7X7X7X7X7X7X7X7X7X7X7X7X",
"7X7X7X7X7X7X7X7X7X7X7Xu.:.g 1 * 1 > p R '  .+.#.@.@.+.X._ / i # O < M 4.7X7X7X7X7X7X7X7X7X7X7X7X7X7X7X7X7X7X7X7X7X7X7X7X7X7X7X7X",
"7X7X7X7X7X7X7X7X7X7X7X7.4.Z 0 * = : < j U ~ ! ..} } ..W J k t O = g ;.i.7X7X7X7X7X7X7X7X7X7X7X7X7X7X7X7X7X7X7X7X7X7X7X7X7X7X7X7X",
"7X7X7X7X7X7X7X7X7X7X7X7Xu.3.N ; * * ; < r H I I K K K G 7 i t 3 < Z q.7X7X7X7X7X7X7X7X7X7X7X7X7X7X7X7X7X7X7X7X7X7X7X7X7X7X7X7X7X",
"7X7X7X7X7X7X7X7X7X7X7X7X7.s.:.z - * 1 1 : # % G D S F $ $ 6 < < b 4.i.7X7X7X7X7X7X7X7X7X7X7X7X7X7X7X7X7X7X7X7X7X7X7X7X7X7X7X7X7X",
"7X7X7X7X7X7X7X7X7X7X7X7X7X7.w.&.z - * * 1   O # $ + $ 3 = 1 2 b <.i.7X7X7X7X7X7X7X7X7X7X7X7X7X7X7X7X7X7X7X7X7X7X7X7X7X7X7X7X7X7X",
"7X7X7X7X7X7X7X7X7X7X7X7X7X7Xu.w.&.z ; - * = = = O o o = 1 0 M 3.i.7X7X7X7X7X7X7X7X7X7X7X7X7X7X7X7X7X7X7X7X7X7X7X7X7X7X7X7X7X7X7X",
"7X7X7X7X7X7X7X7X7X7X7X7X7X7X7Xq.w.:.C e ; * * * = . = , g Z 4.i.7X7X7X7X7X7X7X7X7X7X7X7X7X7X7X7X7X7X7X7X7X7X7X7X7X7X7X7X7X7X7X7X",
"7X7X7X7X7X7X7X7X7X7X7X7X7X7X7X7X9.e.w.:.C z w w 0 0 c C 3.i.g.7X7X7X7X7X7X7X7X7X7X7X7X7X7X7X7X7X7X7X7X7X7X7X7X7X7X7X7X7X7X7X7X7X",
"7X7X7X7X7X7X7X7X7X7X7X7X7X7X7X7X7X9.i.p.w.3.:.-.-.;.4.i.k.d.7X7X7X7X7X7X7X7X7X7X7X7X7X7X7X7X7X7X7X7X7X7X7X7X7X7X7X7X7X7X7X7X7X7X",
"7X7X7X7X7X7X7X7X7X7X7X7X7X7X7X7X7X7X7X9.i.a.a.k.k.k.g.y.7X7X7X7X7X7X7X7X7X7X7X7X7X7X7X7X7X7X7X7X7X7X7X7X7X7X7X7X7X7X7X7X7X7X7X7X",
"7X7X7X7X7X7X7X7X7X7X7X7X7X7X7X7X7X7X7X7X7X7X0.t.t.7X7X7X7X7X7X7X7X7X7X7X7X7X7X7X7X7X7X7X7X7X7X7X7X7X7X7X7X7X7X7X7X7X7X7X7X7X7X7X",
"7X7X7X7X7X7X7X7X7X7X7X7X7X7X7X7X7X7X7X7X7X7X7X7X7X7X7X7X7X7X7X7X7X7X7X7X7X7X7X7X7X7X7X7X7X7X7X7X7X7X7X7X7X7X7X7X7X7X7X7X7X7X7X7X",
"7X7X7X7X7X7X7X7X7X7X7X7X7X7X7X7X7X7X7X7X7X7X7X7X7X7X7X7X7X7X7X7X7X7X7X7X7X7X7X7X7X7X7X7X7X7X7X7X7X7X7X7X7X7X7X7X7X7X7X7X7X7X7X7X",
"7X7X7X7X7X7X7X7X7X7X7X7X7X7X7X7X7X7X7X7X7X7X7X7X7X7X7X7X7X7X7X7X7X7X7X7X7X7X7X7X7X7X7X7X7X7X7X7X7X7X7X7X7X7X7X7X7X7X7X7X7X7X7X7X",
"7X7X7X7X7X7X7X7X7X7X7X7X7X7X7X7X7X7X7X7X7X7X7X7X7X7X7X7X7X7X7X7X7X7X7X7X7X7X7X7X7X7X7X7X7X7X7X7X7X7X7X7X7X7X7X7X7X7X7X7X7X7X7X7X",
"7X7X7X7X7X7X7X7X7X7X7X7X7X7X7X7X7X7X7X7X7X7X7X7X7X7X7X7X7X7X7X7X7X7X7X7X7X7X7X7X7X7X7X7X7X7X7X7X7X7X7X7X7X7X7X7X7X7X7X7X7X7X7X7X",
"7X7X7X7X7X7X7X7X7X7X7X7X7X7X7X7X7X7X7X7X7X7X7X7X7X7X7X7X7X7X7X7X7X7X7X7X7X7X7X7X7X7X7X7X7X7X7X7X7X7X7X7X7X7X7X7X7X7X7X7X7X7X7X7X",
"7X7X7X7X7X7X7X7X7X7X7X7X7X7X7X7X7X7X7X7X7X7X7X7X7X7X7X7X7X7X7X7X7X7X7X7X7X7X7X7X7X7X7X7X7X7X7X7X7X7X7X7X7X7X7X7X7X7X7X7X7X7X7X7X",
"7X7X7X7X7X7X7X7X7X7X7X7X7X7X7X7X7X7X7X7X7X7X7X7X7X7X7X7X7X7X7X7X7X7X7X7X7X7X7X7X7X7X7X7X7X7X7X7X7X7X7X7X7X7X7X7X7X7X7X7X7X7X7X7X",
"7X7X7X7X7X7X7X7X7X7X7X7X7X7X7X7X7X7X7X7X7X7X7X7X7X7X7X7X7X7X7X7X7X7X7X7X7X7X7X7X7X7X7X7X7X7X7X7X7X7X7X7X7X7X7X7X7X7X7X7X7X7X7X7X",
"7X7X7X7X7X7X7X7X7X7X7X7X7X7X7X7X7X7X7X7X7X7X7X7X7X7X7X7X7X7X7X7X7X7X7X7X7X7X7X7X7X7X7X7X7X7X7X7X7X7X7X7X7X7X7X7X7X7X7X7X7X7X7X7X"
};
