/* XPM */
static const char *exit_19[] = {
/* columns rows colors chars-per-pixel */
"64 64 220 2 ",
"   c #AA3F26",
".  c #A63B2D",
"X  c #AC3C2C",
"o  c #B33E2C",
"O  c #B83E2C",
"+  c #AB3732",
"@  c #A63931",
"#  c #AC3B32",
"$  c #A93637",
"%  c #B43C33",
"&  c #B93E34",
"*  c #B33A3C",
"=  c #BB3C3B",
"-  c #B33634",
";  c #AD4424",
":  c #AE412A",
">  c #B34526",
",  c #B44824",
"<  c #BB4B26",
"1  c #B4442B",
"2  c #BA452D",
"3  c #BD4B2C",
"4  c #B6492A",
"5  c #BF522E",
"6  c #B44232",
"7  c #BB4333",
"8  c #BA4832",
"9  c #C34D2C",
"0  c #C4532C",
"q  c #CA552E",
"w  c #C9592E",
"e  c #D35C2D",
"r  c #D0572E",
"t  c #C24434",
"y  c #C34A34",
"u  c #C4433B",
"i  c #CB443D",
"p  c #CC4A3A",
"a  c #C94938",
"s  c #D34D3D",
"d  c #D44B39",
"f  c #C55532",
"g  c #CB5331",
"h  c #CD5C33",
"j  c #D45C33",
"k  c #D5533A",
"l  c #DC543B",
"z  c #D75739",
"x  c #E1583A",
"c  c #D7632E",
"v  c #D46234",
"b  c #DB6535",
"n  c #D76936",
"m  c #DD6935",
"M  c #DC6C3B",
"N  c #DB6538",
"B  c #DF713A",
"V  c #E26D3A",
"C  c #E4733C",
"Z  c #EA753C",
"A  c #EB7B3E",
"S  c #E47538",
"D  c #BA3841",
"F  c #C33E42",
"G  c #CB4344",
"H  c #CE4448",
"J  c #D54A41",
"K  c #DD4C44",
"L  c #D2444C",
"P  c #DB484A",
"I  c #DC5143",
"U  c #DE4E55",
"Y  c #E54F4C",
"T  c #E3544D",
"R  c #EB544D",
"E  c #E85947",
"W  c #F35F4E",
"Q  c #EC5952",
"!  c #E25C51",
"~  c #F25B51",
"^  c #F45D5B",
"/  c #E04D59",
"(  c #EA6341",
")  c #F26B47",
"_  c #E97A41",
"`  c #F56D53",
"'  c #F36B5B",
"]  c #F86659",
"[  c #FB7A54",
"{  c #F16F50",
"}  c #E95667",
"|  c #F45765",
" . c #F35E78",
".. c #F76261",
"X. c #F96362",
"o. c #FB6C63",
"O. c #F86D66",
"+. c #FC746E",
"@. c #FC7767",
"#. c #FE7B71",
"$. c #FC7679",
"%. c #F9657A",
"&. c #EB823F",
"*. c #F1843F",
"=. c #EA8343",
"-. c #EC8B46",
";. c #E78041",
":. c #F18544",
">. c #F28B45",
",. c #F38B48",
"<. c #EF924A",
"1. c #EE9C4C",
"2. c #F4934A",
"3. c #F49B4D",
"4. c #F89B4E",
"5. c #F59144",
"6. c #FD8C54",
"7. c #FD885B",
"8. c #EB9E51",
"9. c #F89D51",
"0. c #F79D55",
"q. c #ECA34D",
"w. c #E6A64F",
"e. c #F3A14F",
"r. c #F9A24E",
"t. c #EBA252",
"y. c #E6AB55",
"u. c #EBAB55",
"i. c #E5A958",
"p. c #F3A252",
"a. c #F9A352",
"s. c #F4AB54",
"d. c #F9AC51",
"f. c #F2AF58",
"g. c #ECB259",
"h. c #ECB157",
"j. c #F8B257",
"k. c #F4B45A",
"l. c #F9B35A",
"z. c #F3B95C",
"x. c #F4B155",
"c. c #FE8368",
"v. c #FD9567",
"b. c #FD8474",
"n. c #FE847C",
"m. c #FE8B7D",
"M. c #FE8D77",
"N. c #FE967B",
"B. c #FFAC7A",
"V. c #FFA677",
"C. c #FEB476",
"Z. c #FFB86E",
"A. c #FC7985",
"S. c #FB7C9B",
"D. c #FE8C83",
"F. c #FE8382",
"G. c #FF9C85",
"H. c #FF968B",
"J. c #FD8793",
"K. c #FF9C98",
"L. c #FEAC8C",
"P. c #FEA78C",
"I. c #FFA19C",
"U. c #FFAD9B",
"Y. c #FFAB97",
"T. c #FFB89B",
"R. c #FE8EA6",
"E. c #FE98A8",
"W. c #FF9FB1",
"Q. c #FFAEA6",
"!. c #FFBCAB",
"~. c #FEBAA0",
"^. c #FFA7B2",
"/. c #FFB7B6",
"(. c #FFC382",
"). c #FFC796",
"_. c #FFCBA4",
"`. c #FFC7AC",
"'. c #FFDCA2",
"]. c #FFD6A9",
"[. c #FFC6B8",
"{. c #FFCBB6",
"}. c #FFD5B4",
"|. c #FFDCB3",
" X c #FFD7BE",
".X c #FFD9BA",
"XX c #FFE3AF",
"oX c #FFE7BF",
"OX c #FFE7B4",
"+X c #FFFAB2",
"@X c #FFF4BD",
"#X c #FFFBBC",
"$X c #FFF3B6",
"%X c #FFBFCA",
"&X c #FFDBCD",
"*X c #FFD5C4",
"=X c #FFCDD4",
"-X c #FFD4D6",
";X c #FFCCC7",
":X c #FFE4CC",
">X c #FFECCD",
",X c #FFF3C6",
"<X c #FFFBC4",
"1X c #FFFCCD",
"2X c #FFE4D7",
"3X c #FFECD3",
"4X c #FFF4D5",
"5X c #FFFDD4",
"6X c #FFF5DC",
"7X c #FFFCDB",
"8X c #FFE4E7",
"9X c #FFFDE4",
"0X c #FFFDEC",
"qX c #FFF3E0",
"wX c #FFEFF3",
"eX c #FFFDF3",
"rX c #FFFEFA",
"tX c #FFF6F2",
"yX c #FF00FF",
"uX c black",
/* pixels */
"yXyXyXyXyXyXyXyXyXyXyXyXyXyXyXyXyXyXyXyXyXyXyXyXyXyXyXyXyXyXyXyXyXyXyXyXyXyXyXyXyXyXyXyXyXyXyXyXyXyXyXyXyXyXyXyXyXyXyXyXyXyXyXyX",
"yXyXyXyXyXyXyXyXyXyXyXyXyXyXyXyXyXyXyXyXyXyXyXyXyXyXyXyXyXyXyXyXyXyXyXyXyXyXyXyXyXyXyXyXyXyXyXyXyXyXyXyXyXyXyXyXyXyXyXyXyXyXyXyX",
"yXyXyXyXyXyXyXyXyXyXyXyXyXyXyXyXyXyXyXyXyXyXyXyXyXyXyXyXyXyXyXyXyXyXyXyXyXyXyXyXyXyXyXyXyXyXyXyXyXyXyXyXyXyXyXyXyXyXyXyXyXyXyXyX",
"yXyXyXyXyXyXyXyXyXyXyXyXyXyXyXyXyXyXyXyXyXyXyXyXyXyXyXyXyXyXyXyXyXyXyXyXyXyXyXyXyXyXyXyXyXyXyXyXyXyXyXyXyXyXyXyXyXyXyXyXyXyXyXyX",
"yXyXyXyXyXyXyXyXyXyXyXyXyXyXyXyXyXyXyXyXyXyXyXyXyXyXyXyXyXyXyXyXyXyXyXyXyXyXyXyXyXyXyXyXyXyXyXyXyXyXyXyXyXyXyXyXyXyXyXyXyXyXyXyX",
"yXyXyXyXyXyXyXyXyXyXyXyXyXyXyXyXyXyXyXyXyXyXyXyXyXyXyXyXyXyXyXyXyXyXyXyXyXyXyXyXyXyXyXyXyXyXyXyXyXyXyXyXyXyXyXyXyXyXyXyXyXyXyXyX",
"yXyXyXyXyXyXyXyXyXyXyXyXyXyXyXyXyXyXyXyXyXyXyXyXyXyXyXyXyXyXyXyXyXyXyXyXyXyXyXyXyXyXyXyXyXyXyXyXyXyXyXyXyXyXyXyXyXyXyXyXyXyXyXyX",
"yXyXyXyXyXyXyXyXyXyXyXyXyXyXyXyXyXyXyXyXyXyXyXyXyXyXyXyXyXyXyXyXyXyXyXyXyXyXyXyXyXyXyXyXyXyXyXyXyXyXyXyXyXyXyXyXyXyXyXyXyXyXyXyX",
"yXyXyXyXyXyXyXyXyXyXyXyXyXyXyXyXyXyXyXyXyXyXyXyXyXyXyXyXyXyXyXyXyXyXyXyXyXyXyXyXyXyXyXyXyXyXyXyXyXyXyXyXyXyXyXyXyXyXyXyXyXyXyXyX",
"yXyXyXyXyXyXyXyXyXyXyXyXyXyXyXyXyXyXyXyXyXyXyXyXyXyXyXyXyXyXyXyXyXyXyXyXyXyXyXyXyXyXyXyXyXyXyXyXyXyXyXyXyXyXyXyXyXyXyXyXyXyXyXyX",
"yXyXyXyXyXyXyXyXyXyXyXyXyXyXyXyXyXyXyXyXyXyXi.y.y.yXyXyXyXyXyXyXyXyXyXyXyXyXyXyXyXyXyXyXyXyXyXyXyXyXyXyXyXyXyXyXyXyXyXyXyXyXyXyX",
"yXyXyXyXyXyXyXyXyXyXyXyXyXyXyXyXyXyXyXh.z.z.l.l.l.k.f.u.yXyXyXyXyXyXyXyXyXyXyXyXyXyXyXyXyXyXyXyXyXyXyXyXyXyXyXyXyXyXyXyXyXyXyXyX",
"yXyXyXyXyXyXyXyXyXyXyXyXyXyXyXyXyXh.z.l.d.4.,.:.,.2.4.a.s.u.yXyXyXyXyXyXyXyXyXyXyXyXyXyXyXyXyXyXyXyXyXyXyXyXyXyXyXyXyXyXyXyXyXyX",
"yXyXyXyXyXyXyXyXyXyXyXyXyXyXyXyXz.l.a.>.Z b q 0 q j N Z ,.9.p.yXyXyXyXyXyXyXyXyXyXyXyXyXyXyXyXyXyXyXyXyXyXyXyXyXyXyXyXyXyXyXyXyX",
"yXyXyXyXyXyXyXyXyXyXyXyXyXyXyXz.l.2.V r 9 > : : : > 1 9 j Z 2.p.yXyXyXyXyXyXyXyXyXyXyXyXyXyXyXyXyXyXyXyXyXyXyXyXyXyXyXyXyXyXyXyX",
"yXyXyXyXyXyXyXyXyXyXyXyXyXyXz.l.,.b 3 1 1 X # 6 X X X : 4 0 m ,.p.yXyXyXyXyXyXyXyXyXyXyXyXyXyXyXyXyXyXyXyXyXyXyXyXyXyXyXyXyXyXyX",
"yXyXyXyXyXyXyXyXyXyXyXyXyXz.l.,.j 1 X X 1 7 7 a t & % 1 : : 2 b >.e.yXyXyXyXyXyXyXyXyXyXyXyXyXyXyXyXyXyXyXyXyXyXyXyXyXyXyXyXyXyX",
"yXyXyXyXyXyXyXyXyXyXyXyXh.z.2.N 2 X X X 2 t p l J i u t 8 : : 3 m 2.q.yXyXyXyXyXyXyXyXyXyXyXyXyXyXyXyXyXyXyXyXyXyXyXyXyXyXyXyXyX",
"yXyXyXyXyXyXyXyXyXyXyXyXz.a.V 3 : X X % t l E W ~ Y Y K s 7 1 1 3 C 3.yXyXyXyXyXyXyXyXyXyXyXyXyXyXyXyXyXyXyXyXyXyXyXyXyXyXyXyXyX",
"yXyXyXyXyXyXyXyXyXyXyXg.l.:.g : X 1 & i K ~ ] o.o.X.X.^ R s y : X f =.3.yXyXyXyXyXyXyXyXyXyXyXyXyXyXyXyXyXyXyXyXyXyXyXyXyXyXyXyX",
"yXyXyXyXyXyXyXyXyXyXyXk.4.m 3 1 1 a K R ..+.m.G.D.F.n.+.o.Q s % . 1 M 2.yXyXyXyXyXyXyXyXyXyXyXyXyXyXyXyXyXyXyXyXyXyXyXyXyXyXyXyX",
"yXyXyXyXyXyXyXyXyXyXu.j._ q < 3 g E ] o.b.N.L._.`.`.U.H.m.O.T = + X f ;.1.yXyXyXyXyXyXyXyXyXyXyXyXyXyXyXyXyXyXyXyXyXyXyXyXyXyXyX",
"yXyXyXyXyXyXyXyXyXyXk.4.m < 4 g ( ` [ c.v.B.T.XX>X:X*X{.U.D.} G - # 1 M 2.yXyXyXyXyXyXyXyXyXyXyXyXyXyXyXyXyXyXyXyXyXyXyXyXyXyXyX",
"yXyXyXyXyXyXyXyXyXyXl.>.r > 2 z ) [ 7.v.V.).}.3X6XqX6X3X.XU.$.U = $ X h >.yXyXyXyXyXyXyXyXyXyXyXyXyXyXyXyXyXyXyXyXyXyXyXyXyXyXyX",
"yXyXyXyXyXyXyXyXyXu.a.Z 0 > 2 k ) 6.0.C.].:XqX0XeXeXeX0X4X{.J.} D $ X 0 ;.1.yXyXyXyXyXyXyXyXyXyXyXyXyXyXyXyXyXyXyXyXyXyXyXyXyXyX",
"yXyXyXyXyXyXyXyXyXs.2.b > 4 2 p ( 6.Z.'.4X7X5X9XeXrXrXrX0X*XR. .L & # 1 B 2.yXyXyXyXyXyXyXyXyXyXyXyXyXyXyXyXyXyXyXyXyXyXyXyXyXyX",
"yXyXyXyXyXyXyXyXyXs.,.g > 1 7 p ( 6.(.OX1X1X<X5X0XeXrXrXtX-X^.A./ = # X v <.yXyXyXyXyXyXyXyXyXyXyXyXyXyXyXyXyXyXyXyXyXyXyXyXyXyX",
"yXyXyXyXyXyXyXyXyXs.=.0 : 6 a z ) v.).OX<X5X7X5X9X0XeXrXrX8X/.S.} F # X h -.yXyXyXyXyXyXyXyXyXyXyXyXyXyXyXyXyXyXyXyXyXyXyXyXyXyX",
"yXyXyXyXyXyXyXyXt.s.A 0 4 1 t l [ C.'.@X1X9X0X7X7XeXrXrXrX8X%XR. .H % X w -.yXyXyXyXyXyXyXyXyXyXyXyXyXyXyXyXyXyXyXyXyXyXyXyXyXyX",
"yXyXyXyXyXyXyXyXt.p.S < 1 1 t x [ B.'.@X1X9X0X0X0XrXeX0XeXwX=XE. .L & X 0 =.1.yXyXyXyXyXyXyXyXyXyXyXyXyXyXyXyXyXyXyXyXyXyXyXyXyX",
"yXyXyXyXyXyXyXyXt.4.m > X o 7 l [ N.T.XX<X1X5X0XrXrXeX0XeXwX-XW.%.P t 1 0 =.1.yXyXyXyXyXyXyXyXyXyXyXyXyXyXyXyXyXyXyXyXyXyXyXyXyX",
"yXyXyXyXyXyXyXyXt.4.b 1 X + % d ` m.U.].#X#X#X9XrXrXeX0XeXtX2X/.A.Q p 2 w &.1.yXyXyXyXyXyXyXyXyXyXyXyXyXyXyXyXyXyXyXyXyXyXyXyXyX",
"yXyXyXyXyXyXyXyXt.4.b 1 X + - i ' D.U.|.@X+X+X7XrXrXeX0XeXeX3X/.D.` z 3 w &.1.yXyXyXyXyXyXyXyXyXyXyXyXyXyXyXyXyXyXyXyXyXyXyXyXyX",
"yXyXyXyXyXyXyXyXt.4.m 4 X + % s ' m.Y.|.@X$X#X7XrXrX9X9X0X0X2X!.m.` k 1 0 ;.1.yXyXyXyXyXyXyXyXyXyXyXyXyXyXyXyXyXyXyXyXyXyXyXyXyX",
"yXyXyXyXyXyXyXyXt.4.V 4 X # & p ' b.K.}.,X,X5X9XrXeX9X7X6X3X;XE.+.T u X 5 =.8.yXyXyXyXyXyXyXyXyXyXyXyXyXyXyXyXyXyXyXyXyXyXyXyXyX",
"yXyXyXyXyXyXyXyX8.4.C 3 X # & t Q +.H.`.,X7X9X9X0XeXeX9X4X:X/.J...K & X f -.yXyXyXyXyXyXyXyXyXyXyXyXyXyXyXyXyXyXyXyXyXyXyXyXyXyX",
"yXyXyXyXyXyXyXyXyX4.A 0 : X % t T o.D.!.>X0XeX0X9X0XeX0X7X&X^.F.^ J % X h <.yXyXyXyXyXyXyXyXyXyXyXyXyXyXyXyXyXyXyXyXyXyXyXyXyXyX",
"yXyXyXyXyXyXyXyXyXe.:.g X X X & I ' m.Q.:X0XeXeX9X0XeX0X9X&XI.#.Q i # 1 n 3.yXyXyXyXyXyXyXyXyXyXyXyXyXyXyXyXyXyXyXyXyXyXyXyXyXyX",
"yXyXyXyXyXyXyXyXyXe.2.v 1 X X & I ] #.I.:X9X9X0X9X0X0X0X6X}.G.o.P = # 1 _ 8.yXyXyXyXyXyXyXyXyXyXyXyXyXyXyXyXyXyXyXyXyXyXyXyXyXyX",
"yXyXyXyXyXyXyXyXyXq.4.V 1 X X O p R o.H. X4X7X7X7X6X9X4XoX).M.] G - X y =.p.yXyXyXyXyXyXyXyXyXyXyXyXyXyXyXyXyXyXyXyXyXyXyXyXyXyX",
"yXyXyXyXyXyXyXyXyXyXp._ 3 X X o & K ] M.T. X3X4X>X:X>XoX_.L.@.Q u # X h <.yXyXyXyXyXyXyXyXyXyXyXyXyXyXyXyXyXyXyXyXyXyXyXyXyXyXyX",
"yXyXyXyXyXyXyXyXyXyXp.,.j : X X O d W @.G.U.[.*X{.[..X_.P.M.' K t # 1 M p.yXyXyXyXyXyXyXyXyXyXyXyXyXyXyXyXyXyXyXyXyXyXyXyXyXyXyX",
"yXyXyXyXyXyXyXyXyXyX8.9.C 3   o 1 t I ` c.m.K.I.K.K.U.P.b.O.! u 1 : f -.s.yXyXyXyXyXyXyXyXyXyXyXyXyXyXyXyXyXyXyXyXyXyXyXyXyXyXyX",
"yXyXyXyXyXyXyXyXyXyXyXp.,.j > : o O d ) ` o.$.A.$.$.#.#.' T p 6 1 3 M 3.yXyXyXyXyXyXyXyXyXyXyXyXyXyXyXyXyXyXyXyXyXyXyXyXyXyXyXyX",
"yXyXyXyXyXyXyXyXyXyXyX8.9.A 0 :   1 9 l E ~ ] X.| | ^ Q E p 7 # 1 v ,.s.yXyXyXyXyXyXyXyXyXyXyXyXyXyXyXyXyXyXyXyXyXyXyXyXyXyXyXyX",
"yXyXyXyXyXyXyXyXyXyXyXyXp.2.m <   > < 9 a J R R P L L G p y 6 X 3 A s.yXyXyXyXyXyXyXyXyXyXyXyXyXyXyXyXyXyXyXyXyXyXyXyXyXyXyXyXyX",
"yXyXyXyXyXyXyXyXyXyXyXyX8.p.:.e , ; , 4 1 & i J F D D * 7 8 1 4 n 3.x.yXyXyXyXyXyXyXyXyXyXyXyXyXyXyXyXyXyXyXyXyXyXyXyXyXyXyXyXyX",
"yXyXyXyXyXyXyXyXyXyXyXyXyX8.r.*.e < ; ; : X % 7 * $ $ $ : 1 3 n <.f.yXyXyXyXyXyXyXyXyXyXyXyXyXyXyXyXyXyXyXyXyXyXyXyXyXyXyXyXyXyX",
"yXyXyXyXyXyXyXyXyXyXyXyXyXyXp.r.:.c < , ;   : : # @ @ . 1 0 B 3.f.yXyXyXyXyXyXyXyXyXyXyXyXyXyXyXyXyXyXyXyXyXyXyXyXyXyXyXyXyXyXyX",
"yXyXyXyXyXyXyXyXyXyXyXyXyXyXyXp.a.5.S e < ; ; ; X . : 4 g A 9.k.yXyXyXyXyXyXyXyXyXyXyXyXyXyXyXyXyXyXyXyXyXyXyXyXyXyXyXyXyXyXyXyX",
"yXyXyXyXyXyXyXyXyXyXyXyXyXyXyXyXq.d.r.>.S v w w 0 q v C 2.s.k.yXyXyXyXyXyXyXyXyXyXyXyXyXyXyXyXyXyXyXyXyXyXyXyXyXyXyXyXyXyXyXyXyX",
"yXyXyXyXyXyXyXyXyXyXyXyXyXyXyXyXyXq.s.d.r.2.>.:.:.>.4.s.k.g.yXyXyXyXyXyXyXyXyXyXyXyXyXyXyXyXyXyXyXyXyXyXyXyXyXyXyXyXyXyXyXyXyXyX",
"yXyXyXyXyXyXyXyXyXyXyXyXyXyXyXyXyXyXyXq.s.f.x.j.j.k.k.h.yXyXyXyXyXyXyXyXyXyXyXyXyXyXyXyXyXyXyXyXyXyXyXyXyXyXyXyXyXyXyXyXyXyXyXyX",
"yXyXyXyXyXyXyXyXyXyXyXyXyXyXyXyXyXyXyXyXyXyXw.y.y.yXyXyXyXyXyXyXyXyXyXyXyXyXyXyXyXyXyXyXyXyXyXyXyXyXyXyXyXyXyXyXyXyXyXyXyXyXyXyX",
"yXyXyXyXyXyXyXyXyXyXyXyXyXyXyXyXyXyXyXyXyXyXyXyXyXyXyXyXyXyXyXyXyXyXyXyXyXyXyXyXyXyXyXyXyXyXyXyXyXyXyXyXyXyXyXyXyXyXyXyXyXyXyXyX",
"yXyXyXyXyXyXyXyXyXyXyXyXyXyXyXyXyXyXyXyXyXyXyXyXyXyXyXyXyXyXyXyXyXyXyXyXyXyXyXyXyXyXyXyXyXyXyXyXyXyXyXyXyXyXyXyXyXyXyXyXyXyXyXyX",
"yXyXyXyXyXyXyXyXyXyXyXyXyXyXyXyXyXyXyXyXyXyXyXyXyXyXyXyXyXyXyXyXyXyXyXyXyXyXyXyXyXyXyXyXyXyXyXyXyXyXyXyXyXyXyXyXyXyXyXyXyXyXyXyX",
"yXyXyXyXyXyXyXyXyXyXyXyXyXyXyXyXyXyXyXyXyXyXyXyXyXyXyXyXyXyXyXyXyXyXyXyXyXyXyXyXyXyXyXyXyXyXyXyXyXyXyXyXyXyXyXyXyXyXyXyXyXyXyXyX",
"yXyXyXyXyXyXyXyXyXyXyXyXyXyXyXyXyXyXyXyXyXyXyXyXyXyXyXyXyXyXyXyXyXyXyXyXyXyXyXyXyXyXyXyXyXyXyXyXyXyXyXyXyXyXyXyXyXyXyXyXyXyXyXyX",
"yXyXyXyXyXyXyXyXyXyXyXyXyXyXyXyXyXyXyXyXyXyXyXyXyXyXyXyXyXyXyXyXyXyXyXyXyXyXyXyXyXyXyXyXyXyXyXyXyXyXyXyXyXyXyXyXyXyXyXyXyXyXyXyX",
"yXyXyXyXyXyXyXyXyXyXyXyXyXyXyXyXyXyXyXyXyXyXyXyXyXyXyXyXyXyXyXyXyXyXyXyXyXyXyXyXyXyXyXyXyXyXyXyXyXyXyXyXyXyXyXyXyXyXyXyXyXyXyXyX",
"yXyXyXyXyXyXyXyXyXyXyXyXyXyXyXyXyXyXyXyXyXyXyXyXyXyXyXyXyXyXyXyXyXyXyXyXyXyXyXyXyXyXyXyXyXyXyXyXyXyXyXyXyXyXyXyXyXyXyXyXyXyXyXyX",
"yXyXyXyXyXyXyXyXyXyXyXyXyXyXyXyXyXyXyXyXyXyXyXyXyXyXyXyXyXyXyXyXyXyXyXyXyXyXyXyXyXyXyXyXyXyXyXyXyXyXyXyXyXyXyXyXyXyXyXyXyXyXyXyX",
"yXyXyXyXyXyXyXyXyXyXyXyXyXyXyXyXyXyXyXyXyXyXyXyXyXyXyXyXyXyXyXyXyXyXyXyXyXyXyXyXyXyXyXyXyXyXyXyXyXyXyXyXyXyXyXyXyXyXyXyXyXyXyXyX"
};
