/* XPM */
static const char *exit_4[] = {
/* columns rows colors chars-per-pixel */
"64 64 220 2 ",
"   c #A6392D",
".  c #AB3D2C",
"X  c #A5372E",
"o  c #B03D2E",
"O  c #BC3F2E",
"+  c #AC3B32",
"@  c #A93439",
"#  c #A83733",
"$  c #B33D33",
"%  c #BC3E34",
"&  c #B1353E",
"*  c #B53B39",
"=  c #BB3D3B",
"-  c #AC4325",
";  c #AE412A",
":  c #B24526",
">  c #B54B23",
",  c #B3442C",
"<  c #BA452C",
"1  c #B6482C",
"2  c #BB4B2B",
"3  c #B94A26",
"4  c #BE502F",
"5  c #AF4231",
"6  c #B34131",
"7  c #BC4333",
"8  c #BC4A36",
"9  c #C14C2D",
"0  c #C0442F",
"q  c #C3522D",
"w  c #CB562D",
"e  c #CB592E",
"r  c #C65828",
"t  c #C14433",
"y  c #C34B32",
"u  c #CD4D35",
"i  c #C3423A",
"p  c #CA453C",
"a  c #CB4B3A",
"s  c #C84737",
"d  c #D4483D",
"f  c #D94B3B",
"g  c #C55531",
"h  c #CB5B32",
"j  c #CF5138",
"k  c #D35434",
"l  c #D25D32",
"z  c #DB543C",
"x  c #D15D2E",
"c  c #E45D3A",
"v  c #E7573E",
"b  c #D2612E",
"n  c #D36233",
"m  c #DA6434",
"M  c #DB6A34",
"N  c #DC6C39",
"B  c #D46538",
"V  c #DD723C",
"C  c #E36C3C",
"Z  c #E27236",
"A  c #E4733B",
"S  c #E97B3E",
"D  c #BC3942",
"F  c #C93E49",
"G  c #CB4542",
"H  c #CC4841",
"J  c #C94247",
"K  c #DC4D43",
"L  c #D54848",
"P  c #DA5245",
"I  c #DA4653",
"U  c #E24D4C",
"Y  c #E24C40",
"T  c #EA5C4D",
"R  c #E7544A",
"E  c #F35B4B",
"W  c #ED5B55",
"Q  c #E75655",
"!  c #F25A58",
"~  c #E8614E",
"^  c #F56848",
"/  c #E57D41",
"(  c #EB7D41",
")  c #ED7248",
"_  c #EE6050",
"`  c #F56355",
"'  c #F8625A",
"]  c #F36A5B",
"[  c #F86857",
"{  c #FA7457",
"}  c #F5774E",
"|  c #EC5865",
" . c #F45A67",
".. c #E34D60",
"X. c #FA6C63",
"o. c #F66265",
"O. c #F97465",
"+. c #FC7C6C",
"@. c #F97666",
"#. c #F66874",
"$. c #FC7779",
"%. c #EB8442",
"&. c #EE8942",
"*. c #EA8947",
"=. c #F28B45",
"-. c #F28A46",
";. c #EE9C4E",
":. c #EB964D",
">. c #F49347",
",. c #F4934A",
"<. c #F59A4D",
"1. c #F99F4B",
"2. c #FB895E",
"3. c #EB9D50",
"4. c #E79C50",
"5. c #F39D51",
"6. c #EAA44E",
"7. c #E7A84F",
"8. c #F8A34F",
"9. c #F5A14E",
"0. c #ECA251",
"q. c #E7AB53",
"w. c #EDAB56",
"e. c #F3A351",
"r. c #F9A652",
"t. c #F4AB54",
"y. c #F9AB53",
"u. c #F4AE58",
"i. c #ECB356",
"p. c #EDB259",
"a. c #F5B456",
"s. c #F9B356",
"d. c #F3B359",
"f. c #F3B959",
"g. c #F9B658",
"h. c #FD876D",
"j. c #FE8B75",
"k. c #FD8C7A",
"l. c #FD8479",
"z. c #FE9374",
"x. c #FE957B",
"c. c #FD976D",
"v. c #FDAD7E",
"b. c #FB6F81",
"n. c #FC7985",
"m. c #FD7E90",
"M. c #FD8385",
"N. c #FD8589",
"B. c #FE9B83",
"V. c #FE9689",
"C. c #FF939F",
"Z. c #FE9A98",
"A. c #FE8E9A",
"S. c #FEA68A",
"D. c #FEBC8E",
"F. c #FFA893",
"G. c #FFAA9D",
"H. c #FEA79C",
"J. c #FEB29E",
"K. c #FEB695",
"L. c #FE9BA7",
"P. c #FFABA7",
"I. c #FFBBA9",
"U. c #FFB2AB",
"Y. c #FFA7B3",
"T. c #FFB6B5",
"R. c #FFC48E",
"E. c #FFC88F",
"W. c #FFC992",
"Q. c #FFCD9D",
"!. c #FFC79D",
"~. c #FFEB9F",
"^. c #FFC6A5",
"/. c #FFD5A9",
"(. c #FFDFAF",
"). c #FFC4B2",
"_. c #FFC8B7",
"`. c #FFD3B4",
"'. c #FFEBA5",
"]. c #FFF2AB",
"[. c #FFEBB6",
"{. c #FFEABA",
"}. c #FFE3B9",
"|. c #FFF8B5",
" X c #FFBDC0",
".X c #FFBED8",
"XX c #FFAEC7",
"oX c #FFCCC2",
"OX c #FFCDCA",
"+X c #FFD6C4",
"@X c #FFC6D8",
"#X c #FFDADF",
"$X c #FFDDD7",
"%X c #FFECC3",
"&X c #FFECCA",
"*X c #FFE5CA",
"=X c #FFFBC2",
"-X c #FFF3CD",
";X c #FFFCCC",
":X c #FFF3C1",
">X c #FFE4DE",
",X c #FFEBD9",
"<X c #FFE9D3",
"1X c #FFFCD3",
"2X c #FFFDDB",
"3X c #FFF3D7",
"4X c #FFD3E3",
"5X c #FFEBE3",
"6X c #FFF5E3",
"7X c #FFFDE3",
"8X c #FFF6EC",
"9X c #FFFEEC",
"0X c #FFEBF4",
"qX c #FFE3F3",
"wX c #FFF4F4",
"eX c #FFFDF3",
"rX c #FFFEFB",
"tX c #FFF3F8",
"yX c #FF00FF",
"uX c black",
/* pixels */
"yXyXyXyXyXyXyXyXyXyXyXyXyXyXyXyXyXyXyXyXyXyXyXyXyXyXyXyXyXyXyXyXyXyXyXyXyXyXyXyXyXyXyXyXyXyXyXyXyXyXyXyXyXyXyXyXyXyXyXyXyXyXyXyX",
"yXyXyXyXyXyXyXyXyXyXyXyXyXyXyXyXyXyXyXyXyXyXyXyXyXyXyXyXyXyXyXyXyXyXyXyXyXyXyXyXyXyXyXyXyXyXyXyXyXyXyXyXyXyXyXyXyXyXyXyXyXyXyXyX",
"yXyXyXyXyXyXyXyXyXyXyXyXyXyXyXyXyXyXyXyXyXyXyXyXyXyXyXyXyXyXyXyXyXyXyXyXyXyXyXyXyXyXyXyXyXyXyXyXyXyXyXyXyXyXyXyXyXyXyXyXyXyXyXyX",
"yXyXyXyXyXyXyXyXyXyXyXyXyXyXyXyXyXyXyXyXyXyXyXyXyXyXyXyXyXyXyXyXyXyXyXyXyXyXyXyXyXyXyXyXyXyXyXyXyXyXyXyXyXyXyXyXyXyXyXyXyXyXyXyX",
"yXyXyXyXyXyXyXyXyXyXyXyXyXyXyXyXyXyXyXyXyXyXyXyXyXyXyXyXyXyXyXyXyXyXyXyXyXyXyXyXyXyXyXyXyXyXyXyXyXyXyXyXyXyXyXyXyXyXyXyXyXyXyXyX",
"yXyXyXyXyXyXyXyXyXyXyXyXyXyXyXyXyXyXyXyXyXyXyXyXyXyXyXyXyXyXyXyXyXyXyXyXyXyXyXyXyXyXyXyXyXyXyXyXyXyXyXyXyXyXyXyXyXyXyXyXyXyXyXyX",
"yXyXyXyXyXyXyXyXyXyXyXyXyXyXyXyXyXyXyXyXyXyXyXyXyXyXyXyXyXyXyXyXyXyXyXyXyXyXyXyXyXyXyXyXyXyXyXyXyXyXyXyXyXyXyXyXyXyXyXyXyXyXyXyX",
"yXyXyXyXyXyXyXyXyXyXyXyXyXyXyXyXyXyXyXyXyXyXyXyXyXyXyXyXyXyXyXyXyXyXyXyXyXyXyXyXyXyXyXyXyXyXyXyXyXyXyXyXyXyXyXyXyXyXyXyXyXyXyXyX",
"yXyXyXyXyXyXyXyXyXyXyXyXyXyXyXyXyXyXyXyXyXyXyXyXyXyXyXyXyXyXyXyXyXyXyXyXyXyXyXyXyXyXyXyXyXyXyXyXyXyXyXyXyXyXyXyXyXyXyXyXyXyXyXyX",
"yXyXyXyXyXyXyXyXyXyXyXyXyXyXyXyXyXyXyXyXyXyXyXyXyXyXyXyXyXyXyXyXyXyXyXyXyXyXyXyXyXyXyXyXyXyXyXyXyXyXyXyXyXyXyXyXyXyXyXyXyXyXyXyX",
"yXyXyXyXyXyXyXyXyXyXyXyXyXyXyXyXyXyXyXyXyXyXq.q.q.yXyXyXyXyXyXyXyXyXyXyXyXyXyXyXyXyXyXyXyXyXyXyXyXyXyXyXyXyXyXyXyXyXyXyXyXyXyXyX",
"yXyXyXyXyXyXyXyXyXyXyXyXyXyXyXyXyXyXyXi.f.f.g.s.s.s.d.w.yXyXyXyXyXyXyXyXyXyXyXyXyXyXyXyXyXyXyXyXyXyXyXyXyXyXyXyXyXyXyXyXyXyXyXyX",
"yXyXyXyXyXyXyXyXyXyXyXyXyXyXyXyXyXi.f.g.r.<.=.=.=.>.<.r.t.w.yXyXyXyXyXyXyXyXyXyXyXyXyXyXyXyXyXyXyXyXyXyXyXyXyXyXyXyXyXyXyXyXyXyX",
"yXyXyXyXyXyXyXyXyXyXyXyXyXyXyXyXf.g.r.=.A m e w w x m A =.r.t.yXyXyXyXyXyXyXyXyXyXyXyXyXyXyXyXyXyXyXyXyXyXyXyXyXyXyXyXyXyXyXyXyX",
"yXyXyXyXyXyXyXyXyXyXyXyXyXyXyXf.s.,.A l 9 , , ; ; ; : 3 l S <.e.yXyXyXyXyXyXyXyXyXyXyXyXyXyXyXyXyXyXyXyXyXyXyXyXyXyXyXyXyXyXyXyX",
"yXyXyXyXyXyXyXyXyXyXyXyXyXyXf.s.-.m 9 , ; , , ; + . . . : q Z >.e.yXyXyXyXyXyXyXyXyXyXyXyXyXyXyXyXyXyXyXyXyXyXyXyXyXyXyXyXyXyXyX",
"yXyXyXyXyXyXyXyXyXyXyXyXyXf.s.-.l , . . . , 7 6 $ $ + + . : q M >.e.yXyXyXyXyXyXyXyXyXyXyXyXyXyXyXyXyXyXyXyXyXyXyXyXyXyXyXyXyXyX",
"yXyXyXyXyXyXyXyXyXyXyXyXp.g.,.n 3 ; . + $ t a i % % = * $ , : 2 A <.0.yXyXyXyXyXyXyXyXyXyXyXyXyXyXyXyXyXyXyXyXyXyXyXyXyXyXyXyXyX",
"yXyXyXyXyXyXyXyXyXyXyXyXd.1.M 2 . o 7 i p K ~ R U P K H p 7 . ; q A <.yXyXyXyXyXyXyXyXyXyXyXyXyXyXyXyXyXyXyXyXyXyXyXyXyXyXyXyXyX",
"yXyXyXyXyXyXyXyXyXyXyXp.y.( q ; + $ p Y E ` @.+.@.O.] T R H $ . ; h %.5.yXyXyXyXyXyXyXyXyXyXyXyXyXyXyXyXyXyXyXyXyXyXyXyXyXyXyXyX",
"yXyXyXyXyXyXyXyXyXyXyXd.<.m 2 , 7 i K E [ { h.B.V.V.k.+.[ T H $ . 1 N ,.yXyXyXyXyXyXyXyXyXyXyXyXyXyXyXyXyXyXyXyXyXyXyXyXyXyXyXyX",
"yXyXyXyXyXyXyXyXyXyXw.y.S w 2 y a f v ^ { h.B.G.I.U.G.S.k.O.Q G + . g %.;.yXyXyXyXyXyXyXyXyXyXyXyXyXyXyXyXyXyXyXyXyXyXyXyXyXyXyX",
"yXyXyXyXyXyXyXyXyXyXd.<.m 2 2 y z v ^ { x.J._.oX+XoX XT.J.k.o.I * X 1 V <.yXyXyXyXyXyXyXyXyXyXyXyXyXyXyXyXyXyXyXyXyXyXyXyXyXyXyX",
"yXyXyXyXyXyXyXyXyXyXu.%.q , y k c ^ 2.S.^.+X<X3X6X5X#X$XoXZ.$.Q D # , n >.yXyXyXyXyXyXyXyXyXyXyXyXyXyXyXyXyXyXyXyXyXyXyXyXyXyXyX",
"yXyXyXyXyXyXyXyXyXw.r.A , . y k c } v./.}.[.=X2X9XeXwXwX>XT.N. .J * ; g %.;.yXyXyXyXyXyXyXyXyXyXyXyXyXyXyXyXyXyXyXyXyXyXyXyXyXyX",
"yXyXyXyXyXyXyXyXyXu.<.m : + 6 j C 2.D.'.].].=X2X9XeXeXrX0X@XC.#.I = . 1 A <.yXyXyXyXyXyXyXyXyXyXyXyXyXyXyXyXyXyXyXyXyXyXyXyXyXyX",
"yXyXyXyXyXyXyXyXyXt.=.e , 6 7 u ) c.R.~.|.;X2X7X9XeXeXrXtX4XY.b...D + : M <.yXyXyXyXyXyXyXyXyXyXyXyXyXyXyXyXyXyXyXyXyXyXyXyXyXyX",
"yXyXyXyXyXyXyXyXyXt.%.q ; 1 9 k ^ z.E.'.;X9X9X2X9XeXeXeXeXqXXXm.| J $ : n >.yXyXyXyXyXyXyXyXyXyXyXyXyXyXyXyXyXyXyXyXyXyXyXyXyXyX",
"yXyXyXyXyXyXyXyX0.r.S 2 . , 9 c { z.W.].2X9X9X7X9XeXeXeXeX0X.XC.#.L $ , h &.yXyXyXyXyXyXyXyXyXyXyXyXyXyXyXyXyXyXyXyXyXyXyXyXyXyX",
"yXyXyXyXyXyXyXyX0.8.A 2 . o 0 z { z.E.].2X2X7X9XeX9X7X7X9X0X@XL.#.I % . q %.;.yXyXyXyXyXyXyXyXyXyXyXyXyXyXyXyXyXyXyXyXyXyXyXyXyX",
"yXyXyXyXyXyXyXyX0.1.N , . o O f ` j.E.[.;X=X;X9XrXeX2X7XeXtX4XP.n.Q a , q %.;.yXyXyXyXyXyXyXyXyXyXyXyXyXyXyXyXyXyXyXyXyXyXyXyXyX",
"yXyXyXyXyXyXyXyX0.<.M ,   . % f ' j.W.[.:X|.=X9XrXrX9X9XeXwX#XU.$.W u < q %.;.yXyXyXyXyXyXyXyXyXyXyXyXyXyXyXyXyXyXyXyXyXyXyXyXyX",
"yXyXyXyXyXyXyXyX0.<.B ; X # % K ' j.Q.{.%X|.;X9XrXrXrXeXeXeX>X).l.W u 2 q / ;.yXyXyXyXyXyXyXyXyXyXyXyXyXyXyXyXyXyXyXyXyXyXyXyXyX",
"yXyXyXyXyXyXyXyX0.<.M ;   + t K ' j.Q.[.%X;X2X9XeXrX9X7XeX8X<XI.l.W u , 4 / ;.yXyXyXyXyXyXyXyXyXyXyXyXyXyXyXyXyXyXyXyXyXyXyXyXyX",
"yXyXyXyXyXyXyXyX0.1.N :   o 7 K ` h.!.[.-X2X7X2X7XeX7X2X8X5X+XH.#.U 7 . 4 %.3.yXyXyXyXyXyXyXyXyXyXyXyXyXyXyXyXyXyXyXyXyXyXyXyXyX",
"yXyXyXyXyXyXyXyX3.5.A 1 . . % d E +.K.[.1X7X7X1X2X9X9X7X8X,X_.V.o.K $   g *.yXyXyXyXyXyXyXyXyXyXyXyXyXyXyXyXyXyXyXyXyXyXyXyXyXyX",
"yXyXyXyXyXyXyXyXyXe.( 2 . . 7 d R X.F.(.3X9X2X;X2XeXeXeX6X*XI.M.! d $   h *.yXyXyXyXyXyXyXyXyXyXyXyXyXyXyXyXyXyXyXyXyXyXyXyXyXyX",
"yXyXyXyXyXyXyXyXyXe.&.g . . $ s Y ' B./.-X9X7X1X1X9XeX9X-X`.P.$.R s $ . B :.yXyXyXyXyXyXyXyXyXyXyXyXyXyXyXyXyXyXyXyXyXyXyXyXyXyX",
"yXyXyXyXyXyXyXyXyXe.,.l ;   o 7 f E l.^.%X6X8X7X2X9XeX7X&X).V.X.K i + , V 5.yXyXyXyXyXyXyXyXyXyXyXyXyXyXyXyXyXyXyXyXyXyXyXyXyXyX",
"yXyXyXyXyXyXyXyXyX3.<.C ,   o < u R @.K.}.&X,X5X,X6X7X2X%XJ.$.W H * + 4 %.0.yXyXyXyXyXyXyXyXyXyXyXyXyXyXyXyXyXyXyXyXyXyXyXyXyXyX",
"yXyXyXyXyXyXyXyXyX4.5.( q . ; < t f [ B.^.`.oXOXOX<X-X{./.S.O.K = @ # h :.yXyXyXyXyXyXyXyXyXyXyXyXyXyXyXyXyXyXyXyXyXyXyXyXyXyXyX",
"yXyXyXyXyXyXyXyXyXyXe.,.l ; ; , O s T h.S.P.P.Y.T._.`.^.K.j.] G & # , N 5.yXyXyXyXyXyXyXyXyXyXyXyXyXyXyXyXyXyXyXyXyXyXyXyXyXyXyX",
"yXyXyXyXyXyXyXyXyXyX3.5.A 2 . o , 7 z [ +.M.A.C.C.Z.F.S.j.X._ G + . g *.w.yXyXyXyXyXyXyXyXyXyXyXyXyXyXyXyXyXyXyXyXyXyXyXyXyXyXyX",
"yXyXyXyXyXyXyXyXyXyXyXe.-.h - - 3 < y v ` o.$.n.n.n.M.k.@.Q P a + 1 N 5.yXyXyXyXyXyXyXyXyXyXyXyXyXyXyXyXyXyXyXyXyXyXyXyXyXyXyXyX",
"yXyXyXyXyXyXyXyXyXyXyX3.1.A 2 - : 3 < u z U !  . .| | ] ~ H 7 1 : h *.u.yXyXyXyXyXyXyXyXyXyXyXyXyXyXyXyXyXyXyXyXyXyXyXyXyXyXyXyX",
"yXyXyXyXyXyXyXyXyXyXyXyXe.<.M 3 - > 3 2 t i L I I F J P j 7 , , q / t.yXyXyXyXyXyXyXyXyXyXyXyXyXyXyXyXyXyXyXyXyXyXyXyXyXyXyXyXyX",
"yXyXyXyXyXyXyXyXyXyXyXyX4.e.=.n 3 > > 2 , $ = = D & & 8 7 6 , q A 5.d.yXyXyXyXyXyXyXyXyXyXyXyXyXyXyXyXyXyXyXyXyXyXyXyXyXyXyXyXyX",
"yXyXyXyXyXyXyXyXyXyXyXyXyX0.8.%.b 3 > 3 . . $ $ + @ @ $ 5 , 9 C <.d.yXyXyXyXyXyXyXyXyXyXyXyXyXyXyXyXyXyXyXyXyXyXyXyXyXyXyXyXyXyX",
"yXyXyXyXyXyXyXyXyXyXyXyXyXyXe.8.&.M r > - . ; . + + # + , q N <.s.yXyXyXyXyXyXyXyXyXyXyXyXyXyXyXyXyXyXyXyXyXyXyXyXyXyXyXyXyXyXyX",
"yXyXyXyXyXyXyXyXyXyXyXyXyXyXyXe.r.>.Z e > - - - ; ; ; 2 h S 9.s.yXyXyXyXyXyXyXyXyXyXyXyXyXyXyXyXyXyXyXyXyXyXyXyXyXyXyXyXyXyXyXyX",
"yXyXyXyXyXyXyXyXyXyXyXyXyXyXyXyX6.r.1.&.Z b r r q e n A >.r.a.yXyXyXyXyXyXyXyXyXyXyXyXyXyXyXyXyXyXyXyXyXyXyXyXyXyXyXyXyXyXyXyXyX",
"yXyXyXyXyXyXyXyXyXyXyXyXyXyXyXyXyX6.t.y.8.>.=.&.%.=.<.r.a.i.yXyXyXyXyXyXyXyXyXyXyXyXyXyXyXyXyXyXyXyXyXyXyXyXyXyXyXyXyXyXyXyXyXyX",
"yXyXyXyXyXyXyXyXyXyXyXyXyXyXyXyXyXyXyX6.t.a.a.s.s.s.a.i.yXyXyXyXyXyXyXyXyXyXyXyXyXyXyXyXyXyXyXyXyXyXyXyXyXyXyXyXyXyXyXyXyXyXyXyX",
"yXyXyXyXyXyXyXyXyXyXyXyXyXyXyXyXyXyXyXyXyXyX7.7.q.yXyXyXyXyXyXyXyXyXyXyXyXyXyXyXyXyXyXyXyXyXyXyXyXyXyXyXyXyXyXyXyXyXyXyXyXyXyXyX",
"yXyXyXyXyXyXyXyXyXyXyXyXyXyXyXyXyXyXyXyXyXyXyXyXyXyXyXyXyXyXyXyXyXyXyXyXyXyXyXyXyXyXyXyXyXyXyXyXyXyXyXyXyXyXyXyXyXyXyXyXyXyXyXyX",
"yXyXyXyXyXyXyXyXyXyXyXyXyXyXyXyXyXyXyXyXyXyXyXyXyXyXyXyXyXyXyXyXyXyXyXyXyXyXyXyXyXyXyXyXyXyXyXyXyXyXyXyXyXyXyXyXyXyXyXyXyXyXyXyX",
"yXyXyXyXyXyXyXyXyXyXyXyXyXyXyXyXyXyXyXyXyXyXyXyXyXyXyXyXyXyXyXyXyXyXyXyXyXyXyXyXyXyXyXyXyXyXyXyXyXyXyXyXyXyXyXyXyXyXyXyXyXyXyXyX",
"yXyXyXyXyXyXyXyXyXyXyXyXyXyXyXyXyXyXyXyXyXyXyXyXyXyXyXyXyXyXyXyXyXyXyXyXyXyXyXyXyXyXyXyXyXyXyXyXyXyXyXyXyXyXyXyXyXyXyXyXyXyXyXyX",
"yXyXyXyXyXyXyXyXyXyXyXyXyXyXyXyXyXyXyXyXyXyXyXyXyXyXyXyXyXyXyXyXyXyXyXyXyXyXyXyXyXyXyXyXyXyXyXyXyXyXyXyXyXyXyXyXyXyXyXyXyXyXyXyX",
"yXyXyXyXyXyXyXyXyXyXyXyXyXyXyXyXyXyXyXyXyXyXyXyXyXyXyXyXyXyXyXyXyXyXyXyXyXyXyXyXyXyXyXyXyXyXyXyXyXyXyXyXyXyXyXyXyXyXyXyXyXyXyXyX",
"yXyXyXyXyXyXyXyXyXyXyXyXyXyXyXyXyXyXyXyXyXyXyXyXyXyXyXyXyXyXyXyXyXyXyXyXyXyXyXyXyXyXyXyXyXyXyXyXyXyXyXyXyXyXyXyXyXyXyXyXyXyXyXyX",
"yXyXyXyXyXyXyXyXyXyXyXyXyXyXyXyXyXyXyXyXyXyXyXyXyXyXyXyXyXyXyXyXyXyXyXyXyXyXyXyXyXyXyXyXyXyXyXyXyXyXyXyXyXyXyXyXyXyXyXyXyXyXyXyX",
"yXyXyXyXyXyXyXyXyXyXyXyXyXyXyXyXyXyXyXyXyXyXyXyXyXyXyXyXyXyXyXyXyXyXyXyXyXyXyXyXyXyXyXyXyXyXyXyXyXyXyXyXyXyXyXyXyXyXyXyXyXyXyXyX",
"yXyXyXyXyXyXyXyXyXyXyXyXyXyXyXyXyXyXyXyXyXyXyXyXyXyXyXyXyXyXyXyXyXyXyXyXyXyXyXyXyXyXyXyXyXyXyXyXyXyXyXyXyXyXyXyXyXyXyXyXyXyXyXyX"
};
