/* XPM */
static const char *exit_15[] = {
/* columns rows colors chars-per-pixel */
"64 64 213 2 ",
"   c #A63B2D",
".  c #AB3D2D",
"X  c #AB3E27",
"o  c #B23D2E",
"O  c #A63733",
"+  c #AC3B32",
"@  c #AA3736",
"#  c #B43C33",
"$  c #B93D3C",
"%  c #B73D37",
"&  c #AD4324",
"*  c #AD412B",
"=  c #B24425",
"-  c #B54925",
";  c #BA4A25",
":  c #B3432B",
">  c #B9452D",
",  c #B6492A",
"<  c #BC4A2B",
"1  c #AF4131",
"2  c #B44232",
"3  c #BC4334",
"4  c #BD4A34",
"5  c #BC4238",
"6  c #C14D2C",
"7  c #C3532C",
"8  c #CB562E",
"9  c #CA592D",
"0  c #C35123",
"q  c #D1592D",
"w  c #C34435",
"e  c #C54B33",
"r  c #C4443B",
"t  c #CB453D",
"y  c #CD4C3A",
"u  c #D34C3D",
"i  c #D3493E",
"p  c #C55631",
"a  c #CC5432",
"s  c #CC5C34",
"d  c #CB5039",
"f  c #D35C32",
"g  c #D4523A",
"h  c #DB533D",
"j  c #D65736",
"k  c #E15A3D",
"l  c #D5602E",
"z  c #DD662F",
"x  c #CD6031",
"c  c #DA6435",
"v  c #DB6A36",
"b  c #DC6C39",
"n  c #D66536",
"m  c #DE7239",
"M  c #E36C39",
"N  c #E26938",
"B  c #E4723C",
"V  c #E8743C",
"C  c #EB7A3E",
"Z  c #E67537",
"A  c #BE3B41",
"S  c #C33F43",
"D  c #CA4543",
"F  c #D64949",
"G  c #D64848",
"H  c #DE5343",
"J  c #DA5249",
"K  c #DA4950",
"L  c #E25445",
"P  c #E3544C",
"I  c #EC5D4D",
"U  c #E6584A",
"Y  c #EA5854",
"T  c #F15C5B",
"R  c #F15A52",
"E  c #E44A52",
"W  c #ED6349",
"Q  c #E96A43",
"!  c #F16D4C",
"~  c #F26649",
"^  c #ED7C41",
"/  c #EE6754",
"(  c #F26B55",
")  c #F46B5C",
"_  c #F76758",
"`  c #F87755",
"'  c #E95862",
"]  c #F55B69",
"[  c #F05D76",
"{  c #FA6A63",
"}  c #F86764",
"|  c #FB7365",
" . c #FB746A",
".. c #F97A68",
"X. c #F76A77",
"o. c #FD7E74",
"O. c #FE7A7C",
"+. c #EB833F",
"@. c #EA8442",
"#. c #EC8A45",
"$. c #EA8846",
"%. c #F18543",
"&. c #F38A45",
"*. c #F58D49",
"=. c #F28648",
"-. c #EF9046",
";. c #ED9E4E",
":. c #EF924B",
">. c #F59246",
",. c #F3944A",
"<. c #F49C4D",
"1. c #F89B4E",
"2. c #FB875B",
"3. c #EA9E50",
"4. c #F89857",
"5. c #EAA54D",
"6. c #E5A54E",
"7. c #F3A24F",
"8. c #F9A24E",
"9. c #EDA252",
"0. c #E6AA53",
"q. c #EDAB55",
"w. c #F3A351",
"e. c #F9A352",
"r. c #F4AC54",
"t. c #F9AC55",
"y. c #F2AF58",
"u. c #EAB057",
"i. c #EDB359",
"p. c #F4B156",
"a. c #F9B156",
"s. c #F4B459",
"d. c #F9B45A",
"f. c #F4B95C",
"g. c #FE866A",
"h. c #FD9667",
"j. c #FE847F",
"k. c #FE8A77",
"l. c #FE947C",
"z. c #FE9077",
"x. c #FFAD6E",
"c. c #FEBC6F",
"v. c #FFA578",
"b. c #FFB375",
"n. c #FEC379",
"m. c #FC7487",
"M. c #FC7EA0",
"N. c #FE8B82",
"B. c #FE898E",
"V. c #FF9E84",
"C. c #FF9586",
"Z. c #FF9A93",
"A. c #FF999C",
"S. c #FC8A97",
"D. c #FEA788",
"F. c #FFB48E",
"G. c #FFA393",
"H. c #FFAC9A",
"J. c #FFA496",
"K. c #FFB39C",
"L. c #FFBB9C",
"P. c #FE96B3",
"I. c #FE8EAC",
"U. c #FFABA2",
"Y. c #FFB6AA",
"T. c #FFA8BA",
"R. c #FFBCB3",
"E. c #FFB3BC",
"W. c #FFC98C",
"Q. c #FFD78F",
"!. c #FFC593",
"~. c #FFCA9E",
"^. c #FEE29D",
"/. c #FFC7A5",
"(. c #FFD2AC",
"). c #FFDBA8",
"_. c #FFC9BC",
"`. c #FFC7B6",
"'. c #FFD6B3",
"]. c #FFD8B8",
"[. c #FFE6AA",
"{. c #FFE8BA",
"}. c #FFFBB5",
"|. c #FFF4BB",
" X c #FFFDBD",
".X c #FFBFD1",
"XX c #FFB7CA",
"oX c #FFC9C6",
"OX c #FFD8C4",
"+X c #FFCDD9",
"@X c #FFDBD3",
"#X c #FFD6DA",
"$X c #FFECC4",
"%X c #FFE6CC",
"&X c #FFFCCC",
"*X c #FFF6C7",
"=X c #FFE3D6",
"-X c #FFEAD1",
";X c #FFE3DD",
":X c #FFEDDB",
">X c #FFF3D2",
",X c #FFFDD4",
"<X c #FFF6DB",
"1X c #FFFDDC",
"2X c #FFF7E4",
"3X c #FFFCE4",
"4X c #FFFDEC",
"5X c #FFFDF4",
"6X c #FFFEFA",
"7X c #FFF3F1",
"8X c #FFEDE8",
"9X c #FF00FF",
"0X c black",
/* pixels */
"9X9X9X9X9X9X9X9X9X9X9X9X9X9X9X9X9X9X9X9X9X9X9X9X9X9X9X9X9X9X9X9X9X9X9X9X9X9X9X9X9X9X9X9X9X9X9X9X9X9X9X9X9X9X9X9X9X9X9X9X9X9X9X9X",
"9X9X9X9X9X9X9X9X9X9X9X9X9X9X9X9X9X9X9X9X9X9X9X9X9X9X9X9X9X9X9X9X9X9X9X9X9X9X9X9X9X9X9X9X9X9X9X9X9X9X9X9X9X9X9X9X9X9X9X9X9X9X9X9X",
"9X9X9X9X9X9X9X9X9X9X9X9X9X9X9X9X9X9X9X9X9X9X9X9X9X9X9X9X9X9X9X9X9X9X9X9X9X9X9X9X9X9X9X9X9X9X9X9X9X9X9X9X9X9X9X9X9X9X9X9X9X9X9X9X",
"9X9X9X9X9X9X9X9X9X9X9X9X9X9X9X9X9X9X9X9X9X9X9X9X9X9X9X9X9X9X9X9X9X9X9X9X9X9X9X9X9X9X9X9X9X9X9X9X9X9X9X9X9X9X9X9X9X9X9X9X9X9X9X9X",
"9X9X9X9X9X9X9X9X9X9X9X9X9X9X9X9X9X9X9X9X9X9X9X9X9X9X9X9X9X9X9X9X9X9X9X9X9X9X9X9X9X9X9X9X9X9X9X9X9X9X9X9X9X9X9X9X9X9X9X9X9X9X9X9X",
"9X9X9X9X9X9X9X9X9X9X9X9X9X9X9X9X9X9X9X9X9X9X9X9X9X9X9X9X9X9X9X9X9X9X9X9X9X9X9X9X9X9X9X9X9X9X9X9X9X9X9X9X9X9X9X9X9X9X9X9X9X9X9X9X",
"9X9X9X9X9X9X9X9X9X9X9X9X9X9X9X9X9X9X9X9X9X9X9X9X9X9X9X9X9X9X9X9X9X9X9X9X9X9X9X9X9X9X9X9X9X9X9X9X9X9X9X9X9X9X9X9X9X9X9X9X9X9X9X9X",
"9X9X9X9X9X9X9X9X9X9X9X9X9X9X9X9X9X9X9X9X9X9X9X9X9X9X9X9X9X9X9X9X9X9X9X9X9X9X9X9X9X9X9X9X9X9X9X9X9X9X9X9X9X9X9X9X9X9X9X9X9X9X9X9X",
"9X9X9X9X9X9X9X9X9X9X9X9X9X9X9X9X9X9X9X9X9X9X9X9X9X9X9X9X9X9X9X9X9X9X9X9X9X9X9X9X9X9X9X9X9X9X9X9X9X9X9X9X9X9X9X9X9X9X9X9X9X9X9X9X",
"9X9X9X9X9X9X9X9X9X9X9X9X9X9X9X9X9X9X9X9X9X9X9X9X9X9X9X9X9X9X9X9X9X9X9X9X9X9X9X9X9X9X9X9X9X9X9X9X9X9X9X9X9X9X9X9X9X9X9X9X9X9X9X9X",
"9X9X9X9X9X9X9X9X9X9X9X9X9X9X9X9X9X9X9X9X9X9X0.0.0.9X9X9X9X9X9X9X9X9X9X9X9X9X9X9X9X9X9X9X9X9X9X9X9X9X9X9X9X9X9X9X9X9X9X9X9X9X9X9X",
"9X9X9X9X9X9X9X9X9X9X9X9X9X9X9X9X9X9X9Xu.f.f.d.d.d.p.y.q.9X9X9X9X9X9X9X9X9X9X9X9X9X9X9X9X9X9X9X9X9X9X9X9X9X9X9X9X9X9X9X9X9X9X9X9X",
"9X9X9X9X9X9X9X9X9X9X9X9X9X9X9X9X9Xu.f.d.t.1.*.=.=.*.1.e.r.q.9X9X9X9X9X9X9X9X9X9X9X9X9X9X9X9X9X9X9X9X9X9X9X9X9X9X9X9X9X9X9X9X9X9X",
"9X9X9X9X9X9X9X9X9X9X9X9X9X9X9X9Xi.d.e.&.V c f a a f c V *.e.w.9X9X9X9X9X9X9X9X9X9X9X9X9X9X9X9X9X9X9X9X9X9X9X9X9X9X9X9X9X9X9X9X9X",
"9X9X9X9X9X9X9X9X9X9X9X9X9X9X9Xs.t.>.M 8 < , * X * : : < f V ,.w.9X9X9X9X9X9X9X9X9X9X9X9X9X9X9X9X9X9X9X9X9X9X9X9X9X9X9X9X9X9X9X9X",
"9X9X9X9X9X9X9X9X9X9X9X9X9X9Xs.t.=.c < * * * . . * * . . : 6 b &.7.9X9X9X9X9X9X9X9X9X9X9X9X9X9X9X9X9X9X9X9X9X9X9X9X9X9X9X9X9X9X9X",
"9X9X9X9X9X9X9X9X9X9X9X9X9Xi.t.&.f :   + 2 3 3 3 3 3 2 : * * > c &.<.9X9X9X9X9X9X9X9X9X9X9X9X9X9X9X9X9X9X9X9X9X9X9X9X9X9X9X9X9X9X",
"9X9X9X9X9X9X9X9X9X9X9X9Xu.d.*.c > . + # 3 u u L L i t w 2 1 . > v >.;.9X9X9X9X9X9X9X9X9X9X9X9X9X9X9X9X9X9X9X9X9X9X9X9X9X9X9X9X9X",
"9X9X9X9X9X9X9X9X9X9X9X9Xf.e.M > . + # # w h I _ _ R P H y 3 1 * < B ,.9X9X9X9X9X9X9X9X9X9X9X9X9X9X9X9X9X9X9X9X9X9X9X9X9X9X9X9X9X",
"9X9X9X9X9X9X9X9X9X9X9Xi.d.=.a o . : 3 w i I ) |  .{ { _ I u 4 1 * p @.;.9X9X9X9X9X9X9X9X9X9X9X9X9X9X9X9X9X9X9X9X9X9X9X9X9X9X9X9X",
"9X9X9X9X9X9X9X9X9X9X9Xf.1.N < : : 3 y L T  .k.C.N.j.j.o.| W g 2 O * b ,.9X9X9X9X9X9X9X9X9X9X9X9X9X9X9X9X9X9X9X9X9X9X9X9X9X9X9X9X",
"9X9X9X9X9X9X9X9X9X9Xq.a.%.q > < e g W { o.C.K./.Y.U.H.Z.N. .U $ @ . p @.<.9X9X9X9X9X9X9X9X9X9X9X9X9X9X9X9X9X9X9X9X9X9X9X9X9X9X9X",
"9X9X9X9X9X9X9X9X9X9Xs.8.N 6 , 6 j ! ..k.V.F.~.{.%X%XOX`.U.N.' S % + , m ,.9X9X9X9X9X9X9X9X9X9X9X9X9X9X9X9X9X9X9X9X9X9X9X9X9X9X9X",
"9X9X9X9X9X9X9X9X9X9Xt.&.q ; ; a Q 2.h.v.v.W.).$X1X3X<X-X].U.X.K $ @ . s -.9X9X9X9X9X9X9X9X9X9X9X9X9X9X9X9X9X9X9X9X9X9X9X9X9X9X9X",
"9X9X9X9X9X9X9X9X9Xq.e.B < , < j ! 2.x.b.!.'.>X2X4X4X4X4X:XoXS.' A @ + 7 @.<.9X9X9X9X9X9X9X9X9X9X9X9X9X9X9X9X9X9X9X9X9X9X9X9X9X9X",
"9X9X9X9X9X9X9X9X9Xr.,.f : : 6 g ~ 2.c.Q.$X<X2X4X5X6X6X6X4X@XI.[ D $ + , m <.9X9X9X9X9X9X9X9X9X9X9X9X9X9X9X9X9X9X9X9X9X9X9X9X9X9X",
"9X9X9X9X9X9X9X9X9Xr.&.a * : e g W 2.n.[.1X3X,X,X4X6X6X6X5X#XT.m.Y D + * n ,.9X9X9X9X9X9X9X9X9X9X9X9X9X9X9X9X9X9X9X9X9X9X9X9X9X9X",
"9X9X9X9X9X9X9X9X9Xt.%.8 * > e h ! h.W.|.,X,X,X,X1X4X6X6X5X;XXXM.' D + . s #.9X9X9X9X9X9X9X9X9X9X9X9X9X9X9X9X9X9X9X9X9X9X9X9X9X9X",
"9X9X9X9X9X9X9X9X9Xt.C 7 - < e h ` x.^.*X,X1X4X1X1X4X5X6X6X8X.XI.[ G % . 9 #.9X9X9X9X9X9X9X9X9X9X9X9X9X9X9X9X9X9X9X9X9X9X9X9X9X9X",
"9X9X9X9X9X9X9X9X9.e.B ; : > e k ` b.[.*X,X3X5X4X4X6X5X5X5X7X+XP.X.K 5 : 9 @.;.9X9X9X9X9X9X9X9X9X9X9X9X9X9X9X9X9X9X9X9X9X9X9X9X9X",
"9X9X9X9X9X9X9X9X9.1.v = X o 3 h ` v./.].|.&X,X4X6X6X5X4X5X7X+XP.X.P w , 9 +.;.9X9X9X9X9X9X9X9X9X9X9X9X9X9X9X9X9X9X9X9X9X9X9X9X9X",
"9X9X9X9X9X9X9X9X9.1.c = . o # i ( l.K.(.|. X X1X6X6X5X4X5X5X;XT.O.R y ; 9 +.;.9X9X9X9X9X9X9X9X9X9X9X9X9X9X9X9X9X9X9X9X9X9X9X9X9X",
"9X9X9X9X9X9X9X9X9.,.c = . . # t ( l.K.'.|.}.}.,X6X6X5X4X5X4X:XR.l.( g ; 7 +.;.9X9X9X9X9X9X9X9X9X9X9X9X9X9X9X9X9X9X9X9X9X9X9X9X9X",
"9X9X9X9X9X9X9X9X9.1.c : . + # i ( l.H.(.|.|.}.1X6X6X3X3X4X4X;XR.l.( y , 7 @.;.9X9X9X9X9X9X9X9X9X9X9X9X9X9X9X9X9X9X9X9X9X9X9X9X9X",
"9X9X9X9X9X9X9X9X9.1.v : . + 3 u / z.G.`.$X&X&X3X5X5X3X,X<X:XoXA. .P 3 X 7 @.3.9X9X9X9X9X9X9X9X9X9X9X9X9X9X9X9X9X9X9X9X9X9X9X9X9X",
"9X9X9X9X9X9X9X9X3.1.B ; X . # t U o.C.Y.%X1X4X4X4X5X5X3X<X=XE.B.} G # X p $.9X9X9X9X9X9X9X9X9X9X9X9X9X9X9X9X9X9X9X9X9X9X9X9X9X9X",
"9X9X9X9X9X9X9X9X9X1.C 6 * . # % J ..C.Y.%X4X5X4X3X4X5X4X2X@XY.j.T t # : s :.9X9X9X9X9X9X9X9X9X9X9X9X9X9X9X9X9X9X9X9X9X9X9X9X9X9X",
"9X9X9X9X9X9X9X9X9X7.%.8 X   + # D ..l.U.@X4X5X4X3X4X5X5X2XOXG.o.Y r o > n ,.9X9X9X9X9X9X9X9X9X9X9X9X9X9X9X9X9X9X9X9X9X9X9X9X9X9X",
"9X9X9X9X9X9X9X9X9X7.>.c :   . # t / o.G.OX4X3X3X3X3X4X4X>X(.V. .J 5 + > B ;.9X9X9X9X9X9X9X9X9X9X9X9X9X9X9X9X9X9X9X9X9X9X9X9X9X9X",
"9X9X9X9X9X9X9X9X9X;.1.M :   . o w P | V._.:X3X1X1X2X2X,X{.!.z._ D # . 4 @.w.9X9X9X9X9X9X9X9X9X9X9X9X9X9X9X9X9X9X9X9X9X9X9X9X9X9X",
"9X9X9X9X9X9X9X9X9X9X1.^ 6 . . . > u ) z.L.].=X:X-X-X>X{./.D...I r + . s :.9X9X9X9X9X9X9X9X9X9X9X9X9X9X9X9X9X9X9X9X9X9X9X9X9X9X9X",
"9X9X9X9X9X9X9X9X9X9Xw.*.f X X : : w I g.D.K.`._._.`.]./.D.z.) H 3 + 2 b ;.9X9X9X9X9X9X9X9X9X9X9X9X9X9X9X9X9X9X9X9X9X9X9X9X9X9X9X",
"9X9X9X9X9X9X9X9X9X9X;.1.V < & : : > h ` g.N.Z.J.A.Z.G.D.k.) J e 2 + p $.r.9X9X9X9X9X9X9X9X9X9X9X9X9X9X9X9X9X9X9X9X9X9X9X9X9X9X9X",
"9X9X9X9X9X9X9X9X9X9X9Xe.&.f , & X : a W `  .O.O.m.O.o...) U r 2 : > b <.9X9X9X9X9X9X9X9X9X9X9X9X9X9X9X9X9X9X9X9X9X9X9X9X9X9X9X9X",
"9X9X9X9X9X9X9X9X9X9X9X;.1.C 7 & X , 6 j L R } } ] ] T R I h 5 + > f #.r.9X9X9X9X9X9X9X9X9X9X9X9X9X9X9X9X9X9X9X9X9X9X9X9X9X9X9X9X",
"9X9X9X9X9X9X9X9X9X9X9X9Xe.>.c ; & = ; 6 w t P Y E K K G H y 2   < C 7.9X9X9X9X9X9X9X9X9X9X9X9X9X9X9X9X9X9X9X9X9X9X9X9X9X9X9X9X9X",
"9X9X9X9X9X9X9X9X9X9X9X9X;.e.&.l - & = , : # r D S A $ $ 4 > * , v <.p.9X9X9X9X9X9X9X9X9X9X9X9X9X9X9X9X9X9X9X9X9X9X9X9X9X9X9X9X9X",
"9X9X9X9X9X9X9X9X9X9X9X9X9X9.8.%.l ; = = = . 2 2 # @ + + * = < v ,.r.9X9X9X9X9X9X9X9X9X9X9X9X9X9X9X9X9X9X9X9X9X9X9X9X9X9X9X9X9X9X",
"9X9X9X9X9X9X9X9X9X9X9X9X9X9X9.8.%.z 0 - & & * *   O     : 7 b ,.r.9X9X9X9X9X9X9X9X9X9X9X9X9X9X9X9X9X9X9X9X9X9X9X9X9X9X9X9X9X9X9X",
"9X9X9X9X9X9X9X9X9X9X9X9X9X9X9Xw.8.>.Z q ; = & & * X * ; f C 1.p.9X9X9X9X9X9X9X9X9X9X9X9X9X9X9X9X9X9X9X9X9X9X9X9X9X9X9X9X9X9X9X9X",
"9X9X9X9X9X9X9X9X9X9X9X9X9X9X9X9X5.t.8.&.Z l 9 9 7 8 n V ,.r.s.9X9X9X9X9X9X9X9X9X9X9X9X9X9X9X9X9X9X9X9X9X9X9X9X9X9X9X9X9X9X9X9X9X",
"9X9X9X9X9X9X9X9X9X9X9X9X9X9X9X9X9X5.r.t.8.>.&.&.%.&.1.t.p.i.9X9X9X9X9X9X9X9X9X9X9X9X9X9X9X9X9X9X9X9X9X9X9X9X9X9X9X9X9X9X9X9X9X9X",
"9X9X9X9X9X9X9X9X9X9X9X9X9X9X9X9X9X9X9X5.r.r.a.a.a.a.p.u.9X9X9X9X9X9X9X9X9X9X9X9X9X9X9X9X9X9X9X9X9X9X9X9X9X9X9X9X9X9X9X9X9X9X9X9X",
"9X9X9X9X9X9X9X9X9X9X9X9X9X9X9X9X9X9X9X9X9X9X6.0.0.9X9X9X9X9X9X9X9X9X9X9X9X9X9X9X9X9X9X9X9X9X9X9X9X9X9X9X9X9X9X9X9X9X9X9X9X9X9X9X",
"9X9X9X9X9X9X9X9X9X9X9X9X9X9X9X9X9X9X9X9X9X9X9X9X9X9X9X9X9X9X9X9X9X9X9X9X9X9X9X9X9X9X9X9X9X9X9X9X9X9X9X9X9X9X9X9X9X9X9X9X9X9X9X9X",
"9X9X9X9X9X9X9X9X9X9X9X9X9X9X9X9X9X9X9X9X9X9X9X9X9X9X9X9X9X9X9X9X9X9X9X9X9X9X9X9X9X9X9X9X9X9X9X9X9X9X9X9X9X9X9X9X9X9X9X9X9X9X9X9X",
"9X9X9X9X9X9X9X9X9X9X9X9X9X9X9X9X9X9X9X9X9X9X9X9X9X9X9X9X9X9X9X9X9X9X9X9X9X9X9X9X9X9X9X9X9X9X9X9X9X9X9X9X9X9X9X9X9X9X9X9X9X9X9X9X",
"9X9X9X9X9X9X9X9X9X9X9X9X9X9X9X9X9X9X9X9X9X9X9X9X9X9X9X9X9X9X9X9X9X9X9X9X9X9X9X9X9X9X9X9X9X9X9X9X9X9X9X9X9X9X9X9X9X9X9X9X9X9X9X9X",
"9X9X9X9X9X9X9X9X9X9X9X9X9X9X9X9X9X9X9X9X9X9X9X9X9X9X9X9X9X9X9X9X9X9X9X9X9X9X9X9X9X9X9X9X9X9X9X9X9X9X9X9X9X9X9X9X9X9X9X9X9X9X9X9X",
"9X9X9X9X9X9X9X9X9X9X9X9X9X9X9X9X9X9X9X9X9X9X9X9X9X9X9X9X9X9X9X9X9X9X9X9X9X9X9X9X9X9X9X9X9X9X9X9X9X9X9X9X9X9X9X9X9X9X9X9X9X9X9X9X",
"9X9X9X9X9X9X9X9X9X9X9X9X9X9X9X9X9X9X9X9X9X9X9X9X9X9X9X9X9X9X9X9X9X9X9X9X9X9X9X9X9X9X9X9X9X9X9X9X9X9X9X9X9X9X9X9X9X9X9X9X9X9X9X9X",
"9X9X9X9X9X9X9X9X9X9X9X9X9X9X9X9X9X9X9X9X9X9X9X9X9X9X9X9X9X9X9X9X9X9X9X9X9X9X9X9X9X9X9X9X9X9X9X9X9X9X9X9X9X9X9X9X9X9X9X9X9X9X9X9X",
"9X9X9X9X9X9X9X9X9X9X9X9X9X9X9X9X9X9X9X9X9X9X9X9X9X9X9X9X9X9X9X9X9X9X9X9X9X9X9X9X9X9X9X9X9X9X9X9X9X9X9X9X9X9X9X9X9X9X9X9X9X9X9X9X",
"9X9X9X9X9X9X9X9X9X9X9X9X9X9X9X9X9X9X9X9X9X9X9X9X9X9X9X9X9X9X9X9X9X9X9X9X9X9X9X9X9X9X9X9X9X9X9X9X9X9X9X9X9X9X9X9X9X9X9X9X9X9X9X9X"
};
