/* XPM */
static const char *exit_20[] = {
/* columns rows colors chars-per-pixel */
"64 64 212 2 ",
"   c #AC3D2C",
".  c #B23E2E",
"X  c #AB3634",
"o  c #AC3B32",
"O  c #A93737",
"+  c #B43B33",
"@  c #BB3E34",
"#  c #B43B39",
"$  c #B7393D",
"%  c #AD4325",
"&  c #AD412B",
"*  c #B24624",
"=  c #B34924",
"-  c #BA4C26",
";  c #B3442B",
":  c #BA452D",
">  c #B6492B",
",  c #BB4B2C",
"<  c #BF512A",
"1  c #B44231",
"2  c #BB4334",
"3  c #BC4239",
"4  c #BE4934",
"5  c #BE5030",
"6  c #C24D2D",
"7  c #C3532C",
"8  c #C9552E",
"9  c #CC5A2D",
"0  c #C34433",
"q  c #C34935",
"w  c #C3423A",
"e  c #CA453E",
"r  c #CC4A3B",
"t  c #C94437",
"y  c #D34B3C",
"u  c #D44A3F",
"i  c #C35432",
"p  c #CC5C33",
"a  c #CF5434",
"s  c #D35E33",
"d  c #D4523A",
"f  c #D95638",
"g  c #E3553F",
"h  c #D4622F",
"j  c #D46334",
"k  c #DA6536",
"l  c #DB6936",
"z  c #DB6C3B",
"x  c #D66A38",
"c  c #DF723B",
"v  c #E16C3A",
"b  c #E3733C",
"n  c #E9763C",
"m  c #EA7C3E",
"M  c #E37537",
"N  c #BA3A41",
"B  c #C73E46",
"V  c #D13F4E",
"C  c #D34644",
"Z  c #D34C42",
"A  c #DC4B4B",
"S  c #D94948",
"D  c #DB5343",
"F  c #CF4250",
"G  c #DE4F50",
"H  c #DF5058",
"J  c #CB4444",
"K  c #E84F4F",
"L  c #E45343",
"P  c #E5544B",
"I  c #EC594C",
"U  c #F15C4C",
"Y  c #E14E57",
"T  c #EC5958",
"R  c #F15A53",
"E  c #F4585E",
"W  c #EB6643",
"Q  c #F36B45",
"!  c #EC7E41",
"~  c #F3744B",
"^  c #ED6252",
"/  c #E76251",
"(  c #F26354",
")  c #F96A53",
"_  c #F5635D",
"`  c #F46C5C",
"'  c #F76B59",
"]  c #FA7658",
"[  c #EA586C",
"{  c #F25665",
"}  c #F35D74",
"|  c #FB6462",
" . c #F96C67",
".. c #FB7464",
"X. c #FD7B64",
"o. c #FC7A6F",
"O. c #FC6A7A",
"+. c #FC7777",
"@. c #F0843F",
"#. c #EA843F",
"$. c #E78142",
"%. c #EB8443",
"&. c #ED8C46",
"*. c #F18644",
"=. c #F28B45",
"-. c #F38E49",
";. c #EF9349",
":. c #ED9C4D",
">. c #E79F4F",
",. c #F4934A",
"<. c #F59B4D",
"1. c #F6984A",
"2. c #FD8954",
"3. c #EC9E51",
"4. c #F49E50",
"5. c #FB9A59",
"6. c #EBA34D",
"7. c #E4A54E",
"8. c #F3A24E",
"9. c #F9A24D",
"0. c #F6AD4F",
"q. c #EBA252",
"w. c #E6A954",
"e. c #EDAA55",
"r. c #E7A756",
"t. c #F4A352",
"y. c #F9A352",
"u. c #F4AC54",
"i. c #FAAE54",
"p. c #ECB157",
"a. c #EFB65B",
"s. c #F5B156",
"d. c #F4B459",
"f. c #F9B359",
"g. c #F3B95B",
"h. c #F8B155",
"j. c #FE826D",
"k. c #FE9566",
"l. c #FE8573",
"z. c #FD847C",
"x. c #FD8A7B",
"c. c #FE937A",
"v. c #FE9D7A",
"b. c #FEA879",
"n. c #FEB272",
"m. c #FB7280",
"M. c #FB7998",
"N. c #F36681",
"B. c #FD8383",
"V. c #FE8D82",
"C. c #FF9283",
"Z. c #FF9B8C",
"A. c #FE9D86",
"S. c #FD8C94",
"D. c #FE9A9E",
"F. c #FFA98C",
"G. c #FFBA81",
"H. c #FEAB93",
"J. c #FFA29E",
"K. c #FEAC9C",
"L. c #FFB29C",
"P. c #FFB797",
"I. c #FE8EA3",
"U. c #FE9BA5",
"Y. c #FEA0A8",
"T. c #FEB7A9",
"R. c #FFADB4",
"E. c #FFB8B9",
"W. c #FED08A",
"Q. c #FFC69A",
"!. c #FED296",
"~. c #FFC4A1",
"^. c #FFC4A7",
"/. c #FFD4A8",
"(. c #FFCCB2",
"). c #FFC6BA",
"_. c #FFD9B4",
"`. c #FFDFBD",
"'. c #FFD3B6",
"]. c #FFE1AC",
"[. c #FFECB3",
"{. c #FFE3BA",
"}. c #FFEAB8",
"|. c #FFFBBF",
" X c #FFF1B9",
".X c #FFBECB",
"XX c #FFD5C4",
"oX c #FFD3CA",
"OX c #FFDCC6",
"+X c #FFD9D8",
"@X c #FFEAC7",
"#X c #FFFBC3",
"$X c #FFFCCC",
"%X c #FFF7C3",
"&X c #FFE5D3",
"*X c #FFEBD3",
"=X c #FFEADB",
"-X c #FFE1DB",
";X c #FFF4D3",
":X c #FFFCD4",
">X c #FFFCDD",
",X c #FFF3DA",
"<X c #FFE8E6",
"1X c #FFF6E2",
"2X c #FFFEE4",
"3X c #FFFEEC",
"4X c #FFF3EA",
"5X c #FFF4F4",
"6X c #FFFDF4",
"7X c #FFFDFA",
"8X c #FF00FF",
"9X c black",
/* pixels */
"8X8X8X8X8X8X8X8X8X8X8X8X8X8X8X8X8X8X8X8X8X8X8X8X8X8X8X8X8X8X8X8X8X8X8X8X8X8X8X8X8X8X8X8X8X8X8X8X8X8X8X8X8X8X8X8X8X8X8X8X8X8X8X8X",
"8X8X8X8X8X8X8X8X8X8X8X8X8X8X8X8X8X8X8X8X8X8X8X8X8X8X8X8X8X8X8X8X8X8X8X8X8X8X8X8X8X8X8X8X8X8X8X8X8X8X8X8X8X8X8X8X8X8X8X8X8X8X8X8X",
"8X8X8X8X8X8X8X8X8X8X8X8X8X8X8X8X8X8X8X8X8X8X8X8X8X8X8X8X8X8X8X8X8X8X8X8X8X8X8X8X8X8X8X8X8X8X8X8X8X8X8X8X8X8X8X8X8X8X8X8X8X8X8X8X",
"8X8X8X8X8X8X8X8X8X8X8X8X8X8X8X8X8X8X8X8X8X8X8X8X8X8X8X8X8X8X8X8X8X8X8X8X8X8X8X8X8X8X8X8X8X8X8X8X8X8X8X8X8X8X8X8X8X8X8X8X8X8X8X8X",
"8X8X8X8X8X8X8X8X8X8X8X8X8X8X8X8X8X8X8X8X8X8X8X8X8X8X8X8X8X8X8X8X8X8X8X8X8X8X8X8X8X8X8X8X8X8X8X8X8X8X8X8X8X8X8X8X8X8X8X8X8X8X8X8X",
"8X8X8X8X8X8X8X8X8X8X8X8X8X8X8X8X8X8X8X8X8X8X8X8X8X8X8X8X8X8X8X8X8X8X8X8X8X8X8X8X8X8X8X8X8X8X8X8X8X8X8X8X8X8X8X8X8X8X8X8X8X8X8X8X",
"8X8X8X8X8X8X8X8X8X8X8X8X8X8X8X8X8X8X8X8X8X8X8X8X8X8X8X8X8X8X8X8X8X8X8X8X8X8X8X8X8X8X8X8X8X8X8X8X8X8X8X8X8X8X8X8X8X8X8X8X8X8X8X8X",
"8X8X8X8X8X8X8X8X8X8X8X8X8X8X8X8X8X8X8X8X8X8X8X8X8X8X8X8X8X8X8X8X8X8X8X8X8X8X8X8X8X8X8X8X8X8X8X8X8X8X8X8X8X8X8X8X8X8X8X8X8X8X8X8X",
"8X8X8X8X8X8X8X8X8X8X8X8X8X8X8X8X8X8X8X8X8X8X8X8X8X8X8X8X8X8X8X8X8X8X8X8X8X8X8X8X8X8X8X8X8X8X8X8X8X8X8X8X8X8X8X8X8X8X8X8X8X8X8X8X",
"8X8X8X8X8X8X8X8X8X8X8X8X8X8X8X8X8X8X8X8X8X8X8X8X8X8X8X8X8X8X8X8X8X8X8X8X8X8X8X8X8X8X8X8X8X8X8X8X8X8X8X8X8X8X8X8X8X8X8X8X8X8X8X8X",
"8X8X8X8X8X8X8X8X8X8X8X8X8X8X8X8X8X8X8X8X8X8Xw.r.w.8X8X8X8X8X8X8X8X8X8X8X8X8X8X8X8X8X8X8X8X8X8X8X8X8X8X8X8X8X8X8X8X8X8X8X8X8X8X8X",
"8X8X8X8X8X8X8X8X8X8X8X8X8X8X8X8X8X8X8Xp.g.g.f.f.f.s.u.e.8X8X8X8X8X8X8X8X8X8X8X8X8X8X8X8X8X8X8X8X8X8X8X8X8X8X8X8X8X8X8X8X8X8X8X8X",
"8X8X8X8X8X8X8X8X8X8X8X8X8X8X8X8X8Xp.g.f.i.1.=.*.*.-.<.y.u.e.8X8X8X8X8X8X8X8X8X8X8X8X8X8X8X8X8X8X8X8X8X8X8X8X8X8X8X8X8X8X8X8X8X8X",
"8X8X8X8X8X8X8X8X8X8X8X8X8X8X8X8Xa.f.y.=.n j 8 7 8 p k n -.9.t.8X8X8X8X8X8X8X8X8X8X8X8X8X8X8X8X8X8X8X8X8X8X8X8X8X8X8X8X8X8X8X8X8X",
"8X8X8X8X8X8X8X8X8X8X8X8X8X8X8Xg.f.,.v 9 6 ;   & % % > , s n ,.t.8X8X8X8X8X8X8X8X8X8X8X8X8X8X8X8X8X8X8X8X8X8X8X8X8X8X8X8X8X8X8X8X",
"8X8X8X8X8X8X8X8X8X8X8X8X8X8Xg.f.=.k : & ; ; o o ; & & & ; 7 l =.t.8X8X8X8X8X8X8X8X8X8X8X8X8X8X8X8X8X8X8X8X8X8X8X8X8X8X8X8X8X8X8X",
"8X8X8X8X8X8X8X8X8X8X8X8X8Xa.f.-.s :     : 2 2 3 3 2 1 . & & : k =.<.8X8X8X8X8X8X8X8X8X8X8X8X8X8X8X8X8X8X8X8X8X8X8X8X8X8X8X8X8X8X",
"8X8X8X8X8X8X8X8X8X8X8X8Xp.g.,.k : &   . : 0 r u C e w 3 1 ; & , z ,.:.8X8X8X8X8X8X8X8X8X8X8X8X8X8X8X8X8X8X8X8X8X8X8X8X8X8X8X8X8X",
"8X8X8X8X8X8X8X8X8X8X8X8Xg.4.v , & ; : 2 t u P I I K A C e q ; & , b ,.8X8X8X8X8X8X8X8X8X8X8X8X8X8X8X8X8X8X8X8X8X8X8X8X8X8X8X8X8X",
"8X8X8X8X8X8X8X8X8X8X8Xp.i.! 8 & & : q u P R _ ..| | E T P Z 2 & & i %.:.8X8X8X8X8X8X8X8X8X8X8X8X8X8X8X8X8X8X8X8X8X8X8X8X8X8X8X8X",
"8X8X8X8X8X8X8X8X8X8X8Xg.<.k , ; : q D R  .o.x.A.V.B.+.o. .T e 1   ; z ,.8X8X8X8X8X8X8X8X8X8X8X8X8X8X8X8X8X8X8X8X8X8X8X8X8X8X8X8X",
"8X8X8X8X8X8X8X8X8X8Xe.i.! 8 > , a L ( ' j.v.F.~.T.T.K.Z.z. .Y w o   i $.:.8X8X8X8X8X8X8X8X8X8X8X8X8X8X8X8X8X8X8X8X8X8X8X8X8X8X8X",
"8X8X8X8X8X8X8X8X8X8Xg.4.k - , a W ) ] X.k.b.Q.'.OXOXXX(.K.B.{ C # o : z ,.8X8X8X8X8X8X8X8X8X8X8X8X8X8X8X8X8X8X8X8X8X8X8X8X8X8X8X",
"8X8X8X8X8X8X8X8X8X8Xf.=.9 > , f Q ] 2.k.b.~.OX&X=X<X=X&X'.J.+.H $ X   p &.8X8X8X8X8X8X8X8X8X8X8X8X8X8X8X8X8X8X8X8X8X8X8X8X8X8X8X",
"8X8X8X8X8X8X8X8X8Xe.y.n 7 > : d ~ 2.5.G._.*X1X3X5X5X5X4X&XE.S.[ N X o 5 ! :.8X8X8X8X8X8X8X8X8X8X8X8X8X8X8X8X8X8X8X8X8X8X8X8X8X8X",
"8X8X8X8X8X8X8X8X8Xu.,.k - > 2 r W 2.n./.;X>X:X2X6X7X7X7X4XoXY.N.F # o > c ;.8X8X8X8X8X8X8X8X8X8X8X8X8X8X8X8X8X8X8X8X8X8X8X8X8X8X",
"8X8X8X8X8X8X8X8X8Xu.=.9 * : q d Q 5.W. X$X$X$X>X3X3X6X7X5X+XR.M.Y w o & j ;.8X8X8X8X8X8X8X8X8X8X8X8X8X8X8X8X8X8X8X8X8X8X8X8X8X8X",
"8X8X8X8X8X8X8X8X8Xu.%.7 ; 1 q f ~ k.!. X#X:X2X>X2X2X3X6X7X<XE.M.[ B # & p &.8X8X8X8X8X8X8X8X8X8X8X8X8X8X8X8X8X8X8X8X8X8X8X8X8X8X",
"8X8X8X8X8X8X8X8Xq.u.m 7 ; ; 2 d ~ b.Q.[.$X2X3X2X2X3X3X3X7X<X.XI.} C 2 ; 9 &.8X8X8X8X8X8X8X8X8X8X8X8X8X8X8X8X8X8X8X8X8X8X8X8X8X8X",
"8X8X8X8X8X8X8X8Xq.t.M - ; : 2 y ~ v.~.[.#X2X2X3X6X6X3X2X5X5X+XU.O.A 3 ; 7 %.:.8X8X8X8X8X8X8X8X8X8X8X8X8X8X8X8X8X8X8X8X8X8X8X8X8X",
"8X8X8X8X8X8X8X8Xq.<.l *   . 2 y ' c.L.].%X$X:X3X7X6X2X2X6X5X-XR.m.G w . 7 $.:.8X8X8X8X8X8X8X8X8X8X8X8X8X8X8X8X8X8X8X8X8X8X8X8X8X",
"8X8X8X8X8X8X8X8Xq.1.k ;     + u ' V.L.].%X|.#X2X7X7X3X3X6X7X=XE.B.^ y : 7 #.:.8X8X8X8X8X8X8X8X8X8X8X8X8X8X8X8X8X8X8X8X8X8X8X8X8X",
"8X8X8X8X8X8X8X8Xq.1.k ;   X + u ` V.L.{.%X|.$X3X7X7X6X6X6X6X=XE.B.( d : 7 $.:.8X8X8X8X8X8X8X8X8X8X8X8X8X8X8X8X8X8X8X8X8X8X8X8X8X",
"8X8X8X8X8X8X8X8Xq.<.l ;   o @ y ` x.L.{.$X$X>X3X6X7X3X3X6X3X&XR.z.^ r : 7 $.3.8X8X8X8X8X8X8X8X8X8X8X8X8X8X8X8X8X8X8X8X8X8X8X8X8X",
"8X8X8X8X8X8X8X8Xq.<.v >   + + r ` l.H.{.:X>X>X>X3X6X2X2X2X,XXXU.+.P 0   7 $.3.8X8X8X8X8X8X8X8X8X8X8X8X8X8X8X8X8X8X8X8X8X8X8X8X8X",
"8X8X8X8X8X8X8X8X>.<.n ,   o + r ' o.Z._.:X2X2X$X>X6X3X2X>X*X).S.| S @   i &.8X8X8X8X8X8X8X8X8X8X8X8X8X8X8X8X8X8X8X8X8X8X8X8X8X8X",
"8X8X8X8X8X8X8X8X8X9.m 7     + t ^ X.Z.(.;X3X2X$X:X6X6X2X:X&XR.B._ C +   p ;.8X8X8X8X8X8X8X8X8X8X8X8X8X8X8X8X8X8X8X8X8X8X8X8X8X8X",
"8X8X8X8X8X8X8X8X8X9.*.8     . 0 I ..V.^.;X3X3X>X>X6X6X2X,XoXJ.o.R e o ; x <.8X8X8X8X8X8X8X8X8X8X8X8X8X8X8X8X8X8X8X8X8X8X8X8X8X8X",
"8X8X8X8X8X8X8X8X8X8.,.s       2 D ' l.T.*X>X>X1X1X3X6X3X=X).C. .P w o : c 4.8X8X8X8X8X8X8X8X8X8X8X8X8X8X8X8X8X8X8X8X8X8X8X8X8X8X",
"8X8X8X8X8X8X8X8X8X6.<.v :     . y U ..F.`.;X*X&X=X1X2X>X@XP.l.T J #   i $.t.8X8X8X8X8X8X8X8X8X8X8X8X8X8X8X8X8X8X8X8X8X8X8X8X8X8X",
"8X8X8X8X8X8X8X8X8X8X4.! 6     . 0 L ' c.~.'.oXoXoX&X;X@X/.F...A $ O   p ;.8X8X8X8X8X8X8X8X8X8X8X8X8X8X8X8X8X8X8X8X8X8X8X8X8X8X8X",
"8X8X8X8X8X8X8X8X8X8Xt.-.s &   . : y U X.A.J.R.E.E.).`./.F.c.` S # o : z 4.8X8X8X8X8X8X8X8X8X8X8X8X8X8X8X8X8X8X8X8X8X8X8X8X8X8X8X",
"8X8X8X8X8X8X8X8X8X8X3.4.b , % ; ; 0 g ) j.+.S.U.I.D.L.H.x.X./ e 1   i %.u.8X8X8X8X8X8X8X8X8X8X8X8X8X8X8X8X8X8X8X8X8X8X8X8X8X8X8X",
"8X8X8X8X8X8X8X8X8X8X8Xt.=.s * % ; : a I ) | O.m.O.O.z.l.` I D 2 ; : z <.8X8X8X8X8X8X8X8X8X8X8X8X8X8X8X8X8X8X8X8X8X8X8X8X8X8X8X8X",
"8X8X8X8X8X8X8X8X8X8X8X3.4.m 7 % % > 6 d L K E { { { _ ( D r 4 1 ; s &.u.8X8X8X8X8X8X8X8X8X8X8X8X8X8X8X8X8X8X8X8X8X8X8X8X8X8X8X8X",
"8X8X8X8X8X8X8X8X8X8X8X8Xt.,.k - % = , 6 t J S S F V S Z t 2 1 & , m u.8X8X8X8X8X8X8X8X8X8X8X8X8X8X8X8X8X8X8X8X8X8X8X8X8X8X8X8X8X",
"8X8X8X8X8X8X8X8X8X8X8X8X>.t.*.h = * - > . @ w B N $ N 3 2 1 ; > x <.s.8X8X8X8X8X8X8X8X8X8X8X8X8X8X8X8X8X8X8X8X8X8X8X8X8X8X8X8X8X",
"8X8X8X8X8X8X8X8X8X8X8X8X8X:.9.@.h - * % &   + # # O O o 1 > < l ;.u.8X8X8X8X8X8X8X8X8X8X8X8X8X8X8X8X8X8X8X8X8X8X8X8X8X8X8X8X8X8X",
"8X8X8X8X8X8X8X8X8X8X8X8X8X8X8.9.*.h - * % & &   o o O   ; 7 c ,.u.8X8X8X8X8X8X8X8X8X8X8X8X8X8X8X8X8X8X8X8X8X8X8X8X8X8X8X8X8X8X8X",
"8X8X8X8X8X8X8X8X8X8X8X8X8X8X8X8.9.=.M 9 - % % % &   & > p m <.s.8X8X8X8X8X8X8X8X8X8X8X8X8X8X8X8X8X8X8X8X8X8X8X8X8X8X8X8X8X8X8X8X",
"8X8X8X8X8X8X8X8X8X8X8X8X8X8X8X8X6.0.9.*.M h 9 7 7 8 j b -.u.g.8X8X8X8X8X8X8X8X8X8X8X8X8X8X8X8X8X8X8X8X8X8X8X8X8X8X8X8X8X8X8X8X8X",
"8X8X8X8X8X8X8X8X8X8X8X8X8X8X8X8X8X6.0.i.9.1.=.%.%.=.<.y.s.p.8X8X8X8X8X8X8X8X8X8X8X8X8X8X8X8X8X8X8X8X8X8X8X8X8X8X8X8X8X8X8X8X8X8X",
"8X8X8X8X8X8X8X8X8X8X8X8X8X8X8X8X8X8X8X6.u.u.h.h.h.h.s.p.8X8X8X8X8X8X8X8X8X8X8X8X8X8X8X8X8X8X8X8X8X8X8X8X8X8X8X8X8X8X8X8X8X8X8X8X",
"8X8X8X8X8X8X8X8X8X8X8X8X8X8X8X8X8X8X8X8X8X8X7.w.w.8X8X8X8X8X8X8X8X8X8X8X8X8X8X8X8X8X8X8X8X8X8X8X8X8X8X8X8X8X8X8X8X8X8X8X8X8X8X8X",
"8X8X8X8X8X8X8X8X8X8X8X8X8X8X8X8X8X8X8X8X8X8X8X8X8X8X8X8X8X8X8X8X8X8X8X8X8X8X8X8X8X8X8X8X8X8X8X8X8X8X8X8X8X8X8X8X8X8X8X8X8X8X8X8X",
"8X8X8X8X8X8X8X8X8X8X8X8X8X8X8X8X8X8X8X8X8X8X8X8X8X8X8X8X8X8X8X8X8X8X8X8X8X8X8X8X8X8X8X8X8X8X8X8X8X8X8X8X8X8X8X8X8X8X8X8X8X8X8X8X",
"8X8X8X8X8X8X8X8X8X8X8X8X8X8X8X8X8X8X8X8X8X8X8X8X8X8X8X8X8X8X8X8X8X8X8X8X8X8X8X8X8X8X8X8X8X8X8X8X8X8X8X8X8X8X8X8X8X8X8X8X8X8X8X8X",
"8X8X8X8X8X8X8X8X8X8X8X8X8X8X8X8X8X8X8X8X8X8X8X8X8X8X8X8X8X8X8X8X8X8X8X8X8X8X8X8X8X8X8X8X8X8X8X8X8X8X8X8X8X8X8X8X8X8X8X8X8X8X8X8X",
"8X8X8X8X8X8X8X8X8X8X8X8X8X8X8X8X8X8X8X8X8X8X8X8X8X8X8X8X8X8X8X8X8X8X8X8X8X8X8X8X8X8X8X8X8X8X8X8X8X8X8X8X8X8X8X8X8X8X8X8X8X8X8X8X",
"8X8X8X8X8X8X8X8X8X8X8X8X8X8X8X8X8X8X8X8X8X8X8X8X8X8X8X8X8X8X8X8X8X8X8X8X8X8X8X8X8X8X8X8X8X8X8X8X8X8X8X8X8X8X8X8X8X8X8X8X8X8X8X8X",
"8X8X8X8X8X8X8X8X8X8X8X8X8X8X8X8X8X8X8X8X8X8X8X8X8X8X8X8X8X8X8X8X8X8X8X8X8X8X8X8X8X8X8X8X8X8X8X8X8X8X8X8X8X8X8X8X8X8X8X8X8X8X8X8X",
"8X8X8X8X8X8X8X8X8X8X8X8X8X8X8X8X8X8X8X8X8X8X8X8X8X8X8X8X8X8X8X8X8X8X8X8X8X8X8X8X8X8X8X8X8X8X8X8X8X8X8X8X8X8X8X8X8X8X8X8X8X8X8X8X",
"8X8X8X8X8X8X8X8X8X8X8X8X8X8X8X8X8X8X8X8X8X8X8X8X8X8X8X8X8X8X8X8X8X8X8X8X8X8X8X8X8X8X8X8X8X8X8X8X8X8X8X8X8X8X8X8X8X8X8X8X8X8X8X8X",
"8X8X8X8X8X8X8X8X8X8X8X8X8X8X8X8X8X8X8X8X8X8X8X8X8X8X8X8X8X8X8X8X8X8X8X8X8X8X8X8X8X8X8X8X8X8X8X8X8X8X8X8X8X8X8X8X8X8X8X8X8X8X8X8X"
};
