/* XPM */
static const char *exit_7[] = {
/* columns rows colors chars-per-pixel */
"64 64 219 2 ",
"   c #AB3E2E",
".  c #B53E2F",
"X  c #A63A31",
"o  c #AB3C33",
"O  c #AB3938",
"+  c #AB3637",
"@  c #B23C33",
"#  c #BA3E33",
"$  c #B33B39",
"%  c #BC3D3C",
"&  c #B3373D",
"*  c #AD4726",
"=  c #AD432C",
"-  c #AE4925",
";  c #B34B25",
":  c #B2442C",
">  c #B9452C",
",  c #B44A2C",
"<  c #BB4C2B",
"1  c #B84D25",
"2  c #BD522D",
"3  c #B95224",
"4  c #AC4131",
"5  c #B44333",
"6  c #BB4234",
"7  c #BC4C32",
"8  c #BA4239",
"9  c #B44038",
"0  c #BE5432",
"q  c #C24A2D",
"w  c #C2562E",
"e  c #C55A2B",
"r  c #C34333",
"t  c #CC4D34",
"y  c #C4443A",
"u  c #CB443C",
"i  c #CD4B3D",
"p  c #C34A37",
"a  c #D1443E",
"s  c #D4493D",
"d  c #DA4F3E",
"f  c #C35531",
"g  c #CB5232",
"h  c #C55A33",
"j  c #CA5C32",
"k  c #CC503D",
"l  c #D25336",
"z  c #D65638",
"x  c #E35C3E",
"c  c #CD622F",
"v  c #CF6232",
"b  c #CE643A",
"n  c #D16335",
"m  c #D66935",
"M  c #D96A36",
"N  c #DB6D3A",
"B  c #D76738",
"V  c #DD7235",
"C  c #D7703B",
"Z  c #DD723C",
"A  c #E5603E",
"S  c #E2743C",
"D  c #E3793E",
"F  c #BB3A42",
"G  c #CB4546",
"H  c #D44B42",
"J  c #D1444B",
"K  c #DC4C4C",
"L  c #D94745",
"P  c #DB5445",
"I  c #D84653",
"U  c #E34F4F",
"Y  c #EA554D",
"T  c #E4594C",
"R  c #E65747",
"E  c #EC5D53",
"W  c #E85455",
"Q  c #F35C55",
"!  c #ED5153",
"~  c #EC684A",
"^  c #E67C41",
"/  c #E97D42",
"(  c #EC6254",
")  c #F46556",
"_  c #F56A55",
"`  c #F36A5C",
"'  c #F6665A",
"]  c #F7755A",
"[  c #F2664D",
"{  c #F35C67",
"}  c #EC5561",
"|  c #F66563",
" . c #F76968",
".. c #FA7C69",
"X. c #FA7566",
"o. c #F56872",
"O. c #FB7679",
"+. c #FA7A74",
"@. c #ED883F",
"#. c #E58243",
"$. c #EB8443",
"%. c #ED8A44",
"&. c #ED8F49",
"*. c #F08B45",
"=. c #F28E49",
"-. c #ED924B",
";. c #ED9C4E",
":. c #E9964C",
">. c #F29346",
",. c #F2944A",
"<. c #F49B4E",
"1. c #EB9C51",
"2. c #F49E51",
"3. c #F5825A",
"4. c #EAA34D",
"5. c #E8A94F",
"6. c #E6A64E",
"7. c #F5A24E",
"8. c #ECA351",
"9. c #E7AB53",
"0. c #EDAC55",
"q. c #ECAD58",
"w. c #F4A451",
"e. c #F8A652",
"r. c #F4AB54",
"t. c #F8AC55",
"y. c #F3AF59",
"u. c #ECB257",
"i. c #EFB359",
"p. c #F5B356",
"a. c #F8B256",
"s. c #F3B459",
"d. c #F8B459",
"f. c #F4B95A",
"g. c #F8B85A",
"h. c #FE836D",
"j. c #FC896B",
"k. c #FD8372",
"l. c #FE8C73",
"z. c #FD887C",
"x. c #FD9777",
"c. c #F9936C",
"v. c #FEAA77",
"b. c #FC7884",
"n. c #FE7E93",
"m. c #FB6980",
"M. c #FD8585",
"N. c #FE9581",
"B. c #FF9B8D",
"V. c #FE9788",
"C. c #FF9C98",
"Z. c #FEA78C",
"A. c #FEB786",
"S. c #FFA29B",
"D. c #FEAA9B",
"F. c #FEA792",
"G. c #FFB99C",
"H. c #FFB397",
"J. c #FF88A1",
"K. c #FF94A8",
"L. c #FE9DBB",
"P. c #FFA8A6",
"I. c #FFB5A2",
"U. c #FEBCA6",
"Y. c #FFBBB8",
"T. c #FED48F",
"R. c #FFCB9D",
"E. c #FFD798",
"W. c #FFE39B",
"Q. c #FFE596",
"!. c #FFCBA3",
"~. c #FFCBAD",
"^. c #FFC3A8",
"/. c #FFD8A7",
"(. c #FFC4B4",
"). c #FEC7B9",
"_. c #FFDCB5",
"`. c #FFD6B2",
"'. c #FFE6A2",
"]. c #FFE6BB",
"[. c #FFEDBD",
"{. c #FFEEB0",
"}. c #FFF5B6",
"|. c #FFFCB4",
" X c #FFFBBC",
".X c #FEA9CF",
"XX c #FFBADD",
"oX c #FFCBC3",
"OX c #FFC5C4",
"+X c #FFDDC3",
"@X c #FFDBCA",
"#X c #FFD6D9",
"$X c #FFE3CA",
"%X c #FFEFCC",
"&X c #FFE1C1",
"*X c #FFF6C7",
"=X c #FFFBC2",
"-X c #FFF7CB",
";X c #FFE4D4",
":X c #FFE5D9",
">X c #FFFCD4",
",X c #FFF7DA",
"<X c #FFFDDC",
"1X c #FFF5D1",
"2X c #FFC6E1",
"3X c #FFDDE6",
"4X c #FFDEF0",
"5X c #FFECE3",
"6X c #FFE6E1",
"7X c #FFF6E3",
"8X c #FFFDE3",
"9X c #FFF6E9",
"0X c #FFFDEC",
"qX c #FFECF2",
"wX c #FFF4F3",
"eX c #FFFEF3",
"rX c #FFFEFA",
"tX c #FF00FF",
"yX c black",
/* pixels */
"tXtXtXtXtXtXtXtXtXtXtXtXtXtXtXtXtXtXtXtXtXtXtXtXtXtXtXtXtXtXtXtXtXtXtXtXtXtXtXtXtXtXtXtXtXtXtXtXtXtXtXtXtXtXtXtXtXtXtXtXtXtXtXtX",
"tXtXtXtXtXtXtXtXtXtXtXtXtXtXtXtXtXtXtXtXtXtXtXtXtXtXtXtXtXtXtXtXtXtXtXtXtXtXtXtXtXtXtXtXtXtXtXtXtXtXtXtXtXtXtXtXtXtXtXtXtXtXtXtX",
"tXtXtXtXtXtXtXtXtXtXtXtXtXtXtXtXtXtXtXtXtXtXtXtXtXtXtXtXtXtXtXtXtXtXtXtXtXtXtXtXtXtXtXtXtXtXtXtXtXtXtXtXtXtXtXtXtXtXtXtXtXtXtXtX",
"tXtXtXtXtXtXtXtXtXtXtXtXtXtXtXtXtXtXtXtXtXtXtXtXtXtXtXtXtXtXtXtXtXtXtXtXtXtXtXtXtXtXtXtXtXtXtXtXtXtXtXtXtXtXtXtXtXtXtXtXtXtXtXtX",
"tXtXtXtXtXtXtXtXtXtXtXtXtXtXtXtXtXtXtXtXtXtXtXtXtXtXtXtXtXtXtXtXtXtXtXtXtXtXtXtXtXtXtXtXtXtXtXtXtXtXtXtXtXtXtXtXtXtXtXtXtXtXtXtX",
"tXtXtXtXtXtXtXtXtXtXtXtXtXtXtXtXtXtXtXtXtXtXtXtXtXtXtXtXtXtXtXtXtXtXtXtXtXtXtXtXtXtXtXtXtXtXtXtXtXtXtXtXtXtXtXtXtXtXtXtXtXtXtXtX",
"tXtXtXtXtXtXtXtXtXtXtXtXtXtXtXtXtXtXtXtXtXtXtXtXtXtXtXtXtXtXtXtXtXtXtXtXtXtXtXtXtXtXtXtXtXtXtXtXtXtXtXtXtXtXtXtXtXtXtXtXtXtXtXtX",
"tXtXtXtXtXtXtXtXtXtXtXtXtXtXtXtXtXtXtXtXtXtXtXtXtXtXtXtXtXtXtXtXtXtXtXtXtXtXtXtXtXtXtXtXtXtXtXtXtXtXtXtXtXtXtXtXtXtXtXtXtXtXtXtX",
"tXtXtXtXtXtXtXtXtXtXtXtXtXtXtXtXtXtXtXtXtXtXtXtXtXtXtXtXtXtXtXtXtXtXtXtXtXtXtXtXtXtXtXtXtXtXtXtXtXtXtXtXtXtXtXtXtXtXtXtXtXtXtXtX",
"tXtXtXtXtXtXtXtXtXtXtXtXtXtXtXtXtXtXtXtXtXtXtXtXtXtXtXtXtXtXtXtXtXtXtXtXtXtXtXtXtXtXtXtXtXtXtXtXtXtXtXtXtXtXtXtXtXtXtXtXtXtXtXtX",
"tXtXtXtXtXtXtXtXtXtXtXtXtXtXtXtXtXtXtXtXtXtX9.9.9.tXtXtXtXtXtXtXtXtXtXtXtXtXtXtXtXtXtXtXtXtXtXtXtXtXtXtXtXtXtXtXtXtXtXtXtXtXtXtX",
"tXtXtXtXtXtXtXtXtXtXtXtXtXtXtXtXtXtXtXu.f.f.g.a.a.a.y.0.tXtXtXtXtXtXtXtXtXtXtXtXtXtXtXtXtXtXtXtXtXtXtXtXtXtXtXtXtXtXtXtXtXtXtXtX",
"tXtXtXtXtXtXtXtXtXtXtXtXtXtXtXtXtXu.f.g.e.<.>.*.*.*.<.e.r.0.tXtXtXtXtXtXtXtXtXtXtXtXtXtXtXtXtXtXtXtXtXtXtXtXtXtXtXtXtXtXtXtXtXtX",
"tXtXtXtXtXtXtXtXtXtXtXtXtXtXtXtXf.g.e.*.S B j g w j n S >.w.r.tXtXtXtXtXtXtXtXtXtXtXtXtXtXtXtXtXtXtXtXtXtXtXtXtXtXtXtXtXtXtXtXtX",
"tXtXtXtXtXtXtXtXtXtXtXtXtXtXtXf.a.,.S j < < , : = = : < v D ,.w.tXtXtXtXtXtXtXtXtXtXtXtXtXtXtXtXtXtXtXtXtXtXtXtXtXtXtXtXtXtXtXtX",
"tXtXtXtXtXtXtXtXtXtXtXtXtXtXf.t.%.n < : = : : = o o o = , 2 V >.7.tXtXtXtXtXtXtXtXtXtXtXtXtXtXtXtXtXtXtXtXtXtXtXtXtXtXtXtXtXtXtX",
"tXtXtXtXtXtXtXtXtXtXtXtXtXi.r.$.j , = = @ 5 6 5 @ @ @ o = = 2 M *.<.tXtXtXtXtXtXtXtXtXtXtXtXtXtXtXtXtXtXtXtXtXtXtXtXtXtXtXtXtXtX",
"tXtXtXtXtXtXtXtXtXtXtXtXu.a.&.j =   o @ 6 y i u y y 8 5 5 5 = < M ,.;.tXtXtXtXtXtXtXtXtXtXtXtXtXtXtXtXtXtXtXtXtXtXtXtXtXtXtXtXtX",
"tXtXtXtXtXtXtXtXtXtXtXtXs.<.B ,   o $ % H R ( E E T P i y 8 @ = 2 S <.tXtXtXtXtXtXtXtXtXtXtXtXtXtXtXtXtXtXtXtXtXtXtXtXtXtXtXtXtX",
"tXtXtXtXtXtXtXtXtXtXtXi.t./ w : o $ y H R ) ] ..h...| ( P i 8 o = j $.<.tXtXtXtXtXtXtXtXtXtXtXtXtXtXtXtXtXtXtXtXtXtXtXtXtXtXtXtX",
"tXtXtXtXtXtXtXtXtXtXtXs.<.B < 5 5 6 s R Y ' h.N.B.V.z.k.] T H 8 4 , N ,.tXtXtXtXtXtXtXtXtXtXtXtXtXtXtXtXtXtXtXtXtXtXtXtXtXtXtXtX",
"tXtXtXtXtXtXtXtXtXtXq.t.$.j , 6 p t d E ` +.F.G.I.P.P.F.x.X.E G O   h $.;.tXtXtXtXtXtXtXtXtXtXtXtXtXtXtXtXtXtXtXtXtXtXtXtXtXtXtX",
"tXtXtXtXtXtXtXtXtXtXy.<.M < 7 q l x ~ ..V.I.).+X@XoXoX).I.N.` J & X < Z <.tXtXtXtXtXtXtXtXtXtXtXtXtXtXtXtXtXtXtXtXtXtXtXtXtXtXtX",
"tXtXtXtXtXtXtXtXtXtXr.$.f , 7 g z ~ c.H.^.`.[.1X7X5X5X:XoXD.o.I F o : n &.tXtXtXtXtXtXtXtXtXtXtXtXtXtXtXtXtXtXtXtXtXtXtXtXtXtXtX",
"tXtXtXtXtXtXtXtXtX0.w.Z , 4 7 l A 3.A.R./.'.}.>X0XeXeX0X6XY.b.} J $   w $.;.tXtXtXtXtXtXtXtXtXtXtXtXtXtXtXtXtXtXtXtXtXtXtXtXtXtX",
"tXtXtXtXtXtXtXtXtXr.,.n 4 o 6 g ~ j.A.W.W.{.-X8XeXeXeXrXwX#XK.o.I F o < S ,.tXtXtXtXtXtXtXtXtXtXtXtXtXtXtXtXtXtXtXtXtXtXtXtXtXtX",
"tXtXtXtXtXtXtXtXtXr.*.j 4 o 5 l [ h.A.Q. X<X8X8XeXeXrXrXrX3XL.m.} G 5 , B ,.tXtXtXtXtXtXtXtXtXtXtXtXtXtXtXtXtXtXtXtXtXtXtXtXtXtX",
"tXtXtXtXtXtXtXtXtXr.$.f : 5 7 z _ j.A.'.>X0X8X>X8XeXrXrXeX4X.Xn.{ G O = v &.tXtXtXtXtXtXtXtXtXtXtXtXtXtXtXtXtXtXtXtXtXtXtXtXtXtX",
"tXtXtXtXtXtXtXtX8.e.D 7 : > g A ] x.T.}.8X0X8X<X<XeXrXrXeXqXXXJ.o.J +   h %.tXtXtXtXtXtXtXtXtXtXtXtXtXtXtXtXtXtXtXtXtXtXtXtXtXtX",
"tXtXtXtXtXtXtXtX8.e.S < = > t x ] v.E. X8X8X0X0X0XeXeXeXeXqX2XK.o.I $ = w #.;.tXtXtXtXtXtXtXtXtXtXtXtXtXtXtXtXtXtXtXtXtXtXtXtXtX",
"tXtXtXtXtXtXtXtX8.<.N ,   > r d _ x.E.[.-X=X>XeXrXrXeX0XeXqX2XK.O.W y : w #.;.tXtXtXtXtXtXtXtXtXtXtXtXtXtXtXtXtXtXtXtXtXtXtXtXtX",
"tXtXtXtXtXtXtXtX8.<.B :   . # a Q l.R.].[.|.=X8XrXrXeX0XeXwX2XP.z.E t < e #.;.tXtXtXtXtXtXtXtXtXtXtXtXtXtXtXtXtXtXtXtXtXtXtXtXtX",
"tXtXtXtXtXtXtXtX8.<.B =   @ # a Q l.R._.[.|.|.>XrXrXeX0XeXeX6X^.z.) z < w ^ ;.tXtXtXtXtXtXtXtXtXtXtXtXtXtXtXtXtXtXtXtXtXtXtXtXtX",
"tXtXtXtXtXtXtXtX8.<.B = X o # H ) x.R.`.]. X X>XrXrX0X8X0XwX:X~.x.( t : 2 #.;.tXtXtXtXtXtXtXtXtXtXtXtXtXtXtXtXtXtXtXtXtXtXtXtXtX",
"tXtXtXtXtXtXtXtX1.<.N = X 5 8 s Q k.G.~.+X*X>X8XeXeX8X>X7X3XOXD.+.K 8   0 #.1.tXtXtXtXtXtXtXtXtXtXtXtXtXtXtXtXtXtXtXtXtXtXtXtXtX",
"tXtXtXtXtXtXtXtX1.2.Z , o 5 6 u Y X.H.~.@X,X0X0X0XeX0X8X9X#XY.M.{ L @   0 #.tXtXtXtXtXtXtXtXtXtXtXtXtXtXtXtXtXtXtXtXtXtXtXtXtXtX",
"tXtXtXtXtXtXtXtXtX2.^ 2 = 5 # r L  .F.^.@X9X0X0X0XeXeXeX9X$XI.M.Q u @ o h &.tXtXtXtXtXtXtXtXtXtXtXtXtXtXtXtXtXtXtXtXtXtXtXtXtXtX",
"tXtXtXtXtXtXtXtXtX2.$.f = o @ # a ) N.G.$X9X0X8X8X0XeXeX,X_.D.O.U y @ o b -.tXtXtXtXtXtXtXtXtXtXtXtXtXtXtXtXtXtXtXtXtXtXtXtXtXtX",
"tXtXtXtXtXtXtXtXtXw.=.v = o @ @ u Y k.H.&X7XeX0X8X0X0X8X*X/.B. .L # O 5 C 1.tXtXtXtXtXtXtXtXtXtXtXtXtXtXtXtXtXtXtXtXtXtXtXtXtXtX",
"tXtXtXtXtXtXtXtXtX;.<.N :   o . r R X.F.`.%X7X9X<X7X7X1X[.^.z.E u $ O 7 #.8.tXtXtXtXtXtXtXtXtXtXtXtXtXtXtXtXtXtXtXtXtXtXtXtXtXtX",
"tXtXtXtXtXtXtXtXtX:.2./ 7     > r s ( N.!._.$X;X$X$X%X].!.Z...T % O o h -.tXtXtXtXtXtXtXtXtXtXtXtXtXtXtXtXtXtXtXtXtXtXtXtXtXtXtX",
"tXtXtXtXtXtXtXtXtXtX2.=.j = = > > r T j.A.U.U.(.(.(.~.!.Z.k._ P $ O 5 C 2.tXtXtXtXtXtXtXtXtXtXtXtXtXtXtXtXtXtXtXtXtXtXtXtXtXtXtX",
"tXtXtXtXtXtXtXtXtXtX1.<.Z < = : : # d _ l.V.S.S.C.C.B.B.k.' R H $ o h %.w.tXtXtXtXtXtXtXtXtXtXtXtXtXtXtXtXtXtXtXtXtXtXtXtXtXtXtX",
"tXtXtXtXtXtXtXtXtXtXtX2.%.j = = : > t R )  .M.M.b.b.O.k.X.E G y 5 , C <.tXtXtXtXtXtXtXtXtXtXtXtXtXtXtXtXtXtXtXtXtXtXtXtXtXtXtXtX",
"tXtXtXtXtXtXtXtXtXtXtX1.<.S 2 * ; : < t d Y |  .{ { { ` ( H % 5 , h &.r.tXtXtXtXtXtXtXtXtXtXtXtXtXtXtXtXtXtXtXtXtXtXtXtXtXtXtXtX",
"tXtXtXtXtXtXtXtXtXtXtXtX2.,.B 1 - ; > q r u K U K J G H k 7 : = w D r.tXtXtXtXtXtXtXtXtXtXtXtXtXtXtXtXtXtXtXtXtXtXtXtXtXtXtXtXtX",
"tXtXtXtXtXtXtXtXtXtXtXtX:.w.%.v ; ; 1 < > 6 y y % & $ 9 6 , , 2 Z 2.s.tXtXtXtXtXtXtXtXtXtXtXtXtXtXtXtXtXtXtXtXtXtXtXtXtXtXtXtXtX",
"tXtXtXtXtXtXtXtXtXtXtXtXtX;.<.$.c 3 3 1 : : 5 5 O + O o 4 = w N <.s.tXtXtXtXtXtXtXtXtXtXtXtXtXtXtXtXtXtXtXtXtXtXtXtXtXtXtXtXtXtX",
"tXtXtXtXtXtXtXtXtXtXtXtXtXtXw.7.$.m 3 ; * = : :   X o o = f Z <.a.tXtXtXtXtXtXtXtXtXtXtXtXtXtXtXtXtXtXtXtXtXtXtXtXtXtXtXtXtXtXtX",
"tXtXtXtXtXtXtXtXtXtXtXtXtXtXtXw.e.>.V e 3 - - * = = = < j D <.p.tXtXtXtXtXtXtXtXtXtXtXtXtXtXtXtXtXtXtXtXtXtXtXtXtXtXtXtXtXtXtXtX",
"tXtXtXtXtXtXtXtXtXtXtXtXtXtXtXtX4.w.<.@.V c e e w h n S -.w.p.tXtXtXtXtXtXtXtXtXtXtXtXtXtXtXtXtXtXtXtXtXtXtXtXtXtXtXtXtXtXtXtXtX",
"tXtXtXtXtXtXtXtXtXtXtXtXtXtXtXtXtX4.r.t.7.>.%.@.%.&.<.w.a.u.tXtXtXtXtXtXtXtXtXtXtXtXtXtXtXtXtXtXtXtXtXtXtXtXtXtXtXtXtXtXtXtXtXtX",
"tXtXtXtXtXtXtXtXtXtXtXtXtXtXtXtXtXtXtX4.r.r.a.a.a.a.p.0.tXtXtXtXtXtXtXtXtXtXtXtXtXtXtXtXtXtXtXtXtXtXtXtXtXtXtXtXtXtXtXtXtXtXtXtX",
"tXtXtXtXtXtXtXtXtXtXtXtXtXtXtXtXtXtXtXtXtXtX6.5.5.tXtXtXtXtXtXtXtXtXtXtXtXtXtXtXtXtXtXtXtXtXtXtXtXtXtXtXtXtXtXtXtXtXtXtXtXtXtXtX",
"tXtXtXtXtXtXtXtXtXtXtXtXtXtXtXtXtXtXtXtXtXtXtXtXtXtXtXtXtXtXtXtXtXtXtXtXtXtXtXtXtXtXtXtXtXtXtXtXtXtXtXtXtXtXtXtXtXtXtXtXtXtXtXtX",
"tXtXtXtXtXtXtXtXtXtXtXtXtXtXtXtXtXtXtXtXtXtXtXtXtXtXtXtXtXtXtXtXtXtXtXtXtXtXtXtXtXtXtXtXtXtXtXtXtXtXtXtXtXtXtXtXtXtXtXtXtXtXtXtX",
"tXtXtXtXtXtXtXtXtXtXtXtXtXtXtXtXtXtXtXtXtXtXtXtXtXtXtXtXtXtXtXtXtXtXtXtXtXtXtXtXtXtXtXtXtXtXtXtXtXtXtXtXtXtXtXtXtXtXtXtXtXtXtXtX",
"tXtXtXtXtXtXtXtXtXtXtXtXtXtXtXtXtXtXtXtXtXtXtXtXtXtXtXtXtXtXtXtXtXtXtXtXtXtXtXtXtXtXtXtXtXtXtXtXtXtXtXtXtXtXtXtXtXtXtXtXtXtXtXtX",
"tXtXtXtXtXtXtXtXtXtXtXtXtXtXtXtXtXtXtXtXtXtXtXtXtXtXtXtXtXtXtXtXtXtXtXtXtXtXtXtXtXtXtXtXtXtXtXtXtXtXtXtXtXtXtXtXtXtXtXtXtXtXtXtX",
"tXtXtXtXtXtXtXtXtXtXtXtXtXtXtXtXtXtXtXtXtXtXtXtXtXtXtXtXtXtXtXtXtXtXtXtXtXtXtXtXtXtXtXtXtXtXtXtXtXtXtXtXtXtXtXtXtXtXtXtXtXtXtXtX",
"tXtXtXtXtXtXtXtXtXtXtXtXtXtXtXtXtXtXtXtXtXtXtXtXtXtXtXtXtXtXtXtXtXtXtXtXtXtXtXtXtXtXtXtXtXtXtXtXtXtXtXtXtXtXtXtXtXtXtXtXtXtXtXtX",
"tXtXtXtXtXtXtXtXtXtXtXtXtXtXtXtXtXtXtXtXtXtXtXtXtXtXtXtXtXtXtXtXtXtXtXtXtXtXtXtXtXtXtXtXtXtXtXtXtXtXtXtXtXtXtXtXtXtXtXtXtXtXtXtX",
"tXtXtXtXtXtXtXtXtXtXtXtXtXtXtXtXtXtXtXtXtXtXtXtXtXtXtXtXtXtXtXtXtXtXtXtXtXtXtXtXtXtXtXtXtXtXtXtXtXtXtXtXtXtXtXtXtXtXtXtXtXtXtXtX",
"tXtXtXtXtXtXtXtXtXtXtXtXtXtXtXtXtXtXtXtXtXtXtXtXtXtXtXtXtXtXtXtXtXtXtXtXtXtXtXtXtXtXtXtXtXtXtXtXtXtXtXtXtXtXtXtXtXtXtXtXtXtXtXtX"
};
