/* XPM */
static const char *exit_21[] = {
/* columns rows colors chars-per-pixel */
"64 64 217 2 ",
"   c #AB3D2D",
".  c #A63C2F",
"X  c #B23E2E",
"o  c #AC3C33",
"O  c #AD3939",
"+  c #A93832",
"@  c #B33D33",
"#  c #BA3E35",
"$  c #B53A3B",
"%  c #BB3E3B",
"&  c #C13F3F",
"*  c #AD4526",
"=  c #AD422B",
"-  c #AF4824",
";  c #B64A26",
":  c #B3442C",
">  c #BD452E",
",  c #B5492B",
"<  c #BB4C2C",
"1  c #B64B25",
"2  c #BF512E",
"3  c #AE4131",
"4  c #B34232",
"5  c #BB4434",
"6  c #BE4B33",
"7  c #BD413B",
"8  c #C3542C",
"9  c #C9592D",
"0  c #C5582B",
"q  c #C34534",
"w  c #C3423D",
"e  c #CC463C",
"r  c #CD4A3B",
"t  c #C74A34",
"y  c #D34B3B",
"u  c #DD4E3F",
"i  c #C45431",
"p  c #C75A32",
"a  c #CC5C33",
"s  c #CE513A",
"d  c #D35D33",
"f  c #DF5A39",
"g  c #D9543B",
"h  c #E0583B",
"j  c #D2622F",
"k  c #CF6235",
"l  c #D26235",
"z  c #D96535",
"x  c #DB6A36",
"c  c #DD653A",
"v  c #DA6C3A",
"b  c #D56637",
"n  c #DD713B",
"m  c #E06D3A",
"M  c #E2743C",
"N  c #E8773B",
"B  c #E57A3E",
"V  c #E97B3E",
"C  c #E17236",
"Z  c #C23D43",
"A  c #CA4545",
"S  c #D44B43",
"D  c #DA4C42",
"F  c #D4454C",
"G  c #D84849",
"H  c #DA4A55",
"J  c #E34F49",
"K  c #E15345",
"L  c #E3534E",
"P  c #EC594B",
"I  c #E7584C",
"U  c #EE5D53",
"Y  c #E85457",
"T  c #F25D57",
"R  c #F1584A",
"E  c #DE7340",
"W  c #EA6442",
"Q  c #F46A4B",
"!  c #EC7E42",
"~  c #E87740",
"^  c #F67649",
"/  c #F26452",
"(  c #F4615B",
")  c #F56B5C",
"_  c #FA6C5F",
"`  c #FA6657",
"'  c #FB755A",
"]  c #EE6654",
"[  c #EC586A",
"{  c #F75D65",
"}  c #EE626E",
"|  c #F76566",
" . c #F96C63",
".. c #F86466",
"X. c #FD7767",
"o. c #F4657A",
"O. c #FD7877",
"+. c #EC843F",
"@. c #E78143",
"#. c #EA8543",
"$. c #ED8B45",
"%. c #ED8E48",
"&. c #F18B44",
"*. c #F28C48",
"=. c #EE934A",
"-. c #ED9C4D",
";. c #E69F4F",
":. c #F3934B",
">. c #F59B4D",
",. c #F39044",
"<. c #FB8654",
"1. c #ED9D51",
"2. c #F49E51",
"3. c #FA9B56",
"4. c #EBA54D",
"5. c #E5A74F",
"6. c #F2A24F",
"7. c #F8A34E",
"8. c #F4A84F",
"9. c #EBA252",
"0. c #E6AA54",
"q. c #ECAA56",
"w. c #E8A957",
"e. c #F4A452",
"r. c #F8A453",
"t. c #F4AC54",
"y. c #F9AE59",
"u. c #F6AC55",
"i. c #ECB359",
"p. c #EDB458",
"a. c #F4B256",
"s. c #F5B45A",
"d. c #F9B35A",
"f. c #F3B95B",
"g. c #F8B559",
"h. c #FE856A",
"j. c #FD8273",
"k. c #FE847C",
"l. c #FE8C7A",
"z. c #FF967F",
"x. c #FF9B7A",
"c. c #FDA165",
"v. c #FEA879",
"b. c #FFBA76",
"n. c #FA6F8D",
"m. c #FD7C81",
"M. c #FC7E90",
"N. c #FD8783",
"B. c #FF9386",
"V. c #FE9A88",
"C. c #FD8E9E",
"Z. c #FE9B9C",
"A. c #FE9295",
"S. c #FFA68A",
"D. c #FEAE8F",
"F. c #FFB38A",
"G. c #FFAC96",
"H. c #FFA596",
"J. c #FFB999",
"K. c #FE8DA0",
"L. c #FF98AE",
"P. c #FEA6A6",
"I. c #FFB3A5",
"U. c #FFB9A1",
"Y. c #FEB1AC",
"T. c #FEADB0",
"R. c #FFBBB4",
"E. c #FFB9BC",
"W. c #FFC78B",
"Q. c #FFC79C",
"!. c #FED398",
"~. c #FEC7A8",
"^. c #FFD3A2",
"/. c #FFD8A4",
"(. c #FFCAB3",
"). c #FFC5B7",
"_. c #FFDEBE",
"`. c #FFD7B9",
"'. c #FFE9AE",
"]. c #FFE2B3",
"[. c #FFEBB4",
"{. c #FFE5BB",
"}. c #FFE8BA",
"|. c #FFF3B7",
" X c #FFFABC",
".X c #FFF9B9",
"XX c #FFBFC4",
"oX c #FFDDC3",
"OX c #FFDCCA",
"+X c #FFD4C0",
"@X c #FFD8D4",
"#X c #FFC8D4",
"$X c #FFE1C4",
"%X c #FFEBCB",
"&X c #FFF4C4",
"*X c #FFFAC5",
"=X c #FFF5CC",
"-X c #FFFBCB",
";X c #FFE4D3",
":X c #FFEBD2",
">X c #FFE5DA",
",X c #FFF5D6",
"<X c #FFFDD4",
"1X c #FFF4DB",
"2X c #FFFDDB",
"3X c #FFD9E4",
"4X c #FFFCE4",
"5X c #FFFDEC",
"6X c #FFF5E4",
"7X c #FFE9F1",
"8X c #FFF6F5",
"9X c #FFFEF4",
"0X c #FFFEFA",
"qX c #FFF0F8",
"wX c #FFE7E6",
"eX c #FF00FF",
"rX c black",
/* pixels */
"eXeXeXeXeXeXeXeXeXeXeXeXeXeXeXeXeXeXeXeXeXeXeXeXeXeXeXeXeXeXeXeXeXeXeXeXeXeXeXeXeXeXeXeXeXeXeXeXeXeXeXeXeXeXeXeXeXeXeXeXeXeXeXeX",
"eXeXeXeXeXeXeXeXeXeXeXeXeXeXeXeXeXeXeXeXeXeXeXeXeXeXeXeXeXeXeXeXeXeXeXeXeXeXeXeXeXeXeXeXeXeXeXeXeXeXeXeXeXeXeXeXeXeXeXeXeXeXeXeX",
"eXeXeXeXeXeXeXeXeXeXeXeXeXeXeXeXeXeXeXeXeXeXeXeXeXeXeXeXeXeXeXeXeXeXeXeXeXeXeXeXeXeXeXeXeXeXeXeXeXeXeXeXeXeXeXeXeXeXeXeXeXeXeXeX",
"eXeXeXeXeXeXeXeXeXeXeXeXeXeXeXeXeXeXeXeXeXeXeXeXeXeXeXeXeXeXeXeXeXeXeXeXeXeXeXeXeXeXeXeXeXeXeXeXeXeXeXeXeXeXeXeXeXeXeXeXeXeXeXeX",
"eXeXeXeXeXeXeXeXeXeXeXeXeXeXeXeXeXeXeXeXeXeXeXeXeXeXeXeXeXeXeXeXeXeXeXeXeXeXeXeXeXeXeXeXeXeXeXeXeXeXeXeXeXeXeXeXeXeXeXeXeXeXeXeX",
"eXeXeXeXeXeXeXeXeXeXeXeXeXeXeXeXeXeXeXeXeXeXeXeXeXeXeXeXeXeXeXeXeXeXeXeXeXeXeXeXeXeXeXeXeXeXeXeXeXeXeXeXeXeXeXeXeXeXeXeXeXeXeXeX",
"eXeXeXeXeXeXeXeXeXeXeXeXeXeXeXeXeXeXeXeXeXeXeXeXeXeXeXeXeXeXeXeXeXeXeXeXeXeXeXeXeXeXeXeXeXeXeXeXeXeXeXeXeXeXeXeXeXeXeXeXeXeXeXeX",
"eXeXeXeXeXeXeXeXeXeXeXeXeXeXeXeXeXeXeXeXeXeXeXeXeXeXeXeXeXeXeXeXeXeXeXeXeXeXeXeXeXeXeXeXeXeXeXeXeXeXeXeXeXeXeXeXeXeXeXeXeXeXeXeX",
"eXeXeXeXeXeXeXeXeXeXeXeXeXeXeXeXeXeXeXeXeXeXeXeXeXeXeXeXeXeXeXeXeXeXeXeXeXeXeXeXeXeXeXeXeXeXeXeXeXeXeXeXeXeXeXeXeXeXeXeXeXeXeXeX",
"eXeXeXeXeXeXeXeXeXeXeXeXeXeXeXeXeXeXeXeXeXeXeXeXeXeXeXeXeXeXeXeXeXeXeXeXeXeXeXeXeXeXeXeXeXeXeXeXeXeXeXeXeXeXeXeXeXeXeXeXeXeXeXeX",
"eXeXeXeXeXeXeXeXeXeXeXeXeXeXeXeXeXeXeXeXeXeXw.w.w.eXeXeXeXeXeXeXeXeXeXeXeXeXeXeXeXeXeXeXeXeXeXeXeXeXeXeXeXeXeXeXeXeXeXeXeXeXeXeX",
"eXeXeXeXeXeXeXeXeXeXeXeXeXeXeXeXeXeXeXp.f.f.s.d.d.s.a.q.eXeXeXeXeXeXeXeXeXeXeXeXeXeXeXeXeXeXeXeXeXeXeXeXeXeXeXeXeXeXeXeXeXeXeXeX",
"eXeXeXeXeXeXeXeXeXeXeXeXeXeXeXeXeXi.f.g.u.>.*.*.*.:.>.r.u.q.eXeXeXeXeXeXeXeXeXeXeXeXeXeXeXeXeXeXeXeXeXeXeXeXeXeXeXeXeXeXeXeXeXeX",
"eXeXeXeXeXeXeXeXeXeXeXeXeXeXeXeXf.g.r.*.N z 9 0 9 a z ~ ,.r.e.eXeXeXeXeXeXeXeXeXeXeXeXeXeXeXeXeXeXeXeXeXeXeXeXeXeXeXeXeXeXeXeXeX",
"eXeXeXeXeXeXeXeXeXeXeXeXeXeXeXf.g.:.m a < , = = * * : < l V :.e.eXeXeXeXeXeXeXeXeXeXeXeXeXeXeXeXeXeXeXeXeXeXeXeXeXeXeXeXeXeXeXeX",
"eXeXeXeXeXeXeXeXeXeXeXeXeXeXf.d.*.z < = = : 3 4 4   = = , 8 v *.e.eXeXeXeXeXeXeXeXeXeXeXeXeXeXeXeXeXeXeXeXeXeXeXeXeXeXeXeXeXeXeX",
"eXeXeXeXeXeXeXeXeXeXeXeXeXi.d.*.d < =   4 4 5 q 5 @ @ 4 = * < x *.6.eXeXeXeXeXeXeXeXeXeXeXeXeXeXeXeXeXeXeXeXeXeXeXeXeXeXeXeXeXeX",
"eXeXeXeXeXeXeXeXeXeXeXeXi.d.*.z , = = X 5 5 r g r w w 7 5 : = < v :.9.eXeXeXeXeXeXeXeXeXeXeXeXeXeXeXeXeXeXeXeXeXeXeXeXeXeXeXeXeX",
"eXeXeXeXeXeXeXeXeXeXeXeXf.r.m >     X 5 r D I Q P J L D e 6 , = < M :.eXeXeXeXeXeXeXeXeXeXeXeXeXeXeXeXeXeXeXeXeXeXeXeXeXeXeXeXeX",
"eXeXeXeXeXeXeXeXeXeXeXi.y.! i : = @ # y I T  .X. ..._ ( L S 5 o = p #.>.eXeXeXeXeXeXeXeXeXeXeXeXeXeXeXeXeXeXeXeXeXeXeXeXeXeXeXeX",
"eXeXeXeXeXeXeXeXeXeXeXd.>.z < : 5 e S Y  .j.z.S.V.B.l.O. .Y A @ o : v :.eXeXeXeXeXeXeXeXeXeXeXeXeXeXeXeXeXeXeXeXeXeXeXeXeXeXeXeX",
"eXeXeXeXeXeXeXeXeXeXq.y.! 8 , < s K U ` X.x.F.Q.~.~.U.V.k.} H 7 o . i #.-.eXeXeXeXeXeXeXeXeXeXeXeXeXeXeXeXeXeXeXeXeXeXeXeXeXeXeX",
"eXeXeXeXeXeXeXeXeXeXs.2.z < 1 d W Q ` ' h.x.Q.].%X%X$X(.H.m.[ A O + , n :.eXeXeXeXeXeXeXeXeXeXeXeXeXeXeXeXeXeXeXeXeXeXeXeXeXeXeX",
"eXeXeXeXeXeXeXeXeXeXs.*.9 : < c ^ ^ <.h.x.U.oX1X6X6X1X:X).Z.o.H $ o = k %.eXeXeXeXeXeXeXeXeXeXeXeXeXeXeXeXeXeXeXeXeXeXeXeXeXeXeX",
"eXeXeXeXeXeXeXeXeXq.r.N 8 : 4 s ^ <.c.W.`.;X1X5X0X0X0X5X;XR.M.[ Z @ = i @.-.eXeXeXeXeXeXeXeXeXeXeXeXeXeXeXeXeXeXeXeXeXeXeXeXeXeX",
"eXeXeXeXeXeXeXeXeXq.:.z , : 4 q W <.b.].,X=X*X2X9X0X0X0XwXXXC.o.F # 3 , n =.eXeXeXeXeXeXeXeXeXeXeXeXeXeXeXeXeXeXeXeXeXeXeXeXeXeX",
"eXeXeXeXeXeXeXeXeXu.*.a : : 5 r W 3.W.[.-X*X*X<X5X0X0X0X7X#XL.n.Y w O 3 b =.eXeXeXeXeXeXeXeXeXeXeXeXeXeXeXeXeXeXeXeXeXeXeXeXeXeX",
"eXeXeXeXeXeXeXeXeXu.#.8 : , q g Q c.!.[.*X2X2X<X4X0X0X0XqX3XE.C.} A O o a %.eXeXeXeXeXeXeXeXeXeXeXeXeXeXeXeXeXeXeXeXeXeXeXeXeXeX",
"eXeXeXeXeXeXeXeX9.r.B 1 : , t f ^ v.^.|.-X5X5X<X4X0X9X5X0X7X@XL.o.A @   p $.eXeXeXeXeXeXeXeXeXeXeXeXeXeXeXeXeXeXeXeXeXeXeXeXeXeX",
"eXeXeXeXeXeXeXeX9.r.C 1 = : q f <.v./..X<X5X5X5X9X0X5X4X5X8X@XP.o.F # : 0 #.-.eXeXeXeXeXeXeXeXeXeXeXeXeXeXeXeXeXeXeXeXeXeXeXeXeX",
"eXeXeXeXeXeXeXeX9.>.x , = X q h <.v.^.|.<X2X4X0X0X0X5X4X9X8X>XT.O.L q , 8 #.-.eXeXeXeXeXeXeXeXeXeXeXeXeXeXeXeXeXeXeXeXeXeXeXeXeX",
"eXeXeXeXeXeXeXeX9.>.x :   X 5 g ' z.J.'.*X*X-X5X0X0X0X9X0X8X>XR.N.U r , 8 +.-.eXeXeXeXeXeXeXeXeXeXeXeXeXeXeXeXeXeXeXeXeXeXeXeXeX",
"eXeXeXeXeXeXeXeX9.>.x :     # y ) k.G.].*X X X2X0X0X0X9X0X0X1X).N.] r : 8 @.-.eXeXeXeXeXeXeXeXeXeXeXeXeXeXeXeXeXeXeXeXeXeXeXeXeX",
"eXeXeXeXeXeXeXeX9.>.x ,   + @ y ) k.G.}.*X X.X<X0X0X4X4X9X5X;XY.k./ g < 8 @.1.eXeXeXeXeXeXeXeXeXeXeXeXeXeXeXeXeXeXeXeXeXeXeXeXeX",
"eXeXeXeXeXeXeXeX9.>.m , . + @ r ) j.G.}.*X&X X2X0X0X4X4X6X1XOXP.O.I t : 2 @.1.eXeXeXeXeXeXeXeXeXeXeXeXeXeXeXeXeXeXeXeXeXeXeXeXeX",
"eXeXeXeXeXeXeXeX;.>.M < . o @ r ) h.S._.=X=X=X2X9X0X9X5X4X:X).A.| D #   i $.eXeXeXeXeXeXeXeXeXeXeXeXeXeXeXeXeXeXeXeXeXeXeXeXeXeX",
"eXeXeXeXeXeXeXeXeX6.V 2   o @ e / X.B.(.%X1X4X4X9X0X0X4X2X%XR.N.( S @   a =.eXeXeXeXeXeXeXeXeXeXeXeXeXeXeXeXeXeXeXeXeXeXeXeXeXeX",
"eXeXeXeXeXeXeXeXeX6.#.a =   X q I _ k.I.$X1X5X9X9X0X9X4X1XOXI.j./ e o : b 1.eXeXeXeXeXeXeXeXeXeXeXeXeXeXeXeXeXeXeXeXeXeXeXeXeXeX",
"eXeXeXeXeXeXeXeXeX6.,.l =   X q K ` O.H.`.:X6X9X5X9X5X4X:X).B. .I w o , E 2.eXeXeXeXeXeXeXeXeXeXeXeXeXeXeXeXeXeXeXeXeXeXeXeXeXeX",
"eXeXeXeXeXeXeXeXeX4.>.m ,   : > y R  .B.R.OX,X4X5X5X4X,X_.G.j.T S $ o 6 @.e.eXeXeXeXeXeXeXeXeXeXeXeXeXeXeXeXeXeXeXeXeXeXeXeXeXeX",
"eXeXeXeXeXeXeXeXeXeXr.! < = = : q K ` O.Z.E.OX%X,X,X=X{.~.B. .L & O   a =.eXeXeXeXeXeXeXeXeXeXeXeXeXeXeXeXeXeXeXeXeXeXeXeXeXeXeX",
"eXeXeXeXeXeXeXeXeXeXe.*.a : = : > y P  .m.Z.R.+XoX_.{.^.S.j.T F $ o 4 v 2.eXeXeXeXeXeXeXeXeXeXeXeXeXeXeXeXeXeXeXeXeXeXeXeXeXeXeX",
"eXeXeXeXeXeXeXeXeXeX9.2.M < = : : q u P  .O.A.P.I.I.J.D.l. .L A O   i #.t.eXeXeXeXeXeXeXeXeXeXeXeXeXeXeXeXeXeXeXeXeXeXeXeXeXeXeX",
"eXeXeXeXeXeXeXeXeXeXeXr.*.d ; = : > t D U { O.N.m.k.l.j.) I S 5 o , v >.eXeXeXeXeXeXeXeXeXeXeXeXeXeXeXeXeXeXeXeXeXeXeXeXeXeXeXeX",
"eXeXeXeXeXeXeXeXeXeXeX1.2.V 8 * = < > t D L ( ..{ {  .U K e 6 4 : a %.t.eXeXeXeXeXeXeXeXeXeXeXeXeXeXeXeXeXeXeXeXeXeXeXeXeXeXeXeX",
"eXeXeXeXeXeXeXeXeXeXeXeXr.:.x ; - ; < 6 7 e G G F F L S w 5 4 = 6 B t.eXeXeXeXeXeXeXeXeXeXeXeXeXeXeXeXeXeXeXeXeXeXeXeXeXeXeXeXeX",
"eXeXeXeXeXeXeXeXeXeXeXeX;.r.&.j ; - ; , @ # w w % $ 7 7 4 4 = < v >.a.eXeXeXeXeXeXeXeXeXeXeXeXeXeXeXeXeXeXeXeXeXeXeXeXeXeXeXeXeX",
"eXeXeXeXeXeXeXeXeXeXeXeXeX9.7.+.j 1 ; * : @ @ @ $ O O O 4 = < b =.t.eXeXeXeXeXeXeXeXeXeXeXeXeXeXeXeXeXeXeXeXeXeXeXeXeXeXeXeXeXeX",
"eXeXeXeXeXeXeXeXeXeXeXeXeXeX6.7.&.j 1 - - = = = 3 o +   , 8 v :.u.eXeXeXeXeXeXeXeXeXeXeXeXeXeXeXeXeXeXeXeXeXeXeXeXeXeXeXeXeXeXeX",
"eXeXeXeXeXeXeXeXeXeXeXeXeXeXeX8.8.,.x 0 1 - - - * = = , a B 2.s.eXeXeXeXeXeXeXeXeXeXeXeXeXeXeXeXeXeXeXeXeXeXeXeXeXeXeXeXeXeXeXeX",
"eXeXeXeXeXeXeXeXeXeXeXeXeXeXeXeX4.t.>.&.C j 0 0 0 p l M :.u.s.eXeXeXeXeXeXeXeXeXeXeXeXeXeXeXeXeXeXeXeXeXeXeXeXeXeXeXeXeXeXeXeXeX",
"eXeXeXeXeXeXeXeXeXeXeXeXeXeXeXeXeX4.t.u.7.:.&.&.$.*.>.u.s.i.eXeXeXeXeXeXeXeXeXeXeXeXeXeXeXeXeXeXeXeXeXeXeXeXeXeXeXeXeXeXeXeXeXeX",
"eXeXeXeXeXeXeXeXeXeXeXeXeXeXeXeXeXeXeX4.t.a.a.d.a.a.a.i.eXeXeXeXeXeXeXeXeXeXeXeXeXeXeXeXeXeXeXeXeXeXeXeXeXeXeXeXeXeXeXeXeXeXeXeX",
"eXeXeXeXeXeXeXeXeXeXeXeXeXeXeXeXeXeXeXeXeXeX5.0.0.eXeXeXeXeXeXeXeXeXeXeXeXeXeXeXeXeXeXeXeXeXeXeXeXeXeXeXeXeXeXeXeXeXeXeXeXeXeXeX",
"eXeXeXeXeXeXeXeXeXeXeXeXeXeXeXeXeXeXeXeXeXeXeXeXeXeXeXeXeXeXeXeXeXeXeXeXeXeXeXeXeXeXeXeXeXeXeXeXeXeXeXeXeXeXeXeXeXeXeXeXeXeXeXeX",
"eXeXeXeXeXeXeXeXeXeXeXeXeXeXeXeXeXeXeXeXeXeXeXeXeXeXeXeXeXeXeXeXeXeXeXeXeXeXeXeXeXeXeXeXeXeXeXeXeXeXeXeXeXeXeXeXeXeXeXeXeXeXeXeX",
"eXeXeXeXeXeXeXeXeXeXeXeXeXeXeXeXeXeXeXeXeXeXeXeXeXeXeXeXeXeXeXeXeXeXeXeXeXeXeXeXeXeXeXeXeXeXeXeXeXeXeXeXeXeXeXeXeXeXeXeXeXeXeXeX",
"eXeXeXeXeXeXeXeXeXeXeXeXeXeXeXeXeXeXeXeXeXeXeXeXeXeXeXeXeXeXeXeXeXeXeXeXeXeXeXeXeXeXeXeXeXeXeXeXeXeXeXeXeXeXeXeXeXeXeXeXeXeXeXeX",
"eXeXeXeXeXeXeXeXeXeXeXeXeXeXeXeXeXeXeXeXeXeXeXeXeXeXeXeXeXeXeXeXeXeXeXeXeXeXeXeXeXeXeXeXeXeXeXeXeXeXeXeXeXeXeXeXeXeXeXeXeXeXeXeX",
"eXeXeXeXeXeXeXeXeXeXeXeXeXeXeXeXeXeXeXeXeXeXeXeXeXeXeXeXeXeXeXeXeXeXeXeXeXeXeXeXeXeXeXeXeXeXeXeXeXeXeXeXeXeXeXeXeXeXeXeXeXeXeXeX",
"eXeXeXeXeXeXeXeXeXeXeXeXeXeXeXeXeXeXeXeXeXeXeXeXeXeXeXeXeXeXeXeXeXeXeXeXeXeXeXeXeXeXeXeXeXeXeXeXeXeXeXeXeXeXeXeXeXeXeXeXeXeXeXeX",
"eXeXeXeXeXeXeXeXeXeXeXeXeXeXeXeXeXeXeXeXeXeXeXeXeXeXeXeXeXeXeXeXeXeXeXeXeXeXeXeXeXeXeXeXeXeXeXeXeXeXeXeXeXeXeXeXeXeXeXeXeXeXeXeX",
"eXeXeXeXeXeXeXeXeXeXeXeXeXeXeXeXeXeXeXeXeXeXeXeXeXeXeXeXeXeXeXeXeXeXeXeXeXeXeXeXeXeXeXeXeXeXeXeXeXeXeXeXeXeXeXeXeXeXeXeXeXeXeXeX",
"eXeXeXeXeXeXeXeXeXeXeXeXeXeXeXeXeXeXeXeXeXeXeXeXeXeXeXeXeXeXeXeXeXeXeXeXeXeXeXeXeXeXeXeXeXeXeXeXeXeXeXeXeXeXeXeXeXeXeXeXeXeXeXeX"
};
