/* XPM */
static const char *exit_5[] = {
/* columns rows colors chars-per-pixel */
"64 64 223 2 ",
"   c #A5392E",
".  c #AB3E2D",
"X  c #B23E2E",
"o  c #AC3C32",
"O  c #AD3938",
"+  c #A93735",
"@  c #B43D34",
"#  c #BB3E32",
"$  c #B33B39",
"%  c #BD3D3E",
"&  c #B3373A",
"*  c #C23F3C",
"=  c #AD4426",
"-  c #AD422B",
";  c #AF4923",
":  c #B44A24",
">  c #B2442C",
",  c #B9432C",
"<  c #B5482B",
"1  c #BB4B2C",
"2  c #B84A26",
"3  c #BE5129",
"4  c #AE4031",
"5  c #B44332",
"6  c #BC4334",
"7  c #BC4A33",
"8  c #BB423A",
"9  c #BE5130",
"0  c #C54C2F",
"q  c #C3532D",
"w  c #CB562E",
"e  c #CC5B2D",
"r  c #C35628",
"t  c #C34533",
"y  c #C24C33",
"u  c #C3443A",
"i  c #CD4A3A",
"p  c #C94838",
"a  c #D44B3C",
"s  c #D1463D",
"d  c #C45431",
"f  c #CA5233",
"g  c #CA5B33",
"h  c #D35435",
"j  c #D15C31",
"k  c #DF573B",
"l  c #E14F3D",
"z  c #E65B3C",
"x  c #E2533E",
"c  c #D2622E",
"v  c #CF6236",
"b  c #D46233",
"n  c #DA6435",
"m  c #DA6934",
"M  c #DC6D3A",
"N  c #D76838",
"B  c #DA713D",
"V  c #E17235",
"C  c #E3733C",
"Z  c #E67A3D",
"A  c #E9783C",
"S  c #E5623A",
"D  c #BC3943",
"F  c #CB3C4C",
"G  c #C94644",
"H  c #D54B42",
"J  c #DB4C44",
"K  c #D34547",
"L  c #DB5344",
"P  c #D74652",
"I  c #E45345",
"U  c #E2544C",
"Y  c #E3594B",
"T  c #EA5244",
"R  c #F25B4D",
"E  c #F05947",
"W  c #E24C54",
"Q  c #EC5C52",
"!  c #E85553",
"~  c #F55D5B",
"^  c #F75C56",
"/  c #E44E4E",
"(  c #ED6449",
")  c #EC7C41",
"_  c #E87843",
"`  c #F17045",
"'  c #EF6459",
"]  c #F96A5B",
"[  c #F56859",
"{  c #FB7459",
"}  c #F67357",
"|  c #FA624D",
" . c #EE5763",
".. c #F65870",
"X. c #F36564",
"o. c #F76968",
"O. c #FB7466",
"+. c #FC7D6C",
"@. c #FB7865",
"#. c #F46A73",
"$. c #FA7779",
"%. c #E68042",
"&. c #EC8443",
"*. c #EE8A42",
"=. c #EC8E49",
"-. c #F28C45",
";. c #F38E49",
":. c #F18741",
">. c #E69B4D",
",. c #EC9C4E",
"<. c #EE924A",
"1. c #F49346",
"2. c #F3944A",
"3. c #F59B4D",
"4. c #F89E4C",
"5. c #EC9C50",
"6. c #F39D51",
"7. c #F68353",
"8. c #E9A54E",
"9. c #F4A14F",
"0. c #F8A24E",
"q. c #ECA251",
"w. c #E6AB52",
"e. c #ECAD55",
"r. c #E5A752",
"t. c #F4A452",
"y. c #F8A651",
"u. c #F4AB53",
"i. c #F8AB54",
"p. c #F1AC58",
"a. c #ECB357",
"s. c #EEB359",
"d. c #F5B356",
"f. c #F8B356",
"g. c #F4B359",
"h. c #F2B95A",
"j. c #F9B559",
"k. c #FD8969",
"l. c #FD8473",
"z. c #FC847B",
"x. c #FC8B7E",
"c. c #FE8B73",
"v. c #FE9577",
"b. c #FA9162",
"n. c #FEA378",
"m. c #FC7584",
"M. c #FE8689",
"N. c #FE8B87",
"B. c #FE9984",
"V. c #FE9D8C",
"C. c #FE8898",
"Z. c #FE9995",
"A. c #FEA68B",
"S. c #FFA187",
"D. c #FEBB89",
"F. c #FEA39E",
"G. c #FEAB9D",
"H. c #FEAA93",
"J. c #FFBB9C",
"K. c #FFB39F",
"L. c #FE97AB",
"P. c #FEA6A5",
"I. c #FEB7AC",
"U. c #FFBAAB",
"Y. c #FFB5A3",
"T. c #FEA1B4",
"R. c #FFBAB1",
"E. c #FFC188",
"W. c #FFD38F",
"Q. c #FFC99D",
"!. c #FFDD96",
"~. c #FFD196",
"^. c #FFE79B",
"/. c #FFC3A4",
"(. c #FFCAA2",
"). c #FEC4AB",
"_. c #FFC9AB",
"`. c #FFDCAC",
"'. c #FFD0A9",
"]. c #FFC7B7",
"[. c #FEC4BC",
"{. c #FFCEBA",
"}. c #FFCBB3",
"|. c #FFDAB8",
" X c #FFEAA3",
".X c #FFEBA8",
"XX c #FFF2A9",
"oX c #FFE4B6",
"OX c #FFE1BA",
"+X c #FFEABB",
"@X c #FFEBB5",
"#X c #FFFBBC",
"$X c #FFF5B9",
"%X c #FFAECA",
"&X c #FEB5D0",
"*X c #FFCCC3",
"=X c #FFDBC6",
"-X c #FFD3C5",
";X c #FFC1DA",
":X c #FFD7D7",
">X c #FFEBC5",
",X c #FFECCB",
"<X c #FFE4CB",
"1X c #FFF2C3",
"2X c #FFF9C9",
"3X c #FFEBDC",
"4X c #FFE5D7",
"5X c #FFF5D3",
"6X c #FFFCD3",
"7X c #FFFCDB",
"8X c #FFCAE3",
"9X c #FFD7E8",
"0X c #FFECE4",
"qX c #FFFDE4",
"wX c #FFF2EB",
"eX c #FFFDEC",
"rX c #FFE9F3",
"tX c #FFF4F2",
"yX c #FFFEF4",
"uX c #FFF3F9",
"iX c #FFFEFA",
"pX c #FF00FF",
"aX c black",
/* pixels */
"pXpXpXpXpXpXpXpXpXpXpXpXpXpXpXpXpXpXpXpXpXpXpXpXpXpXpXpXpXpXpXpXpXpXpXpXpXpXpXpXpXpXpXpXpXpXpXpXpXpXpXpXpXpXpXpXpXpXpXpXpXpXpXpX",
"pXpXpXpXpXpXpXpXpXpXpXpXpXpXpXpXpXpXpXpXpXpXpXpXpXpXpXpXpXpXpXpXpXpXpXpXpXpXpXpXpXpXpXpXpXpXpXpXpXpXpXpXpXpXpXpXpXpXpXpXpXpXpXpX",
"pXpXpXpXpXpXpXpXpXpXpXpXpXpXpXpXpXpXpXpXpXpXpXpXpXpXpXpXpXpXpXpXpXpXpXpXpXpXpXpXpXpXpXpXpXpXpXpXpXpXpXpXpXpXpXpXpXpXpXpXpXpXpXpX",
"pXpXpXpXpXpXpXpXpXpXpXpXpXpXpXpXpXpXpXpXpXpXpXpXpXpXpXpXpXpXpXpXpXpXpXpXpXpXpXpXpXpXpXpXpXpXpXpXpXpXpXpXpXpXpXpXpXpXpXpXpXpXpXpX",
"pXpXpXpXpXpXpXpXpXpXpXpXpXpXpXpXpXpXpXpXpXpXpXpXpXpXpXpXpXpXpXpXpXpXpXpXpXpXpXpXpXpXpXpXpXpXpXpXpXpXpXpXpXpXpXpXpXpXpXpXpXpXpXpX",
"pXpXpXpXpXpXpXpXpXpXpXpXpXpXpXpXpXpXpXpXpXpXpXpXpXpXpXpXpXpXpXpXpXpXpXpXpXpXpXpXpXpXpXpXpXpXpXpXpXpXpXpXpXpXpXpXpXpXpXpXpXpXpXpX",
"pXpXpXpXpXpXpXpXpXpXpXpXpXpXpXpXpXpXpXpXpXpXpXpXpXpXpXpXpXpXpXpXpXpXpXpXpXpXpXpXpXpXpXpXpXpXpXpXpXpXpXpXpXpXpXpXpXpXpXpXpXpXpXpX",
"pXpXpXpXpXpXpXpXpXpXpXpXpXpXpXpXpXpXpXpXpXpXpXpXpXpXpXpXpXpXpXpXpXpXpXpXpXpXpXpXpXpXpXpXpXpXpXpXpXpXpXpXpXpXpXpXpXpXpXpXpXpXpXpX",
"pXpXpXpXpXpXpXpXpXpXpXpXpXpXpXpXpXpXpXpXpXpXpXpXpXpXpXpXpXpXpXpXpXpXpXpXpXpXpXpXpXpXpXpXpXpXpXpXpXpXpXpXpXpXpXpXpXpXpXpXpXpXpXpX",
"pXpXpXpXpXpXpXpXpXpXpXpXpXpXpXpXpXpXpXpXpXpXpXpXpXpXpXpXpXpXpXpXpXpXpXpXpXpXpXpXpXpXpXpXpXpXpXpXpXpXpXpXpXpXpXpXpXpXpXpXpXpXpXpX",
"pXpXpXpXpXpXpXpXpXpXpXpXpXpXpXpXpXpXpXpXpXpXw.w.r.pXpXpXpXpXpXpXpXpXpXpXpXpXpXpXpXpXpXpXpXpXpXpXpXpXpXpXpXpXpXpXpXpXpXpXpXpXpXpX",
"pXpXpXpXpXpXpXpXpXpXpXpXpXpXpXpXpXpXpXa.h.j.f.f.f.d.d.e.pXpXpXpXpXpXpXpXpXpXpXpXpXpXpXpXpXpXpXpXpXpXpXpXpXpXpXpXpXpXpXpXpXpXpXpX",
"pXpXpXpXpXpXpXpXpXpXpXpXpXpXpXpXpXa.h.j.y.3.;.:.:.;.3.y.u.e.pXpXpXpXpXpXpXpXpXpXpXpXpXpXpXpXpXpXpXpXpXpXpXpXpXpXpXpXpXpXpXpXpXpX",
"pXpXpXpXpXpXpXpXpXpXpXpXpXpXpXpXh.j.y.-.C n j w w e n Z 1.0.u.pXpXpXpXpXpXpXpXpXpXpXpXpXpXpXpXpXpXpXpXpXpXpXpXpXpXpXpXpXpXpXpXpX",
"pXpXpXpXpXpXpXpXpXpXpXpXpXpXpXh.f.2.C j 1 < < - - - > 1 b Z 2.t.pXpXpXpXpXpXpXpXpXpXpXpXpXpXpXpXpXpXpXpXpXpXpXpXpXpXpXpXpXpXpXpX",
"pXpXpXpXpXpXpXpXpXpXpXpXpXpXh.f.-.n 1 > - > < > o o . - > q V 1.9.pXpXpXpXpXpXpXpXpXpXpXpXpXpXpXpXpXpXpXpXpXpXpXpXpXpXpXpXpXpXpX",
"pXpXpXpXpXpXpXpXpXpXpXpXpXh.i.*.j 2 - - . 5 y 6 @ @ 5 4 - > q m -.3.pXpXpXpXpXpXpXpXpXpXpXpXpXpXpXpXpXpXpXpXpXpXpXpXpXpXpXpXpXpX",
"pXpXpXpXpXpXpXpXpXpXpXpXe.f.;.j > - . 5 @ 6 a i u u u 6 5 > > 1 M 2.5.pXpXpXpXpXpXpXpXpXpXpXpXpXpXpXpXpXpXpXpXpXpXpXpXpXpXpXpXpX",
"pXpXpXpXpXpXpXpXpXpXpXpXj.4.m < . o @ u H L ( ( U Y L a p 6 . - q C 3.pXpXpXpXpXpXpXpXpXpXpXpXpXpXpXpXpXpXpXpXpXpXpXpXpXpXpXpXpX",
"pXpXpXpXpXpXpXpXpXpXpXs.i.) q > 5 $ * J R ] @.k.+.@.] Q Y G $ 4 - g *.3.pXpXpXpXpXpXpXpXpXpXpXpXpXpXpXpXpXpXpXpXpXpXpXpXpXpXpXpX",
"pXpXpXpXpXpXpXpXpXpXpXg.2.n < 5 6 u s T | { k.B.A.V.x.l.] U G 8 . < M 2.pXpXpXpXpXpXpXpXpXpXpXpXpXpXpXpXpXpXpXpXpXpXpXpXpXpXpXpX",
"pXpXpXpXpXpXpXpXpXpXe.i.) w < 7 y a l T ] l.A.J._.U.P.H.x.X.U G O . d &.,.pXpXpXpXpXpXpXpXpXpXpXpXpXpXpXpXpXpXpXpXpXpXpXpXpXpXpX",
"pXpXpXpXpXpXpXpXpXpXg.3.n q y y h z ( } x.G.{.<X<X-X*X].G.z.' K &   < C 3.pXpXpXpXpXpXpXpXpXpXpXpXpXpXpXpXpXpXpXpXpXpXpXpXpXpXpX",
"pXpXpXpXpXpXpXpXpXpXu.*.q < f h z ` b.A.I.{.>X7XeXwX0X4X[.Z.#.W D + > b 2.pXpXpXpXpXpXpXpXpXpXpXpXpXpXpXpXpXpXpXpXpXpXpXpXpXpXpX",
"pXpXpXpXpXpXpXpXpXe.y.C < o 7 h S 7.D.`.`.`.@X6XyXyXyXwX:XT.m. .F $ - q &.,.pXpXpXpXpXpXpXpXpXpXpXpXpXpXpXpXpXpXpXpXpXpXpXpXpXpX",
"pXpXpXpXpXpXpXpXpXp.3.b > o 5 f S b.D. XXX.X$X7XyXyXiXuX9X&XC...P 8 > < C 2.pXpXpXpXpXpXpXpXpXpXpXpXpXpXpXpXpXpXpXpXpXpXpXpXpXpX",
"pXpXpXpXpXpXpXpXpXi.-.g - 4 5 f ` k.D.^.$X6X7X7XeXiXiXiXrX8XL.m. .G @ > N 2.pXpXpXpXpXpXpXpXpXpXpXpXpXpXpXpXpXpXpXpXpXpXpXpXpXpX",
"pXpXpXpXpXpXpXpXpXi.&.q - 5 1 h } v.E. X6XeXqX7XqXiXiXyXtX9X%XC.X.G O - v <.pXpXpXpXpXpXpXpXpXpXpXpXpXpXpXpXpXpXpXpXpXpXpXpXpXpX",
"pXpXpXpXpXpXpXpXq.y.A 1 > < 0 k } n.W.XX7XeXqX7XqXyXyXeXeXrX;XL.#.G O . g *.pXpXpXpXpXpXpXpXpXpXpXpXpXpXpXpXpXpXpXpXpXpXpXpXpXpX",
"pXpXpXpXpXpXpXpXq.0.C < - < 0 z { n.!.#XqXeXeXeXeXyXeXeXeXuX8XP.#.P $ > q &.,.pXpXpXpXpXpXpXpXpXpXpXpXpXpXpXpXpXpXpXpXpXpXpXpXpX",
"pXpXpXpXpXpXpXpXq.4.M < . , t z { n.!.#X6X6XqXyXiXiXeXeXyXuX8XP.$.! u > q %.,.pXpXpXpXpXpXpXpXpXpXpXpXpXpXpXpXpXpXpXpXpXpXpXpXpX",
"pXpXpXpXpXpXpXpXq.3.N > . X t x ] v.~.+X1X#X6XeXiXiXyXyXyXuX9XI.x.' i < 9 ) ,.pXpXpXpXpXpXpXpXpXpXpXpXpXpXpXpXpXpXpXpXpXpXpXpXpX",
"pXpXpXpXpXpXpXpXq.3.N -   o # a ^ l.Q.oX+X#X2X7XiXiXyXeXyXyX3X_.x.' h < q %.,.pXpXpXpXpXpXpXpXpXpXpXpXpXpXpXpXpXpXpXpXpXpXpXpXpX",
"pXpXpXpXpXpXpXpXq.3.N -   o # H ^ l.(.+X1X#X#X6XyXiXeXqXeXwX4X).z.Q f < q %.,.pXpXpXpXpXpXpXpXpXpXpXpXpXpXpXpXpXpXpXpXpXpXpXpXpX",
"pXpXpXpXpXpXpXpXq.3.M >   o 6 J ^ l.Q.oX>X1X2X6XyXyXqX7XeX0X=XK.$.U t X 9 %.5.pXpXpXpXpXpXpXpXpXpXpXpXpXpXpXpXpXpXpXpXpXpXpXpXpX",
"pXpXpXpXpXpXpXpX,.4.C <   o 6 a R +.J.`.=X,X6XqXyXyXeXeXeX3X}.Z.X.J # . d &.pXpXpXpXpXpXpXpXpXpXpXpXpXpXpXpXpXpXpXpXpXpXpXpXpXpX",
"pXpXpXpXpXpXpXpXpX4._ 1 . @ 6 a E @.H.'.=X3X7XqXyXyXiXyXqX,X).N.^ s @ . g =.pXpXpXpXpXpXpXpXpXpXpXpXpXpXpXpXpXpXpXpXpXpXpXpXpXpX",
"pXpXpXpXpXpXpXpXpXt.&.d - X , p T ] B./.-X4XqXqXyXyXyXeX5XoXY.z.Q i @ o v <.pXpXpXpXpXpXpXpXpXpXpXpXpXpXpXpXpXpXpXpXpXpXpXpXpXpX",
"pXpXpXpXpXpXpXpXpXt.;.b - . X 6 a R z.G.].:XwXyXyXyXeX7X>X}.Z.o.I u o 5 B 6.pXpXpXpXpXpXpXpXpXpXpXpXpXpXpXpXpXpXpXpXpXpXpXpXpXpX",
"pXpXpXpXpXpXpXpXpX,.3.M < . X , p I O.V.U.-X3XeXeXeXqX5XOXK.z.Q s $ o 7 %.q.pXpXpXpXpXpXpXpXpXpXpXpXpXpXpXpXpXpXpXpXpXpXpXpXpXpX",
"pXpXpXpXpXpXpXpXpX>.6.) q - > , t a [ x.F.R.=X4X5X5X2X+X/.B.o.U % O o g <.pXpXpXpXpXpXpXpXpXpXpXpXpXpXpXpXpXpXpXpXpXpXpXpXpXpXpX",
"pXpXpXpXpXpXpXpXpXpX6.;.g - > < , p Y O.N.F.U.].|.|.`.(.A.+.Q K & + > M 6.pXpXpXpXpXpXpXpXpXpXpXpXpXpXpXpXpXpXpXpXpXpXpXpXpXpXpX",
"pXpXpXpXpXpXpXpXpXpX,.6.C 1 - > , 6 a Q o.M.Z.F.P.Y.H.S.c.] U u O o d &.t.pXpXpXpXpXpXpXpXpXpXpXpXpXpXpXpXpXpXpXpXpXpXpXpXpXpXpX",
"pXpXpXpXpXpXpXpXpXpXpX6.-.g - = 2 , t a ! o.$.M.M.N.x.l.O.Q H 8 o > M 6.pXpXpXpXpXpXpXpXpXpXpXpXpXpXpXpXpXpXpXpXpXpXpXpXpXpXpXpX",
"pXpXpXpXpXpXpXpXpXpXpX5.3.C 1 = 2 < , t H / ~ o.o.X.X.' Y G 6 5 > g =.p.pXpXpXpXpXpXpXpXpXpXpXpXpXpXpXpXpXpXpXpXpXpXpXpXpXpXpXpX",
"pXpXpXpXpXpXpXpXpXpXpXpXt.2.n 2 ; 2 , , t u J ! W K J L p 6 > < q _ y.pXpXpXpXpXpXpXpXpXpXpXpXpXpXpXpXpXpXpXpXpXpXpXpXpXpXpXpXpX",
"pXpXpXpXpXpXpXpXpXpXpXpX>.0.:.b 2 : 2 < , 6 u u % & % u 5 4 > q C 6.s.pXpXpXpXpXpXpXpXpXpXpXpXpXpXpXpXpXpXpXpXpXpXpXpXpXpXpXpXpX",
"pXpXpXpXpXpXpXpXpXpXpXpXpX,.4.&.c 3 : 2 > > 5 5 O + O 5 4 - 1 M 3.g.pXpXpXpXpXpXpXpXpXpXpXpXpXpXpXpXpXpXpXpXpXpXpXpXpXpXpXpXpXpX",
"pXpXpXpXpXpXpXpXpXpXpXpXpXpX9.0.:.m r : = - - - o o o 4 > d M 3.d.pXpXpXpXpXpXpXpXpXpXpXpXpXpXpXpXpXpXpXpXpXpXpXpXpXpXpXpXpXpXpX",
"pXpXpXpXpXpXpXpXpXpXpXpXpXpXpX9.0.;.V e 2 : = = - - - < g Z 0.d.pXpXpXpXpXpXpXpXpXpXpXpXpXpXpXpXpXpXpXpXpXpXpXpXpXpXpXpXpXpXpXpX",
"pXpXpXpXpXpXpXpXpXpXpXpXpXpXpXpXq.y.4.*.V c r r q e b C 2.y.g.pXpXpXpXpXpXpXpXpXpXpXpXpXpXpXpXpXpXpXpXpXpXpXpXpXpXpXpXpXpXpXpXpX",
"pXpXpXpXpXpXpXpXpXpXpXpXpXpXpXpXpX>.u.y.0.1.*.*.*.-.3.y.d.s.pXpXpXpXpXpXpXpXpXpXpXpXpXpXpXpXpXpXpXpXpXpXpXpXpXpXpXpXpXpXpXpXpXpX",
"pXpXpXpXpXpXpXpXpXpXpXpXpXpXpXpXpXpXpX8.u.u.d.f.d.d.d.e.pXpXpXpXpXpXpXpXpXpXpXpXpXpXpXpXpXpXpXpXpXpXpXpXpXpXpXpXpXpXpXpXpXpXpXpX",
"pXpXpXpXpXpXpXpXpXpXpXpXpXpXpXpXpXpXpXpXpXpX8.w.w.pXpXpXpXpXpXpXpXpXpXpXpXpXpXpXpXpXpXpXpXpXpXpXpXpXpXpXpXpXpXpXpXpXpXpXpXpXpXpX",
"pXpXpXpXpXpXpXpXpXpXpXpXpXpXpXpXpXpXpXpXpXpXpXpXpXpXpXpXpXpXpXpXpXpXpXpXpXpXpXpXpXpXpXpXpXpXpXpXpXpXpXpXpXpXpXpXpXpXpXpXpXpXpXpX",
"pXpXpXpXpXpXpXpXpXpXpXpXpXpXpXpXpXpXpXpXpXpXpXpXpXpXpXpXpXpXpXpXpXpXpXpXpXpXpXpXpXpXpXpXpXpXpXpXpXpXpXpXpXpXpXpXpXpXpXpXpXpXpXpX",
"pXpXpXpXpXpXpXpXpXpXpXpXpXpXpXpXpXpXpXpXpXpXpXpXpXpXpXpXpXpXpXpXpXpXpXpXpXpXpXpXpXpXpXpXpXpXpXpXpXpXpXpXpXpXpXpXpXpXpXpXpXpXpXpX",
"pXpXpXpXpXpXpXpXpXpXpXpXpXpXpXpXpXpXpXpXpXpXpXpXpXpXpXpXpXpXpXpXpXpXpXpXpXpXpXpXpXpXpXpXpXpXpXpXpXpXpXpXpXpXpXpXpXpXpXpXpXpXpXpX",
"pXpXpXpXpXpXpXpXpXpXpXpXpXpXpXpXpXpXpXpXpXpXpXpXpXpXpXpXpXpXpXpXpXpXpXpXpXpXpXpXpXpXpXpXpXpXpXpXpXpXpXpXpXpXpXpXpXpXpXpXpXpXpXpX",
"pXpXpXpXpXpXpXpXpXpXpXpXpXpXpXpXpXpXpXpXpXpXpXpXpXpXpXpXpXpXpXpXpXpXpXpXpXpXpXpXpXpXpXpXpXpXpXpXpXpXpXpXpXpXpXpXpXpXpXpXpXpXpXpX",
"pXpXpXpXpXpXpXpXpXpXpXpXpXpXpXpXpXpXpXpXpXpXpXpXpXpXpXpXpXpXpXpXpXpXpXpXpXpXpXpXpXpXpXpXpXpXpXpXpXpXpXpXpXpXpXpXpXpXpXpXpXpXpXpX",
"pXpXpXpXpXpXpXpXpXpXpXpXpXpXpXpXpXpXpXpXpXpXpXpXpXpXpXpXpXpXpXpXpXpXpXpXpXpXpXpXpXpXpXpXpXpXpXpXpXpXpXpXpXpXpXpXpXpXpXpXpXpXpXpX",
"pXpXpXpXpXpXpXpXpXpXpXpXpXpXpXpXpXpXpXpXpXpXpXpXpXpXpXpXpXpXpXpXpXpXpXpXpXpXpXpXpXpXpXpXpXpXpXpXpXpXpXpXpXpXpXpXpXpXpXpXpXpXpXpX",
"pXpXpXpXpXpXpXpXpXpXpXpXpXpXpXpXpXpXpXpXpXpXpXpXpXpXpXpXpXpXpXpXpXpXpXpXpXpXpXpXpXpXpXpXpXpXpXpXpXpXpXpXpXpXpXpXpXpXpXpXpXpXpXpX"
};
