/* XPM */
static const char *exit_1[] = {
/* columns rows colors chars-per-pixel */
"64 64 216 2 ",
"   c #AB3D2E",
".  c #A6372F",
"X  c #B33E2F",
"o  c #AB3634",
"O  c #A63931",
"+  c #AC3C32",
"@  c #AE3A39",
"#  c #AC363A",
"$  c #B33D34",
"%  c #B93D33",
"&  c #BA3B3D",
"*  c #B3383C",
"=  c #AC4526",
"-  c #AD422C",
";  c #AF4927",
":  c #B24A25",
">  c #B2442C",
",  c #B9442D",
"<  c #B5492B",
"1  c #BB4C2C",
"2  c #B84E26",
"3  c #BE522D",
"4  c #BD5127",
"5  c #B34232",
"6  c #BB4334",
"7  c #BC4C32",
"8  c #BC4239",
"9  c #BE5231",
"0  c #C3542D",
"q  c #C7582E",
"w  c #C95A2E",
"e  c #C8552D",
"r  c #C24433",
"t  c #C44A33",
"y  c #C4433D",
"u  c #CB453C",
"i  c #CC4B3C",
"p  c #C94836",
"a  c #D34B3C",
"s  c #D84B3D",
"d  c #C45532",
"f  c #CB5135",
"g  c #CB5B33",
"h  c #D25F34",
"j  c #D75439",
"k  c #E14E3F",
"l  c #E25B3C",
"z  c #E0533D",
"x  c #D1612F",
"c  c #CD6034",
"v  c #D46334",
"b  c #DB6B36",
"n  c #DC6D3A",
"m  c #D66637",
"M  c #DD723D",
"N  c #E36C3B",
"B  c #F0683F",
"V  c #E3743C",
"C  c #E97C3E",
"Z  c #E4773B",
"A  c #BA3841",
"S  c #C73D48",
"D  c #C54342",
"F  c #CE444C",
"G  c #D54B44",
"H  c #DB4C43",
"J  c #D64648",
"K  c #DA4552",
"L  c #DE5448",
"P  c #E24D4E",
"I  c #E4534B",
"U  c #EC564A",
"Y  c #E85547",
"T  c #F65B4E",
"R  c #E14D57",
"E  c #E45251",
"W  c #EC5B54",
"Q  c #E75850",
"!  c #F25D53",
"~  c #F35C5B",
"^  c #F36547",
"/  c #EA7D41",
"(  c #E97647",
")  c #FA774A",
"_  c #EE6256",
"`  c #F8625B",
"'  c #FB6C5B",
"]  c #F66558",
"[  c #F87757",
"{  c #E66A44",
"}  c #EB5568",
"|  c #F85D64",
" . c #F65B78",
".. c #F46266",
"X. c #FA6C63",
"o. c #F96568",
"O. c #FC7B66",
"+. c #FD7D6C",
"@. c #FA7265",
"#. c #F46776",
"$. c #FE7D75",
"%. c #FB7579",
"&. c #E68143",
"*. c #EB8443",
"=. c #ED8A44",
"-. c #EC8B49",
";. c #F18C45",
":. c #F28C49",
">. c #EE934B",
",. c #EC9C4E",
"<. c #E79F4F",
"1. c #F3934A",
"2. c #F59B4D",
"3. c #F59749",
"4. c #FC8757",
"5. c #ED9D51",
"6. c #F49E51",
"7. c #F89D50",
"8. c #ECA44F",
"9. c #E5A74F",
"0. c #F8A34F",
"q. c #F7A44F",
"w. c #EBA251",
"e. c #E5A954",
"r. c #EDAA55",
"t. c #EBAE58",
"y. c #E6A253",
"u. c #F5A351",
"i. c #F4AB54",
"p. c #F9AC55",
"a. c #F6AB56",
"s. c #EDB359",
"d. c #EDB557",
"f. c #F5B155",
"g. c #F5B459",
"h. c #F8B359",
"j. c #F2B95B",
"k. c #F8B658",
"l. c #FD837B",
"z. c #FD8876",
"x. c #FE9775",
"c. c #FE917D",
"v. c #FE9E77",
"b. c #FD9069",
"n. c #FFA27E",
"m. c #FDA871",
"M. c #FD7887",
"N. c #FE8486",
"B. c #FD8B81",
"V. c #FE9989",
"C. c #FE8A99",
"Z. c #FE9595",
"A. c #FEA38D",
"S. c #FEA786",
"D. c #FEAC9C",
"F. c #FEA099",
"G. c #FFBC93",
"H. c #FFBC9B",
"J. c #FFB398",
"K. c #FEB889",
"L. c #FE98A9",
"P. c #FFACA5",
"I. c #FEA4A7",
"U. c #FFBDAC",
"Y. c #FEB5A4",
"T. c #FFACB1",
"R. c #FFBDB3",
"E. c #FFC393",
"W. c #FFD49C",
"Q. c #FFC6A9",
"!. c #FED1A5",
"~. c #FECABA",
"^. c #FFC8B6",
"/. c #FFD4BD",
"(. c #FFDBBF",
"). c #FFD7B2",
"_. c #FFE3A8",
"`. c #FFF1AD",
"'. c #FFE7BC",
"]. c #FFEDBA",
"[. c #FFEAB6",
"{. c #FFF3B9",
"}. c #FFFBBB",
"|. c #FFF1B5",
" X c #FFB3C4",
".X c #FFD5C4",
"XX c #FFDDC5",
"oX c #FFDECB",
"OX c #FFC7D8",
"+X c #FFD7DB",
"@X c #FFEFC5",
"#X c #FFE6C9",
"$X c #FFEBCD",
"%X c #FFE1C4",
"&X c #FFF5C3",
"*X c #FFFBC4",
"=X c #FFF4CB",
"-X c #FFFBCD",
";X c #FFE6D4",
":X c #FFEDD9",
">X c #FFE8D7",
",X c #FFF5D5",
"<X c #FFFDD4",
"1X c #FFFDDC",
"2X c #FFDAEB",
"3X c #FFECE3",
"4X c #FFF3E2",
"5X c #FFFDE4",
"6X c #FFF5EC",
"7X c #FFFDED",
"8X c #FFE6F4",
"9X c #FFF2F7",
"0X c #FFFEF4",
"qX c #FFFEFA",
"wX c #FF00FF",
"eX c black",
/* pixels */
"wXwXwXwXwXwXwXwXwXwXwXwXwXwXwXwXwXwXwXwXwXwXwXwXwXwXwXwXwXwXwXwXwXwXwXwXwXwXwXwXwXwXwXwXwXwXwXwXwXwXwXwXwXwXwXwXwXwXwXwXwXwXwXwX",
"wXwXwXwXwXwXwXwXwXwXwXwXwXwXwXwXwXwXwXwXwXwXwXwXwXwXwXwXwXwXwXwXwXwXwXwXwXwXwXwXwXwXwXwXwXwXwXwXwXwXwXwXwXwXwXwXwXwXwXwXwXwXwXwX",
"wXwXwXwXwXwXwXwXwXwXwXwXwXwXwXwXwXwXwXwXwXwXwXwXwXwXwXwXwXwXwXwXwXwXwXwXwXwXwXwXwXwXwXwXwXwXwXwXwXwXwXwXwXwXwXwXwXwXwXwXwXwXwXwX",
"wXwXwXwXwXwXwXwXwXwXwXwXwXwXwXwXwXwXwXwXwXwXwXwXwXwXwXwXwXwXwXwXwXwXwXwXwXwXwXwXwXwXwXwXwXwXwXwXwXwXwXwXwXwXwXwXwXwXwXwXwXwXwXwX",
"wXwXwXwXwXwXwXwXwXwXwXwXwXwXwXwXwXwXwXwXwXwXwXwXwXwXwXwXwXwXwXwXwXwXwXwXwXwXwXwXwXwXwXwXwXwXwXwXwXwXwXwXwXwXwXwXwXwXwXwXwXwXwXwX",
"wXwXwXwXwXwXwXwXwXwXwXwXwXwXwXwXwXwXwXwXwXwXwXwXwXwXwXwXwXwXwXwXwXwXwXwXwXwXwXwXwXwXwXwXwXwXwXwXwXwXwXwXwXwXwXwXwXwXwXwXwXwXwXwX",
"wXwXwXwXwXwXwXwXwXwXwXwXwXwXwXwXwXwXwXwXwXwXwXwXwXwXwXwXwXwXwXwXwXwXwXwXwXwXwXwXwXwXwXwXwXwXwXwXwXwXwXwXwXwXwXwXwXwXwXwXwXwXwXwX",
"wXwXwXwXwXwXwXwXwXwXwXwXwXwXwXwXwXwXwXwXwXwXwXwXwXwXwXwXwXwXwXwXwXwXwXwXwXwXwXwXwXwXwXwXwXwXwXwXwXwXwXwXwXwXwXwXwXwXwXwXwXwXwXwX",
"wXwXwXwXwXwXwXwXwXwXwXwXwXwXwXwXwXwXwXwXwXwXwXwXwXwXwXwXwXwXwXwXwXwXwXwXwXwXwXwXwXwXwXwXwXwXwXwXwXwXwXwXwXwXwXwXwXwXwXwXwXwXwXwX",
"wXwXwXwXwXwXwXwXwXwXwXwXwXwXwXwXwXwXwXwXwXwXwXwXwXwXwXwXwXwXwXwXwXwXwXwXwXwXwXwXwXwXwXwXwXwXwXwXwXwXwXwXwXwXwXwXwXwXwXwXwXwXwXwX",
"wXwXwXwXwXwXwXwXwXwXwXwXwXwXwXwXwXwXwXwXwXwXe.e.e.wXwXwXwXwXwXwXwXwXwXwXwXwXwXwXwXwXwXwXwXwXwXwXwXwXwXwXwXwXwXwXwXwXwXwXwXwXwXwX",
"wXwXwXwXwXwXwXwXwXwXwXwXwXwXwXwXwXwXwXd.j.g.g.h.h.g.g.r.wXwXwXwXwXwXwXwXwXwXwXwXwXwXwXwXwXwXwXwXwXwXwXwXwXwXwXwXwXwXwXwXwXwXwXwX",
"wXwXwXwXwXwXwXwXwXwXwXwXwXwXwXwXwXs.j.k.p.2.;.;.;.1.2.u.i.r.wXwXwXwXwXwXwXwXwXwXwXwXwXwXwXwXwXwXwXwXwXwXwXwXwXwXwXwXwXwXwXwXwXwX",
"wXwXwXwXwXwXwXwXwXwXwXwXwXwXwXwXj.k.q.;.Z v g q q w m Z 1.u.i.wXwXwXwXwXwXwXwXwXwXwXwXwXwXwXwXwXwXwXwXwXwXwXwXwXwXwXwXwXwXwXwXwX",
"wXwXwXwXwXwXwXwXwXwXwXwXwXwXwXj.h.3.V g 1 > - - - = < 3 v C 3.u.wXwXwXwXwXwXwXwXwXwXwXwXwXwXwXwXwXwXwXwXwXwXwXwXwXwXwXwXwXwXwXwX",
"wXwXwXwXwXwXwXwXwXwXwXwXwXwXj.h.;.m 1 > - > 5 5 + + - - < 0 n 1.u.wXwXwXwXwXwXwXwXwXwXwXwXwXwXwXwXwXwXwXwXwXwXwXwXwXwXwXwXwXwXwX",
"wXwXwXwXwXwXwXwXwXwXwXwXwXs.h.:.h 1 - - > 5 7 r $ $ $ 5 - ; 0 b :.u.wXwXwXwXwXwXwXwXwXwXwXwXwXwXwXwXwXwXwXwXwXwXwXwXwXwXwXwXwXwX",
"wXwXwXwXwXwXwXwXwXwXwXwXt.h.1.v < - - > 6 8 a j u y y 8 5 > < 1 n 1.5.wXwXwXwXwXwXwXwXwXwXwXwXwXwXwXwXwXwXwXwXwXwXwXwXwXwXwXwXwX",
"wXwXwXwXwXwXwXwXwXwXwXwXj.6.b 1 -   $ 8 i G U ^ I I I H y 8 > - 3 V 2.wXwXwXwXwXwXwXwXwXwXwXwXwXwXwXwXwXwXwXwXwXwXwXwXwXwXwXwXwX",
"wXwXwXwXwXwXwXwXwXwXwXs.a./ 0 < 5 $ y G W ] O.+.@.X.' ! I G 8 + - g *.2.wXwXwXwXwXwXwXwXwXwXwXwXwXwXwXwXwXwXwXwXwXwXwXwXwXwXwXwX",
"wXwXwXwXwXwXwXwXwXwXwXg.2.v < < 8 u H U ' O.x.S.A.V.c.+.X.E D 8 - < n 1.wXwXwXwXwXwXwXwXwXwXwXwXwXwXwXwXwXwXwXwXwXwXwXwXwXwXwXwX",
"wXwXwXwXwXwXwXwXwXwXt.p./ e 1 t a I U T ' b.S.H.Q.Q.Y.A.z...R D +   d *.,.wXwXwXwXwXwXwXwXwXwXwXwXwXwXwXwXwXwXwXwXwXwXwXwXwXwXwX",
"wXwXwXwXwXwXwXwXwXwXg.2.m 1 0 j l ^ ^ ' +.V.Q.(.#XoX.X^.D.l...F * O < M 2.wXwXwXwXwXwXwXwXwXwXwXwXwXwXwXwXwXwXwXwXwXwXwXwXwXwXwX",
"wXwXwXwXwXwXwXwXwXwXi.=.d < f l B ) 4.x.D.~.;X4X6X3X3X;X~.F.%.R A + > v 1.wXwXwXwXwXwXwXwXwXwXwXwXwXwXwXwXwXwXwXwXwXwXwXwXwXwXwX",
"wXwXwXwXwXwXwXwXwXr.a.Z 1 - 8 j ^ ) m.!.%X#X=X5X0XqXqX6X+XT.M.} S $ - d &.,.wXwXwXwXwXwXwXwXwXwXwXwXwXwXwXwXwXwXwXwXwXwXwXwXwXwX",
"wXwXwXwXwXwXwXwXwXi.2.v < + $ p B 4.K.'.&X|.{.<X0XqXqXqX2X XC. .K & - < M >.wXwXwXwXwXwXwXwXwXwXwXwXwXwXwXwXwXwXwXwXwXwXwXwXwXwX",
"wXwXwXwXwXwXwXwXwXi.;.w < 5 8 p { b.G._.}.*X-X1X7X0XqXqX8XOXL.M.} D $ > m >.wXwXwXwXwXwXwXwXwXwXwXwXwXwXwXwXwXwXwXwXwXwXwXwXwXwX",
"wXwXwXwXwXwXwXwXwXi.*.0 > 5 6 f ( v.E._.*X5X5X<X5X0XqX0X9X2X XC.#.F $ - c -.wXwXwXwXwXwXwXwXwXwXwXwXwXwXwXwXwXwXwXwXwXwXwXwXwXwX",
"wXwXwXwXwXwXwXwXy.u.Z 1 > , t j [ v.W.`.<X7X7X1X5X0X0X7X0X8XOXL.#.S $ - g =.,.wXwXwXwXwXwXwXwXwXwXwXwXwXwXwXwXwXwXwXwXwXwXwXwXwX",
"wXwXwXwXwXwXwXwXw.u.V 1 - , t l [ n.W.}.1X7X7X7X0X0X7X5X7X9X+XI.#.F % > 0 *.,.wXwXwXwXwXwXwXwXwXwXwXwXwXwXwXwXwXwXwXwXwXwXwXwXwX",
"wXwXwXwXwXwXwXwXw.2.b <   X r l [ n.W.{.1X1X5X0XqXqX7X7X0X9X+XT.%.E r > 0 &.,.wXwXwXwXwXwXwXwXwXwXwXwXwXwXwXwXwXwXwXwXwXwXwXwXwX",
"wXwXwXwXwXwXwXwXw.2.b <   $ r z ' c.E.|.&X}.-X7XqXqX0X0X0X9X>XR.N.W p < 3 &.,.wXwXwXwXwXwXwXwXwXwXwXwXwXwXwXwXwXwXwXwXwXwXwXwXwX",
"wXwXwXwXwXwXwXwX8.2.b < . o % s ` $.G.].&X}.}.1XqXqX0X0X0XqX:X^.B._ i < 0 &.,.wXwXwXwXwXwXwXwXwXwXwXwXwXwXwXwXwXwXwXwXwXwXwXwXwX",
"wXwXwXwXwXwXwXwXw.2.b > . o % H ` $.H.].=X}.}.<X0XqX5X5X0X6X>XY.$.! j 1 0 &.5.wXwXwXwXwXwXwXwXwXwXwXwXwXwXwXwXwXwXwXwXwXwXwXwXwX",
"wXwXwXwXwXwXwXwXw.2.n > O o % H ` $.H.].@X@X*X1X0X0X5X1X6X4XXXP.%.I p > 9 &.5.wXwXwXwXwXwXwXwXwXwXwXwXwXwXwXwXwXwXwXwXwXwXwXwXwX",
"wXwXwXwXwXwXwXwX<.6.V < O o 8 H ] +.J.[.@X$X-X5X0XqX0X7X7X:X~.Z...G %   d -.wXwXwXwXwXwXwXwXwXwXwXwXwXwXwXwXwXwXwXwXwXwXwXwXwXwX",
"wXwXwXwXwXwXwXwXwXu./ 7   + 6 s T @.A.).#X:X1X5X0X0XqX0X5X@XU.N.` G $ + g >.wXwXwXwXwXwXwXwXwXwXwXwXwXwXwXwXwXwXwXwXwXwXwXwXwXwX",
"wXwXwXwXwXwXwXwXwXu.=.d -   $ i U ' B.U.XX:X6X7X0X0X0X5X=X%XP.$.! a $ + m ,.wXwXwXwXwXwXwXwXwXwXwXwXwXwXwXwXwXwXwXwXwXwXwXwXwXwX",
"wXwXwXwXwXwXwXwXwXu.1.v -   X r k ! $.D./.;X6X0X7X0X7X1X$X~.V.X.Y u @ 5 M 5.wXwXwXwXwXwXwXwXwXwXwXwXwXwXwXwXwXwXwXwXwXwXwXwXwXwX",
"wXwXwXwXwXwXwXwXwX8.2.N <   > , a Y X.Z.R..X:X5X5X5X5X,X(.D.$.! J * o 7 &.w.wXwXwXwXwXwXwXwXwXwXwXwXwXwXwXwXwXwXwXwXwXwXwXwXwXwX",
"wXwXwXwXwXwXwXwXwXwXu./ 0 - > , r s ] l.I.R.XX$X,X,X=X'.Q.V.X.P S # + g >.wXwXwXwXwXwXwXwXwXwXwXwXwXwXwXwXwXwXwXwXwXwXwXwXwXwXwX",
"wXwXwXwXwXwXwXwXwXwXu.:.h > - > , p Y X.N.I.R.~./.(.).Q.A.+.~ F * o < n 6.wXwXwXwXwXwXwXwXwXwXwXwXwXwXwXwXwXwXwXwXwXwXwXwXwXwXwX",
"wXwXwXwXwXwXwXwXwXwX,.6.Z 1 - - > 6 a U o.M.Z.P.P.Y.J.S.z.X.E D @ + d -.r.wXwXwXwXwXwXwXwXwXwXwXwXwXwXwXwXwXwXwXwXwXwXwXwXwXwXwX",
"wXwXwXwXwXwXwXwXwXwXwXu.:.h < - < , r a W | %.N.N.N.B.z.@.Q G 8 + < n 6.wXwXwXwXwXwXwXwXwXwXwXwXwXwXwXwXwXwXwXwXwXwXwXwXwXwXwXwX",
"wXwXwXwXwXwXwXwXwXwXwX,.7.C 0 = = < , r a P ~ o.| | ' _ L u 6 5 > g -.i.wXwXwXwXwXwXwXwXwXwXwXwXwXwXwXwXwXwXwXwXwXwXwXwXwXwXwXwX",
"wXwXwXwXwXwXwXwXwXwXwXwXu.3.m < = : < 6 8 y H E K K I H y 8 5 > d / i.wXwXwXwXwXwXwXwXwXwXwXwXwXwXwXwXwXwXwXwXwXwXwXwXwXwXwXwXwX",
"wXwXwXwXwXwXwXwXwXwXwXwX,.u.;.v 2 : : < $ $ 8 8 & & D y $ + > 1 n 2.s.wXwXwXwXwXwXwXwXwXwXwXwXwXwXwXwXwXwXwXwXwXwXwXwXwXwXwXwXwX",
"wXwXwXwXwXwXwXwXwXwXwXwXwX,.0.*.x 2 : : - + $ $ @ o @ $ + - 1 b 1.i.wXwXwXwXwXwXwXwXwXwXwXwXwXwXwXwXwXwXwXwXwXwXwXwXwXwXwXwXwXwX",
"wXwXwXwXwXwXwXwXwXwXwXwXwXwX8.q.=.v 4 ; = -     + + O + > 0 M 3.f.wXwXwXwXwXwXwXwXwXwXwXwXwXwXwXwXwXwXwXwXwXwXwXwXwXwXwXwXwXwXwX",
"wXwXwXwXwXwXwXwXwXwXwXwXwXwXwX8.q.;.N w 2 ; = = - - - 1 g C 0.g.wXwXwXwXwXwXwXwXwXwXwXwXwXwXwXwXwXwXwXwXwXwXwXwXwXwXwXwXwXwXwXwX",
"wXwXwXwXwXwXwXwXwXwXwXwXwXwXwXwX8.p.7.=.V x w q 0 w v V 1.p.j.wXwXwXwXwXwXwXwXwXwXwXwXwXwXwXwXwXwXwXwXwXwXwXwXwXwXwXwXwXwXwXwXwX",
"wXwXwXwXwXwXwXwXwXwXwXwXwXwXwXwXwX8.i.p.0.3.;.=.;.;.2.a.g.s.wXwXwXwXwXwXwXwXwXwXwXwXwXwXwXwXwXwXwXwXwXwXwXwXwXwXwXwXwXwXwXwXwXwX",
"wXwXwXwXwXwXwXwXwXwXwXwXwXwXwXwXwXwXwX8.i.f.f.f.k.g.g.t.wXwXwXwXwXwXwXwXwXwXwXwXwXwXwXwXwXwXwXwXwXwXwXwXwXwXwXwXwXwXwXwXwXwXwXwX",
"wXwXwXwXwXwXwXwXwXwXwXwXwXwXwXwXwXwXwXwXwXwX9.9.e.wXwXwXwXwXwXwXwXwXwXwXwXwXwXwXwXwXwXwXwXwXwXwXwXwXwXwXwXwXwXwXwXwXwXwXwXwXwXwX",
"wXwXwXwXwXwXwXwXwXwXwXwXwXwXwXwXwXwXwXwXwXwXwXwXwXwXwXwXwXwXwXwXwXwXwXwXwXwXwXwXwXwXwXwXwXwXwXwXwXwXwXwXwXwXwXwXwXwXwXwXwXwXwXwX",
"wXwXwXwXwXwXwXwXwXwXwXwXwXwXwXwXwXwXwXwXwXwXwXwXwXwXwXwXwXwXwXwXwXwXwXwXwXwXwXwXwXwXwXwXwXwXwXwXwXwXwXwXwXwXwXwXwXwXwXwXwXwXwXwX",
"wXwXwXwXwXwXwXwXwXwXwXwXwXwXwXwXwXwXwXwXwXwXwXwXwXwXwXwXwXwXwXwXwXwXwXwXwXwXwXwXwXwXwXwXwXwXwXwXwXwXwXwXwXwXwXwXwXwXwXwXwXwXwXwX",
"wXwXwXwXwXwXwXwXwXwXwXwXwXwXwXwXwXwXwXwXwXwXwXwXwXwXwXwXwXwXwXwXwXwXwXwXwXwXwXwXwXwXwXwXwXwXwXwXwXwXwXwXwXwXwXwXwXwXwXwXwXwXwXwX",
"wXwXwXwXwXwXwXwXwXwXwXwXwXwXwXwXwXwXwXwXwXwXwXwXwXwXwXwXwXwXwXwXwXwXwXwXwXwXwXwXwXwXwXwXwXwXwXwXwXwXwXwXwXwXwXwXwXwXwXwXwXwXwXwX",
"wXwXwXwXwXwXwXwXwXwXwXwXwXwXwXwXwXwXwXwXwXwXwXwXwXwXwXwXwXwXwXwXwXwXwXwXwXwXwXwXwXwXwXwXwXwXwXwXwXwXwXwXwXwXwXwXwXwXwXwXwXwXwXwX",
"wXwXwXwXwXwXwXwXwXwXwXwXwXwXwXwXwXwXwXwXwXwXwXwXwXwXwXwXwXwXwXwXwXwXwXwXwXwXwXwXwXwXwXwXwXwXwXwXwXwXwXwXwXwXwXwXwXwXwXwXwXwXwXwX",
"wXwXwXwXwXwXwXwXwXwXwXwXwXwXwXwXwXwXwXwXwXwXwXwXwXwXwXwXwXwXwXwXwXwXwXwXwXwXwXwXwXwXwXwXwXwXwXwXwXwXwXwXwXwXwXwXwXwXwXwXwXwXwXwX",
"wXwXwXwXwXwXwXwXwXwXwXwXwXwXwXwXwXwXwXwXwXwXwXwXwXwXwXwXwXwXwXwXwXwXwXwXwXwXwXwXwXwXwXwXwXwXwXwXwXwXwXwXwXwXwXwXwXwXwXwXwXwXwXwX",
"wXwXwXwXwXwXwXwXwXwXwXwXwXwXwXwXwXwXwXwXwXwXwXwXwXwXwXwXwXwXwXwXwXwXwXwXwXwXwXwXwXwXwXwXwXwXwXwXwXwXwXwXwXwXwXwXwXwXwXwXwXwXwXwX"
};
