/* XPM */
static const char *exit_6[] = {
/* columns rows colors chars-per-pixel */
"64 64 218 2 ",
"   c #A73C2E",
".  c #AB3D2D",
"X  c #B23D2E",
"o  c #AC3B33",
"O  c #A93836",
"+  c #B23D34",
"@  c #BB3D31",
"#  c #B43B3B",
"$  c #BA3B3C",
"%  c #AC4626",
"&  c #AD422C",
"*  c #AF4923",
"=  c #B44C24",
"-  c #B3452C",
";  c #B8422E",
":  c #B5492C",
">  c #BB4B2D",
",  c #BE512D",
"<  c #AD4132",
"1  c #B34232",
"2  c #BB4233",
"3  c #BD4B32",
"4  c #BB4138",
"5  c #B74038",
"6  c #BD5230",
"7  c #C14B2F",
"8  c #C3542D",
"9  c #C5592D",
"0  c #C8582B",
"q  c #C24434",
"w  c #C44A33",
"e  c #CB4B34",
"r  c #C2443A",
"t  c #CC453B",
"y  c #CD4B3B",
"u  c #C54C3C",
"i  c #D44B3E",
"p  c #D5473C",
"a  c #C35431",
"s  c #C75A33",
"d  c #CC5C32",
"f  c #CB5332",
"g  c #D35533",
"h  c #D05A31",
"j  c #D8533A",
"k  c #E55A3B",
"l  c #CF612F",
"z  c #D36334",
"x  c #DA6536",
"c  c #D96A36",
"v  c #DB6C3A",
"b  c #D46639",
"n  c #DC713C",
"m  c #DC7138",
"M  c #E6693B",
"N  c #E2743C",
"B  c #E4793D",
"V  c #E17435",
"C  c #BA3940",
"Z  c #C53D47",
"A  c #CD4940",
"S  c #CD444B",
"D  c #CA4443",
"F  c #D44B43",
"G  c #DB4B44",
"H  c #D8464B",
"J  c #CF5044",
"K  c #DD5347",
"L  c #DA4053",
"P  c #DC5252",
"I  c #E14E4F",
"U  c #E15445",
"Y  c #EB554C",
"T  c #E95749",
"R  c #F65E49",
"E  c #E44A5A",
"W  c #ED5D53",
"Q  c #EA5B56",
"!  c #F35A5A",
"~  c #F36B4B",
"^  c #E37D41",
"/  c #E97C42",
"(  c #EB6255",
")  c #EA6358",
"_  c #F3635A",
"`  c #F66858",
"'  c #FC735B",
"]  c #FA7756",
"[  c #EE7045",
"{  c #EF5961",
"}  c #F45768",
"|  c #F46168",
" . c #F86A67",
".. c #FA736B",
"X. c #FB7A6A",
"o. c #F97764",
"O. c #F66774",
"+. c #FB7777",
"@. c #E58143",
"#. c #EB8543",
"$. c #EC8944",
"%. c #EB8E49",
"&. c #F18C46",
"*. c #F18A47",
"=. c #ED9C4E",
"-. c #EC954B",
";. c #F39346",
":. c #F2924A",
">. c #F59A4D",
",. c #FA8357",
"<. c #EB9C50",
"1. c #F39F51",
"2. c #ECA24E",
"3. c #E6A74E",
"4. c #F4A34F",
"5. c #F8A24F",
"6. c #ECA352",
"7. c #E6AB53",
"8. c #EBAC54",
"9. c #EDAD59",
"0. c #F4A451",
"q. c #F4AB54",
"w. c #F9AB55",
"e. c #F3AE59",
"r. c #F8AF58",
"t. c #F9A552",
"y. c #EDB359",
"u. c #ECB357",
"i. c #F5B356",
"p. c #F4B459",
"a. c #F9B559",
"s. c #F3B95B",
"d. c #F8B458",
"f. c #FD8A6A",
"g. c #FC847B",
"h. c #FD8B7C",
"j. c #FC8973",
"k. c #FC917D",
"l. c #FE9974",
"z. c #FA9968",
"x. c #FFA878",
"c. c #FD7B86",
"v. c #FE788A",
"b. c #FE8A85",
"n. c #FE9483",
"m. c #FE9D8D",
"M. c #FF9889",
"N. c #FE8997",
"B. c #FE9E93",
"V. c #FE9C9C",
"C. c #FE979D",
"Z. c #FEB888",
"A. c #FEA699",
"S. c #FFB29D",
"D. c #FEB899",
"F. c #FEAA8D",
"G. c #FF97A2",
"H. c #FE87B2",
"J. c #FFA8A8",
"K. c #FEBBA3",
"L. c #FFBDAA",
"P. c #FEB0AD",
"I. c #FFB4BC",
"U. c #FFBDB5",
"Y. c #FFC78A",
"T. c #FFD391",
"R. c #FFD999",
"E. c #FFE89C",
"W. c #FFC5A8",
"Q. c #FFDDAC",
"!. c #FFD8A9",
"~. c #FFC3B2",
"^. c #FFCAB8",
"/. c #FFD2B5",
"(. c #FFDBB6",
"). c #FFE6A7",
"_. c #FFEEA3",
"`. c #FFEAAA",
"'. c #FFE7BB",
"]. c #FFF6BA",
"[. c #FFF9BC",
"{. c #FFF2B0",
"}. c #FF99C8",
"|. c #FFB4D9",
" X c #FFCBC1",
".X c #FFCFC8",
"XX c #FFDCC5",
"oX c #FFDDC9",
"OX c #FFD1C1",
"+X c #FEC1D2",
"@X c #FFD9D3",
"#X c #FFDCDC",
"$X c #FFE2C4",
"%X c #FFE8C8",
"&X c #FFF4C3",
"*X c #FFFBC5",
"=X c #FFFDCC",
"-X c #FFE4DB",
";X c #FFEFDE",
":X c #FFF5D2",
">X c #FFFDD4",
",X c #FFF5DB",
"<X c #FFFDDD",
"1X c #FFC8E3",
"2X c #FFCDED",
"3X c #FFD9E8",
"4X c #FFEBE2",
"5X c #FFEBEE",
"6X c #FFE5E4",
"7X c #FFFDE4",
"8X c #FFF5EC",
"9X c #FFFDEC",
"0X c #FFF5E2",
"qX c #FFF4F4",
"wX c #FFFEF3",
"eX c #FFFEFA",
"rX c #FF00FF",
"tX c black",
/* pixels */
"rXrXrXrXrXrXrXrXrXrXrXrXrXrXrXrXrXrXrXrXrXrXrXrXrXrXrXrXrXrXrXrXrXrXrXrXrXrXrXrXrXrXrXrXrXrXrXrXrXrXrXrXrXrXrXrXrXrXrXrXrXrXrXrX",
"rXrXrXrXrXrXrXrXrXrXrXrXrXrXrXrXrXrXrXrXrXrXrXrXrXrXrXrXrXrXrXrXrXrXrXrXrXrXrXrXrXrXrXrXrXrXrXrXrXrXrXrXrXrXrXrXrXrXrXrXrXrXrXrX",
"rXrXrXrXrXrXrXrXrXrXrXrXrXrXrXrXrXrXrXrXrXrXrXrXrXrXrXrXrXrXrXrXrXrXrXrXrXrXrXrXrXrXrXrXrXrXrXrXrXrXrXrXrXrXrXrXrXrXrXrXrXrXrXrX",
"rXrXrXrXrXrXrXrXrXrXrXrXrXrXrXrXrXrXrXrXrXrXrXrXrXrXrXrXrXrXrXrXrXrXrXrXrXrXrXrXrXrXrXrXrXrXrXrXrXrXrXrXrXrXrXrXrXrXrXrXrXrXrXrX",
"rXrXrXrXrXrXrXrXrXrXrXrXrXrXrXrXrXrXrXrXrXrXrXrXrXrXrXrXrXrXrXrXrXrXrXrXrXrXrXrXrXrXrXrXrXrXrXrXrXrXrXrXrXrXrXrXrXrXrXrXrXrXrXrX",
"rXrXrXrXrXrXrXrXrXrXrXrXrXrXrXrXrXrXrXrXrXrXrXrXrXrXrXrXrXrXrXrXrXrXrXrXrXrXrXrXrXrXrXrXrXrXrXrXrXrXrXrXrXrXrXrXrXrXrXrXrXrXrXrX",
"rXrXrXrXrXrXrXrXrXrXrXrXrXrXrXrXrXrXrXrXrXrXrXrXrXrXrXrXrXrXrXrXrXrXrXrXrXrXrXrXrXrXrXrXrXrXrXrXrXrXrXrXrXrXrXrXrXrXrXrXrXrXrXrX",
"rXrXrXrXrXrXrXrXrXrXrXrXrXrXrXrXrXrXrXrXrXrXrXrXrXrXrXrXrXrXrXrXrXrXrXrXrXrXrXrXrXrXrXrXrXrXrXrXrXrXrXrXrXrXrXrXrXrXrXrXrXrXrXrX",
"rXrXrXrXrXrXrXrXrXrXrXrXrXrXrXrXrXrXrXrXrXrXrXrXrXrXrXrXrXrXrXrXrXrXrXrXrXrXrXrXrXrXrXrXrXrXrXrXrXrXrXrXrXrXrXrXrXrXrXrXrXrXrXrX",
"rXrXrXrXrXrXrXrXrXrXrXrXrXrXrXrXrXrXrXrXrXrXrXrXrXrXrXrXrXrXrXrXrXrXrXrXrXrXrXrXrXrXrXrXrXrXrXrXrXrXrXrXrXrXrXrXrXrXrXrXrXrXrXrX",
"rXrXrXrXrXrXrXrXrXrXrXrXrXrXrXrXrXrXrXrXrXrX7.7.7.rXrXrXrXrXrXrXrXrXrXrXrXrXrXrXrXrXrXrXrXrXrXrXrXrXrXrXrXrXrXrXrXrXrXrXrXrXrXrX",
"rXrXrXrXrXrXrXrXrXrXrXrXrXrXrXrXrXrXrXu.s.s.d.d.d.i.i.8.rXrXrXrXrXrXrXrXrXrXrXrXrXrXrXrXrXrXrXrXrXrXrXrXrXrXrXrXrXrXrXrXrXrXrXrX",
"rXrXrXrXrXrXrXrXrXrXrXrXrXrXrXrXrXu.s.d.t.>.&.*.&.&.>.t.q.8.rXrXrXrXrXrXrXrXrXrXrXrXrXrXrXrXrXrXrXrXrXrXrXrXrXrXrXrXrXrXrXrXrXrX",
"rXrXrXrXrXrXrXrXrXrXrXrXrXrXrXrXs.a.t.&.N x h f 0 d z N &.0.q.rXrXrXrXrXrXrXrXrXrXrXrXrXrXrXrXrXrXrXrXrXrXrXrXrXrXrXrXrXrXrXrXrX",
"rXrXrXrXrXrXrXrXrXrXrXrXrXrXrXs.a.:.N h > : : & . & - > d B >.0.rXrXrXrXrXrXrXrXrXrXrXrXrXrXrXrXrXrXrXrXrXrXrXrXrXrXrXrXrXrXrXrX",
"rXrXrXrXrXrXrXrXrXrXrXrXrXrXs.r.$.z > - & & : < o o o . - 8 m ;.4.rXrXrXrXrXrXrXrXrXrXrXrXrXrXrXrXrXrXrXrXrXrXrXrXrXrXrXrXrXrXrX",
"rXrXrXrXrXrXrXrXrXrXrXrXrXs.r.#.d - & & 1 1 3 1 o o o o & & , c &.0.rXrXrXrXrXrXrXrXrXrXrXrXrXrXrXrXrXrXrXrXrXrXrXrXrXrXrXrXrXrX",
"rXrXrXrXrXrXrXrXrXrXrXrXy.d.&.d - . o + + r y r $ 5 5 5 1 - & > v :.2.rXrXrXrXrXrXrXrXrXrXrXrXrXrXrXrXrXrXrXrXrXrXrXrXrXrXrXrXrX",
"rXrXrXrXrXrXrXrXrXrXrXrXp.>.c : . + + $ F U W Y I K F y r 4 o . , B >.rXrXrXrXrXrXrXrXrXrXrXrXrXrXrXrXrXrXrXrXrXrXrXrXrXrXrXrXrX",
"rXrXrXrXrXrXrXrXrXrXrXy.w./ 8 & o 5 t G T ` ' X... ._ ( K y # o & d #.>.rXrXrXrXrXrXrXrXrXrXrXrXrXrXrXrXrXrXrXrXrXrXrXrXrXrXrXrX",
"rXrXrXrXrXrXrXrXrXrXrXp.>.x > 1 + r j T R ' f.n.M.b.g.j.` T A # . - v :.rXrXrXrXrXrXrXrXrXrXrXrXrXrXrXrXrXrXrXrXrXrXrXrXrXrXrXrX",
"rXrXrXrXrXrXrXrXrXrX9.w.#.h > 3 w e k R ' j.m.S.J.G.V.B.h.o.T D O   a #.=.rXrXrXrXrXrXrXrXrXrXrXrXrXrXrXrXrXrXrXrXrXrXrXrXrXrXrX",
"rXrXrXrXrXrXrXrXrXrXe.>.x 8 7 w g k ~ o.n.K.^.XX.XI.I.U.S.k._ S # O : n >.rXrXrXrXrXrXrXrXrXrXrXrXrXrXrXrXrXrXrXrXrXrXrXrXrXrXrX",
"rXrXrXrXrXrXrXrXrXrXe.#.a - 3 g k [ z.F.W.(.%X:X4X#X#X@X XA.O.E Z O - z :.rXrXrXrXrXrXrXrXrXrXrXrXrXrXrXrXrXrXrXrXrXrXrXrXrXrXrX",
"rXrXrXrXrXrXrXrXrX9.t.n : o 3 g M ,.Z.!.Q.`.].>X9X8X8X8X-XI.c.{ Z # . 8 @.=.rXrXrXrXrXrXrXrXrXrXrXrXrXrXrXrXrXrXrXrXrXrXrXrXrXrX",
"rXrXrXrXrXrXrXrXrXe.>.z & o 2 f [ f.Y.E._.{.=X7X9X7X9XwX5X+XN.} L $ . > N >.rXrXrXrXrXrXrXrXrXrXrXrXrXrXrXrXrXrXrXrXrXrXrXrXrXrX",
"rXrXrXrXrXrXrXrXrXq.&.s - 1 1 e ~ f.Z.E.[.<X7X9X9X9X9XwXqX1XH.O.E Z + : c :.rXrXrXrXrXrXrXrXrXrXrXrXrXrXrXrXrXrXrXrXrXrXrXrXrXrX",
"rXrXrXrXrXrXrXrXrXq.@.a - > 7 j ] l.Y._.>X9X9X7X9X9XwXwXqX2X}.v.| S + - z :.rXrXrXrXrXrXrXrXrXrXrXrXrXrXrXrXrXrXrXrXrXrXrXrXrXrX",
"rXrXrXrXrXrXrXrX6.t.N > - > f M ,.x.R.].7X9X9X9X7X7X9XwX8X3X|.G.O.S + . s $.rXrXrXrXrXrXrXrXrXrXrXrXrXrXrXrXrXrXrXrXrXrXrXrXrXrX",
"rXrXrXrXrXrXrXrX6.5.N > . ; e k ] l.T.].<X7X9XwX9X7X7X7X0X5X1XJ.+.P r - 9 #.=.rXrXrXrXrXrXrXrXrXrXrXrXrXrXrXrXrXrXrXrXrXrXrXrXrX",
"rXrXrXrXrXrXrXrX6.5.v : . X @ i ` l.T.].>X=X<XwXeXwX<X>X8XqX3XP.h.) y > 9 #.=.rXrXrXrXrXrXrXrXrXrXrXrXrXrXrXrXrXrXrXrXrXrXrXrXrX",
"rXrXrXrXrXrXrXrX6.>.c -   X @ p _ l.R.&X=X=X>XwXeXeX9X7XwXeX6X~.k.) y > 8 @.=.rXrXrXrXrXrXrXrXrXrXrXrXrXrXrXrXrXrXrXrXrXrXrXrXrX",
"rXrXrXrXrXrXrXrX6.>.b &   o @ p _ l.).*X=X*X=X7XeXeXeXwXeXeX6X/.n.) e : , ^ =.rXrXrXrXrXrXrXrXrXrXrXrXrXrXrXrXrXrXrXrXrXrXrXrXrX",
"rXrXrXrXrXrXrXrX6.>.b & . + q U ' x.).'.%X[.*X<XwXeXwX9X9XqX@XK.g.Q w - , ^ =.rXrXrXrXrXrXrXrXrXrXrXrXrXrXrXrXrXrXrXrXrXrXrXrXrX",
"rXrXrXrXrXrXrXrX6.>.v -   1 e T ] x.R.Q.$X&X=X<X7XwXwX9X8X6X XA. .G 2 & 6 @.<.rXrXrXrXrXrXrXrXrXrXrXrXrXrXrXrXrXrXrXrXrXrXrXrXrX",
"rXrXrXrXrXrXrXrX<.>.N :   - w k ~ f.D.W.$X:X<X7X>X7XwXwXwX;X/.m.| G 2 . a #.rXrXrXrXrXrXrXrXrXrXrXrXrXrXrXrXrXrXrXrXrXrXrXrXrXrX",
"rXrXrXrXrXrXrXrXrX1./ > & - 7 p T  .m.W.oX;X7X7X>X<XwXeX9X:X!.n._ i +   s %.rXrXrXrXrXrXrXrXrXrXrXrXrXrXrXrXrXrXrXrXrXrXrXrXrXrX",
"rXrXrXrXrXrXrXrXrX0.#.a & & ; q p ! b.S.OX-X0X7X>X,XwXwX<X'.K.g.W y + o b -.rXrXrXrXrXrXrXrXrXrXrXrXrXrXrXrXrXrXrXrXrXrXrXrXrXrX",
"rXrXrXrXrXrXrXrXrX0.&.z & . X 2 t Y +.S.^.-X9X7X<X<X9X<X&X(.F...G 2 o 1 n <.rXrXrXrXrXrXrXrXrXrXrXrXrXrXrXrXrXrXrXrXrXrXrXrXrXrX",
"rXrXrXrXrXrXrXrXrX=.>.v - . X X q G ..m.W.%X0X0X,X,X,X:X'.K.k._ i # O 3 @.6.rXrXrXrXrXrXrXrXrXrXrXrXrXrXrXrXrXrXrXrXrXrXrXrXrXrX",
"rXrXrXrXrXrXrXrXrX<.1./ , & & ; 2 i _ h.D./.XX%XoXXX$X'.W.M.X.K r o o s -.rXrXrXrXrXrXrXrXrXrXrXrXrXrXrXrXrXrXrXrXrXrXrXrXrXrXrX",
"rXrXrXrXrXrXrXrXrXrX1.&.d & & - ; q U X.m.S.L.~.U.~.L.K.F.X._ F # O 1 n 1.rXrXrXrXrXrXrXrXrXrXrXrXrXrXrXrXrXrXrXrXrXrXrXrXrXrXrX",
"rXrXrXrXrXrXrXrXrXrX<.>.N : & & ; 2 y ( ..b.B.V.C.V.N.n.j.` U A # o s $.q.rXrXrXrXrXrXrXrXrXrXrXrXrXrXrXrXrXrXrXrXrXrXrXrXrXrXrX",
"rXrXrXrXrXrXrXrXrXrXrX0.*.d & % : > q i W ..+.c.c.c.+...X.W F 4 < - n 1.rXrXrXrXrXrXrXrXrXrXrXrXrXrXrXrXrXrXrXrXrXrXrXrXrXrXrXrX",
"rXrXrXrXrXrXrXrXrXrXrX<.>.N , % = : ; w K Y ! | } } { Q ( J 2 1 - s %.e.rXrXrXrXrXrXrXrXrXrXrXrXrXrXrXrXrXrXrXrXrXrXrXrXrXrXrXrX",
"rXrXrXrXrXrXrXrXrXrXrXrX0.:.z = * = : > w t F I H S D A u 3 - - , ^ q.rXrXrXrXrXrXrXrXrXrXrXrXrXrXrXrXrXrXrXrXrXrXrXrXrXrXrXrXrX",
"rXrXrXrXrXrXrXrXrXrXrXrX=.0.*.z = * = > > 1 5 r C # # 1 1 < - 8 N 1.p.rXrXrXrXrXrXrXrXrXrXrXrXrXrXrXrXrXrXrXrXrXrXrXrXrXrXrXrXrX",
"rXrXrXrXrXrXrXrXrXrXrXrXrX2.5.#.l = = = - - 1 1 o O O < < . > N >.p.rXrXrXrXrXrXrXrXrXrXrXrXrXrXrXrXrXrXrXrXrXrXrXrXrXrXrXrXrXrX",
"rXrXrXrXrXrXrXrXrXrXrXrXrXrX4.5.#.z 8 = % & & & o     & & 3 v >.i.rXrXrXrXrXrXrXrXrXrXrXrXrXrXrXrXrXrXrXrXrXrXrXrXrXrXrXrXrXrXrX",
"rXrXrXrXrXrXrXrXrXrXrXrXrXrXrX4.t.;.V 0 = % % & & & & > d B >.i.rXrXrXrXrXrXrXrXrXrXrXrXrXrXrXrXrXrXrXrXrXrXrXrXrXrXrXrXrXrXrXrX",
"rXrXrXrXrXrXrXrXrXrXrXrXrXrXrXrX2.q.>.$.m l 9 8 8 s z N :.q.s.rXrXrXrXrXrXrXrXrXrXrXrXrXrXrXrXrXrXrXrXrXrXrXrXrXrXrXrXrXrXrXrXrX",
"rXrXrXrXrXrXrXrXrXrXrXrXrXrXrXrXrX2.q.w.5.;.$.$.$.&.>.q.p.y.rXrXrXrXrXrXrXrXrXrXrXrXrXrXrXrXrXrXrXrXrXrXrXrXrXrXrXrXrXrXrXrXrXrX",
"rXrXrXrXrXrXrXrXrXrXrXrXrXrXrXrXrXrXrX3.q.i.i.d.i.i.i.8.rXrXrXrXrXrXrXrXrXrXrXrXrXrXrXrXrXrXrXrXrXrXrXrXrXrXrXrXrXrXrXrXrXrXrXrX",
"rXrXrXrXrXrXrXrXrXrXrXrXrXrXrXrXrXrXrXrXrXrX3.3.7.rXrXrXrXrXrXrXrXrXrXrXrXrXrXrXrXrXrXrXrXrXrXrXrXrXrXrXrXrXrXrXrXrXrXrXrXrXrXrX",
"rXrXrXrXrXrXrXrXrXrXrXrXrXrXrXrXrXrXrXrXrXrXrXrXrXrXrXrXrXrXrXrXrXrXrXrXrXrXrXrXrXrXrXrXrXrXrXrXrXrXrXrXrXrXrXrXrXrXrXrXrXrXrXrX",
"rXrXrXrXrXrXrXrXrXrXrXrXrXrXrXrXrXrXrXrXrXrXrXrXrXrXrXrXrXrXrXrXrXrXrXrXrXrXrXrXrXrXrXrXrXrXrXrXrXrXrXrXrXrXrXrXrXrXrXrXrXrXrXrX",
"rXrXrXrXrXrXrXrXrXrXrXrXrXrXrXrXrXrXrXrXrXrXrXrXrXrXrXrXrXrXrXrXrXrXrXrXrXrXrXrXrXrXrXrXrXrXrXrXrXrXrXrXrXrXrXrXrXrXrXrXrXrXrXrX",
"rXrXrXrXrXrXrXrXrXrXrXrXrXrXrXrXrXrXrXrXrXrXrXrXrXrXrXrXrXrXrXrXrXrXrXrXrXrXrXrXrXrXrXrXrXrXrXrXrXrXrXrXrXrXrXrXrXrXrXrXrXrXrXrX",
"rXrXrXrXrXrXrXrXrXrXrXrXrXrXrXrXrXrXrXrXrXrXrXrXrXrXrXrXrXrXrXrXrXrXrXrXrXrXrXrXrXrXrXrXrXrXrXrXrXrXrXrXrXrXrXrXrXrXrXrXrXrXrXrX",
"rXrXrXrXrXrXrXrXrXrXrXrXrXrXrXrXrXrXrXrXrXrXrXrXrXrXrXrXrXrXrXrXrXrXrXrXrXrXrXrXrXrXrXrXrXrXrXrXrXrXrXrXrXrXrXrXrXrXrXrXrXrXrXrX",
"rXrXrXrXrXrXrXrXrXrXrXrXrXrXrXrXrXrXrXrXrXrXrXrXrXrXrXrXrXrXrXrXrXrXrXrXrXrXrXrXrXrXrXrXrXrXrXrXrXrXrXrXrXrXrXrXrXrXrXrXrXrXrXrX",
"rXrXrXrXrXrXrXrXrXrXrXrXrXrXrXrXrXrXrXrXrXrXrXrXrXrXrXrXrXrXrXrXrXrXrXrXrXrXrXrXrXrXrXrXrXrXrXrXrXrXrXrXrXrXrXrXrXrXrXrXrXrXrXrX",
"rXrXrXrXrXrXrXrXrXrXrXrXrXrXrXrXrXrXrXrXrXrXrXrXrXrXrXrXrXrXrXrXrXrXrXrXrXrXrXrXrXrXrXrXrXrXrXrXrXrXrXrXrXrXrXrXrXrXrXrXrXrXrXrX",
"rXrXrXrXrXrXrXrXrXrXrXrXrXrXrXrXrXrXrXrXrXrXrXrXrXrXrXrXrXrXrXrXrXrXrXrXrXrXrXrXrXrXrXrXrXrXrXrXrXrXrXrXrXrXrXrXrXrXrXrXrXrXrXrX"
};
