/* XPM */
static const char *exit_9[] = {
/* columns rows colors chars-per-pixel */
"64 64 218 2 ",
"   c #A73B2E",
".  c #AB3E2D",
"X  c #B23E2D",
"o  c #AD3636",
"O  c #A63A33",
"+  c #AC3C32",
"@  c #A83737",
"#  c #B53D33",
"$  c #BA3E33",
"%  c #B53B3A",
"&  c #BB3F3B",
"*  c #B2373D",
"=  c #AD4425",
"-  c #AD422C",
";  c #B24625",
":  c #B34B24",
">  c #B3442B",
",  c #B9432D",
"<  c #B5492C",
"1  c #BB4C2C",
"2  c #BC5127",
"3  c #AF4231",
"4  c #B34232",
"5  c #BC4432",
"6  c #BC4A32",
"7  c #BB4339",
"8  c #BD5030",
"9  c #C04B2F",
"0  c #C3542D",
"q  c #C75A2B",
"w  c #C24433",
"e  c #C44933",
"r  c #C3433C",
"t  c #CB463B",
"y  c #CC4A3C",
"u  c #C54C35",
"i  c #D3453E",
"p  c #D64C3D",
"a  c #C25331",
"s  c #CB5531",
"d  c #C75A33",
"f  c #CC5B32",
"g  c #D35C32",
"h  c #DD523E",
"j  c #DB5B3A",
"k  c #D45238",
"l  c #E25B3D",
"z  c #CE612F",
"x  c #D3642E",
"c  c #D26133",
"v  c #DA6636",
"b  c #D76639",
"n  c #DC6D3A",
"m  c #DA6C38",
"M  c #DB713C",
"N  c #DE7234",
"B  c #CF6239",
"V  c #E26B39",
"C  c #E2733C",
"Z  c #E7773D",
"A  c #BB3842",
"S  c #C63A48",
"D  c #CD4942",
"F  c #CB4444",
"G  c #D54B42",
"H  c #D84A4A",
"J  c #DC5446",
"K  c #DB554B",
"L  c #DD4A51",
"P  c #E4594C",
"I  c #E75749",
"U  c #E14D5E",
"Y  c #E55252",
"T  c #EC5C52",
"R  c #E85855",
"E  c #F25D53",
"W  c #F15D5A",
"Q  c #F0594A",
"!  c #F5664C",
"~  c #E67C41",
"^  c #EC7E42",
"/  c #EC6155",
"(  c #ED6C53",
")  c #F56859",
"_  c #F7715C",
"`  c #F77556",
"'  c #F15C68",
"]  c #F26B63",
"[  c #F86E64",
"{  c #F8666A",
"}  c #F9736A",
"|  c #FD7C6B",
" . c #F76771",
".. c #FB7875",
"X. c #EC8343",
"o. c #ED8943",
"O. c #E78446",
"+. c #F28C46",
"@. c #F38D49",
"#. c #F38744",
"$. c #ED9C4E",
"%. c #E9974D",
"&. c #F3944A",
"*. c #F49A4E",
"=. c #F89D4E",
"-. c #F39346",
";. c #EB9B51",
":. c #F39E51",
">. c #EAA44E",
",. c #E7A74F",
"<. c #F3A14E",
"1. c #F8A14D",
"2. c #ECA351",
"3. c #E6AB53",
"4. c #EDAC55",
"5. c #E9AA56",
"6. c #F4A351",
"7. c #F9A652",
"8. c #F4AA54",
"9. c #F9AD56",
"0. c #F2AF59",
"q. c #EDB35A",
"w. c #ECB257",
"e. c #F5B155",
"r. c #F8B256",
"t. c #F4B55A",
"y. c #F7B65A",
"u. c #FE8965",
"i. c #FC9365",
"p. c #FC8370",
"a. c #FC847C",
"s. c #FC8A7A",
"d. c #FB8874",
"f. c #FD9675",
"g. c #FEA46F",
"h. c #FEAA73",
"j. c #FFBD7A",
"k. c #FC7885",
"l. c #FE8483",
"z. c #FE8B83",
"x. c #FE9C85",
"c. c #FF918B",
"v. c #FE9A8B",
"b. c #FF9581",
"n. c #FF8998",
"m. c #FE9B98",
"M. c #FFA48D",
"N. c #FEAB8D",
"B. c #FFA395",
"V. c #FFAA97",
"C. c #FFB49C",
"Z. c #FFBB98",
"A. c #FF9AAF",
"S. c #FF94A7",
"D. c #FD8FB0",
"F. c #FFADA4",
"G. c #FFA4A1",
"H. c #FFB7A8",
"J. c #FFA1BA",
"K. c #FFBCBC",
"L. c #FFB3B1",
"P. c #FFC383",
"I. c #FFCD94",
"U. c #FFCB9E",
"Y. c #FFD58B",
"T. c #FFE38F",
"R. c #FFE39C",
"E. c #FFEA9C",
"W. c #FFC4A4",
"Q. c #FFC8A3",
"!. c #FFC3AA",
"~. c #FFCDAE",
"^. c #FFDCAF",
"/. c #FFC3B4",
"(. c #FFC9B9",
"). c #FFDAB5",
"_. c #FFDFB8",
"`. c #FFD4B6",
"'. c #FFF1AB",
"]. c #FFE2B2",
"[. c #FFE7BB",
"{. c #FFEDBE",
"}. c #FFFDBF",
"|. c #FFF6B9",
" X c #FFAFCF",
".X c #FFBDD4",
"XX c #FFCEC7",
"oX c #FFCFC9",
"OX c #FFD3C3",
"+X c #FFDBC9",
"@X c #FFD4CA",
"#X c #FFC9DB",
"$X c #FFDDD8",
"%X c #FFDED3",
"&X c #FFE9C5",
"*X c #FFF3C5",
"=X c #FFFBC5",
"-X c #FFFBCC",
";X c #FFF7CC",
":X c #FFECD9",
">X c #FFF4D2",
",X c #FFFDD3",
"<X c #FFFDDC",
"1X c #FFF3DA",
"2X c #FFCFE4",
"3X c #FFD1E5",
"4X c #FFDFE7",
"5X c #FFEAE2",
"6X c #FFE9E9",
"7X c #FFF3E3",
"8X c #FFFDE4",
"9X c #FFFDEB",
"0X c #FFF4EA",
"qX c #FFF5F3",
"wX c #FFFEF4",
"eX c #FFFFFA",
"rX c #FF00FF",
"tX c black",
/* pixels */
"rXrXrXrXrXrXrXrXrXrXrXrXrXrXrXrXrXrXrXrXrXrXrXrXrXrXrXrXrXrXrXrXrXrXrXrXrXrXrXrXrXrXrXrXrXrXrXrXrXrXrXrXrXrXrXrXrXrXrXrXrXrXrXrX",
"rXrXrXrXrXrXrXrXrXrXrXrXrXrXrXrXrXrXrXrXrXrXrXrXrXrXrXrXrXrXrXrXrXrXrXrXrXrXrXrXrXrXrXrXrXrXrXrXrXrXrXrXrXrXrXrXrXrXrXrXrXrXrXrX",
"rXrXrXrXrXrXrXrXrXrXrXrXrXrXrXrXrXrXrXrXrXrXrXrXrXrXrXrXrXrXrXrXrXrXrXrXrXrXrXrXrXrXrXrXrXrXrXrXrXrXrXrXrXrXrXrXrXrXrXrXrXrXrXrX",
"rXrXrXrXrXrXrXrXrXrXrXrXrXrXrXrXrXrXrXrXrXrXrXrXrXrXrXrXrXrXrXrXrXrXrXrXrXrXrXrXrXrXrXrXrXrXrXrXrXrXrXrXrXrXrXrXrXrXrXrXrXrXrXrX",
"rXrXrXrXrXrXrXrXrXrXrXrXrXrXrXrXrXrXrXrXrXrXrXrXrXrXrXrXrXrXrXrXrXrXrXrXrXrXrXrXrXrXrXrXrXrXrXrXrXrXrXrXrXrXrXrXrXrXrXrXrXrXrXrX",
"rXrXrXrXrXrXrXrXrXrXrXrXrXrXrXrXrXrXrXrXrXrXrXrXrXrXrXrXrXrXrXrXrXrXrXrXrXrXrXrXrXrXrXrXrXrXrXrXrXrXrXrXrXrXrXrXrXrXrXrXrXrXrXrX",
"rXrXrXrXrXrXrXrXrXrXrXrXrXrXrXrXrXrXrXrXrXrXrXrXrXrXrXrXrXrXrXrXrXrXrXrXrXrXrXrXrXrXrXrXrXrXrXrXrXrXrXrXrXrXrXrXrXrXrXrXrXrXrXrX",
"rXrXrXrXrXrXrXrXrXrXrXrXrXrXrXrXrXrXrXrXrXrXrXrXrXrXrXrXrXrXrXrXrXrXrXrXrXrXrXrXrXrXrXrXrXrXrXrXrXrXrXrXrXrXrXrXrXrXrXrXrXrXrXrX",
"rXrXrXrXrXrXrXrXrXrXrXrXrXrXrXrXrXrXrXrXrXrXrXrXrXrXrXrXrXrXrXrXrXrXrXrXrXrXrXrXrXrXrXrXrXrXrXrXrXrXrXrXrXrXrXrXrXrXrXrXrXrXrXrX",
"rXrXrXrXrXrXrXrXrXrXrXrXrXrXrXrXrXrXrXrXrXrXrXrXrXrXrXrXrXrXrXrXrXrXrXrXrXrXrXrXrXrXrXrXrXrXrXrXrXrXrXrXrXrXrXrXrXrXrXrXrXrXrXrX",
"rXrXrXrXrXrXrXrXrXrXrXrXrXrXrXrXrXrXrXrXrXrX3.3.3.rXrXrXrXrXrXrXrXrXrXrXrXrXrXrXrXrXrXrXrXrXrXrXrXrXrXrXrXrXrXrXrXrXrXrXrXrXrXrX",
"rXrXrXrXrXrXrXrXrXrXrXrXrXrXrXrXrXrXrXw.t.y.y.r.r.e.0.4.rXrXrXrXrXrXrXrXrXrXrXrXrXrXrXrXrXrXrXrXrXrXrXrXrXrXrXrXrXrXrXrXrXrXrXrX",
"rXrXrXrXrXrXrXrXrXrXrXrXrXrXrXrXrXw.y.y.7.=.@.#.#.@.*.7.9.4.rXrXrXrXrXrXrXrXrXrXrXrXrXrXrXrXrXrXrXrXrXrXrXrXrXrXrXrXrXrXrXrXrXrX",
"rXrXrXrXrXrXrXrXrXrXrXrXrXrXrXrXq.y.7.+.Z V g s s f v Z @.6.8.rXrXrXrXrXrXrXrXrXrXrXrXrXrXrXrXrXrXrXrXrXrXrXrXrXrXrXrXrXrXrXrXrX",
"rXrXrXrXrXrXrXrXrXrXrXrXrXrXrXt.r.&.C s 1 1 < - . . > 1 g Z &.6.rXrXrXrXrXrXrXrXrXrXrXrXrXrXrXrXrXrXrXrXrXrXrXrXrXrXrXrXrXrXrXrX",
"rXrXrXrXrXrXrXrXrXrXrXrXrXrXt.9.o.c 1 - . - > . O . + . > 0 V @.<.rXrXrXrXrXrXrXrXrXrXrXrXrXrXrXrXrXrXrXrXrXrXrXrXrXrXrXrXrXrXrX",
"rXrXrXrXrXrXrXrXrXrXrXrXrXq.9.o.f > - . + 4 6 4 # 4 4 + + - 1 v @.<.rXrXrXrXrXrXrXrXrXrXrXrXrXrXrXrXrXrXrXrXrXrXrXrXrXrXrXrXrXrX",
"rXrXrXrXrXrXrXrXrXrXrXrXw.r.@.g > . + # & t p y t t e 4 4 + . 1 n &.$.rXrXrXrXrXrXrXrXrXrXrXrXrXrXrXrXrXrXrXrXrXrXrXrXrXrXrXrXrX",
"rXrXrXrXrXrXrXrXrXrXrXrXy.=.C < + @ % t p I ! / / T P y u 4 O . 1 C *.rXrXrXrXrXrXrXrXrXrXrXrXrXrXrXrXrXrXrXrXrXrXrXrXrXrXrXrXrX",
"rXrXrXrXrXrXrXrXrXrXrXq.9.^ d > + o # i I ! _ | p.| [ / J r % + - f X.*.rXrXrXrXrXrXrXrXrXrXrXrXrXrXrXrXrXrXrXrXrXrXrXrXrXrXrXrX",
"rXrXrXrXrXrXrXrXrXrXrXy.*.v < 4 # # $ i Q _ p.b.M.c.l...] K D 7 O > n &.rXrXrXrXrXrXrXrXrXrXrXrXrXrXrXrXrXrXrXrXrXrXrXrXrXrXrXrX",
"rXrXrXrXrXrXrXrXrXrX4.9.X.d , 4 5 e y P [ z.V.H.!.F.G.B.a.] K & @   d X.$.rXrXrXrXrXrXrXrXrXrXrXrXrXrXrXrXrXrXrXrXrXrXrXrXrXrXrX",
"rXrXrXrXrXrXrXrXrXrX0.=.V 0 < 9 s j ( ..c.F.`.&X&XOXOX/.G.l.R F * O < M *.rXrXrXrXrXrXrXrXrXrXrXrXrXrXrXrXrXrXrXrXrXrXrXrXrXrXrX",
"rXrXrXrXrXrXrXrXrXrX8.o.d 1 1 u j ` f.M.C.W.].;X8X7X7X%XK.n. .L A o - c &.rXrXrXrXrXrXrXrXrXrXrXrXrXrXrXrXrXrXrXrXrXrXrXrXrXrXrX",
"rXrXrXrXrXrXrXrXrX4.6.n , - 1 s V i.P.I.I.I.].,X9XwXwX0X#XJ.k.U S % - 0 X.$.rXrXrXrXrXrXrXrXrXrXrXrXrXrXrXrXrXrXrXrXrXrXrXrXrXrX",
"rXrXrXrXrXrXrXrXrX8.*.c - + 5 k ! u.P.T.E.[.>X8XwXeXwXwX6X.Xn.' L r 4 1 C &.rXrXrXrXrXrXrXrXrXrXrXrXrXrXrXrXrXrXrXrXrXrXrXrXrXrX",
"rXrXrXrXrXrXrXrXrX8.+.d - 3 6 j ! u.j.E.=X8X8X8XwXeXeXwXqX2XJ.k.W D + > m &.rXrXrXrXrXrXrXrXrXrXrXrXrXrXrXrXrXrXrXrXrXrXrXrXrXrX",
"rXrXrXrXrXrXrXrXrX8.X.a - > e l ` i.P.'.<X9X8X,X8XwXeXwX0X4X Xn.{ H o . c @.rXrXrXrXrXrXrXrXrXrXrXrXrXrXrXrXrXrXrXrXrXrXrXrXrXrX",
"rXrXrXrXrXrXrXrX>.6.Z 1 > < e h ` g.Y.|.8X8X8X<X8XwXwXwX0X6X#XS.{ H o . f o.rXrXrXrXrXrXrXrXrXrXrXrXrXrXrXrXrXrXrXrXrXrXrXrXrXrX",
"rXrXrXrXrXrXrXrX2.6.C < - , e h ` h.R.=X8X8X9X9X9XwX9X9XwXqX3XA. .L % . 0 X.$.rXrXrXrXrXrXrXrXrXrXrXrXrXrXrXrXrXrXrXrXrXrXrXrXrX",
"rXrXrXrXrXrXrXrX2.=.n > . > w h ` h.R.*X-X,X9XwXeXeX9X8XwXqX2XA...Y r , 0 X.$.rXrXrXrXrXrXrXrXrXrXrXrXrXrXrXrXrXrXrXrXrXrXrXrXrX",
"rXrXrXrXrXrXrXrX2.*.b - . X w p ) f.U._.{.}.,X9XeXeXwX9XwXwX4XL.s./ y , 0 ~ $.rXrXrXrXrXrXrXrXrXrXrXrXrXrXrXrXrXrXrXrXrXrXrXrXrX",
"rXrXrXrXrXrXrXrX2.*.b -   X $ i E f.W.`.{.}.}.<XeXeXwXwXwXwX5X/.s./ y 1 0 X.$.rXrXrXrXrXrXrXrXrXrXrXrXrXrXrXrXrXrXrXrXrXrXrXrXrX",
"rXrXrXrXrXrXrXrX2.*.b -   + # i E f.Q.).*X=X|.,XwXeX9X8X9XqX$X!.d.P u < 0 ~ ;.rXrXrXrXrXrXrXrXrXrXrXrXrXrXrXrXrXrXrXrXrXrXrXrXrX",
"rXrXrXrXrXrXrXrX$.*.n -   + $ i E f.U.).&X-X=X,XwXeX8X<X8X6XoXC.p.P e X 8 O.;.rXrXrXrXrXrXrXrXrXrXrXrXrXrXrXrXrXrXrXrXrXrXrXrXrX",
"rXrXrXrXrXrXrXrX%.*.C <   4 5 t Q d.Z.~.+X>X,X8XwXwX9X8X0X5X(.v.] G $ . a O.rXrXrXrXrXrXrXrXrXrXrXrXrXrXrXrXrXrXrXrXrXrXrXrXrXrX",
"rXrXrXrXrXrXrXrXrX=.~ <   . # w I | N.!.@X1X<X9XwXwXwXwX9X:X!.z.W i # . d +.rXrXrXrXrXrXrXrXrXrXrXrXrXrXrXrXrXrXrXrXrXrXrXrXrXrX",
"rXrXrXrXrXrXrXrXrX:.X.a - - > w h _ x.C.XX:X8X9XwXwXwXwX1X_.Z.a.T t 4 . B %.rXrXrXrXrXrXrXrXrXrXrXrXrXrXrXrXrXrXrXrXrXrXrXrXrXrX",
"rXrXrXrXrXrXrXrXrX:.@.f - . > , t T s.B.K.$X0X9XwXwXwX8X&XW.v.} J w + 4 M $.rXrXrXrXrXrXrXrXrXrXrXrXrXrXrXrXrXrXrXrXrXrXrXrXrXrX",
"rXrXrXrXrXrXrXrXrX;.*.n > . X > w J } v.F.XX5X9X9X9X8X>X].C.a.W t # O 6 O.2.rXrXrXrXrXrXrXrXrXrXrXrXrXrXrXrXrXrXrXrXrXrXrXrXrXrX",
"rXrXrXrXrXrXrXrXrX%.:.^ 1 . X , , y ) a.m.L.+X:X1X>X>X[.Q.x.[ P & @ + d &.rXrXrXrXrXrXrXrXrXrXrXrXrXrXrXrXrXrXrXrXrXrXrXrXrXrXrX",
"rXrXrXrXrXrXrXrXrXrX:.@.f - - < X w P } z.m.H.(.`._.^.U.N.p.R F % @ 4 M :.rXrXrXrXrXrXrXrXrXrXrXrXrXrXrXrXrXrXrXrXrXrXrXrXrXrXrX",
"rXrXrXrXrXrXrXrXrXrX;.*.C 1 - > X , p / } l.m.m.V.C.V.x.p.) J & @ O a O.6.rXrXrXrXrXrXrXrXrXrXrXrXrXrXrXrXrXrXrXrXrXrXrXrXrXrXrX",
"rXrXrXrXrXrXrXrXrXrXrX:.+.f - = ; , e G R { ..k.l.z.a.| _ T D % + > m *.rXrXrXrXrXrXrXrXrXrXrXrXrXrXrXrXrXrXrXrXrXrXrXrXrXrXrXrX",
"rXrXrXrXrXrXrXrXrXrXrX;.*.Z 8 = ; < , w G Y ' { { { { ) T J 7 3 - d o.8.rXrXrXrXrXrXrXrXrXrXrXrXrXrXrXrXrXrXrXrXrXrXrXrXrXrXrXrX",
"rXrXrXrXrXrXrXrXrXrXrXrX:.&.v : : ; ; , 5 r H R Y H H J y 7 4 - 0 Z 6.rXrXrXrXrXrXrXrXrXrXrXrXrXrXrXrXrXrXrXrXrXrXrXrXrXrXrXrXrX",
"rXrXrXrXrXrXrXrXrXrXrXrX%.6.+.c : : ; > > # r t S * % u 4 - - 2 M :.0.rXrXrXrXrXrXrXrXrXrXrXrXrXrXrXrXrXrXrXrXrXrXrXrXrXrXrXrXrX",
"rXrXrXrXrXrXrXrXrXrXrXrXrX$.=.X.z 2 = ; > - 4 4 o @ @ 4 3 - 1 n *.t.rXrXrXrXrXrXrXrXrXrXrXrXrXrXrXrXrXrXrXrXrXrXrXrXrXrXrXrXrXrX",
"rXrXrXrXrXrXrXrXrXrXrXrXrXrX6.1.o.x 2 : = - - > + O O - > a n *.t.rXrXrXrXrXrXrXrXrXrXrXrXrXrXrXrXrXrXrXrXrXrXrXrXrXrXrXrXrXrXrX",
"rXrXrXrXrXrXrXrXrXrXrXrXrXrXrX6.7.-.N q : = = - - - - < f ~ :.t.rXrXrXrXrXrXrXrXrXrXrXrXrXrXrXrXrXrXrXrXrXrXrXrXrXrXrXrXrXrXrXrX",
"rXrXrXrXrXrXrXrXrXrXrXrXrXrXrXrX>.8.1.o.N z q 0 0 f c C &.8.t.rXrXrXrXrXrXrXrXrXrXrXrXrXrXrXrXrXrXrXrXrXrXrXrXrXrXrXrXrXrXrXrXrX",
"rXrXrXrXrXrXrXrXrXrXrXrXrXrXrXrXrX>.8.9.1.-.o.o.o.@.*.8.e.w.rXrXrXrXrXrXrXrXrXrXrXrXrXrXrXrXrXrXrXrXrXrXrXrXrXrXrXrXrXrXrXrXrXrX",
"rXrXrXrXrXrXrXrXrXrXrXrXrXrXrXrXrXrXrX>.8.e.e.r.e.e.e.4.rXrXrXrXrXrXrXrXrXrXrXrXrXrXrXrXrXrXrXrXrXrXrXrXrXrXrXrXrXrXrXrXrXrXrXrX",
"rXrXrXrXrXrXrXrXrXrXrXrXrXrXrXrXrXrXrXrXrXrX,.,.3.rXrXrXrXrXrXrXrXrXrXrXrXrXrXrXrXrXrXrXrXrXrXrXrXrXrXrXrXrXrXrXrXrXrXrXrXrXrXrX",
"rXrXrXrXrXrXrXrXrXrXrXrXrXrXrXrXrXrXrXrXrXrXrXrXrXrXrXrXrXrXrXrXrXrXrXrXrXrXrXrXrXrXrXrXrXrXrXrXrXrXrXrXrXrXrXrXrXrXrXrXrXrXrXrX",
"rXrXrXrXrXrXrXrXrXrXrXrXrXrXrXrXrXrXrXrXrXrXrXrXrXrXrXrXrXrXrXrXrXrXrXrXrXrXrXrXrXrXrXrXrXrXrXrXrXrXrXrXrXrXrXrXrXrXrXrXrXrXrXrX",
"rXrXrXrXrXrXrXrXrXrXrXrXrXrXrXrXrXrXrXrXrXrXrXrXrXrXrXrXrXrXrXrXrXrXrXrXrXrXrXrXrXrXrXrXrXrXrXrXrXrXrXrXrXrXrXrXrXrXrXrXrXrXrXrX",
"rXrXrXrXrXrXrXrXrXrXrXrXrXrXrXrXrXrXrXrXrXrXrXrXrXrXrXrXrXrXrXrXrXrXrXrXrXrXrXrXrXrXrXrXrXrXrXrXrXrXrXrXrXrXrXrXrXrXrXrXrXrXrXrX",
"rXrXrXrXrXrXrXrXrXrXrXrXrXrXrXrXrXrXrXrXrXrXrXrXrXrXrXrXrXrXrXrXrXrXrXrXrXrXrXrXrXrXrXrXrXrXrXrXrXrXrXrXrXrXrXrXrXrXrXrXrXrXrXrX",
"rXrXrXrXrXrXrXrXrXrXrXrXrXrXrXrXrXrXrXrXrXrXrXrXrXrXrXrXrXrXrXrXrXrXrXrXrXrXrXrXrXrXrXrXrXrXrXrXrXrXrXrXrXrXrXrXrXrXrXrXrXrXrXrX",
"rXrXrXrXrXrXrXrXrXrXrXrXrXrXrXrXrXrXrXrXrXrXrXrXrXrXrXrXrXrXrXrXrXrXrXrXrXrXrXrXrXrXrXrXrXrXrXrXrXrXrXrXrXrXrXrXrXrXrXrXrXrXrXrX",
"rXrXrXrXrXrXrXrXrXrXrXrXrXrXrXrXrXrXrXrXrXrXrXrXrXrXrXrXrXrXrXrXrXrXrXrXrXrXrXrXrXrXrXrXrXrXrXrXrXrXrXrXrXrXrXrXrXrXrXrXrXrXrXrX",
"rXrXrXrXrXrXrXrXrXrXrXrXrXrXrXrXrXrXrXrXrXrXrXrXrXrXrXrXrXrXrXrXrXrXrXrXrXrXrXrXrXrXrXrXrXrXrXrXrXrXrXrXrXrXrXrXrXrXrXrXrXrXrXrX",
"rXrXrXrXrXrXrXrXrXrXrXrXrXrXrXrXrXrXrXrXrXrXrXrXrXrXrXrXrXrXrXrXrXrXrXrXrXrXrXrXrXrXrXrXrXrXrXrXrXrXrXrXrXrXrXrXrXrXrXrXrXrXrXrX"
};
