/* XPM */
static const char *exit_14[] = {
/* columns rows colors chars-per-pixel */
"64 64 218 2 ",
"   c #AB3D2D",
".  c #B33D2E",
"X  c #A63934",
"o  c #AB3D32",
"O  c #AA3639",
"+  c #B33D33",
"@  c #BA3E33",
"#  c #B43B3A",
"$  c #B63A3B",
"%  c #AE4525",
"&  c #AD422C",
"*  c #B24526",
"=  c #B54C25",
"-  c #B3432C",
";  c #BB442D",
":  c #B5492C",
">  c #BB4C2C",
",  c #B84D25",
"<  c #BE522D",
"1  c #BD5126",
"2  c #AD4031",
"3  c #B34233",
"4  c #BB4234",
"5  c #BB4B32",
"6  c #BB423B",
"7  c #C04D2D",
"8  c #C2542D",
"9  c #CB5C2D",
"0  c #C8582E",
"q  c #C34436",
"w  c #C54A33",
"e  c #CA4B34",
"r  c #C4443B",
"t  c #CA4B3B",
"y  c #CA4738",
"u  c #D34B3D",
"i  c #D74B3E",
"p  c #C45532",
"a  c #CC5432",
"s  c #CB5B33",
"d  c #C65932",
"f  c #D05D34",
"g  c #D1543B",
"h  c #DC533C",
"j  c #D65635",
"k  c #E45A3D",
"l  c #CE602E",
"z  c #CD6033",
"x  c #D46335",
"c  c #D56A36",
"v  c #DC6C3A",
"b  c #D76838",
"n  c #DB7037",
"m  c #DD733B",
"M  c #E4743D",
"N  c #E2773A",
"B  c #E06C37",
"V  c #BA3841",
"C  c #C83A49",
"Z  c #C94342",
"A  c #D14644",
"S  c #D34B42",
"D  c #DB4E42",
"F  c #DC4C4B",
"G  c #D5474F",
"H  c #DB5144",
"J  c #DC524A",
"K  c #DC4650",
"L  c #E55948",
"P  c #EB5C4C",
"I  c #E55749",
"U  c #E34B56",
"Y  c #EC5451",
"T  c #E65B52",
"R  c #EB5C55",
"E  c #F35D59",
"W  c #F15E49",
"Q  c #E66646",
"!  c #F46849",
"~  c #E87A42",
"^  c #F36C55",
"/  c #F4695B",
"(  c #F56655",
")  c #F67756",
"_  c #EF6954",
"`  c #F55B63",
"'  c #FB5F64",
"]  c #ED5172",
"[  c #F96966",
"{  c #FB7466",
"}  c #F97369",
"|  c #F97D67",
" . c #F96C76",
".. c #FD7B74",
"X. c #FE7A7C",
"o. c #FE757B",
"O. c #E78242",
"+. c #EC8543",
"@. c #ED8B45",
"#. c #EC8E4B",
"$. c #F18B45",
"%. c #F38D49",
"&. c #F18647",
"*. c #EE934B",
"=. c #ED9C4D",
"-. c #F3954C",
";. c #F49B4E",
":. c #F89E4F",
">. c #F29347",
",. c #FC8C5C",
"<. c #F98152",
"1. c #EB9D50",
"2. c #F39E50",
"3. c #EBA34E",
"4. c #E6A54E",
"5. c #F8A24C",
"6. c #ECA252",
"7. c #E6A953",
"8. c #ECAC56",
"9. c #F4A352",
"0. c #F8A351",
"q. c #F4AC54",
"w. c #F9AE58",
"e. c #F7AC56",
"r. c #EDB359",
"t. c #F5B157",
"y. c #F3B35A",
"u. c #F8B35B",
"i. c #F5B95C",
"p. c #F9B256",
"a. c #FE836E",
"s. c #FE8475",
"d. c #FC8B74",
"f. c #FE877B",
"g. c #FD947D",
"h. c #FE9B75",
"j. c #FD9662",
"k. c #FEB86F",
"l. c #FFA778",
"z. c #FFBB76",
"x. c #FEA363",
"c. c #FEC374",
"v. c #FC7B98",
"b. c #F96789",
"n. c #FD8383",
"m. c #FE8F81",
"M. c #FF9382",
"N. c #FE9C89",
"B. c #FE9692",
"V. c #FF9C94",
"C. c #FE9B9A",
"Z. c #FF959B",
"A. c #FEA788",
"S. c #FEB584",
"D. c #FFA998",
"F. c #FFBC94",
"G. c #FE89AB",
"H. c #FE99A0",
"J. c #FE9AB9",
"K. c #FFADA3",
"L. c #FFACAC",
"P. c #FFA5A0",
"I. c #FFB9A9",
"U. c #FFBCB9",
"Y. c #FFA9B6",
"T. c #FFCC8E",
"R. c #FFC197",
"E. c #FED388",
"W. c #FFE38E",
"Q. c #FFE99D",
"!. c #FFCBA0",
"~. c #FFC5A6",
"^. c #FFDBA5",
"/. c #FFC3B2",
"(. c #FFCDB3",
"). c #FFC3BC",
"_. c #FFC8BC",
"`. c #FFDEBC",
"'. c #FFE2AA",
"]. c #FFF1AB",
"[. c #FFEBBB",
"{. c #FFE5B7",
"}. c #FFF3BE",
"|. c #FFFDBF",
" X c #FFB8CF",
".X c #FFA6C7",
"XX c #FFC7C3",
"oX c #FFDBCC",
"OX c #FFDEC6",
"+X c #FFCBD0",
"@X c #FFD3DB",
"#X c #FFDBDB",
"$X c #FFECC3",
"%X c #FFE3CD",
"&X c #FFEBC9",
"*X c #FFF7C6",
"=X c #FFFBC3",
"-X c #FFFCCA",
";X c #FFE4D2",
":X c #FFECDB",
">X c #FFE9D7",
",X c #FFF5D2",
"<X c #FFFDD3",
"1X c #FFF4DC",
"2X c #FFFCDC",
"3X c #FFD8E0",
"4X c #FFEEE4",
"5X c #FFE7E8",
"6X c #FFF2E2",
"7X c #FFFDE3",
"8X c #FFF6E9",
"9X c #FFFCEB",
"0X c #FFEEF1",
"qX c #FFFDF3",
"wX c #FFFEFB",
"eX c #FFF6F1",
"rX c #FF00FF",
"tX c black",
/* pixels */
"rXrXrXrXrXrXrXrXrXrXrXrXrXrXrXrXrXrXrXrXrXrXrXrXrXrXrXrXrXrXrXrXrXrXrXrXrXrXrXrXrXrXrXrXrXrXrXrXrXrXrXrXrXrXrXrXrXrXrXrXrXrXrXrX",
"rXrXrXrXrXrXrXrXrXrXrXrXrXrXrXrXrXrXrXrXrXrXrXrXrXrXrXrXrXrXrXrXrXrXrXrXrXrXrXrXrXrXrXrXrXrXrXrXrXrXrXrXrXrXrXrXrXrXrXrXrXrXrXrX",
"rXrXrXrXrXrXrXrXrXrXrXrXrXrXrXrXrXrXrXrXrXrXrXrXrXrXrXrXrXrXrXrXrXrXrXrXrXrXrXrXrXrXrXrXrXrXrXrXrXrXrXrXrXrXrXrXrXrXrXrXrXrXrXrX",
"rXrXrXrXrXrXrXrXrXrXrXrXrXrXrXrXrXrXrXrXrXrXrXrXrXrXrXrXrXrXrXrXrXrXrXrXrXrXrXrXrXrXrXrXrXrXrXrXrXrXrXrXrXrXrXrXrXrXrXrXrXrXrXrX",
"rXrXrXrXrXrXrXrXrXrXrXrXrXrXrXrXrXrXrXrXrXrXrXrXrXrXrXrXrXrXrXrXrXrXrXrXrXrXrXrXrXrXrXrXrXrXrXrXrXrXrXrXrXrXrXrXrXrXrXrXrXrXrXrX",
"rXrXrXrXrXrXrXrXrXrXrXrXrXrXrXrXrXrXrXrXrXrXrXrXrXrXrXrXrXrXrXrXrXrXrXrXrXrXrXrXrXrXrXrXrXrXrXrXrXrXrXrXrXrXrXrXrXrXrXrXrXrXrXrX",
"rXrXrXrXrXrXrXrXrXrXrXrXrXrXrXrXrXrXrXrXrXrXrXrXrXrXrXrXrXrXrXrXrXrXrXrXrXrXrXrXrXrXrXrXrXrXrXrXrXrXrXrXrXrXrXrXrXrXrXrXrXrXrXrX",
"rXrXrXrXrXrXrXrXrXrXrXrXrXrXrXrXrXrXrXrXrXrXrXrXrXrXrXrXrXrXrXrXrXrXrXrXrXrXrXrXrXrXrXrXrXrXrXrXrXrXrXrXrXrXrXrXrXrXrXrXrXrXrXrX",
"rXrXrXrXrXrXrXrXrXrXrXrXrXrXrXrXrXrXrXrXrXrXrXrXrXrXrXrXrXrXrXrXrXrXrXrXrXrXrXrXrXrXrXrXrXrXrXrXrXrXrXrXrXrXrXrXrXrXrXrXrXrXrXrX",
"rXrXrXrXrXrXrXrXrXrXrXrXrXrXrXrXrXrXrXrXrXrXrXrXrXrXrXrXrXrXrXrXrXrXrXrXrXrXrXrXrXrXrXrXrXrXrXrXrXrXrXrXrXrXrXrXrXrXrXrXrXrXrXrX",
"rXrXrXrXrXrXrXrXrXrXrXrXrXrXrXrXrXrXrXrXrXrX7.7.7.rXrXrXrXrXrXrXrXrXrXrXrXrXrXrXrXrXrXrXrXrXrXrXrXrXrXrXrXrXrXrXrXrXrXrXrXrXrXrX",
"rXrXrXrXrXrXrXrXrXrXrXrXrXrXrXrXrXrXrXr.y.i.u.p.p.t.t.8.rXrXrXrXrXrXrXrXrXrXrXrXrXrXrXrXrXrXrXrXrXrXrXrXrXrXrXrXrXrXrXrXrXrXrXrX",
"rXrXrXrXrXrXrXrXrXrXrXrXrXrXrXrXrXr.i.u.e.2.%.&.&.%.-.0.e.8.rXrXrXrXrXrXrXrXrXrXrXrXrXrXrXrXrXrXrXrXrXrXrXrXrXrXrXrXrXrXrXrXrXrX",
"rXrXrXrXrXrXrXrXrXrXrXrXrXrXrXrXr.u.0.$.M b s p a s x M %.0.9.rXrXrXrXrXrXrXrXrXrXrXrXrXrXrXrXrXrXrXrXrXrXrXrXrXrXrXrXrXrXrXrXrX",
"rXrXrXrXrXrXrXrXrXrXrXrXrXrXrXy.w.-.v 0 > , -     & - > s M -.0.rXrXrXrXrXrXrXrXrXrXrXrXrXrXrXrXrXrXrXrXrXrXrXrXrXrXrXrXrXrXrXrX",
"rXrXrXrXrXrXrXrXrXrXrXrXrXrXy.w.&.x > & & - & X o 2 o o & 8 v $.;.rXrXrXrXrXrXrXrXrXrXrXrXrXrXrXrXrXrXrXrXrXrXrXrXrXrXrXrXrXrXrX",
"rXrXrXrXrXrXrXrXrXrXrXrXrXr.w.$.f :   o + 4 4 # # 4 3 3 o & : x @.;.rXrXrXrXrXrXrXrXrXrXrXrXrXrXrXrXrXrXrXrXrXrXrXrXrXrXrXrXrXrX",
"rXrXrXrXrXrXrXrXrXrXrXrX8.t.>.x : o o + q u D S A A r 4 3 o   : v >.=.rXrXrXrXrXrXrXrXrXrXrXrXrXrXrXrXrXrXrXrXrXrXrXrXrXrXrXrXrX",
"rXrXrXrXrXrXrXrXrXrXrXrXy.2.v 5 2 o + 4 y h W ( E Y I D y 4 o 2 > m -.rXrXrXrXrXrXrXrXrXrXrXrXrXrXrXrXrXrXrXrXrXrXrXrXrXrXrXrXrX",
"rXrXrXrXrXrXrXrXrXrXrXr.p.+.p o - - @ q i P / { [ [ [ E I t 4 2 & d O.=.rXrXrXrXrXrXrXrXrXrXrXrXrXrXrXrXrXrXrXrXrXrXrXrXrXrXrXrX",
"rXrXrXrXrXrXrXrXrXrXrXi.:.v > - - ; q H ( } s.m.n.o.X...[ T t # X - b *.rXrXrXrXrXrXrXrXrXrXrXrXrXrXrXrXrXrXrXrXrXrXrXrXrXrXrXrX",
"rXrXrXrXrXrXrXrXrXrX8.p.&.a > > 7 g L / s.N.D.I.K.Z.C.B.n.} J $ O o p O.=.rXrXrXrXrXrXrXrXrXrXrXrXrXrXrXrXrXrXrXrXrXrXrXrXrXrXrX",
"rXrXrXrXrXrXrXrXrXrXy.:.B 7 , 8 f ! | s.A.F.^.[.OXXX_./.P.n.R Z # X : m ;.rXrXrXrXrXrXrXrXrXrXrXrXrXrXrXrXrXrXrXrXrXrXrXrXrXrXrX",
"rXrXrXrXrXrXrXrXrXrXe.+.s , , 8 Q ,.h.l.S.T.'.*X1X:X:X;X_.H. .G # O o z @.rXrXrXrXrXrXrXrXrXrXrXrXrXrXrXrXrXrXrXrXrXrXrXrXrXrXrX",
"rXrXrXrXrXrXrXrXrX8.0.v > : > a ! j.k.z.T.'.&X7X9X8X9X8X>XU.v.U V O X < O.=.rXrXrXrXrXrXrXrXrXrXrXrXrXrXrXrXrXrXrXrXrXrXrXrXrXrX",
"rXrXrXrXrXrXrXrXrXq.-.x - - 7 h ! ,.c.W.}.2X9XqXeXeXeXqX8X+XG.] C $ o : m ;.rXrXrXrXrXrXrXrXrXrXrXrXrXrXrXrXrXrXrXrXrXrXrXrXrXrX",
"rXrXrXrXrXrXrXrXrXe.$.s & - w h ! ,.c.].2X9X7X7X9XqXwXwXeX@XJ.b.U Z + & b *.rXrXrXrXrXrXrXrXrXrXrXrXrXrXrXrXrXrXrXrXrXrXrXrXrXrX",
"rXrXrXrXrXrXrXrXrXe.+.0 : : w k ) x.E.}.2X2X7X7X7X7X9XwXeX@X.Xv.` A #   z @.rXrXrXrXrXrXrXrXrXrXrXrXrXrXrXrXrXrXrXrXrXrXrXrXrXrX",
"rXrXrXrXrXrXrXrXrX0.~ 8 = > a k <.k.Q.-X2X7XqX9X7X2X7X9X0X3X XG.[ F 6 - s +.rXrXrXrXrXrXrXrXrXrXrXrXrXrXrXrXrXrXrXrXrXrXrXrXrXrX",
"rXrXrXrXrXrXrXrX6.0.M , * > e k ) l.^.*X-X7XqXqXqX9X7X2X0X5X@XJ. .P t : 9 @.3.rXrXrXrXrXrXrXrXrXrXrXrXrXrXrXrXrXrXrXrXrXrXrXrXrX",
"rXrXrXrXrXrXrXrX6.;.v :   . 4 i ^ h.!.[.=X<X7XqXwXwX7X<X9XeX5XY.X.P y * 9 +.=.rXrXrXrXrXrXrXrXrXrXrXrXrXrXrXrXrXrXrXrXrXrXrXrXrX",
"rXrXrXrXrXrXrXrX6.;.b -   . @ i ^ h.~.{.-X<X<X9XwXwX9X7XqXqX6X_.g._ t : 8 O.=.rXrXrXrXrXrXrXrXrXrXrXrXrXrXrXrXrXrXrXrXrXrXrXrXrX",
"rXrXrXrXrXrXrXrX6.-.b &   + + u ^ S.^.}.-X-X-X7XwXwXwXqXwXqX4X).g.^ g , 8 ~ =.rXrXrXrXrXrXrXrXrXrXrXrXrXrXrXrXrXrXrXrXrXrXrXrXrX",
"rXrXrXrXrXrXrXrX1.-.b &   + + u ) S.^.[.*X=X|.2XqXwXqX9X9X9X#XL...T r - 8 O.1.rXrXrXrXrXrXrXrXrXrXrXrXrXrXrXrXrXrXrXrXrXrXrXrXrX",
"rXrXrXrXrXrXrXrX1.;.v - & - 4 h ) l.F.(.$X-X=X2X7XqXqX9X7X6XXXC.} J 4 - 8 O.1.rXrXrXrXrXrXrXrXrXrXrXrXrXrXrXrXrXrXrXrXrXrXrXrXrX",
"rXrXrXrXrXrXrXrX=.;.m : & - 4 h ^ h.A.I.&X<X<X2X<X7XqXqX9X4X_.V.[ S @ - p +.rXrXrXrXrXrXrXrXrXrXrXrXrXrXrXrXrXrXrXrXrXrXrXrXrXrX",
"rXrXrXrXrXrXrXrXrX2.M > & - 4 y L | M.K.%X2X9X7X<X2XqXqXqX1X(.N./ u - & s #.rXrXrXrXrXrXrXrXrXrXrXrXrXrXrXrXrXrXrXrXrXrXrXrXrXrX",
"rXrXrXrXrXrXrXrXrX2.+.p & - . @ S [ s.K.oX6X9X9X2X7XqXqX9X&XR.d.T y - : b *.rXrXrXrXrXrXrXrXrXrXrXrXrXrXrXrXrXrXrXrXrXrXrXrXrXrX",
"rXrXrXrXrXrXrXrXrX2.%.x &   . . r T ..V.XX:X7X7X7X1X8X7X,X^.A.} J 4 . : m 2.rXrXrXrXrXrXrXrXrXrXrXrXrXrXrXrXrXrXrXrXrXrXrXrXrXrX",
"rXrXrXrXrXrXrXrXrX=.-.v -     . @ J { M.L.oX6X2X1X:X6X,X{.F.g./ S 4 o 5 O.9.rXrXrXrXrXrXrXrXrXrXrXrXrXrXrXrXrXrXrXrXrXrXrXrXrXrX",
"rXrXrXrXrXrXrXrXrXrX:.~ >     . @ u / s.D.(.;X>X%XoX%X`.!.A.{ _ r + o s *.rXrXrXrXrXrXrXrXrXrXrXrXrXrXrXrXrXrXrXrXrXrXrXrXrXrXrX",
"rXrXrXrXrXrXrXrXrXrX2.%.f & & . . e P { M.D.I.).).U./.~.A.d.( H 4 X 3 m 2.rXrXrXrXrXrXrXrXrXrXrXrXrXrXrXrXrXrXrXrXrXrXrXrXrXrXrX",
"rXrXrXrXrXrXrXrXrXrX=.;.M > & - - ; i ( a.f.B.C.C.B.V.M.d./ H q 3 o p @.q.rXrXrXrXrXrXrXrXrXrXrXrXrXrXrXrXrXrXrXrXrXrXrXrXrXrXrX",
"rXrXrXrXrXrXrXrXrXrXrX2.$.f * % - ; w L / [ ..X.o.X...[ / Q r + 2 : b ;.rXrXrXrXrXrXrXrXrXrXrXrXrXrXrXrXrXrXrXrXrXrXrXrXrXrXrXrX",
"rXrXrXrXrXrXrXrXrXrXrX1.:.M < % * - > e D Y ' ' ` ` E Y L L 6 o & s @.q.rXrXrXrXrXrXrXrXrXrXrXrXrXrXrXrXrXrXrXrXrXrXrXrXrXrXrXrX",
"rXrXrXrXrXrXrXrXrXrXrXrX9.-.b = % * * ; q u F U U K F A S g 5 & < m 9.rXrXrXrXrXrXrXrXrXrXrXrXrXrXrXrXrXrXrXrXrXrXrXrXrXrXrXrXrX",
"rXrXrXrXrXrXrXrXrXrXrXrX1.0.+.x = % % * ; @ $ Z V V 6 6 4 5 : > n ;.q.rXrXrXrXrXrXrXrXrXrXrXrXrXrXrXrXrXrXrXrXrXrXrXrXrXrXrXrXrX",
"rXrXrXrXrXrXrXrXrXrXrXrXrX6.0.+.l = % * * - + 3 O O o 2 & & > c =.t.rXrXrXrXrXrXrXrXrXrXrXrXrXrXrXrXrXrXrXrXrXrXrXrXrXrXrXrXrXrX",
"rXrXrXrXrXrXrXrXrXrXrXrXrXrX9.0.+.x 1 = % % & & o X X & : < v *.p.rXrXrXrXrXrXrXrXrXrXrXrXrXrXrXrXrXrXrXrXrXrXrXrXrXrXrXrXrXrXrX",
"rXrXrXrXrXrXrXrXrXrXrXrXrXrXrX9.0.$.N 9 , % % & & & & : z ~ 2.t.rXrXrXrXrXrXrXrXrXrXrXrXrXrXrXrXrXrXrXrXrXrXrXrXrXrXrXrXrXrXrXrX",
"rXrXrXrXrXrXrXrXrXrXrXrXrXrXrXrX3.q.5.$.n l 0 8 8 d x M -.e.y.rXrXrXrXrXrXrXrXrXrXrXrXrXrXrXrXrXrXrXrXrXrXrXrXrXrXrXrXrXrXrXrXrX",
"rXrXrXrXrXrXrXrXrXrXrXrXrXrXrXrXrX3.q.e.5.>.$.+.+.$.;.0.t.r.rXrXrXrXrXrXrXrXrXrXrXrXrXrXrXrXrXrXrXrXrXrXrXrXrXrXrXrXrXrXrXrXrXrX",
"rXrXrXrXrXrXrXrXrXrXrXrXrXrXrXrXrXrXrX3.q.e.p.p.p.p.y.8.rXrXrXrXrXrXrXrXrXrXrXrXrXrXrXrXrXrXrXrXrXrXrXrXrXrXrXrXrXrXrXrXrXrXrXrX",
"rXrXrXrXrXrXrXrXrXrXrXrXrXrXrXrXrXrXrXrXrXrX4.7.7.rXrXrXrXrXrXrXrXrXrXrXrXrXrXrXrXrXrXrXrXrXrXrXrXrXrXrXrXrXrXrXrXrXrXrXrXrXrXrX",
"rXrXrXrXrXrXrXrXrXrXrXrXrXrXrXrXrXrXrXrXrXrXrXrXrXrXrXrXrXrXrXrXrXrXrXrXrXrXrXrXrXrXrXrXrXrXrXrXrXrXrXrXrXrXrXrXrXrXrXrXrXrXrXrX",
"rXrXrXrXrXrXrXrXrXrXrXrXrXrXrXrXrXrXrXrXrXrXrXrXrXrXrXrXrXrXrXrXrXrXrXrXrXrXrXrXrXrXrXrXrXrXrXrXrXrXrXrXrXrXrXrXrXrXrXrXrXrXrXrX",
"rXrXrXrXrXrXrXrXrXrXrXrXrXrXrXrXrXrXrXrXrXrXrXrXrXrXrXrXrXrXrXrXrXrXrXrXrXrXrXrXrXrXrXrXrXrXrXrXrXrXrXrXrXrXrXrXrXrXrXrXrXrXrXrX",
"rXrXrXrXrXrXrXrXrXrXrXrXrXrXrXrXrXrXrXrXrXrXrXrXrXrXrXrXrXrXrXrXrXrXrXrXrXrXrXrXrXrXrXrXrXrXrXrXrXrXrXrXrXrXrXrXrXrXrXrXrXrXrXrX",
"rXrXrXrXrXrXrXrXrXrXrXrXrXrXrXrXrXrXrXrXrXrXrXrXrXrXrXrXrXrXrXrXrXrXrXrXrXrXrXrXrXrXrXrXrXrXrXrXrXrXrXrXrXrXrXrXrXrXrXrXrXrXrXrX",
"rXrXrXrXrXrXrXrXrXrXrXrXrXrXrXrXrXrXrXrXrXrXrXrXrXrXrXrXrXrXrXrXrXrXrXrXrXrXrXrXrXrXrXrXrXrXrXrXrXrXrXrXrXrXrXrXrXrXrXrXrXrXrXrX",
"rXrXrXrXrXrXrXrXrXrXrXrXrXrXrXrXrXrXrXrXrXrXrXrXrXrXrXrXrXrXrXrXrXrXrXrXrXrXrXrXrXrXrXrXrXrXrXrXrXrXrXrXrXrXrXrXrXrXrXrXrXrXrXrX",
"rXrXrXrXrXrXrXrXrXrXrXrXrXrXrXrXrXrXrXrXrXrXrXrXrXrXrXrXrXrXrXrXrXrXrXrXrXrXrXrXrXrXrXrXrXrXrXrXrXrXrXrXrXrXrXrXrXrXrXrXrXrXrXrX",
"rXrXrXrXrXrXrXrXrXrXrXrXrXrXrXrXrXrXrXrXrXrXrXrXrXrXrXrXrXrXrXrXrXrXrXrXrXrXrXrXrXrXrXrXrXrXrXrXrXrXrXrXrXrXrXrXrXrXrXrXrXrXrXrX",
"rXrXrXrXrXrXrXrXrXrXrXrXrXrXrXrXrXrXrXrXrXrXrXrXrXrXrXrXrXrXrXrXrXrXrXrXrXrXrXrXrXrXrXrXrXrXrXrXrXrXrXrXrXrXrXrXrXrXrXrXrXrXrXrX"
};
