/* XPM */
static const char *exit_8[] = {
/* columns rows colors chars-per-pixel */
"64 64 220 2 ",
"   c #AB3D2D",
".  c #B33E2E",
"X  c #A63932",
"o  c #AC3B32",
"O  c #A73439",
"+  c #AB3738",
"@  c #B23D33",
"#  c #BA3E33",
"$  c #B63B3A",
"%  c #BA3E3B",
"&  c #B1363B",
"*  c #AC4326",
"=  c #AD422C",
"-  c #B24626",
";  c #B44A24",
":  c #B3442B",
">  c #BA462C",
",  c #B6492D",
"<  c #BC4B2D",
"1  c #B84E22",
"2  c #BE502E",
"3  c #AE4031",
"4  c #B24331",
"5  c #BC4333",
"6  c #BB4B32",
"7  c #BC4239",
"8  c #BC4838",
"9  c #BE5030",
"0  c #C4542D",
"q  c #C55928",
"w  c #C54435",
"e  c #C44C31",
"r  c #CB4C34",
"t  c #C5433C",
"y  c #CB453B",
"u  c #CB4A3C",
"i  c #C84838",
"p  c #D3463E",
"a  c #D34C3D",
"s  c #DC4E3F",
"d  c #C45331",
"f  c #CC5431",
"g  c #C75935",
"h  c #CC5A32",
"j  c #D15533",
"k  c #D35C32",
"l  c #D7553C",
"z  c #C24C2D",
"x  c #E1593E",
"c  c #CE612F",
"v  c #D3642F",
"b  c #D46234",
"n  c #DB6636",
"m  c #DC6C3A",
"M  c #DA6938",
"N  c #DD713A",
"B  c #CF623A",
"V  c #E26E3A",
"C  c #E06338",
"Z  c #E3743D",
"A  c #E8783C",
"S  c #BC3B40",
"D  c #C63C48",
"F  c #CF4942",
"G  c #CB4347",
"H  c #D34541",
"J  c #D44B45",
"K  c #D3434B",
"L  c #DC4C4B",
"P  c #DA4A41",
"I  c #DC5348",
"U  c #DF5153",
"Y  c #DD4851",
"T  c #EB5C4C",
"R  c #E65646",
"E  c #F55E4E",
"W  c #E64B56",
"Q  c #E55352",
"!  c #EB5C54",
"~  c #EC5959",
"^  c #F35E55",
"/  c #E44F45",
"(  c #E97B41",
")  c #E87A45",
"_  c #EE6952",
"`  c #F36453",
"'  c #F56B55",
"]  c #F56359",
"[  c #F56A5D",
"{  c #F77259",
"}  c #EE6847",
"|  c #F35C65",
" . c #F55B6B",
".. c #EC5662",
"X. c #F56D62",
"o. c #F7676A",
"O. c #FC7B6D",
"+. c #F97568",
"@. c #F86874",
"#. c #FB7C7A",
"$. c #FB7477",
"%. c #EC8444",
"&. c #EE8944",
"*. c #E88546",
"=. c #F08242",
"-. c #F28B46",
";. c #F48D49",
":. c #ED9D4F",
">. c #EB964D",
",. c #F49146",
"<. c #F3924A",
"1. c #F49A4D",
"2. c #F89A4E",
"3. c #EC9D51",
"4. c #F59E51",
"5. c #F89A50",
"6. c #F7835E",
"7. c #E7A54E",
"8. c #EBA44F",
"9. c #F8A34D",
"0. c #EDA451",
"q. c #E6AB53",
"w. c #ECAC55",
"e. c #E9A856",
"r. c #F4A252",
"t. c #F8A451",
"y. c #F4AB54",
"u. c #F9AB54",
"i. c #F9AE58",
"p. c #F4AE5A",
"a. c #ECB359",
"s. c #ECB357",
"d. c #F4B356",
"f. c #F8B256",
"g. c #F4B459",
"h. c #F9B459",
"j. c #F2B95C",
"k. c #F8B85C",
"l. c #FC856D",
"z. c #FD946D",
"x. c #FD8D73",
"c. c #FC8B7C",
"v. c #FD8476",
"b. c #FD9374",
"n. c #FE7583",
"m. c #FD758C",
"M. c #FD8785",
"N. c #FE9E84",
"B. c #FE9489",
"V. c #FE8D98",
"C. c #FE9B92",
"Z. c #FF9B9D",
"A. c #FFAB8D",
"S. c #FEAD92",
"D. c #FFAA9A",
"F. c #FFBF99",
"G. c #FEB392",
"H. c #FEB687",
"J. c #FE95A6",
"K. c #FF8BA4",
"L. c #FFAAA4",
"P. c #FFBBA3",
"I. c #FFB8A8",
"U. c #FFAEB1",
"Y. c #FFA3B8",
"T. c #FFB8BC",
"R. c #FFC083",
"E. c #FEC983",
"W. c #FED28D",
"Q. c #FFCC9E",
"!. c #FFCA98",
"~. c #FFD49A",
"^. c #FFE697",
"/. c #FFC5A5",
"(. c #FFCAA1",
"). c #FFD6AD",
"_. c #FFD8AC",
"`. c #FFC6B4",
"'. c #FFDBB3",
"]. c #FFD4B4",
"[. c #FFE9A3",
"{. c #FFE4BC",
"}. c #FFEBBC",
"|. c #FFF3BA",
" X c #FFFDBF",
".X c #FFF6B6",
"XX c #FFB7D9",
"oX c #FFCBC4",
"OX c #FFD2CD",
"+X c #FFDAC8",
"@X c #FFDFDB",
"#X c #FFC7D7",
"$X c #FFEDCE",
"%X c #FFE8C7",
"&X c #FFF2C2",
"*X c #FFFBC3",
"=X c #FFFDCE",
"-X c #FFF4CE",
";X c #FFE3D3",
":X c #FFE7DE",
">X c #FFE9DF",
",X c #FFF3D4",
"<X c #FFFCD5",
"1X c #FFFDDC",
"2X c #FFF1DB",
"3X c #FFCAE3",
"4X c #FFDAE7",
"5X c #FFEFE2",
"6X c #FFEEEC",
"7X c MistyRose",
"8X c #FFF7E2",
"9X c #FFFDE4",
"0X c #FFF6EC",
"qX c #FFFDEB",
"wX c #FFEBF2",
"eX c #FFF4F3",
"rX c #FFFDF4",
"tX c #FFFFFB",
"yX c #FF00FF",
"uX c black",
/* pixels */
"yXyXyXyXyXyXyXyXyXyXyXyXyXyXyXyXyXyXyXyXyXyXyXyXyXyXyXyXyXyXyXyXyXyXyXyXyXyXyXyXyXyXyXyXyXyXyXyXyXyXyXyXyXyXyXyXyXyXyXyXyXyXyXyX",
"yXyXyXyXyXyXyXyXyXyXyXyXyXyXyXyXyXyXyXyXyXyXyXyXyXyXyXyXyXyXyXyXyXyXyXyXyXyXyXyXyXyXyXyXyXyXyXyXyXyXyXyXyXyXyXyXyXyXyXyXyXyXyXyX",
"yXyXyXyXyXyXyXyXyXyXyXyXyXyXyXyXyXyXyXyXyXyXyXyXyXyXyXyXyXyXyXyXyXyXyXyXyXyXyXyXyXyXyXyXyXyXyXyXyXyXyXyXyXyXyXyXyXyXyXyXyXyXyXyX",
"yXyXyXyXyXyXyXyXyXyXyXyXyXyXyXyXyXyXyXyXyXyXyXyXyXyXyXyXyXyXyXyXyXyXyXyXyXyXyXyXyXyXyXyXyXyXyXyXyXyXyXyXyXyXyXyXyXyXyXyXyXyXyXyX",
"yXyXyXyXyXyXyXyXyXyXyXyXyXyXyXyXyXyXyXyXyXyXyXyXyXyXyXyXyXyXyXyXyXyXyXyXyXyXyXyXyXyXyXyXyXyXyXyXyXyXyXyXyXyXyXyXyXyXyXyXyXyXyXyX",
"yXyXyXyXyXyXyXyXyXyXyXyXyXyXyXyXyXyXyXyXyXyXyXyXyXyXyXyXyXyXyXyXyXyXyXyXyXyXyXyXyXyXyXyXyXyXyXyXyXyXyXyXyXyXyXyXyXyXyXyXyXyXyXyX",
"yXyXyXyXyXyXyXyXyXyXyXyXyXyXyXyXyXyXyXyXyXyXyXyXyXyXyXyXyXyXyXyXyXyXyXyXyXyXyXyXyXyXyXyXyXyXyXyXyXyXyXyXyXyXyXyXyXyXyXyXyXyXyXyX",
"yXyXyXyXyXyXyXyXyXyXyXyXyXyXyXyXyXyXyXyXyXyXyXyXyXyXyXyXyXyXyXyXyXyXyXyXyXyXyXyXyXyXyXyXyXyXyXyXyXyXyXyXyXyXyXyXyXyXyXyXyXyXyXyX",
"yXyXyXyXyXyXyXyXyXyXyXyXyXyXyXyXyXyXyXyXyXyXyXyXyXyXyXyXyXyXyXyXyXyXyXyXyXyXyXyXyXyXyXyXyXyXyXyXyXyXyXyXyXyXyXyXyXyXyXyXyXyXyXyX",
"yXyXyXyXyXyXyXyXyXyXyXyXyXyXyXyXyXyXyXyXyXyXyXyXyXyXyXyXyXyXyXyXyXyXyXyXyXyXyXyXyXyXyXyXyXyXyXyXyXyXyXyXyXyXyXyXyXyXyXyXyXyXyXyX",
"yXyXyXyXyXyXyXyXyXyXyXyXyXyXyXyXyXyXyXyXyXyXq.q.q.yXyXyXyXyXyXyXyXyXyXyXyXyXyXyXyXyXyXyXyXyXyXyXyXyXyXyXyXyXyXyXyXyXyXyXyXyXyXyX",
"yXyXyXyXyXyXyXyXyXyXyXyXyXyXyXyXyXyXyXs.j.h.h.h.f.h.d.w.yXyXyXyXyXyXyXyXyXyXyXyXyXyXyXyXyXyXyXyXyXyXyXyXyXyXyXyXyXyXyXyXyXyXyXyX",
"yXyXyXyXyXyXyXyXyXyXyXyXyXyXyXyXyXa.j.h.u.2.;.-.-.,.2.t.y.w.yXyXyXyXyXyXyXyXyXyXyXyXyXyXyXyXyXyXyXyXyXyXyXyXyXyXyXyXyXyXyXyXyXyX",
"yXyXyXyXyXyXyXyXyXyXyXyXyXyXyXyXa.k.t.;.A C k j f k n A ;.t.y.yXyXyXyXyXyXyXyXyXyXyXyXyXyXyXyXyXyXyXyXyXyXyXyXyXyXyXyXyXyXyXyXyX",
"yXyXyXyXyXyXyXyXyXyXyXyXyXyXyXj.h.<.V j z > : :     : < k A 1.y.yXyXyXyXyXyXyXyXyXyXyXyXyXyXyXyXyXyXyXyXyXyXyXyXyXyXyXyXyXyXyXyX",
"yXyXyXyXyXyXyXyXyXyXyXyXyXyXj.i.&.b < =   : =     X X   : 0 V ,.r.yXyXyXyXyXyXyXyXyXyXyXyXyXyXyXyXyXyXyXyXyXyXyXyXyXyXyXyXyXyXyX",
"yXyXyXyXyXyXyXyXyXyXyXyXyXa.i.%.h :     o 5 5 @ @ @ + +   : < n -.r.yXyXyXyXyXyXyXyXyXyXyXyXyXyXyXyXyXyXyXyXyXyXyXyXyXyXyXyXyXyX",
"yXyXyXyXyXyXyXyXyXyXyXyXs.h.;.k :   o + $ u a t t t 7 $ 4 @   < m <.:.yXyXyXyXyXyXyXyXyXyXyXyXyXyXyXyXyXyXyXyXyXyXyXyXyXyXyXyXyX",
"yXyXyXyXyXyXyXyXyXyXyXyXh.2.m >   o % t H R ` ! ! Q I u i % o   < A 1.yXyXyXyXyXyXyXyXyXyXyXyXyXyXyXyXyXyXyXyXyXyXyXyXyXyXyXyXyX",
"yXyXyXyXyXyXyXyXyXyXyXa.i.=.f = X @ t s R E { O.O.+.X.! I u % o   h %.1.yXyXyXyXyXyXyXyXyXyXyXyXyXyXyXyXyXyXyXyXyXyXyXyXyXyXyXyX",
"yXyXyXyXyXyXyXyXyXyXyXh.2.n < 4 @ # y R E [ O.B.B.M.M.O.X.T F % X , m <.yXyXyXyXyXyXyXyXyXyXyXyXyXyXyXyXyXyXyXyXyXyXyXyXyXyXyXyX",
"yXyXyXyXyXyXyXyXyXyXw.i.=.f , 5 5 i a T +.c.C.L.L.L.J.C.c.X.I G @   d %.:.yXyXyXyXyXyXyXyXyXyXyXyXyXyXyXyXyXyXyXyXyXyXyXyXyXyXyX",
"yXyXyXyXyXyXyXyXyXyXp.5.V < , e j x _ l.C.I.].+X+XoXT.T.L.M.~ L $ X , Z 1.yXyXyXyXyXyXyXyXyXyXyXyXyXyXyXyXyXyXyXyXyXyXyXyXyXyXyX",
"yXyXyXyXyXyXyXyXyXyXp.%.f , < r l ) b.S./.).}.-X8X5X:X;XoXZ.$.Q D + : b <.yXyXyXyXyXyXyXyXyXyXyXyXyXyXyXyXyXyXyXyXyXyXyXyXyXyXyX",
"yXyXyXyXyXyXyXyXyXw.r.m , = 6 f x 6.H.~.~.[..X<X9XqXqX0X@XT.M...K $   0 %.:.yXyXyXyXyXyXyXyXyXyXyXyXyXyXyXyXyXyXyXyXyXyXyXyXyXyX",
"yXyXyXyXyXyXyXyXyXp.2.b   o 5 f } l.R.^.^..X<X9XqXrXrXrX6X#XJ.@.W S X , A 1.yXyXyXyXyXyXyXyXyXyXyXyXyXyXyXyXyXyXyXyXyXyXyXyXyXyX",
"yXyXyXyXyXyXyXyXyXy.-.h = 3 5 l ' z.R.^.*X9XqXqXrXrXrXrXeX4XXXn.W D o : m <.yXyXyXyXyXyXyXyXyXyXyXyXyXyXyXyXyXyXyXyXyXyXyXyXyXyX",
"yXyXyXyXyXyXyXyXyXy.%.d : , e l ' z.E.[.1XrXqX1XqXrXrXrXrXwXXXm.| G @ : b <.yXyXyXyXyXyXyXyXyXyXyXyXyXyXyXyXyXyXyXyXyXyXyXyXyXyX",
"yXyXyXyXyXyXyXyX7.t.A < = , r x ` z.W..X1X9XqX9X9X9XqXrXrXwXXXK.o.K &   h &.yXyXyXyXyXyXyXyXyXyXyXyXyXyXyXyXyXyXyXyXyXyXyXyXyXyX",
"yXyXyXyXyXyXyXyX0.t.Z ,   . w x ' z.W.|.<X<X9XrXrXqX1X9XrXwX3XJ.$.U 7 : 0 %.:.yXyXyXyXyXyXyXyXyXyXyXyXyXyXyXyXyXyXyXyXyXyXyXyXyX",
"yXyXyXyXyXyXyXyX0.4.m :   @ # p ] x.!.}.&X X<XrXtXrX9X9XrXeX3XY.#.! u > 0 %.:.yXyXyXyXyXyXyXyXyXyXyXyXyXyXyXyXyXyXyXyXyXyXyXyXyX",
"yXyXyXyXyXyXyXyX0.2.M =   o # p ^ b.Q.{.|..X*XqXtXtXqXqXrXrX4XU.#.Q y > 0 %.0.yXyXyXyXyXyXyXyXyXyXyXyXyXyXyXyXyXyXyXyXyXyXyXyXyX",
"yXyXyXyXyXyXyXyX0.2.M = X o # H ] b.Q.'.&X X=XqXtXtXrXrXrXrX7X`.c.! u < 0 ( 3.yXyXyXyXyXyXyXyXyXyXyXyXyXyXyXyXyXyXyXyXyXyXyXyXyX",
"yXyXyXyXyXyXyXyX0.2.M = X o 5 P ^ b.Q.'.%X=X1XqXrXtXqXqXqXeX@XI.c.! u : 2 ( 3.yXyXyXyXyXyXyXyXyXyXyXyXyXyXyXyXyXyXyXyXyXyXyXyXyX",
"yXyXyXyXyXyXyXyX3.2.m :   4 5 p ^ b.!.'.$X1X9X1X9XrX9X1X0X6XoXD.+.L 5   9 *.3.yXyXyXyXyXyXyXyXyXyXyXyXyXyXyXyXyXyXyXyXyXyXyXyXyX",
"yXyXyXyXyXyXyXyX:.1.Z ,   @ # p T l.F.'.,X9X9X<X<XqX9X9X0X:X`.B.o.J #   d *.yXyXyXyXyXyXyXyXyXyXyXyXyXyXyXyXyXyXyXyXyXyXyXyXyXyX",
"yXyXyXyXyXyXyXyXyX4.( <   o @ w / +.G._.,XqX9X<X1XqXrXrX0X+XP.M.~ H @   g ;.yXyXyXyXyXyXyXyXyXyXyXyXyXyXyXyXyXyXyXyXyXyXyXyXyXyX",
"yXyXyXyXyXyXyXyXyXt.%.d     @ 5 p ] N.(.$XqX9X<X1XqXtXrX,X'.D.#.Q t @ o B >.yXyXyXyXyXyXyXyXyXyXyXyXyXyXyXyXyXyXyXyXyXyXyXyXyXyX",
"yXyXyXyXyXyXyXyXyXr.;.h =   @ # y ! c.F.%X8X9X1X1XqXrX9X&X/.B.o.L 5 X 4 N 3.yXyXyXyXyXyXyXyXyXyXyXyXyXyXyXyXyXyXyXyXyXyXyXyXyXyX",
"yXyXyXyXyXyXyXyXyX3.2.m :   . > i / O.S.'.%X>X5X2X9XqX<X}.P.#.~ y @ X 6 *.0.yXyXyXyXyXyXyXyXyXyXyXyXyXyXyXyXyXyXyXyXyXyXyXyXyXyX",
"yXyXyXyXyXyXyXyXyXyX4.( <   : > w p [ N.(.`.oXOXOX;X,X{.).A.+.L $ O X g >.yXyXyXyXyXyXyXyXyXyXyXyXyXyXyXyXyXyXyXyXyXyXyXyXyXyXyX",
"yXyXyXyXyXyXyXyXyXyXr.;.h = = : . w T x.A.D.L.U.U.`.'.(.G.x.' F & O 4 m 4.yXyXyXyXyXyXyXyXyXyXyXyXyXyXyXyXyXyXyXyXyXyXyXyXyXyXyX",
"yXyXyXyXyXyXyXyXyXyX3.5.Z , = : . 5 l { v.M.V.V.V.Z.S.N.x.{ T u + X d *.r.yXyXyXyXyXyXyXyXyXyXyXyXyXyXyXyXyXyXyXyXyXyXyXyXyXyXyX",
"yXyXyXyXyXyXyXyXyXyXyXr.-.h = * : > r R ] o.$.n.n.n.v.l.+.! J i o : m 1.yXyXyXyXyXyXyXyXyXyXyXyXyXyXyXyXyXyXyXyXyXyXyXyXyXyXyXyX",
"yXyXyXyXyXyXyXyXyXyXyX3.5.A < * - : > i P Q |  . . .| [ _ J 7 4 , g &.y.yXyXyXyXyXyXyXyXyXyXyXyXyXyXyXyXyXyXyXyXyXyXyXyXyXyXyXyX",
"yXyXyXyXyXyXyXyXyXyXyXyXr.<.n ; * - : > w t K L Y D G I a 8 3 : 0 A r.yXyXyXyXyXyXyXyXyXyXyXyXyXyXyXyXyXyXyXyXyXyXyXyXyXyXyXyXyX",
"yXyXyXyXyXyXyXyXyXyXyXyX3.t.-.b ; ; - > : @ % % S & & 7 6 4 = 0 Z t.d.yXyXyXyXyXyXyXyXyXyXyXyXyXyXyXyXyXyXyXyXyXyXyXyXyXyXyXyXyX",
"yXyXyXyXyXyXyXyXyXyXyXyXyX3.t.%.c 1 ; ; : : @ @ + O O o 4 = < m 1.g.yXyXyXyXyXyXyXyXyXyXyXyXyXyXyXyXyXyXyXyXyXyXyXyXyXyXyXyXyXyX",
"yXyXyXyXyXyXyXyXyXyXyXyXyXyXr.t.=.v q ; * = =   X X X o , d V 2.h.yXyXyXyXyXyXyXyXyXyXyXyXyXyXyXyXyXyXyXyXyXyXyXyXyXyXyXyXyXyXyX",
"yXyXyXyXyXyXyXyXyXyXyXyXyXyXyX0.t.,.A q ; * * =     = , k ( 4.g.yXyXyXyXyXyXyXyXyXyXyXyXyXyXyXyXyXyXyXyXyXyXyXyXyXyXyXyXyXyXyXyX",
"yXyXyXyXyXyXyXyXyXyXyXyXyXyXyXyX0.u.9.&.N c q 0 0 h b Z <.y.g.yXyXyXyXyXyXyXyXyXyXyXyXyXyXyXyXyXyXyXyXyXyXyXyXyXyXyXyXyXyXyXyXyX",
"yXyXyXyXyXyXyXyXyXyXyXyXyXyXyXyXyX7.y.u.9.<.&.&.%.-.2.y.d.s.yXyXyXyXyXyXyXyXyXyXyXyXyXyXyXyXyXyXyXyXyXyXyXyXyXyXyXyXyXyXyXyXyXyX",
"yXyXyXyXyXyXyXyXyXyXyXyXyXyXyXyXyXyXyX7.y.d.d.f.f.d.d.w.yXyXyXyXyXyXyXyXyXyXyXyXyXyXyXyXyXyXyXyXyXyXyXyXyXyXyXyXyXyXyXyXyXyXyXyX",
"yXyXyXyXyXyXyXyXyXyXyXyXyXyXyXyXyXyXyXyXyXyX7.7.q.yXyXyXyXyXyXyXyXyXyXyXyXyXyXyXyXyXyXyXyXyXyXyXyXyXyXyXyXyXyXyXyXyXyXyXyXyXyXyX",
"yXyXyXyXyXyXyXyXyXyXyXyXyXyXyXyXyXyXyXyXyXyXyXyXyXyXyXyXyXyXyXyXyXyXyXyXyXyXyXyXyXyXyXyXyXyXyXyXyXyXyXyXyXyXyXyXyXyXyXyXyXyXyXyX",
"yXyXyXyXyXyXyXyXyXyXyXyXyXyXyXyXyXyXyXyXyXyXyXyXyXyXyXyXyXyXyXyXyXyXyXyXyXyXyXyXyXyXyXyXyXyXyXyXyXyXyXyXyXyXyXyXyXyXyXyXyXyXyXyX",
"yXyXyXyXyXyXyXyXyXyXyXyXyXyXyXyXyXyXyXyXyXyXyXyXyXyXyXyXyXyXyXyXyXyXyXyXyXyXyXyXyXyXyXyXyXyXyXyXyXyXyXyXyXyXyXyXyXyXyXyXyXyXyXyX",
"yXyXyXyXyXyXyXyXyXyXyXyXyXyXyXyXyXyXyXyXyXyXyXyXyXyXyXyXyXyXyXyXyXyXyXyXyXyXyXyXyXyXyXyXyXyXyXyXyXyXyXyXyXyXyXyXyXyXyXyXyXyXyXyX",
"yXyXyXyXyXyXyXyXyXyXyXyXyXyXyXyXyXyXyXyXyXyXyXyXyXyXyXyXyXyXyXyXyXyXyXyXyXyXyXyXyXyXyXyXyXyXyXyXyXyXyXyXyXyXyXyXyXyXyXyXyXyXyXyX",
"yXyXyXyXyXyXyXyXyXyXyXyXyXyXyXyXyXyXyXyXyXyXyXyXyXyXyXyXyXyXyXyXyXyXyXyXyXyXyXyXyXyXyXyXyXyXyXyXyXyXyXyXyXyXyXyXyXyXyXyXyXyXyXyX",
"yXyXyXyXyXyXyXyXyXyXyXyXyXyXyXyXyXyXyXyXyXyXyXyXyXyXyXyXyXyXyXyXyXyXyXyXyXyXyXyXyXyXyXyXyXyXyXyXyXyXyXyXyXyXyXyXyXyXyXyXyXyXyXyX",
"yXyXyXyXyXyXyXyXyXyXyXyXyXyXyXyXyXyXyXyXyXyXyXyXyXyXyXyXyXyXyXyXyXyXyXyXyXyXyXyXyXyXyXyXyXyXyXyXyXyXyXyXyXyXyXyXyXyXyXyXyXyXyXyX",
"yXyXyXyXyXyXyXyXyXyXyXyXyXyXyXyXyXyXyXyXyXyXyXyXyXyXyXyXyXyXyXyXyXyXyXyXyXyXyXyXyXyXyXyXyXyXyXyXyXyXyXyXyXyXyXyXyXyXyXyXyXyXyXyX",
"yXyXyXyXyXyXyXyXyXyXyXyXyXyXyXyXyXyXyXyXyXyXyXyXyXyXyXyXyXyXyXyXyXyXyXyXyXyXyXyXyXyXyXyXyXyXyXyXyXyXyXyXyXyXyXyXyXyXyXyXyXyXyXyX"
};
