/* XPM */
static const char *exit_2[] = {
/* columns rows colors chars-per-pixel */
"64 64 226 2 ",
"   c #AB3E2E",
".  c #A73A2F",
"X  c #B43E2E",
"o  c #A73A32",
"O  c #AD3C32",
"+  c #AD3938",
"@  c #A73634",
"#  c #B33D34",
"$  c #BC3E32",
"%  c #B53A3B",
"&  c #BB3D3A",
"*  c #B2363D",
"=  c #AC4625",
"-  c #AD422B",
";  c #AF4927",
":  c #B34726",
">  c #B44C25",
",  c #B2442C",
"<  c #BA422E",
"1  c #B5492B",
"2  c #BB4C2C",
"3  c #BD512C",
"4  c #BD5326",
"5  c #AE4035",
"6  c #B44231",
"7  c #BB4334",
"8  c #BD4932",
"9  c #BD443B",
"0  c #BE5231",
"q  c #C0482F",
"w  c #C3542D",
"e  c #C75A2C",
"r  c #CB5C2E",
"t  c #C24433",
"y  c #C54A33",
"u  c #CB4C36",
"i  c #C6433C",
"p  c #CB4A3B",
"a  c #C9443A",
"s  c #D54A3C",
"d  c #DA4C3C",
"f  c #D34739",
"g  c #C25431",
"h  c #C95331",
"j  c #CB5C32",
"k  c #C75A32",
"l  c #D65638",
"z  c #E35A3C",
"x  c #F05F3F",
"c  c #D2642F",
"v  c #CE6234",
"b  c #D36234",
"n  c #D76835",
"m  c #DB6B36",
"M  c #DC6D3A",
"N  c #D46737",
"B  c #DB723C",
"V  c #DF7136",
"C  c #EA673C",
"Z  c #E3743B",
"A  c #E4793D",
"S  c #EA7D3F",
"D  c #F26A3D",
"F  c #BA3843",
"G  c #C43E47",
"H  c #CC4645",
"J  c #CB4645",
"K  c #D44A43",
"L  c #DA4B44",
"P  c #D6444B",
"I  c #D64552",
"U  c #DA584A",
"Y  c #E24D49",
"T  c #E45245",
"R  c #E4534B",
"E  c #EB544E",
"W  c #E85847",
"Q  c #F65C4A",
"!  c #EB5C52",
"~  c #E75654",
"^  c #F55A5A",
"/  c #E0495B",
"(  c #FA694A",
")  c #E57D41",
"_  c #EC7E43",
"`  c #F47348",
"'  c #ED6557",
"]  c #F36254",
"[  c #F46359",
"{  c #FA6859",
"}  c #FA7B5B",
"|  c #FE7456",
" . c #E56543",
".. c #EF596B",
"X. c #F65962",
"o. c #ED546A",
"O. c #F46563",
"+. c #FA6E64",
"@. c #F9686A",
"#. c #F97564",
"$. c #FB7A68",
"%. c #FC7474",
"&. c #F9787A",
"*. c #F16975",
"=. c #E7803F",
"-. c #EB8542",
";. c #ED8944",
":. c #ED8F49",
">. c #E68344",
",. c #F18D45",
"<. c #F8884B",
"1. c #EE954B",
"2. c #ED9C4D",
"3. c #E9984B",
"4. c #F29047",
"5. c #F2934A",
"6. c #F59B4D",
"7. c #FB8B58",
"8. c #ED9D50",
"9. c #F39D50",
"0. c #EBA24F",
"q. c #E5A64E",
"w. c #F5A34F",
"e. c #F8A44F",
"r. c #EDA352",
"t. c #E6A953",
"y. c #EDAC55",
"u. c #EBAE59",
"i. c #F4A351",
"p. c #F4AB54",
"a. c #F8AB54",
"s. c #F4AE58",
"d. c #F8A652",
"f. c #EDB256",
"g. c #ECB358",
"h. c #F6B356",
"j. c #F8B256",
"k. c #F4B459",
"l. c #F2B95A",
"z. c #F9B559",
"x. c #FE866C",
"c. c #FD847C",
"v. c #FD8C7A",
"b. c #FE8977",
"n. c #FF917A",
"m. c #FE9873",
"M. c #FA9167",
"N. c #FEA37A",
"B. c #FEAD7A",
"V. c #FDB075",
"C. c #FB6380",
"Z. c #FD7987",
"A. c #FD8B84",
"S. c #FE8F89",
"D. c #FE9787",
"F. c #FF9A9B",
"G. c #FE9496",
"H. c #FE869B",
"J. c #FEA48D",
"K. c #FFA283",
"L. c #FFBF8C",
"P. c #FEAA98",
"I. c #FFB39A",
"U. c #FF9DA2",
"Y. c #FF96BD",
"T. c #FF8AAB",
"R. c #FEA8A6",
"E. c #FFB4A6",
"W. c #FEBCA3",
"Q. c #FFBAAB",
"!. c #FFB2AA",
"~. c #FFBEBC",
"^. c #FFBDB6",
"/. c #FFCB95",
"(. c #FFCA97",
"). c #FFD79A",
"_. c #FFC3AD",
"`. c #FFC8A4",
"'. c #FFD8A7",
"]. c #FFC3B4",
"[. c #FECCB2",
"{. c #FFD2BC",
"}. c #FED4B7",
"|. c #FFE9A5",
" X c #FFE1BE",
".X c #FFEAB3",
"XX c #FFF4B3",
"oX c #FFF5BE",
"OX c #FFF8BB",
"+X c #FFFAB6",
"@X c #FFBBC3",
"#X c #FFB4D1",
"$X c #FFC7C9",
"%X c #FFDEC4",
"&X c #FFD7C5",
"*X c #FFCBDE",
"=X c #FFD3DE",
"-X c #FFDCD9",
";X c #FFE4C7",
":X c #FFECC3",
">X c #FFE3CE",
",X c #FFECCE",
"<X c #FFFCC4",
"1X c #FFF4CF",
"2X c #FFFCCB",
"3X c #FFF6C4",
"4X c #FFECDC",
"5X c #FFE9D9",
"6X c #FFFCD4",
"7X c #FFF4DB",
"8X c #FFFCDD",
"9X c #FFF3D3",
"0X c #FFD2F1",
"qX c #FFC4EB",
"wX c #FFEDEB",
"eX c #FFF5E2",
"rX c #FFFDE3",
"tX c #FFFDEC",
"yX c #FFF2ED",
"uX c #FFF2F3",
"iX c #FFFEF3",
"pX c #FFF1F8",
"aX c #FFFEFA",
"sX c #FFE7F2",
"dX c #FF00FF",
"fX c black",
/* pixels */
"dXdXdXdXdXdXdXdXdXdXdXdXdXdXdXdXdXdXdXdXdXdXdXdXdXdXdXdXdXdXdXdXdXdXdXdXdXdXdXdXdXdXdXdXdXdXdXdXdXdXdXdXdXdXdXdXdXdXdXdXdXdXdXdX",
"dXdXdXdXdXdXdXdXdXdXdXdXdXdXdXdXdXdXdXdXdXdXdXdXdXdXdXdXdXdXdXdXdXdXdXdXdXdXdXdXdXdXdXdXdXdXdXdXdXdXdXdXdXdXdXdXdXdXdXdXdXdXdXdX",
"dXdXdXdXdXdXdXdXdXdXdXdXdXdXdXdXdXdXdXdXdXdXdXdXdXdXdXdXdXdXdXdXdXdXdXdXdXdXdXdXdXdXdXdXdXdXdXdXdXdXdXdXdXdXdXdXdXdXdXdXdXdXdXdX",
"dXdXdXdXdXdXdXdXdXdXdXdXdXdXdXdXdXdXdXdXdXdXdXdXdXdXdXdXdXdXdXdXdXdXdXdXdXdXdXdXdXdXdXdXdXdXdXdXdXdXdXdXdXdXdXdXdXdXdXdXdXdXdXdX",
"dXdXdXdXdXdXdXdXdXdXdXdXdXdXdXdXdXdXdXdXdXdXdXdXdXdXdXdXdXdXdXdXdXdXdXdXdXdXdXdXdXdXdXdXdXdXdXdXdXdXdXdXdXdXdXdXdXdXdXdXdXdXdXdX",
"dXdXdXdXdXdXdXdXdXdXdXdXdXdXdXdXdXdXdXdXdXdXdXdXdXdXdXdXdXdXdXdXdXdXdXdXdXdXdXdXdXdXdXdXdXdXdXdXdXdXdXdXdXdXdXdXdXdXdXdXdXdXdXdX",
"dXdXdXdXdXdXdXdXdXdXdXdXdXdXdXdXdXdXdXdXdXdXdXdXdXdXdXdXdXdXdXdXdXdXdXdXdXdXdXdXdXdXdXdXdXdXdXdXdXdXdXdXdXdXdXdXdXdXdXdXdXdXdXdX",
"dXdXdXdXdXdXdXdXdXdXdXdXdXdXdXdXdXdXdXdXdXdXdXdXdXdXdXdXdXdXdXdXdXdXdXdXdXdXdXdXdXdXdXdXdXdXdXdXdXdXdXdXdXdXdXdXdXdXdXdXdXdXdXdX",
"dXdXdXdXdXdXdXdXdXdXdXdXdXdXdXdXdXdXdXdXdXdXdXdXdXdXdXdXdXdXdXdXdXdXdXdXdXdXdXdXdXdXdXdXdXdXdXdXdXdXdXdXdXdXdXdXdXdXdXdXdXdXdXdX",
"dXdXdXdXdXdXdXdXdXdXdXdXdXdXdXdXdXdXdXdXdXdXdXdXdXdXdXdXdXdXdXdXdXdXdXdXdXdXdXdXdXdXdXdXdXdXdXdXdXdXdXdXdXdXdXdXdXdXdXdXdXdXdXdX",
"dXdXdXdXdXdXdXdXdXdXdXdXdXdXdXdXdXdXdXdXdXdXt.t.t.dXdXdXdXdXdXdXdXdXdXdXdXdXdXdXdXdXdXdXdXdXdXdXdXdXdXdXdXdXdXdXdXdXdXdXdXdXdXdX",
"dXdXdXdXdXdXdXdXdXdXdXdXdXdXdXdXdXdXdXg.l.l.z.j.j.h.k.y.dXdXdXdXdXdXdXdXdXdXdXdXdXdXdXdXdXdXdXdXdXdXdXdXdXdXdXdXdXdXdXdXdXdXdXdX",
"dXdXdXdXdXdXdXdXdXdXdXdXdXdXdXdXdXg.l.z.a.6.,.;.;.4.6.d.p.y.dXdXdXdXdXdXdXdXdXdXdXdXdXdXdXdXdXdXdXdXdXdXdXdXdXdXdXdXdXdXdXdXdXdX",
"dXdXdXdXdXdXdXdXdXdXdXdXdXdXdXdXl.z.d.,.Z b k e e r n A ,.w.i.dXdXdXdXdXdXdXdXdXdXdXdXdXdXdXdXdXdXdXdXdXdXdXdXdXdXdXdXdXdXdXdXdX",
"dXdXdXdXdXdXdXdXdXdXdXdXdXdXdXl.z.5.Z k 2 , - - - - : 2 v A 5.i.dXdXdXdXdXdXdXdXdXdXdXdXdXdXdXdXdXdXdXdXdXdXdXdXdXdXdXdXdXdXdXdX",
"dXdXdXdXdXdXdXdXdXdXdXdXdXdXl.j.;.N 2 , - - , 6 O   - - : w M 4.i.dXdXdXdXdXdXdXdXdXdXdXdXdXdXdXdXdXdXdXdXdXdXdXdXdXdXdXdXdXdXdX",
"dXdXdXdXdXdXdXdXdXdXdXdXdXl.z.;.j 1 - - , < 8 7 # # # O - ; 3 m ,.i.dXdXdXdXdXdXdXdXdXdXdXdXdXdXdXdXdXdXdXdXdXdXdXdXdXdXdXdXdXdX",
"dXdXdXdXdXdXdXdXdXdXdXdXu.z.4.b 1 - - , 6 t p p & & & # 6 , : 3 M 4.8.dXdXdXdXdXdXdXdXdXdXdXdXdXdXdXdXdXdXdXdXdXdXdXdXdXdXdXdXdX",
"dXdXdXdXdXdXdXdXdXdXdXdXz.9.m 2 - - 6 7 a L R R L L L K i 7 < - 3 A 6.dXdXdXdXdXdXdXdXdXdXdXdXdXdXdXdXdXdXdXdXdXdXdXdXdXdXdXdXdX",
"dXdXdXdXdXdXdXdXdXdXdXf.a.) w , - 7 p L E [ #.#.O.O.[ ! R K 7 O - j ;.2.dXdXdXdXdXdXdXdXdXdXdXdXdXdXdXdXdXdXdXdXdXdXdXdXdXdXdXdX",
"dXdXdXdXdXdXdXdXdXdXdXz.6.n 1 1 7 i T Q { $.n.D.S.A.c.$.{ ! J # - 1 M 4.dXdXdXdXdXdXdXdXdXdXdXdXdXdXdXdXdXdXdXdXdXdXdXdXdXdXdXdX",
"dXdXdXdXdXdXdXdXdXdXu.a.S r 2 y l d W ( | x.K.I.E.R.P.J.v.+.R J O   g -.2.dXdXdXdXdXdXdXdXdXdXdXdXdXdXdXdXdXdXdXdXdXdXdXdXdXdXdX",
"dXdXdXdXdXdXdXdXdXdXs.6.n 2 w l z x ( | x.J._.&X$X@X~.].I.v.O.P * . 1 B 6.dXdXdXdXdXdXdXdXdXdXdXdXdXdXdXdXdXdXdXdXdXdXdXdXdXdXdX",
"dXdXdXdXdXdXdXdXdXdXs.;.e , y l C ` 7.N.W.&X5XeXwX=X=X-X{.P.%./ F @ - v :.dXdXdXdXdXdXdXdXdXdXdXdXdXdXdXdXdXdXdXdXdXdXdXdXdXdXdX",
"dXdXdXdXdXdXdXdXdXy.a.Z 2   7 l D <.V.'.:X:X2X8XiXuXuXyX5X^.Z.o.G + - g >.2.dXdXdXdXdXdXdXdXdXdXdXdXdXdXdXdXdXdXdXdXdXdXdXdXdXdX",
"dXdXdXdXdXdXdXdXdXs.6.n 1 O # u C 7.L..XOXXX<X8XtXiXiXaXyX$XH...I %   1 B 5.dXdXdXdXdXdXdXdXdXdXdXdXdXdXdXdXdXdXdXdXdXdXdXdXdXdX",
"dXdXdXdXdXdXdXdXdXp.;.r , 6 7 y  .M.L.|.+X2X8XrXtXtXtXaXpX*XT.C./ G 6 1 N 1.dXdXdXdXdXdXdXdXdXdXdXdXdXdXdXdXdXdXdXdXdXdXdXdXdXdX",
"dXdXdXdXdXdXdXdXdXp.>.3 , 8 h l ` m./.|.<XtXtXrXtXtXtXiXpXqXY.Z...H 6 , v :.dXdXdXdXdXdXdXdXdXdXdXdXdXdXdXdXdXdXdXdXdXdXdXdXdXdX",
"dXdXdXdXdXdXdXdXr.d.A 2 - < h C 7.B.).XX8XiXtXtXtXtXtXiXuX0X#XU.*.P # , k ;.2.dXdXdXdXdXdXdXdXdXdXdXdXdXdXdXdXdXdXdXdXdXdXdXdXdX",
"dXdXdXdXdXdXdXdXr.w.Z 2 , < t z } N./.XX8XtXtXiXiXtXrXrXeXsX=XR.*.I $ , g -.2.dXdXdXdXdXdXdXdXdXdXdXdXdXdXdXdXdXdXdXdXdXdXdXdXdX",
"dXdXdXdXdXdXdXdXr.6.M 1   X $ d { n./.XX6X6X8XiXaXiX8X6XrXuX-XQ.A.' u 2 e >.2.dXdXdXdXdXdXdXdXdXdXdXdXdXdXdXdXdXdXdXdXdXdXdXdXdX",
"dXdXdXdXdXdXdXdXr.6.m , . O $ s [ b.(.oX6X2X6XtXaXaXtXrXiXaX4X[.A.' l 2 e =.2.dXdXdXdXdXdXdXdXdXdXdXdXdXdXdXdXdXdXdXdXdXdXdXdXdX",
"dXdXdXdXdXdXdXdXr.6.m , . O $ d { n.'.2X6X<X2XtXaXaXaXiXaXiX7X}.A.! u < 3 ) 2.dXdXdXdXdXdXdXdXdXdXdXdXdXdXdXdXdXdXdXdXdXdXdXdXdX",
"dXdXdXdXdXdXdXdXr.6.m - . O t T } N.'.oX:XOX<XrXiXaXiXtXiXyX>XQ.&.~ y , 3 ) 2.dXdXdXdXdXdXdXdXdXdXdXdXdXdXdXdXdXdXdXdXdXdXdXdXdX",
"dXdXdXdXdXdXdXdX0.6.M , o O t W } m.(..X:X3X2XrXrXtXiXtXtX4X{.F.@.R t , 0 >.8.dXdXdXdXdXdXdXdXdXdXdXdXdXdXdXdXdXdXdXdXdXdXdXdXdX",
"dXdXdXdXdXdXdXdX2.6.Z 1 o # y z ( $.J.[.;X9X8XrX6XrXiXiXiX7X}.G.O.L 7   g ;.dXdXdXdXdXdXdXdXdXdXdXdXdXdXdXdXdXdXdXdXdXdXdXdXdXdX",
"dXdXdXdXdXdXdXdXdXw.S 2 - , q d Q { S._.;X5XrX8X6X8XiXaXrX1X[.S.[ s #   k :.dXdXdXdXdXdXdXdXdXdXdXdXdXdXdXdXdXdXdXdXdXdXdXdXdXdX",
"dXdXdXdXdXdXdXdXdXd.;.k - - < f T ^ c.W.%X4XtXrX6X8XtXtX6X:XE.c.] s #   N 1.dXdXdXdXdXdXdXdXdXdXdXdXdXdXdXdXdXdXdXdXdXdXdXdXdXdX",
"dXdXdXdXdXdXdXdXdXw.4.b -   X t f E %.I.{.4XtXtX8XrXrXrX1X}.J.#.T i + 6 B 8.dXdXdXdXdXdXdXdXdXdXdXdXdXdXdXdXdXdXdXdXdXdXdXdXdXdX",
"dXdXdXdXdXdXdXdXdX0.6.M 1   X < t Y +.D.[.,X7XeX7X7X7X9X XW.v.[ K % O 0 >.r.dXdXdXdXdXdXdXdXdXdXdXdXdXdXdXdXdXdXdXdXdXdXdXdXdXdX",
"dXdXdXdXdXdXdXdXdX3.i._ g     X 7 s ] b.W.{.%X>X>X;X%X X`.D.#.R i + o k 1.dXdXdXdXdXdXdXdXdXdXdXdXdXdXdXdXdXdXdXdXdXdXdXdXdXdXdX",
"dXdXdXdXdXdXdXdXdXdXi.4.j -   , < a T +.S.R.].].].^.!.W.J.x.[ H % + , B 9.dXdXdXdXdXdXdXdXdXdXdXdXdXdXdXdXdXdXdXdXdXdXdXdXdXdXdX",
"dXdXdXdXdXdXdXdXdXdX2.9.Z 2   - , < f E +.A.F.U.U.F.G.D.v.{ E J + - k ;.y.dXdXdXdXdXdXdXdXdXdXdXdXdXdXdXdXdXdXdXdXdXdXdXdXdXdXdX",
"dXdXdXdXdXdXdXdXdXdXdXi.,.j - - : < t s ] +.%.Z.Z.Z.&.&.#.! K 9 O 1 B 9.dXdXdXdXdXdXdXdXdXdXdXdXdXdXdXdXdXdXdXdXdXdXdXdXdXdXdXdX",
"dXdXdXdXdXdXdXdXdXdXdX8.6.A 3 = : : < u d E ^ X.X.X.! ! U p 8 , - k :.s.dXdXdXdXdXdXdXdXdXdXdXdXdXdXdXdXdXdXdXdXdXdXdXdXdXdXdXdX",
"dXdXdXdXdXdXdXdXdXdXdXdXi.5.n 1 = : 2 q y a P Y P P K J 9 6 1 , g ) d.dXdXdXdXdXdXdXdXdXdXdXdXdXdXdXdXdXdXdXdXdXdXdXdXdXdXdXdXdX",
"dXdXdXdXdXdXdXdXdXdXdXdX3.i.,.b > = > 2 < # & 9 % * % 9 O O 1 w M 6.f.dXdXdXdXdXdXdXdXdXdXdXdXdXdXdXdXdXdXdXdXdXdXdXdXdXdXdXdXdX",
"dXdXdXdXdXdXdXdXdXdXdXdXdX2.w.-.r > > > , O # # + + + O o   w Z 6.s.dXdXdXdXdXdXdXdXdXdXdXdXdXdXdXdXdXdXdXdXdXdXdXdXdXdXdXdXdXdX",
"dXdXdXdXdXdXdXdXdXdXdXdXdXdX0.e.-.c 4 > = -   O O @ o - - 2 M 6.h.dXdXdXdXdXdXdXdXdXdXdXdXdXdXdXdXdXdXdXdXdXdXdXdXdXdXdXdXdXdXdX",
"dXdXdXdXdXdXdXdXdXdXdXdXdXdXdXw.e.,.M e > ; = = - - - 2 j A 6.j.dXdXdXdXdXdXdXdXdXdXdXdXdXdXdXdXdXdXdXdXdXdXdXdXdXdXdXdXdXdXdXdX",
"dXdXdXdXdXdXdXdXdXdXdXdXdXdXdXdX0.d.6.-.V c e w w e b A 4.p.l.dXdXdXdXdXdXdXdXdXdXdXdXdXdXdXdXdXdXdXdXdXdXdXdXdXdXdXdXdXdXdXdXdX",
"dXdXdXdXdXdXdXdXdXdXdXdXdXdXdXdXdX0.p.a.w.5.,.;.;.,.6.p.h.g.dXdXdXdXdXdXdXdXdXdXdXdXdXdXdXdXdXdXdXdXdXdXdXdXdXdXdXdXdXdXdXdXdXdX",
"dXdXdXdXdXdXdXdXdXdXdXdXdXdXdXdXdXdXdXq.p.p.j.j.h.h.k.f.dXdXdXdXdXdXdXdXdXdXdXdXdXdXdXdXdXdXdXdXdXdXdXdXdXdXdXdXdXdXdXdXdXdXdXdX",
"dXdXdXdXdXdXdXdXdXdXdXdXdXdXdXdXdXdXdXdXdXdXq.q.t.dXdXdXdXdXdXdXdXdXdXdXdXdXdXdXdXdXdXdXdXdXdXdXdXdXdXdXdXdXdXdXdXdXdXdXdXdXdXdX",
"dXdXdXdXdXdXdXdXdXdXdXdXdXdXdXdXdXdXdXdXdXdXdXdXdXdXdXdXdXdXdXdXdXdXdXdXdXdXdXdXdXdXdXdXdXdXdXdXdXdXdXdXdXdXdXdXdXdXdXdXdXdXdXdX",
"dXdXdXdXdXdXdXdXdXdXdXdXdXdXdXdXdXdXdXdXdXdXdXdXdXdXdXdXdXdXdXdXdXdXdXdXdXdXdXdXdXdXdXdXdXdXdXdXdXdXdXdXdXdXdXdXdXdXdXdXdXdXdXdX",
"dXdXdXdXdXdXdXdXdXdXdXdXdXdXdXdXdXdXdXdXdXdXdXdXdXdXdXdXdXdXdXdXdXdXdXdXdXdXdXdXdXdXdXdXdXdXdXdXdXdXdXdXdXdXdXdXdXdXdXdXdXdXdXdX",
"dXdXdXdXdXdXdXdXdXdXdXdXdXdXdXdXdXdXdXdXdXdXdXdXdXdXdXdXdXdXdXdXdXdXdXdXdXdXdXdXdXdXdXdXdXdXdXdXdXdXdXdXdXdXdXdXdXdXdXdXdXdXdXdX",
"dXdXdXdXdXdXdXdXdXdXdXdXdXdXdXdXdXdXdXdXdXdXdXdXdXdXdXdXdXdXdXdXdXdXdXdXdXdXdXdXdXdXdXdXdXdXdXdXdXdXdXdXdXdXdXdXdXdXdXdXdXdXdXdX",
"dXdXdXdXdXdXdXdXdXdXdXdXdXdXdXdXdXdXdXdXdXdXdXdXdXdXdXdXdXdXdXdXdXdXdXdXdXdXdXdXdXdXdXdXdXdXdXdXdXdXdXdXdXdXdXdXdXdXdXdXdXdXdXdX",
"dXdXdXdXdXdXdXdXdXdXdXdXdXdXdXdXdXdXdXdXdXdXdXdXdXdXdXdXdXdXdXdXdXdXdXdXdXdXdXdXdXdXdXdXdXdXdXdXdXdXdXdXdXdXdXdXdXdXdXdXdXdXdXdX",
"dXdXdXdXdXdXdXdXdXdXdXdXdXdXdXdXdXdXdXdXdXdXdXdXdXdXdXdXdXdXdXdXdXdXdXdXdXdXdXdXdXdXdXdXdXdXdXdXdXdXdXdXdXdXdXdXdXdXdXdXdXdXdXdX",
"dXdXdXdXdXdXdXdXdXdXdXdXdXdXdXdXdXdXdXdXdXdXdXdXdXdXdXdXdXdXdXdXdXdXdXdXdXdXdXdXdXdXdXdXdXdXdXdXdXdXdXdXdXdXdXdXdXdXdXdXdXdXdXdX",
"dXdXdXdXdXdXdXdXdXdXdXdXdXdXdXdXdXdXdXdXdXdXdXdXdXdXdXdXdXdXdXdXdXdXdXdXdXdXdXdXdXdXdXdXdXdXdXdXdXdXdXdXdXdXdXdXdXdXdXdXdXdXdXdX"
};
