/* XPM */
static const char *exit_11[] = {
/* columns rows colors chars-per-pixel */
"64 64 214 2 ",
"   c #AC3E2E",
".  c #B33D2F",
"X  c #A63B32",
"o  c #AB3C32",
"O  c #AC3938",
"+  c #A93738",
"@  c #B33D33",
"#  c #BA3D34",
"$  c #B33A3A",
"%  c #BA3E3A",
"&  c #B1353C",
"*  c #C23F36",
"=  c #AF4926",
"-  c #AD432D",
";  c #AF4929",
":  c #AD4626",
">  c #B44D25",
",  c #B3452C",
"<  c #BA452D",
"1  c #B54A2C",
"2  c #BB4C2C",
"3  c #BA4C27",
"4  c #BE522E",
"5  c #B85226",
"6  c #AD4130",
"7  c #B34332",
"8  c #BA4234",
"9  c #BB4A32",
"0  c #BC423A",
"q  c #B64038",
"w  c #BD5130",
"e  c #C1552D",
"r  c #C55A2C",
"t  c #C24435",
"y  c #C34A32",
"u  c #C94C34",
"i  c #C3423A",
"p  c #CC423E",
"a  c #CB4B3A",
"s  c #C74B3B",
"d  c #D2473D",
"f  c #D44C3D",
"g  c #C45633",
"h  c #CB5432",
"j  c #C55A32",
"k  c #CB5C33",
"l  c #CB563B",
"z  c #D25336",
"x  c #D15F33",
"c  c #DA563D",
"v  c #E2593F",
"b  c #CA602F",
"n  c #CD6232",
"m  c #CF643A",
"M  c #D26435",
"N  c #D66C3A",
"B  c #DB6B39",
"V  c #D76937",
"C  c #DC723C",
"Z  c #DC7435",
"A  c #D2682F",
"S  c #E3763D",
"D  c #E27A3D",
"F  c #BB3A40",
"G  c #C53E44",
"H  c #D23F4D",
"J  c #CD4542",
"K  c #D54C42",
"L  c #D4444C",
"P  c #D74A48",
"I  c #DB5244",
"U  c #DB5649",
"Y  c #DD4653",
"T  c #E04D4F",
"R  c #E45C4C",
"E  c #E8574A",
"W  c #E54D56",
"Q  c #E45352",
"!  c #E95957",
"~  c #F15D53",
"^  c #F45F4C",
"/  c #E66543",
"(  c #F3634D",
")  c #E57A41",
"_  c #EC6658",
"`  c #F36454",
"'  c #F3625A",
"]  c #F76C58",
"[  c #F57857",
"{  c #F55B69",
"}  c #EE6C61",
"|  c #F76765",
" . c #FB736C",
".. c #FD7B6D",
"X. c #F77667",
"o. c #F56772",
"O. c #FB7D74",
"+. c #FD7779",
"@. c #ED8A3F",
"#. c #E58243",
"$. c #EB8543",
"%. c #ED8A44",
"&. c #ED8B49",
"*. c #E78946",
"=. c #F18E46",
"-. c #F28E49",
";. c #F18747",
":. c #EE924B",
">. c #ED9C4E",
",. c #E9964C",
"<. c #F19346",
"1. c #F3944C",
"2. c #F39A4D",
"3. c #EB9C50",
"4. c #F49E51",
"5. c #F89E50",
"6. c #EAA44E",
"7. c #E6A74F",
"8. c #F5A14C",
"9. c #EDA452",
"0. c #E6AC54",
"q. c #EDAA55",
"w. c #EDAF58",
"e. c #F4A352",
"r. c #F8A351",
"t. c #F4AC54",
"y. c #F8AC55",
"u. c #F5AF58",
"i. c #EDB359",
"p. c #EDB155",
"a. c #F5B155",
"s. c #F4B35A",
"d. c #F9B359",
"f. c #F6BA5C",
"g. c #F8B458",
"h. c #FC8C65",
"j. c #FB8367",
"k. c #FD8B76",
"l. c #FD887A",
"z. c #FE947B",
"x. c #FD9777",
"c. c #FEA770",
"v. c #FEB879",
"b. c #FEA46C",
"n. c #FEC27F",
"m. c #FE7A85",
"M. c #FB728F",
"N. c #FE8784",
"B. c #FF9283",
"V. c #FE9D8A",
"C. c #FE9A95",
"Z. c #FF9C9B",
"A. c #FEA28B",
"S. c #FEA98B",
"D. c #FFAA93",
"F. c #FFAB9B",
"G. c #FFA399",
"H. c #FFB99B",
"J. c #FE8FB0",
"K. c #FF93B0",
"L. c #FE8BA9",
"P. c #FFA4A1",
"I. c #FFB3A6",
"U. c #FFBBA2",
"Y. c #FFBBAC",
"T. c #FFA4B1",
"R. c #FFB9B8",
"E. c #FFC387",
"W. c #FFCF9B",
"Q. c #FFC39E",
"!. c #FFDA98",
"~. c #FFD887",
"^. c #FFE59B",
"/. c #FFCCA8",
"(. c #FFC1B3",
"). c #FFCEB1",
"_. c #FFC9BC",
"`. c #FFD2B3",
"'. c #FFD7BA",
"]. c #FFD3A6",
"[. c #FFE7AA",
"{. c #FFE3BD",
"}. c #FFECB9",
"|. c #FFFCB5",
" X c #FFFDBC",
".X c #FFF1BB",
"XX c #FE9BC0",
"oX c #FFBFCA",
"OX c #FFB5D5",
"+X c #FFC7C2",
"@X c #FFDBCD",
"#X c #FFD5C5",
"$X c #FFC5DF",
"%X c #FFDADA",
"&X c #FFE6C6",
"*X c #FFFAC4",
"=X c #FFF5C8",
"-X c #FFE5D2",
";X c #FFEAD7",
":X c #FFFCD4",
">X c #FFFDDC",
",X c #FFF3D7",
"<X c #FFD9E3",
"1X c #FFE4E4",
"2X c #FFECEA",
"3X c #FFF6E4",
"4X c #FFFDE4",
"5X c #FFF4EC",
"6X c #FFFDEC",
"7X c #FFFDF3",
"8X c #FFFFFA",
"9X c #FFF4F1",
"0X c #FF00FF",
"qX c black",
/* pixels */
"0X0X0X0X0X0X0X0X0X0X0X0X0X0X0X0X0X0X0X0X0X0X0X0X0X0X0X0X0X0X0X0X0X0X0X0X0X0X0X0X0X0X0X0X0X0X0X0X0X0X0X0X0X0X0X0X0X0X0X0X0X0X0X0X",
"0X0X0X0X0X0X0X0X0X0X0X0X0X0X0X0X0X0X0X0X0X0X0X0X0X0X0X0X0X0X0X0X0X0X0X0X0X0X0X0X0X0X0X0X0X0X0X0X0X0X0X0X0X0X0X0X0X0X0X0X0X0X0X0X",
"0X0X0X0X0X0X0X0X0X0X0X0X0X0X0X0X0X0X0X0X0X0X0X0X0X0X0X0X0X0X0X0X0X0X0X0X0X0X0X0X0X0X0X0X0X0X0X0X0X0X0X0X0X0X0X0X0X0X0X0X0X0X0X0X",
"0X0X0X0X0X0X0X0X0X0X0X0X0X0X0X0X0X0X0X0X0X0X0X0X0X0X0X0X0X0X0X0X0X0X0X0X0X0X0X0X0X0X0X0X0X0X0X0X0X0X0X0X0X0X0X0X0X0X0X0X0X0X0X0X",
"0X0X0X0X0X0X0X0X0X0X0X0X0X0X0X0X0X0X0X0X0X0X0X0X0X0X0X0X0X0X0X0X0X0X0X0X0X0X0X0X0X0X0X0X0X0X0X0X0X0X0X0X0X0X0X0X0X0X0X0X0X0X0X0X",
"0X0X0X0X0X0X0X0X0X0X0X0X0X0X0X0X0X0X0X0X0X0X0X0X0X0X0X0X0X0X0X0X0X0X0X0X0X0X0X0X0X0X0X0X0X0X0X0X0X0X0X0X0X0X0X0X0X0X0X0X0X0X0X0X",
"0X0X0X0X0X0X0X0X0X0X0X0X0X0X0X0X0X0X0X0X0X0X0X0X0X0X0X0X0X0X0X0X0X0X0X0X0X0X0X0X0X0X0X0X0X0X0X0X0X0X0X0X0X0X0X0X0X0X0X0X0X0X0X0X",
"0X0X0X0X0X0X0X0X0X0X0X0X0X0X0X0X0X0X0X0X0X0X0X0X0X0X0X0X0X0X0X0X0X0X0X0X0X0X0X0X0X0X0X0X0X0X0X0X0X0X0X0X0X0X0X0X0X0X0X0X0X0X0X0X",
"0X0X0X0X0X0X0X0X0X0X0X0X0X0X0X0X0X0X0X0X0X0X0X0X0X0X0X0X0X0X0X0X0X0X0X0X0X0X0X0X0X0X0X0X0X0X0X0X0X0X0X0X0X0X0X0X0X0X0X0X0X0X0X0X",
"0X0X0X0X0X0X0X0X0X0X0X0X0X0X0X0X0X0X0X0X0X0X0X0X0X0X0X0X0X0X0X0X0X0X0X0X0X0X0X0X0X0X0X0X0X0X0X0X0X0X0X0X0X0X0X0X0X0X0X0X0X0X0X0X",
"0X0X0X0X0X0X0X0X0X0X0X0X0X0X0X0X0X0X0X0X0X0X0.0.0.0X0X0X0X0X0X0X0X0X0X0X0X0X0X0X0X0X0X0X0X0X0X0X0X0X0X0X0X0X0X0X0X0X0X0X0X0X0X0X",
"0X0X0X0X0X0X0X0X0X0X0X0X0X0X0X0X0X0X0Xp.s.f.f.d.d.d.u.q.0X0X0X0X0X0X0X0X0X0X0X0X0X0X0X0X0X0X0X0X0X0X0X0X0X0X0X0X0X0X0X0X0X0X0X0X",
"0X0X0X0X0X0X0X0X0X0X0X0X0X0X0X0X0Xp.f.g.y.5.1.;.;.-.2.r.t.q.0X0X0X0X0X0X0X0X0X0X0X0X0X0X0X0X0X0X0X0X0X0X0X0X0X0X0X0X0X0X0X0X0X0X",
"0X0X0X0X0X0X0X0X0X0X0X0X0X0X0X0Xi.f.y.&.S B x h h k M S =.r.e.0X0X0X0X0X0X0X0X0X0X0X0X0X0X0X0X0X0X0X0X0X0X0X0X0X0X0X0X0X0X0X0X0X",
"0X0X0X0X0X0X0X0X0X0X0X0X0X0X0Xs.d.1.B g 2 1 1 -   - , 2 x S 1.e.0X0X0X0X0X0X0X0X0X0X0X0X0X0X0X0X0X0X0X0X0X0X0X0X0X0X0X0X0X0X0X0X",
"0X0X0X0X0X0X0X0X0X0X0X0X0X0Xs.y.%.n 1 - - - -   o o o   , e B =.8.0X0X0X0X0X0X0X0X0X0X0X0X0X0X0X0X0X0X0X0X0X0X0X0X0X0X0X0X0X0X0X",
"0X0X0X0X0X0X0X0X0X0X0X0X0Xi.y.%.k , - o @ 8 8 @ 8 7 7 o o - 2 M =.2.0X0X0X0X0X0X0X0X0X0X0X0X0X0X0X0X0X0X0X0X0X0X0X0X0X0X0X0X0X0X",
"0X0X0X0X0X0X0X0X0X0X0X0Xw.d.-.x , o o $ 0 f f K K p i 8 q 7   1 B <.>.0X0X0X0X0X0X0X0X0X0X0X0X0X0X0X0X0X0X0X0X0X0X0X0X0X0X0X0X0X",
"0X0X0X0X0X0X0X0X0X0X0X0Xs.4.B 1 o o $ # d E ^ ` ` ~ E K a 8 o - 4 S 2.0X0X0X0X0X0X0X0X0X0X0X0X0X0X0X0X0X0X0X0X0X0X0X0X0X0X0X0X0X",
"0X0X0X0X0X0X0X0X0X0X0Xi.y.$.h 7 o @ 8 * d ^ ]  ... .| ` R s 0 7 - j $.>.0X0X0X0X0X0X0X0X0X0X0X0X0X0X0X0X0X0X0X0X0X0X0X0X0X0X0X0X",
"0X0X0X0X0X0X0X0X0X0X0Xf.5.B 9 7 @ @ t f E | k.B.B.N.N.O.X.R l 0 o , N :.0X0X0X0X0X0X0X0X0X0X0X0X0X0X0X0X0X0X0X0X0X0X0X0X0X0X0X0X",
"0X0X0X0X0X0X0X0X0X0Xw.d.$.k 1 1 y y I `  .N.F.U.I.P.G.C.l.X.U 0 + X g $.>.0X0X0X0X0X0X0X0X0X0X0X0X0X0X0X0X0X0X0X0X0X0X0X0X0X0X0X",
"0X0X0X0X0X0X0X0X0X0Xs.2.B 2 1 2 z / [ k.V.H.).{.&X#X_.(.P.N._ G & X 1 C 2.0X0X0X0X0X0X0X0X0X0X0X0X0X0X0X0X0X0X0X0X0X0X0X0X0X0X0X",
"0X0X0X0X0X0X0X0X0X0Xt.%.k 1 1 y c [ x.S.H.W.[.=X4X3X,X-X+XP.o.L G $ - n :.0X0X0X0X0X0X0X0X0X0X0X0X0X0X0X0X0X0X0X0X0X0X0X0X0X0X0X",
"0X0X0X0X0X0X0X0X0Xq.r.C 1 , 2 h / h.v.S.E.!..X:X6X7X6X6X;X+Xm.! G & X e $.>.0X0X0X0X0X0X0X0X0X0X0X0X0X0X0X0X0X0X0X0X0X0X0X0X0X0X",
"0X0X0X0X0X0X0X0X0Xt.1.k - 7 9 z ( h.v.~.[.=X4X6X7X7X7X7X9X%XK.{ H F o 2 D 2.0X0X0X0X0X0X0X0X0X0X0X0X0X0X0X0X0X0X0X0X0X0X0X0X0X0X",
"0X0X0X0X0X0X0X0X0Xt.&.g - 6 9 c ( j.v.^.:X6X4X4X7X8X8X8X7X<XXXM.W J @ , V 1.0X0X0X0X0X0X0X0X0X0X0X0X0X0X0X0X0X0X0X0X0X0X0X0X0X0X",
"0X0X0X0X0X0X0X0X0Xt.%.g , , y c ] h.n.[.>X4X>X:X4X7X8X8X9X1XOXM.{ L $ - M <.0X0X0X0X0X0X0X0X0X0X0X0X0X0X0X0X0X0X0X0X0X0X0X0X0X0X",
"0X0X0X0X0X0X0X0X0Xy.) 4 1 2 h v [ b.!.*X>X>X4X>X>X6X8X8X7X2XOXL.{ L $   j %.0X0X0X0X0X0X0X0X0X0X0X0X0X0X0X0X0X0X0X0X0X0X0X0X0X0X",
"0X0X0X0X0X0X0X0X9.r.C 1 - < u c [ c.^.=X>X>X6X6X6X7X7X7X7X9X$XJ.o.T % , r $.>.0X0X0X0X0X0X0X0X0X0X0X0X0X0X0X0X0X0X0X0X0X0X0X0X0X",
"0X0X0X0X0X0X0X0X9.4.B ,   . 8 f ] b.W.{.*X*X>X6X8X8X7X6X7X9X$XK.+.Q t , r $.>.0X0X0X0X0X0X0X0X0X0X0X0X0X0X0X0X0X0X0X0X0X0X0X0X0X",
"0X0X0X0X0X0X0X0X9.2.V -   . # p ~ x.Q.`.}.|. X4X8X8X7X6X7X9X<XT.O.! u 3 r #.>.0X0X0X0X0X0X0X0X0X0X0X0X0X0X0X0X0X0X0X0X0X0X0X0X0X",
"0X0X0X0X0X0X0X0X9.2.V -   o @ p ~ z.U.`..X|.|.:X8X8X7X6X7X7X1X(.z._ z 3 e #.>.0X0X0X0X0X0X0X0X0X0X0X0X0X0X0X0X0X0X0X0X0X0X0X0X0X",
"0X0X0X0X0X0X0X0X3.2.V - X o # J ` z.H.)..X X X>X8X8X6X4X6X9X%X(.z._ a , 4 #.>.0X0X0X0X0X0X0X0X0X0X0X0X0X0X0X0X0X0X0X0X0X0X0X0X0X",
"0X0X0X0X0X0X0X0X3.2.B - o @ 8 d ` k.D.Y.&X=X:X4X7X8X4X:X,X1XoXZ. .U 8 - w #.3.0X0X0X0X0X0X0X0X0X0X0X0X0X0X0X0X0X0X0X0X0X0X0X0X0X",
"0X0X0X0X0X0X0X0X3.2.C 1 - 7 @ i E O.A.Y.@X>X6X6X6X7X6X4X3X%XR.N.| J @   g *.0X0X0X0X0X0X0X0X0X0X0X0X0X0X0X0X0X0X0X0X0X0X0X0X0X0X",
"0X0X0X0X0X0X0X0X0X4.D 2 - 7 @ # P X.A.Y.@X6X7X6X4X6X7X7X5X@XI.l.! p @   j &.0X0X0X0X0X0X0X0X0X0X0X0X0X0X0X0X0X0X0X0X0X0X0X0X0X0X",
"0X0X0X0X0X0X0X0X0X4.%.j - o @ # p } B.F.@X6X6X6X4X6X7X7X3X'.D.O.Q i @ 6 m :.0X0X0X0X0X0X0X0X0X0X0X0X0X0X0X0X0X0X0X0X0X0X0X0X0X0X",
"0X0X0X0X0X0X0X0X0Xe.-.M - o @ @ i ! O.D.#X3X6X4X4X6X6X4X=X].V.| P # o 7 C 3.0X0X0X0X0X0X0X0X0X0X0X0X0X0X0X0X0X0X0X0X0X0X0X0X0X0X",
"0X0X0X0X0X0X0X0X0X3.2.B , o o . # I X.A.).;X3X4X>X4X4X,X}.Q.l.' J @ X 9 #.9.0X0X0X0X0X0X0X0X0X0X0X0X0X0X0X0X0X0X0X0X0X0X0X0X0X0X",
"0X0X0X0X0X0X0X0X0X,.4.) w     , < d _ z.H.`.-X;X-X-X,X{./.S...R i o X k :.0X0X0X0X0X0X0X0X0X0X0X0X0X0X0X0X0X0X0X0X0X0X0X0X0X0X0X",
"0X0X0X0X0X0X0X0X0X0X4.-.k - - < < t U j.S.H.Y._.R.(.`./.S.k.' I % + 7 N 4.0X0X0X0X0X0X0X0X0X0X0X0X0X0X0X0X0X0X0X0X0X0X0X0X0X0X0X",
"0X0X0X0X0X0X0X0X0X0X3.2.C 2 ; 1 , < f [ k.B.C.Z.Z.C.G.V.l.] I a q o g *.9.0X0X0X0X0X0X0X0X0X0X0X0X0X0X0X0X0X0X0X0X0X0X0X0X0X0X0X",
"0X0X0X0X0X0X0X0X0X0X0X4.%.k 1 ; , , u R ]  .+.m.m.m.+...] E J 0 7 7 N >.0X0X0X0X0X0X0X0X0X0X0X0X0X0X0X0X0X0X0X0X0X0X0X0X0X0X0X0X",
"0X0X0X0X0X0X0X0X0X0X0X3.2.D 4 : , , 2 u I Q | o.{ { { ' ` I % o 1 j *.t.0X0X0X0X0X0X0X0X0X0X0X0X0X0X0X0X0X0X0X0X0X0X0X0X0X0X0X0X",
"0X0X0X0X0X0X0X0X0X0X0X0Xe.1.V 1 = , 3 2 t p P Q W Y L P I s @ - 4 D e.0X0X0X0X0X0X0X0X0X0X0X0X0X0X0X0X0X0X0X0X0X0X0X0X0X0X0X0X0X",
"0X0X0X0X0X0X0X0X0X0X0X0X>.r.%.n > = > 3 , @ i i % F $ % 9 1 ; 2 C 2.w.0X0X0X0X0X0X0X0X0X0X0X0X0X0X0X0X0X0X0X0X0X0X0X0X0X0X0X0X0X",
"0X0X0X0X0X0X0X0X0X0X0X0X0X9.r.$.b 5 > > 1 , 7 q O + + o 6 - 4 N 2.u.0X0X0X0X0X0X0X0X0X0X0X0X0X0X0X0X0X0X0X0X0X0X0X0X0X0X0X0X0X0X",
"0X0X0X0X0X0X0X0X0X0X0X0X0X0Xe.r.$.A 5 > = ; , , o X X 6 - w C 2.d.0X0X0X0X0X0X0X0X0X0X0X0X0X0X0X0X0X0X0X0X0X0X0X0X0X0X0X0X0X0X0X",
"0X0X0X0X0X0X0X0X0X0X0X0X0X0X0Xe.r.<.Z r 5 = = ; - - - 2 k ) 4.d.0X0X0X0X0X0X0X0X0X0X0X0X0X0X0X0X0X0X0X0X0X0X0X0X0X0X0X0X0X0X0X0X",
"0X0X0X0X0X0X0X0X0X0X0X0X0X0X0X0X6.t.8.@.Z n r r e j M D 1.t.s.0X0X0X0X0X0X0X0X0X0X0X0X0X0X0X0X0X0X0X0X0X0X0X0X0X0X0X0X0X0X0X0X0X",
"0X0X0X0X0X0X0X0X0X0X0X0X0X0X0X0X0X6.t.y.8.<.%.%.%.%.2.t.d.i.0X0X0X0X0X0X0X0X0X0X0X0X0X0X0X0X0X0X0X0X0X0X0X0X0X0X0X0X0X0X0X0X0X0X",
"0X0X0X0X0X0X0X0X0X0X0X0X0X0X0X0X0X0X0X6.t.t.a.a.a.a.s.p.0X0X0X0X0X0X0X0X0X0X0X0X0X0X0X0X0X0X0X0X0X0X0X0X0X0X0X0X0X0X0X0X0X0X0X0X",
"0X0X0X0X0X0X0X0X0X0X0X0X0X0X0X0X0X0X0X0X0X0X7.7.7.0X0X0X0X0X0X0X0X0X0X0X0X0X0X0X0X0X0X0X0X0X0X0X0X0X0X0X0X0X0X0X0X0X0X0X0X0X0X0X",
"0X0X0X0X0X0X0X0X0X0X0X0X0X0X0X0X0X0X0X0X0X0X0X0X0X0X0X0X0X0X0X0X0X0X0X0X0X0X0X0X0X0X0X0X0X0X0X0X0X0X0X0X0X0X0X0X0X0X0X0X0X0X0X0X",
"0X0X0X0X0X0X0X0X0X0X0X0X0X0X0X0X0X0X0X0X0X0X0X0X0X0X0X0X0X0X0X0X0X0X0X0X0X0X0X0X0X0X0X0X0X0X0X0X0X0X0X0X0X0X0X0X0X0X0X0X0X0X0X0X",
"0X0X0X0X0X0X0X0X0X0X0X0X0X0X0X0X0X0X0X0X0X0X0X0X0X0X0X0X0X0X0X0X0X0X0X0X0X0X0X0X0X0X0X0X0X0X0X0X0X0X0X0X0X0X0X0X0X0X0X0X0X0X0X0X",
"0X0X0X0X0X0X0X0X0X0X0X0X0X0X0X0X0X0X0X0X0X0X0X0X0X0X0X0X0X0X0X0X0X0X0X0X0X0X0X0X0X0X0X0X0X0X0X0X0X0X0X0X0X0X0X0X0X0X0X0X0X0X0X0X",
"0X0X0X0X0X0X0X0X0X0X0X0X0X0X0X0X0X0X0X0X0X0X0X0X0X0X0X0X0X0X0X0X0X0X0X0X0X0X0X0X0X0X0X0X0X0X0X0X0X0X0X0X0X0X0X0X0X0X0X0X0X0X0X0X",
"0X0X0X0X0X0X0X0X0X0X0X0X0X0X0X0X0X0X0X0X0X0X0X0X0X0X0X0X0X0X0X0X0X0X0X0X0X0X0X0X0X0X0X0X0X0X0X0X0X0X0X0X0X0X0X0X0X0X0X0X0X0X0X0X",
"0X0X0X0X0X0X0X0X0X0X0X0X0X0X0X0X0X0X0X0X0X0X0X0X0X0X0X0X0X0X0X0X0X0X0X0X0X0X0X0X0X0X0X0X0X0X0X0X0X0X0X0X0X0X0X0X0X0X0X0X0X0X0X0X",
"0X0X0X0X0X0X0X0X0X0X0X0X0X0X0X0X0X0X0X0X0X0X0X0X0X0X0X0X0X0X0X0X0X0X0X0X0X0X0X0X0X0X0X0X0X0X0X0X0X0X0X0X0X0X0X0X0X0X0X0X0X0X0X0X",
"0X0X0X0X0X0X0X0X0X0X0X0X0X0X0X0X0X0X0X0X0X0X0X0X0X0X0X0X0X0X0X0X0X0X0X0X0X0X0X0X0X0X0X0X0X0X0X0X0X0X0X0X0X0X0X0X0X0X0X0X0X0X0X0X",
"0X0X0X0X0X0X0X0X0X0X0X0X0X0X0X0X0X0X0X0X0X0X0X0X0X0X0X0X0X0X0X0X0X0X0X0X0X0X0X0X0X0X0X0X0X0X0X0X0X0X0X0X0X0X0X0X0X0X0X0X0X0X0X0X"
};
