/* XPM */
static const char *exit_16[] = {
/* columns rows colors chars-per-pixel */
"64 64 219 2 ",
"   c #AC3D2D",
".  c #A93E2A",
"X  c #B23D2D",
"o  c #A63731",
"O  c #AA3536",
"+  c #AB3B32",
"@  c #AB3735",
"#  c #B43C33",
"$  c #B93E33",
"%  c #B6383A",
"&  c #BD3B3C",
"*  c #B03737",
"=  c #C33F3D",
"-  c #AD4224",
";  c #AD412A",
":  c #B34525",
">  c #B64926",
",  c #BB4C25",
"<  c #B4442C",
"1  c #BB442D",
"2  c #B64829",
"3  c #BB4B2B",
"4  c #B44132",
"5  c #BC4334",
"6  c #BD4437",
"7  c #C24E2C",
"8  c #C1452F",
"9  c #C4532C",
"0  c #C9562D",
"q  c #CB5A2D",
"w  c #D35D2E",
"e  c #C44335",
"r  c #C24A33",
"t  c #C2423A",
"y  c #CB463B",
"u  c #C74A38",
"i  c #CC4C3A",
"p  c #CC4A35",
"a  c #D24C3B",
"s  c #DA4E3C",
"d  c #D1453E",
"f  c #C55632",
"g  c #CB5431",
"h  c #CD5B34",
"j  c #D25036",
"k  c #D35D33",
"l  c #D9533B",
"z  c #D9583B",
"x  c #E2583C",
"c  c #D8622F",
"v  c #CC6032",
"b  c #D56336",
"n  c #D96435",
"m  c #DC6A37",
"M  c #DB6B39",
"N  c #D76638",
"B  c #DD723A",
"V  c #E16A3A",
"C  c #E36F36",
"Z  c #E4723C",
"A  c #E9783B",
"S  c #BC3840",
"D  c #C73E41",
"F  c #CC3E48",
"G  c #CD4441",
"H  c #DA4D42",
"J  c #DC4C4C",
"K  c #D54349",
"L  c #DB5448",
"P  c #DB4B50",
"I  c #E44A4C",
"U  c #E4524B",
"Y  c #EE5B4C",
"T  c #E75747",
"R  c #E54B53",
"E  c #EB5954",
"W  c #F35B53",
"Q  c #F8585E",
"!  c #DF7340",
"~  c #ED6449",
"^  c #F56C4C",
"/  c #F16748",
"(  c #EC7844",
")  c #F3744C",
"_  c #EB6452",
"`  c #F26A52",
"'  c #F56B5A",
"]  c #F56458",
"[  c #F97156",
"{  c #EA5663",
"}  c #F45864",
"|  c #F76D64",
" . c #FC6B64",
".. c #F86565",
"X. c #FB766A",
"o. c #FA7965",
"O. c #F96A78",
"+. c #FD737A",
"@. c #FD7B76",
"#. c #EB833F",
"$. c #E68142",
"%. c #EB8443",
"&. c #ED8C44",
"*. c #EC8B4A",
"=. c #F18543",
"-. c #F28B46",
";. c #F38C49",
":. c #F28648",
">. c #EF934A",
",. c #EE9C4C",
"<. c #E79D4E",
"1. c #F3934B",
"2. c #F49B4D",
"3. c #F89C4F",
"4. c #F69044",
"5. c #EC9D50",
"6. c #F39E51",
"7. c #FD915A",
"8. c #FD825C",
"9. c #EBA44C",
"0. c #E6A74E",
"q. c #F3A04F",
"w. c #F8A24E",
"e. c #ECA151",
"r. c #E5A954",
"t. c #ECAC56",
"y. c #F4A352",
"u. c #F8A352",
"i. c #F4AC54",
"p. c #F5AF58",
"a. c #FAAC52",
"s. c #ECB359",
"d. c #EDB257",
"f. c #F4B056",
"g. c #F3B55A",
"h. c #F9B25A",
"j. c #F4B85C",
"k. c #F8B055",
"l. c #FC8269",
"z. c #FE9665",
"x. c #FD8575",
"c. c #FD837E",
"v. c #FD8B78",
"b. c #FF9A73",
"n. c #FE997B",
"m. c #FD937A",
"M. c #FFA66A",
"N. c #FFA574",
"B. c #FFB274",
"V. c #FFB76C",
"C. c #FFCC7D",
"Z. c #FB7989",
"A. c #FD7F9E",
"S. c #FE8988",
"D. c #FE9381",
"F. c #FE9C87",
"G. c #FD8896",
"H. c #FE9897",
"J. c #FFA689",
"K. c #FFA696",
"L. c #FFB39B",
"P. c #FFBB98",
"I. c #FFB889",
"U. c #FF9EA0",
"Y. c #FE97B0",
"T. c #FD89A9",
"R. c #FFA7A9",
"E. c #FFBCA4",
"W. c #FFB0AD",
"Q. c #FEB3BA",
"!. c #FFBCBC",
"~. c #FEB7B3",
"^. c #FEA2B4",
"/. c #FFD18D",
"(. c #FFCC98",
"). c #FFD594",
"_. c #FFC78D",
"`. c #FFC7A9",
"'. c #FFDBAE",
"]. c #FFD1A2",
"[. c #FFCAB7",
"{. c #FFD6BB",
"}. c #FFD7B2",
"|. c #FFE2AC",
" X c #FFE4BA",
".X c #FFE7B7",
"XX c #FFF4BD",
"oX c #FFFBBC",
"OX c #FFF0B1",
"+X c #FFB8C6",
"@X c #FFC7CC",
"#X c #FFDCCA",
"$X c #FFD2C9",
"%X c #FFCFD5",
"&X c #FFDCD5",
"*X c #FFECC3",
"=X c #FFE7CB",
"-X c #FFF3C3",
";X c #FFFBC2",
":X c #FFFCCA",
">X c #FFF7CE",
",X c #FFEBD4",
"<X c #FFE6DA",
"1X c #FFEADA",
"2X c #FFE0D7",
"3X c #FFF4D4",
"4X c #FFFDD4",
"5X c #FFF5DC",
"6X c #FFFDDC",
"7X c #FFEBE4",
"8X c #FFF4E2",
"9X c #FFFDE4",
"0X c #FFFDEC",
"qX c #FFF7EC",
"wX c #FFFDF4",
"eX c #FFFEFA",
"rX c #FFF1F0",
"tX c #FF00FF",
"yX c black",
/* pixels */
"tXtXtXtXtXtXtXtXtXtXtXtXtXtXtXtXtXtXtXtXtXtXtXtXtXtXtXtXtXtXtXtXtXtXtXtXtXtXtXtXtXtXtXtXtXtXtXtXtXtXtXtXtXtXtXtXtXtXtXtXtXtXtXtX",
"tXtXtXtXtXtXtXtXtXtXtXtXtXtXtXtXtXtXtXtXtXtXtXtXtXtXtXtXtXtXtXtXtXtXtXtXtXtXtXtXtXtXtXtXtXtXtXtXtXtXtXtXtXtXtXtXtXtXtXtXtXtXtXtX",
"tXtXtXtXtXtXtXtXtXtXtXtXtXtXtXtXtXtXtXtXtXtXtXtXtXtXtXtXtXtXtXtXtXtXtXtXtXtXtXtXtXtXtXtXtXtXtXtXtXtXtXtXtXtXtXtXtXtXtXtXtXtXtXtX",
"tXtXtXtXtXtXtXtXtXtXtXtXtXtXtXtXtXtXtXtXtXtXtXtXtXtXtXtXtXtXtXtXtXtXtXtXtXtXtXtXtXtXtXtXtXtXtXtXtXtXtXtXtXtXtXtXtXtXtXtXtXtXtXtX",
"tXtXtXtXtXtXtXtXtXtXtXtXtXtXtXtXtXtXtXtXtXtXtXtXtXtXtXtXtXtXtXtXtXtXtXtXtXtXtXtXtXtXtXtXtXtXtXtXtXtXtXtXtXtXtXtXtXtXtXtXtXtXtXtX",
"tXtXtXtXtXtXtXtXtXtXtXtXtXtXtXtXtXtXtXtXtXtXtXtXtXtXtXtXtXtXtXtXtXtXtXtXtXtXtXtXtXtXtXtXtXtXtXtXtXtXtXtXtXtXtXtXtXtXtXtXtXtXtXtX",
"tXtXtXtXtXtXtXtXtXtXtXtXtXtXtXtXtXtXtXtXtXtXtXtXtXtXtXtXtXtXtXtXtXtXtXtXtXtXtXtXtXtXtXtXtXtXtXtXtXtXtXtXtXtXtXtXtXtXtXtXtXtXtXtX",
"tXtXtXtXtXtXtXtXtXtXtXtXtXtXtXtXtXtXtXtXtXtXtXtXtXtXtXtXtXtXtXtXtXtXtXtXtXtXtXtXtXtXtXtXtXtXtXtXtXtXtXtXtXtXtXtXtXtXtXtXtXtXtXtX",
"tXtXtXtXtXtXtXtXtXtXtXtXtXtXtXtXtXtXtXtXtXtXtXtXtXtXtXtXtXtXtXtXtXtXtXtXtXtXtXtXtXtXtXtXtXtXtXtXtXtXtXtXtXtXtXtXtXtXtXtXtXtXtXtX",
"tXtXtXtXtXtXtXtXtXtXtXtXtXtXtXtXtXtXtXtXtXtXtXtXtXtXtXtXtXtXtXtXtXtXtXtXtXtXtXtXtXtXtXtXtXtXtXtXtXtXtXtXtXtXtXtXtXtXtXtXtXtXtXtX",
"tXtXtXtXtXtXtXtXtXtXtXtXtXtXtXtXtXtXtXtXtXtXr.r.r.tXtXtXtXtXtXtXtXtXtXtXtXtXtXtXtXtXtXtXtXtXtXtXtXtXtXtXtXtXtXtXtXtXtXtXtXtXtXtX",
"tXtXtXtXtXtXtXtXtXtXtXtXtXtXtXtXtXtXtXs.g.j.h.h.h.f.i.t.tXtXtXtXtXtXtXtXtXtXtXtXtXtXtXtXtXtXtXtXtXtXtXtXtXtXtXtXtXtXtXtXtXtXtXtX",
"tXtXtXtXtXtXtXtXtXtXtXtXtXtXtXtXtXt.j.h.a.2.;.:.:.;.2.u.i.t.tXtXtXtXtXtXtXtXtXtXtXtXtXtXtXtXtXtXtXtXtXtXtXtXtXtXtXtXtXtXtXtXtXtX",
"tXtXtXtXtXtXtXtXtXtXtXtXtXtXtXtXs.h.u.-.A n q 0 g h n Z ;.u.y.tXtXtXtXtXtXtXtXtXtXtXtXtXtXtXtXtXtXtXtXtXtXtXtXtXtXtXtXtXtXtXtXtX",
"tXtXtXtXtXtXtXtXtXtXtXtXtXtXtXg.h.1.V 0 3 2 ; . ; ; < 1 k A 1.y.tXtXtXtXtXtXtXtXtXtXtXtXtXtXtXtXtXtXtXtXtXtXtXtXtXtXtXtXtXtXtXtX",
"tXtXtXtXtXtXtXtXtXtXtXtXtXtXj.h.-.n 1   ; < + +         < 7 m -.q.tXtXtXtXtXtXtXtXtXtXtXtXtXtXtXtXtXtXtXtXtXtXtXtXtXtXtXtXtXtXtX",
"tXtXtXtXtXtXtXtXtXtXtXtXtXs.h.;.k <   + 4 r 5 & t $ 4       < b -.2.tXtXtXtXtXtXtXtXtXtXtXtXtXtXtXtXtXtXtXtXtXtXtXtXtXtXtXtXtXtX",
"tXtXtXtXtXtXtXtXtXtXtXtXs.h.1.n 1 ; + # 5 a s H H d y 5 < <   1 m ;.,.tXtXtXtXtXtXtXtXtXtXtXtXtXtXtXtXtXtXtXtXtXtXtXtXtXtXtXtXtX",
"tXtXtXtXtXtXtXtXtXtXtXtXj.u.V 5   X < 5 e s T W W Y U H y 5 4   3 B 1.tXtXtXtXtXtXtXtXtXtXtXtXtXtXtXtXtXtXtXtXtXtXtXtXtXtXtXtXtX",
"tXtXtXtXtXtXtXtXtXtXtXs.h.%.g     < 1 p H Y ] X. ...} W U a 5 + ; f $.,.tXtXtXtXtXtXtXtXtXtXtXtXtXtXtXtXtXtXtXtXtXtXtXtXtXtXtXtX",
"tXtXtXtXtXtXtXtXtXtXtXj.3.V 3 < < 5 a Y ' X.@.D.S.@.@.@. .E y 4 + < m 1.tXtXtXtXtXtXtXtXtXtXtXtXtXtXtXtXtXtXtXtXtXtXtXtXtXtXtXtX",
"tXtXtXtXtXtXtXtXtXtXs.h.=.g 2 3 r l Y  .x.F.K.`.E.R.K.F.S...J t @ + f %.,.tXtXtXtXtXtXtXtXtXtXtXtXtXtXtXtXtXtXtXtXtXtXtXtXtXtXtX",
"tXtXtXtXtXtXtXtXtXtXg.u.m 3 2 7 z ^ o.x.n.I.(..X=X=X{.`.K.Z.} G * @ < B 1.tXtXtXtXtXtXtXtXtXtXtXtXtXtXtXtXtXtXtXtXtXtXtXtXtXtXtX",
"tXtXtXtXtXtXtXtXtXtXp.-.w > 2 g / 8.z.b.N._.|.*X5X8X5X=X[.K.O.P % O   h &.tXtXtXtXtXtXtXtXtXtXtXtXtXtXtXtXtXtXtXtXtXtXtXtXtXtXtX",
"tXtXtXtXtXtXtXtXtXt.u.Z 7 2 3 j ) 7.M.B.(. X3X9XqXqXqX9X,X!.G.{ S O + 3 $.,.tXtXtXtXtXtXtXtXtXtXtXtXtXtXtXtXtXtXtXtXtXtXtXtXtXtX",
"tXtXtXtXtXtXtXtXtXi.2.b : 2 7 l / 7.V.).-X9X9X0XwXeXeXwX8X$X^.O.F % + < B 2.tXtXtXtXtXtXtXtXtXtXtXtXtXtXtXtXtXtXtXtXtXtXtXtXtXtX",
"tXtXtXtXtXtXtXtXtXi.;.h ; : p x ^ 7.C.OX6X6X4X6X0XwXeXeXqX<XQ.Z.R t + ; N >.tXtXtXtXtXtXtXtXtXtXtXtXtXtXtXtXtXtXtXtXtXtXtXtXtXtX",
"tXtXtXtXtXtXtXtXtXi.:.0 : < r l ) z./.XX4X6X6X6X9X9X0XeXwX7X+XA.{ D +   v &.tXtXtXtXtXtXtXtXtXtXtXtXtXtXtXtXtXtXtXtXtXtXtXtXtXtX",
"tXtXtXtXtXtXtXtXtXu.A 9 > < 5 a ) M.).XX:X6X0X9X9X9X9X0XwX7X+XT.} K 5 < q &.tXtXtXtXtXtXtXtXtXtXtXtXtXtXtXtXtXtXtXtXtXtXtXtXtXtX",
"tXtXtXtXtXtXtXtXe.6.Z 3 ; < 8 l ^ N.]..X;X6X0X0XwXwX9X9XeXrX%XY.O.U e 2 q &.,.tXtXtXtXtXtXtXtXtXtXtXtXtXtXtXtXtXtXtXtXtXtXtXtXtX",
"tXtXtXtXtXtXtXtXe.2.m : . X 5 s ` b.E.'.oX:X4X0XeXeX9X9XwXwX&X^.O.U t < 9 %.,.tXtXtXtXtXtXtXtXtXtXtXtXtXtXtXtXtXtXtXtXtXtXtXtXtX",
"tXtXtXtXtXtXtXtXe.2.n ; .   # d ` n.L.'.oXoX;X0XeXeX0X0XeXeX1XQ.c._ i < 0 #.,.tXtXtXtXtXtXtXtXtXtXtXtXtXtXtXtXtXtXtXtXtXtXtXtXtX",
"tXtXtXtXtXtXtXtXe.2.b ; .   # d ' D.L.}.;X;X:X0XeXeXeXwXeXwX<X~.v.` i 3 9 $.,.tXtXtXtXtXtXtXtXtXtXtXtXtXtXtXtXtXtXtXtXtXtXtXtXtX",
"tXtXtXtXtXtXtXtXe.2.n ;     $ d ' D.L.}.:X4X6X0XeXeX0X0X0XqX2XW.x._ u 2 9 $.5.tXtXtXtXtXtXtXtXtXtXtXtXtXtXtXtXtXtXtXtXtXtXtXtXtX",
"tXtXtXtXtXtXtXtXe.2.m 2 .   # y _ m.K.}.>X6X6X6X9XwX9X9X9X5X$XH.X.U 5 < 9 $.5.tXtXtXtXtXtXtXtXtXtXtXtXtXtXtXtXtXtXtXtXtXtXtXtXtX",
"tXtXtXtXtXtXtXtX<.2.Z 3 ;   # e _ x.J.[.3X9X9X:X4X0X0X6X6X1X!.H.| H $   f *.tXtXtXtXtXtXtXtXtXtXtXtXtXtXtXtXtXtXtXtXtXtXtXtXtXtX",
"tXtXtXtXtXtXtXtXtX2.A 9 ;   X e L l.J.`.3X0X0X4X4X0XwX9X5X&XW.v.] y # < h *.tXtXtXtXtXtXtXtXtXtXtXtXtXtXtXtXtXtXtXtXtXtXtXtXtXtX",
"tXtXtXtXtXtXtXtXtX2.=.g . .   $ H o.n.E.,X0X9X9X6X0XeX0X8X$XK.@.E t   < N 1.tXtXtXtXtXtXtXtXtXtXtXtXtXtXtXtXtXtXtXtXtXtXtXtXtXtX",
"tXtXtXtXtXtXtXtXtX2.;.k ; . X X y ] x.L.=X9X3X3X8X0XwX0X,X`.D.| L 5 X 1 ! 6.tXtXtXtXtXtXtXtXtXtXtXtXtXtXtXtXtXtXtXtXtXtXtXtXtXtX",
"tXtXtXtXtXtXtXtXtX<.2.V : .   X e T o.J.{.,X,X,X1X9X9X6X XP.x.E G $   r $.y.tXtXtXtXtXtXtXtXtXtXtXtXtXtXtXtXtXtXtXtXtXtXtXtXtXtX",
"tXtXtXtXtXtXtXtXtXtX2.( 3 .   X 1 H ' m.P.[.$X&X#X,X3X*X].J.X.J & + + h >.tXtXtXtXtXtXtXtXtXtXtXtXtXtXtXtXtXtXtXtXtXtXtXtXtXtXtX",
"tXtXtXtXtXtXtXtXtXtXq.;.k ; ; < 1 p ~ l.F.K.W.!.Q.[. X].J.n.' H $ o 4 M 6.tXtXtXtXtXtXtXtXtXtXtXtXtXtXtXtXtXtXtXtXtXtXtXtXtXtXtX",
"tXtXtXtXtXtXtXtXtXtX<.3.Z 3 - < X 8 x [ l.@.S.H.G.H.L.J.x.o.T u 4 + f %.y.tXtXtXtXtXtXtXtXtXtXtXtXtXtXtXtXtXtXtXtXtXtXtXtXtXtXtX",
"tXtXtXtXtXtXtXtXtXtXtXu.-.k : - X 2 j ~ '  .O.+.O.+.v.l.' ~ i 5 < < M 2.tXtXtXtXtXtXtXtXtXtXtXtXtXtXtXtXtXtXtXtXtXtXtXtXtXtXtXtX",
"tXtXtXtXtXtXtXtXtXtXtX<.3.A 7 - - 2 7 j U E Q } } } ..] T l 6 + < h &.i.tXtXtXtXtXtXtXtXtXtXtXtXtXtXtXtXtXtXtXtXtXtXtXtXtXtXtXtX",
"tXtXtXtXtXtXtXtXtXtXtXtXu.1.n > - 2 3 1 t G I R I K J J H i 4   9 A y.tXtXtXtXtXtXtXtXtXtXtXtXtXtXtXtXtXtXtXtXtXtXtXtXtXtXtXtXtX",
"tXtXtXtXtXtXtXtXtXtXtXtX<.u.:.w > - : : X # = = D S & 6 r 1 ; 2 M 2.f.tXtXtXtXtXtXtXtXtXtXtXtXtXtXtXtXtXtXtXtXtXtXtXtXtXtXtXtXtX",
"tXtXtXtXtXtXtXtXtXtXtXtXtX5.w.=.w , - - : X # * * * O + < 2 3 b >.i.tXtXtXtXtXtXtXtXtXtXtXtXtXtXtXtXtXtXtXtXtXtXtXtXtXtXtXtXtXtX",
"tXtXtXtXtXtXtXtXtXtXtXtXtXtXe.w.=.c , : - .     + o o . 2 9 M 1.i.tXtXtXtXtXtXtXtXtXtXtXtXtXtXtXtXtXtXtXtXtXtXtXtXtXtXtXtXtXtXtX",
"tXtXtXtXtXtXtXtXtXtXtXtXtXtXtXe.w.4.C q > : - - ; .   < k ( 2.p.tXtXtXtXtXtXtXtXtXtXtXtXtXtXtXtXtXtXtXtXtXtXtXtXtXtXtXtXtXtXtXtX",
"tXtXtXtXtXtXtXtXtXtXtXtXtXtXtXtX9.a.w.-.C c q 9 0 0 b Z 1.i.g.tXtXtXtXtXtXtXtXtXtXtXtXtXtXtXtXtXtXtXtXtXtXtXtXtXtXtXtXtXtXtXtXtX",
"tXtXtXtXtXtXtXtXtXtXtXtXtXtXtXtXtX9.i.a.w.1.-.%.%.-.2.u.f.d.tXtXtXtXtXtXtXtXtXtXtXtXtXtXtXtXtXtXtXtXtXtXtXtXtXtXtXtXtXtXtXtXtXtX",
"tXtXtXtXtXtXtXtXtXtXtXtXtXtXtXtXtXtXtX9.i.i.i.k.f.f.f.t.tXtXtXtXtXtXtXtXtXtXtXtXtXtXtXtXtXtXtXtXtXtXtXtXtXtXtXtXtXtXtXtXtXtXtXtX",
"tXtXtXtXtXtXtXtXtXtXtXtXtXtXtXtXtXtXtXtXtXtX0.0.0.tXtXtXtXtXtXtXtXtXtXtXtXtXtXtXtXtXtXtXtXtXtXtXtXtXtXtXtXtXtXtXtXtXtXtXtXtXtXtX",
"tXtXtXtXtXtXtXtXtXtXtXtXtXtXtXtXtXtXtXtXtXtXtXtXtXtXtXtXtXtXtXtXtXtXtXtXtXtXtXtXtXtXtXtXtXtXtXtXtXtXtXtXtXtXtXtXtXtXtXtXtXtXtXtX",
"tXtXtXtXtXtXtXtXtXtXtXtXtXtXtXtXtXtXtXtXtXtXtXtXtXtXtXtXtXtXtXtXtXtXtXtXtXtXtXtXtXtXtXtXtXtXtXtXtXtXtXtXtXtXtXtXtXtXtXtXtXtXtXtX",
"tXtXtXtXtXtXtXtXtXtXtXtXtXtXtXtXtXtXtXtXtXtXtXtXtXtXtXtXtXtXtXtXtXtXtXtXtXtXtXtXtXtXtXtXtXtXtXtXtXtXtXtXtXtXtXtXtXtXtXtXtXtXtXtX",
"tXtXtXtXtXtXtXtXtXtXtXtXtXtXtXtXtXtXtXtXtXtXtXtXtXtXtXtXtXtXtXtXtXtXtXtXtXtXtXtXtXtXtXtXtXtXtXtXtXtXtXtXtXtXtXtXtXtXtXtXtXtXtXtX",
"tXtXtXtXtXtXtXtXtXtXtXtXtXtXtXtXtXtXtXtXtXtXtXtXtXtXtXtXtXtXtXtXtXtXtXtXtXtXtXtXtXtXtXtXtXtXtXtXtXtXtXtXtXtXtXtXtXtXtXtXtXtXtXtX",
"tXtXtXtXtXtXtXtXtXtXtXtXtXtXtXtXtXtXtXtXtXtXtXtXtXtXtXtXtXtXtXtXtXtXtXtXtXtXtXtXtXtXtXtXtXtXtXtXtXtXtXtXtXtXtXtXtXtXtXtXtXtXtXtX",
"tXtXtXtXtXtXtXtXtXtXtXtXtXtXtXtXtXtXtXtXtXtXtXtXtXtXtXtXtXtXtXtXtXtXtXtXtXtXtXtXtXtXtXtXtXtXtXtXtXtXtXtXtXtXtXtXtXtXtXtXtXtXtXtX",
"tXtXtXtXtXtXtXtXtXtXtXtXtXtXtXtXtXtXtXtXtXtXtXtXtXtXtXtXtXtXtXtXtXtXtXtXtXtXtXtXtXtXtXtXtXtXtXtXtXtXtXtXtXtXtXtXtXtXtXtXtXtXtXtX",
"tXtXtXtXtXtXtXtXtXtXtXtXtXtXtXtXtXtXtXtXtXtXtXtXtXtXtXtXtXtXtXtXtXtXtXtXtXtXtXtXtXtXtXtXtXtXtXtXtXtXtXtXtXtXtXtXtXtXtXtXtXtXtXtX",
"tXtXtXtXtXtXtXtXtXtXtXtXtXtXtXtXtXtXtXtXtXtXtXtXtXtXtXtXtXtXtXtXtXtXtXtXtXtXtXtXtXtXtXtXtXtXtXtXtXtXtXtXtXtXtXtXtXtXtXtXtXtXtXtX"
};
