/* XPM */
static const char *exit[] = {
/* columns rows colors chars-per-pixel */
"64 64 192 2 ",
"   c #B13E2E",
".  c #AB3B34",
"X  c #B43F35",
"o  c #B43D3A",
"O  c #B93E3B",
"+  c #AD432D",
"@  c #B2462D",
"#  c #B5492C",
"$  c #BC4E2C",
"%  c #BE522E",
"&  c #AE4230",
"*  c #B24232",
"=  c #BA4434",
"-  c #BA4A31",
";  c #B54738",
":  c #BC443A",
">  c #BD5233",
",  c #C1512F",
"<  c #C64736",
"1  c #C24B33",
"2  c #C4463C",
"3  c #CA4C3B",
"4  c #C5463D",
"5  c #D34C3B",
"6  c #C15332",
"7  c #C65B34",
"8  c #CA5D34",
"9  c #CE5039",
"0  c #CC5E3B",
"q  c #C85838",
"w  c #DF563A",
"e  c #D45938",
"r  c #CC6136",
"t  c #CC643A",
"y  c #CD693C",
"u  c #CE6A36",
"i  c #D06E37",
"p  c #D46C3A",
"a  c #D3733C",
"s  c #DA733D",
"d  c #D7793A",
"f  c #DA7D3D",
"g  c #E06937",
"h  c #E7613D",
"j  c #E66B38",
"k  c #E6783D",
"l  c #C43E44",
"z  c #CC4C41",
"x  c #C74645",
"c  c #D54C43",
"v  c #D94D43",
"b  c #D74A4E",
"n  c #CB5641",
"m  c #CD5C41",
"M  c #D45346",
"N  c #DD5442",
"B  c #D55C42",
"V  c #D35248",
"C  c #DD435E",
"Z  c #DF5557",
"A  c #DF5B52",
"S  c #E14E46",
"D  c #E75E40",
"F  c #E2544C",
"G  c #E8584A",
"H  c #E24A53",
"J  c #E75E55",
"K  c #E85956",
"L  c #DB7740",
"P  c #DC7D42",
"I  c #F66849",
"U  c #FB6F4F",
"Y  c #F06244",
"T  c #E37D42",
"R  c #FA7849",
"E  c #EC6859",
"W  c #F26A5C",
"Q  c #FA655B",
"!  c #FB7653",
"~  c #F65D68",
"^  c #F65974",
"/  c #EC6462",
"(  c #EC6F6F",
")  c #FD6866",
"_  c #F56966",
"`  c #FE7668",
"'  c #F47764",
"]  c #FD6E7A",
"[  c #EE797B",
"{  c #FF7F7F",
"}  c #FC7774",
"|  c #DE8142",
" . c #E68D49",
".. c #EB8B49",
"X. c #E88945",
"o. c #F48D49",
"O. c #EC9047",
"+. c #EC944C",
"@. c #E39A4E",
"#. c #ED9C4E",
"$. c #E2974B",
"%. c #F2964C",
"&. c #F49A4F",
"*. c #FD9B4F",
"=. c #FC964C",
"-. c #F59E52",
";. c #EEA04E",
":. c #FEA14F",
">. c #EDA655",
",. c #EEAB56",
"<. c #F3A453",
"1. c #FAA354",
"2. c #F4AB55",
"3. c #FCAB55",
"4. c #F2AE59",
"5. c #FAAD58",
"6. c #EDB35A",
"7. c #F4B45B",
"8. c #FBB459",
"9. c #F7BA5E",
"0. c #FCBC5F",
"q. c #FF876C",
"w. c #F78268",
"e. c #FF9361",
"r. c #FF8F75",
"t. c #FF8C78",
"y. c #F98678",
"u. c #F4947C",
"i. c #FA9977",
"p. c #FE7786",
"a. c #FE798E",
"s. c #F58A87",
"d. c #F79083",
"f. c #F5948D",
"g. c #FA9F8F",
"h. c #F99B87",
"j. c #FF8F94",
"k. c #F59791",
"l. c #F69B92",
"z. c #FF9E97",
"x. c #FE9499",
"c. c #FEAF80",
"v. c #FBA28C",
"b. c #FBA589",
"n. c #FCA894",
"m. c #FFAF9E",
"M. c #F5A793",
"N. c #FFBD97",
"B. c #FF9FA7",
"V. c #FFA9AC",
"C. c #FFB3A4",
"Z. c #FFBDAB",
"A. c #FFBFB0",
"S. c #FFBBBE",
"D. c #FFC196",
"F. c #FECE9F",
"G. c #FFC0AC",
"H. c #FFCAB8",
"J. c #FFDABA",
"K. c #FFE9A5",
"L. c #FFE7BB",
"P. c #FFEFBF",
"I. c #FFEAB4",
"U. c #FFFBBD",
"Y. c #FFB5C4",
"T. c #FFDCC7",
"R. c #FFD8CB",
"E. c #FFD2C2",
"W. c #FFCADF",
"Q. c #FFD6D2",
"!. c #FFE1C0",
"~. c #FFEDCA",
"^. c #FFF1CE",
"/. c #FFF9C9",
"(. c #FFEBD4",
"). c #FFECDC",
"_. c #FFFBD4",
"`. c #FFFDDA",
"'. c #FFD9F0",
"]. c #FFE6E0",
"[. c #FFE9E6",
"{. c #FFEDE8",
"}. c #FFF4E4",
"|. c #FFFCE4",
" X c #FFF4EA",
".X c #FFFDEB",
"XX c #FFECF7",
"oX c #FFFFF2",
"OX c #FFF6FB",
"+X c #FFFFFB",
"@X c #FFF4F4",
"#X c #FF00FF",
/* pixels */
"#X#X#X#X#X#X#X#X#X#X#X#X#X#X#X#X#X#X#X#X#X#X#X#X#X#X#X#X#X#X#X#X#X#X#X#X#X#X#X#X#X#X#X#X#X#X#X#X#X#X#X#X#X#X#X#X#X#X#X#X#X#X#X#X",
"#X#X#X#X#X#X#X#X#X#X#X#X#X#X#X#X#X#X#X#X#X#X#X#X#X#X#X#X#X#X#X#X#X#X#X#X#X#X#X#X#X#X#X#X#X#X#X#X#X#X#X#X#X#X#X#X#X#X#X#X#X#X#X#X",
"#X#X#X#X#X#X#X#X#X#X#X#X#X#X#X#X#X#X#X#X#X#X#X#X#X#X#X#X#X#X#X#X#X#X#X#X#X#X#X#X#X#X#X#X#X#X#X#X#X#X#X#X#X#X#X#X#X#X#X#X#X#X#X#X",
"#X#X#X#X#X#X#X#X#X#X#X#X#X#X#X#X#X#X#X#X#X#X#X#X#X#X#X#X#X#X#X#X#X#X#X#X#X#X#X#X#X#X#X#X#X#X#X#X#X#X#X#X#X#X#X#X#X#X#X#X#X#X#X#X",
"#X#X#X#X#X#X#X#X#X#X#X#X#X#X#X#X#X#X#X#X#X#X#X#X#X#X#X#X#X#X#X#X#X#X#X#X#X#X#X#X#X#X#X#X#X#X#X#X#X#X#X#X#X#X#X#X#X#X#X#X#X#X#X#X",
"#X#X#X#X#X#X#X#X#X#X#X#X#X#X#X#X#X#X#X#X#X#X#X#X#X#X#X#X#X#X#X#X#X#X#X#X#X#X#X#X#X#X#X#X#X#X#X#X#X#X#X#X#X#X#X#X#X#X#X#X#X#X#X#X",
"#X#X#X#X#X#X#X#X#X#X#X#X#X#X#X#X#X#X#X#X#X#X#X#X#X#X#X#X#X#X#X#X#X#X#X#X#X#X#X#X#X#X#X#X#X#X#X#X#X#X#X#X#X#X#X#X#X#X#X#X#X#X#X#X",
"#X#X#X#X#X#X#X#X#X#X#X#X#X#X#X#X#X#X#X#X#X#X#X#X#X#X#X#X#X#X#X#X#X#X#X#X#X#X#X#X#X#X#X#X#X#X#X#X#X#X#X#X#X#X#X#X#X#X#X#X#X#X#X#X",
"#X#X#X#X#X#X#X#X#X#X#X#X#X#X#X#X#X#X#X#X#X#X#X#X#X#X#X#X#X#X#X#X#X#X#X#X#X#X#X#X#X#X#X#X#X#X#X#X#X#X#X#X#X#X#X#X#X#X#X#X#X#X#X#X",
"#X#X#X#X#X#X#X#X#X#X#X#X#X#X#X#X#X#X#X#X#X#X#X#X#X#X#X#X#X#X#X#X#X#X#X#X#X#X#X#X#X#X#X#X#X#X#X#X#X#X#X#X#X#X#X#X#X#X#X#X#X#X#X#X",
"#X#X#X#X#X#X#X#X#X#X#X#X#X#X#X#X#X#X#X#X#X#X#X#X#X#X#X#X#X#X#X#X#X#X#X#X#X#X#X#X#X#X#X#X#X#X#X#X#X#X#X#X#X#X#X#X#X#X#X#X#X#X#X#X",
"#X#X#X#X#X#X#X#X#X#X#X#X#X#X#X#X#X#X#X#X#X#X#X#X#X#X#X#X#X#X#X#X#X#X#X#X#X#X#X#X#X#X#X#X#X#X#X#X#X#X#X#X#X#X#X#X#X#X#X#X#X#X#X#X",
"#X#X#X#X#X#X#X#X#X#X#X#X#X#X#X#X#X#X#X#X#X#X#X#X#X#X#X#X#X#X#X#X#X#X#X#X#X#X#X#X#X#X#X#X#X#X#X#X#X#X#X#X#X#X#X#X#X#X#X#X#X#X#X#X",
"#X#X#X#X#X#X#X#X#X#X#X#X#X#X#X#X#X#X#X#X#X#X#X#X#X#X#X#X#X#X#X#X#X#X#X#X#X#X#X#X#X#X#X#X#X#X#X#X#X#X#X#X#X#X#X#X#X#X#X#X#X#X#X#X",
"#X#X#X#X#X#X#X#X#X#X#X#X#X#X#X#X#X#X#X#X#X#X#X#X#X#X#X#X#X#X#X#X#X#X#X#X#X#X#X#X#X#X#X#X#X#X#X#X#X#X#X#X#X#X#X#X#X#X#X#X#X#X#X#X",
"#X#X#X#X#X#X#X#X#X#X#X#X#X#X#X#X#X#X#X#X#X#X#X#X#X#X#X#X#X#X#X#X#X#X#X#X#X#X#X#X#X#X#X#X#X#X#X#X#X#X#X#X#X#X#X#X#X#X#X#X#X#X#X#X",
"#X#X#X#X#X#X#X#X#X#X#X#X#X#X#X#X#X#X#X#X#X#X#X#X#X#X#X#X#X#X#X#X#X#X#X#X#X#X#X#X#X#X#X#X#X#X#X#X#X#X#X#X#X#X#X#X#X#X#X#X#X#X#X#X",
"#X#X#X#X#X#X#X#X#X#X#X#X#X#X#X#X#X#X#X#X#X#X#X#X#X#X#X#X#X#X#X#X#X#X#X#X#X#X#X#X#X#X#X#X#X#X#X#X#X#X#X#X#X#X#X#X#X#X#X#X#X#X#X#X",
"#X#X#X#X#X#X#X#X#X#X#X#X#X#X#X#X#X#X#X#X#X#X#X#X#X#X#X#X#X#X#X#X#X#X#X#X#X#X#X#X#X#X#X#X#X#X#X#X#X#X#X#X#X#X#X#X#X#X#X#X#X#X#X#X",
"#X#X#X#X#X#X#X#X#X#X#X#X#X#X#X#X#X#X#X#X#X#X#X#X#X#X#X#X#X#X#X#X#X#X#X#X#X#X#X#X#X#X#X#X#X#X#X#X#X#X#X#X#X#X#X#X#X#X#X#X#X#X#X#X",
"#X#X#X#X#X#X#X#X#X#X#X#X#X#X#X#X#X#X#X#X#X#X#X#X#X#X#X#X#X#X#X#X#X#X#X#X#X#X#X#X#X#X#X#X#X#X#X#X#X#X#X#X#X#X#X#X#X#X#X#X#X#X#X#X",
"#X#X#X#X#X#X#X#X#X#X#X#X#X#X#X#X#X#X#X#X#X#X#X#X#X#X#X#X#X#X#X#X#X#X#X#X#X#X#X#X#X#X#X#X#X#X#X#X#X#X#X#X#X#X#X#X#X#X#X#X#X#X#X#X",
"#X#X#X#X#X#X#X#X#X#X#X#X#X#X#X#X#X#X#X#X#X#X#X#X#X#X#X#X#X#X#X#X#X#X#X#X#X#X#X#X#X#X#X#X#X#X#X#X#X#X#X#X#X#X#X#X#X#X#X#X#X#X#X#X",
"#X#X#X#X#X#X#X#X#X#X#X#X#X#X#X#X#X#X#X#X#X#X#X#X#X#X#X#X#X#X#X#X#X#X#X#X#X#X#X#X#X#X#X#X#X#X#X#X#X#X#X#X#X#X#X#X#X#X#X#X#X#X#X#X",
"#X#X#X#X#X#X#X#X#X#X#X#X#X#X#X#X#X#X#X#X#X#X#X#X#X#X#X#X#X#X#X#X#X#X#X#X#X#X#X#X#X#X#X#X#X#X#X#X#X#X#X#X#X#X#X#X#X#X#X#X#X#X#X#X",
"#X#X#X#X#X#X#X#X#X#X#X#X#X#X#X#X#X#X#X#X#X#X#X#X#X#X#X#X#X#X#X#X#X#X#X#X#X#X#X#X#X#X#X#X#X#X#X#X#X#X#X#X#X#X#X#X#X#X#X#X#X#X#X#X",
"#X#X#X#X#X#X#X#X#X#X#X#X#X#X#X#X#X#X#X#X#X#X#X#X#X#X#X#X#X#X#X#X#X#X#X#X#X#X#X#X#X#X#X#X#X#X#X#X#X#X#X#X#X#X#X#X#X#X#X#X#X#X#X#X",
"#X#X#X#X#X#X#X#X#X#X#X#X#X#X#X#X#X#X#X#X#X#X#X#X#X#X#X#X#X#X#X#X#X#X#X#X#X#X#X#X#X#X#X#X#X#X#X#X#X#X#X#X#X#X#X#X#X#X#X#X#X#X#X#X",
"#X#X#X#X#X#X#X#X#X#X#X#X#X#X#X#X#X#X#X#X#X#X#X#X#X#X#X#X#X#X#X#X#X#X#X#X#X#X#X#X#X#X#X#X#X#X#X#X#X#X#X#X#X#X#X#X#X#X#X#X#X#X#X#X",
"#X#X#X#X#X#X#X#X#X#X#X#X#X#X#X#X#X#X#X#X#X#X#X#X#X#X#X#X#X#X#X#X#X#X#X#X#X#X#X#X#X#X#X#X#X#X#X#X#X#X#X#X#X#X#X#X#X#X#X#X#X#X#X#X",
"#X#X#X#X#X#X#X#X#X#X#X#X#X#X#X#X#X#X#X#X#X#X#X#X#X#X#X#X#X#X#X#X#X#X#X#X#X#X#X#X#X#X#X#X#X#X#X#X#X#X#X#X#X#X#X#X#X#X#X#X#X#X#X#X",
"#X#X#X#X#X#X#X#X#X#X#X#X#X#X#X#X#X#X#X#X#X#X#X#X#X#X#X#X#X#X#X#X#X#X#X#X#X#X#X#X#X#X#X#X#X#X#X#X#X#X#X#X#X#X#X#X#X#X#X#X#X#X#X#X",
"#X#X#X#X#X#X#X#X#X#X#X#X#X#X#X#X#X#X#X#X#X#X#X#X#X#X#X#X#X#X#X#X#X#X#X#X#X#X#X#X#X#X#X#X#X#X#X#X#X#X#X#X#X#X#X#X#X#X#X#X#X#X#X#X",
"#X#X#X#X#X#X#X#X#X#X#X#X#X#X#X#X#X#X#X#X#X#X#X#X#X#X#X#X#X#X#X#X#X#X#X#X#X#X#X#X#X#X#X#X#X#X#X#X#X#X#X#X#X#X#X#X#X#X#X#X#X#X#X#X",
"#X#X#X#X#X#X#X#X#X#X#X#X#X#X#X#X#X#X#X#X#X#X#X#X#X#X#X#X#X#X#X#X#X#X#X#X#X#X#X#X#X#X#X#X#X#X#X#X#X#X#X#X#X#X#X#X#X#X#X#X#X#X#X#X",
"#X#X#X#X#X#X#X#X#X#X#X#X#X#X#X#X#X#X#X#X#X#X#X#X#X#X#X#X#X#X#X#X#X#X#X#X#X#X#X#X#X#X#X#X#X#X#X#X#X#X#X#X#X#X#X#X#X#X#X#X#X#X#X#X",
"#X#X#X#X#X#X#X#X#X#X#X#X#X#X#X#X#X#X#X#X#X#X#X#X#X#X#X#X#X#X#X#X#X#X#X#X#X#X#X#X#X#X#X#X#X#X#X#X#X#X#X#X#X#X#X#X#X#X#X#X#X#X#X#X",
"#X#X#X#X#X#X#X#X#X#X#X#X#X#X#X#X#X#X#X#X#X#X#X#X#X#X#X#X#X#X#X#X#X#X#X#X#X#X#X#X#X#X#X#X#X#X#X#X#X#X#X#X#X#X#X#X#X#X#X#X#X#X#X#X",
"#X#X#X#X#X#X#X#X#X#X#X#X#X#X#X#X#X#X#X#X#X#X#X#X#X#X#X#X#X#X#X#X#X#X#X#X#X#X#X#X#X#X#X#X#X#X#X#X#X#X#X#X#X#X#X#X#X#X#X#X#X#X#X#X",
"#X#X#X#X#X#X#X#X#X#X#X#X#X#X#X#X#X#X#X#X#X#X#X#X#X#X#X#X#X#X#X#X#X#X#X#X#X#X#X#X#X#X#X#X#X#X#X#X#X#X#X#X#X#X#X#X#X#X#X#X#X#X#X#X",
"#X#X#X#X#X#X#X#X#X#X#X#X#X#X#X#X#X#X#X#X#X#X#X#X#X#X#X#X#X#X#X#X#X#X#X#X#X#X#X#X#X#X#X#X#X#X#X#X#X#X#X#X#X#X#X#X#X#X#X#X#X#X#X#X",
"#X#X#X#X#X#X#X#X#X#X#X#X#X#X#X#X#X#X#X#X#X#X#X#X#X#X#X#X#X#X#X#X#X#X#X#X#X#X#X#X#X#X#X#X#X#X#X#X#X#X#X#X#X#X#X#X#X#X#X#X#X#X#X#X",
"#X#X#X#X#X#X#X#X#X#X#X#X#X#X#X#X#X#X#X#X#X#X#X#X#X#X#X#X#X#X#X#X#X#X#X#X#X#X#X#X#X#X#X#X#X#X#X#X#X#X#X#X#X#X#X#X#X#X#X#X#X#X#X#X",
"#X#X#X#X#X#X#X#X#X#X#X#X#X#X#X#X#X#X#X#X#X#X#X#X#X#X#X#X#X#X#X#X#X#X#X#X#X#X#X#X#X#X#X#X#X#X#X#X#X#X#X#X#X#X#X#X#X#X#X#X#X#X#X#X",
"#X#X#X#X#X#X#X#X#X#X#X#X#X#X#X#X#X#X#X#X#X#X#X#X#X#X#X#X#X#X#X#X#X#X#X#X#X#X#X#X#X#X#X#X#X#X#X#X#X#X#X#X#X#X#X#X#X#X#X#X#X#X#X#X",
"#X#X#X#X#X#X#X#X#X#X#X#X#X#X#X#X#X#X#X#X#X#X#X#X#X#X#X#X#X#X#X#X#X#X#X#X#X#X#X#X#X#X#X#X#X#X#X#X#X#X#X#X#X#X#X#X#X#X#X#X#X#X#X#X",
"#X#X#X#X#X#X#X#X#X#X#X#X#X#X#X#X#X#X#X#X#X#X#X#X#X#X#X#X#X#X#X#X#X#X#X#X#X#X#X#X#X#X#X#X#X#X#X#X#X#X#X#X#X#X#X#X#X#X#X#X#X#X#X#X",
"#X#X#X#X#X#X#X#X#X#X#X#X#X#X#X#X#X#X#X#X#X#X#X#X#X#X#X#X#X#X#X#X#X#X#X#X#X#X#X#X#X#X#X#X#X#X#X#X#X#X#X#X#X#X#X#X#X#X#X#X#X#X#X#X",
"#X#X#X#X#X#X#X#X#X#X#X#X#X#X#X#X#X#X#X#X#X#X#X#X#X#X#X#X#X#X#X#X#X#X#X#X#X#X#X#X#X#X#X#X#X#X#X#X#X#X#X#X#X#X#X#X#X#X#X#X#X#X#X#X",
"#X#X#X#X#X#X#X#X#X#X#X#X#X#X#X#X#X#X#X#X#X#X#X#X#X#X#X#X#X#X#X#X#X#X#X#X#X#X#X#X#X#X#X#X#X#X#X#X#X#X#X#X#X#X#X#X#X#X#X#X#X#X#X#X",
"#X#X#X#X#X#X#X#X#X#X#X#X#X#X#X#X#X#X#X#X#X#X#X#X#X#X#X#X#X#X#X#X#X#X#X#X#X#X#X#X#X#X#X#X#X#X#X#X#X#X#X#X#X#X#X#X#X#X#X#X#X#X#X#X",
"#X#X#X#X#X#X#X#X#X#X#X#X#X#X#X#X#X#X#X#X#X#X#X#X#X#X#X#X#X#X#X#X#X#X#X#X#X#X#X#X#X#X#X#X#X#X#X#X#X#X#X#X#X#X#X#X#X#X#X#X#X#X#X#X",
"#X#X#X#X#X#X#X#X#X#X#X#X#X#X#X#X#X#X#X#X#X#X#X#X#X#X#X#X#X#X#X#X#X#X#X#X#X#X#X#X#X#X#X#X#X#X#X#X#X#X#X#X#X#X#X#X#X#X#X#X#X#X#X#X",
"#X#X#X#X#X#X#X#X#X#X#X#X#X#X#X#X#X#X#X#X#X#X6.7.4.4.2.2.2.<.<.<.<.<.<.2.2.<.2.4.,.>.#X#X#X#X#X#X#X#X#X#X#X#X#X#X#X#X#X#X#X#X#X#X",
"#X#X#X#X#X#X#X#X#X#X#X#X#X#X#X#X,.,.>.;.+. .T s p r r 8 7 6 > 6 6 6 6 8 8 r p p s k X.O.+.+.#.#.#.#X#X#X#X#X#X#X#X#X#X#X#X#X#X#X",
"#X#X#X#X#X#X#X#X#X#X#X#X7.2.#. .P p 7 6 - - - = 2 3 B B M z x V M V M z z z 3 2 = - - - > 7 p s T ..%.-.<.#X#X#X#X#X#X#X#X#X#X#X",
"#X#X#X#X#X#X#X#X#X6.9.1...p 7 - - = : 4 c S G E W ' i.i.h.g.M.n.g.v.v.d.u.y._ / J Z b l o . . & # > r k o.1.<.@.#X#X#X#X#X#X#X#X",
"#X#X#X#X#X#X#X#X,.0.*.g $ # 1 9 w D Y I ! w.r.v.m.G.J.~.(.}..X X[.{. X}.).Q.S.V.x.p.^ ^ C l O X * * & @ , j =.3.#.#X#X#X#X#X#X#X",
"#X#X#X#X#X#X#X#X7.3.k $ + * = 1 e h R e.c.F.I.U./._._._._.|..X+X+X+X+X+X+X@XXX'.W.Y.B.j.a.^ H l X * X + + $ j :.8.$.#X#X#X#X#X#X",
"#X#X#X#X#X#X#X#X4.3.k % + * * = 1 w U q.b.D.K.U._.|.`._.`.|.oX+X+X+XoX.X.XoX+XOXXX].E.C.j.] ~ F 3 1 = @ + # g *.8.@.#X#X#X#X#X#X",
"#X#X#X#X#X#X#X#X#X<.&.T 6 & . . X < S Q ` t.N.L.P.~.^./._.`.oX+X+X+X+X.X.X.X.X X).T.A.z.{ ) K v < = * + @ 8 o.5.>.#X#X#X#X#X#X#X",
"#X#X#X#X#X#X#X#X#X#X#X<.%.T 0 - +   = 5 N G W y.n.Z.H.R.(.}. X|.|..X.X|.`.^.!.H.C.h.} _ K v 4 o . . * 7 T -.4.#X#X#X#X#X#X#X#X#X",
"#X#X#X#X#X#X#X#X#X#X#X#X#X#X&...T p 7 > % $ 1 9 N A / ( [ s.f.l.k.l.f.b.h.u.w.E J F c 4 : ; > 7 y L ..<.4.#X#X#X#X#X#X#X#X#X#X#X",
"#X#X#X#X#X#X#X#X#X#X#X#X#X#X#X#X#X#X#XX.| f d a i u t t 0 0 m m n n n m B m 0 t y y a a P |  .+.#X#X#X#X#X#X#X#X#X#X#X#X#X#X#X#X"
};
