/* XPM */
static const char *exit_12[] = {
/* columns rows colors chars-per-pixel */
"64 64 212 2 ",
"   c #A73A2E",
".  c #AB3D2D",
"X  c #B23E2D",
"o  c #A53633",
"O  c #AA3635",
"+  c #A63831",
"@  c #AD3B32",
"#  c #AA3438",
"$  c #B43D33",
"%  c #BA3E32",
"&  c #B43B3A",
"*  c #BB3B3C",
"=  c #B0363A",
"-  c #C13E3F",
";  c #AC4425",
":  c #AD412B",
">  c #B24526",
",  c #B54B24",
"<  c #B3442B",
"1  c #BA452C",
"2  c #B5482B",
"3  c #BB4A2C",
"4  c #BF5329",
"5  c #B24132",
"6  c #BB4234",
"7  c #BD4139",
"8  c #BD4C32",
"9  c #C14E2D",
"0  c #C3542C",
"q  c #CA5B2C",
"w  c #CA562F",
"e  c #C34434",
"r  c #C44933",
"t  c #CA4D33",
"y  c #C3443A",
"u  c #CC443C",
"i  c #C7493A",
"p  c #CA4A3B",
"a  c #C84635",
"s  c #D24B3D",
"d  c #D64B3F",
"f  c #C35531",
"g  c #CD5433",
"h  c #C75931",
"j  c #CA5934",
"k  c #D25C33",
"l  c #D7503C",
"z  c #DB543E",
"x  c #DA5637",
"c  c #E25A3C",
"v  c #D2622E",
"b  c #CE6231",
"n  c #D46234",
"m  c #DA6636",
"M  c #DC6C39",
"N  c #D86838",
"B  c #DF733C",
"V  c #DF7136",
"C  c #E16C3A",
"Z  c #E2743C",
"A  c #E9763D",
"S  c #E6793B",
"D  c #C53D43",
"F  c #CB4444",
"G  c #D14640",
"H  c #D34A41",
"J  c #D3444A",
"K  c #DA4B4A",
"L  c #DD5544",
"P  c #DB514A",
"I  c #DB4450",
"U  c #E05149",
"Y  c #E75948",
"T  c #E54D53",
"R  c #E75F53",
"E  c #E95756",
"W  c #F25C53",
"Q  c #E04C4C",
"!  c #E76347",
"~  c #F5634C",
"^  c #F46D4F",
"/  c #E77F41",
"(  c #EA7B40",
")  c #EE6452",
"_  c #F46353",
"`  c #F36B5A",
"'  c #FA6A56",
"]  c #F5765D",
"[  c #F57855",
"{  c #F65B66",
"}  c #F96C61",
"|  c #FB6E6A",
" . c #F66863",
".. c #FA756A",
"X. c #F97966",
"o. c #F96B76",
"O. c #FD7D7B",
"+. c #FD7777",
"@. c #E9823F",
"#. c #F18A3F",
"$. c #EC8543",
"%. c #ED8D45",
"&. c #E88546",
"*. c #F18643",
"=. c #F28B46",
"-. c #F48E48",
";. c #EC9C4D",
":. c #EA974D",
">. c #F39246",
",. c #F4954B",
"<. c #F49B4D",
"1. c #F89B4E",
"2. c #F39E50",
"3. c #E7A54D",
"4. c #F9A24D",
"5. c #F2A04E",
"6. c #EDA451",
"7. c #E5AA53",
"8. c #EBAC55",
"9. c #F4A251",
"0. c #F8A351",
"q. c #F4AC54",
"w. c #F9AD55",
"e. c #EEB256",
"r. c #ECB359",
"t. c #F4B257",
"y. c #F8B156",
"u. c #F3B559",
"i. c #F8B45A",
"p. c #F5B95B",
"a. c #FB8969",
"s. c #FD9064",
"d. c #FE9D68",
"f. c #FC8B73",
"g. c #FD8679",
"h. c #FE9974",
"j. c #FE9B7B",
"k. c #FD937A",
"l. c #FFBA7A",
"z. c #FDA169",
"x. c #FFC578",
"c. c #FA6E86",
"v. c #FE8481",
"b. c #FE8C81",
"n. c #FF888E",
"m. c #FE9988",
"M. c #FD8696",
"N. c #FF9895",
"B. c #FEAB89",
"V. c #FFA785",
"C. c #FFB48D",
"Z. c #FFA595",
"A. c #FFA29D",
"S. c #FEB293",
"D. c #FFBB99",
"F. c #FE99A6",
"G. c #FF99B2",
"H. c #FE88A8",
"J. c #FFACA6",
"K. c #FFB6AA",
"L. c #FFB2A3",
"P. c #FFAFB4",
"I. c #FFB7B8",
"U. c #FFCB85",
"Y. c #FFC39C",
"T. c #FFCD96",
"R. c #FFD695",
"E. c #FFD685",
"W. c #FFC3A1",
"Q. c #FFCBA7",
"!. c #FFD7A6",
"~. c #FFC4B3",
"^. c #FFC3BC",
"/. c #FFCCB8",
"(. c #FFD3B3",
"). c #FFDAB9",
"_. c #FFE7AB",
"`. c #FFEDA1",
"'. c #FFE3BB",
"]. c #FFE9B6",
"[. c #FFF3B7",
"{. c #FFF9BC",
"}. c #FFB7D0",
"|. c #FEABC3",
" X c #FFCDCA",
".X c #FFD5C9",
"XX c #FFC8D8",
"oX c #FFDBD6",
"OX c #FFE6C6",
"+X c #FFF4C3",
"@X c #FFFDC4",
"#X c #FFF1CB",
"$X c #FFFDCC",
"%X c #FFE6D0",
"&X c #FFEEDB",
"*X c #FFE8D6",
"=X c #FFF5D3",
"-X c #FFFCD5",
";X c #FFFCDC",
":X c #FFF1D9",
">X c #FFD4E0",
",X c #FFE3E2",
"<X c #FFEDE9",
"1X c #FFF4E3",
"2X c #FFFDE4",
"3X c #FFF3EB",
"4X c #FFFDEC",
"5X c #FFFDF3",
"6X c #FFFEFA",
"7X c #FFF7F4",
"8X c #FF00FF",
"9X c black",
/* pixels */
"8X8X8X8X8X8X8X8X8X8X8X8X8X8X8X8X8X8X8X8X8X8X8X8X8X8X8X8X8X8X8X8X8X8X8X8X8X8X8X8X8X8X8X8X8X8X8X8X8X8X8X8X8X8X8X8X8X8X8X8X8X8X8X8X",
"8X8X8X8X8X8X8X8X8X8X8X8X8X8X8X8X8X8X8X8X8X8X8X8X8X8X8X8X8X8X8X8X8X8X8X8X8X8X8X8X8X8X8X8X8X8X8X8X8X8X8X8X8X8X8X8X8X8X8X8X8X8X8X8X",
"8X8X8X8X8X8X8X8X8X8X8X8X8X8X8X8X8X8X8X8X8X8X8X8X8X8X8X8X8X8X8X8X8X8X8X8X8X8X8X8X8X8X8X8X8X8X8X8X8X8X8X8X8X8X8X8X8X8X8X8X8X8X8X8X",
"8X8X8X8X8X8X8X8X8X8X8X8X8X8X8X8X8X8X8X8X8X8X8X8X8X8X8X8X8X8X8X8X8X8X8X8X8X8X8X8X8X8X8X8X8X8X8X8X8X8X8X8X8X8X8X8X8X8X8X8X8X8X8X8X",
"8X8X8X8X8X8X8X8X8X8X8X8X8X8X8X8X8X8X8X8X8X8X8X8X8X8X8X8X8X8X8X8X8X8X8X8X8X8X8X8X8X8X8X8X8X8X8X8X8X8X8X8X8X8X8X8X8X8X8X8X8X8X8X8X",
"8X8X8X8X8X8X8X8X8X8X8X8X8X8X8X8X8X8X8X8X8X8X8X8X8X8X8X8X8X8X8X8X8X8X8X8X8X8X8X8X8X8X8X8X8X8X8X8X8X8X8X8X8X8X8X8X8X8X8X8X8X8X8X8X",
"8X8X8X8X8X8X8X8X8X8X8X8X8X8X8X8X8X8X8X8X8X8X8X8X8X8X8X8X8X8X8X8X8X8X8X8X8X8X8X8X8X8X8X8X8X8X8X8X8X8X8X8X8X8X8X8X8X8X8X8X8X8X8X8X",
"8X8X8X8X8X8X8X8X8X8X8X8X8X8X8X8X8X8X8X8X8X8X8X8X8X8X8X8X8X8X8X8X8X8X8X8X8X8X8X8X8X8X8X8X8X8X8X8X8X8X8X8X8X8X8X8X8X8X8X8X8X8X8X8X",
"8X8X8X8X8X8X8X8X8X8X8X8X8X8X8X8X8X8X8X8X8X8X8X8X8X8X8X8X8X8X8X8X8X8X8X8X8X8X8X8X8X8X8X8X8X8X8X8X8X8X8X8X8X8X8X8X8X8X8X8X8X8X8X8X",
"8X8X8X8X8X8X8X8X8X8X8X8X8X8X8X8X8X8X8X8X8X8X8X8X8X8X8X8X8X8X8X8X8X8X8X8X8X8X8X8X8X8X8X8X8X8X8X8X8X8X8X8X8X8X8X8X8X8X8X8X8X8X8X8X",
"8X8X8X8X8X8X8X8X8X8X8X8X8X8X8X8X8X8X8X8X8X8X7.7.7.8X8X8X8X8X8X8X8X8X8X8X8X8X8X8X8X8X8X8X8X8X8X8X8X8X8X8X8X8X8X8X8X8X8X8X8X8X8X8X",
"8X8X8X8X8X8X8X8X8X8X8X8X8X8X8X8X8X8X8Xr.u.p.i.i.y.t.q.8.8X8X8X8X8X8X8X8X8X8X8X8X8X8X8X8X8X8X8X8X8X8X8X8X8X8X8X8X8X8X8X8X8X8X8X8X",
"8X8X8X8X8X8X8X8X8X8X8X8X8X8X8X8X8Xr.p.i.w.1.-.=.*.-.1.0.q.8.8X8X8X8X8X8X8X8X8X8X8X8X8X8X8X8X8X8X8X8X8X8X8X8X8X8X8X8X8X8X8X8X8X8X",
"8X8X8X8X8X8X8X8X8X8X8X8X8X8X8X8Xr.p.0.=.A m k g g k m A -.0.q.8X8X8X8X8X8X8X8X8X8X8X8X8X8X8X8X8X8X8X8X8X8X8X8X8X8X8X8X8X8X8X8X8X",
"8X8X8X8X8X8X8X8X8X8X8X8X8X8X8Xu.i.,.M w 3 2 < : . . < 3 k S ,.9.8X8X8X8X8X8X8X8X8X8X8X8X8X8X8X8X8X8X8X8X8X8X8X8X8X8X8X8X8X8X8X8X",
"8X8X8X8X8X8X8X8X8X8X8X8X8X8Xu.w.*.k 2 . . < .       +   < 9 M -.5.8X8X8X8X8X8X8X8X8X8X8X8X8X8X8X8X8X8X8X8X8X8X8X8X8X8X8X8X8X8X8X",
"8X8X8X8X8X8X8X8X8X8X8X8X8Xr.w.*.k 2 . + @ 6 6 $ $ % $ @ @ . 1 m -.<.8X8X8X8X8X8X8X8X8X8X8X8X8X8X8X8X8X8X8X8X8X8X8X8X8X8X8X8X8X8X",
"8X8X8X8X8X8X8X8X8X8X8X8X8.i.-.k 2 . @ @ 7 l z s H u i 6 $ @   2 N >.;.8X8X8X8X8X8X8X8X8X8X8X8X8X8X8X8X8X8X8X8X8X8X8X8X8X8X8X8X8X",
"8X8X8X8X8X8X8X8X8X8X8X8Xp.0.C 1 . @ % 6 u Y ~ _ _ W Y H e 6 @ . 3 Z ,.8X8X8X8X8X8X8X8X8X8X8X8X8X8X8X8X8X8X8X8X8X8X8X8X8X8X8X8X8X",
"8X8X8X8X8X8X8X8X8X8X8Xr.i.*.g . + $ 6 a s Y ' X...| } W U p 6 @ . h $.;.8X8X8X8X8X8X8X8X8X8X8X8X8X8X8X8X8X8X8X8X8X8X8X8X8X8X8X8X",
"8X8X8X8X8X8X8X8X8X8X8Xp.1.C 3 : X % a z ) } +.b.b.v.O.+.} Y i & @ < N ,.8X8X8X8X8X8X8X8X8X8X8X8X8X8X8X8X8X8X8X8X8X8X8X8X8X8X8X8X",
"8X8X8X8X8X8X8X8X8X8X8.y.*.k 3 2 3 t U ` g.m.Z.L.L.A.N.N.b.} P y @   f $.;.8X8X8X8X8X8X8X8X8X8X8X8X8X8X8X8X8X8X8X8X8X8X8X8X8X8X8X",
"8X8X8X8X8X8X8X8X8X8Xu.4.C 9 2 9 g ! ] g.m.D.!.).OX.X^.~.J.v.W F = o 2 V <.8X8X8X8X8X8X8X8X8X8X8X8X8X8X8X8X8X8X8X8X8X8X8X8X8X8X8X",
"8X8X8X8X8X8X8X8X8X8Xq.*.k 2 2 9 m [ h.V.C.T._.+X;X1X&X%X/.F.o.K * # : b %.8X8X8X8X8X8X8X8X8X8X8X8X8X8X8X8X8X8X8X8X8X8X8X8X8X8X8X",
"8X8X8X8X8X8X8X8X8X8.0.C 3 2 3 t ! s.l.l.U.!.+X;X2X4X4X2X*XI.M.E D =   4 $.;.8X8X8X8X8X8X8X8X8X8X8X8X8X8X8X8X8X8X8X8X8X8X8X8X8X8X",
"8X8X8X8X8X8X8X8X8Xq.,.k : : 3 x ~ s.l.E._.=X2X4X5X5X5X5X3XXXG.o.J * + 2 Z <.8X8X8X8X8X8X8X8X8X8X8X8X8X8X8X8X8X8X8X8X8X8X8X8X8X8X",
"8X8X8X8X8X8X8X8X8Xq.-.j : : r c ^ s.x.`.-X4X2X2X5X6X6X6X4X,X|.c.T F @ < N ,.8X8X8X8X8X8X8X8X8X8X8X8X8X8X8X8X8X8X8X8X8X8X8X8X8X8X",
"8X8X8X8X8X8X8X8X8Xq.$.w 2 2 r z ^ d.U.[.2X2X;X-X2X4X5X6X5X<X}.c.{ J = . n %.8X8X8X8X8X8X8X8X8X8X8X8X8X8X8X8X8X8X8X8X8X8X8X8X8X8X",
"8X8X8X8X8X8X8X8X8X0.( 0 2 3 r l ^ z.R.+X-X;X4X2X2X2X2X4X5X<X}.H.{ J & . q %.8X8X8X8X8X8X8X8X8X8X8X8X8X8X8X8X8X8X8X8X8X8X8X8X8X8X",
"8X8X8X8X8X8X8X8X6.0.C 2 : 2 r z ^ d.R.+X$X-X4X4X5X4X;X2X5X3XXXG.o.E y 2 q $.;.8X8X8X8X8X8X8X8X8X8X8X8X8X8X8X8X8X8X8X8X8X8X8X8X8X",
"8X8X8X8X8X8X8X8X6.1.N :   $ % s _ h.Y.'.{.@X-X4X6X6X2X2X5X7X>XG.+.E e 2 0 @.;.8X8X8X8X8X8X8X8X8X8X8X8X8X8X8X8X8X8X8X8X8X8X8X8X8X",
"8X8X8X8X8X8X8X8X6.1.m :   @ $ u _ h.W.(.[.{.@X4X6X6X5X4X5X5X,XP.O.E e 2 0 @.;.8X8X8X8X8X8X8X8X8X8X8X8X8X8X8X8X8X8X8X8X8X8X8X8X8X",
"8X8X8X8X8X8X8X8X6.,.m :   @ $ G _ j.W.(.+X@X$X4X6X6X5X5X5X5X,XI.k.) i 1 0 / ;.8X8X8X8X8X8X8X8X8X8X8X8X8X8X8X8X8X8X8X8X8X8X8X8X8X",
"8X8X8X8X8X8X8X8X;.,.m :   @ % s _ j.D.(.+X-X-X4X5X6X5X4X4X3XoXK.f.R i 2 0 / ;.8X8X8X8X8X8X8X8X8X8X8X8X8X8X8X8X8X8X8X8X8X8X8X8X8X",
"8X8X8X8X8X8X8X8X;.1.M < . < % u ) j.D.(.#X;X;X-X2X5X2X;X2X1X XA...P 6 < 0 &.;.8X8X8X8X8X8X8X8X8X8X8X8X8X8X8X8X8X8X8X8X8X8X8X8X8X",
"8X8X8X8X8X8X8X8X:.1.Z 2 : < % a Y f.S.(.=X2X2X$X-X4X2X;X2X,X^.m. .H % . f &.8X8X8X8X8X8X8X8X8X8X8X8X8X8X8X8X8X8X8X8X8X8X8X8X8X8X",
"8X8X8X8X8X8X8X8X8X2.S 3 . @ $ e L a.B.Q.&X4X2X-X-X4X5X4X3XoXK.k.E u X . j %.8X8X8X8X8X8X8X8X8X8X8X8X8X8X8X8X8X8X8X8X8X8X8X8X8X8X",
"8X8X8X8X8X8X8X8X8X0.*.f . . . % s } m.W.*X4X2X;X;X4X6X5X1X/.Z.O.E y X < n :.8X8X8X8X8X8X8X8X8X8X8X8X8X8X8X8X8X8X8X8X8X8X8X8X8X8X",
"8X8X8X8X8X8X8X8X8X9.-.k : . . X a R f.S.OX1X;X=X;X4X5X4X#XW.m.| U e . 2 B 2.8X8X8X8X8X8X8X8X8X8X8X8X8X8X8X8X8X8X8X8X8X8X8X8X8X8X",
"8X8X8X8X8X8X8X8X8X;.,.M <   . X e L X.V.(.%X&X:X:X2X4X;X].D.O.E G %   8 &.6.8X8X8X8X8X8X8X8X8X8X8X8X8X8X8X8X8X8X8X8X8X8X8X8X8X8X",
"8X8X8X8X8X8X8X8X8X8X1.( 9 . . < 1 s ` j.Y.~. XoX.X*X=X'.!.B...Q * O + j :.8X8X8X8X8X8X8X8X8X8X8X8X8X8X8X8X8X8X8X8X8X8X8X8X8X8X8X",
"8X8X8X8X8X8X8X8X8X8X2.-.k : : 2 < e ! a.V.Z.J.I.P.~.).Q.C.k.` H = o 5 M 2.8X8X8X8X8X8X8X8X8X8X8X8X8X8X8X8X8X8X8X8X8X8X8X8X8X8X8X",
"8X8X8X8X8X8X8X8X8X8X;.1.Z 3 ; < X 1 z ] f.v.n.M.M.N.S.m.f.] L i @ + f &.6.8X8X8X8X8X8X8X8X8X8X8X8X8X8X8X8X8X8X8X8X8X8X8X8X8X8X8X",
"8X8X8X8X8X8X8X8X8X8X8X0.*.k > ; < 1 g ! ` | o.+.o.+.g.X.' Y p 6 5 < M <.8X8X8X8X8X8X8X8X8X8X8X8X8X8X8X8X8X8X8X8X8X8X8X8X8X8X8X8X",
"8X8X8X8X8X8X8X8X8X8X8X;.1.A 9 ; ; 2 9 t L E { { { {  .' ~ L 7 5 2 h %.q.8X8X8X8X8X8X8X8X8X8X8X8X8X8X8X8X8X8X8X8X8X8X8X8X8X8X8X8X",
"8X8X8X8X8X8X8X8X8X8X8X8X9.,.m , ; > > 1 e u K T T I K U L i @ : 0 S 9.8X8X8X8X8X8X8X8X8X8X8X8X8X8X8X8X8X8X8X8X8X8X8X8X8X8X8X8X8X",
"8X8X8X8X8X8X8X8X8X8X8X8X;.0.*.n , ; > > < % * * D * & 7 8 2 : 2 V <.r.8X8X8X8X8X8X8X8X8X8X8X8X8X8X8X8X8X8X8X8X8X8X8X8X8X8X8X8X8X",
"8X8X8X8X8X8X8X8X8X8X8X8X8X6.0.$.v , ; > > . $ @ = # # @ < < 2 N <.t.8X8X8X8X8X8X8X8X8X8X8X8X8X8X8X8X8X8X8X8X8X8X8X8X8X8X8X8X8X8X",
"8X8X8X8X8X8X8X8X8X8X8X8X8X8X9.0.*.v 4 , ; ; : . @ + o . 2 0 M ,.t.8X8X8X8X8X8X8X8X8X8X8X8X8X8X8X8X8X8X8X8X8X8X8X8X8X8X8X8X8X8X8X",
"8X8X8X8X8X8X8X8X8X8X8X8X8X8X8X9.0.>.S q , ; ; ; : . : 3 n ( 2.i.8X8X8X8X8X8X8X8X8X8X8X8X8X8X8X8X8X8X8X8X8X8X8X8X8X8X8X8X8X8X8X8X",
"8X8X8X8X8X8X8X8X8X8X8X8X8X8X8X8X6.q.4.#.V v q 0 0 j n Z ,.q.u.8X8X8X8X8X8X8X8X8X8X8X8X8X8X8X8X8X8X8X8X8X8X8X8X8X8X8X8X8X8X8X8X8X",
"8X8X8X8X8X8X8X8X8X8X8X8X8X8X8X8X8X3.q.w.4.>.=.*.$.-.1.q.t.r.8X8X8X8X8X8X8X8X8X8X8X8X8X8X8X8X8X8X8X8X8X8X8X8X8X8X8X8X8X8X8X8X8X8X",
"8X8X8X8X8X8X8X8X8X8X8X8X8X8X8X8X8X8X8X3.q.q.q.y.y.t.t.r.8X8X8X8X8X8X8X8X8X8X8X8X8X8X8X8X8X8X8X8X8X8X8X8X8X8X8X8X8X8X8X8X8X8X8X8X",
"8X8X8X8X8X8X8X8X8X8X8X8X8X8X8X8X8X8X8X8X8X8X3.3.7.8X8X8X8X8X8X8X8X8X8X8X8X8X8X8X8X8X8X8X8X8X8X8X8X8X8X8X8X8X8X8X8X8X8X8X8X8X8X8X",
"8X8X8X8X8X8X8X8X8X8X8X8X8X8X8X8X8X8X8X8X8X8X8X8X8X8X8X8X8X8X8X8X8X8X8X8X8X8X8X8X8X8X8X8X8X8X8X8X8X8X8X8X8X8X8X8X8X8X8X8X8X8X8X8X",
"8X8X8X8X8X8X8X8X8X8X8X8X8X8X8X8X8X8X8X8X8X8X8X8X8X8X8X8X8X8X8X8X8X8X8X8X8X8X8X8X8X8X8X8X8X8X8X8X8X8X8X8X8X8X8X8X8X8X8X8X8X8X8X8X",
"8X8X8X8X8X8X8X8X8X8X8X8X8X8X8X8X8X8X8X8X8X8X8X8X8X8X8X8X8X8X8X8X8X8X8X8X8X8X8X8X8X8X8X8X8X8X8X8X8X8X8X8X8X8X8X8X8X8X8X8X8X8X8X8X",
"8X8X8X8X8X8X8X8X8X8X8X8X8X8X8X8X8X8X8X8X8X8X8X8X8X8X8X8X8X8X8X8X8X8X8X8X8X8X8X8X8X8X8X8X8X8X8X8X8X8X8X8X8X8X8X8X8X8X8X8X8X8X8X8X",
"8X8X8X8X8X8X8X8X8X8X8X8X8X8X8X8X8X8X8X8X8X8X8X8X8X8X8X8X8X8X8X8X8X8X8X8X8X8X8X8X8X8X8X8X8X8X8X8X8X8X8X8X8X8X8X8X8X8X8X8X8X8X8X8X",
"8X8X8X8X8X8X8X8X8X8X8X8X8X8X8X8X8X8X8X8X8X8X8X8X8X8X8X8X8X8X8X8X8X8X8X8X8X8X8X8X8X8X8X8X8X8X8X8X8X8X8X8X8X8X8X8X8X8X8X8X8X8X8X8X",
"8X8X8X8X8X8X8X8X8X8X8X8X8X8X8X8X8X8X8X8X8X8X8X8X8X8X8X8X8X8X8X8X8X8X8X8X8X8X8X8X8X8X8X8X8X8X8X8X8X8X8X8X8X8X8X8X8X8X8X8X8X8X8X8X",
"8X8X8X8X8X8X8X8X8X8X8X8X8X8X8X8X8X8X8X8X8X8X8X8X8X8X8X8X8X8X8X8X8X8X8X8X8X8X8X8X8X8X8X8X8X8X8X8X8X8X8X8X8X8X8X8X8X8X8X8X8X8X8X8X",
"8X8X8X8X8X8X8X8X8X8X8X8X8X8X8X8X8X8X8X8X8X8X8X8X8X8X8X8X8X8X8X8X8X8X8X8X8X8X8X8X8X8X8X8X8X8X8X8X8X8X8X8X8X8X8X8X8X8X8X8X8X8X8X8X",
"8X8X8X8X8X8X8X8X8X8X8X8X8X8X8X8X8X8X8X8X8X8X8X8X8X8X8X8X8X8X8X8X8X8X8X8X8X8X8X8X8X8X8X8X8X8X8X8X8X8X8X8X8X8X8X8X8X8X8X8X8X8X8X8X"
};
