/* XPM */
static const char *exit_17[] = {
/* columns rows colors chars-per-pixel */
"64 64 218 2 ",
"   c #AC3E2D",
".  c #B23E2C",
"X  c #A63B31",
"o  c #AD3C32",
"O  c #A93637",
"+  c #B33C33",
"@  c #B83C38",
"#  c #C13F3B",
"$  c #AD4425",
"%  c #AD412C",
"&  c #B94C25",
"*  c #B3442C",
"=  c #BB442D",
"-  c #B5492B",
";  c #BB4B2C",
":  c #B34725",
">  c #BE522D",
",  c #B44233",
"<  c #BC4334",
"1  c #BD4138",
"2  c #BC4933",
"3  c #BF5032",
"4  c #C14C2D",
"5  c #C4542D",
"6  c #C75A2D",
"7  c #CA582C",
"8  c #D05B2E",
"9  c #C14534",
"0  c #C64B34",
"q  c #CB4A35",
"w  c #C3443B",
"e  c #CA453B",
"r  c #CC4A3B",
"t  c #C94735",
"y  c #D34C3B",
"u  c #D3493D",
"i  c #C45632",
"p  c #CC5B33",
"a  c #C85533",
"s  c #D15C34",
"d  c #DD553D",
"f  c #D3513B",
"g  c #E15B3C",
"h  c #CC6133",
"j  c #D36233",
"k  c #D96634",
"l  c #DB6B36",
"z  c #DB6C39",
"x  c #D76738",
"c  c #DC733C",
"v  c #D4622E",
"b  c #E16A3C",
"n  c #E4743C",
"m  c #E97A3F",
"M  c #E17438",
"N  c #C13C41",
"B  c #CC4443",
"V  c #D34A43",
"C  c #DB4D44",
"Z  c #D74749",
"A  c #D84949",
"S  c #DD5342",
"D  c #DF534D",
"F  c #D64854",
"G  c #E54D4E",
"H  c #E35445",
"J  c #E5524C",
"K  c #E9544E",
"L  c #EB5B4B",
"P  c #E15E4C",
"I  c #EC4F51",
"U  c #EB5753",
"Y  c #F25E52",
"T  c #DF7440",
"R  c #EA614A",
"E  c #F36848",
"W  c #EC7945",
"Q  c #F5784C",
"!  c #EC6855",
"~  c #F26452",
"^  c #F46B55",
"/  c #F4625B",
"(  c #F9655B",
")  c #F66B59",
"_  c #F97B54",
"`  c #EE5B65",
"'  c #F0596C",
"]  c #FA6464",
"[  c #FA6C62",
"{  c #F86966",
"}  c #FC7464",
"|  c #FD7D6C",
" . c #FB7867",
".. c #F46576",
"X. c #FE7C74",
"o. c #FE7C7C",
"O. c #FB7079",
"+. c #E9843F",
"@. c #E68242",
"#. c #EB8343",
"$. c #ED8B45",
"%. c #EC8A49",
"&. c #F18A44",
"*. c #F28C49",
"=. c #F08542",
"-. c #EF944B",
";. c #EC9D4D",
":. c #ED9046",
">. c #F3944B",
",. c #F59B4D",
"<. c #F89E4E",
"1. c #F49244",
"2. c #FC8A59",
"3. c #EC9E51",
"4. c #F79A57",
"5. c #EDA34D",
"6. c #E6A94F",
"7. c #F3A04F",
"8. c #F8A24E",
"9. c #F9A84F",
"0. c #EBA252",
"q. c #E6AB54",
"w. c #ECAA56",
"e. c #F4A351",
"r. c #F3AB55",
"t. c #F8AA54",
"y. c #ECB459",
"u. c #EDB157",
"i. c #F4B156",
"p. c #F8B156",
"a. c #F5B358",
"s. c #F9B35A",
"d. c #F4B95C",
"f. c #F8B85C",
"g. c #FC8869",
"h. c #FE9768",
"j. c #FD8273",
"k. c #FD8B74",
"l. c #FE857E",
"z. c #FE8B7B",
"x. c #FD927E",
"c. c #FF9975",
"v. c #FFA56A",
"b. c #FFBC6F",
"n. c #FFA07E",
"m. c #FFB77C",
"M. c #FFB477",
"N. c #FC7288",
"B. c #FB7C95",
"V. c #FE8683",
"C. c #FF9583",
"Z. c #FE9A85",
"A. c #FE9D8C",
"S. c #FE9597",
"D. c #FFA88A",
"F. c #FFA684",
"G. c #FFB08C",
"H. c #FFA393",
"J. c #FFAA9C",
"K. c #FFA999",
"L. c #FFB29C",
"P. c #FEB796",
"I. c #FE8AA4",
"U. c #FE9EAF",
"Y. c #FF9EB4",
"T. c #FFA8A3",
"R. c #FFB7AB",
"E. c #FFACB2",
"W. c #FFB7B5",
"Q. c #FFBDB3",
"!. c #FEB7B9",
"~. c #FFCF81",
"^. c #FFC39D",
"/. c #FFCA9B",
"(. c #FFDB9C",
"). c #FFD892",
"_. c #FFCAA9",
"`. c #FFD9A9",
"'. c #FFC2B4",
"]. c #FFC9B9",
"[. c #FFDBB6",
"{. c #FFD4B7",
"}. c #FFE1AE",
"|. c #FFE4BD",
" X c #FFE9B8",
".X c #FFFABD",
"XX c #FFF5B7",
"oX c #FFB1C1",
"OX c #FFC8C5",
"+X c #FFD3CD",
"@X c #FFD9C9",
"#X c #FFD9C4",
"$X c #FFCFD3",
"%X c #FFDDD2",
"&X c #FFD9D8",
"*X c #FFE6C9",
"=X c #FFF7C5",
"-X c #FFFAC4",
";X c #FFF2CC",
":X c #FFFDCC",
">X c #FFE4D7",
",X c #FFEBD4",
"<X c #FFECDC",
"1X c #FFE3DB",
"2X c #FFF5D5",
"3X c #FFFDD2",
"4X c #FFF5DA",
"5X c #FFFCDC",
"6X c #FFEFEC",
"7X c #FFEEE4",
"8X c #FFFDE4",
"9X c #FFFDEC",
"0X c #FFF5E2",
"qX c #FFFDF4",
"wX c #FFFEFA",
"eX c #FFF0F3",
"rX c #FF00FF",
"tX c black",
/* pixels */
"rXrXrXrXrXrXrXrXrXrXrXrXrXrXrXrXrXrXrXrXrXrXrXrXrXrXrXrXrXrXrXrXrXrXrXrXrXrXrXrXrXrXrXrXrXrXrXrXrXrXrXrXrXrXrXrXrXrXrXrXrXrXrXrX",
"rXrXrXrXrXrXrXrXrXrXrXrXrXrXrXrXrXrXrXrXrXrXrXrXrXrXrXrXrXrXrXrXrXrXrXrXrXrXrXrXrXrXrXrXrXrXrXrXrXrXrXrXrXrXrXrXrXrXrXrXrXrXrXrX",
"rXrXrXrXrXrXrXrXrXrXrXrXrXrXrXrXrXrXrXrXrXrXrXrXrXrXrXrXrXrXrXrXrXrXrXrXrXrXrXrXrXrXrXrXrXrXrXrXrXrXrXrXrXrXrXrXrXrXrXrXrXrXrXrX",
"rXrXrXrXrXrXrXrXrXrXrXrXrXrXrXrXrXrXrXrXrXrXrXrXrXrXrXrXrXrXrXrXrXrXrXrXrXrXrXrXrXrXrXrXrXrXrXrXrXrXrXrXrXrXrXrXrXrXrXrXrXrXrXrX",
"rXrXrXrXrXrXrXrXrXrXrXrXrXrXrXrXrXrXrXrXrXrXrXrXrXrXrXrXrXrXrXrXrXrXrXrXrXrXrXrXrXrXrXrXrXrXrXrXrXrXrXrXrXrXrXrXrXrXrXrXrXrXrXrX",
"rXrXrXrXrXrXrXrXrXrXrXrXrXrXrXrXrXrXrXrXrXrXrXrXrXrXrXrXrXrXrXrXrXrXrXrXrXrXrXrXrXrXrXrXrXrXrXrXrXrXrXrXrXrXrXrXrXrXrXrXrXrXrXrX",
"rXrXrXrXrXrXrXrXrXrXrXrXrXrXrXrXrXrXrXrXrXrXrXrXrXrXrXrXrXrXrXrXrXrXrXrXrXrXrXrXrXrXrXrXrXrXrXrXrXrXrXrXrXrXrXrXrXrXrXrXrXrXrXrX",
"rXrXrXrXrXrXrXrXrXrXrXrXrXrXrXrXrXrXrXrXrXrXrXrXrXrXrXrXrXrXrXrXrXrXrXrXrXrXrXrXrXrXrXrXrXrXrXrXrXrXrXrXrXrXrXrXrXrXrXrXrXrXrXrX",
"rXrXrXrXrXrXrXrXrXrXrXrXrXrXrXrXrXrXrXrXrXrXrXrXrXrXrXrXrXrXrXrXrXrXrXrXrXrXrXrXrXrXrXrXrXrXrXrXrXrXrXrXrXrXrXrXrXrXrXrXrXrXrXrX",
"rXrXrXrXrXrXrXrXrXrXrXrXrXrXrXrXrXrXrXrXrXrXrXrXrXrXrXrXrXrXrXrXrXrXrXrXrXrXrXrXrXrXrXrXrXrXrXrXrXrXrXrXrXrXrXrXrXrXrXrXrXrXrXrX",
"rXrXrXrXrXrXrXrXrXrXrXrXrXrXrXrXrXrXrXrXrXrXq.q.q.rXrXrXrXrXrXrXrXrXrXrXrXrXrXrXrXrXrXrXrXrXrXrXrXrXrXrXrXrXrXrXrXrXrXrXrXrXrXrX",
"rXrXrXrXrXrXrXrXrXrXrXrXrXrXrXrXrXrXrXy.d.f.s.p.p.i.r.w.rXrXrXrXrXrXrXrXrXrXrXrXrXrXrXrXrXrXrXrXrXrXrXrXrXrXrXrXrXrXrXrXrXrXrXrX",
"rXrXrXrXrXrXrXrXrXrXrXrXrXrXrXrXrXy.f.f.t.<.*.%.&.*.,.e.r.w.rXrXrXrXrXrXrXrXrXrXrXrXrXrXrXrXrXrXrXrXrXrXrXrXrXrXrXrXrXrXrXrXrXrX",
"rXrXrXrXrXrXrXrXrXrXrXrXrXrXrXrXy.f.e.&.n k p 5 a p x n *.e.r.rXrXrXrXrXrXrXrXrXrXrXrXrXrXrXrXrXrXrXrXrXrXrXrXrXrXrXrXrXrXrXrXrX",
"rXrXrXrXrXrXrXrXrXrXrXrXrXrXrXd.p.>.z 5 ; - % % % % * ; p n >.e.rXrXrXrXrXrXrXrXrXrXrXrXrXrXrXrXrXrXrXrXrXrXrXrXrXrXrXrXrXrXrXrX",
"rXrXrXrXrXrXrXrXrXrXrXrXrXrXd.p.&.k ; % % * o o , % % % * 5 l *.e.rXrXrXrXrXrXrXrXrXrXrXrXrXrXrXrXrXrXrXrXrXrXrXrXrXrXrXrXrXrXrX",
"rXrXrXrXrXrXrXrXrXrXrXrXrXy.s.&.s * % o , 2 9 w 1 < , , % % - k $.7.rXrXrXrXrXrXrXrXrXrXrXrXrXrXrXrXrXrXrXrXrXrXrXrXrXrXrXrXrXrX",
"rXrXrXrXrXrXrXrXrXrXrXrXy.s.>.s *   * + < t y S C u e w 2 , % ; x >.5.rXrXrXrXrXrXrXrXrXrXrXrXrXrXrXrXrXrXrXrXrXrXrXrXrXrXrXrXrX",
"rXrXrXrXrXrXrXrXrXrXrXrXf.e.b 2     * < t y H ~ ~ K J C r 2 , % ; c >.rXrXrXrXrXrXrXrXrXrXrXrXrXrXrXrXrXrXrXrXrXrXrXrXrXrXrXrXrX",
"rXrXrXrXrXrXrXrXrXrXrXy.p.#.a *   + @ e H Y (  . .] ] / K V 2 o % i #.;.rXrXrXrXrXrXrXrXrXrXrXrXrXrXrXrXrXrXrXrXrXrXrXrXrXrXrXrX",
"rXrXrXrXrXrXrXrXrXrXrXf.<.l ; * * 9 u J ( X.z.Z.C.l.l.X.{ U r + o * x -.rXrXrXrXrXrXrXrXrXrXrXrXrXrXrXrXrXrXrXrXrXrXrXrXrXrXrXrX",
"rXrXrXrXrXrXrXrXrXrXu.p.#.7 - ; 0 d U ] X.A.P._._.R.L.A.V.{ A @ O X i #.-.rXrXrXrXrXrXrXrXrXrXrXrXrXrXrXrXrXrXrXrXrXrXrXrXrXrXrX",
"rXrXrXrXrXrXrXrXrXrXf.8.l ; - 5 b ^ } | k.F./. X;X,X*X'.K.N.` B O O - c >.rXrXrXrXrXrXrXrXrXrXrXrXrXrXrXrXrXrXrXrXrXrXrXrXrXrXrX",
"rXrXrXrXrXrXrXrXrXrXp.&.8 - ; s Q 2.h.h.c.D.`.;X0X8X0X,X'.S.O.F @ O % h $.rXrXrXrXrXrXrXrXrXrXrXrXrXrXrXrXrXrXrXrXrXrXrXrXrXrXrX",
"rXrXrXrXrXrXrXrXrXw.e.n 4 - = f Q 4.v.m.^.{.<X9XqXqXqX9X%XW.B.` N + o 3 @.;.rXrXrXrXrXrXrXrXrXrXrXrXrXrXrXrXrXrXrXrXrXrXrXrXrXrX",
"rXrXrXrXrXrXrXrXrXr.>.j - - 4 y R 2.b.(.;X0X5X8XqXwXwXqX7XOXI...Z @ o - c -.rXrXrXrXrXrXrXrXrXrXrXrXrXrXrXrXrXrXrXrXrXrXrXrXrXrX",
"rXrXrXrXrXrXrXrXrXr.&.p * * 0 f E 2.~.XX5X5X:X3X9XwXwXwX6X$XY.N.U e o % x -.rXrXrXrXrXrXrXrXrXrXrXrXrXrXrXrXrXrXrXrXrXrXrXrXrXrX",
"rXrXrXrXrXrXrXrXrXr.#.5 * ; 0 d E h.)..X:X5X5X3X8XqXqXwXeX&XoXI.` B o   h :.rXrXrXrXrXrXrXrXrXrXrXrXrXrXrXrXrXrXrXrXrXrXrXrXrXrX",
"rXrXrXrXrXrXrXrX0.t.m > * * 0 g Q v.(.-X:X8X9X3X5XqXqX9XqX6X$XY...B +   6 $.rXrXrXrXrXrXrXrXrXrXrXrXrXrXrXrXrXrXrXrXrXrXrXrXrXrX",
"rXrXrXrXrXrXrXrX0.e.n & * * 9 d _ M.`.=X3X9XqX8X9XwX9X8XqXqX&XY...Z 1 * 6 $.;.rXrXrXrXrXrXrXrXrXrXrXrXrXrXrXrXrXrXrXrXrXrXrXrXrX",
"rXrXrXrXrXrXrXrX0.<.l - % * 9 d 2.m.`.XX:X5X8XqXwXwX9X8XqXqX1XE.O.K q * 6 #.;.rXrXrXrXrXrXrXrXrXrXrXrXrXrXrXrXrXrXrXrXrXrXrXrXrX",
"rXrXrXrXrXrXrXrX0.,.k *   . < d _ n.^.}..X-X:X9XwXwXqX9XqXqX<XW.l.~ y = 5 +.5.rXrXrXrXrXrXrXrXrXrXrXrXrXrXrXrXrXrXrXrXrXrXrXrXrX",
"rXrXrXrXrXrXrXrX0.,.k *   . @ y ^ x.J.`.-X.X.X5XwXwXqXqXqXqX<X'.x.~ q - 5 +.5.rXrXrXrXrXrXrXrXrXrXrXrXrXrXrXrXrXrXrXrXrXrXrXrXrX",
"rXrXrXrXrXrXrXrX0.,.k *   o + e ! x.J.{.-X-XXX3XwXwX9X8X9X9X>XR.z.! f * 5 @.3.rXrXrXrXrXrXrXrXrXrXrXrXrXrXrXrXrXrXrXrXrXrXrXrXrX",
"rXrXrXrXrXrXrXrX0.,.z *   o + e ! x.K.{.=X=X.X3XqXwX8X8X0X4X+XT.| L 0 * 5 @.3.rXrXrXrXrXrXrXrXrXrXrXrXrXrXrXrXrXrXrXrXrXrXrXrXrX",
"rXrXrXrXrXrXrXrX;.<.n ;   o + t ! k.H.].;X3X:X5XqXwX9X8X5X,X].S.[ C <   i %.rXrXrXrXrXrXrXrXrXrXrXrXrXrXrXrXrXrXrXrXrXrXrXrXrXrX",
"rXrXrXrXrXrXrXrXrX7.m 4 % o + 9 P g.Z.R.*X4X8X9XqXqXqX8X0X>X'.C./ u + * p %.rXrXrXrXrXrXrXrXrXrXrXrXrXrXrXrXrXrXrXrXrXrXrXrXrXrX",
"rXrXrXrXrXrXrXrXrX7.=.a %   . < S } z.T.@X4X8XqXqXqXqX9X0X@XL.k.! e . * x -.rXrXrXrXrXrXrXrXrXrXrXrXrXrXrXrXrXrXrXrXrXrXrXrXrXrX",
"rXrXrXrXrXrXrXrXrX7.*.j *   * = f ) j.H.OX,X5X9XqXqX9X9X,X_.C. .D 1   ; T 3.rXrXrXrXrXrXrXrXrXrXrXrXrXrXrXrXrXrXrXrXrXrXrXrXrXrX",
"rXrXrXrXrXrXrXrXrX;.,.b -     * t L } V.E.+X4X5X9X9X8X2X[.P.j./ V @   3 #.e.rXrXrXrXrXrXrXrXrXrXrXrXrXrXrXrXrXrXrXrXrXrXrXrXrXrX",
"rXrXrXrXrXrXrXrXrXrX7.W ;     . = S ( X.S.!.%X2X4X4X2X|.^.Z.{ J e +   p -.rXrXrXrXrXrXrXrXrXrXrXrXrXrXrXrXrXrXrXrXrXrXrXrXrXrXrX",
"rXrXrXrXrXrXrXrXrXrXe.*.s % % . = q L [ l.S.W.#X#X|.|._.D.j./ V < o , c e.rXrXrXrXrXrXrXrXrXrXrXrXrXrXrXrXrXrXrXrXrXrXrXrXrXrXrX",
"rXrXrXrXrXrXrXrXrXrX;.<.n ; $ % . 9 S Y { o.S.J.J.L.P.D.k.[ J w o o i %.r.rXrXrXrXrXrXrXrXrXrXrXrXrXrXrXrXrXrXrXrXrXrXrXrXrXrXrX",
"rXrXrXrXrXrXrXrXrXrXrXe.&.s : $ * = t H Y ] X.V.o.l.k.| ) L r , o * z ,.rXrXrXrXrXrXrXrXrXrXrXrXrXrXrXrXrXrXrXrXrXrXrXrXrXrXrXrX",
"rXrXrXrXrXrXrXrXrXrXrX;.<.m 5 $ % ; 4 q C U ( ] ] ] [ Y H y 9 o % p $.r.rXrXrXrXrXrXrXrXrXrXrXrXrXrXrXrXrXrXrXrXrXrXrXrXrXrXrXrX",
"rXrXrXrXrXrXrXrXrXrXrXrXe.>.k & $ : ; = 1 V G I G A D C r w ,   ; m e.rXrXrXrXrXrXrXrXrXrXrXrXrXrXrXrXrXrXrXrXrXrXrXrXrXrXrXrXrX",
"rXrXrXrXrXrXrXrXrXrXrXrX;.e.&.j & $ : * * @ # B B N w w 2 , % - l ,.a.rXrXrXrXrXrXrXrXrXrXrXrXrXrXrXrXrXrXrXrXrXrXrXrXrXrXrXrXrX",
"rXrXrXrXrXrXrXrXrXrXrXrXrX0.8.=.v & $ $ *   + , , + o , - * & x -.r.rXrXrXrXrXrXrXrXrXrXrXrXrXrXrXrXrXrXrXrXrXrXrXrXrXrXrXrXrXrX",
"rXrXrXrXrXrXrXrXrXrXrXrXrXrX0.8.&.k & $ $ $ % % % X X % - 5 z -.r.rXrXrXrXrXrXrXrXrXrXrXrXrXrXrXrXrXrXrXrXrXrXrXrXrXrXrXrXrXrXrX",
"rXrXrXrXrXrXrXrXrXrXrXrXrXrXrXe.9.1.M 7 & $ $ $ %   % - j W ,.i.rXrXrXrXrXrXrXrXrXrXrXrXrXrXrXrXrXrXrXrXrXrXrXrXrXrXrXrXrXrXrXrX",
"rXrXrXrXrXrXrXrXrXrXrXrXrXrXrXrX5.t.<.&.M v 7 6 5 5 j n >.r.a.rXrXrXrXrXrXrXrXrXrXrXrXrXrXrXrXrXrXrXrXrXrXrXrXrXrXrXrXrXrXrXrXrX",
"rXrXrXrXrXrXrXrXrXrXrXrXrXrXrXrXrX5.r.t.8.>.&.&.$.*.,.r.p.y.rXrXrXrXrXrXrXrXrXrXrXrXrXrXrXrXrXrXrXrXrXrXrXrXrXrXrXrXrXrXrXrXrXrX",
"rXrXrXrXrXrXrXrXrXrXrXrXrXrXrXrXrXrXrX5.r.i.i.p.p.i.a.u.rXrXrXrXrXrXrXrXrXrXrXrXrXrXrXrXrXrXrXrXrXrXrXrXrXrXrXrXrXrXrXrXrXrXrXrX",
"rXrXrXrXrXrXrXrXrXrXrXrXrXrXrXrXrXrXrXrXrXrX6.6.q.rXrXrXrXrXrXrXrXrXrXrXrXrXrXrXrXrXrXrXrXrXrXrXrXrXrXrXrXrXrXrXrXrXrXrXrXrXrXrX",
"rXrXrXrXrXrXrXrXrXrXrXrXrXrXrXrXrXrXrXrXrXrXrXrXrXrXrXrXrXrXrXrXrXrXrXrXrXrXrXrXrXrXrXrXrXrXrXrXrXrXrXrXrXrXrXrXrXrXrXrXrXrXrXrX",
"rXrXrXrXrXrXrXrXrXrXrXrXrXrXrXrXrXrXrXrXrXrXrXrXrXrXrXrXrXrXrXrXrXrXrXrXrXrXrXrXrXrXrXrXrXrXrXrXrXrXrXrXrXrXrXrXrXrXrXrXrXrXrXrX",
"rXrXrXrXrXrXrXrXrXrXrXrXrXrXrXrXrXrXrXrXrXrXrXrXrXrXrXrXrXrXrXrXrXrXrXrXrXrXrXrXrXrXrXrXrXrXrXrXrXrXrXrXrXrXrXrXrXrXrXrXrXrXrXrX",
"rXrXrXrXrXrXrXrXrXrXrXrXrXrXrXrXrXrXrXrXrXrXrXrXrXrXrXrXrXrXrXrXrXrXrXrXrXrXrXrXrXrXrXrXrXrXrXrXrXrXrXrXrXrXrXrXrXrXrXrXrXrXrXrX",
"rXrXrXrXrXrXrXrXrXrXrXrXrXrXrXrXrXrXrXrXrXrXrXrXrXrXrXrXrXrXrXrXrXrXrXrXrXrXrXrXrXrXrXrXrXrXrXrXrXrXrXrXrXrXrXrXrXrXrXrXrXrXrXrX",
"rXrXrXrXrXrXrXrXrXrXrXrXrXrXrXrXrXrXrXrXrXrXrXrXrXrXrXrXrXrXrXrXrXrXrXrXrXrXrXrXrXrXrXrXrXrXrXrXrXrXrXrXrXrXrXrXrXrXrXrXrXrXrXrX",
"rXrXrXrXrXrXrXrXrXrXrXrXrXrXrXrXrXrXrXrXrXrXrXrXrXrXrXrXrXrXrXrXrXrXrXrXrXrXrXrXrXrXrXrXrXrXrXrXrXrXrXrXrXrXrXrXrXrXrXrXrXrXrXrX",
"rXrXrXrXrXrXrXrXrXrXrXrXrXrXrXrXrXrXrXrXrXrXrXrXrXrXrXrXrXrXrXrXrXrXrXrXrXrXrXrXrXrXrXrXrXrXrXrXrXrXrXrXrXrXrXrXrXrXrXrXrXrXrXrX",
"rXrXrXrXrXrXrXrXrXrXrXrXrXrXrXrXrXrXrXrXrXrXrXrXrXrXrXrXrXrXrXrXrXrXrXrXrXrXrXrXrXrXrXrXrXrXrXrXrXrXrXrXrXrXrXrXrXrXrXrXrXrXrXrX",
"rXrXrXrXrXrXrXrXrXrXrXrXrXrXrXrXrXrXrXrXrXrXrXrXrXrXrXrXrXrXrXrXrXrXrXrXrXrXrXrXrXrXrXrXrXrXrXrXrXrXrXrXrXrXrXrXrXrXrXrXrXrXrXrX"
};
