/* XPM */
static const char *player_1_6[] = {
/* columns rows colors chars-per-pixel */
"64 64 213 2 ",
"   c #010100",
".  c #0A0503",
"X  c #0C0906",
"o  c #0E0C0A",
"O  c #120E09",
"+  c #180700",
"@  c #14110C",
"#  c #1E140C",
"$  c #1A1510",
"%  c #171614",
"&  c #260901",
"*  c #2B0B01",
"=  c #260B07",
"-  c #330C01",
";  c #3A0E01",
":  c #2F1002",
">  c #24130B",
",  c #2E1A0C",
"<  c #331202",
"1  c #3B1402",
"2  c #3D1904",
"3  c #33140C",
"4  c #38170D",
"5  c #261714",
"6  c #3D1D13",
"7  c #351914",
"8  c #382617",
"9  c #39342C",
"0  c #323232",
"q  c #421602",
"w  c #441C03",
"e  c #491C03",
"r  c #431708",
"t  c #421E0B",
"y  c #4B1A0B",
"u  c #55180D",
"i  c #461C12",
"p  c #5A1B17",
"a  c #420F05",
"s  c #621E14",
"d  c #472005",
"f  c #4C2305",
"g  c #47210A",
"h  c #4B240A",
"j  c #512705",
"k  c #552A05",
"l  c #592C06",
"z  c #502609",
"x  c #542A0A",
"c  c #5B2E0A",
"v  c #5A240D",
"b  c #5E310A",
"n  c #422215",
"m  c #4C2412",
"M  c #4F2A18",
"N  c #542E16",
"B  c #5D2C15",
"V  c #56281A",
"C  c #5D3112",
"Z  c #54311C",
"A  c #5E361D",
"S  c #63340C",
"D  c #67380F",
"F  c #69390F",
"G  c #632216",
"H  c #63241A",
"J  c #6B2716",
"K  c #633511",
"L  c #6A3A11",
"P  c #6E3C12",
"I  c #6A3A10",
"U  c #683919",
"Y  c #733C1A",
"T  c #512E29",
"R  c #4A382C",
"E  c #563A27",
"W  c #413B32",
"Q  c #553631",
"!  c #752C23",
"~  c #7D2C21",
"^  c #7B2521",
"/  c #623B20",
"(  c #723724",
")  c #65352E",
"_  c #754215",
"`  c #76411D",
"'  c #5B442B",
"]  c #4D4539",
"[  c #5D4232",
"{  c #6D4224",
"}  c #6E462A",
"|  c #744A2A",
" . c #79472B",
".. c #7C512F",
"X. c #654236",
"o. c #774F30",
"O. c #7A583A",
"+. c #3E3F40",
"@. c #544E42",
"#. c #584E40",
"$. c #5B5447",
"%. c #5A5B5B",
"&. c #664B48",
"*. c #645848",
"=. c #765645",
"-. c #744E50",
";. c #615D58",
":. c #786C5A",
">. c #6A6153",
",. c #776F63",
"<. c #7C7261",
"1. c #852F25",
"2. c #853524",
"3. c #8B3829",
"4. c #93342C",
"5. c #973B2D",
"6. c #9E3931",
"7. c #9E3730",
"8. c #A03F2F",
"9. c #A33D32",
"0. c #85481E",
"q. c #894926",
"w. c #87542E",
"e. c #855934",
"r. c #965C30",
"t. c #A54232",
"y. c #AC4435",
"u. c #A94E34",
"i. c #B24737",
"p. c #B54A39",
"a. c #BA4E3B",
"s. c #B14837",
"d. c #B65535",
"f. c #A04E33",
"g. c #8B613B",
"h. c #A46237",
"j. c #B4683D",
"k. c #9D5749",
"l. c #A85442",
"z. c #876448",
"x. c #986E48",
"c. c #9F744D",
"v. c #8C6D52",
"b. c #977759",
"n. c #996B52",
"m. c #BD6A42",
"M. c #A47B57",
"N. c #BB7456",
"B. c #827664",
"V. c #887C6B",
"C. c #937B66",
"Z. c #95786F",
"A. c #936D75",
"S. c #A47B63",
"D. c #C46D55",
"F. c #C77059",
"G. c #B1865B",
"H. c #978973",
"J. c #AA8663",
"K. c #B58E66",
"L. c #BA946A",
"P. c #B69474",
"I. c #A59177",
"U. c #C69A6B",
"Y. c #C09D73",
"T. c #CEA47A",
"R. c #D3A579",
"E. c #A79685",
"W. c #B09D80",
"Q. c #AE8593",
"!. c #B38D94",
"~. c #AFA28A",
"^. c #BBA68B",
"/. c #B6A58A",
"(. c #BEA894",
"). c #A9A299",
"_. c #C69F85",
"`. c #C4A587",
"'. c #CEB088",
"]. c #C3B297",
"[. c #C9B79B",
"{. c #DCBC93",
"}. c #D5BC9D",
"|. c #D7B496",
" X c #D7B285",
".X c #E2B798",
"XX c #CFABA3",
"oX c #CEBDA2",
"OX c #D9BCA3",
"+X c #D2B9AD",
"@X c #D2A8B9",
"#X c #D9BBB8",
"$X c #E3C69D",
"%X c #D5C2A2",
"&X c #DCC5A3",
"*X c #DCCBAC",
"=X c #E3CAA3",
"-X c #E9CCA3",
";X c #E2CDAD",
":X c #E5C7A4",
">X c #E4D0AF",
",X c #E9D2AC",
"<X c #E4C8BD",
"1X c #E5D2B2",
"2X c #EAD6B4",
"3X c #EBD8B7",
"4X c #EDDAB9",
"5X c #F0DDBC",
"6X c #E1B7C7",
"7X c #E4BECA",
"8X c #EED0C7",
"9X c #FF00FF",
"0X c black",
/* pixels */
"9X9X9X9X9X9X9X9X9X9X9X9X9X9X9X9X9X9X9X9X9X9X9X9X9X9X9X9X9X9X9X9X9X9X9X9X9X9X9X9X9X9X9X9X9X9X9X9X9X9X9X9X9X9X9X9X9X9X9X9X9X9X9X9X",
"9X9X9X9X9X9X9X9X9X9X9X9X9X9X9X9X9X9X9X9X9X9X9X9X9X9X9X9X9X9X9X9X9X9X9X9X9X9X9X9X9X9X9X9X9X9X9X9X9X9X9X9X9X9X9X9X9X9X9X9X9X9X9X9X",
"9X9X9X9X9X9X9X9X9X9X9X9X9X9X9X9X9X9X9X9X9X9X9X9X9X9X9X9X9X9X9X9X9X9X9X9X9X9X9X9X9X9X9X9X9X9X9X9X9X9X9X9X9X9X9X9X9X9X9X9X9X9X9X9X",
"9X9X9X9X9X9X9X9X9X9X9X9X9X9X9X9X9X9X9X9X9X9X9X9X9X9X9X9X9X9X9X9X9X9X9X9X9X9X9X9X9X9X9X9X9X9X9X9X9X9X9X9X9X9X9X9X9X9X9X9X9X9X9X9X",
"9X9X9X9X9X9X9X9X9X9X9X9X9X9X9X9X9X9X9X9X9X9X9X9X9X9X9X9X9X9X9X9X9X9X9X9X9X9X9X9X9X9X9X9X9X9X9X9X9X9X9X9X9X9X9X9X9X9X9X9X9X9X9X9X",
"9X9X9X9X9X9X9X9X9X9X9X9X9X9X9X9X9X9X9X9X9X9X9X9X9X9X9X9X9X9X9X9X9X9X9X9X9X9X9X9X9X9X9X9X9X9X9X9X9X9X9X9X9X9X9X9X9X9X9X9X9X9X9X9X",
"9X9X9X9X9X9X9X9X9X9X9X9X9X9X9X9X9X9X9X9X9X9X9X9X9X9X9X9X9X9X9X9X9X9X9X9X9X9X9X9X9X9X9X9X9X9X9X9X9X9X9X9X9X9X9X9X9X9X9X9X9X9X9X9X",
"9X9X9X9X9X9X9X9X9X9X9X9X9X9X9X9X9X9X9X9X9X9X9X9X9X9X9X9X9X9X9X9X9X9X9X9X9X9X9X9X9X9X9X9X9X9X9X9X9X9X9X9X9X9X9X9X9X9X9X9X9X9X9X9X",
"9X9X9X9X9X9X9X9X9X9X9X9X9X9X9X9X9X9X9X9X9X9X9X9X9X9X9X9X9X9X9X9X9X9X9X9X9X9X9X9X9X9X9X9X9X9X9X9X9X9X9X9X9X9X9X9X9X9X9X9X9X9X9X9X",
"9X9X9X9X9X9X9X9X9X9X9X9X9X9X9X9X9X9X9X9X9X9X9X9X9X9X9X9X9X9X9X9X9X9X9X9X9X9X9X9X9X9X9X9X9X9X9X9X9X9X9X9X9X9X9X9X9X9X9X9X9X9X9X9X",
"9X9X9X9X9X9X9X9X9X9X9X9X9X9X9X9X9X9X9X9X9X9X9X9X9X9X9X9X9X9X9X9X9X9X9X9X9X9X9X9X9X9X9X9X9X9X9X9X9X9X9X9X9X9X9X9X9X9X9X9X9X9X9X9X",
"9X9X9X9X9X9X9X9X9X9X9X9X9X9X9X9X9X9X9X9X9X9X9X9X9X9X9X9X9X9X9X9X9X9X9X9X9X9X9X9X9X9X9X9X9X9X9X9X9X9X9X9X9X9X9X9X9X9X9X9X9X9X9X9X",
"9X9X9X9X9X9X9X9X9X9X9X9X9X9X9X9X9X9X9X9X9X9X9X9X9X9X9X9X9X9X9X9X9X9X9X9X9X9X9X9X9X9X9X9X9X9X9X9X9X9X9X9X9X9X9X9X9X9X9X9X9X9X9X9X",
"9X9X9X9X9X9X9X9X9X9X9X9X9X9X9X9X9X9X9X9X9X9X9X9X9X9X9X9X9X9X9X9X9X9X9X9X9X9X9X9X9X9X9X9X9X9X9X9X9X9X9X9X9X9X9X9X9X9X9X9X9X9X9X9X",
"9X9X9X9X9X9X9X9X9X9X9X9X9X9X9X9X9X9X9X9X9X9X9X9X9X& & & & & 9X9X9X& & & & & 9X9X9X9X9X9X9X9X9X9X9X9X9X9X9X9X9X9X9X9X9X9X9X9X9X9X",
"9X9X9X9X9X9X9X9X9X9X9X9X9X9X9X9X9X9X9X9X9X9X9X9X< < < < < < * 9X< < < < < < * 9X9X9X9X9X9X9X9X9X9X9X9X9X9X9X9X9X9X9X9X9X9X9X9X9X",
"9X9X9X9X9X9X9X9X9X9X9X9X9X9X9X9X9X9X9X9X9X* * < w f f f f f 2 1 w f f f f f 2 * * 9X9X9X9X9X9X9X9X9X9X9X9X9X9X9X9X9X9X9X9X9X9X9X",
"9X9X9X9X9X9X9X9X9X9X9X9X9X9X9X9X9X9X9X9X< 2 g z x S S z f k z z k f f c S c z h 2 < 9X9X9X9X9X9X9X9X9X9X9X9X9X9X9X9X9X9X9X9X9X9X",
"9X9X9X9X9X9X9X9X9X9X9X9X9X9X9X9X9X9X9X* 2 x L I S D I z w f S I x w g K I S D I b f < 9X9X9X9X9X9X9X9X9X9X9X9X9X9X9X9X9X9X9X9X9X",
"9X9X9X9X9X9X9X9X9X9X9X9X9X9X9X9X9X9X* 2 x I P D c b D K z w z c d h C L S c S F P b d < 9X9X9X9X9X9X9X9X9X9X9X9X9X9X9X9X9X9X9X9X",
"9X9X9X9X9X9X9X9X9X9X9X9X9X9X9X9X9X< 2 f D _ I l l b D K z w f f w h C L S l k S _ P k w < 9X9X9X9X9X9X9X9X9X9X9X9X9X9X9X9X9X9X9X",
"9X9X9X9X9X9X9X9X9X9X9X9X9X9X9X9X* 2 f k D _ I c l D I z w f k k f w g K I b l D _ P l j w : 9X9X9X9X9X9X9X9X9X9X9X9X9X9X9X9X9X9X",
"9X9X9X9X9X9X9X9X9X9X9X9X9X9X9X9X* 2 k l b D P F b S S z f k l l k f f c S b D P I S l k d < 9X9X9X9X9X9X9X9X9X9X9X9X9X9X9X9X9X9X",
"9X9X9X9X9X9X9X9X9X9X9X9X9X9X9X9X* 2 k b c x S P S l l k k l l c l k k l l c F I c x b c d : 9X9X9X9X9X9X9X9X9X9X9X9X9X9X9X9X9X9X",
"9X9X9X9X9X9X9X9X9X9X9X9X9X9X9X9X* 2 c I b w f c l k k k k l k k k k k k k k c z w z I S d : 9X9X9X9X9X9X9X9X9X9X9X9X9X9X9X9X9X9X",
"9X9X9X9X9X9X9X9X9X9X9X9X9X9X9X9X* 2 l D x < 2 w w f j d d j f d j f w f f w w 1 < g D S d : 9X9X9X9X9X9X9X9X9X9X9X9X9X9X9X9X9X9X",
"9X9X9X9X9X9X9X9X9X9X9X9X9X9X9X9X* 2 k k w - * 1 t h f h h f h h f h h h h g 2 - * 1 j k w : 9X9X9X9X9X9X9X9X9X9X9X9X9X9X9X9X9X9X",
"9X9X9X9X9X9X9X9X9X9X9X9X9X9X9X9X* 2 f w < - * m | { N | | N { o.Z / ..A A ..A < * - 2 f w < 9X9X9X9X9X9X9X9X9X9X9X9X9X9X9X9X9X9X",
"9X9X9X9X9X9X9X9X9X9X9X9X9X9X9X9X2 w j h r 1 m O.K.J.v.J.J.v.J.K.v.b.L.b.b.L.x.A 2 1 h z f 2 < 9X9X9X9X9X9X9X9X9X9X9X9X9X9X9X9X9X",
"9X9X9X9X9X9X9X9X9X9X9X9X9X9X9X< d k b K h t o.L.{.&X}.&X&X}.&X&X}.%X=X%X%X$XT.x.M t C S l f 2 * 9X9X9X9X9X9X9X9X9X9X9X9X9X9X9X9X",
"9X9X9X9X9X9X9X9X9X9X9X9X9X9X& < f S D c 2 6 v.{.2X4X4X4X4X4X4X4X4X4X4X4X4X3X-XP.E < h L D l 2 * 9X9X9X9X9X9X9X9X9X9X9X9X9X9X9X9X",
"9X9X9X9X9X9X9X9X9X9X9X9X9X9X& < f S L C t n C.;X3X&X|.=X3X4X3X3X4X4X>X}.}.1X3X^.Q 4 N L D x 2 * 9X9X9X9X9X9X9X9X9X9X9X9X9X9X9X9X",
"9X9X9X9X9X9X9X9X9X9X9X9X9X9X& < f j B w.| Z C.;X1XP.n.`.2X4X2X3X3X4X}.S.S.OX4X^.[ / e.Y z f 2 * 9X9X9X9X9X9X9X9X9X9X9X9X9X9X9X9X",
"9X9X9X9X9X9X9X9X9X9X9X9X9X9X& < f f c r.w.E C.;X;XC.X.I.1X4X3X3X4X4X[.=.=.[.4X^.[ { h.` f f 2 * 9X9X9X9X9X9X9X9X9X9X9X9X9X9X9X9X",
"9X9X9X9X9X9X9X9X9X9X9X9X9X9X& < f k S 0.Y M C.>X;XB.W H.1X4X3X3X4X4X].#.#.].4X^.[ B q.P l j 2 * 9X9X9X9X9X9X9X9X9X9X9X9X9X9X9X9X",
"9X9X9X9X9X9X9X9X9X9X9X9X9X9X& < f l l c y n C.1X;XB.W H.1X4X3X3X4X4X].$.$.].5X^.Q r v c l k 2 * 9X9X9X9X9X9X9X9X9X9X9X9X9X9X9X9X",
"9X9X9X9X9X9X9X9X9X9X9X9X9X9X& < f j f w - 6 Z.<X<XE.,.~.2X4X3X3X4X4XoXV.V.+X8X(.Q - q e j j 2 * 9X9X9X9X9X9X9X9X9X9X9X9X9X9X9X9X",
"9X9X9X9X9X9X9X9X9X9X9X9X9X9X& < d e q w 1 n A.@X7X#XoX*X2X3X3X3X3X3X1X%X+X7X6XQ.Q 1 w w w f 2 * 9X9X9X9X9X9X9X9X9X9X9X9X9X9X9X9X",
"9X9X9X9X9X9X9X9X9X9X9X9X9X9X9X< 2 1 ; q w g ) A.@X8X4X3X3X3X2X2X2X3X3X4X8X6XQ.-.M w q 1 1 2 < 9X9X9X9X9X9X9X9X9X9X9X9X9X9X9X9X9X",
"9X9X9X9X9X9X9X9X9X9X9X9X9X9X9X9X* * - ; w f t Q A.XX:X-X,X2X3X3X3X,X-X-XOX!.-.i f e 1 - - * 9X9X9X9X9X9X9X9X9X9X9X9X9X9X9X9X9X9X",
"9X9X9X9X9X9X9X9X9X9X9X9X9X9X9X9X& * - ; w f 2 3 T z.U.R. X=X1X1X;X{.R.U.M.X.7 < e e ; - - * 9X9X9X9X9X9X9X9X9X9X9X9X9X9X9X9X9X9X",
"9X9X9X9X9X9X9X9X9X9X9X9X9X9X9X9X9X* - 1 w w 1 * - N ..e.c.U.R.R.T.G.g.e.{ g - - q q ; - * * 9X9X9X9X9X9X9X9X9X9X9X9X9X9X9X9X9X9X",
"9X9X9X9X9X9X9X9X9X9X9X9X9X9X9X9X9X& * w e q ; - 1 r i m ( h.m.m.j.q.B i y e 1 ; 1 1 - * * 9X9X9X9X9X9X9X9X9X9X9X9X9X9X9X9X9X9X9X",
"9X9X9X9X9X9X9X9X9X9X9X9X9X9X9X9X9X9X* 1 w e q 1 e v J ~ 5.u.d.d.d.t.2.! G e 1 1 w q - * & 9X9X9X9X9X9X9X9X9X9X9X9X9X9X9X9X9X9X9X",
"9X9X9X9X9X9X9X9X9X9X9X9X9X9X9X9X9X9X* - 1 w < < f J 2.8.s.a.a.a.a.p.y.t.1.p a 1 w q - * 9X9X9X9X9X9X9X9X9X9X9X9X9X9X9X9X9X9X9X9X",
"9X9X9X9X9X9X9X9X9X9X9X9X9X9X9X9X9X9X9X* - - & + w l J 2.9.p.a.a.a.i.y.y.6.^ u ; ; - * 9X9X9X9X9X9X9X9X9X9X9X9X9X9X9X9X9X9X9X9X9X",
"9X9X9X9X9X9X9X9X9X9X9X9X9X9X9X9X9X9X9X9X- * + + < w e u 1.y.a.a.a.p.y.y.9.4.p ; - & + 9X9X9X9X9X9X9X9X9X9X9X9X9X9X9X9X9X9X9X9X9X",
"9X9X9X9X9X9X9X9X9X9X9X9X9X9X9X9X9X9X9X9X9X- - 3 y u y r G t.a.a.a.a.p.y.9.4.s r m 4 . 9X9X9X9X9X9X9X9X9X9X9X9X9X9X9X9X9X9X9X9X9X",
"9X9X9X9X9X9X9X9X9X9X9X9X9X9X9X9X9X9X9X9X9X1 H 2.~ ~ J u G t.a.a.a.a.a.p.y.5.G B ..E O 9X9X9X9X9X9X9X9X9X9X9X9X9X9X9X9X9X9X9X9X9X",
"9X9X9X9X9X9X9X9X9X9X9X9X9X9X9X9X9X9X9X9X9X3  .f.( p p G ~ 9.y.y.y.i.a.a.p.t.2.Y } E @ 9X9X9X9X9X9X9X9X9X9X9X9X9X9X9X9X9X9X9X9X9X",
"9X9X9X9X9X9X9X9X9X9X9X9X9X9X9X9X9X9X9X9X9X# O.M.[ 5 > H 4.9.9.9.9.y.i.p.a.a.d.q.8 @ 9X9X9X9X9X9X9X9X9X9X9X9X9X9X9X9X9X9X9X9X9X9X",
"9X9X9X9X9X9X9X9X9X9X9X9X9X9X9X9X9X9X9X9X9X$ :.'.I.@.> p 4.y.y.y.y.9.6.y.a.a.d.q.,   9X9X9X9X9X9X9X9X9X9X9X9X9X9X9X9X9X9X9X9X9X9X",
"9X9X9X9X9X9X9X9X9X9X9X9X9X9X9X9X9X9X9X9X9X% B.1X1XB.7 p 6.p.a.p.y.6.7.y.p.y.q.U > 9X9X9X9X9X9X9X9X9X9X9X9X9X9X9X9X9X9X9X9X9X9X9X",
"9X9X9X9X9X9X9X9X9X9X9X9X9X9X9X9X9X9X9X9X9X% :.[.oX:.6 ! y.a.a.s.7.6.y.p.i.5.V > 9X9X9X9X9X9X9X9X9X9X9X9X9X9X9X9X9X9X9X9X9X9X9X9X",
"9X9X9X9X9X9X9X9X9X9X9X9X9X9X9X9X9X9X9X9X9X9X] *.*.[ ) 5.a.a.a.p.y.y.a.a.i.4.i . 9X9X9X9X9X9X9X9X9X9X9X9X9X9X9X9X9X9X9X9X9X9X9X9X",
"9X9X9X9X9X9X9X9X9X9X9X9X9X9X9X9X9X9X9X9X9X9X9XO $ T k.N.D.m.f.3.3.l.D.F.l.! 4 . 9X9X9X9X9X9X9X9X9X9X9X9X9X9X9X9X9X9X9X9X9X9X9X9X",
"9X9X9X9X9X9X9X9X9X9X9X9X9X9X9X9X9X9X9X9X9X9X9X9Xo &.`..XR.N.} 3 7 =._.|.S.R > 9X9X9X9X9X9X9X9X9X9X9X9X9X9X9X9X9X9X9X9X9X9X9X9X9X",
"9X9X9X9X9X9X9X9X9X9X9X9X9X9X9X9X9X9X9X9X9X9X9X9X@ >.%X-XY.O.8 . . 9 V.].(.<.W 9X9X9X9X9X9X9X9X9X9X9X9X9X9X9X9X9X9X9X9X9X9X9X9X9X",
"9X9X9X9X9X9X9X9X9X9X9X9X9X9X9X9X9X9X9X9X9X9X9X9X@ $.W.L.z.8 .     % @.~.%XE.@.@ 9X9X9X9X9X9X9X9X9X9X9X9X9X9X9X9X9X9X9X9X9X9X9X9X",
"9X9X9X9X9X9X9X9X9X9X9X9X9X9X9X9X9X9X9X9X9X9X9X9X9X9 ] R 8 O     X W H.[./.:.9 9X9X9X9X9X9X9X9X9X9X9X9X9X9X9X9X9X9X9X9X9X9X9X9X9X",
"9X9X9X9X9X9X9X9X9X9X9X9X9X9X9X9X9X9X9X9X9X9X9X9X9X9Xo X 9X9X9X  o *.'.$X/.,.+.9X9X9X9X9X9X9X9X9X9X9X9X9X9X9X9X9X9X9X9X9X9X9X9X9X",
"9X9X9X9X9X9X9X9X9X9X9X9X9X9X9X9X9X9X9X9X9X9X9X9X9X9X9X9X9X9X9X9XO ' G.U.`.).%.@ 9X9X9X9X9X9X9X9X9X9X9X9X9X9X9X9X9X9X9X9X9X9X9X9X",
"9X9X9X9X9X9X9X9X9X9X9X9X9X9X9X9X9X9X9X9X9X9X9X9X9X9X9X9X9X9X9X9X9X8 E ' *.;.0 X 9X9X9X9X9X9X9X9X9X9X9X9X9X9X9X9X9X9X9X9X9X9X9X9X",
"9X9X9X9X9X9X9X9X9X9X9X9X9X9X9X9X9X9X9X9X9X9X9X9X9X9X9X9X9X9X9X9X9X9XX X o o .   9X9X9X9X9X9X9X9X9X9X9X9X9X9X9X9X9X9X9X9X9X9X9X9X"
};
