/* XPM */
static const char *player_1_5[] = {
/* columns rows colors chars-per-pixel */
"64 64 220 2 ",
"   c #030201",
".  c #0B0503",
"X  c #0D0C0B",
"o  c #0D0A07",
"O  c #1B0500",
"+  c #120D0A",
"@  c #180803",
"#  c #14110D",
"$  c #18110C",
"%  c #151413",
"&  c #1A1612",
"*  c #260902",
"=  c #2B0C01",
"-  c #200600",
";  c #330C01",
":  c #3A0E00",
">  c #2F1002",
",  c #231A0E",
"<  c #29140B",
"1  c #341203",
"2  c #3B1302",
"3  c #3D1904",
"4  c #3B1708",
"5  c #3E1909",
"6  c #34160B",
"7  c #2B1A13",
"8  c #3D1E15",
"9  c #351C18",
"0  c #25221C",
"q  c #3D2517",
"w  c #2A2827",
"e  c #38342F",
"r  c #3F3E3C",
"t  c #421403",
"y  c #431C04",
"u  c #491D03",
"i  c #491909",
"p  c #551A0D",
"a  c #441C13",
"s  c #4D1E17",
"d  c #5C1C12",
"f  c #581C16",
"g  c #651F15",
"h  c #472005",
"j  c #4C2305",
"k  c #46200A",
"l  c #4B240B",
"z  c #4E280E",
"x  c #512605",
"c  c #542905",
"v  c #592D06",
"b  c #552A0B",
"n  c #5A2E0A",
"m  c #5C270D",
"M  c #5E310B",
"N  c #4A2514",
"B  c #4A2A19",
"V  c #532B12",
"C  c #522D1A",
"Z  c #592715",
"A  c #5C351A",
"S  c #5A341B",
"D  c #45321E",
"F  c #61330B",
"G  c #61330D",
"H  c #63340D",
"J  c #66360E",
"K  c #64330C",
"L  c #69390F",
"P  c #67380F",
"I  c #692618",
"U  c #75291C",
"Y  c #623411",
"T  c #643512",
"R  c #673810",
"E  c #6A3911",
"W  c #6E3C12",
"Q  c #6B3A11",
"!  c #63361C",
"~  c #623A1D",
"^  c #6C3716",
"/  c #753916",
"(  c #622D0C",
")  c #492B27",
"_  c #562E25",
"`  c #4C3926",
"'  c #573929",
"]  c #573A31",
"[  c #762922",
"{  c #673D24",
"}  c #743528",
"|  c #754215",
" . c #75401C",
".. c #5D4131",
"X. c #534635",
"o. c #6A4127",
"O. c #784827",
"+. c #694C36",
"@. c #754E37",
"#. c #7B5737",
"$. c #464646",
"%. c #554D41",
"&. c #5A5244",
"*. c #624F41",
"=. c #6A474A",
"-. c #665949",
";. c #695F51",
":. c #675F50",
">. c #78554D",
",. c #6B6254",
"<. c #786D5A",
"1. c #882D27",
"2. c #833322",
"3. c #8C3A2C",
"4. c #893726",
"5. c #9B3A2F",
"6. c #96372C",
"7. c #9F3C31",
"8. c #9C3730",
"9. c #8A3E30",
"0. c #A43D33",
"q. c #884B26",
"w. c #8B542B",
"e. c #994631",
"r. c #825A38",
"t. c #945C37",
"y. c #944E2A",
"u. c #AB4335",
"i. c #A64534",
"p. c #B14737",
"a. c #B24A36",
"s. c #B24738",
"d. c #B54A39",
"f. c #BA4D3A",
"g. c #AB5431",
"h. c #B65A35",
"j. c #93663C",
"k. c #835F5C",
"l. c #B35E4A",
"z. c #A65240",
"x. c #8C6645",
"c. c #886049",
"v. c #986E48",
"b. c #9F744D",
"n. c #97785A",
"m. c #8E7252",
"M. c #B76544",
"N. c #A97A4C",
"B. c #B5754C",
"V. c #A37951",
"C. c #AD634F",
"Z. c #8A646D",
"A. c #847865",
"S. c #927C66",
"D. c #967866",
"F. c #917070",
"G. c #C36D57",
"H. c #C8715A",
"J. c #AE8153",
"K. c #968673",
"L. c #A88367",
"P. c #BB9267",
"I. c #B99477",
"U. c #A98A74",
"Y. c #C38253",
"T. c #C69F73",
"R. c #CD9766",
"E. c #8F8F90",
"W. c #8F9090",
"Q. c #AA9C85",
"!. c #B89F82",
"~. c #B38A99",
"^. c #B89697",
"/. c #BCA283",
"(. c #BAA68B",
"). c #B6A78E",
"_. c #B9A693",
"`. c #BFB197",
"'. c #A4A4A3",
"]. c #BDB3A6",
"[. c #CBA78A",
"{. c #C5AB8A",
"}. c #D2AD82",
"|. c #CDB08C",
" X c #D3B28C",
".X c #DDB584",
"XX c #C3B297",
"oX c #CCB79A",
"OX c #CCBB9D",
"+X c #CAB295",
"@X c #DCBC94",
"#X c #D6B996",
"$X c #D6AE91",
"%X c #E2BC96",
"&X c #E0BA8B",
"*X c #C59AAE",
"=X c #C9A8AA",
"-X c #C9B7A1",
";X c #DEBBBF",
":X c #E0BDBB",
">X c #E2C196",
",X c #DEC6A5",
"<X c #D7C6A7",
"1X c #E2CEAE",
"2X c #E6CCA6",
"3X c #E3D0AF",
"4X c #E9D3AF",
"5X c #E3CDB4",
"6X c #E7C8B9",
"7X c #E6D3B2",
"8X c #EAD6B4",
"9X c #EBD8B7",
"0X c #ECDAB9",
"qX c #E9D4BA",
"wX c #DCB1C6",
"eX c #E5BDCC",
"rX c #E9C8C7",
"tX c #F0D8C0",
"yX c #FF00FF",
"uX c black",
/* pixels */
"yXyXyXyXyXyXyXyXyXyXyXyXyXyXyXyXyXyXyXyXyXyXyXyXyXyXyXyXyXyXyXyXyXyXyXyXyXyXyXyXyXyXyXyXyXyXyXyXyXyXyXyXyXyXyXyXyXyXyXyXyXyXyXyX",
"yXyXyXyXyXyXyXyXyXyXyXyXyXyXyXyXyXyXyXyXyXyXyXyXyXyXyXyXyXyXyXyXyXyXyXyXyXyXyXyXyXyXyXyXyXyXyXyXyXyXyXyXyXyXyXyXyXyXyXyXyXyXyXyX",
"yXyXyXyXyXyXyXyXyXyXyXyXyXyXyXyXyXyXyXyXyXyXyXyXyXyXyXyXyXyXyXyXyXyXyXyXyXyXyXyXyXyXyXyXyXyXyXyXyXyXyXyXyXyXyXyXyXyXyXyXyXyXyXyX",
"yXyXyXyXyXyXyXyXyXyXyXyXyXyXyXyXyXyXyXyXyXyXyXyXyXyXyXyXyXyXyXyXyXyXyXyXyXyXyXyXyXyXyXyXyXyXyXyXyXyXyXyXyXyXyXyXyXyXyXyXyXyXyXyX",
"yXyXyXyXyXyXyXyXyXyXyXyXyXyXyXyXyXyXyXyXyXyXyXyXyXyXyXyXyXyXyXyXyXyXyXyXyXyXyXyXyXyXyXyXyXyXyXyXyXyXyXyXyXyXyXyXyXyXyXyXyXyXyXyX",
"yXyXyXyXyXyXyXyXyXyXyXyXyXyXyXyXyXyXyXyXyXyXyXyXyXyXyXyXyXyXyXyXyXyXyXyXyXyXyXyXyXyXyXyXyXyXyXyXyXyXyXyXyXyXyXyXyXyXyXyXyXyXyXyX",
"yXyXyXyXyXyXyXyXyXyXyXyXyXyXyXyXyXyXyXyXyXyXyXyXyXyXyXyXyXyXyXyXyXyXyXyXyXyXyXyXyXyXyXyXyXyXyXyXyXyXyXyXyXyXyXyXyXyXyXyXyXyXyXyX",
"yXyXyXyXyXyXyXyXyXyXyXyXyXyXyXyXyXyXyXyXyXyXyXyXyXyXyXyXyXyXyXyXyXyXyXyXyXyXyXyXyXyXyXyXyXyXyXyXyXyXyXyXyXyXyXyXyXyXyXyXyXyXyXyX",
"yXyXyXyXyXyXyXyXyXyXyXyXyXyXyXyXyXyXyXyXyXyXyXyXyXyXyXyXyXyXyXyXyXyXyXyXyXyXyXyXyXyXyXyXyXyXyXyXyXyXyXyXyXyXyXyXyXyXyXyXyXyXyXyX",
"yXyXyXyXyXyXyXyXyXyXyXyXyXyXyXyXyXyXyXyXyXyXyXyXyXyXyXyXyXyXyXyXyXyXyXyXyXyXyXyXyXyXyXyXyXyXyXyXyXyXyXyXyXyXyXyXyXyXyXyXyXyXyXyX",
"yXyXyXyXyXyXyXyXyXyXyXyXyXyXyXyXyXyXyXyXyXyXyXyXyXyXyXyXyXyXyXyXyXyXyXyXyXyXyXyXyXyXyXyXyXyXyXyXyXyXyXyXyXyXyXyXyXyXyXyXyXyXyXyX",
"yXyXyXyXyXyXyXyXyXyXyXyXyXyXyXyXyXyXyXyXyXyXyXyXyXyXyXyXyXyXyXyXyXyXyXyXyXyXyXyXyXyXyXyXyXyXyXyXyXyXyXyXyXyXyXyXyXyXyXyXyXyXyXyX",
"yXyXyXyXyXyXyXyXyXyXyXyXyXyXyXyXyXyXyXyXyXyXyXyXyXyXyXyXyXyXyXyXyXyXyXyXyXyXyXyXyXyXyXyXyXyXyXyXyXyXyXyXyXyXyXyXyXyXyXyXyXyXyXyX",
"yXyXyXyXyXyXyXyXyXyXyXyXyXyXyXyXyXyXyXyXyXyXyXyX= = = = = = yXyX= = = = = = yXyXyXyXyXyXyXyXyXyXyXyXyXyXyXyXyXyXyXyXyXyXyXyXyXyX",
"yXyXyXyXyXyXyXyXyXyXyXyXyXyXyXyXyXyXyXyXyXyX* 1 3 y y y y y 1 1 3 y y y y y 1 = * yXyXyXyXyXyXyXyXyXyXyXyXyXyXyXyXyXyXyXyXyXyXyX",
"yXyXyXyXyXyXyXyXyXyXyXyXyXyXyXyXyXyXyXyXyX1 4 y x n n x j x j k j j j v n c j 3 1 > yXyXyXyXyXyXyXyXyXyXyXyXyXyXyXyXyXyXyXyXyXyX",
"yXyXyXyXyXyXyXyXyXyXyXyXyXyXyXyXyXyXyX= 2 j M Y M J R l y c G Y n h u M L F G Y x 3 = yXyXyXyXyXyXyXyXyXyXyXyXyXyXyXyXyXyXyXyXyX",
"yXyXyXyXyXyXyXyXyXyXyXyXyXyXyXyXyXyXyX2 l H W L M F R n l j n G l k b Y J M J W Q v 3 1 yXyXyXyXyXyXyXyXyXyXyXyXyXyXyXyXyXyXyXyX",
"yXyXyXyXyXyXyXyXyXyXyXyXyXyXyXyXyX= 1 j G | Q M n n H T b y j j y l Y J M n n J | Q c 3 = yXyXyXyXyXyXyXyXyXyXyXyXyXyXyXyXyXyXyX",
"yXyXyXyXyXyXyXyXyXyXyXyXyXyXyXyX= 1 u c J | Q n n H Q b l h j c j h l Y J n c K | W n j 3 = yXyXyXyXyXyXyXyXyXyXyXyXyXyXyXyXyXyX",
"yXyXyXyXyXyXyXyXyXyXyXyXyXyXyXyX= 3 x v F W Q H n J T l u x n n c j h M P M M L W J n c u 1 yXyXyXyXyXyXyXyXyXyXyXyXyXyXyXyXyXyX",
"yXyXyXyXyXyXyXyXyXyXyXyXyXyXyXyX= 3 c n n M Q W F n n c c c n n n c c n n n L W G n n n h > yXyXyXyXyXyXyXyXyXyXyXyXyXyXyXyXyXyX",
"yXyXyXyXyXyXyXyXyXyXyXyXyXyXyXyX= 3 v J n j v H M v c n v v c n n n v c c n F M j x J F h > yXyXyXyXyXyXyXyXyXyXyXyXyXyXyXyXyXyX",
"yXyXyXyXyXyXyXyXyXyXyXyXyXyXyXyX= 3 n Q n 4 3 j j x c j j c x j c x j c c j j u 1 l Q H h > yXyXyXyXyXyXyXyXyXyXyXyXyXyXyXyXyXyX",
"yXyXyXyXyXyXyXyXyXyXyXyXyXyXyXyX= 3 c n l 1 ; 2 3 h j u u j h y j j y j j y 2 ; = 3 n n h > yXyXyXyXyXyXyXyXyXyXyXyXyXyXyXyXyXyX",
"yXyXyXyXyXyXyXyXyXyXyXyXyXyXyXyX= 3 j j 2 ; = 5 A S l A A l S ~ z V ~ V V ~ N ; = 1 y j u = yXyXyXyXyXyXyXyXyXyXyXyXyXyXyXyXyXyX",
"yXyXyXyXyXyXyXyXyXyXyXyXyXyXyXyX1 y j u 4 ; 4 { b.x.+.v.v.+.x.b.@.r.V.#.#.V.#.N ; 1 3 j j 1 = yXyXyXyXyXyXyXyXyXyXyXyXyXyXyXyXyX",
"yXyXyXyXyXyXyXyXyXyXyXyXyXyXyX1 y j n n l 5 { V.}.{.!.|.|.!.{. X/.{. X/./. XP.r.k y n n c h 1 = yXyXyXyXyXyXyXyXyXyXyXyXyXyXyXyX",
"yXyXyXyXyXyXyXyXyXyXyXyXyXyX* 1 j M J M k a x.}.2X9X9X8X8X8X8X8X8X8X8X9X9X7X>XL.S 5 n T K c 3 = yXyXyXyXyXyXyXyXyXyXyXyXyXyXyXyX",
"yXyXyXyXyXyXyXyXyXyXyXyXyXyX* 1 j J Q V 4 q n.,X9X7X1X7X0X0X0X9X0X0X8X1X1X8X7X/.' 6 l T Q n 3 = yXyXyXyXyXyXyXyXyXyXyXyXyXyXyXyX",
"yXyXyXyXyXyXyXyXyXyXyXyXyXyX* 1 j v Y O.A B S.1X8X[.U.|.8X9X8X8X9X0X,XI.I.,X0X(...C O.^ v x 3 = yXyXyXyXyXyXyXyXyXyXyXyXyXyXyXyX",
"yXyXyXyXyXyXyXyXyXyXyXyXyXyX* 1 j j M t.w._ S.5X3XL.@.I.7X0X9X9X9X0XoXc.c.oX0X(...o.j. .j j 3 = yXyXyXyXyXyXyXyXyXyXyXyXyXyXyXyX",
"yXyXyXyXyXyXyXyXyXyXyXyXyXyX* 1 j x K w.q.C S.3X1XA.` K.7X0X9X9X0X0XXX*.*.XX0X(...! y.| c x 3 = yXyXyXyXyXyXyXyXyXyXyXyXyXyXyXyX",
"yXyXyXyXyXyXyXyXyXyXyXyXyXyX* 1 j v F ^ m N S.3X1XA.e K.7X0X9X9X0X0XXX%.%.XX0X(.] l ^ J n c 3 = yXyXyXyXyXyXyXyXyXyXyXyXyXyXyXyX",
"yXyXyXyXyXyXyXyXyXyXyXyXyXyX* 1 j c x u 2 8 S.5X5XK.&.U.7X0X9X9X0X0XoX,.,.-XtX_.] ; y x c c 3 = yXyXyXyXyXyXyXyXyXyXyXyXyXyXyXyX",
"yXyXyXyXyXyXyXyXyXyXyXyXyXyX* 1 j j y y 2 8 F.;XrX=XQ.OX8X9X9X9X9X0X<X)._.;XrX^.] 1 y u u j 3 = yXyXyXyXyXyXyXyXyXyXyXyXyXyXyXyX",
"yXyXyXyXyXyXyXyXyXyXyXyXyXyXyX1 y t 2 t y k >.~.wXrXqX9X9X9X8X8X8X9X9X8XrXeX*XZ._ y y t 2 y 2 = yXyXyXyXyXyXyXyXyXyXyXyXyXyXyXyX",
"yXyXyXyXyXyXyXyXyXyXyXyXyXyXyXyX= ; ; : y j N =.~.:X8X7X7X8X9X9X9X7X7X8X6X=XZ._ l u 2 : ; ; = yXyXyXyXyXyXyXyXyXyXyXyXyXyXyXyXyX",
"yXyXyXyXyXyXyXyXyXyXyXyXyXyXyXyX* = ; : t j 2 8 =.U.}..X>X4X0X9X8X2X&X.XI.k.) 1 j u : ; ; = yXyXyXyXyXyXyXyXyXyXyXyXyXyXyXyXyXyX",
"yXyXyXyXyXyXyXyXyXyXyXyXyXyXyXyX* = ; 2 y u 2 = 6 o.v.N.P. X@X%X@XT.J.N.r.B = 1 y y : ; = = yXyXyXyXyXyXyXyXyXyXyXyXyXyXyXyXyXyX",
"yXyXyXyXyXyXyXyXyXyXyXyXyXyXyXyXyX= ; y u t : ; ; y V S O.B.Y.Y.B.t.! C V j 2 : 2 2 ; = = yXyXyXyXyXyXyXyXyXyXyXyXyXyXyXyXyXyXyX",
"yXyXyXyXyXyXyXyXyXyXyXyXyXyXyXyXyXyX= 2 u y 2 2 t p f I 2.g.h.h.h.y.I Z I I p 2 t t ; = * yXyXyXyXyXyXyXyXyXyXyXyXyXyXyXyXyXyXyX",
"yXyXyXyXyXyXyXyXyXyXyXyXyXyXyXyXyXyX= ; t u 2 2 j I 2.5.u.d.f.f.f.s.i.5.6.1.d t y t ; = * yXyXyXyXyXyXyXyXyXyXyXyXyXyXyXyXyXyXyX",
"yXyXyXyXyXyXyXyXyXyXyXyXyXyXyXyXyXyXyX= ; 2 = * h ( / 6.u.f.f.f.f.d.u.u.0.1.d 2 2 2 = = yXyXyXyXyXyXyXyXyXyXyXyXyXyXyXyXyXyXyXyX",
"yXyXyXyXyXyXyXyXyXyXyXyXyXyXyXyXyXyXyXyX; ; O @ 2 j m 4.u.f.f.f.f.p.u.u.0.1.d : ; = O yXyXyXyXyXyXyXyXyXyXyXyXyXyXyXyXyXyXyXyXyX",
"yXyXyXyXyXyXyXyXyXyXyXyXyXyXyXyXyXyXyXyXyX; O @ ; t p 2.u.f.f.f.f.f.d.u.0.6.I t ; - . yXyXyXyXyXyXyXyXyXyXyXyXyXyXyXyXyXyXyXyXyX",
"yXyXyXyXyXyXyXyXyXyXyXyXyXyXyXyXyXyXyXyXyX; O - p p t d 4.p.f.f.f.f.f.p.u.5.1.g t O   yXyXyXyXyXyXyXyXyXyXyXyXyXyXyXyXyXyXyXyXyX",
"yXyXyXyXyXyXyXyXyXyXyXyXyXyXyXyXyXyXyXyXyX= = a [ I t i U i.d.s.s.d.f.f.p.0.5.4.I 6 . yXyXyXyXyXyXyXyXyXyXyXyXyXyXyXyXyXyXyXyXyX",
"yXyXyXyXyXyXyXyXyXyXyXyXyXyXyXyXyXyXyXyXyX@ Z 3.8.U p I 4.0.0.0.0.u.d.f.f.p.u.i.t.' + yXyXyXyXyXyXyXyXyXyXyXyXyXyXyXyXyXyXyXyXyX",
"yXyXyXyXyXyXyXyXyXyXyXyXyXyXyXyXyXyXyXyXyX+ { M.M.e.2.6.u.u.u.u.u.0.0.p.f.f.a.e.#.` $ yXyXyXyXyXyXyXyXyXyXyXyXyXyXyXyXyXyXyXyXyX",
"yXyXyXyXyXyXyXyXyXyXyXyXyXyXyXyXyXyXyXyXyX$ #.R.R.B.e.0.p.d.d.d.u.7.8.u.f.f.h.q.q $ yXyXyXyXyXyXyXyXyXyXyXyXyXyXyXyXyXyXyXyXyXyX",
"yXyXyXyXyXyXyXyXyXyXyXyXyXyXyXyXyXyXyXyXyX& <.@X@Xn._ [ 0.d.f.p.0.8.0.d.p.u.g.q.6   yXyXyXyXyXyXyXyXyXyXyXyXyXyXyXyXyXyXyXyXyXyX",
"yXyXyXyXyXyXyXyXyXyXyXyXyXyXyXyXyXyXyXyXyX& A.7X7XA.9 f 7.d.f.p.0.0.d.f.p.7.4.! < yXyXyXyXyXyXyXyXyXyXyXyXyXyXyXyXyXyXyXyXyXyXyX",
"yXyXyXyXyXyXyXyXyXyXyXyXyXyXyXyXyXyXyXyXyX& <.OXOX<.q [ p.f.f.f.d.d.f.f.p.5.Z < yXyXyXyXyXyXyXyXyXyXyXyXyXyXyXyXyXyXyXyXyXyXyXyX",
"yXyXyXyXyXyXyXyXyXyXyXyXyXyXyXyXyXyXyXyXyXyXX.:.:.+.} e.f.f.f.f.f.f.f.f.f.7.s . yXyXyXyXyXyXyXyXyXyXyXyXyXyXyXyXyXyXyXyXyXyXyXyX",
"yXyXyXyXyXyXyXyXyXyXyXyXyXyXyXyXyXyXyXyXyXyXyX+ & ' C.G.l.e.3.3.3.z.G.H.l.9.a . yXyXyXyXyXyXyXyXyXyXyXyXyXyXyXyXyXyXyXyXyXyXyXyX",
"yXyXyXyXyXyXyXyXyXyXyXyXyXyXyXyXyXyXyXyXyXyXyXyX+ *.[.%XL.' 7 < 9 >.[.$XD.) @ yXyXyXyXyXyXyXyXyXyXyXyXyXyXyXyXyXyXyXyXyXyXyXyXyX",
"yXyXyXyXyXyXyXyXyXyXyXyXyXyXyXyXyXyXyXyXyXyXyXyX# :.<X0X`.<.w . + ,.XXQ.%.%   yXyXyXyXyXyXyXyXyXyXyXyXyXyXyXyXyXyXyXyXyXyXyXyXyX",
"yXyXyXyXyXyXyXyXyXyXyXyXyXyXyXyXyXyXyXyXyXyXyXyX# ,.<X9X2X{.&.o X ,._.A.r w %   yXyXyXyXyXyXyXyXyXyXyXyXyXyXyXyXyXyXyXyXyXyXyXyX",
"yXyXyXyXyXyXyXyXyXyXyXyXyXyXyXyXyXyXyXyXyXyXyXyX# ;.oX%X.XT.+.o X ;.-X].'.E.$.X yXyXyXyXyXyXyXyXyXyXyXyXyXyXyXyXyXyXyXyXyXyXyXyX",
"yXyXyXyXyXyXyXyXyXyXyXyXyXyXyXyXyXyXyXyXyXyXyXyX# %.A.m.j.#.` . X -.{.].'.W.$.X yXyXyXyXyXyXyXyXyXyXyXyXyXyXyXyXyXyXyXyXyXyXyXyX",
"yXyXyXyXyXyXyXyXyXyXyXyXyXyXyXyXyXyXyXyXyXyXyXyXyX0 0 7 , , yXyX+ ..m.-.e w %   yXyXyXyXyXyXyXyXyXyXyXyXyXyXyXyXyXyXyXyXyXyXyXyX",
"yXyXyXyXyXyXyXyXyXyXyXyXyXyXyXyXyXyXyXyXyXyXyXyXyXyXyXyXyXyXyXyXyXq D ,       yXyXyXyXyXyXyXyXyXyXyXyXyXyXyXyXyXyXyXyXyXyXyXyXyX",
"yXyXyXyXyXyXyXyXyXyXyXyXyXyXyXyXyXyXyXyXyXyXyXyXyXyXyXyXyXyXyXyXyXyX.       yXyXyXyXyXyXyXyXyXyXyXyXyXyXyXyXyXyXyXyXyXyXyXyXyXyX"
};
