/* XPM */
static const char *player_0_5[] = {
/* columns rows colors chars-per-pixel */
"64 64 191 2 ",
"   c #020201",
".  c #0A0402",
"X  c #0C0906",
"o  c #0F0D0A",
"O  c #110401",
"+  c #1B0602",
"@  c #1D0904",
"#  c #120F0B",
"$  c #1F0B08",
"%  c #13110D",
"&  c #1F170E",
"*  c #220701",
"=  c #260902",
"-  c #2C0B01",
";  c #230A09",
":  c #2A0B09",
">  c #340C00",
",  c #390D00",
"<  c #350E0C",
"1  c #2F1002",
"2  c #26140A",
"3  c #2B140D",
"4  c #22190F",
"5  c #2E1A0C",
"6  c #341203",
"7  c #3C1302",
"8  c #3E1903",
"9  c #3B120A",
"0  c #381409",
"q  c #370D10",
"w  c #390E10",
"e  c #271C10",
"r  c #341711",
"t  c #3B1010",
"y  c #2D2216",
"u  c #25221D",
"i  c #28241D",
"p  c #382819",
"a  c #332618",
"s  c #292620",
"d  c #2D2923",
"f  c #38332C",
"g  c #421502",
"h  c #451A03",
"j  c #4A1D04",
"k  c #4C1D08",
"l  c #431E0A",
"z  c #451211",
"x  c #4A1410",
"c  c #451A14",
"v  c #4E1C16",
"b  c #571717",
"n  c #56181A",
"m  c #462004",
"M  c #4D2204",
"N  c #4C230B",
"B  c #512505",
"V  c #562A05",
"C  c #592C06",
"Z  c #53240A",
"A  c #552B0D",
"S  c #5C2E09",
"D  c #5B2D0B",
"F  c #58270D",
"G  c #5E3109",
"H  c #5E3009",
"J  c #472419",
"K  c #47281A",
"L  c #452412",
"P  c #572D10",
"I  c #592E11",
"U  c #5A241A",
"Y  c #46341F",
"T  c #5E3010",
"R  c #602F0F",
"E  c #61330B",
"W  c #63330B",
"Q  c #63340B",
"!  c #62320E",
"~  c #63350E",
"^  c #65350D",
"/  c #64350D",
"(  c #69390F",
")  c #69390F",
"_  c #65241D",
"`  c #632819",
"'  c #782F1F",
"]  c #643312",
"[  c #693713",
"{  c #6B3A10",
"}  c #6A3911",
"|  c #6F3D13",
" . c #6D3C12",
".. c #6F3D15",
"X. c #6D3B13",
"o. c #66371B",
"O. c #713E15",
"+. c #713D15",
"@. c #743F18",
"#. c #4B2E26",
"$. c #4F3A23",
"%. c #523B23",
"&. c #7D2626",
"*. c #762A22",
"=. c #7F2E25",
"-. c #663C28",
";. c #763423",
":. c #754216",
">. c #744116",
",. c #754218",
"<. c #79451A",
"1. c #7E491B",
"2. c #784417",
"3. c #53402B",
"4. c #4A4439",
"5. c #4D483D",
"6. c #534C3F",
"7. c #654A2E",
"8. c #794625",
"9. c #624938",
"0. c #7A5936",
"q. c #5C5548",
"w. c #5D5345",
"e. c #695A48",
"r. c #685F51",
"t. c #716858",
"y. c #796E5D",
"u. c #802726",
"i. c #852B29",
"p. c #8C342A",
"a. c #8B3B2F",
"s. c #933C2E",
"d. c #9C382F",
"f. c #9C3B30",
"g. c #A43D32",
"h. c #A83F34",
"j. c #814A1D",
"k. c #814B1D",
"l. c #8B492A",
"z. c #9F432F",
"x. c #964434",
"c. c #9B5A39",
"v. c #905B3A",
"b. c #A44B2F",
"n. c #AE4436",
"m. c #A44C38",
"M. c #B14637",
"N. c #B54A39",
"B. c #B94D3A",
"V. c #B24938",
"C. c #AD5438",
"Z. c #B85738",
"A. c #85613B",
"S. c #AC6235",
"D. c #A55244",
"F. c #B45F4C",
"G. c #AF5E50",
"H. c #9B7246",
"J. c #886F50",
"K. c #867257",
"L. c #91795C",
"P. c #AD7148",
"I. c #BB7C48",
"U. c #B66454",
"Y. c #837A67",
"T. c #9C7966",
"R. c #C07544",
"E. c #C17F50",
"W. c #AF804E",
"Q. c #AB8254",
"!. c #B38455",
"~. c #8E826E",
"^. c #998D77",
"/. c #AB8664",
"(. c #B8966D",
"). c #B59477",
"_. c #CB915B",
"`. c #D09B68",
"'. c #A69982",
"]. c #B2A083",
"[. c #D5B58C",
"{. c #D5AF94",
"}. c #C6B599",
"|. c #DDB69A",
" X c #D3C2A3",
".X c #DFC9A6",
"XX c #E5CEAC",
"oX c #EBD9B8",
"OX c #F0DEBC",
"+X c #FF00FF",
"@X c black",
/* pixels */
"+X+X+X+X+X+X+X+X+X+X+X+X+X+X+X+X+X+X+X+X+X+X+X+X+X+X+X+X+X+X+X+X+X+X+X+X+X+X+X+X+X+X+X+X+X+X+X+X+X+X+X+X+X+X+X+X+X+X+X+X+X+X+X+X",
"+X+X+X+X+X+X+X+X+X+X+X+X+X+X+X+X+X+X+X+X+X+X+X+X+X+X+X+X+X+X+X+X+X+X+X+X+X+X+X+X+X+X+X+X+X+X+X+X+X+X+X+X+X+X+X+X+X+X+X+X+X+X+X+X",
"+X+X+X+X+X+X+X+X+X+X+X+X+X+X+X+X+X+X+X+X+X+X+X+X+X+X+X+X+X+X+X+X+X+X+X+X+X+X+X+X+X+X+X+X+X+X+X+X+X+X+X+X+X+X+X+X+X+X+X+X+X+X+X+X",
"+X+X+X+X+X+X+X+X+X+X+X+X+X+X+X+X+X+X+X+X+X+X+X+X+X+X+X+X+X+X+X+X+X+X+X+X+X+X+X+X+X+X+X+X+X+X+X+X+X+X+X+X+X+X+X+X+X+X+X+X+X+X+X+X",
"+X+X+X+X+X+X+X+X+X+X+X+X+X+X+X+X+X+X+X+X+X+X+X+X+X+X+X+X+X+X+X+X+X+X+X+X+X+X+X+X+X+X+X+X+X+X+X+X+X+X+X+X+X+X+X+X+X+X+X+X+X+X+X+X",
"+X+X+X+X+X+X+X+X+X+X+X+X+X+X+X+X+X+X+X+X+X+X+X+X+X+X+X+X+X+X+X+X+X+X+X+X+X+X+X+X+X+X+X+X+X+X+X+X+X+X+X+X+X+X+X+X+X+X+X+X+X+X+X+X",
"+X+X+X+X+X+X+X+X+X+X+X+X+X+X+X+X+X+X+X+X+X+X+X+X+X+X+X+X+X+X+X+X+X+X+X+X+X+X+X+X+X+X+X+X+X+X+X+X+X+X+X+X+X+X+X+X+X+X+X+X+X+X+X+X",
"+X+X+X+X+X+X+X+X+X+X+X+X+X+X+X+X+X+X+X+X+X+X+X+X+X+X+X+X+X+X+X+X+X+X+X+X+X+X+X+X+X+X+X+X+X+X+X+X+X+X+X+X+X+X+X+X+X+X+X+X+X+X+X+X",
"+X+X+X+X+X+X+X+X+X+X+X+X+X+X+X+X+X+X+X+X+X+X+X+X+X+X+X+X+X+X+X+X+X+X+X+X+X+X+X+X+X+X+X+X+X+X+X+X+X+X+X+X+X+X+X+X+X+X+X+X+X+X+X+X",
"+X+X+X+X+X+X+X+X+X+X+X+X+X+X+X+X+X+X+X+X+X+X+X+X+X+X+X+X+X+X+X+X+X+X+X+X+X+X+X+X+X+X+X+X+X+X+X+X+X+X+X+X+X+X+X+X+X+X+X+X+X+X+X+X",
"+X+X+X+X+X+X+X+X+X+X+X+X+X+X+X+X+X+X+X+X+X+X+X+X+X+X+X+X+X+X+X+X+X+X+X+X+X+X+X+X+X+X+X+X+X+X+X+X+X+X+X+X+X+X+X+X+X+X+X+X+X+X+X+X",
"+X+X+X+X+X+X+X+X+X+X+X+X+X+X+X+X+X+X+X+X+X+X+X+X+X+X+X+X+X+X+X+X+X+X+X+X+X+X+X+X+X+X+X+X+X+X+X+X+X+X+X+X+X+X+X+X+X+X+X+X+X+X+X+X",
"+X+X+X+X+X+X+X+X+X+X+X+X+X+X+X+X+X+X+X+X+X+X+X+X+X+X+X+X+X+X+X+X+X+X+X+X+X+X+X+X+X+X+X+X+X+X+X+X+X+X+X+X+X+X+X+X+X+X+X+X+X+X+X+X",
"+X+X+X+X+X+X+X+X+X+X+X+X+X+X+X+X+X+X+X+X+X+X+X+X= - 6 6 6 6 +X+X6 6 6 6 - = +X+X+X+X+X+X+X+X+X+X+X+X+X+X+X+X+X+X+X+X+X+X+X+X+X+X",
"+X+X+X+X+X+X+X+X+X+X+X+X+X+X+X+X+X+X+X+X+X+X= = > l A I I A l 8 Z I I I N 6 = = = +X+X+X+X+X+X+X+X+X+X+X+X+X+X+X+X+X+X+X+X+X+X+X",
"+X+X+X+X+X+X+X+X+X+X+X+X+X+X+X+X+X+X+X+X+X= - 6 8 Z X.X.[ ] Z N T [ [ ..! h 6 6 - = +X+X+X+X+X+X+X+X+X+X+X+X+X+X+X+X+X+X+X+X+X+X",
"+X+X+X+X+X+X+X+X+X+X+X+X+X+X+X+X+X+X+X= - , g M B C D Z k N D ] Z k Z C S B M j 7 > = +X+X+X+X+X+X+X+X+X+X+X+X+X+X+X+X+X+X+X+X+X",
"+X+X+X+X+X+X+X+X+X+X+X+X+X+X+X+X+X+X+X6 8 h B V V B j h h j D ! B h h j M V C B j g 7 6 +X+X+X+X+X+X+X+X+X+X+X+X+X+X+X+X+X+X+X+X",
"+X+X+X+X+X+X+X+X+X+X+X+X+X+X+X+X+X- 6 M V V V C V M h j M B C C V B M h j B C V V C B 8 - +X+X+X+X+X+X+X+X+X+X+X+X+X+X+X+X+X+X+X",
"+X+X+X+X+X+X+X+X+X+X+X+X+X+X+X+X= 6 M ~ ( G C C V B j h j V C C V M h j B V C C C / { A 8 - +X+X+X+X+X+X+X+X+X+X+X+X+X+X+X+X+X+X",
"+X+X+X+X+X+X+X+X+X+X+X+X+X+X+X+X- l ~ 2.>.E G E S C B g j D G C V j g M V C G E G { <.| Z 6 +X+X+X+X+X+X+X+X+X+X+X+X+X+X+X+X+X+X",
"+X+X+X+X+X+X+X+X+X+X+X+X+X+X+X+X- N ,.j.>.Q { +.E C B g N { ( S C j g j V D { | ~ { 1.<.T 0 +X+X+X+X+X+X+X+X+X+X+X+X+X+X+X+X+X+X",
"+X+X+X+X+X+X+X+X+X+X+X+X+X+X+X+X- N <.k.>.~ | :.Q C B h Z O.{ E / Z g j V D | :./ { 1.j.] 0 +X+X+X+X+X+X+X+X+X+X+X+X+X+X+X+X+X+X",
"+X+X+X+X+X+X+X+X+X+X+X+X+X+X+X+X- N ..2.{ E ( | E C B h Z O.{ E / F j M V C ( | E / :.:.D 0 +X+X+X+X+X+X+X+X+X+X+X+X+X+X+X+X+X+X",
"+X+X+X+X+X+X+X+X+X+X+X+X+X+X+X+X- l D E G C G G C C B g Z ..( V k k B V V C G G C D E E N 6 +X+X+X+X+X+X+X+X+X+X+X+X+X+X+X+X+X+X",
"+X+X+X+X+X+X+X+X+X+X+X+X+X+X+X+X= 8 B C C V C C C C B g j ! Q B g h V C C V C C C C C V m 1 +X+X+X+X+X+X+X+X+X+X+X+X+X+X+X+X+X+X",
"+X+X+X+X+X+X+X+X+X+X+X+X+X+X+X+X- 8 B C C C C C C C B h h B C B h j V C C C C C C V C V j 6 = +X+X+X+X+X+X+X+X+X+X+X+X+X+X+X+X+X",
"+X+X+X+X+X+X+X+X+X+X+X+X+X+X+X= > g B C C C C C C C V B j h M B B B V C C C C C C V C V M 6 - = +X+X+X+X+X+X+X+X+X+X+X+X+X+X+X+X",
"+X+X+X+X+X+X+X+X+X+X+X+X+X+X= = > g M V V V V V V V C V B h j M V V C C V V V V V C V B h , - = +X+X+X+X+X+X+X+X+X+X+X+X+X+X+X+X",
"+X+X+X+X+X+X+X+X+X+X+X+X+X+X= - , , g M V C C D D C C C V B h h B C C C C C D C C C B h 7 , > = +X+X+X+X+X+X+X+X+X+X+X+X+X+X+X+X",
"+X+X+X+X+X+X+X+X+X+X+X+X+X+X= > 8 g 7 M V C / | | / C V C V h g M V V C E { | ( G C B g 7 g 6 = +X+X+X+X+X+X+X+X+X+X+X+X+X+X+X+X",
"+X+X+X+X+X+X+X+X+X+X+X+X+X+X= 6 M M h B G S ! O.<.| D G G V h g B G G S / :.,.[ D D S k j M 8 - +X+X+X+X+X+X+X+X+X+X+X+X+X+X+X+X",
"+X+X+X+X+X+X+X+X+X+X+X+X+X+X= 6 M B V / { S M F O.| ~ { X.C h g B / | / ( :.] Z V / X.D B B 8 = +X+X+X+X+X+X+X+X+X+X+X+X+X+X+X+X",
"+X+X+X+X+X+X+X+X+X+X+X+X+X+X= - g B S / / C h j X.:.O.:.X.B 7 , j ! ,.O.>.,.F g B E ( E V j 6 = +X+X+X+X+X+X+X+X+X+X+X+X+X+X+X+X",
"+X+X+X+X+X+X+X+X+X+X+X+X+X+X= - , h B C C V h j X.j.j.1.[ h , > 7 F <.j.j.<.F g M C C V j 7 - = +X+X+X+X+X+X+X+X+X+X+X+X+X+X+X+X",
"+X+X+X+X+X+X+X+X+X+X+X+X+X+X= = > 7 h B V V h j X.j.k.1.] g > > , F <.k.j.<.F g M V V j g , - = +X+X+X+X+X+X+X+X+X+X+X+X+X+X+X+X",
"+X+X+X+X+X+X+X+X+X+X+X+X+X+X+X= - > , g B V M k R @.<.O.F 7 > > , k ] O...] F Z M B B j g , - = +X+X+X+X+X+X+X+X+X+X+X+X+X+X+X+X",
"+X+X+X+X+X+X+X+X+X+X+X+X+X+X+X+X= = - , h M B M j D X.F g , > > , 7 h B B M D D j j B B h , - = +X+X+X+X+X+X+X+X+X+X+X+X+X+X+X+X",
"+X+X+X+X+X+X+X+X+X+X+X+X+X+X+X+X+X= = > , 8 M M g h Z M g , , , , > , g h j Z Z g h M m 8 , - = +X+X+X+X+X+X+X+X+X+X+X+X+X+X+X+X",
"+X+X+X+X+X+X+X+X+X+X+X+X+X+X+X+X+X+X= > > 7 M B h g h j h , > , , , > , 8 j j g g j M l 6 > - = +X+X+X+X+X+X+X+X+X+X+X+X+X+X+X+X",
"+X+X+X+X+X+X+X+X+X+X+X+X+X+X+X+X+X+X+X= 6 h B V B M M h 7 > > , , , > - > 7 h M B V V M g - = +X+X+X+X+X+X+X+X+X+X+X+X+X+X+X+X+X",
"+X+X+X+X+X+X+X+X+X+X+X+X+X+X+X+X+X+X+X= 6 h B C C C V M 8 > - > > > > - > , g M V C C V j 6 +X+X+X+X+X+X+X+X+X+X+X+X+X+X+X+X+X+X",
"+X+X+X+X+X+X+X+X+X+X+X+X+X+X+X+X+X+X+X= - 7 h B B B B B M 8 > - > > = - > > , 8 M V V B l 1 +X+X+X+X+X+X+X+X+X+X+X+X+X+X+X+X+X+X",
"+X+X+X+X+X+X+X+X+X+X+X+X+X+X+X+X+X+X+X+X= - 7 8 7 8 h B V M 6 = = = = = > > > , 7 j M j 6 +X+X+X+X+X+X+X+X+X+X+X+X+X+X+X+X+X+X+X",
"+X+X+X+X+X+X+X+X+X+X+X+X+X+X+X+X+X+X+X+X+X+ = - = - , h M h 6 = = = = = = > > > - 6 8 6 +X+X+X+X+X+X+X+X+X+X+X+X+X+X+X+X+X+X+X+X",
"+X+X+X+X+X+X+X+X+X+X+X+X+X+X+X+X+X+X+X+X+X. + = = - , , 6 > - = = - - = = = > > - - - - +X+X+X+X+X+X+X+X+X+X+X+X+X+X+X+X+X+X+X+X",
"+X+X+X+X+X+X+X+X+X+X+X+X+X+X+X+X+X+X+X+X. O * - > - - - = = = = = 9 x : + * - - > > - = +X+X+X+X+X+X+X+X+X+X+X+X+X+X+X+X+X+X+X+X",
"+X+X+X+X+X+X+X+X+X+X+X+X+X+X+X+X+X+X+X  @ 9 7 > > < < = + * * + * 9 z : @ < - = - > > - = +X+X+X+X+X+X+X+X+X+X+X+X+X+X+X+X+X+X+X",
"+X+X+X+X+X+X+X+X+X+X+X+X+X+X+X+X+X+X+X. r ;.` 0 6 x b < + * + O O + ; ; z _ c @ * - > - = +X+X+X+X+X+X+X+X+X+X+X+X+X+X+X+X+X+X+X",
"+X+X+X+X+X+X+X+X+X+X+X+X+X+X+X+X+X+X+X. K c.c.8.o.' &.n z z z w q q t v *.s.;.L ; * - - +X+X+X+X+X+X+X+X+X+X+X+X+X+X+X+X+X+X+X+X",
"+X+X+X+X+X+X+X+X+X+X+X+X+X+X+X+X+X+X+Xi 9.!._.I.S.b.d.i.u.u.u.&.&.&.u.p.g.V.C.8.3 O * +X+X+X+X+X+X+X+X+X+X+X+X+X+X+X+X+X+X+X+X+X",
"+X+X+X+X+X+X+X+X+X+X+X+X+X+X+X+X+X+Xu t.].[.`.R.Z.B.n.n.h.h.h.h.h.h.n.n.N.B.Z.l.5 . +X+X+X+X+X+X+X+X+X+X+X+X+X+X+X+X+X+X+X+X+X+X",
"+X+X+X+X+X+X+X+X+X+X+X+X+X+X+X+X+X+Xd ^.oXXX/.l.z.n.M.N.B.B.V.n.n.n.M.N.N.n.l.o.2 +X+X+X+X+X+X+X+X+X+X+X+X+X+X+X+X+X+X+X+X+X+X+X",
"+X+X+X+X+X+X+X+X+X+X+X+X+X+X+X+X+X+Xs ~. X}.r.J =.g.h.n.B.B.M.h.h.g.h.n.M.f.U 2 +X+X+X+X+X+X+X+X+X+X+X+X+X+X+X+X+X+X+X+X+X+X+X+X",
"+X+X+X+X+X+X+X+X+X+X+X+X+X+X+X+X+X+X+X6.r.q.d 3 *.d.g.h.n.N.V.n.n.h.f.h.n.f.v . +X+X+X+X+X+X+X+X+X+X+X+X+X+X+X+X+X+X+X+X+X+X+X+X",
"+X+X+X+X+X+X+X+X+X+X+X+X+X+X+X+X+X+X+X% % # X ; _ s.m.C.m.s.p.x.F.U.U.G.D.a.c . +X+X+X+X+X+X+X+X+X+X+X+X+X+X+X+X+X+X+X+X+X+X+X+X",
"+X+X+X+X+X+X+X+X+X+X+X+X+X+X+X+X+X+X+X+X+X+X+X+X3 -.P.E.v.J r 9.).|.|.{.T.#.$ +X+X+X+X+X+X+X+X+X+X+X+X+X+X+X+X+X+X+X+X+X+X+X+X+X",
"+X+X+X+X+X+X+X+X+X+X+X+X+X+X+X+X+X+X+X+X+X+X+X  . y 0.W.A.y f Y. XoXOXoX^.d +X+X+X+X+X+X+X+X+X+X+X+X+X+X+X+X+X+X+X+X+X+X+X+X+X+X",
"+X+X+X+X+X+X+X+X+X+X+X+X+X+X+X+X+X+X+X+X+X+X+X    # $.H.A.a q.'.}. X.X}.Y.s +X+X+X+X+X+X+X+X+X+X+X+X+X+X+X+X+X+X+X+X+X+X+X+X+X+X",
"+X+X+X+X+X+X+X+X+X+X+X+X+X+X+X+X+X+X+X+X+X+X+X  . p A.W.A.y d 5.w.L.(.K.4.+X+X+X+X+X+X+X+X+X+X+X+X+X+X+X+X+X+X+X+X+X+X+X+X+X+X+X",
"+X+X+X+X+X+X+X+X+X+X+X+X+X+X+X+X+X+X+X+X+X+X+X+XX Y 0.A.7.& . . % 7.Q.J.4.+X+X+X+X+X+X+X+X+X+X+X+X+X+X+X+X+X+X+X+X+X+X+X+X+X+X+X",
"+X+X+X+X+X+X+X+X+X+X+X+X+X+X+X+X+X+X+X+X+X+X+X+X+X4 e e 4 +X    X %.Q.).y.s +X+X+X+X+X+X+X+X+X+X+X+X+X+X+X+X+X+X+X+X+X+X+X+X+X+X",
"+X+X+X+X+X+X+X+X+X+X+X+X+X+X+X+X+X+X+X+X+X+X+X+X+X+X+X+X+X+X+X  . e 3.e.6.u +X+X+X+X+X+X+X+X+X+X+X+X+X+X+X+X+X+X+X+X+X+X+X+X+X+X",
"+X+X+X+X+X+X+X+X+X+X+X+X+X+X+X+X+X+X+X+X+X+X+X+X+X+X+X+X+X+X+X+X  . X o o +X+X+X+X+X+X+X+X+X+X+X+X+X+X+X+X+X+X+X+X+X+X+X+X+X+X+X"
};
