/* XPM */
static const char *player_2_7[] = {
/* columns rows colors chars-per-pixel */
"64 64 186 2 ",
"   c #270A01",
".  c #2B0A01",
"X  c #2B0F0B",
"o  c #270D0A",
"O  c #340B00",
"+  c #3A0D01",
"@  c #2F1004",
"#  c #2D110C",
"$  c #341303",
"%  c #3B1402",
"&  c #3E1903",
"*  c #3D160A",
"=  c #3E1A09",
"-  c #3F1C16",
";  c #3D2219",
":  c #421602",
">  c #451B03",
",  c #491D03",
"<  c #4A1408",
"1  c #441E09",
"2  c #4F1C0F",
"3  c #481307",
"4  c #5A1C0F",
"5  c #531D0A",
"6  c #411C18",
"7  c #5D1C12",
"8  c #571B12",
"9  c #4D2304",
"0  c #46220F",
"q  c #4A230B",
"w  c #4E280D",
"e  c #522605",
"r  c #562A05",
"t  c #592C06",
"y  c #542A0C",
"u  c #5B2E09",
"i  c #5D220F",
"p  c #5E310A",
"a  c #472310",
"s  c #4A2612",
"d  c #4F2910",
"f  c #44291D",
"g  c #5A2E11",
"h  c #572712",
"j  c #5F3212",
"k  c #5D361E",
"l  c #63340C",
"z  c #67380E",
"x  c #69380F",
"c  c #6D2418",
"v  c #792B1F",
"b  c #633512",
"n  c #6C3B11",
"m  c #713F15",
"M  c #7B3E1F",
"N  c #472B20",
"B  c #5F3A20",
"V  c #553B2E",
"C  c #5A3A2C",
"Z  c #483E34",
"A  c #683F25",
"S  c #774317",
"D  c #75431A",
"F  c #7A4519",
"G  c #78491D",
"H  c #4F473D",
"J  c #5F4436",
"K  c #6E4729",
"L  c #7C4927",
"P  c #79502F",
"I  c #634536",
"U  c #6B4748",
"Y  c #6C5343",
"T  c #6A5F50",
"R  c #7A614F",
"E  c #6F6656",
"W  c #7C6350",
"Q  c #822E23",
"!  c #8B2F27",
"~  c #8A3028",
"^  c #8A3525",
"/  c #94362A",
"(  c #9C3B2E",
")  c #9C3730",
"_  c #9E3931",
"`  c #A03F2F",
"'  c #A43D32",
"]  c #80451E",
"[  c #8C4B25",
"{  c #80522D",
"}  c #865A3A",
"|  c #8B5F39",
" . c #A64132",
".. c #AC4436",
"X. c #AA4A3A",
"o. c #B14737",
"O. c #B34837",
"+. c #B54A39",
"@. c #B94D3A",
"#. c #B6543E",
"$. c #93653E",
"%. c #96683F",
"&. c #9C6837",
"*. c #A26533",
"=. c #AE5543",
"-. c #B95C4B",
";. c #976940",
":. c #986940",
">. c #93674C",
",. c #986F4A",
"<. c #806652",
"1. c #8C735E",
"2. c #AB7244",
"3. c #906763",
"4. c #977C65",
"5. c #C66754",
"6. c #C87C57",
"7. c #C87665",
"8. c #8E8072",
"9. c #9E8870",
"0. c #A88166",
"q. c #A98A6A",
"w. c #B3926F",
"e. c #A2957E",
"r. c #BF9C75",
"t. c #C68555",
"y. c #D29A5E",
"u. c #D39D62",
"i. c #D0926D",
"p. c #CD8577",
"a. c #CD9F77",
"s. c #C29C71",
"d. c #D99079",
"f. c #D7A66F",
"g. c #D9A46E",
"h. c #CDA373",
"j. c #D7A973",
"k. c #D5AB7A",
"l. c #DAAE7B",
"z. c #B59E84",
"x. c #B38A98",
"c. c #AFA087",
"v. c #B9A48B",
"b. c #B9A58B",
"n. c #CCAB8C",
"m. c #DEA48D",
"M. c #DEB588",
"N. c #C8AE91",
"B. c #C8B396",
"V. c #CDBA9D",
"C. c #CBB69A",
"Z. c #D3B494",
"A. c #D0BC9F",
"S. c #E2AF82",
"D. c #E0AE8C",
"F. c #E2B082",
"G. c #E2B78A",
"H. c #E2BF97",
"J. c #EEBF9C",
"K. c #C9B0A8",
"L. c #DBB3A8",
"P. c #DEBCB0",
"I. c #EFBFA9",
"U. c #EDB8A1",
"Y. c #E5C79F",
"T. c #DDC9A9",
"R. c #DCC5B3",
"E. c #E0C7A8",
"W. c #E9CFAB",
"Q. c #E3CAA5",
"!. c #F5C9AB",
"~. c #E6D1AF",
"^. c #EAD1AA",
"/. c #F4C9B2",
"(. c #EDDAB9",
"). c #ECD9B9",
"_. c #E6D0B3",
"`. c #F1D2B3",
"'. c #F4DABC",
"]. c #DDB3C6",
"[. c #E3BDC7",
"{. c #EDCEC8",
"}. c #F0D7C4",
"|. c #F1E3D1",
" X c #FF00FF",
".X c black",
/* pixels */
" X X X X X X X X X X X X X X X X X X X X X X X X X X X X X X X X X X X X X X X X X X X X X X X X X X X X X X X X X X X X X X X X",
" X X X X X X X X X X X X X X X X X X X X X X X X X X X X X X X X X X X X X X X X X X X X X X X X X X X X X X X X X X X X X X X X",
" X X X X X X X X X X X X X X X X X X X X X X X X X X X X X X X X X X X X X X X X X X X X X X X X X X X X X X X X X X X X X X X X",
" X X X X X X X X X X X X X X X X X X X X X X X X X X X X X X X X X X X X X X X X X X X X X X X X X X X X X X X X X X X X X X X X",
" X X X X X X X X X X X X X X X X X X X X X X X X X X X X X X X X X X X X X X X X X X X X X X X X X X X X X X X X X X X X X X X X",
" X X X X X X X X X X X X X X X X X X X X X X X X X X X X X X X X X X X X X X X X X X X X X X X X X X X X X X X X X X X X X X X X",
" X X X X X X X X X X X X X X X X X X X X X X X X X X X X X X X X X X X X X X X X X X X X X X X X X X X X X X X X X X X X X X X X",
" X X X X X X X X X X X X X X X X X X X X X X X X X X X X X X X X X X X X X X X X X X X X X X X X X X X X X X X X X X X X X X X X",
" X X X X X X X X X X X X X X X X X X X X X X X X X X X X X X X X X X X X X X X X X X X X X X X X X X X X X X X X X X X X X X X X",
" X X X X X X X X X X X X X X X X X X X X X X X X X X X X X X X X X X X X X X X X X X X X X X X X X X X X X X X X X X X X X X X X",
" X X X X X X X X X X X X X X X X X X X X X X X X X X X X X X X X X X X X X X X X X X X X X X X X X X X X X X X X X X X X X X X X",
" X X X X X X X X X X X X X X X X X X X X X X X X                         X X X X X X X X X X X X X X X X X X X X X X X X X X X X",
" X X X X X X X X X X X X X X X X X X X X X X X X$ % % % $ % % % $ $ % % $  X X X X X X X X X X X X X X X X X X X X X X X X X X X",
" X X X X X X X X X X X X X X X X X X X X X X@ % q 9 9 e e e 9 e e e 9 9 1 $  X X X X X X X X X X X X X X X X X X X X X X X X X X",
" X X X X X X X X X X X X X X X X X X X X X@ q y t q q p z u r p x z t t u y 1  X X X X X X X X X X X X X X X X X X X X X X X X X",
" X X X X X X X X X X X X X X X X X X X X X$ y b y 1 q b n p r p n n l u z m g =  X X X X X X X X X X X X X X X X X X X X X X X X",
" X X X X X X X X X X X X X X X X X X X X X$ q r > q b b l t r t l n n z z S D j =  X X X X X X X X X X X X X X X X X X X X X X X",
" X X X X X X X X X X X X X X X X X X X X$ & 9 9 1 q u b l t t r t n S z l n F D g 1  X X X X X X X X X X X X X X X X X X X X X X",
" X X X X X X X X X X X X X X X X X X X$ > 9 r r e 1 1 j n p r t p n m z t p n F D y $  X X X X X X X X X X X X X X X X X X X X X",
" X X X X X X X X X X X X X X X X X X$ y p t t t r 9 9 u l t r p n n z u t t p n D g $  X X X X X X X X X X X X X X X X X X X X X",
" X X X X X X X X X X X X X X X X X X$ y z p t t t t t t t r r p n z p l l t t p n u & .  X X X X X X X X X X X X X X X X X X X X",
" X X X X X X X X X X X X X X X X X X$ q u t r e r r e e r r r t u t p n n u r t u u q $    X X X X X X X X X X X X X X X X X X X",
" X X X X X X X X X X X X X X X X X X X$ 1 e q 1 9 q : : , r t t r r t l l t r r t t 9 %    X X X X X X X X X X X X X X X X X X X",
" X X X X X X X X X X X X X X X X X X X. $ 1 w d w w s * % 9 r r r r r t t t t t t t 9 %    X X X X X X X X X X X X X X X X X X X",
" X X X X X X X X X X X X X X X X X X X X$ s P } B K | k % % 9 r t t r r r r r r t t e %    X X X X X X X X X X X X X X X X X X X",
" X X X X X X X X X X X X X X X X X X X XV <.w.r.4.q.s.,.k * > u z l t r t r 9 9 r t e % .    X X X X X X X X X X X X X X X X X X",
" X X X X X X X X X X X X X X X X X X XX Y b.~.~.T.E.Q.h.| q : u n n l t t r , : e t e : O    X X X X X X X X X X X X X X X X X X",
" X X X X X X X X X X X X X X X X X X XX Y C.(.(.(.(.^.l.:.a & t z n n l t r > : 9 t e : O    X X X X X X X X X X X X X X X X X X",
" X X X X X X X X X X X X X X X X X X XX Y N.Z.n.E.(.^.l.%.a & p G D b u t r > : 9 t e : O    X X X X X X X X X X X X X X X X X X",
" X X X X X X X X X X X X X X X X X X XX Y v.0.>.N.).^.l.%.a & n &.{ q q t r > : 9 t e : O    X X X X X X X X X X X X X X X X X X",
" X X X X X X X X X X X X X X X X X X X# Y z.<.I v.).^.k.%.a & m *.L = > t r > : e t e : O    X X X X X X X X X X X X X X X X X X",
" X X X X X X X X X X X X X X X X X X XV 4.b.T Z c.(.^.l.;.a & l ] b * > r e > > e t e : O    X X X X X X X X X X X X X X X X X X",
" X X X X X X X X X X X X X X X X X XN 1.B.V.E H c.(.W.k.$.q : e q : % , 9 > , e r t 9 %    X X X X X X X X X X X X X X X X X X X",
" X X X X X X X X X X X X X X X X X Xf W z.V.e.8.K.{.P.0.A = : 9 > % % q , : , r t e > $    X X X X X X X X X X X X X X X X X X X",
" X X X X X X X X X X X X X X X X X X X; R C.~.R.[.].x.U * % 9 r e , : , , % , r r , % .    X X X X X X X X X X X X X X X X X X X",
" X X X X X X X X X X X X X X X X X X Xo Y B.'.}.[.x.U 6 % , e r t e 9 > % % , r r , + .    X X X X X X X X X X X X X X X X X X X",
" X X X X X X X X X X X X X X X X X X X XJ 9.A._.L.3.- $ , e e 9 r t e : O + , e 9 : O    X X X X X X X X X X X X X X X X X X X X",
" X X X X X X X X X X X X X X X X X X X X XV 4.Z.a.} = & e e , > e r e : + % , e : +    X X X X X X X X X X X X X X X X X X X X X",
" X X X X X X X X X X X X X X X X X X X X X# C >.2.L = > e , > 9 e e > % % , e 9 % .    X X X X X X X X X X X X X X X X X X X X X",
" X X X X X X X X X X X X X X X X X X X X X  $ h [ M 2 1 > > 9 e e > + + : e e , % .    X X X X X X X X X X X X X X X X X X X X X",
" X X X X X X X X X X X X X X X X X X X X X  . +  X/ v 2 & 9 r e > % + + : 9 , % O    X X X X X X X X X X X X X X X X X X X X X X",
" X X X X X X X X X X X X X X X X X X X X X  . .  X X~ 8 * 9 e > % < 4 3 % > : + .  X X X X X X X X X X X X X X X X X X X X X X X",
" X X X X X X X X X X X X X X X X X X X X X X     X X! 7 : 9 , % < c Q 7 + + + O  X X X X X X X X X X X X X X X X X X X X X X X X",
" X X X X X X X X X X X X X X X X X X X X X X X X X X! 7 > 9 > < c /  .Q + O O  X X X X X X X X X X X X X X X X X X X X X X X X X",
" X X X X X X X X X X X X X X X X X X X X X X X X X X( v i , 5 c / ..+... X+  X X X X X X X X X X X X X X X X X X X X X X X X X X",
" X X X X X X X X X X X X X X X X X X X X X X X X X..o. .Q 4 c / ..@.+.' /  X X X X X X X X X X X X X X X X X X X X X X X X X X X",
" X X X X X X X X X X X X X X X X X X X X X X X X X' ..+.` Q / ..@.@.o.' ) )  X X X X X X X X X X X X X X X X X X X X X X X X X X",
" X X X X X X X X X X X X X X X X X X X X X X X X' '  ...' ' ..@.@.@. XX.=.-. X X X X X X X X X X X X X X X X X X X X X X X X X X",
" X X X X X X X X X X X X X X X X X X X X X X X XO.o...) _ ..@.@.@.@. Xt.i.m. X X X X X X X X X X X X X X X X X X X X X X X X X X",
" X X X X X X X X X X X X X X X X X X X X X X X X@...' ) ' +.@.@.@.@. Xu.S.!. X X X X X X X X X X X X X X X X X X X X X X X X X X",
" X X X X X X X X X X X X X X X X X X X X X X X X+.' ) ' +.@.@.+.O.o. Xu.F.!. X X X X X X X X X X X X X X X X X X X X X X X X X X",
" X X X X X X X X X X X X X X X X X X X X X X X X X....O.@.@.@.+..... Xu.S.!. X X X X X X X X X X X X X X X X X X X X X X X X X X",
" X X X X X X X X X X X X X X X X X X X X X X X X X X+.O.o.@.5.7.7.p. Xl.F.!. X X X X X X X X X X X X X X X X X X X X X X X X X X",
" X X X X X X X X X X X X X X X X X X X X X X X X X X X' ..-.d.U.I././. X X X X X X X X X X X X X X X X X X X X X X X X X X X X X",
" X X X X X X X X X X X X X X X X X X X X X X X X X X X X#.6.D.`.'.'.`.G. X X X X X X X X X X X X X X X X X X X X X X X X X X X X",
" X X X X X X X X X X X X X X X X X X X X X X X X X X X X Xu.M.Y.Q.W.W.H.M. X X X X X X X X X X X X X X X X X X X X X X X X X X X",
" X X X X X X X X X X X X X X X X X X X X X X X X X X X X X Xf.j.j.l. X|.|. X X X X X X X X X X X X X X X X X X X X X X X X X X X",
" X X X X X X X X X X X X X X X X X X X X X X X X X X X X X Xy.y.y.y. X X X X X X X X X X X X X X X X X X X X X X X X X X X X X X",
" X X X X X X X X X X X X X X X X X X X X X X X X X X X X X Xy.y.y.y. X X X X X X X X X X X X X X X X X X X X X X X X X X X X X X",
" X X X X X X X X X X X X X X X X X X X X X X X X X X X X X Xy.y.y.y. X X X X X X X X X X X X X X X X X X X X X X X X X X X X X X",
" X X X X X X X X X X X X X X X X X X X X X X X X X X X X X Xy.y.y.y. X X X X X X X X X X X X X X X X X X X X X X X X X X X X X X",
" X X X X X X X X X X X X X X X X X X X X X X X X X X X XJ.g.y.y.y.y. X X X X X X X X X X X X X X X X X X X X X X X X X X X X X X",
" X X X X X X X X X X X X X X X X X X X X X X X X X X X X X X X X X X X X X X X X X X X X X X X X X X X X X X X X X X X X X X X X",
" X X X X X X X X X X X X X X X X X X X X X X X X X X X X X X X X X X X X X X X X X X X X X X X X X X X X X X X X X X X X X X X X"
};
