/* XPM */
static const char *player_1_4[] = {
/* columns rows colors chars-per-pixel */
"64 64 222 2 ",
"   c #030202",
".  c #0B0604",
"X  c #0D0A06",
"o  c #0D0C0A",
"O  c #120504",
"+  c #140D09",
"@  c #1A0905",
"#  c #13110D",
"$  c #1A1817",
"%  c #260901",
"&  c #2B0C01",
"*  c #230A05",
"=  c #340C01",
"-  c #390E00",
";  c #2F1002",
":  c #21170D",
">  c #331202",
",  c #3B1302",
"<  c #3D1903",
"1  c #33140B",
"2  c #3E1C0E",
"3  c #3F1608",
"4  c #251D15",
"5  c #3A1B12",
"6  c #360E10",
"7  c #2A2118",
"8  c #3A2616",
"9  c #2B2A27",
"0  c #312E27",
"q  c #3A362D",
"w  c #383228",
"e  c #383531",
"r  c #421502",
"t  c #441C04",
"y  c #491D03",
"u  c #4C1609",
"i  c #431D0A",
"p  c #431209",
"a  c #551B0C",
"s  c #481915",
"d  c #5B1B11",
"f  c #551C14",
"g  c #462005",
"h  c #4B2305",
"j  c #46200B",
"k  c #4C240A",
"l  c #512605",
"z  c #552A05",
"x  c #592D06",
"c  c #502509",
"v  c #542A0B",
"b  c #5A2D09",
"n  c #5E310B",
"m  c #492516",
"M  c #512A13",
"N  c #56251D",
"B  c #522D1B",
"V  c #5B2A17",
"C  c #5C3113",
"Z  c #5B341C",
"A  c #49311F",
"S  c #622C0D",
"D  c #63340C",
"F  c #69390F",
"G  c #63221B",
"H  c #6C231A",
"J  c #64281F",
"K  c #742A1C",
"L  c #643611",
"P  c #6A3A10",
"I  c #6D3C12",
"U  c #6A3A12",
"Y  c #66391A",
"T  c #753F16",
"R  c #422723",
"E  c #463326",
"W  c #573A27",
"Q  c #433D33",
"!  c #5A3A36",
"~  c #6F2921",
"^  c #7B2C22",
"/  c #732521",
"(  c #653929",
")  c #76372A",
"_  c #754216",
"`  c #78421E",
"'  c #4E4336",
"]  c #5E4231",
"[  c #53493D",
"{  c #5F4429",
"}  c #6B4223",
"|  c #65482D",
" . c #724527",
".. c #74492A",
"X. c #684935",
"o. c #64523D",
"O. c #7C4D35",
"+. c #544D41",
"@. c #5E4E40",
"#. c #575044",
"$. c #585858",
"%. c #6C5B4B",
"&. c #7C5B43",
"*. c #75524C",
"=. c #675E51",
"-. c #724D4F",
";. c #766B5B",
":. c #746550",
">. c #756D63",
",. c #832D25",
"<. c #8A3426",
"1. c #8B3829",
"2. c #95362E",
"3. c #99362F",
"4. c #94392B",
"5. c #9C3A2F",
"6. c #913B26",
"7. c #9D3A30",
"8. c #A43D32",
"9. c #884B29",
"0. c #9B4936",
"q. c #8B5935",
"w. c #92522C",
"e. c #A34334",
"r. c #AC4436",
"t. c #AA4A3B",
"y. c #B24636",
"u. c #B34937",
"i. c #B54A39",
"p. c #BA4D3B",
"a. c #B14738",
"s. c #AA5639",
"d. c #B65634",
"f. c #B5543E",
"g. c #B9523D",
"h. c #8A623D",
"j. c #95643D",
"k. c #A5683C",
"l. c #8C5847",
"z. c #BD5B46",
"x. c #B65442",
"c. c #AF5542",
"v. c #8A6649",
"b. c #996D42",
"n. c #8D7254",
"m. c #997451",
"M. c #816F5D",
"N. c #A9794C",
"B. c #BB7547",
"V. c #A47C55",
"C. c #A26C46",
"Z. c #825C60",
"A. c #847864",
"S. c #927B66",
"D. c #997966",
"F. c #8E6B6D",
"G. c #AE7C64",
"H. c #C15B48",
"J. c #C3784C",
"K. c #C26D4C",
"L. c #AA835A",
"P. c #AC895F",
"I. c #B48457",
"U. c #96846B",
"Y. c #988A76",
"T. c #B1896B",
"R. c #BA9267",
"E. c #AA8C74",
"W. c #A99479",
"Q. c #AF916D",
"!. c #D18C59",
"~. c #C98F76",
"^. c #CA9878",
"/. c #CA8664",
"(. c #CDA379",
"). c #D8AB78",
"_. c #A37B89",
"`. c #9A9B9A",
"'. c #AB9B83",
"]. c #AF8F8E",
"[. c #BBA68C",
"{. c #BAA285",
"}. c #B0A293",
"|. c #BA90A3",
" X c #D89D82",
".X c #C09E81",
"XX c #C6AA89",
"oX c #D9B58A",
"OX c #C3AF95",
"+X c #C3B397",
"@X c #CCB495",
"#X c #C8B79B",
"$X c #D4BC9B",
"%X c #DBBE96",
"&X c #D3AC84",
"*X c #C099A2",
"=X c #D6B3B4",
"-X c #CAB3A4",
";X c #DBC09C",
":X c #E3C59C",
">X c #E6C08F",
",X c #D5C5A6",
"<X c #DCC3A4",
"1X c #DFCAA8",
"2X c #D2C4B6",
"3X c #E2CEAD",
"4X c #E8CEA9",
"5X c #EAD2AC",
"6X c #E3D0AF",
"7X c #E3C7B6",
"8X c #E6D3B3",
"9X c #EAD6B4",
"0X c #EBD8B7",
"qX c #EDDAB9",
"wX c #EDD7BD",
"eX c #F0DDBB",
"rX c #D8ACC1",
"tX c #E4BDC8",
"yX c #EAC5CB",
"uX c #EFD3C4",
"iX c #FF00FF",
"pX c black",
/* pixels */
"iXiXiXiXiXiXiXiXiXiXiXiXiXiXiXiXiXiXiXiXiXiXiXiXiXiXiXiXiXiXiXiXiXiXiXiXiXiXiXiXiXiXiXiXiXiXiXiXiXiXiXiXiXiXiXiXiXiXiXiXiXiXiXiX",
"iXiXiXiXiXiXiXiXiXiXiXiXiXiXiXiXiXiXiXiXiXiXiXiXiXiXiXiXiXiXiXiXiXiXiXiXiXiXiXiXiXiXiXiXiXiXiXiXiXiXiXiXiXiXiXiXiXiXiXiXiXiXiXiX",
"iXiXiXiXiXiXiXiXiXiXiXiXiXiXiXiXiXiXiXiXiXiXiXiXiXiXiXiXiXiXiXiXiXiXiXiXiXiXiXiXiXiXiXiXiXiXiXiXiXiXiXiXiXiXiXiXiXiXiXiXiXiXiXiX",
"iXiXiXiXiXiXiXiXiXiXiXiXiXiXiXiXiXiXiXiXiXiXiXiXiXiXiXiXiXiXiXiXiXiXiXiXiXiXiXiXiXiXiXiXiXiXiXiXiXiXiXiXiXiXiXiXiXiXiXiXiXiXiXiX",
"iXiXiXiXiXiXiXiXiXiXiXiXiXiXiXiXiXiXiXiXiXiXiXiXiXiXiXiXiXiXiXiXiXiXiXiXiXiXiXiXiXiXiXiXiXiXiXiXiXiXiXiXiXiXiXiXiXiXiXiXiXiXiXiX",
"iXiXiXiXiXiXiXiXiXiXiXiXiXiXiXiXiXiXiXiXiXiXiXiXiXiXiXiXiXiXiXiXiXiXiXiXiXiXiXiXiXiXiXiXiXiXiXiXiXiXiXiXiXiXiXiXiXiXiXiXiXiXiXiX",
"iXiXiXiXiXiXiXiXiXiXiXiXiXiXiXiXiXiXiXiXiXiXiXiXiXiXiXiXiXiXiXiXiXiXiXiXiXiXiXiXiXiXiXiXiXiXiXiXiXiXiXiXiXiXiXiXiXiXiXiXiXiXiXiX",
"iXiXiXiXiXiXiXiXiXiXiXiXiXiXiXiXiXiXiXiXiXiXiXiXiXiXiXiXiXiXiXiXiXiXiXiXiXiXiXiXiXiXiXiXiXiXiXiXiXiXiXiXiXiXiXiXiXiXiXiXiXiXiXiX",
"iXiXiXiXiXiXiXiXiXiXiXiXiXiXiXiXiXiXiXiXiXiXiXiXiXiXiXiXiXiXiXiXiXiXiXiXiXiXiXiXiXiXiXiXiXiXiXiXiXiXiXiXiXiXiXiXiXiXiXiXiXiXiXiX",
"iXiXiXiXiXiXiXiXiXiXiXiXiXiXiXiXiXiXiXiXiXiXiXiXiXiXiXiXiXiXiXiXiXiXiXiXiXiXiXiXiXiXiXiXiXiXiXiXiXiXiXiXiXiXiXiXiXiXiXiXiXiXiXiX",
"iXiXiXiXiXiXiXiXiXiXiXiXiXiXiXiXiXiXiXiXiXiXiXiX& ; ; > > ; iXiX& > ; ; ; ; & iXiXiXiXiXiXiXiXiXiXiXiXiXiXiXiXiXiXiXiXiXiXiXiXiX",
"iXiXiXiXiXiXiXiXiXiXiXiXiXiXiXiXiXiXiXiXiX% % > t g g y y t , > t y y y g y , & % iXiXiXiXiXiXiXiXiXiXiXiXiXiXiXiXiXiXiXiXiXiXiX",
"iXiXiXiXiXiXiXiXiXiXiXiXiXiXiXiXiXiXiXiX& , t k v n n c h l k k l h h b D x k i < > iXiXiXiXiXiXiXiXiXiXiXiXiXiXiXiXiXiXiXiXiXiX",
"iXiXiXiXiXiXiXiXiXiXiXiXiXiXiXiXiXiXiX& < c L L n F U k t l D L b g i C U D D L b t > iXiXiXiXiXiXiXiXiXiXiXiXiXiXiXiXiXiXiXiXiX",
"iXiXiXiXiXiXiXiXiXiXiXiXiXiXiXiXiXiX& < c L I F n D F C k y v b h k b L D b D U I b t > iXiXiXiXiXiXiXiXiXiXiXiXiXiXiXiXiXiXiXiX",
"iXiXiXiXiXiXiXiXiXiXiXiXiXiXiXiXiX& , h F _ U b x n D L v t h h t k L L D x x D _ I l < > iXiXiXiXiXiXiXiXiXiXiXiXiXiXiXiXiXiXiX",
"iXiXiXiXiXiXiXiXiXiXiXiXiXiXiXiX& , h z F _ U x x F U v i h l z h y k L U b x D _ I b h t ; iXiXiXiXiXiXiXiXiXiXiXiXiXiXiXiXiXiX",
"iXiXiXiXiXiXiXiXiXiXiXiXiXiXiXiX& < l x n U I F n D D k g l x x z h g n F n D U I F x z g > iXiXiXiXiXiXiXiXiXiXiXiXiXiXiXiXiXiX",
"iXiXiXiXiXiXiXiXiXiXiXiXiXiXiXiX& < z b b b L I D x x z z z x x x z z x x b F U n b n x g > iXiXiXiXiXiXiXiXiXiXiXiXiXiXiXiXiXiX",
"iXiXiXiXiXiXiXiXiXiXiXiXiXiXiXiX% < b F n y k n x z z z z z z z x x x z z x n b y c U D g ; iXiXiXiXiXiXiXiXiXiXiXiXiXiXiXiXiXiX",
"iXiXiXiXiXiXiXiXiXiXiXiXiXiXiXiX% < b F b , , y g h l h h l h h l h h l l g y r > k F D g ; iXiXiXiXiXiXiXiXiXiXiXiXiXiXiXiXiXiX",
"iXiXiXiXiXiXiXiXiXiXiXiXiXiXiXiX& < l b h = = , < g h j j h g i h h i h h i , - & < z x g ; iXiXiXiXiXiXiXiXiXiXiXiXiXiXiXiXiXiX",
"iXiXiXiXiXiXiXiXiXiXiXiXiXiXiXiX& < h y , = & i } Y M } } M Y } M Z  .C C  .B = & > < h y > iXiXiXiXiXiXiXiXiXiXiXiXiXiXiXiXiXiX",
"iXiXiXiXiXiXiXiXiXiXiXiXiXiXiXiX> t l h , > i ..V.m.&.V.V.&.m.L.&.v.L.v.v.L.h.M , , t h h , & iXiXiXiXiXiXiXiXiXiXiXiXiXiXiXiXiX",
"iXiXiXiXiXiXiXiXiXiXiXiXiXiXiX> y l b n k i  .P.oX$X@X$X$XOX$X%X@X@X;X@X@X%X^.h.m i n n z h , & iXiXiXiXiXiXiXiXiXiXiXiXiXiXiXiX",
"iXiXiXiXiXiXiXiXiXiXiXiXiXiX% > h D F n i 2 v.oX5XqXqXqX0X0X0X0X0X0XqXqXqX9X:XT.W , v L F z < & iXiXiXiXiXiXiXiXiXiXiXiXiXiXiXiX",
"iXiXiXiXiXiXiXiXiXiXiXiXiXiX% > h D U C 2 8 S.1X0X3X<X3X0XqXqX0XqXqX8X<X<X9X9X{.W 1 M Y U x < % iXiXiXiXiXiXiXiXiXiXiXiXiXiXiXiX",
"iXiXiXiXiXiXiXiXiXiXiXiXiXiX% > h l C ..} A S.3X8X.XG.XX9X0X0X0X0XqX<XT.T.<XqX[.] Z O.Y v l < & iXiXiXiXiXiXiXiXiXiXiXiXiXiXiXiX",
"iXiXiXiXiXiXiXiXiXiXiXiXiXiX% > h h C q.q.W S.3X3XD.X.E.8XqX0X0XqXqX@X&.&.@XqX[.] } k.` h h < & iXiXiXiXiXiXiXiXiXiXiXiXiXiXiXiX",
"iXiXiXiXiXiXiXiXiXiXiXiXiXiX% > h l D 9.` B S.8X3XA.E Y.8XqX0X0XqXeX+X@.@.+XqX[.] Y w.T z l < & iXiXiXiXiXiXiXiXiXiXiXiXiXiXiXiX",
"iXiXiXiXiXiXiXiXiXiXiXiXiXiX% > h x b S c m S.8X3XA.Q Y.8XqX0X0XqXeX+X#.#.+XeX[.W i S S x l < & iXiXiXiXiXiXiXiXiXiXiXiXiXiXiXiX",
"iXiXiXiXiXiXiXiXiXiXiXiXiXiX% > h z l y - 5 D.7X7XY.=.'.8XqX0X0XqXqX#X;.>.-XuX[.! = r h z l < & iXiXiXiXiXiXiXiXiXiXiXiXiXiXiXiX",
"iXiXiXiXiXiXiXiXiXiXiXiXiXiX% > h g r r , s F.=XyX=XOX,X9X0X0X0X0XqX3X#X-XtXtX].! , r r y h < & iXiXiXiXiXiXiXiXiXiXiXiXiXiXiXiX",
"iXiXiXiXiXiXiXiXiXiXiXiXiXiXiX> < , , r r j -._.rXyXwX0X0X0X9X9X9X0X0XqXuXtX|.Z.B t r , , < , iXiXiXiXiXiXiXiXiXiXiXiXiXiXiXiXiX",
"iXiXiXiXiXiXiXiXiXiXiXiXiXiXiXiX& = - - r h j ! ].=X4X5X5X9X0X0X0X9X5X4X7X*X-.m h y , - = & & iXiXiXiXiXiXiXiXiXiXiXiXiXiXiXiXiX",
"iXiXiXiXiXiXiXiXiXiXiXiXiXiXiXiX% & = - r h , 5 ! D.(.).%X4X9X9X9X:XoX).T.*.R > g y - = = % iXiXiXiXiXiXiXiXiXiXiXiXiXiXiXiXiXiX",
"iXiXiXiXiXiXiXiXiXiXiXiXiXiXiXiX% & = - , r , & 1 Z q.b.L.(.oXoX&XR.b.j. .2 % = r r - = & % iXiXiXiXiXiXiXiXiXiXiXiXiXiXiXiXiXiX",
"iXiXiXiXiXiXiXiXiXiXiXiXiXiXiXiXiX% & - - , - - - 3 m M  .k.B.J.B.q.V m i - - - , , - & % iXiXiXiXiXiXiXiXiXiXiXiXiXiXiXiXiXiXiX",
"iXiXiXiXiXiXiXiXiXiXiXiXiXiXiXiXiXiX& , r , r r , u G K 6.s.d.d.d.0.^ H a r r r , , r > % iXiXiXiXiXiXiXiXiXiXiXiXiXiXiXiXiXiXiX",
"iXiXiXiXiXiXiXiXiXiXiXiXiXiXiXiXiXiX& < r , r y r d ^ 5.r.p.p.p.p.u.r.5.K u r r , r r , iXiXiXiXiXiXiXiXiXiXiXiXiXiXiXiXiXiXiXiX",
"iXiXiXiXiXiXiXiXiXiXiXiXiXiXiXiXiXiXiX> > - , r y u d <.r.p.p.p.p.a.r.r.6.S r , - - > iXiXiXiXiXiXiXiXiXiXiXiXiXiXiXiXiXiXiXiXiX",
"iXiXiXiXiXiXiXiXiXiXiXiXiXiXiXiXiXiXiXiX& = % % , , u ,.r.p.p.p.p.u.r.e.4.K u = % @ % iXiXiXiXiXiXiXiXiXiXiXiXiXiXiXiXiXiXiXiXiX",
"iXiXiXiXiXiXiXiXiXiXiXiXiXiXiXiXiXiXiXiXiXiX@ & p r u <.i.p.p.p.p.p.i.e.5.,.d = @ O iXiXiXiXiXiXiXiXiXiXiXiXiXiXiXiXiXiXiXiXiXiX",
"iXiXiXiXiXiXiXiXiXiXiXiXiXiXiXiXiXiXiXiXiXO s G H d a 1.p.p.p.p.p.p.p.u.r.7.H p s 6 . iXiXiXiXiXiXiXiXiXiXiXiXiXiXiXiXiXiXiXiXiX",
"iXiXiXiXiXiXiXiXiXiXiXiXiXiXiXiXiXiXiXiXiXO f ,./ G K 4.r.a.r.r.r.a.a.i.p.u.,.H / s O iXiXiXiXiXiXiXiXiXiXiXiXiXiXiXiXiXiXiXiXiX",
"iXiXiXiXiXiXiXiXiXiXiXiXiXiXiXiXiXiXiXiXiX* G ^ f N 4.8.8.8.8.8.8.8.8.r.i.i.8.3.2.N O iXiXiXiXiXiXiXiXiXiXiXiXiXiXiXiXiXiXiXiXiX",
"iXiXiXiXiXiXiXiXiXiXiXiXiXiXiXiXiXiXiXiX1 J 1.4.~ / 3.e.r.r.r.r.r.r.e.8.8.a.e.t.s.( + iXiXiXiXiXiXiXiXiXiXiXiXiXiXiXiXiXiXiXiXiX",
"iXiXiXiXiXiXiXiXiXiXiXiXiXiXiXiXiXiXiX. m 0.z.f.e.3.2.8.r.i.p.p.p.u.8.3.8.u.i.s.j.{ # iXiXiXiXiXiXiXiXiXiXiXiXiXiXiXiXiXiXiXiXiX",
"iXiXiXiXiXiXiXiXiXiXiXiXiXiXiXiXiXiXiX. A N.!.J.f.r.8.3.8.u.p.p.p.e.3.8.a.g.K.C.W 7 iXiXiXiXiXiXiXiXiXiXiXiXiXiXiXiXiXiXiXiXiXiX",
"iXiXiXiXiXiXiXiXiXiXiXiXiXiXiXiXiXiXiXX ' R.).I.9.1.r.8.8.i.p.p.p.e.8.r.u.f./.P.w . iXiXiXiXiXiXiXiXiXiXiXiXiXiXiXiXiXiXiXiXiXiX",
"iXiXiXiXiXiXiXiXiXiXiXiXiXiXiXiXiXiXiXo [ XX>XL.E N e.i.i.p.p.p.p.p.i.i.r.t.G.U.q iXiXiXiXiXiXiXiXiXiXiXiXiXiXiXiXiXiXiXiXiXiXiX",
"iXiXiXiXiXiXiXiXiXiXiXiXiXiXiXiXiXiXiXo +.OX4XW.E s 5.i.p.p.p.p.p.p.i.r.e.e.O.' iXiXiXiXiXiXiXiXiXiXiXiXiXiXiXiXiXiXiXiXiXiXiXiX",
"iXiXiXiXiXiXiXiXiXiXiXiXiXiXiXiXiXiXiX. w >.Y.M.W ~ 5.u.p.p.p.p.p.p.u.r.y.e.N + iXiXiXiXiXiXiXiXiXiXiXiXiXiXiXiXiXiXiXiXiXiXiXiX",
"iXiXiXiXiXiXiXiXiXiXiXiXiXiXiXiXiXiXiX  o 4 9 R ) 0.x.z.z.z.f.r.r.i.z.z.H.c.( 4 iXiXiXiXiXiXiXiXiXiXiXiXiXiXiXiXiXiXiXiXiXiXiXiX",
"iXiXiXiXiXiXiXiXiXiXiXiXiXiXiXiXiXiXiXiXiXiXiX* N l.~. X X~.l.N N l.~. X X^.E.;.0 iXiXiXiXiXiXiXiXiXiXiXiXiXiXiXiXiXiXiXiXiXiXiX",
"iXiXiXiXiXiXiXiXiXiXiXiXiXiXiXiXiXiXiXiXiXiXiXiX$ %.$X9X<XW.[ + # %.XXXX'.'.'.A.w iXiXiXiXiXiXiXiXiXiXiXiXiXiXiXiXiXiXiXiXiXiXiX",
"iXiXiXiXiXiXiXiXiXiXiXiXiXiXiXiXiXiXiXiXiXiXiXiX# =.,XqX}.+.$   X X.P.:.Q q q q iXiXiXiXiXiXiXiXiXiXiXiXiXiXiXiXiXiXiXiXiXiXiXiX",
"iXiXiXiXiXiXiXiXiXiXiXiXiXiXiXiXiXiXiXiXiXiXiXiX# =.,X0XY.9     X | N.h.8 + . iXiXiXiXiXiXiXiXiXiXiXiXiXiXiXiXiXiXiXiXiXiXiXiXiX",
"iXiXiXiXiXiXiXiXiXiXiXiXiXiXiXiXiXiXiXiXiXiXiXiX# =.,X5XU.7   iXX W N.R.n.Q $ iXiXiXiXiXiXiXiXiXiXiXiXiXiXiXiXiXiXiXiXiXiXiXiXiX",
"iXiXiXiXiXiXiXiXiXiXiXiXiXiXiXiXiXiXiXiXiXiXiXiX$ :.$X%Xn.4 iXiXiX7 o.{.2X`.$.iXiXiXiXiXiXiXiXiXiXiXiXiXiXiXiXiXiXiXiXiXiXiXiXiX",
"iXiXiXiXiXiXiXiXiXiXiXiXiXiXiXiXiXiXiXiXiXiXiXiX+.U.XXP.| : iXiXiXiX7 >.`.`.$.# iXiXiXiXiXiXiXiXiXiXiXiXiXiXiXiXiXiXiXiXiXiXiXiX",
"iXiXiXiXiXiXiXiXiXiXiXiXiXiXiXiXiXiXiXiXiXiXiX0 A.W.L.| 4 iXiXiXiXiX. $ 0 e 9 iXiXiXiXiXiXiXiXiXiXiXiXiXiXiXiXiXiXiXiXiXiXiXiXiX",
"iXiXiXiXiXiXiXiXiXiXiXiXiXiXiXiXiXiXiXiXiXiX  $ ' o.W 8 iXiXiXiXiXiXiXiXiXiXiXiXiXiXiXiXiXiXiXiXiXiXiXiXiXiXiXiXiXiXiXiXiXiXiXiX",
"iXiXiXiXiXiXiXiXiXiXiXiXiXiXiXiXiXiXiXiXiXiX    o o X iXiXiXiXiXiXiXiXiXiXiXiXiXiXiXiXiXiXiXiXiXiXiXiXiXiXiXiXiXiXiXiXiXiXiXiXiX"
};
