/* XPM */
static const char *player_0_1[] = {
/* columns rows colors chars-per-pixel */
"64 64 189 2 ",
"   c #020101",
".  c #0A0302",
"X  c #0D0906",
"o  c #0E0C0A",
"O  c #140401",
"+  c #1A0602",
"@  c #140C05",
"#  c #1A0A03",
"$  c #1F0708",
"%  c #100E0B",
"&  c #13110E",
"*  c #1F150C",
"=  c #260902",
"-  c #2C0B01",
";  c #340C01",
":  c #390D01",
">  c #350E09",
",  c #3C0F0A",
"<  c #2F1002",
"1  c #2D110C",
"2  c #21180E",
"3  c #331203",
"4  c #3C1302",
"5  c #3D1903",
"6  c #3C140A",
"7  c #3D1909",
"8  c #341A0C",
"9  c #370E10",
"0  c #3D0F10",
"q  c #241C12",
"w  c #281D11",
"e  c #251F18",
"r  c #361A14",
"t  c #3F1D14",
"y  c #3C1411",
"u  c #2C2115",
"i  c #3E2816",
"p  c #3C261B",
"a  c #342E24",
"s  c #383025",
"d  c #38352C",
"f  c #36322B",
"g  c #3E3931",
"h  c #421502",
"j  c #451A03",
"k  c #4A1D04",
"l  c #4D1E08",
"z  c #43170B",
"x  c #431111",
"c  c #4B1413",
"v  c #4B1A12",
"b  c #5D1F18",
"n  c #591A14",
"m  c #671F1C",
"M  c #4D2204",
"N  c #4C230A",
"B  c #462004",
"V  c #512504",
"C  c #562A05",
"Z  c #592C06",
"A  c #54250B",
"S  c #552B0D",
"D  c #5C2E09",
"F  c #5B2D0A",
"G  c #5E3109",
"H  c #5E3009",
"J  c #4B2A14",
"K  c #572D10",
"L  c #592E11",
"P  c #59241A",
"I  c #5E3010",
"U  c #5B341A",
"Y  c #61330B",
"T  c #63330B",
"R  c #63340B",
"E  c #62320E",
"W  c #63350E",
"Q  c #65350D",
"!  c #64350D",
"~  c #69390F",
"^  c #69390F",
"/  c #612F10",
"(  c #62291C",
")  c #643312",
"_  c #693713",
"`  c #6B3A10",
"'  c #6A3911",
"]  c #6F3D13",
"[  c #6D3C12",
"{  c #6F3D15",
"}  c #6D3B13",
"|  c #64391A",
" . c #713E15",
".. c #713E15",
"X. c #4B3621",
"o. c #553E26",
"O. c #433E35",
"+. c #523E30",
"@. c #6E2021",
"#. c #7E2726",
"$. c #732E25",
"%. c #7D2D24",
"&. c #633921",
"*. c #724014",
"=. c #754216",
"-. c #754216",
";. c #784417",
":. c #754218",
">. c #79451A",
",. c #7E491B",
"<. c #5F452A",
"1. c #4C473C",
"2. c #504A3F",
"3. c #5E4C36",
"4. c #6F432C",
"5. c #7E4024",
"6. c #795836",
"7. c #544E42",
"8. c #5E5749",
"9. c #575145",
"0. c #6C5D4A",
"q. c #615646",
"w. c #79594A",
"e. c #685F51",
"r. c #7F6345",
"t. c #6B6253",
"y. c #7F7665",
"u. c #812726",
"i. c #862B29",
"p. c #883227",
"a. c #833328",
"s. c #8B392A",
"d. c #873726",
"f. c #94352D",
"g. c #913B2C",
"h. c #9F3830",
"j. c #A33B31",
"k. c #A83F34",
"l. c #814A1D",
"z. c #814B1D",
"x. c #8C4228",
"c. c #9B4434",
"v. c #9C4A3C",
"b. c #855336",
"n. c #A1542E",
"m. c #A34331",
"M. c #AB4235",
"N. c #A54F3C",
"B. c #B14637",
"V. c #B54A39",
"C. c #B94D3A",
"Z. c #AC5636",
"A. c #B45037",
"S. c #BA5539",
"D. c #83603B",
"F. c #99633E",
"G. c #AD5B4D",
"H. c #8C6741",
"J. c #936A44",
"K. c #9D7348",
"L. c #846252",
"P. c #AE7F4E",
"I. c #A57949",
"U. c #B97A4D",
"Y. c #B46252",
"T. c #BA6552",
"R. c #AF804E",
"E. c #A78156",
"W. c #8F826D",
"Q. c #AA8C68",
"!. c #B69065",
"~. c #A28E72",
"^. c #CAA47B",
"/. c #A69881",
"(. c #B7A88E",
"). c #B5A68D",
"_. c #C6AF8C",
"`. c #C8A289",
"'. c #D0A88D",
"]. c #C7B79B",
"[. c #DEB69A",
"{. c #D1B794",
"}. c #DCC7A5",
"|. c #D6C5A8",
" X c #D8C7A9",
".X c #E2D1B0",
"XX c #F1DEBC",
"oX c #FF00FF",
"OX c black",
/* pixels */
"oXoXoXoXoXoXoXoXoXoXoXoXoXoXoXoXoXoXoXoXoXoXoXoXoXoXoXoXoXoXoXoXoXoXoXoXoXoXoXoXoXoXoXoXoXoXoXoXoXoXoXoXoXoXoXoXoXoXoXoXoXoXoXoX",
"oXoXoXoXoXoXoXoXoXoXoXoXoXoXoXoXoXoXoXoXoXoXoXoXoXoXoXoXoXoXoXoXoXoXoXoXoXoXoXoXoXoXoXoXoXoXoXoXoXoXoXoXoXoXoXoXoXoXoXoXoXoXoXoX",
"oXoXoXoXoXoXoXoXoXoXoXoXoXoXoXoXoXoXoXoXoXoXoXoXoXoXoXoXoXoXoXoXoXoXoXoXoXoXoXoXoXoXoXoXoXoXoXoXoXoXoXoXoXoXoXoXoXoXoXoXoXoXoXoX",
"oXoXoXoXoXoXoXoXoXoXoXoXoXoXoXoXoXoXoXoXoXoXoXoXoXoXoXoXoXoXoXoXoXoXoXoXoXoXoXoXoXoXoXoXoXoXoXoXoXoXoXoXoXoXoXoXoXoXoXoXoXoXoXoX",
"oXoXoXoXoXoXoXoXoXoXoXoXoXoXoXoXoXoXoXoXoXoXoXoXoXoXoXoXoXoXoXoXoXoXoXoXoXoXoXoXoXoXoXoXoXoXoXoXoXoXoXoXoXoXoXoXoXoXoXoXoXoXoXoX",
"oXoXoXoXoXoXoXoXoXoXoXoXoXoXoXoXoXoXoXoXoXoXoXoXoXoXoXoXoXoXoXoXoXoXoXoXoXoXoXoXoXoXoXoXoXoXoXoXoXoXoXoXoXoXoXoXoXoXoXoXoXoXoXoX",
"oXoXoXoXoXoXoXoXoXoXoXoXoXoXoXoXoXoXoXoXoXoXoXoXoXoXoXoXoXoXoXoXoXoXoXoXoXoXoXoXoXoXoXoXoXoXoXoXoXoXoXoXoXoXoXoXoXoXoXoXoXoXoXoX",
"oXoXoXoXoXoXoXoXoXoXoXoXoXoXoXoXoXoXoXoXoXoXoXoXoXoXoXoXoXoXoXoXoXoXoXoXoXoXoXoXoXoXoXoXoXoXoXoXoXoXoXoXoXoXoXoXoXoXoXoXoXoXoXoX",
"oXoXoXoXoXoXoXoXoXoXoXoXoXoXoXoXoXoXoXoXoXoXoXoXoXoXoXoXoXoXoXoXoXoXoXoXoXoXoXoXoXoXoXoXoXoXoXoXoXoXoXoXoXoXoXoXoXoXoXoXoXoXoXoX",
"oXoXoXoXoXoXoXoXoXoXoXoXoXoXoXoXoXoXoXoXoXoXoXoXoXoXoXoXoXoXoXoXoXoXoXoXoXoXoXoXoXoXoXoXoXoXoXoXoXoXoXoXoXoXoXoXoXoXoXoXoXoXoXoX",
"oXoXoXoXoXoXoXoXoXoXoXoXoXoXoXoXoXoXoXoXoXoXoXoXoXoXoXoXoXoXoXoXoXoXoXoXoXoXoXoXoXoXoXoXoXoXoXoXoXoXoXoXoXoXoXoXoXoXoXoXoXoXoXoX",
"oXoXoXoXoXoXoXoXoXoXoXoXoXoXoXoXoXoXoXoXoXoXoXoXoXoXoXoXoXoXoXoXoXoXoXoXoXoXoXoXoXoXoXoXoXoXoXoXoXoXoXoXoXoXoXoXoXoXoXoXoXoXoXoX",
"oXoXoXoXoXoXoXoXoXoXoXoXoXoXoXoXoXoXoXoXoXoXoXoXoXoXoXoXoXoXoXoXoXoXoXoXoXoXoXoXoXoXoXoXoXoXoXoXoXoXoXoXoXoXoXoXoXoXoXoXoXoXoXoX",
"oXoXoXoXoXoXoXoXoXoXoXoXoXoXoXoXoXoXoXoXoXoXoXoX= - 3 3 3 3 oXoX3 3 3 3 - = oXoXoXoXoXoXoXoXoXoXoXoXoXoXoXoXoXoXoXoXoXoXoXoXoXoX",
"oXoXoXoXoXoXoXoXoXoXoXoXoXoXoXoXoXoXoXoXoXoX= = ; z S L L S z 7 A L L L N 3 = = = oXoXoXoXoXoXoXoXoXoXoXoXoXoXoXoXoXoXoXoXoXoXoX",
"oXoXoXoXoXoXoXoXoXoXoXoXoXoXoXoXoXoXoXoXoX= - 3 5 A } } _ ) A N I _ _ { E j 3 3 - = oXoXoXoXoXoXoXoXoXoXoXoXoXoXoXoXoXoXoXoXoXoX",
"oXoXoXoXoXoXoXoXoXoXoXoXoXoXoXoXoXoXoX= - : h M V Z F A l N F ) A l A Z D V M k 4 ; = oXoXoXoXoXoXoXoXoXoXoXoXoXoXoXoXoXoXoXoXoX",
"oXoXoXoXoXoXoXoXoXoXoXoXoXoXoXoXoXoXoX3 5 j V C C V k j j k F E V j j k M C Z V k h 5 3 oXoXoXoXoXoXoXoXoXoXoXoXoXoXoXoXoXoXoXoX",
"oXoXoXoXoXoXoXoXoXoXoXoXoXoXoXoXoX- 3 M C C C Z C M j k M V Z Z C V M j k V Z C C Z V 5 - oXoXoXoXoXoXoXoXoXoXoXoXoXoXoXoXoXoXoX",
"oXoXoXoXoXoXoXoXoXoXoXoXoXoXoXoX= 3 M W ~ G Z Z C V k j k C Z Z C M j k V C Z Z Z ! ` S 5 - oXoXoXoXoXoXoXoXoXoXoXoXoXoXoXoXoXoX",
"oXoXoXoXoXoXoXoXoXoXoXoXoXoXoXoX- j W ;.*.Y G Y D Z V h k F G Z C k h M C Z G Y G ` >.] A 3 oXoXoXoXoXoXoXoXoXoXoXoXoXoXoXoXoXoX",
"oXoXoXoXoXoXoXoXoXoXoXoXoXoXoXoX- N :.z.*.W ` ..Y Z V h N ` ~ D Z k h k C F ` ] W ` ,.,.I 3 oXoXoXoXoXoXoXoXoXoXoXoXoXoXoXoXoXoX",
"oXoXoXoXoXoXoXoXoXoXoXoXoXoXoXoX- N >.z.*.W ] -.R Z V j A  .` Y ! A h k C F ] -.! ` ,.z.) 3 oXoXoXoXoXoXoXoXoXoXoXoXoXoXoXoXoXoX",
"oXoXoXoXoXoXoXoXoXoXoXoXoXoXoXoX- N { ;.` Y ~ ] Y Z V j A  .` Y ! S k M C Z ~ ] Y ! -.-.F 3 oXoXoXoXoXoXoXoXoXoXoXoXoXoXoXoXoXoX",
"oXoXoXoXoXoXoXoXoXoXoXoXoXoXoXoX- j F Y G Z G G Z Z V h A { ~ C l l V C C Z G G Z F Y Y N 3 oXoXoXoXoXoXoXoXoXoXoXoXoXoXoXoXoXoX",
"oXoXoXoXoXoXoXoXoXoXoXoXoXoXoXoX= 5 V Z Z C Z Z Z Z V h k E R V h j C Z Z C Z Z Z Z Z C B < oXoXoXoXoXoXoXoXoXoXoXoXoXoXoXoXoXoX",
"oXoXoXoXoXoXoXoXoXoXoXoXoXoXoXoX- 5 V Z Z Z Z Z Z Z V j j V Z V j k C Z Z Z Z Z Z C Z C k 3 = oXoXoXoXoXoXoXoXoXoXoXoXoXoXoXoXoX",
"oXoXoXoXoXoXoXoXoXoXoXoXoXoXoX= ; h V Z Z Z Z Z Z Z C V k j M V V V C Z Z Z Z Z Z C Z C M 3 - = oXoXoXoXoXoXoXoXoXoXoXoXoXoXoXoX",
"oXoXoXoXoXoXoXoXoXoXoXoXoXoX= = ; h M C C C C C C C Z C V j k M C C Z Z C C C C C Z C V j : - = oXoXoXoXoXoXoXoXoXoXoXoXoXoXoXoX",
"oXoXoXoXoXoXoXoXoXoXoXoXoXoX= - : : h M C Z Z F F Z Z Z C V j j V Z Z Z Z Z F Z Z Z V j 4 : ; = oXoXoXoXoXoXoXoXoXoXoXoXoXoXoXoX",
"oXoXoXoXoXoXoXoXoXoXoXoXoXoX= ; 5 h 4 M C Z ! ] ] ! Z C Z C j h M C C Z Y ` ] ~ G Z V h 4 h 3 = oXoXoXoXoXoXoXoXoXoXoXoXoXoXoXoX",
"oXoXoXoXoXoXoXoXoXoXoXoXoXoX= 3 M M j V G D E  .>.] F G G C j h V G G D ! -.:._ F F D l k M 5 - oXoXoXoXoXoXoXoXoXoXoXoXoXoXoXoX",
"oXoXoXoXoXoXoXoXoXoXoXoXoXoX= 3 M V C ! ` D M S  .] W ` } Z j h V ! ] ! ~ -.) A C ! } F V V 5 = oXoXoXoXoXoXoXoXoXoXoXoXoXoXoXoX",
"oXoXoXoXoXoXoXoXoXoXoXoXoXoX= - h V D ! ! Z j k } -. .-.} V 4 : k E ;.*.*.:.S h V Y ~ Y C k 3 = oXoXoXoXoXoXoXoXoXoXoXoXoXoXoXoX",
"oXoXoXoXoXoXoXoXoXoXoXoXoXoX= - : j V Z Z C j k } z.z.,._ j : ; 4 S >.z.z.>.A h M Z Z C k 4 - = oXoXoXoXoXoXoXoXoXoXoXoXoXoXoXoX",
"oXoXoXoXoXoXoXoXoXoXoXoXoXoX= = ; 4 j V C V j k } z.z.,.) h ; ; : A >.z.z.>.A h M Z C k 4 : - = oXoXoXoXoXoXoXoXoXoXoXoXoXoXoXoX",
"oXoXoXoXoXoXoXoXoXoXoXoXoXoX= = ; 4 j V V M M A ) }  .` A 4 ; ; : l ) >.>._ A k V V k 4 ; ; - = oXoXoXoXoXoXoXoXoXoXoXoXoXoXoXoX",
"oXoXoXoXoXoXoXoXoXoXoXoXoXoX= = : h M C M j A / A V C l h : ; ; : 4 A _ ) l k V V k 4 - = = = oXoXoXoXoXoXoXoXoXoXoXoXoXoXoXoXoX",
"oXoXoXoXoXoXoXoXoXoXoXoXoXoX= = ; 4 h M k h k A M j h 4 ; ; : ; : 4 k A k 4 k M j 4 : - = oXoXoXoXoXoXoXoXoXoXoXoXoXoXoXoXoXoXoX",
"oXoXoXoXoXoXoXoXoXoXoXoXoXoXoX= ; ; 5 M M j h j k h : ; : : : ; : 5 k j h h M M 5 3 ; - = oXoXoXoXoXoXoXoXoXoXoXoXoXoXoXoXoXoXoX",
"oXoXoXoXoXoXoXoXoXoXoXoXoXoXoXoX- 5 M C C V M k h : - ; : : : ; - : h k M V C C M 5 - = oXoXoXoXoXoXoXoXoXoXoXoXoXoXoXoXoXoXoXoX",
"oXoXoXoXoXoXoXoXoXoXoXoXoXoXoXoX- 5 V Z Z C V j 4 ; - - ; ; ; ; - 4 j V Z Z Z C M 5 = oXoXoXoXoXoXoXoXoXoXoXoXoXoXoXoXoXoXoXoXoX",
"oXoXoXoXoXoXoXoXoXoXoXoXoXoXoXoX- 5 M C C V j : ; ; ; - - ; - - 4 j V C V V V M 5 ; = oXoXoXoXoXoXoXoXoXoXoXoXoXoXoXoXoXoXoXoXoX",
"oXoXoXoXoXoXoXoXoXoXoXoXoXoXoXoXoX3 5 M M 5 : ; ; : ; - - ; - ; j V C k 5 5 5 4 ; = oXoXoXoXoXoXoXoXoXoXoXoXoXoXoXoXoXoXoXoXoXoX",
"oXoXoXoXoXoXoXoXoXoXoXoXoXoXoXoXoXoX3 5 5 - ; ; : : ; ; - - - 3 j M k 4 ; = - = + + oXoXoXoXoXoXoXoXoXoXoXoXoXoXoXoXoXoXoXoXoXoX",
"oXoXoXoXoXoXoXoXoXoXoXoXoXoXoXoXoXoXoX- - = ; ; ; ; ; ; ; > ; : 4 4 4 : ; = = = O . oXoXoXoXoXoXoXoXoXoXoXoXoXoXoXoXoXoXoXoXoXoX",
"oXoXoXoXoXoXoXoXoXoXoXoXoXoXoXoXoXoX= - - ; - - - ; ; ; , c x ; ; ; - - - ; ; = + .   oXoXoXoXoXoXoXoXoXoXoXoXoXoXoXoXoXoXoXoXoX",
"oXoXoXoXoXoXoXoXoXoXoXoXoXoXoXoXoXoX= ; ; ; = = 6 6 - = > c , = = = = > , : ; ; = O   oXoXoXoXoXoXoXoXoXoXoXoXoXoXoXoXoXoXoXoXoX",
"oXoXoXoXoXoXoXoXoXoXoXoXoXoXoXoXoXoX= ; ; = + 1 ( b > + + $ + + = + = c n , - : - +   oXoXoXoXoXoXoXoXoXoXoXoXoXoXoXoXoXoXoXoXoX",
"oXoXoXoXoXoXoXoXoXoXoXoXoXoXoXoXoXoX= - = # 8 ( g.p.b x 9 9 9 0 x x c @.m > = 7 U i X oXoXoXoXoXoXoXoXoXoXoXoXoXoXoXoXoXoXoXoXoX",
"oXoXoXoXoXoXoXoXoXoXoXoXoXoXoXoXoXoXoX= O + U n.A.M.f.i.#.#.#.#.u.u.i.f.%.v 7 &.K.r.s oXoXoXoXoXoXoXoXoXoXoXoXoXoXoXoXoXoXoXoXoX",
"oXoXoXoXoXoXoXoXoXoXoXoXoXoXoXoXoXoXoXoX. @ | Z.S.V.B.M.k.k.k.k.k.k.M.M.m.s.d.F.^._.W.O.oXoXoXoXoXoXoXoXoXoXoXoXoXoXoXoXoXoXoXoX",
"oXoXoXoXoXoXoXoXoXoXoXoXoXoXoXoXoXoXoXoXoX@ J 5.m.V.C.V.M.M.M.B.V.C.C.V.B.m.x.J.{.XX].7.o oXoXoXoXoXoXoXoXoXoXoXoXoXoXoXoXoXoXoX",
"oXoXoXoXoXoXoXoXoXoXoXoXoXoXoXoXoXoXoXoXoXoX# t a.M.B.M.j.k.k.M.V.C.V.M.k.f.P +./. X).2.o oXoXoXoXoXoXoXoXoXoXoXoXoXoXoXoXoXoXoX",
"oXoXoXoXoXoXoXoXoXoXoXoXoXoXoXoXoXoXoXoXoXoX  1 a.M.M.j.j.M.M.B.V.V.M.j.h.p.v q 1.e.8.d oXoXoXoXoXoXoXoXoXoXoXoXoXoXoXoXoXoXoXoX",
"oXoXoXoXoXoXoXoXoXoXoXoXoXoXoXoXoXoXoXoXoXoXoX1 $.v.G.Y.T.T.N.s.s.c.N.N.c.$.y X o & & oXoXoXoXoXoXoXoXoXoXoXoXoXoXoXoXoXoXoXoXoX",
"oXoXoXoXoXoXoXoXoXoXoXoXoXoXoXoXoXoXoXoXoXoXoXoXr w.`.[.[.'.L.p r 4.U.U.b.t + oXoXoXoXoXoXoXoXoXoXoXoXoXoXoXoXoXoXoXoXoXoXoXoXoX",
"oXoXoXoXoXoXoXoXoXoXoXoXoXoXoXoXoXoXoXoXoXoXoXoX& t.|.XXXX.X/.7.e <.P.J.X.@   oXoXoXoXoXoXoXoXoXoXoXoXoXoXoXoXoXoXoXoXoXoXoXoXoX",
"oXoXoXoXoXoXoXoXoXoXoXoXoXoXoXoXoXoXoXoXoXoXoXoX& 8.(.}.}.].(.y.a <.I.6.w .     oXoXoXoXoXoXoXoXoXoXoXoXoXoXoXoXoXoXoXoXoXoXoXoX",
"oXoXoXoXoXoXoXoXoXoXoXoXoXoXoXoXoXoXoXoXoXoXoXoXoXf 0.Q.Q.0.7.g q <.R.K.o.&   oXoXoXoXoXoXoXoXoXoXoXoXoXoXoXoXoXoXoXoXoXoXoXoXoX",
"oXoXoXoXoXoXoXoXoXoXoXoXoXoXoXoXoXoXoXoXoXoXoXoXoXd 0.E.H.u X . X X.6.D.<.2 oXoXoXoXoXoXoXoXoXoXoXoXoXoXoXoXoXoXoXoXoXoXoXoXoXoX",
"oXoXoXoXoXoXoXoXoXoXoXoXoXoXoXoXoXoXoXoXoXoXoXoX& 9.~.!.6.*     oXoXw w q oXoXoXoXoXoXoXoXoXoXoXoXoXoXoXoXoXoXoXoXoXoXoXoXoXoXoX",
"oXoXoXoXoXoXoXoXoXoXoXoXoXoXoXoXoXoXoXoXoXoXoXoXoXO.q.3.p X   oXoXoXoXoXoXoXoXoXoXoXoXoXoXoXoXoXoXoXoXoXoXoXoXoXoXoXoXoXoXoXoXoX",
"oXoXoXoXoXoXoXoXoXoXoXoXoXoXoXoXoXoXoXoXoXoXoXoXoXoX% o .   oXoXoXoXoXoXoXoXoXoXoXoXoXoXoXoXoXoXoXoXoXoXoXoXoXoXoXoXoXoXoXoXoXoX"
};
