/* XPM */
static const char *player_0_2[] = {
/* columns rows colors chars-per-pixel */
"64 64 187 2 ",
"   c #020101",
".  c #0D0502",
"X  c #0C0905",
"o  c #0D0C0A",
"O  c #140401",
"+  c #1B0602",
"@  c #130B05",
"#  c #1D0904",
"$  c #120F0A",
"%  c #12110E",
"&  c #1B140D",
"*  c #151310",
"=  c #1C1913",
"-  c #200706",
";  c #260902",
":  c #2C0B01",
">  c #240B0A",
",  c #2C0C08",
"<  c #340C00",
"1  c #390D00",
"2  c #350E09",
"3  c #380E0C",
"4  c #2F1003",
"5  c #2D120E",
"6  c #251B0F",
"7  c #341203",
"8  c #3C1301",
"9  c #3D1903",
"0  c #3E1A09",
"q  c #35160B",
"w  c #241B14",
"e  c #2F1613",
"r  c #3E1612",
"t  c #292117",
"y  c #26221D",
"u  c #2B251E",
"i  c #3E2310",
"p  c #3C2B1D",
"a  c #312A1F",
"s  c #39352D",
"d  c #3E3326",
"f  c #421602",
"g  c #451A03",
"h  c #4A1D04",
"j  c #42150D",
"k  c #421A09",
"l  c #4E1E08",
"z  c #4D1412",
"x  c #421D12",
"c  c #4C1D17",
"v  c #531619",
"b  c #5C1A1A",
"n  c #472004",
"m  c #4D2104",
"M  c #462009",
"N  c #4C240C",
"B  c #522605",
"V  c #562A05",
"C  c #592C06",
"Z  c #53230A",
"A  c #58270C",
"S  c #562A0C",
"D  c #5C2F08",
"F  c #5C2F0B",
"G  c #5C2D0E",
"H  c #5C2C0C",
"J  c #5E3109",
"K  c #5E3009",
"L  c #5E3109",
"P  c #432410",
"I  c #5D2E10",
"U  c #552514",
"Y  c #5F3114",
"T  c #602F0E",
"R  c #61330B",
"E  c #62330B",
"W  c #62340B",
"Q  c #62320E",
"!  c #64350C",
"~  c #67370E",
"^  c #63340C",
"/  c #67380E",
"(  c #68380F",
")  c #6A390F",
"_  c #69390F",
"`  c #602F10",
"'  c #6B241D",
"]  c #6A291B",
"[  c #63251F",
"{  c #613312",
"}  c #653410",
"|  c #663714",
" . c #633212",
".. c #683711",
"X. c #673815",
"o. c #6A3911",
"O. c #6C3B12",
"+. c #6E3C12",
"@. c #6C3B13",
"#. c #69341A",
"$. c #713E15",
"%. c #713E15",
"&. c #4A3621",
"*. c #543D24",
"=. c #503E2F",
"-. c #423E35",
";. c #5C3D30",
":. c #6E2721",
">. c #752A22",
",. c #7A2B25",
"<. c #603920",
"1. c #693E29",
"2. c #7C3F23",
"3. c #734015",
"4. c #744116",
"5. c #784417",
"6. c #764218",
"7. c #7A4619",
"8. c #7E491B",
"9. c #5D4529",
"0. c #464036",
"q. c #4C473C",
"w. c #524A3E",
"e. c #5B4F3E",
"r. c #694128",
"t. c #794429",
"y. c #70573A",
"u. c #785B3A",
"i. c #554E42",
"p. c #5D5344",
"a. c #5F5749",
"s. c #61594C",
"d. c #78584A",
"f. c #685F51",
"g. c #6D604D",
"h. c #6D6353",
"j. c #813228",
"k. c #8B3529",
"l. c #94322D",
"z. c #943C2E",
"x. c #99362F",
"c. c #9D3B31",
"v. c #A53E33",
"b. c #814B1C",
"n. c #854924",
"m. c #93572D",
"M. c #994737",
"N. c #9A493B",
"B. c #AD4335",
"V. c #A54934",
"C. c #B14636",
"Z. c #B34738",
"A. c #B64A39",
"S. c #B94C3A",
"D. c #AE533B",
"F. c #88643D",
"G. c #AA6D3C",
"H. c #AA594A",
"J. c #8D6A43",
"K. c #906544",
"L. c #8D7150",
"P. c #A16A42",
"I. c #AA7D4B",
"U. c #B47A4C",
"Y. c #B56354",
"T. c #BC6855",
"R. c #867760",
"E. c #837966",
"W. c #887C69",
"Q. c #907E64",
"!. c #BD8A55",
"~. c #9A8D76",
"^. c #A9876C",
"/. c #A39179",
"(. c #C8935A",
"). c #D49C5F",
"_. c #C09668",
"`. c #A99C83",
"'. c #B5A78D",
"]. c #CBA58C",
"[. c #D5AE93",
"{. c #C4B599",
"}. c #D1B794",
"|. c #D9C8A9",
" X c #EEDDBB",
".X c #FF00FF",
"XX c black",
/* pixels */
".X.X.X.X.X.X.X.X.X.X.X.X.X.X.X.X.X.X.X.X.X.X.X.X.X.X.X.X.X.X.X.X.X.X.X.X.X.X.X.X.X.X.X.X.X.X.X.X.X.X.X.X.X.X.X.X.X.X.X.X.X.X.X.X",
".X.X.X.X.X.X.X.X.X.X.X.X.X.X.X.X.X.X.X.X.X.X.X.X.X.X.X.X.X.X.X.X.X.X.X.X.X.X.X.X.X.X.X.X.X.X.X.X.X.X.X.X.X.X.X.X.X.X.X.X.X.X.X.X",
".X.X.X.X.X.X.X.X.X.X.X.X.X.X.X.X.X.X.X.X.X.X.X.X.X.X.X.X.X.X.X.X.X.X.X.X.X.X.X.X.X.X.X.X.X.X.X.X.X.X.X.X.X.X.X.X.X.X.X.X.X.X.X.X",
".X.X.X.X.X.X.X.X.X.X.X.X.X.X.X.X.X.X.X.X.X.X.X.X.X.X.X.X.X.X.X.X.X.X.X.X.X.X.X.X.X.X.X.X.X.X.X.X.X.X.X.X.X.X.X.X.X.X.X.X.X.X.X.X",
".X.X.X.X.X.X.X.X.X.X.X.X.X.X.X.X.X.X.X.X.X.X.X.X.X.X.X.X.X.X.X.X.X.X.X.X.X.X.X.X.X.X.X.X.X.X.X.X.X.X.X.X.X.X.X.X.X.X.X.X.X.X.X.X",
".X.X.X.X.X.X.X.X.X.X.X.X.X.X.X.X.X.X.X.X.X.X.X.X.X.X.X.X.X.X.X.X.X.X.X.X.X.X.X.X.X.X.X.X.X.X.X.X.X.X.X.X.X.X.X.X.X.X.X.X.X.X.X.X",
".X.X.X.X.X.X.X.X.X.X.X.X.X.X.X.X.X.X.X.X.X.X.X.X.X.X.X.X.X.X.X.X.X.X.X.X.X.X.X.X.X.X.X.X.X.X.X.X.X.X.X.X.X.X.X.X.X.X.X.X.X.X.X.X",
".X.X.X.X.X.X.X.X.X.X.X.X.X.X.X.X.X.X.X.X.X.X.X.X.X.X.X.X.X.X.X.X.X.X.X.X.X.X.X.X.X.X.X.X.X.X.X.X.X.X.X.X.X.X.X.X.X.X.X.X.X.X.X.X",
".X.X.X.X.X.X.X.X.X.X.X.X.X.X.X.X.X.X.X.X.X.X.X.X.X.X.X.X.X.X.X.X.X.X.X.X.X.X.X.X.X.X.X.X.X.X.X.X.X.X.X.X.X.X.X.X.X.X.X.X.X.X.X.X",
".X.X.X.X.X.X.X.X.X.X.X.X.X.X.X.X.X.X.X.X.X.X.X.X.X.X.X.X.X.X.X.X.X.X.X.X.X.X.X.X.X.X.X.X.X.X.X.X.X.X.X.X.X.X.X.X.X.X.X.X.X.X.X.X",
".X.X.X.X.X.X.X.X.X.X.X.X.X.X.X.X.X.X.X.X.X.X.X.X.X.X.X.X.X.X.X.X.X.X.X.X.X.X.X.X.X.X.X.X.X.X.X.X.X.X.X.X.X.X.X.X.X.X.X.X.X.X.X.X",
".X.X.X.X.X.X.X.X.X.X.X.X.X.X.X.X.X.X.X.X.X.X.X.X.X.X.X.X.X.X.X.X.X.X.X.X.X.X.X.X.X.X.X.X.X.X.X.X.X.X.X.X.X.X.X.X.X.X.X.X.X.X.X.X",
".X.X.X.X.X.X.X.X.X.X.X.X.X.X.X.X.X.X.X.X.X.X.X.X.X.X.X.X.X.X.X.X.X.X.X.X.X.X.X.X.X.X.X.X.X.X.X.X.X.X.X.X.X.X.X.X.X.X.X.X.X.X.X.X",
".X.X.X.X.X.X.X.X.X.X.X.X.X.X.X.X.X.X.X.X.X.X.X.X.X.X.X.X.X.X.X.X.X.X.X.X.X.X.X.X.X.X.X.X.X.X.X.X.X.X.X.X.X.X.X.X.X.X.X.X.X.X.X.X",
".X.X.X.X.X.X.X.X.X.X.X.X.X.X.X.X.X.X.X.X.X.X.X.X.X; ; ; ; ; .X.X.X; ; ; ; ; .X.X.X.X.X.X.X.X.X.X.X.X.X.X.X.X.X.X.X.X.X.X.X.X.X.X",
".X.X.X.X.X.X.X.X.X.X.X.X.X.X.X.X.X.X.X.X.X.X.X.X: 7 0 0 0 0 q .X0 0 0 0 q : : .X.X.X.X.X.X.X.X.X.X.X.X.X.X.X.X.X.X.X.X.X.X.X.X.X",
".X.X.X.X.X.X.X.X.X.X.X.X.X.X.X.X.X.X.X.X.X; : : 1 N { X.X.{ N k I | X.| S 8 : : ; .X.X.X.X.X.X.X.X.X.X.X.X.X.X.X.X.X.X.X.X.X.X.X",
".X.X.X.X.X.X.X.X.X.X.X.X.X.X.X.X.X.X.X.X: : 7 9 g S o.} ` I S S G I { ..Q m f 9 < : .X.X.X.X.X.X.X.X.X.X.X.X.X.X.X.X.X.X.X.X.X.X",
".X.X.X.X.X.X.X.X.X.X.X.X.X.X.X.X.X.X.X: < 8 h B V V B h f h G } Z f h B V V V m f 7 : .X.X.X.X.X.X.X.X.X.X.X.X.X.X.X.X.X.X.X.X.X",
".X.X.X.X.X.X.X.X.X.X.X.X.X.X.X.X.X.X: 9 n m B C V m g g h m F J B h h g h V C V m n g 7 .X.X.X.X.X.X.X.X.X.X.X.X.X.X.X.X.X.X.X.X",
".X.X.X.X.X.X.X.X.X.X.X.X.X.X.X.X.X7 9 S R C V V V m g h m V C C V B h g h V C V C J D n 7 .X.X.X.X.X.X.X.X.X.X.X.X.X.X.X.X.X.X.X",
".X.X.X.X.X.X.X.X.X.X.X.X.X.X.X.X: 9 S O.+.J C C C V m g h V C C V m f h V V C C C ) $.Q g 4 .X.X.X.X.X.X.X.X.X.X.X.X.X.X.X.X.X.X",
".X.X.X.X.X.X.X.X.X.X.X.X.X.X.X.X: M O.7.3.R ! / J C B f h Q W C V h 8 m V C ! ! R o.7.4.S 7 .X.X.X.X.X.X.X.X.X.X.X.X.X.X.X.X.X.X",
".X.X.X.X.X.X.X.X.X.X.X.X.X.X.X.X: N 5.b.3.W +.3.R C B f Z @.) J D m f h V D +.3.! o.8.8.{ q .X.X.X.X.X.X.X.X.X.X.X.X.X.X.X.X.X.X",
".X.X.X.X.X.X.X.X.X.X.X.X.X.X.X.X: N 6.b.%.W +.3.R C B g Z $.o.R ..G f m V D +.3.! ) 7.8.Y q .X.X.X.X.X.X.X.X.X.X.X.X.X.X.X.X.X.X",
".X.X.X.X.X.X.X.X.X.X.X.X.X.X.X.X: M o.+.! J ! / J C B g Z $.o.D G Z h B V C ! ) J R O.+.S 7 .X.X.X.X.X.X.X.X.X.X.X.X.X.X.X.X.X.X",
".X.X.X.X.X.X.X.X.X.X.X.X.X.X.X.X: 9 V D C C C C C C B f Z o.) B g g B V C C C C C C D C n 7 .X.X.X.X.X.X.X.X.X.X.X.X.X.X.X.X.X.X",
".X.X.X.X.X.X.X.X.X.X.X.X.X.X.X.X: 9 B C V V V V C C B g h D J B f g V C V V V V V V C V g 7 .X.X.X.X.X.X.X.X.X.X.X.X.X.X.X.X.X.X",
".X.X.X.X.X.X.X.X.X.X.X.X.X.X.X.X: f V C C C C C C C V h g m B B h m V C C C C C C V C V n 7 : .X.X.X.X.X.X.X.X.X.X.X.X.X.X.X.X.X",
".X.X.X.X.X.X.X.X.X.X.X.X.X.X.X: < f B V C C C C C C V V h g h B B V V C C C C C C C V V h 8 : ; .X.X.X.X.X.X.X.X.X.X.X.X.X.X.X.X",
".X.X.X.X.X.X.X.X.X.X.X.X.X.X; : 1 8 h B V C C V V C C C B h g h V C C C C V V C C C V n f 1 : ; .X.X.X.X.X.X.X.X.X.X.X.X.X.X.X.X",
".X.X.X.X.X.X.X.X.X.X.X.X.X.X; : 8 8 8 m V C J R R J C C V B g f B C V V F R W R C C B f 1 8 < : .X.X.X.X.X.X.X.X.X.X.X.X.X.X.X.X",
".X.X.X.X.X.X.X.X.X.X.X.X.X.X; 7 g g f m C C ! 3.4.) C C C V g f m C C C R $.4.O.J C B g f g 9 : .X.X.X.X.X.X.X.X.X.X.X.X.X.X.X.X",
".X.X.X.X.X.X.X.X.X.X.X.X.X.X; 7 n B m D ^ D D ..6.+.J R ! C g f B R ! J ! 6.$.T F R Q B m m 9 : .X.X.X.X.X.X.X.X.X.X.X.X.X.X.X.X",
".X.X.X.X.X.X.X.X.X.X.X.X.X.X; 7 h B F o.o.F h Z @.$.) $.+.S f 8 m ! 3.o.O.4.G h B ! +.R V m 9 : .X.X.X.X.X.X.X.X.X.X.X.X.X.X.X.X",
".X.X.X.X.X.X.X.X.X.X.X.X.X.X; : 8 m C R R V g h @.7.5.7.@.l 8 1 f G 7.7.7.6.A f m J ^ J B f < : .X.X.X.X.X.X.X.X.X.X.X.X.X.X.X.X",
".X.X.X.X.X.X.X.X.X.X.X.X.X.X; : 1 f m V C V g h @.b.b.b...f < < 8 G 7.b.b.7.A f m C V B g 1 : ; .X.X.X.X.X.X.X.X.X.X.X.X.X.X.X.X",
".X.X.X.X.X.X.X.X.X.X.X.X.X.X; : < 1 f m V B h l X.7.8.7.{ f < < 1 Z 6.b.b.6.Z g B V B g 1 1 : ; .X.X.X.X.X.X.X.X.X.X.X.X.X.X.X.X",
".X.X.X.X.X.X.X.X.X.X.X.X.X.X; : 1 8 h B B h Z G G Q ! G l 8 < < 1 g G $.$.G m m B B f 1 : : : .X.X.X.X.X.X.X.X.X.X.X.X.X.X.X.X.X",
".X.X.X.X.X.X.X.X.X.X.X.X.X.X; : 1 8 n B m f Z G m h m f 1 1 1 < 1 8 h G G g h B m f 1 : ; ; .X.X.X.X.X.X.X.X.X.X.X.X.X.X.X.X.X.X",
".X.X.X.X.X.X.X.X.X.X.X.X.X.X; : < 1 9 n m f f h m g 8 1 < < 1 < 1 f h h f 8 h m 9 7 < : ; .X.X.X.X.X.X.X.X.X.X.X.X.X.X.X.X.X.X.X",
".X.X.X.X.X.X.X.X.X.X.X.X.X.X.X: : 7 f m B h g g g 8 < < < 1 1 < < 8 g g g h B B g 7 < : .X.X.X.X.X.X.X.X.X.X.X.X.X.X.X.X.X.X.X.X",
".X.X.X.X.X.X.X.X.X.X.X.X.X.X.X.X: 9 B C V V B h 8 1 : < < < < < : 1 f m V V V V m 9 : .X.X.X.X.X.X.X.X.X.X.X.X.X.X.X.X.X.X.X.X.X",
".X.X.X.X.X.X.X.X.X.X.X.X.X.X.X.X: 9 B C C V m f 1 < < : < < < : < 8 n V V C C B g 7 : .X.X.X.X.X.X.X.X.X.X.X.X.X.X.X.X.X.X.X.X.X",
".X.X.X.X.X.X.X.X.X.X.X.X.X.X.X.X: 7 n B B n 8 1 < 1 < : : < : : 8 m B B m m m f : ; ; .X.X.X.X.X.X.X.X.X.X.X.X.X.X.X.X.X.X.X.X.X",
".X.X.X.X.X.X.X.X.X.X.X.X.X.X.X.X.X: 7 n g 7 < < 1 1 < : : < : 7 g B B g 8 8 8 < + . .X.X.X.X.X.X.X.X.X.X.X.X.X.X.X.X.X.X.X.X.X.X",
".X.X.X.X.X.X.X.X.X.X.X.X.X.X.X.X.X.X: 7 7 : : < 1 < : : : : : 1 f g f 8 < < < : + . .X.X.X.X.X.X.X.X.X.X.X.X.X.X.X.X.X.X.X.X.X.X",
".X.X.X.X.X.X.X.X.X.X.X.X.X.X.X.X.X.X.X: : : < < < : : 2 2 : : < 1 1 1 1 < < < : ; O   .X.X.X.X.X.X.X.X.X.X.X.X.X.X.X.X.X.X.X.X.X",
".X.X.X.X.X.X.X.X.X.X.X.X.X.X.X.X.X.X.X; : < : : : : 2 z z , ; ; : : : < 1 < 7 7 ; O   .X.X.X.X.X.X.X.X.X.X.X.X.X.X.X.X.X.X.X.X.X",
".X.X.X.X.X.X.X.X.X.X.X.X.X.X.X.X.X.X.X.X: : + ; j j 2 3 2 + O O # + + ; k Y r.<.q O   .X.X.X.X.X.X.X.X.X.X.X.X.X.X.X.X.X.X.X.X.X",
".X.X.X.X.X.X.X.X.X.X.X.X.X.X.X.X.X.X.X.X.X; > x >.' j , # + O # , > - , U n.G.K.r.p y .X.X.X.X.X.X.X.X.X.X.X.X.X.X.X.X.X.X.X.X.X",
".X.X.X.X.X.X.X.X.X.X.X.X.X.X.X.X.X.X.X.X.X@ P 2.V.x.>.b v v v b b b b ' ] #.m.U.^./.W.0..X.X.X.X.X.X.X.X.X.X.X.X.X.X.X.X.X.X.X.X",
".X.X.X.X.X.X.X.X.X.X.X.X.X.X.X.X.X.X.X.X.X. i t.V.C.v.x.l.l.l.l.l.l.x.c.k.] #.K.}. X{.i.o .X.X.X.X.X.X.X.X.X.X.X.X.X.X.X.X.X.X.X",
".X.X.X.X.X.X.X.X.X.X.X.X.X.X.X.X.X.X.X.X.X  @ x z.A.A.C.B.B.B.C.Z.Z.Z.A.B.x.U =.`.|.'.w.o .X.X.X.X.X.X.X.X.X.X.X.X.X.X.X.X.X.X.X",
".X.X.X.X.X.X.X.X.X.X.X.X.X.X.X.X.X.X.X.X.X.X  5 j.C.A.C.B.B.B.B.A.S.S.C.B.c.c w q.f.a.s .X.X.X.X.X.X.X.X.X.X.X.X.X.X.X.X.X.X.X.X",
".X.X.X.X.X.X.X.X.X.X.X.X.X.X.X.X.X.X.X.X.X.X.X> [ N.T.T.Y.Y.Y.H.M.V.D.z.,.:.r X o % % .X.X.X.X.X.X.X.X.X.X.X.X.X.X.X.X.X.X.X.X.X",
".X.X.X.X.X.X.X.X.X.X.X.X.X.X.X.X.X.X.X.X.X.X.X.Xe d.].[.].].].^.;.t.P.1.5 > # .X.X.X.X.X.X.X.X.X.X.X.X.X.X.X.X.X.X.X.X.X.X.X.X.X",
".X.X.X.X.X.X.X.X.X.X.X.X.X.X.X.X.X.X.X.X.X.X.X.X* h.{.`.E.E.E.s.u 9.I.F.p @   .X.X.X.X.X.X.X.X.X.X.X.X.X.X.X.X.X.X.X.X.X.X.X.X.X",
".X.X.X.X.X.X.X.X.X.X.X.X.X.X.X.X.X.X.X.X.X.X.X.X* s.~.g.a = * o $ 9.!.(.J.d $   .X.X.X.X.X.X.X.X.X.X.X.X.X.X.X.X.X.X.X.X.X.X.X.X",
".X.X.X.X.X.X.X.X.X.X.X.X.X.X.X.X.X.X.X.X.X.X.X.X.Xs e.y.*.$     X 9.!.)._.Q.-.o .X.X.X.X.X.X.X.X.X.X.X.X.X.X.X.X.X.X.X.X.X.X.X.X",
".X.X.X.X.X.X.X.X.X.X.X.X.X.X.X.X.X.X.X.X.X.X.X.X.Xs p.y.*.$     X &.u.F.L.R.w.% .X.X.X.X.X.X.X.X.X.X.X.X.X.X.X.X.X.X.X.X.X.X.X.X",
".X.X.X.X.X.X.X.X.X.X.X.X.X.X.X.X.X.X.X.X.X.X.X.X* p.E.w.&       .X.X6 w t u y .X.X.X.X.X.X.X.X.X.X.X.X.X.X.X.X.X.X.X.X.X.X.X.X.X",
".X.X.X.X.X.X.X.X.X.X.X.X.X.X.X.X.X.X.X.X.X.X.X.X.X-.w.y       .X.X.X.X.X.X.X.X.X.X.X.X.X.X.X.X.X.X.X.X.X.X.X.X.X.X.X.X.X.X.X.X.X",
".X.X.X.X.X.X.X.X.X.X.X.X.X.X.X.X.X.X.X.X.X.X.X.X.X.Xo       .X.X.X.X.X.X.X.X.X.X.X.X.X.X.X.X.X.X.X.X.X.X.X.X.X.X.X.X.X.X.X.X.X.X"
};
