/* XPM */
static const char *player_2_1[] = {
/* columns rows colors chars-per-pixel */
"64 64 180 2 ",
"   c #270A02",
".  c #2B0B01",
"X  c #2A0F0B",
"o  c #340C00",
"O  c #3A0E00",
"+  c #2F1004",
"@  c #331204",
"#  c #3C1302",
"$  c #3E1903",
"%  c #3C1509",
"&  c #3B180C",
"*  c #2E1610",
"=  c #391E15",
"-  c #411502",
";  c #441C03",
":  c #4A1E03",
">  c #4D150A",
",  c #421D0A",
"<  c #4A1A09",
"1  c #40140B",
"2  c #521B0B",
"3  c #591D15",
"4  c #462006",
"5  c #4D2304",
"6  c #46200C",
"7  c #4C250C",
"8  c #4F280E",
"9  c #522605",
"0  c #562A05",
"q  c #592C06",
"w  c #542A0B",
"e  c #5B2E09",
"r  c #5E310A",
"t  c #472310",
"y  c #43251A",
"u  c #582E10",
"i  c #562814",
"p  c #5B3317",
"a  c #64350D",
"s  c #67380F",
"d  c #69390F",
"f  c #642216",
"g  c #6C251D",
"h  c #72251B",
"j  c #79281E",
"k  c #633511",
"l  c #663913",
"z  c #6C3B11",
"x  c #61391D",
"c  c #6A3615",
"v  c #723F15",
"b  c #482C21",
"n  c #55362B",
"m  c #573231",
"M  c #752821",
"N  c #7F3B21",
"B  c #744216",
"V  c #79451A",
"C  c #464036",
"Z  c #544235",
"A  c #73492D",
"S  c #784623",
"D  c #604638",
"F  c #664D3D",
"G  c #724F35",
"H  c #7F553F",
"J  c #6D5444",
"K  c #61584C",
"L  c #715847",
"P  c #775E4D",
"I  c #696051",
"U  c #7A6451",
"Y  c #7D7361",
"T  c #8B3227",
"R  c #8C3228",
"E  c #93352B",
"W  c #9B372F",
"Q  c #9B3A2E",
"!  c #9F3930",
"~  c #9C3730",
"^  c #A43B2F",
"/  c #A43D32",
"(  c #81401E",
")  c #885729",
"_  c #81522D",
"`  c #975A2B",
"'  c #835937",
"]  c #AB4335",
"[  c #A64538",
"{  c #B14637",
"}  c #B54A39",
"|  c #BA4D3A",
" . c #B34837",
".. c #AA513C",
"X. c #B9533A",
"o. c #B55D34",
"O. c #95683F",
"+. c #996439",
"@. c #A36C39",
"#. c #B36431",
"$. c #BB5542",
"%. c #B95E48",
"&. c #8F6846",
"*. c #976A40",
"=. c #9F754E",
"-. c #896656",
";. c #967159",
":. c #B76846",
">. c #B96D48",
",. c #A3784F",
"<. c #BE7154",
"1. c #8F7661",
"2. c #98707C",
"3. c #C0604B",
"4. c #C6744E",
"5. c #C66F59",
"6. c #B1875D",
"7. c #9D856E",
"8. c #B68E71",
"9. c #A9937A",
"0. c #BC9A78",
"q. c #C88956",
"w. c #D1995D",
"e. c #C68A66",
"r. c #D49F65",
"t. c #CF8B71",
"y. c #D08A72",
"u. c #C69C74",
"i. c #D59A7F",
"p. c #D6A36C",
"a. c #D9AB76",
"s. c #D7AC7A",
"d. c #D9AE7C",
"f. c #D6A578",
"g. c #DBB07D",
"h. c #A07882",
"j. c #B19F8F",
"k. c #AFA188",
"l. c #B5A187",
"z. c #B9A184",
"x. c #BCA78C",
"c. c #B8A694",
"v. c #BFB094",
"b. c #C39F81",
"n. c #C2A88B",
"m. c #CBAF8C",
"M. c #D6A68A",
"N. c #D2B087",
"B. c #C1AE93",
"V. c #D7AD95",
"C. c #C9B397",
"Z. c #CCB79A",
"A. c #CEBB9D",
"S. c #D9B697",
"D. c #E1BE94",
"F. c #D2ADAD",
"G. c #CFBDA0",
"H. c #CDA2B7",
"J. c #D5B7B6",
"K. c #E0B9BE",
"L. c #E2C194",
"P. c #E4C89F",
"I. c #E6CBA4",
"U. c #E5CBAB",
"Y. c #E6CAA6",
"T. c #EAD1AA",
"R. c #E9D6B5",
"E. c #E9D5B4",
"W. c #EBD8B6",
"Q. c #ECD3BF",
"!. c #EDDAB9",
"~. c #ECDAB9",
"^. c #E5BFCB",
"/. c #EAC6CC",
"(. c #EFD8C3",
"). c #F5EADF",
"_. c #FEFDFC",
"`. c #FBF8F6",
"'. c #FF00FF",
"]. c black",
/* pixels */
"'.'.'.'.'.'.'.'.'.'.'.'.'.'.'.'.'.'.'.'.'.'.'.'.'.'.'.'.'.'.'.'.'.'.'.'.'.'.'.'.'.'.'.'.'.'.'.'.'.'.'.'.'.'.'.'.'.'.'.'.'.'.'.'.",
"'.'.'.'.'.'.'.'.'.'.'.'.'.'.'.'.'.'.'.'.'.'.'.'.'.'.'.'.'.'.'.'.'.'.'.'.'.'.'.'.'.'.'.'.'.'.'.'.'.'.'.'.'.'.'.'.'.'.'.'.'.'.'.'.",
"'.'.'.'.'.'.'.'.'.'.'.'.'.'.'.'.'.'.'.'.'.'.'.'.'.'.'.'.'.'.'.'.'.'.'.'.'.'.'.'.'.'.'.'.'.'.'.'.'.'.'.'.'.'.'.'.'.'.'.'.'.'.'.'.",
"'.'.'.'.'.'.'.'.'.'.'.'.'.'.'.'.'.'.'.'.'.'.'.'.'.'.'.'.'.'.'.'.'.'.'.'.'.'.'.'.'.'.'.'.'.'.'.'.'.'.'.'.'.'.'.'.'.'.'.'.'.'.'.'.",
"'.'.'.'.'.'.'.'.'.'.'.'.'.'.'.'.'.'.'.'.'.'.'.'.'.'.'.'.'.'.'.'.'.'.'.'.'.'.'.'.'.'.'.'.'.'.'.'.'.'.'.'.'.'.'.'.'.'.'.'.'.'.'.'.",
"'.'.'.'.'.'.'.'.'.'.'.'.'.'.'.'.'.'.'.'.'.'.'.'.'.'.'.'.'.'.'.'.'.'.'.'.'.'.'.'.'.'.'.'.'.'.'.'.'.'.'.'.'.'.'.'.'.'.'.'.'.'.'.'.",
"'.'.'.'.'.'.'.'.'.'.'.'.'.'.'.'.'.'.'.'.'.'.'.'.'.'.'.'.'.'.'.'.'.'.'.'.'.'.'.'.'.'.'.'.'.'.'.'.'.'.'.'.'.'.'.'.'.'.'.'.'.'.'.'.",
"'.'.'.'.'.'.'.'.'.'.'.'.'.'.'.'.'.'.'.'.'.'.'.'.'.'.'.'.'.'.'.'.'.'.'.'.'.'.'.'.'.'.'.'.'.'.'.'.'.'.'.'.'.'.'.'.'.'.'.'.'.'.'.'.",
"'.'.'.'.'.'.'.'.'.'.'.'.'.'.'.'.'.'.'.'.'.'.'.'.'.'.'.'.'.'.'.'.'.'.'.'.'.'.'.'.'.'.'.'.'.'.'.'.'.'.'.'.'.'.'.'.'.'.'.'.'.'.'.'.",
"'.'.'.'.'.'.'.'.'.'.'.'.'.'.'.'.'.'.'.'.'.'.'.'.'.'.'.'.'.'.'.'.'.'.'.'.'.'.'.'.'.'.'.'.'.'.'.'.'.'.'.'.'.'.'.'.'.'.'.'.'.'.'.'.",
"'.'.'.'.'.'.'.'.'.'.'.'.'.'.'.'.'.'.'.'.'.'.'.'.'.'.'.'.'.'.'.'.'.'.'.'.'.'.'.'.'.'.'.'.'.'.'.'.'.'.'.'.'.'.'.'.'.'.'.'.'.'.'.'.",
"'.'.'.'.'.'.'.'.'.'.'.'.'.'.'.'.'.'.'.'.'.'.'.'.'.'.'.'.'.'.'.'.'.'.'.'.'.'.'.'.'.'.'.'.'.'.'.'.'.'.'.'.'.'.'.'.'.'.'.'.'.'.'.'.",
"'.'.'.'.'.'.'.'.'.'.'.'.'.'.'.'.'.'.'.'.'.'.'.'.'.'.'.'.'.'.'.'.'.'.'.'.'.'.'.'.'.'.'.'.'.'.'.'.'.'.'.'.'.'.'.'.'.'.'.'.'.'.'.'.",
"'.'.'.'.'.'.'.'.'.'.'.'.'.'.'.'.'.'.'.'.'.'.'.'.. . . . . . . . . . . . . '.'.'.'.'.'.'.'.'.'.'.'.'.'.'.'.'.'.'.'.'.'.'.'.'.'.'.",
"'.'.'.'.'.'.'.'.'.'.'.'.'.'.'.'.'.'.'.'.'.'.'.@ $ ; ; ; ; ; ; ; ; ; ; ; $ . '.'.'.'.'.'.'.'.'.'.'.'.'.'.'.'.'.'.'.'.'.'.'.'.'.'.",
"'.'.'.'.'.'.'.'.'.'.'.'.'.'.'.'.'.'.'.'.'.'.% , 5 5 5 0 e 0 0 q e e 0 0 5 ; @ '.'.'.'.'.'.'.'.'.'.'.'.'.'.'.'.'.'.'.'.'.'.'.'.'.",
"'.'.'.'.'.'.'.'.'.'.'.'.'.'.'.'.'.'.'.'.'.@ 8 k e 4 ; r z r q a z d e q r k 8 @ '.'.'.'.'.'.'.'.'.'.'.'.'.'.'.'.'.'.'.'.'.'.'.'.",
"'.'.'.'.'.'.'.'.'.'.'.'.'.'.'.'.'.'.'.'.'.. 7 r 7 4 w k s e 0 r d z s r s B l 7 @ '.'.'.'.'.'.'.'.'.'.'.'.'.'.'.'.'.'.'.'.'.'.'.",
"'.'.'.'.'.'.'.'.'.'.'.'.'.'.'.'.'.'.'.'.'.@ 4 5 ; 7 k s r q 0 q e z B s s B V c 6 @ '.'.'.'.'.'.'.'.'.'.'.'.'.'.'.'.'.'.'.'.'.'.",
"'.'.'.'.'.'.'.'.'.'.'.'.'.'.'.'.'.'.'.'.@ ; 9 9 4 4 8 k s e 0 0 q z B s r s B V l 8 + '.'.'.'.'.'.'.'.'.'.'.'.'.'.'.'.'.'.'.'.'.",
"'.'.'.'.'.'.'.'.'.'.'.'.'.'.'.'.'.'.'., 7 0 q q 0 4 4 r s e 0 q s z z a 0 q s B V u @ '.'.'.'.'.'.'.'.'.'.'.'.'.'.'.'.'.'.'.'.'.",
"'.'.'.'.'.'.'.'.'.'.'.'.'.'.'.'.'.'.@ w k e q q q 0 9 e e q 0 r z z a e q q q s v w @ '.'.'.'.'.'.'.'.'.'.'.'.'.'.'.'.'.'.'.'.'.",
"'.'.'.'.'.'.'.'.'.'.'.'.'.'.'.'.'.'.@ w a e q q q q q q q q 0 e s a r s s e 0 e a e ; @ '.'.'.'.'.'.'.'.'.'.'.'.'.'.'.'.'.'.'.'.",
"'.'.'.'.'.'.'.'.'.'.'.'.'.'.'.'.'.'.+ ; 9 0 9 5 0 9 5 5 9 0 q q q q e z z e 0 0 q q 5 @   '.'.'.'.'.'.'.'.'.'.'.'.'.'.'.'.'.'.'.",
"'.'.'.'.'.'.'.'.'.'.'.'.'.'.'.'.'.'.'.@ $ 5 4 ; 5 4 $ # ; 9 0 0 0 0 q r r q 0 0 0 q 9 #   '.'.'.'.'.'.'.'.'.'.'.'.'.'.'.'.'.'.'.",
"'.'.'.'.'.'.'.'.'.'.'.'.'.'.'.'.'.'.'.'.@ ; p x 8 u x 6 # ; 9 0 0 0 q q q q q 0 q q 5 #   '.'.'.'.'.'.'.'.'.'.'.'.'.'.'.'.'.'.'.",
"'.'.'.'.'.'.'.'.'.'.'.'.'.'.'.'.'.'.'.'.= n &.=.G ' ,.A , # : q r e q 0 0 0 0 9 0 q 9 #   '.'.'.'.'.'.'.'.'.'.'.'.'.'.'.'.'.'.'.",
"'.'.'.'.'.'.'.'.'.'.'.'.'.'.'.'.'.'.'.'.D 7.m.S.z.n.N.6.A , ; e z s q 0 q 0 5 : 9 q 9 # .   '.'.'.'.'.'.'.'.'.'.'.'.'.'.'.'.'.'.",
"'.'.'.'.'.'.'.'.'.'.'.'.'.'.'.'.'.'.'.X J C.~.~.R.R.Y.s.O.t $ e d z s r q 0 ; - 5 q 9 - o   '.'.'.'.'.'.'.'.'.'.'.'.'.'.'.'.'.'.",
"'.'.'.'.'.'.'.'.'.'.'.'.'.'.'.'.'.'.'.X J C.E.U.R.~.T.d.*.t $ q s z z a q 0 ; - 5 q 9 - o   '.'.'.'.'.'.'.'.'.'.'.'.'.'.'.'.'.'.",
"'.'.'.'.'.'.'.'.'.'.'.'.'.'.'.'.'.'.'.X J n.b.8.A.~.T.s.O.t $ l ) S u w q 0 ; - 5 q 9 - o   '.'.'.'.'.'.'.'.'.'.'.'.'.'.'.'.'.'.",
"'.'.'.'.'.'.'.'.'.'.'.'.'.'.'.'.'.'.'.X J z.;.H n.~.T.s.O.t $ B @._ , ; 0 0 ; - 5 q 9 - o   '.'.'.'.'.'.'.'.'.'.'.'.'.'.'.'.'.'.",
"'.'.'.'.'.'.'.'.'.'.'.'.'.'.'.'.'.'.'.= P l.U Z l.~.T.d.O.t $ z ` S $ ; 0 0 ; - 5 q 9 - o   '.'.'.'.'.'.'.'.'.'.'.'.'.'.'.'.'.'.",
"'.'.'.'.'.'.'.'.'.'.'.'.'.'.'.'.'.'.y L 9.B.I C k.~.T.d.*.t $ e c i # : q 0 ; - 5 q 9 # .   '.'.'.'.'.'.'.'.'.'.'.'.'.'.'.'.'.'.",
"'.'.'.'.'.'.'.'.'.'.'.'.'.'.'.'.'.'.b 1.Z.G.Y K c.Q.U.u.' 6 ; 5 ; # # 5 q 0 ; - 5 0 4 @   '.'.'.'.'.'.'.'.'.'.'.'.'.'.'.'.'.'.'.",
"'.'.'.'.'.'.'.'.'.'.'.'.'.'.'.'.'.'.'.F 7.A.v.j.J./.F.-.i # ; 9 4 # # 5 q 9 ; - 5 5 - o   '.'.'.'.'.'.'.'.'.'.'.'.'.'.'.'.'.'.'.",
"'.'.'.'.'.'.'.'.'.'.'.'.'.'.'.'.'.'.'.* J Z.~.Q.^.H.2.m @ - 5 0 0 5 : 9 0 5 - - 5 : O .   '.'.'.'.'.'.'.'.'.'.'.'.'.'.'.'.'.'.'.",
"'.'.'.'.'.'.'.'.'.'.'.'.'.'.'.'.'.'.'.X F x.R.(.K.h.m % - 5 0 0 0 0 0 0 5 - O # : ; o .   '.'.'.'.'.'.'.'.'.'.'.'.'.'.'.'.'.'.'.",
"'.'.'.'.'.'.'.'.'.'.'.'.'.'.'.'.'.'.'.'.n -.x.U.V.-.& # 5 0 q 9 : 5 0 q 5 # o O - # o   '.'.'.'.'.'.'.'.'.'.'.'.'.'.'.'.'.'.'.'.",
"'.'.'.'.'.'.'.'.'.'.'.'.'.'.'.'.'.'.'.'.'.y U 0.e._ & # 5 0 9 4 ; : 0 9 ; # O # O o   '.'.'.'.'.'.'.'.'.'.'.'.'.'.'.'.'.'.'.'.'.",
"'.'.'.'.'.'.'.'.'.'.'.'.'.'.'.'.'.'.'.'.'.. y A +.S % @ ; 5 : ; 5 9 9 : # O ; ; # .   '.'.'.'.'.'.'.'.'.'.'.'.'.'.'.'.'.'.'.'.'.",
"'.'.'.'.'.'.'.'.'.'.'.'.'.'.'.'.'.'.'.'.'.  . < ( N f 3 2 ; ; : 9 9 : # o O - ; o .   '.'.'.'.'.'.'.'.'.'.'.'.'.'.'.'.'.'.'.'.'.",
"'.'.'.'.'.'.'.'.'.'.'.'.'.'.'.'.'.'.'.'.'.  . o '.Q W E g % ; 9 0 : # o o O O o .   '.'.'.'.'.'.'.'.'.'.'.'.'.'.'.'.'.'.'.'.'.'.",
"'.'.'.'.'.'.'.'.'.'.'.'.'.'.'.'.'.'.'.'.'.'.    '.'.{ / M 1 ; 0 0 : O o O o o o '.'.'.'.'.'.'.'.'.'.'.'.'.'.'.'.'.'.'.'.'.'.'.'.",
"'.'.'.'.'.'.'.'.'.'.'.'.'.'.'.'.'.'.'.'.'.'.'.'.'.'.| ] T i < 5 9 : - > > O o o '.'.'.'.'.'.'.'.'.'.'.'.'.'.'.'.'.'.'.'.'.'.'.'.",
"'.'.'.'.'.'.'.'.'.'.'.'.'.'.'.'.'.'.'.'.'.'.'.'.'.'.| } ] R f < 5 : 2 h h > O '.'.'.'.'.'.'.'.'.'.'.'.'.'.'.'.'.'.'.'.'.'.'.'.'.",
"'.'.'.'.'.'.'.'.'.'.'.'.'.'.'.'.'.'.'.'.'.'.'.'.'.'.| | } ] T f 2 2 h R R j '.'.'.'.'.'.'.'.'.'.'.'.'.'.'.'.'.'.'.'.'.'.'.'.'.'.",
"'.'.'.'.'.'.'.'.'.'.'.'.'.'.'.'.'.'.'.'.'.'.'.'.'.] {  .} } ] T f h E ! W Q ^ '.'.'.'.'.'.'.'.'.'.'.'.'.'.'.'.'.'.'.'.'.'.'.'.'.",
"'.'.'.'.'.'.'.'.'.'.'.'.'.'.'.'.'.'.'.'.'.'.'.'.! / / / ] } } ] E Q ] ] [ } $.$.'.'.'.'.'.'.'.'.'.'.'.'.'.'.'.'.'.'.'.'.'.'.'.'.",
"'.'.'.'.'.'.'.'.'.'.'.'.'.'.'.'.'.'.'.'.'.'.'.'.] ] ] ] / / ] { / ] } %.<.e.y.t.'.'.'.'.'.'.'.'.'.'.'.'.'.'.'.'.'.'.'.'.'.'.'.'.",
"'.'.'.'.'.'.'.'.'.'.'.'.'.'.'.'.'.'.'.'.'.'.'.'.} } } ] / W / { ] ] X.4.f.I.U.U.'.'.'.'.'.'.'.'.'.'.'.'.'.'.'.'.'.'.'.'.'.'.'.'.",
"'.'.'.'.'.'.'.'.'.'.'.'.'.'.'.'.'.'.'.'.'.'.'.o.X.| } / ~ / { }  . .X.4.L.W.~.~.'.'.'.'.'.'.'.'.'.'.'.'.'.'.'.'.'.'.'.'.'.'.'.'.",
"'.'.'.'.'.'.'.'.'.'.'.'.'.'.'.'.'.'.'.'.'.'.#.#.X.| } / /  .| | | } { '.'.~.W.W.'.'.'.'.'.'.'.'.'.'.'.'.'.'.'.'.'.'.'.'.'.'.'.'.",
"'.'.'.'.'.'.'.'.'.'.'.'.'.'.'.'.'.'.'.'.'.'.#.#.'.} } {  .| | | } ] / '.'.~.W.W.'.'.'.'.'.'.'.'.'.'.'.'.'.'.'.'.'.'.'.'.'.'.'.'.",
"'.'.'.'.'.'.'.'.'.'.'.'.'.'.'.'.'.'.'.'.'.'.'.'.'.'.] } | | | } ] / W '.'.'.'.'.'.'.'.'.'.'.'.'.'.'.'.'.'.'.'.'.'.'.'.'.'.'.'.'.",
"'.'.'.'.'.'.'.'.'.'.'.'.'.'.'.'.'.'.'.'.'.'.'.'.'.'.[ %.5.5.3.} / [ ..:.'.'.'.'.'.'.'.'.'.'.'.'.'.'.'.'.'.'.'.'.'.'.'.'.'.'.'.'.",
"'.'.'.'.'.'.'.'.'.'.'.'.'.'.'.'.'.'.'.'.'.'.'.'.'.'.'.M.S.S.i.'.'.>.q.q.w.w.'.'.'.'.'.'.'.'.'.'.'.'.'.'.'.'.'.'.'.'.'.'.'.'.'.'.",
"'.'.'.'.'.'.'.'.'.'.'.'.'.'.'.'.'.'.'.'.'.'.'.'.'.'.'.I.W.~.'.'.'.'.w.w.w.w.'.'.'.'.'.'.'.'.'.'.'.'.'.'.'.'.'.'.'.'.'.'.'.'.'.'.",
"'.'.'.'.'.'.'.'.'.'.'.'.'.'.'.'.'.'.'.'.'.'._.`.'.'.g.P.W.'.'.'.'.'.'.r.w.w.'.'.'.'.'.'.'.'.'.'.'.'.'.'.'.'.'.'.'.'.'.'.'.'.'.'.",
"'.'.'.'.'.'.'.'.'.'.'.'.'.'.'.'.'.'.'.'.'.'._.).D.d.L.T.R.'.'.'.'.'.I.a.w.w.'.'.'.'.'.'.'.'.'.'.'.'.'.'.'.'.'.'.'.'.'.'.'.'.'.'.",
"'.'.'.'.'.'.'.'.'.'.'.'.'.'.'.'.'.'.'.'.'.'.'.(.d.a.D.U.'.'.'.'.'.'.I.g.w.w.'.'.'.'.'.'.'.'.'.'.'.'.'.'.'.'.'.'.'.'.'.'.'.'.'.'.",
"'.'.'.'.'.'.'.'.'.'.'.'.'.'.'.'.'.'.'.'.'.'.'.'.p.r.p.'.'.'.'.'.'.'.'.'.'.'.'.'.'.'.'.'.'.'.'.'.'.'.'.'.'.'.'.'.'.'.'.'.'.'.'.'.",
"'.'.'.'.'.'.'.'.'.'.'.'.'.'.'.'.'.'.'.'.'.'.'.'.'.'.'.'.'.'.'.'.'.'.'.'.'.'.'.'.'.'.'.'.'.'.'.'.'.'.'.'.'.'.'.'.'.'.'.'.'.'.'.'.",
"'.'.'.'.'.'.'.'.'.'.'.'.'.'.'.'.'.'.'.'.'.'.'.'.'.'.'.'.'.'.'.'.'.'.'.'.'.'.'.'.'.'.'.'.'.'.'.'.'.'.'.'.'.'.'.'.'.'.'.'.'.'.'.'."
};
