/* XPM */
static const char *player_2_5[] = {
/* columns rows colors chars-per-pixel */
"64 64 187 2 ",
"   c #270A02",
".  c #2B0B01",
"X  c #2A0F0B",
"o  c #340B00",
"O  c #3A0E01",
"+  c #2F1004",
"@  c #341203",
"#  c #3C1302",
"$  c #3E1903",
"%  c #3B1309",
"&  c #3B180C",
"*  c #2E1610",
"=  c #391E15",
"-  c #421502",
";  c #441B03",
":  c #491D03",
">  c #4D150A",
",  c #421D0A",
"<  c #491708",
"1  c #551D0D",
"2  c #591A0F",
"3  c #5C1C12",
"4  c #621E14",
"5  c #462006",
"6  c #4D2304",
"7  c #46200C",
"8  c #4C250C",
"9  c #4F280E",
"0  c #522605",
"q  c #562A05",
"w  c #592C06",
"e  c #542A0B",
"r  c #5B2E09",
"t  c #5E310A",
"y  c #472310",
"u  c #43251A",
"i  c #582E10",
"p  c #542B14",
"a  c #5B3317",
"s  c #64350D",
"d  c #67380F",
"f  c #69390F",
"g  c #652115",
"h  c #6D2419",
"j  c #692216",
"k  c #782B1D",
"l  c #633511",
"z  c #663913",
"x  c #6C3B11",
"c  c #61391D",
"v  c #6A3615",
"b  c #723F15",
"n  c #482C21",
"m  c #55362B",
"M  c #573231",
"N  c #7E2E20",
"B  c #7F3020",
"V  c #744216",
"C  c #79451A",
"Z  c #464036",
"A  c #544235",
"S  c #73492D",
"D  c #784623",
"F  c #664D3D",
"G  c #604638",
"H  c #724F35",
"J  c #7F553F",
"K  c #6D5444",
"L  c #61584C",
"P  c #745B4A",
"I  c #696051",
"U  c #7A6451",
"Y  c #7D7361",
"T  c #812C23",
"R  c #882729",
"E  c #8B3127",
"W  c #8C3128",
"Q  c #813C21",
"!  c #95352C",
"~  c #9A362E",
"^  c #9B3B2E",
"/  c #97392C",
"(  c #9E3931",
")  c #A33D32",
"_  c #81401E",
"`  c #84552B",
"'  c #835937",
"]  c #975A2B",
"[  c #A54232",
"{  c #AA4434",
"}  c #AD4B35",
"|  c #B14636",
" . c #B34D37",
".. c #B24738",
"X. c #B34A39",
"o. c #B94D3A",
"O. c #AE5A3C",
"+. c #AD5339",
"@. c #B45435",
"#. c #B75D35",
"$. c #B55C3B",
"%. c #B95639",
"&. c #95683F",
"*. c #996439",
"=. c #AE632E",
"-. c #A36C39",
";. c #B46631",
":. c #BA6B3C",
">. c #B76538",
",. c #BE753F",
"<. c #BD5A41",
"1. c #8F6846",
"2. c #976A40",
"3. c #9F754E",
"4. c #896656",
"5. c #967159",
"6. c #BD6243",
"7. c #BB654A",
"8. c #A3784F",
"9. c #B56554",
"0. c #B9715B",
"q. c #8F7661",
"w. c #98707C",
"e. c #C26D4A",
"r. c #C57858",
"t. c #B1875D",
"y. c #9D856E",
"u. c #B68E71",
"i. c #BC9A78",
"p. c #A9937A",
"a. c #C3824B",
"s. c #CC8655",
"d. c #C78757",
"f. c #CD945A",
"g. c #D29A5E",
"h. c #C28C61",
"j. c #CD9A69",
"k. c #D29A61",
"l. c #CF8A71",
"z. c #C69C74",
"x. c #D6A46B",
"c. c #D8A972",
"v. c #D7AC7A",
"b. c #D9AD7C",
"n. c #DAB07D",
"m. c #A07882",
"M. c #B19F8F",
"N. c #AFA188",
"B. c #B5A187",
"V. c #B9A184",
"C. c #BCA78C",
"Z. c #BFB094",
"A. c #B8A694",
"S. c #C39F81",
"D. c #D09B83",
"F. c #C2A88B",
"G. c #CBAF8C",
"H. c #D6AB82",
"J. c #DCB483",
"K. c #D9B48B",
"L. c #C1AE93",
"P. c #D6AD93",
"I. c #C9B397",
"U. c #CCB79A",
"Y. c #CEBB9D",
"T. c #D6B796",
"R. c #E0BB9D",
"E. c #D2ADAD",
"W. c #CFBDA0",
"Q. c #CDA2B7",
"!. c #D5B7B6",
"~. c #E0B9BE",
"^. c #E4C79E",
"/. c #E5CBAB",
"(. c #E7CDA7",
"). c #E9D1AB",
"_. c #E7D0AB",
"`. c #E9D5B4",
"'. c #EBD8B7",
"]. c #ECD3BF",
"[. c #ECD9B9",
"{. c #E5BFCB",
"}. c #EAC6CC",
"|. c #EFD5C0",
" X c #F4E7DA",
".X c #FF00FF",
"XX c black",
/* pixels */
".X.X.X.X.X.X.X.X.X.X.X.X.X.X.X.X.X.X.X.X.X.X.X.X.X.X.X.X.X.X.X.X.X.X.X.X.X.X.X.X.X.X.X.X.X.X.X.X.X.X.X.X.X.X.X.X.X.X.X.X.X.X.X.X",
".X.X.X.X.X.X.X.X.X.X.X.X.X.X.X.X.X.X.X.X.X.X.X.X.X.X.X.X.X.X.X.X.X.X.X.X.X.X.X.X.X.X.X.X.X.X.X.X.X.X.X.X.X.X.X.X.X.X.X.X.X.X.X.X",
".X.X.X.X.X.X.X.X.X.X.X.X.X.X.X.X.X.X.X.X.X.X.X.X.X.X.X.X.X.X.X.X.X.X.X.X.X.X.X.X.X.X.X.X.X.X.X.X.X.X.X.X.X.X.X.X.X.X.X.X.X.X.X.X",
".X.X.X.X.X.X.X.X.X.X.X.X.X.X.X.X.X.X.X.X.X.X.X.X.X.X.X.X.X.X.X.X.X.X.X.X.X.X.X.X.X.X.X.X.X.X.X.X.X.X.X.X.X.X.X.X.X.X.X.X.X.X.X.X",
".X.X.X.X.X.X.X.X.X.X.X.X.X.X.X.X.X.X.X.X.X.X.X.X.X.X.X.X.X.X.X.X.X.X.X.X.X.X.X.X.X.X.X.X.X.X.X.X.X.X.X.X.X.X.X.X.X.X.X.X.X.X.X.X",
".X.X.X.X.X.X.X.X.X.X.X.X.X.X.X.X.X.X.X.X.X.X.X.X.X.X.X.X.X.X.X.X.X.X.X.X.X.X.X.X.X.X.X.X.X.X.X.X.X.X.X.X.X.X.X.X.X.X.X.X.X.X.X.X",
".X.X.X.X.X.X.X.X.X.X.X.X.X.X.X.X.X.X.X.X.X.X.X.X.X.X.X.X.X.X.X.X.X.X.X.X.X.X.X.X.X.X.X.X.X.X.X.X.X.X.X.X.X.X.X.X.X.X.X.X.X.X.X.X",
".X.X.X.X.X.X.X.X.X.X.X.X.X.X.X.X.X.X.X.X.X.X.X.X.X.X.X.X.X.X.X.X.X.X.X.X.X.X.X.X.X.X.X.X.X.X.X.X.X.X.X.X.X.X.X.X.X.X.X.X.X.X.X.X",
".X.X.X.X.X.X.X.X.X.X.X.X.X.X.X.X.X.X.X.X.X.X.X.X.X.X.X.X.X.X.X.X.X.X.X.X.X.X.X.X.X.X.X.X.X.X.X.X.X.X.X.X.X.X.X.X.X.X.X.X.X.X.X.X",
".X.X.X.X.X.X.X.X.X.X.X.X.X.X.X.X.X.X.X.X.X.X.X.X.X.X.X.X.X.X.X.X.X.X.X.X.X.X.X.X.X.X.X.X.X.X.X.X.X.X.X.X.X.X.X.X.X.X.X.X.X.X.X.X",
".X.X.X.X.X.X.X.X.X.X.X.X.X.X.X.X.X.X.X.X.X.X.X.X.X.X.X.X.X.X.X.X.X.X.X.X.X.X.X.X.X.X.X.X.X.X.X.X.X.X.X.X.X.X.X.X.X.X.X.X.X.X.X.X",
".X.X.X.X.X.X.X.X.X.X.X.X.X.X.X.X.X.X.X.X.X.X.X.X.X.X.X.X.X.X.X.X.X.X.X.X.X.X.X.X.X.X.X.X.X.X.X.X.X.X.X.X.X.X.X.X.X.X.X.X.X.X.X.X",
".X.X.X.X.X.X.X.X.X.X.X.X.X.X.X.X.X.X.X.X.X.X.X.X.X.X.X.X.X.X.X.X.X.X.X.X.X.X.X.X.X.X.X.X.X.X.X.X.X.X.X.X.X.X.X.X.X.X.X.X.X.X.X.X",
".X.X.X.X.X.X.X.X.X.X.X.X.X.X.X.X.X.X.X.X.X.X.X.X. . . . . . . . . . . . . .X.X.X.X.X.X.X.X.X.X.X.X.X.X.X.X.X.X.X.X.X.X.X.X.X.X.X",
".X.X.X.X.X.X.X.X.X.X.X.X.X.X.X.X.X.X.X.X.X.X.X@ $ ; ; ; ; ; ; ; ; ; ; ; $ . .X.X.X.X.X.X.X.X.X.X.X.X.X.X.X.X.X.X.X.X.X.X.X.X.X.X",
".X.X.X.X.X.X.X.X.X.X.X.X.X.X.X.X.X.X.X.X.X.X& , 6 6 6 q r q q w r r q q 6 ; @ .X.X.X.X.X.X.X.X.X.X.X.X.X.X.X.X.X.X.X.X.X.X.X.X.X",
".X.X.X.X.X.X.X.X.X.X.X.X.X.X.X.X.X.X.X.X.X@ 9 l r 5 ; t x t w s x f r w t l 9 @ .X.X.X.X.X.X.X.X.X.X.X.X.X.X.X.X.X.X.X.X.X.X.X.X",
".X.X.X.X.X.X.X.X.X.X.X.X.X.X.X.X.X.X.X.X.X. 8 t 8 5 e l d r q t f x d t d V z 8 @ .X.X.X.X.X.X.X.X.X.X.X.X.X.X.X.X.X.X.X.X.X.X.X",
".X.X.X.X.X.X.X.X.X.X.X.X.X.X.X.X.X.X.X.X.X@ 5 6 ; 8 l d t w q w r x V d d V C v 7 @ .X.X.X.X.X.X.X.X.X.X.X.X.X.X.X.X.X.X.X.X.X.X",
".X.X.X.X.X.X.X.X.X.X.X.X.X.X.X.X.X.X.X.X@ ; 0 0 5 5 9 l d r q q w x V d t d V C z 9 + .X.X.X.X.X.X.X.X.X.X.X.X.X.X.X.X.X.X.X.X.X",
".X.X.X.X.X.X.X.X.X.X.X.X.X.X.X.X.X.X.X, 8 q w w q 5 5 t d r q w d x x s q w d V C i @ .X.X.X.X.X.X.X.X.X.X.X.X.X.X.X.X.X.X.X.X.X",
".X.X.X.X.X.X.X.X.X.X.X.X.X.X.X.X.X.X@ e l r w w w q 0 r r w q t x x s r w w w d b e @ .X.X.X.X.X.X.X.X.X.X.X.X.X.X.X.X.X.X.X.X.X",
".X.X.X.X.X.X.X.X.X.X.X.X.X.X.X.X.X.X@ e s r w w w w w w w w q r d s t d d r q r s r ; @ .X.X.X.X.X.X.X.X.X.X.X.X.X.X.X.X.X.X.X.X",
".X.X.X.X.X.X.X.X.X.X.X.X.X.X.X.X.X.X+ ; 0 q 0 6 q 0 6 6 0 q w w w w r x x r q q w w 6 @   .X.X.X.X.X.X.X.X.X.X.X.X.X.X.X.X.X.X.X",
".X.X.X.X.X.X.X.X.X.X.X.X.X.X.X.X.X.X.X@ $ 6 5 ; 6 5 $ # ; 0 q q q q w t t w q q q w 0 #   .X.X.X.X.X.X.X.X.X.X.X.X.X.X.X.X.X.X.X",
".X.X.X.X.X.X.X.X.X.X.X.X.X.X.X.X.X.X.X.X@ ; a c 9 i c 7 # ; 0 w q q w w w w w q w w 6 #   .X.X.X.X.X.X.X.X.X.X.X.X.X.X.X.X.X.X.X",
".X.X.X.X.X.X.X.X.X.X.X.X.X.X.X.X.X.X.X.X= m 1.3.H ' 8.S , # : w t r w q q q q 0 q w 0 #   .X.X.X.X.X.X.X.X.X.X.X.X.X.X.X.X.X.X.X",
".X.X.X.X.X.X.X.X.X.X.X.X.X.X.X.X.X.X.X.XG y.G.T.V.F.H.t.S , ; r x d w q w q 6 : 0 w 0 # .   .X.X.X.X.X.X.X.X.X.X.X.X.X.X.X.X.X.X",
".X.X.X.X.X.X.X.X.X.X.X.X.X.X.X.X.X.X.XX K I.[.[.`.`.(.v.&.y $ r f x d t w q ; - 6 w 0 - o   .X.X.X.X.X.X.X.X.X.X.X.X.X.X.X.X.X.X",
".X.X.X.X.X.X.X.X.X.X.X.X.X.X.X.X.X.X.XX K I.`./.`.[.).b.2.y $ w d x x s w q ; - 6 w 0 - o   .X.X.X.X.X.X.X.X.X.X.X.X.X.X.X.X.X.X",
".X.X.X.X.X.X.X.X.X.X.X.X.X.X.X.X.X.X.XX K F.S.u.Y.[.).v.&.y $ z ` D i e w q ; - 6 w 0 - o   .X.X.X.X.X.X.X.X.X.X.X.X.X.X.X.X.X.X",
".X.X.X.X.X.X.X.X.X.X.X.X.X.X.X.X.X.X.XX K V.5.J F.[.).v.&.y $ V -.` , ; q q ; - 6 w 0 - o   .X.X.X.X.X.X.X.X.X.X.X.X.X.X.X.X.X.X",
".X.X.X.X.X.X.X.X.X.X.X.X.X.X.X.X.X.X.X= P B.U A B.[.).b.&.y $ x ] D $ ; q q ; - 6 w 0 - o   .X.X.X.X.X.X.X.X.X.X.X.X.X.X.X.X.X.X",
".X.X.X.X.X.X.X.X.X.X.X.X.X.X.X.X.X.Xu P p.L.I Z N.[.).b.2.y $ r v 9 # : w q ; - 6 w 0 # .   .X.X.X.X.X.X.X.X.X.X.X.X.X.X.X.X.X.X",
".X.X.X.X.X.X.X.X.X.X.X.X.X.X.X.X.X.Xn q.U.W.Y L A.]./.z.' 7 ; 6 ; # # 6 w q ; - 6 q 5 @   .X.X.X.X.X.X.X.X.X.X.X.X.X.X.X.X.X.X.X",
".X.X.X.X.X.X.X.X.X.X.X.X.X.X.X.X.X.X.XF y.Y.Z.M.!.}.E.4.p # ; 0 5 # # 6 q 0 ; - 6 6 - o   .X.X.X.X.X.X.X.X.X.X.X.X.X.X.X.X.X.X.X",
".X.X.X.X.X.X.X.X.X.X.X.X.X.X.X.X.X.X.X* K U.[.].{.Q.w.M @ - 6 q q 6 : 0 q 6 - - 6 : O .   .X.X.X.X.X.X.X.X.X.X.X.X.X.X.X.X.X.X.X",
".X.X.X.X.X.X.X.X.X.X.X.X.X.X.X.X.X.X.XX F C.`.|.~.m.M % - 6 q q q q q q 6 - O # : ; o .   .X.X.X.X.X.X.X.X.X.X.X.X.X.X.X.X.X.X.X",
".X.X.X.X.X.X.X.X.X.X.X.X.X.X.X.X.X.X.X.Xm 4.C./.P.4.& # 6 q 6 : 0 w w q 6 # o O - # o   .X.X.X.X.X.X.X.X.X.X.X.X.X.X.X.X.X.X.X.X",
".X.X.X.X.X.X.X.X.X.X.X.X.X.X.X.X.X.X.X.X.Xu U i.h.` & # 5 6 ; : 0 w q 0 ; # O # O o   .X.X.X.X.X.X.X.X.X.X.X.X.X.X.X.X.X.X.X.X.X",
".X.X.X.X.X.X.X.X.X.X.X.X.X.X.X.X.X.X.X.X.X. u S *.D % . @ - : 0 q q 0 : # O ; ; # .   .X.X.X.X.X.X.X.X.X.X.X.X.X.X.X.X.X.X.X.X.X",
".X.X.X.X.X.X.X.X.X.X.X.X.X.X.X.X.X.X.X.X.X  . < _ Q 3 % @ ; 0 0 6 : ; # o O - ; o .   .X.X.X.X.X.X.X.X.X.X.X.X.X.X.X.X.X.X.X.X.X",
".X.X.X.X.X.X.X.X.X.X.X.X.X.X.X.X.X.X.X.X.X  . o .X/ T 2 - 6 0 0 < - O O o O O o .   .X.X.X.X.X.X.X.X.X.X.X.X.X.X.X.X.X.X.X.X.X.X",
".X.X.X.X.X.X.X.X.X.X.X.X.X.X.X.X.X.X.X.X.X.X    .X.XW 3 ; 6 6 1 j 3 O o o o o o .X.X.X.X.X.X.X.X.X.X.X.X.X.X.X.X.X.X.X.X.X.X.X.X",
".X.X.X.X.X.X.X.X.X.X.X.X.X.X.X.X.X.X.X.X.X.X.X.X.X.XE 3 - ; 1 h W k - o o o o o .X.X.X.X.X.X.X.X.X.X.X.X.X.X.X.X.X.X.X.X.X.X.X.X",
".X.X.X.X.X.X.X.X.X.X.X.X.X.X.X.X.X.X.X.X.X.X.X.X.X.XW 3 O < h ! [ N - O O O - .X.X.X.X.X.X.X.X.X.X.X.X.X.X.X.X.X.X.X.X.X.X.X.X.X",
".X.X.X.X.X.X.X.X.X.X.X.X.X.X.X.X.X.X.X.X.X.X.X.X.X.X/ g > j E ) { N > 2 4 1 .X.X.X.X.X.X.X.X.X.X.X.X.X.X.X.X.X.X.X.X.X.X.X.X.X.X",
".X.X.X.X.X.X.X.X.X.X.X.X.X.X.X.X.X.X.X.X.X.X.X.X.XX.[ k h W ~ ) { E j T ~ .X=.;..X.X.X.X.X.X.X.X.X.X.X.X.X.X.X.X.X.X.X.X.X.X.X.X",
".X.X.X.X.X.X.X.X.X.X.X.X.X.X.X.X.X.X.X.X.X.X.X.X) { } [ ^ ^ ( [ X.[ ! ) ...X;.;..X.X.X.X.X.X.X.X.X.X.X.X.X.X.X.X.X.X.X.X.X.X.X.X",
".X.X.X.X.X.X.X.X.X.X.X.X.X.X.X.X.X.X.X.X.X.X.X.X{ ) ) .. .} O.6.7.$.}  .o..X.X.X.X.X.X.X.X.X.X.X.X.X.X.X.X.X.X.X.X.X.X.X.X.X.X.X",
".X.X.X.X.X.X.X.X.X.X.X.X.X.X.X.X.X.X.X.X.X.X.X.X{ ) ~ { %.:.a.f.k.d.>.@.o..X.X.X.X.X.X.X.X.X.X.X.X.X.X.X.X.X.X.X.X.X.X.X.X.X.X.X",
".X.X.X.X.X.X.X.X.X.X.X.X.X.X.X.X.X.X.X.X.X.X.X.X! ( [ @.:.a.f.c.J.j.:.@.o..X.X.X.X.X.X.X.X.X.X.X.X.X.X.X.X.X.X.X.X.X.X.X.X.X.X.X",
".X.X.X.X.X.X.X.X.X.X.X.X.X.X.X.X.X.X.X.X.X.X.X.XR )  .#.,.f.c.J.H.h.$. .o..X.X.X.X.X.X.X.X.X.X.X.X.X.X.X.X.X.X.X.X.X.X.X.X.X.X.X",
".X.X.X.X.X.X.X.X.X.X.X.X.X.X.X.X.X.X.X.X.X.X.X.X.X| o.#.,.f.b.H.d.O.{ | o..X.X.X.X.X.X.X.X.X.X.X.X.X.X.X.X.X.X.X.X.X.X.X.X.X.X.X",
".X.X.X.X.X.X.X.X.X.X.X.X.X.X.X.X.X.X.X.X.X.X.X.X.X.Xo.%.$.e.r.0.O.{ { | .X.X.X.X.X.X.X.X.X.X.X.X.X.X.X.X.X.X.X.X.X.X.X.X.X.X.X.X",
".X.X.X.X.X.X.X.X.X.X.X.X.X.X.X.X.X.X.X.X.X.X.X.X.X.X6.6.<.<.7.9.9.9.r.l..X.X.X.X.X.X.X.X.X.X.X.X.X.X.X.X.X.X.X.X.X.X.X.X.X.X.X.X",
".X.X.X.X.X.X.X.X.X.X.X.X.X.X.X.X.X.X.X.X.X.X.X'..X.Xs.s.r..XD.P.P.T.R./.[..X.X.X.X.X.X.X.X.X.X.X.X.X.X.X.X.X.X.X.X.X.X.X.X.X.X.X",
".X.X.X.X.X.X.X.X.X.X.X.X.X.X.X.X.X.X.X.X.X.X'._.J.g.g.g.g..X.X[.[.[.'.[.[..X.X.X.X.X.X.X.X.X.X.X.X.X.X.X.X.X.X.X.X.X.X.X.X.X.X.X",
".X.X.X.X.X.X.X.X.X.X.X.X.X.X.X.X.X.X.X.X.X.X.X^.c.g.g.g.g..X.X.X.X.X`._.(.(..X.X.X.X.X.X.X.X.X.X.X.X.X.X.X.X.X.X.X.X.X.X.X.X.X.X",
".X.X.X.X.X.X.X.X.X.X.X.X.X.X.X.X.X.X.X.X.X.X.X.Xx.g.g.g..X.X.X.X.X.X.XJ.n.n..X.X.X.X.X.X.X.X.X.X.X.X.X.X.X.X.X.X.X.X.X.X.X.X.X.X",
".X.X.X.X.X.X.X.X.X.X.X.X.X.X.X.X.X.X.X.X.X.X.X.Xk.g.g..X.X.X.X.X.X.X.Xb.k.g..X.X.X.X.X.X.X.X.X.X.X.X.X.X.X.X.X.X.X.X.X.X.X.X.X.X",
".X.X.X.X.X.X.X.X.X.X.X.X.X.X.X.X.X.X.X.X.X.X.X.X.X.X.X.X.X.X.X.X.X.X XK.g.g..X.X.X.X.X.X.X.X.X.X.X.X.X.X.X.X.X.X.X.X.X.X.X.X.X.X",
".X.X.X.X.X.X.X.X.X.X.X.X.X.X.X.X.X.X.X.X.X.X.X.X.X.X.X.X.X.X.X.X.X.X.X.X.X.X.X.X.X.X.X.X.X.X.X.X.X.X.X.X.X.X.X.X.X.X.X.X.X.X.X.X",
".X.X.X.X.X.X.X.X.X.X.X.X.X.X.X.X.X.X.X.X.X.X.X.X.X.X.X.X.X.X.X.X.X.X.X.X.X.X.X.X.X.X.X.X.X.X.X.X.X.X.X.X.X.X.X.X.X.X.X.X.X.X.X.X"
};
