/* XPM */
static const char *player_3_1[] = {
/* columns rows colors chars-per-pixel */
"64 64 210 2 ",
"   c #050201",
".  c #0C0403",
"X  c #0B0B0B",
"o  c #0D0905",
"O  c #150401",
"+  c #130A06",
"@  c #1C0907",
"#  c #160F0D",
"$  c #16110E",
"%  c #1B1815",
"&  c #1A1713",
"*  c #240700",
"=  c #260902",
"-  c #2C0B01",
";  c #220E0A",
":  c #2A0F0D",
">  c #340C01",
",  c #390D00",
"<  c #2F1002",
"1  c #26140C",
"2  c #2B120D",
"3  c #28190C",
"4  c #351203",
"5  c #3B1302",
"6  c #3B1906",
"7  c #35130E",
"8  c #39140C",
"9  c #3E1A08",
"0  c #331C0D",
"q  c #251413",
"w  c #2B1B13",
"e  c #261C14",
"r  c #3C1512",
"t  c #3A1E15",
"y  c #2B231A",
"u  c #3C2117",
"i  c #392A19",
"p  c #372519",
"a  c #2F2A23",
"s  c #37332D",
"d  c #363637",
"f  c #421502",
"g  c #441B03",
"h  c #4A1D04",
"j  c #431D0A",
"k  c #4C1E0D",
"l  c #551B0E",
"z  c #431F1A",
"x  c #481D15",
"c  c #5B1D14",
"v  c #561D16",
"b  c #641F15",
"n  c #462005",
"m  c #4D2204",
"M  c #47210B",
"N  c #4B240B",
"B  c #522605",
"V  c #562A05",
"C  c #592C06",
"Z  c #502708",
"A  c #552B0E",
"S  c #5B2E09",
"D  c #5E310A",
"F  c #42271C",
"G  c #5C2E14",
"H  c #57241C",
"J  c #5C3112",
"K  c #5B341C",
"L  c #63340C",
"P  c #69390F",
"I  c #632112",
"U  c #66241E",
"Y  c #622B1E",
"T  c #7A2A1E",
"R  c #643512",
"E  c #6C3B12",
"W  c #64391D",
"Q  c #673A18",
"!  c #713F14",
"~  c #703F18",
"^  c #483529",
"/  c #55392D",
"(  c #573924",
")  c #503A30",
"_  c #492D22",
"`  c #6D2821",
"'  c #742B23",
"]  c #7D2C21",
"[  c #663D21",
"{  c #763225",
"}  c #7C3127",
"|  c #633E33",
" . c #723C30",
".. c #74421A",
"X. c #794519",
"o. c #754418",
"O. c #494338",
"+. c #57422E",
"@. c #724929",
"#. c #704728",
"$. c #6C4C33",
"%. c #664A3C",
"&. c #734D3C",
"*. c #434444",
"=. c #524B40",
"-. c #5D5548",
";. c #595A59",
":. c #645C4D",
">. c #755F4D",
",. c #795B47",
"<. c #675F51",
"1. c #7E585D",
"2. c #7A614F",
"3. c #7A6F5D",
"4. c #756D5C",
"5. c #7C7063",
"6. c #822E24",
"7. c #803328",
"8. c #8B3129",
"9. c #8B3D2A",
"0. c #92342B",
"q. c #9C3A2F",
"w. c #98382E",
"e. c #9C3730",
"r. c #9E3930",
"t. c #A33D32",
"y. c #834B1D",
"u. c #8A4629",
"i. c #964B2C",
"p. c #8A5729",
"a. c #94582D",
"s. c #944435",
"d. c #884F33",
"f. c #A64134",
"g. c #AC4336",
"h. c #AD4A3B",
"j. c #B44A39",
"k. c #BA4E3B",
"l. c #B24838",
"z. c #B5583E",
"x. c #A7583E",
"c. c #86623B",
"v. c #A26B3B",
"b. c #805640",
"n. c #8B6A47",
"m. c #996E47",
"M. c #9E754A",
"N. c #8B755D",
"B. c #9F7C5B",
"V. c #8D6E58",
"C. c #B96547",
"Z. c #BA6551",
"A. c #B27A50",
"S. c #827765",
"D. c #867C68",
"F. c #927B65",
"G. c #967F69",
"H. c #C7775D",
"J. c #B58456",
"K. c #9B816A",
"L. c #85827F",
"P. c #9B8C75",
"I. c #B8856C",
"U. c #AF8A73",
"Y. c #B88F72",
"T. c #A8947A",
"R. c #B8957D",
"E. c #A48B68",
"W. c #C1925F",
"Q. c #D3975D",
"!. c #C59563",
"~. c #C89964",
"^. c #D18B71",
"/. c #C09B7E",
"(. c #C5846C",
"). c #D2A36F",
"_. c #CAA379",
"`. c #95938D",
"'. c #B69D82",
"]. c #B99A88",
"[. c #A99A82",
"{. c #B4A68D",
"}. c #BDA78C",
"|. c #BCA59B",
" X c #BB91A4",
".X c #B2B0AE",
"XX c #A6A6A5",
"oX c #C09A81",
"OX c #CAAA85",
"+X c #CDB18C",
"@X c #DEB481",
"#X c #CCB69A",
"$X c #D8B798",
"%X c #C5AE94",
"&X c #CDA3AD",
"*X c #CAB9A1",
"=X c #E5C59A",
"-X c #D5C2A3",
";X c #DBC5A9",
":X c #E4CDAD",
">X c #E8C7AA",
",X c #E4D3B3",
"<X c #ECD9B7",
"1X c #EDDAB9",
"2X c #EBD6B8",
"3X c #DFB5C8",
"4X c #E4C1C5",
"5X c #ECCDC4",
"6X c #FF00FF",
"7X c black",
/* pixels */
"6X6X6X6X6X6X6X6X6X6X6X6X6X6X6X6X6X6X6X6X6X6X6X6X6X6X6X6X6X6X6X6X6X6X6X6X6X6X6X6X6X6X6X6X6X6X6X6X6X6X6X6X6X6X6X6X6X6X6X6X6X6X6X6X",
"6X6X6X6X6X6X6X6X6X6X6X6X6X6X6X6X6X6X6X6X6X6X6X6X6X6X6X6X6X6X6X6X6X6X6X6X6X6X6X6X6X6X6X6X6X6X6X6X6X6X6X6X6X6X6X6X6X6X6X6X6X6X6X6X",
"6X6X6X6X6X6X6X6X6X6X6X6X6X6X6X6X6X6X6X6X6X6X6X6X6X6X6X6X6X6X6X6X6X6X6X6X6X6X6X6X6X6X6X6X6X6X6X6X6X6X6X6X6X6X6X6X6X6X6X6X6X6X6X6X",
"6X6X6X6X6X6X6X6X6X6X6X6X6X6X6X6X6X6X6X6X6X6X6X6X6X6X6X6X6X6X6X6X6X6X6X6X6X6X6X6X6X6X6X6X6X6X6X6X6X6X6X6X6X6X6X6X6X6X6X6X6X6X6X6X",
"6X6X6X6X6X6X6X6X6X6X6X6X6X6X6X6X6X6X6X6X6X6X6X6X6X6X6X6X6X6X6X6X6X6X6X6X6X6X6X6X6X6X6X6X6X6X6X6X6X6X6X6X6X6X6X6X6X6X6X6X6X6X6X6X",
"6X6X6X6X6X6X6X6X6X6X6X6X6X6X6X6X6X6X6X6X6X6X6X6X6X6X6X6X6X6X6X6X6X6X6X6X6X6X6X6X6X6X6X6X6X6X6X6X6X6X6X6X6X6X6X6X6X6X6X6X6X6X6X6X",
"6X6X6X6X6X6X6X6X6X6X6X6X6X6X6X6X6X6X6X6X6X6X6X6X6X6X6X6X6X6X6X6X6X6X6X6X6X6X6X6X6X6X6X6X6X6X6X6X6X6X6X6X6X6X6X6X6X6X6X6X6X6X6X6X",
"6X6X6X6X6X6X6X6X6X6X6X6X6X6X6X6X6X6X6X6X6X6X6X6X6X6X6X6X6X6X6X6X6X6X6X6X6X6X6X6X6X6X6X6X6X6X6X6X6X6X6X6X6X6X6X6X6X6X6X6X6X6X6X6X",
"6X6X6X6X6X6X6X6X6X6X6X6X6X6X6X6X6X6X6X6X6X6X6X6X6X6X6X6X6X6X6X6X6X6X6X6X6X6X6X6X6X6X6X6X6X6X6X6X6X6X6X6X6X6X6X6X6X6X6X6X6X6X6X6X",
"6X6X6X6X6X6X6X6X6X6X6X6X6X6X6X6X6X6X6X6X6X6X6X6X6X6X6X6X6X6X6X6X6X6X6X6X6X6X6X6X6X6X6X6X6X6X6X6X6X6X6X6X6X6X6X6X6X6X6X6X6X6X6X6X",
"6X6X6X6X6X6X6X6X6X6X6X6X6X6X6X6X6X6X6X6X6X6X6X6X6X6X6X6X6X6X6X6X6X6X6X6X6X6X6X6X6X6X6X6X6X6X6X6X6X6X6X6X6X6X6X6X6X6X6X6X6X6X6X6X",
"6X6X6X6X6X6X6X6X6X6X6X6X6X6X6X6X6X6X6X6X6X6X6X6X6X6X6X6X6X6X6X6X6X6X6X6X6X6X6X6X6X6X6X6X6X6X6X6X6X6X6X6X6X6X6X6X6X6X6X6X6X6X6X6X",
"6X6X6X6X6X6X6X6X6X6X6X6X6X6X6X6X6X6X6X6X6X6X6X6X6X6X6X6X6X6X6X6X6X6X6X6X6X6X6X6X6X6X6X6X6X6X6X6X6X6X6X6X6X6X6X6X6X6X6X6X6X6X6X6X",
"6X6X6X6X6X6X6X6X6X6X6X6X6X6X6X6X6X6X6X6X6X6X6X6X6X6X- - - - - - - - - - - - 6X6X6X6X6X6X6X6X6X6X6X6X6X6X6X6X6X6X6X6X6X6X6X6X6X6X",
"6X6X6X6X6X6X6X6X6X6X6X6X6X6X6X6X6X6X6X6X6X6X6X6X6X4 g g g g g g g g g g g g 4 6X6X6X6X6X6X6X6X6X6X6X6X6X6X6X6X6X6X6X6X6X6X6X6X6X",
"6X6X6X6X6X6X6X6X6X6X6X6X6X6X6X6X6X6X6X6X6X6X6X6X9 n B V C S S V V S S B m B n 9 6X6X6X6X6X6X6X6X6X6X6X6X6X6X6X6X6X6X6X6X6X6X6X6X",
"6X6X6X6X6X6X6X6X6X6X6X6X6X6X6X6X6X6X6X6X6X6X6Xj J L C C L E L C C L E N g B L G 6 6X6X6X6X6X6X6X6X6X6X6X6X6X6X6X6X6X6X6X6X6X6X6X",
"6X6X6X6X6X6X6X6X6X6X6X6X6X6X6X6X6X6X6X6X6X6Xj G ..E D L E E L C C L P G N n S S 5 = 6X6X6X6X6X6X6X6X6X6X6X6X6X6X6X6X6X6X6X6X6X6X",
"6X6X6X6X6X6X6X6X6X6X6X6X6X6X6X6X6X6X6X6X6X9 J o.X.E L E ! L C V V S L R A g n m 6 - 6X6X6X6X6X6X6X6X6X6X6X6X6X6X6X6X6X6X6X6X6X6X",
"6X6X6X6X6X6X6X6X6X6X6X6X6X6X6X6X6X6X6X6Xj J ..X.E D L ! o.D V V C L E A N n m B n 6 - 6X6X6X6X6X6X6X6X6X6X6X6X6X6X6X6X6X6X6X6X6X",
"6X6X6X6X6X6X6X6X6X6X6X6X6X6X6X6X6X6X6X= M ~ X.E D V S P E L D C C L R N g B C C V Z M 6 6X6X6X6X6X6X6X6X6X6X6X6X6X6X6X6X6X6X6X6X",
"6X6X6X6X6X6X6X6X6X6X6X6X6X6X6X6X6X6X6X- N E E D C C S D L E L C V C S V B V C C C L R j - 6X6X6X6X6X6X6X6X6X6X6X6X6X6X6X6X6X6X6X",
"6X6X6X6X6X6X6X6X6X6X6X6X6X6X6X6X6X6X- 6 Z L L C C L P L D L L C V C C C C C V V C L D g - 6X6X6X6X6X6X6X6X6X6X6X6X6X6X6X6X6X6X6X",
"6X6X6X6X6X6X6X6X6X6X6X6X6X6X6X6X6X6X< g V C C V C L E L C C C C C V m m m V B m V V n 4 6X6X6X6X6X6X6X6X6X6X6X6X6X6X6X6X6X6X6X6X",
"6X6X6X6X6X6X6X6X6X6X6X6X6X6X6X6X6X6X< n V V V V C S D S V V V C V m 5 6 g m n g n g 4 6X6X6X6X6X6X6X6X6X6X6X6X6X6X6X6X6X6X6X6X6X",
"6X6X6X6X6X6X6X6X6X6X6X6X6X6X6X6X6X6X< n V C V V C C V C V V C V m 5 5 K K N J W N 4 - 6X6X6X6X6X6X6X6X6X6X6X6X6X6X6X6X6X6X6X6X6X",
"6X6X6X6X6X6X6X6X6X6X6X6X6X6X6X6X6X= 4 n V V V V V V V V C D C B 5 5 K m.m.$.n.M.$.F 6X6X6X6X6X6X6X6X6X6X6X6X6X6X6X6X6X6X6X6X6X6X",
"6X6X6X6X6X6X6X6X6X6X6X6X6X6X6X6X= - 4 n V V m h B V C C L E L m 5 K m._.+X'.+X$XR.2.u 6X6X6X6X6X6X6X6X6X6X6X6X6X6X6X6X6X6X6X6X6X",
"6X6X6X6X6X6X6X6X6X6X6X6X6X6X6X6X= - 5 m C V g f m V C L E E L n 6 #.!.=X2X2X<X1X;XF.u 6X6X6X6X6X6X6X6X6X6X6X6X6X6X6X6X6X6X6X6X6X",
"6X6X6X6X6X6X6X6X6X6X6X6X6X6X6X6X= - 5 m C V g f m V S E E E L n 6 @.!.=X<X<X:X:X;XF.u 6X6X6X6X6X6X6X6X6X6X6X6X6X6X6X6X6X6X6X6X6X",
"6X6X6X6X6X6X6X6X6X6X6X6X6X6X6X6X= - 5 m C V g f m C V A ~ p.X.m 6 @.!.=X<X:X/.Y.+XF.u 6X6X6X6X6X6X6X6X6X6X6X6X6X6X6X6X6X6X6X6X6X",
"6X6X6X6X6X6X6X6X6X6X6X6X6X6X6X6X= - 5 m C V g f m C m 6 W v.p.B 6 @.!.=X2X;XV.b.'.F.u 6X6X6X6X6X6X6X6X6X6X6X6X6X6X6X6X6X6X6X6X6X",
"6X6X6X6X6X6X6X6X6X6X6X6X6X6X6X6X= - 5 m C V g f m C m 5 G a.y.B 6 @.!.=X1X-X>.+.T.K._ 6X6X6X6X6X6X6X6X6X6X6X6X6X6X6X6X6X6X6X6X6X",
"6X6X6X6X6X6X6X6X6X6X6X6X6X6X6X6X6X- 4 n C V g f m C B 5 j R L n 6 @.~.=X1X-X:.O.[.}.V./ 6X6X6X6X6X6X6X6X6X6X6X6X6X6X6X6X6X6X6X6X",
"6X6X6X6X6X6X6X6X6X6X6X6X6X6X6X6X6X= > g V V g f B C B f 5 6 n n 6 [ J.$X1X;X5.:.{.-XT.%.6X6X6X6X6X6X6X6X6X6X6X6X6X6X6X6X6X6X6X6X",
"6X6X6X6X6X6X6X6X6X6X6X6X6X6X6X6X6X6X- 5 h B g f m C B f 5 g m m 5 j &.].4X4X|.{.*X'.>.^ 6X6X6X6X6X6X6X6X6X6X6X6X6X6X6X6X6X6X6X6X",
"6X6X6X6X6X6X6X6X6X6X6X6X6X6X6X6X6X6X- > g m g 5 g B B h h V C B g 5 z 1. X3X5X2X:XG.F 6X6X6X6X6X6X6X6X6X6X6X6X6X6X6X6X6X6X6X6X6X",
"6X6X6X6X6X6X6X6X6X6X6X6X6X6X6X6X6X6X- > f m g , 5 h V V B V V V B g 5 z 1.&X5X2X-XN.t 6X6X6X6X6X6X6X6X6X6X6X6X6X6X6X6X6X6X6X6X6X",
"6X6X6X6X6X6X6X6X6X6X6X6X6X6X6X6X6X6X- - 4 f 5 > , g V C B h m V C B g 4 | R.>X#XG.%.6X6X6X6X6X6X6X6X6X6X6X6X6X6X6X6X6X6X6X6X6X6X",
"6X6X6X6X6X6X6X6X6X6X6X6X6X6X6X6X6X6X6X- - , 5 5 , f m V B g h B V B g 4 K A._.K./ 2 6X6X6X6X6X6X6X6X6X6X6X6X6X6X6X6X6X6X6X6X6X6X",
"6X6X6X6X6X6X6X6X6X6X6X6X6X6X6X6X6X6X6X= - , g g 5 , f m B m g g m n 5 4 G a.d.( 7 * 6X6X6X6X6X6X6X6X6X6X6X6X6X6X6X6X6X6X6X6X6X6X",
"6X6X6X6X6X6X6X6X6X6X6X6X6X6X6X6X6X6X6X6X- > 5 g 5 > , f m V m g g k c c G G k , - = 6X6X6X6X6X6X6X6X6X6X6X6X6X6X6X6X6X6X6X6X6X6X",
"6X6X6X6X6X6X6X6X6X6X6X6X6X6X6X6X6X6X6X6X6X= > , , > > , g V V n 5 v 8.0.U 2 * - - 6X6X6X6X6X6X6X6X6X6X6X6X6X6X6X6X6X6X6X6X6X6X6X",
"6X6X6X6X6X6X6X6X6X6X6X6X6X6X6X6X6X6X6X6X6XO * > , , , , f V C n 5 c w.g.' ; O - 6X6X6X6X6X6X6X6X6X6X6X6X6X6X6X6X6X6X6X6X6X6X6X6X",
"6X6X6X6X6X6X6X6X6X6X6X6X6X6X6X6X6X6X6X6X6X  O * > f l f f B B h l ' t.l.{ ; . * 6X6X6X6X6X6X6X6X6X6X6X6X6X6X6X6X6X6X6X6X6X6X6X6X",
"6X6X6X6X6X6X6X6X6X6X6X6X6X6X6X6X6X6X6X6X6X6X  O , b T c h m h l ] r.j.j.{ ;   6X6X6X6X6X6X6X6X6X6X6X6X6X6X6X6X6X6X6X6X6X6X6X6X6X",
"6X6X6X6X6X6X6X6X6X6X6X6X6X6X6X6X6X6X6X6X6X6X  @ v 6.0.6.I h c ] t.j.k.j.{ ; 6X6X6X6X6X6X6X6X6X6X6X6X6X6X6X6X6X6X6X6X6X6X6X6X6X6X",
"6X6X6X6X6X6X6X6X6X6X6X6X6X6X6X6X6X6X6X6X6X6X; x 6.e.r.e.6.I T t.j.j.j.g.7.r @ 6X6X6X6X6X6X6X6X6X6X6X6X6X6X6X6X6X6X6X6X6X6X6X6X6X",
"6X6X6X6X6X6X6X6X6X6X6X6X6X6X6X6X6X6X6X6X6X+ H s.h.h.f.g.t.0.q.l.j.g.f.t.w.' r . 6X6X6X6X6X6X6X6X6X6X6X6X6X6X6X6X6X6X6X6X6X6X6X6X",
"6X6X6X6X6X6X6X6X6X6X6X6X6X6X6X6X6X6X6X6X6X# &.(.^.H.C.z.g.t.g.l.f.t.g.g.g.q.x . 6X6X6X6X6X6X6X6X6X6X6X6X6X6X6X6X6X6X6X6X6X6X6X6X",
"6X6X6X6X6X6X6X6X6X6X6X6X6X6X6X6X6X6X6X6X6X& 3.-X>XOXA.z.l.g.g.g.r.r.g.j.k.g.Y 1 6X6X6X6X6X6X6X6X6X6X6X6X6X6X6X6X6X6X6X6X6X6X6X6X",
"6X6X6X6X6X6X6X6X6X6X6X6X6X6X6X6X6X6X6X6X6X% S.,X,XT.$.s.l.l.j.j.g.r.r.g.k.j.i.W 1 6X6X6X6X6X6X6X6X6X6X6X6X6X6X6X6X6X6X6X6X6X6X6X",
"6X6X6X6X6X6X6X6X6X6X6X6X6X6X6X6X6X6X6X6X6X% S.,X,XD.p ' g.k.k.k.j.g.t.g.f.9.i.u.0   6X6X6X6X6X6X6X6X6X6X6X6X6X6X6X6X6X6X6X6X6X6X",
"6X6X6X6X6X6X6X6X6X6X6X6X6X6X6X6X6X6X6X6X6X% 3.#X#X4.w U t.j.k.k.k.j.j.l.7.x W ..3   6X6X6X6X6X6X6X6X6X6X6X6X6X6X6X6X6X6X6X6X6X6X",
"6X6X6X6X6X6X6X6X6X6X6X6X6X6X6X6X6X6X6X6X6X6XO.:.:.s 1 U r.g.l.k.k.k.k.g.` ; 3 0 +   6X6X6X6X6X6X6X6X6X6X6X6X6X6X6X6X6X6X6X6X6X6X",
"6X6X6X6X6X6X6X6X6X6X6X6X6X6X6X6X6X6X6X6X6X6XX # q 2 r ' 8.6.7.s.Z.H.Z.s.v +       6X6X6X6X6X6X6X6X6X6X6X6X6X6X6X6X6X6X6X6X6X6X6X",
"6X6X6X6X6X6X6X6X6X6X6X6X6X6X6X6X6X6X6X6X6X6X  @ H ' } 8.` 7 : / U.$XoX%.: 6XX X 6X6X6X6X6X6X6X6X6X6X6X6X6X6X6X6X6X6X6X6X6X6X6X6X",
"6X6X6X6X6X6X6X6X6X6X6X6X6X6X6X6X6X6X6X6X6X6X  w d.C.x.{ 7 .   a 3.{.%X,.7 q ;.;.d 6X6X6X6X6X6X6X6X6X6X6X6X6X6X6X6X6X6X6X6X6X6X6X",
"6X6X6X6X6X6X6X6X6X6X6X6X6X6X6X6X6X6X6X6X6X6X  p m.Q.J.$.e .   6Xy 3.%XI. .) `.XX*.X 6X6X6X6X6X6X6X6X6X6X6X6X6X6X6X6X6X6X6X6X6X6X",
"6X6X6X6X6X6X6X6X6X6X6X6X6X6X6X6X6X6X6X6X6X6X  i M.Q.~.E.-.% 6X6X$ <.#X$XI.B.*X.X*.X 6X6X6X6X6X6X6X6X6X6X6X6X6X6X6X6X6X6X6X6X6X6X",
"6X6X6X6X6X6X6X6X6X6X6X6X6X6X6X6X6X6X6X6X6X6X6Xy $.c.n.N.-.% 6X6X6X=.P.+X@X).'.L.d 6X6X6X6X6X6X6X6X6X6X6X6X6X6X6X6X6X6X6X6X6X6X6X",
"6X6X6X6X6X6X6X6X6X6X6X6X6X6X6X6X6X6X6X6X6X6X6X6Xe e e y % . 6X6X6X% ^ n.W.J.,.s 6X6X6X6X6X6X6X6X6X6X6X6X6X6X6X6X6X6X6X6X6X6X6X6X",
"6X6X6X6X6X6X6X6X6X6X6X6X6X6X6X6X6X6X6X6X6X6X6X6X6X6X6X6X6X6X6X6X6X6X+ i +.( i 6X6X6X6X6X6X6X6X6X6X6X6X6X6X6X6X6X6X6X6X6X6X6X6X6X",
"6X6X6X6X6X6X6X6X6X6X6X6X6X6X6X6X6X6X6X6X6X6X6X6X6X6X6X6X6X6X6X6X6X6X  . o o 6X6X6X6X6X6X6X6X6X6X6X6X6X6X6X6X6X6X6X6X6X6X6X6X6X6X"
};
