/* XPM */
static const char *player_2_4[] = {
/* columns rows colors chars-per-pixel */
"64 64 185 2 ",
"   c #270901",
".  c #2B0B01",
"X  c #2A0F0B",
"o  c #330B00",
"O  c #3A0E01",
"+  c #2F1002",
"@  c #2A120D",
"#  c #341204",
"$  c #3B1402",
"%  c #3E1903",
"&  c #3C1A09",
"*  c #3C1C12",
"=  c #3E231A",
"-  c #421602",
";  c #451B03",
":  c #491D03",
">  c #431D09",
",  c #4C1E0C",
"<  c #4D1609",
"1  c #531B0B",
"2  c #551A0C",
"3  c #5C1C11",
"4  c #541B11",
"5  c #462005",
"6  c #4C2204",
"7  c #4B230A",
"8  c #46210B",
"9  c #512605",
"0  c #562A05",
"q  c #592C06",
"w  c #51270B",
"e  c #532A0D",
"r  c #5B2E09",
"t  c #5E3109",
"y  c #472310",
"u  c #4A2413",
"i  c #44281C",
"p  c #532C12",
"a  c #5C2E11",
"s  c #5E3415",
"d  c #63340C",
"f  c #68380F",
"g  c #652114",
"h  c #672417",
"j  c #72251B",
"k  c #772A1D",
"l  c #7A2B1F",
"z  c #633511",
"x  c #673812",
"c  c #6B3B12",
"v  c #643C1E",
"b  c #763B1C",
"n  c #4A2924",
"m  c #4C3125",
"M  c #553C2E",
"N  c #6A3B23",
"B  c #724115",
"V  c #7A4519",
"C  c #774418",
"Z  c #494238",
"A  c #504135",
"S  c #6E4526",
"D  c #7C4A26",
"F  c #654C3D",
"G  c #634533",
"H  c #744E3B",
"J  c #7D5333",
"K  c #6D5444",
"L  c #765945",
"P  c #6C6255",
"I  c #7D6451",
"U  c #716151",
"Y  c #822D24",
"T  c #892F26",
"R  c #8E3228",
"E  c #883625",
"W  c #95362C",
"Q  c #9A352F",
"!  c #9C3B2E",
"~  c #97382C",
"^  c #9F3A31",
"/  c #9A3530",
"(  c #A33D32",
")  c #88572D",
"_  c #94562B",
"`  c #A54132",
"'  c #AD4435",
"]  c #AD4D35",
"[  c #B14B36",
"{  c #B24738",
"}  c #B54B39",
"|  c #B94D3A",
" . c #B14537",
".. c #AA5231",
"X. c #B55336",
"o. c #B55D37",
"O. c #B7533B",
"+. c #BA543A",
"@. c #96683F",
"#. c #96683F",
"$. c #A56B38",
"%. c #B56535",
"&. c #B76637",
"*. c #875E4A",
"=. c #815C53",
"-. c #AD4E40",
";. c #BB5743",
":. c #BC5845",
">. c #B35842",
",. c #8E6B4C",
"<. c #8E6C56",
"1. c #8B735E",
"2. c #9A7552",
"3. c #BD6244",
"4. c #BD6C45",
"5. c #B96E49",
"6. c #8A626D",
"7. c #8B7A66",
"8. c #997177",
"9. c #C17B46",
"0. c #C27849",
"q. c #C37756",
"w. c #AB835A",
"e. c #BA8456",
"r. c #AD8467",
"t. c #BD9366",
"y. c #AC947B",
"u. c #BC9575",
"i. c #C48349",
"p. c #CB8A56",
"a. c #C58B5E",
"s. c #CD915A",
"d. c #D29A5D",
"f. c #CC8B66",
"g. c #CF9A64",
"h. c #D39D68",
"j. c #CC937C",
"k. c #CD9C75",
"l. c #D2987E",
"z. c #D6A36C",
"x. c #D7AD7B",
"c. c #D9AE7C",
"v. c #D6A776",
"b. c #DAB07D",
"n. c #B49E83",
"m. c #B5A187",
"M. c #BFA68B",
"N. c #B0A289",
"B. c #BEA99A",
"V. c #D49980",
"C. c #D4A98B",
"Z. c #C3AE9E",
"A. c #C6B296",
"S. c #CBB495",
"D. c #CBB79A",
"F. c #CDBA9C",
"G. c #DDBC92",
"H. c #D4BB9A",
"J. c #E0BA91",
"K. c #C599AF",
"L. c #C9A2A8",
"P. c #CDBDA0",
"I. c #D0BEA0",
"U. c #DFB7B7",
"Y. c #DBBABD",
"T. c #DDC19B",
"R. c #E2C197",
"E. c #E2C69E",
"W. c #DDC4A4",
"Q. c #E6CDA7",
"!. c #E5CDAC",
"~. c #E2C5AA",
"^. c #EAD1AA",
"/. c #E7D0AB",
"(. c #E7CFB0",
"). c #E9D2B1",
"_. c #ECD9B9",
"`. c #EAD3B7",
"'. c #F0DEBC",
"]. c #E6BECB",
"[. c #E8C0CC",
"{. c #EED4C2",
"}. c #F9F3EC",
"|. c #FF00FF",
" X c black",
/* pixels */
"|.|.|.|.|.|.|.|.|.|.|.|.|.|.|.|.|.|.|.|.|.|.|.|.|.|.|.|.|.|.|.|.|.|.|.|.|.|.|.|.|.|.|.|.|.|.|.|.|.|.|.|.|.|.|.|.|.|.|.|.|.|.|.|.",
"|.|.|.|.|.|.|.|.|.|.|.|.|.|.|.|.|.|.|.|.|.|.|.|.|.|.|.|.|.|.|.|.|.|.|.|.|.|.|.|.|.|.|.|.|.|.|.|.|.|.|.|.|.|.|.|.|.|.|.|.|.|.|.|.",
"|.|.|.|.|.|.|.|.|.|.|.|.|.|.|.|.|.|.|.|.|.|.|.|.|.|.|.|.|.|.|.|.|.|.|.|.|.|.|.|.|.|.|.|.|.|.|.|.|.|.|.|.|.|.|.|.|.|.|.|.|.|.|.|.",
"|.|.|.|.|.|.|.|.|.|.|.|.|.|.|.|.|.|.|.|.|.|.|.|.|.|.|.|.|.|.|.|.|.|.|.|.|.|.|.|.|.|.|.|.|.|.|.|.|.|.|.|.|.|.|.|.|.|.|.|.|.|.|.|.",
"|.|.|.|.|.|.|.|.|.|.|.|.|.|.|.|.|.|.|.|.|.|.|.|.|.|.|.|.|.|.|.|.|.|.|.|.|.|.|.|.|.|.|.|.|.|.|.|.|.|.|.|.|.|.|.|.|.|.|.|.|.|.|.|.",
"|.|.|.|.|.|.|.|.|.|.|.|.|.|.|.|.|.|.|.|.|.|.|.|.|.|.|.|.|.|.|.|.|.|.|.|.|.|.|.|.|.|.|.|.|.|.|.|.|.|.|.|.|.|.|.|.|.|.|.|.|.|.|.|.",
"|.|.|.|.|.|.|.|.|.|.|.|.|.|.|.|.|.|.|.|.|.|.|.|.|.|.|.|.|.|.|.|.|.|.|.|.|.|.|.|.|.|.|.|.|.|.|.|.|.|.|.|.|.|.|.|.|.|.|.|.|.|.|.|.",
"|.|.|.|.|.|.|.|.|.|.|.|.|.|.|.|.|.|.|.|.|.|.|.|.|.|.|.|.|.|.|.|.|.|.|.|.|.|.|.|.|.|.|.|.|.|.|.|.|.|.|.|.|.|.|.|.|.|.|.|.|.|.|.|.",
"|.|.|.|.|.|.|.|.|.|.|.|.|.|.|.|.|.|.|.|.|.|.|.|.|.|.|.|.|.|.|.|.|.|.|.|.|.|.|.|.|.|.|.|.|.|.|.|.|.|.|.|.|.|.|.|.|.|.|.|.|.|.|.|.",
"|.|.|.|.|.|.|.|.|.|.|.|.|.|.|.|.|.|.|.|.|.|.|.|.|.|.|.|.|.|.|.|.|.|.|.|.|.|.|.|.|.|.|.|.|.|.|.|.|.|.|.|.|.|.|.|.|.|.|.|.|.|.|.|.",
"|.|.|.|.|.|.|.|.|.|.|.|.|.|.|.|.|.|.|.|.|.|.|.|.. # # + + + + + + + + + . |.|.|.|.|.|.|.|.|.|.|.|.|.|.|.|.|.|.|.|.|.|.|.|.|.|.|.",
"|.|.|.|.|.|.|.|.|.|.|.|.|.|.|.|.|.|.|.|.|.|.|.# ; : : : 5 5 5 5 5 5 : : % # |.|.|.|.|.|.|.|.|.|.|.|.|.|.|.|.|.|.|.|.|.|.|.|.|.|.",
"|.|.|.|.|.|.|.|.|.|.|.|.|.|.|.|.|.|.|.|.|.|.& 7 9 6 6 r d q 0 q d t q 0 w 7 & |.|.|.|.|.|.|.|.|.|.|.|.|.|.|.|.|.|.|.|.|.|.|.|.|.",
"|.|.|.|.|.|.|.|.|.|.|.|.|.|.|.|.|.|.|.|.|.# e z r 5 > a c t 0 d c c t q d x e # |.|.|.|.|.|.|.|.|.|.|.|.|.|.|.|.|.|.|.|.|.|.|.|.",
"|.|.|.|.|.|.|.|.|.|.|.|.|.|.|.|.|.|.|.|.|.. 7 r 7 7 r z d q 0 r f c c d f C c e & |.|.|.|.|.|.|.|.|.|.|.|.|.|.|.|.|.|.|.|.|.|.|.",
"|.|.|.|.|.|.|.|.|.|.|.|.|.|.|.|.|.|.|.|.. # 5 6 ; 7 z z d q 0 0 r c B f d B V c 7 & |.|.|.|.|.|.|.|.|.|.|.|.|.|.|.|.|.|.|.|.|.|.",
"|.|.|.|.|.|.|.|.|.|.|.|.|.|.|.|.|.|.|.. $ 5 9 0 6 : 7 z f t 0 0 r c B f q d B V c w # |.|.|.|.|.|.|.|.|.|.|.|.|.|.|.|.|.|.|.|.|.",
"|.|.|.|.|.|.|.|.|.|.|.|.|.|.|.|.|.|.|.8 w 0 q q 0 5 5 t f r 0 r f c c t 0 q f B V a # |.|.|.|.|.|.|.|.|.|.|.|.|.|.|.|.|.|.|.|.|.",
"|.|.|.|.|.|.|.|.|.|.|.|.|.|.|.|.|.|.# e x t q q q 0 0 q q q 0 t c c t t r q q f c r # |.|.|.|.|.|.|.|.|.|.|.|.|.|.|.|.|.|.|.|.|.",
"|.|.|.|.|.|.|.|.|.|.|.|.|.|.|.|.|.|.# 7 d q 0 0 q q 0 0 0 0 q r d t t f f r 0 q d r : # |.|.|.|.|.|.|.|.|.|.|.|.|.|.|.|.|.|.|.|.",
"|.|.|.|.|.|.|.|.|.|.|.|.|.|.|.|.|.|.. % 6 9 6 5 9 9 : : 9 0 q q q 0 r f f r 0 0 q 0 6 $   |.|.|.|.|.|.|.|.|.|.|.|.|.|.|.|.|.|.|.",
"|.|.|.|.|.|.|.|.|.|.|.|.|.|.|.|.|.|.|.. % 5 5 8 6 5 > $ - 9 0 0 0 0 q r r q 0 0 0 q 6 $   |.|.|.|.|.|.|.|.|.|.|.|.|.|.|.|.|.|.|.",
"|.|.|.|.|.|.|.|.|.|.|.|.|.|.|.|.|.|.|.|.. > v S p s S u # - 9 0 q q 0 0 0 0 0 0 q q 6 # . |.|.|.|.|.|.|.|.|.|.|.|.|.|.|.|.|.|.|.",
"|.|.|.|.|.|.|.|.|.|.|.|.|.|.|.|.|.|.|.|.i G 2.w.L ,.w.J u $ : q t t q 0 0 0 9 9 0 q 9 $ . |.|.|.|.|.|.|.|.|.|.|.|.|.|.|.|.|.|.|.",
"|.|.|.|.|.|.|.|.|.|.|.|.|.|.|.|.|.|.|.|.F y.H.T.S.D.G.t.J > - r c f r q q 0 : ; 9 0 9 - o . |.|.|.|.|.|.|.|.|.|.|.|.|.|.|.|.|.|.",
"|.|.|.|.|.|.|.|.|.|.|.|.|.|.|.|.|.|.|.X K D.'._._._.^.c.#.y % q f c f t q 0 ; - 9 q 9 - o . |.|.|.|.|.|.|.|.|.|.|.|.|.|.|.|.|.|.",
"|.|.|.|.|.|.|.|.|.|.|.|.|.|.|.|.|.|.|.X K A.!.W.(._.^.c.#.y % r c B c t q 0 ; - 6 q 9 - o . |.|.|.|.|.|.|.|.|.|.|.|.|.|.|.|.|.|.",
"|.|.|.|.|.|.|.|.|.|.|.|.|.|.|.|.|.|.|.X K M.u.r.H._.^.x.#.y % c ) D p 9 q 0 ; - 6 q 9 - o . |.|.|.|.|.|.|.|.|.|.|.|.|.|.|.|.|.|.",
"|.|.|.|.|.|.|.|.|.|.|.|.|.|.|.|.|.|.|.X K n.<.H M._.^.x.#.y % B $.) > ; 0 0 ; - 6 q 9 - o . |.|.|.|.|.|.|.|.|.|.|.|.|.|.|.|.|.|.",
"|.|.|.|.|.|.|.|.|.|.|.|.|.|.|.|.|.|.|.= I m.U A m._.^.x.#.y % c _ b % ; 0 9 ; - 9 q 9 - o . |.|.|.|.|.|.|.|.|.|.|.|.|.|.|.|.|.|.",
"|.|.|.|.|.|.|.|.|.|.|.|.|.|.|.|.|.|.i I m.A.P Z N._.^.x.#.y % q a , $ : 9 : ; 6 0 q 9 $ . . |.|.|.|.|.|.|.|.|.|.|.|.|.|.|.|.|.|.",
"|.|.|.|.|.|.|.|.|.|.|.|.|.|.|.|.|.|.n 1.A.I.7.P B.{.~.u.J > - 6 ; $ $ 5 6 - : 0 q 0 6 # . |.|.|.|.|.|.|.|.|.|.|.|.|.|.|.|.|.|.|.",
"|.|.|.|.|.|.|.|.|.|.|.|.|.|.|.|.|.|.|.M 7.F.P.Z.Y.[.L.=.u $ : 9 6 - - : : - : 0 0 6 $ .   |.|.|.|.|.|.|.|.|.|.|.|.|.|.|.|.|.|.|.",
"|.|.|.|.|.|.|.|.|.|.|.|.|.|.|.|.|.|.|.@ K D.'.{.].K.6.n # - 9 0 0 9 : ; - $ : 0 0 : O .   |.|.|.|.|.|.|.|.|.|.|.|.|.|.|.|.|.|.|.",
"|.|.|.|.|.|.|.|.|.|.|.|.|.|.|.|.|.|.|.X F n.!._.U.8.n # - 9 9 0 0 0 9 - O O : 0 9 ; o .   |.|.|.|.|.|.|.|.|.|.|.|.|.|.|.|.|.|.|.",
"|.|.|.|.|.|.|.|.|.|.|.|.|.|.|.|.|.|.|.|.m L n.~.C.*.& $ 9 0 6 : 9 q 9 - o O : 9 ; $ . . |.|.|.|.|.|.|.|.|.|.|.|.|.|.|.|.|.|.|.|.",
"|.|.|.|.|.|.|.|.|.|.|.|.|.|.|.|.|.|.|.|.|.* K r.e.J & ; 9 6 ; ; : 6 : ; - ; 6 6 $ o . |.|.|.|.|.|.|.|.|.|.|.|.|.|.|.|.|.|.|.|.|.",
"|.|.|.|.|.|.|.|.|.|.|.|.|.|.|.|.|.|.|.|.|.. * N _ D > : 5 ; : : : - - : 9 9 0 6 $ . . |.|.|.|.|.|.|.|.|.|.|.|.|.|.|.|.|.|.|.|.|.",
"|.|.|.|.|.|.|.|.|.|.|.|.|.|.|.|.|.|.|.|.|.. . - b E h , - ; ; 1 g j h 2 6 9 6 - o . |.|.|.|.|.|.|.|.|.|.|.|.|.|.|.|.|.|.|.|.|.|.",
"|.|.|.|.|.|.|.|.|.|.|.|.|.|.|.|.|.|.|.|.|.. . o |.|.Y 4 % 6 ; 1 Y ! R 3 - : - O . |.|.|.|.|.|.|.|.|.|.|.|.|.|.|.|.|.|.|.|.|.|.|.",
"|.|.|.|.|.|.|.|.|.|.|.|.|.|.|.|.|.|.|.|.|.|..   |.|.R 3 - 6 : 2 T ' ! g O $ O o |.|.|.|.|.|.|.|.|.|.|.|.|.|.|.|.|.|.|.|.|.|.|.|.",
"|.|.|.|.|.|.|.|.|.|.|.|.|.|.|.|.|.|.|.|.|.|.|.|.|.|.T 3 $ ; 2 j ~ { ' k O o o |.|.|.|.|.|.|.|.|.|.|.|.|.|.|.|.|.|.|.|.|.|.|.|.|.",
"|.|.|.|.|.|.|.|.|.|.|.|.|.|.|.|.|.|.|.|.|.|.|.|.|.|.R 3 O < j ~ ' | | ` |.O |.|.|.|.|.|.|.|.|.|.|.|.|.|.|.|.|.|.|.|.|.|.|.|.|.|.",
"|.|.|.|.|.|.|.|.|.|.|.|.|.|.|.|.|.|.|.|.|.|.|.|.|.|.~ g 1 j R ( } | } ' T |.|.|.|.|.|.|.|.|.|.|.|.|.|.|.|.|.|.|.|.|.|.|.|.|.|.|.",
"|.|.|.|.|.|.|.|.|.|.|.|.|.|.|.|.|.|.|.|.|.|.|.|.|.' ! l k ~ ( ( { | } ' ( |.|.|.|.|.|.|.|.|.|.|.|.|.|.|.|.|.|.|.|.|.|.|.|.|.|.|.",
"|.|.|.|.|.|.|.|.|.|.|.|.|.|.|.|.|.|.|.|.|.|.|.|.( ( ( W ~ ' ' ` | ;.:.O.| |.|.|.|.|.|.|.|.|.|.|.|.|.|.|.|.|.|.|.|.|.|.|.|.|.|.|.",
"|.|.|.|.|.|.|.|.|.|.|.|.|.|.|.|.|.|.|.|.|.|.|.|.' ' ( Q ^ { X.o.0.f.f.q.o.|.|.|.|.|.|.|.|.|.|.|.|.|.|.|.|.|.|.|.|.|.|.|.|.|.|.|.",
"|.|.|.|.|.|.|.|.|.|.|.|.|.|.|.|.|.|.|.|.|.|.|.|.| } ( Q ^ [ &.9.h.G.G.f.%.|.|.|.|.|.|.|.|.|.|.|.|.|.|.|.|.|.|.|.|.|.|.|.|.|.|.|.",
"|.|.|.|.|.|.|.|.|.|.|.|.|.|.|.|.|.|.|.|.|.|.|.|.| ` / ( ] o.9.g.G./.T.a.%.|.|.|.|.|.|.|.|.|.|.|.|.|.|.|.|.|.|.|.|.|.|.|.|.|.|.|.",
"|.|.|.|.|.|.|.|.|.|.|.|.|.|.|.|.|.|.|.|.|.|.|.|.|.( ( ' X.&.i.v.E.E.k.5...|.|.|.|.|.|.|.|.|.|.|.|.|.|.|.|.|.|.|.|.|.|.|.|.|.|.|.",
"|.|.|.|.|.|.|.|.|.|.|.|.|.|.|.|.|.|.|.|.|.|.|.|.|.'  .} X.&.9.v.E.v.5.] ` |.|.|.|.|.|.|.|.|.|.|.|.|.|.|.|.|.|.|.|.|.|.|.|.|.|.|.",
"|.|.|.|.|.|.|.|.|.|.|.|.|.|.|.|.|.|.|.|.|.|.|.|.|.|.' } O.+.4.|.|.q.O.{ ' |.|.|.|.|.|.|.|.|.|.|.|.|.|.|.|.|.|.|.|.|.|.|.|.|.|.|.",
"|.|.|.|.|.|.|.|.|.|.|.|.|.|.|.|.|.|.|.|.|.|.|.|.|.5.>.3.3.+.|.|.|.' } | |.|.|.|.|.|.|.|.|.|.|.|.|.|.|.|.|.|.|.|.|.|.|.|.|.|.|.|.",
"|.|.|.|.|.|.|.|.|.|.|.|.|.|.|.|.|.|.|.|.|.|.|.|.d.s.p.p.p.|.:.;.-.-.:.|.|.|.|.|.|.|.|.|.|.|.|.|.|.|.|.|.|.|.|.|.|.|.|.|.|.|.|.|.",
"|.|.|.|.|.|.|.|.|.|.|.|.|.|.|.|.|.|.|.|.|.|.|.|.d.d.d.d.d.|.V.l.j.j.l.|.|.|.|.|.|.|.|.|.|.|.|.|.|.|.|.|.|.|.|.|.|.|.|.|.|.|.|.|.",
"|.|.|.|.|.|.|.|.|.|.|.|.|.|.|.|.|.|.|.|.|.|.|.|.d.d.d.d.d.|.|.!.!.(.).).|.|.|.|.|.|.|.|.|.|.|.|.|.|.|.|.|.|.|.|.|.|.|.|.|.|.|.|.",
"|.|.|.|.|.|.|.|.|.|.|.|.|.|.|.|.|.|.|.|.|.|.|.|.|.d.d.d.d.|.|.|._._._._.|.|.|.|.|.|.|.|.|.|.|.|.|.|.|.|.|.|.|.|.|.|.|.|.|.|.|.|.",
"|.|.|.|.|.|.|.|.|.|.|.|.|.|.|.|.|.|.|.|.|.|.|.|.|.|.d.d.d.|.|.|.|._._._._.|.|.|.|.|.|.|.|.|.|.|.|.|.|.|.|.|.|.|.|.|.|.|.|.|.|.|.",
"|.|.|.|.|.|.|.|.|.|.|.|.|.|.|.|.|.|.|.|.|.|.|.|.|.|.|.z.z.|.|.|.|.Q.Q.Q.Q.|.|.|.|.|.|.|.|.|.|.|.|.|.|.|.|.|.|.|.|.|.|.|.|.|.|.|.",
"|.|.|.|.|.|.|.|.|.|.|.|.|.|.|.|.|.|.|.|.|.|.|.|.|.|.|.R.R.|.|.|.|.|.c.c.b.|.|.|.|.|.|.|.|.|.|.|.|.|.|.|.|.|.|.|.|.|.|.|.|.|.|.|.",
"|.|.|.|.|.|.|.|.|.|.|.|.|.|.|.|.|.|.|.|.|.|.|.|.|.|.|.|.|.|.|.|.|.J.h.d.|.|.|.|.|.|.|.|.|.|.|.|.|.|.|.|.|.|.|.|.|.|.|.|.|.|.|.|.",
"|.|.|.|.|.|.|.|.|.|.|.|.|.|.|.|.|.|.|.|.|.|.|.|.|.|.|.|.|.|.|.|.}.!.z.|.|.|.|.|.|.|.|.|.|.|.|.|.|.|.|.|.|.|.|.|.|.|.|.|.|.|.|.|.",
"|.|.|.|.|.|.|.|.|.|.|.|.|.|.|.|.|.|.|.|.|.|.|.|.|.|.|.|.|.|.|.|.|.|.|.|.|.|.|.|.|.|.|.|.|.|.|.|.|.|.|.|.|.|.|.|.|.|.|.|.|.|.|.|.",
"|.|.|.|.|.|.|.|.|.|.|.|.|.|.|.|.|.|.|.|.|.|.|.|.|.|.|.|.|.|.|.|.|.|.|.|.|.|.|.|.|.|.|.|.|.|.|.|.|.|.|.|.|.|.|.|.|.|.|.|.|.|.|.|."
};
