/* XPM */
static const char *player_3_7[] = {
/* columns rows colors chars-per-pixel */
"64 64 177 2 ",
"   c #260A02",
".  c #2B0B02",
"X  c #240D09",
"o  c #340C01",
"O  c #3A0D01",
"+  c #2F1004",
"@  c #351303",
"#  c #3B1402",
"$  c #3D1903",
"%  c #3C1709",
"&  c #391E15",
"*  c #3B2015",
"=  c #431403",
"-  c #451B03",
";  c #491E03",
":  c #421B0A",
">  c #491309",
",  c #501F07",
"<  c #501C08",
"1  c #58190F",
"2  c #411C10",
"3  c #551D12",
"4  c #621E15",
"5  c #472006",
"6  c #4D2204",
"7  c #46200A",
"8  c #4C240B",
"9  c #512604",
"0  c #562A05",
"q  c #582C06",
"w  c #562B0B",
"e  c #5B2E09",
"r  c #57260D",
"t  c #5E310A",
"y  c #442211",
"u  c #4E2912",
"i  c #512C15",
"p  c #542211",
"a  c #5D3011",
"s  c #64350C",
"d  c #69390F",
"f  c #642114",
"g  c #682117",
"h  c #633512",
"j  c #673812",
"k  c #6C3B11",
"l  c #6D381A",
"z  c #703E14",
"x  c #472220",
"c  c #4A2823",
"v  c #4D3125",
"b  c #40382E",
"n  c #50362A",
"m  c #563C2F",
"M  c #5B3F31",
"N  c #573D30",
"B  c #7B2D22",
"V  c #754216",
"C  c #76451A",
"Z  c #784419",
"A  c #7D441C",
"S  c #77481F",
"D  c #784417",
"F  c #474138",
"G  c #5A4133",
"H  c #674125",
"J  c #694126",
"K  c #6E4729",
"L  c #684F3F",
"P  c #754C30",
"I  c #715847",
"U  c #785E4A",
"Y  c #795357",
"T  c #7E6552",
"R  c #832D23",
"E  c #843023",
"W  c #8B3227",
"Q  c #8D3428",
"!  c #8D3826",
"~  c #92332B",
"^  c #9B362F",
"/  c #903D27",
"(  c #9C3730",
")  c #9E3931",
"_  c #A43D32",
"`  c #844522",
"'  c #8A542D",
"]  c #8B5F3A",
"[  c #8B5B31",
"{  c #AA4235",
"}  c #A94737",
"|  c #B14637",
" . c #B54A39",
".. c #B94D3A",
"X. c #B24838",
"o. c #BB503D",
"O. c #9C612F",
"+. c #976332",
"@. c #AC5341",
"#. c #B35D4E",
"$. c #B75442",
"%. c #886147",
"&. c #936449",
"*. c #9D7045",
"=. c #806855",
"-. c #88705B",
";. c #AA7A4C",
":. c #A87449",
">. c #B76055",
",. c #B76D53",
"<. c #A37B54",
"1. c #857968",
"2. c #937A65",
"3. c #BF7561",
"4. c #A17873",
"5. c #C4715B",
"6. c #C97D66",
"7. c #978A76",
"8. c #A28466",
"9. c #A98A6A",
"0. c #A38B73",
"q. c #B38E75",
"w. c #AB947C",
"e. c #C58453",
"r. c #D29A5E",
"t. c #C7886A",
"y. c #D39D61",
"u. c #C39D74",
"i. c #D5A26A",
"p. c #C3A078",
"a. c #D7A973",
"s. c #D5AA7E",
"d. c #DCAC79",
"f. c #AF9980",
"g. c #B79B80",
"h. c #AEA188",
"j. c #BBA68B",
"k. c #BAA489",
"l. c #BAA39A",
"z. c #BE93A6",
"x. c #D19D81",
"c. c #CBA98B",
"v. c #D9A583",
"b. c #DDB585",
"n. c #DEB68B",
"m. c #CBB596",
"M. c #D6BA9B",
"N. c #E0B887",
"B. c #E4AD9A",
"V. c #E1BE98",
"C. c #C198A6",
"Z. c #D1BEA1",
"A. c #E0BFA2",
"S. c #E4BEB0",
"D. c #E3C59C",
"F. c #DFCAAA",
"G. c #DAC0A0",
"H. c #DCC6B0",
"J. c #E4CAA3",
"K. c #E3CDAA",
"L. c #E2C3A5",
"P. c #F1C5A5",
"I. c #E7D1AE",
"U. c #E5C4BB",
"Y. c #E6D3B4",
"T. c #EBD4B2",
"R. c #EBD8B6",
"E. c #EDDAB9",
"W. c #ECDBBA",
"Q. c #FBD5BF",
"!. c #E1BBC5",
"~. c #EAC8C8",
"^. c #F7D7C1",
"/. c #F1E1CE",
"(. c #F1E3D2",
"). c #FF00FF",
"_. c black",
/* pixels */
").).).).).).).).).).).).).).).).).).).).).).).).).).).).).).).).).).).).).).).).).).).).).).).).).).).).).).).).).).).).).).).).",
").).).).).).).).).).).).).).).).).).).).).).).).).).).).).).).).).).).).).).).).).).).).).).).).).).).).).).).).).).).).).).).).",
").).).).).).).).).).).).).).).).).).).).).).).).).).).).).).).).).).).).).).).).).).).).).).).).).).).).).).).).).).).).).).).).",
").).).).).).).).).).).).).).).).).).).).).).).).).).).).).).).).).).).).).).).).).).).).).).).).).).).).).).).).).).).).).).).).",
").).).).).).).).).).).).).).).).).).).).).).).).).).).).).).).).).).).).).).).).).).).).).).).).).).).).).).).).).).).).).).).).",
").).).).).).).).).).).).).).).).).).).).).).).).).).).).).).).).).).).).).).).).).).).).).).).).).).).).).).).).).).).).).).).).",
").).).).).).).).).).).).).).).).).).).).).).).).).).).).).).).).).).).).).).).).).).).).).).).).).).).).).).).).).).).).).).).).",
").).).).).).).).).).).).).).).).).).).).).).).).).).).).).).).).).).).).).).).).).).).).).).).).).).).).).).).).).).).).).).).).",
").).).).).).).).).).).).).).).).).).).).).).).).).).).).).).).).).).).).).).).).).).).).).).).).).).).).).).).).).).).).).).).).",
").).).).).).).).).).).).).).).).).).).).).).).).).).).).).).).).).).).).).).).).).).).).).).).).).).).).).).).).).).).).).).).).",
").).).).).).).).).).).).).).).).).).).).).).).).).).).).).).).).).).).).).).).).).).).).).).).).).).).).).).).).).).).).).).).).",
").).).).).).).).).).).).).).).).).).).).).).).).                        ).).).).).).).).).).).).).).).).).).).).).).).).).).).).",
").).).).).).).).).).).).).).).).).).).).).).).).@ # # @ @ # # # @ # # # @ ).).).).).).).).).).).).).).).).).).).).).).).).).).).",
").).).).).).).).).).).).).).).).).).).).).).. $ 5 6 9 9 9 9 6 9 9 6 6 6 ; @ ).).).).).).).).).).).).).).).).).).).).).).).).).).",
").).).).).).).).).).).).).).).).).).).).).. 7 w e q e d d e q t d e 5 6 e w : ).).).).).).).).).).).).).).).).).).).).).).).).).",
").).).).).).).).).).).).).).).).).).).).).: h z s e d k k e q t k a 7 5 e h 7 . ).).).).).).).).).).).).).).).).).).).).).).).).",
").).).).).).).).).).).).).).).).).).).. 7 h C V s d z k t q q q s h a 7 5 w : . ).).).).).).).).).).).).).).).).).).).).).).).).",
").).).).).).).).).).).).).).).).).).).7 h C D k t k V d q q q e d h w 7 ; 9 5 $ . ).).).).).).).).).).).).).).).).).).).).).).).",
").).).).).).).).).).).).).).).).).).@ a Z Z d e q d V d e q q s k e : 5 q q q 6 $ @ ).).).).).).).).).).).).).).).).).).).).).).",
").).).).).).).).).).).).).).).).).).$ h V d e q q t d k d e q e s w 5 9 q q q e t 8 @ ).).).).).).).).).).).).).).).).).).).).).",
").).).).).).).).).).).).).).).).).@ : t d t q e s s t d d e q q q q q q q q q t j 8 + ).).).).).).).).).).).).).).).).).).).).).",
").).).).).).).).).).).).).).).).. # 6 q e q q t k d e e e q q q q 9 9 q q 9 q q w ; . ).).).).).).).).).).).).).).).).).).).).).",
").).).).).).).).).).).).).).).).. $ 9 q q q q e d s q q q q q 9 ; = - 6 6 - 5 6 - @ ).).).).).).).).).).).).).).).).).).).).).).",
").).).).).).).).).).).).).).).).. $ 9 q q q q q q q q q q q 9 ; # : u 8 8 i 8 - @ ).).).).).).).).).).).).).).).).).).).).).).).",
").).).).).).).).).).).).).).).).. $ 9 q q q q q q q q q q q ; # % J ] H H ] K y ).).).).).).).).).).).).).).).).).).).).).).).).",
").).).).).).).).).).).).).).).. o = 9 q 9 6 9 q q q q s d q = : J <.u.8.8.p.9.U v ).).).).).).).).).).).).).).).).).).).).).).).",
").).).).).).).).).).).).).).  . o - q q 6 = ; q q q s k k q $ u *.s.J.F.F.I.K.f.N X ).).).).).).).).).).).).).).).).).).).).).).",
").).).).).).).).).).).).).).  . o - q q ; # ; q q s k k d q $ i ;.N.T.W.W.W.W.k.M X ).).).).).).).).).).).).).).).).).).).).).).",
").).).).).).).).).).).).).).  . o - q q 6 = ; q q e j S C e # i ;.b.T.R.G.c.M.k.G X ).).).).).).).).).).).).).).).).).).).).).).",
").).).).).).).).).).).).).).  . o - q q 6 # ; q q ; i [ +.h # i ;.b.T.Y.g.&.q.f.G X ).).).).).).).).).).).).).).).).).).).).).).",
").).).).).).).).).).).).).).  . o - q q 6 $ ; q q $ 7 ' O.h # i ;.b.T.Y.0.M 2.w.G X ).).).).).).).).).).).).).).).).).).).).).).",
").).).).).).).).).).).).).).).. o - q q 6 - ; 9 9 = : l A e # i ;.b.T.Y.7.b 1.k.=.n ).).).).).).).).).).).).).).).).).).).).).).",
").).).).).).).).).).).).).).).).. $ 9 q q 9 - - 9 ; # : 8 6 $ i :.b.T.Y.7.F 1.Z.j.T * ).).).).).).).).).).).).).).).).).).).).).",
").).).).).).).).).).).).).).).).. @ ; 9 q q - = 6 ; O # ; 6 = : P q.U.~.l.1.h.M.w.I & ).).).).).).).).).).).).).).).).).).).).).",
").).).).).).).).).).).).).).).).  . # 6 q q - = ; ; = ; q q ; # 2 Y C.!.!.H.Y.j.L & ).).).).).).).).).).).).).).).).).).).).).).",
").).).).).).).).).).).).).).).).  . # 5 q q - # = - 6 q q q 9 - @ x Y z.~.^.R.k.m X ).).).).).).).).).).).).).).).).).).).).).).",
").).).).).).).).).).).).).).).).  . o = 9 9 - O O - q q 9 6 9 9 - o c 4.S.Y.m.2.n ).).).).).).).).).).).).).).).).).).).).).).).",
").).).).).).).).).).).).).).).).).. . o - 9 ; O O - 9 q 6 - ; q 9 # y &.v.m.-.v ).).).).).).).).).).).).).).).).).).).).).).).).",
").).).).).).).).).).).).).).).).).).. o = 9 9 - # # - 9 9 ; - ; 9 $ 7 ' :.%.v X ).).).).).).).).).).).).).).).).).).).).).).).).",
").).).).).).).).).).).).).).).).).).. o # ; q 6 # o # ; 9 9 ; - ; ; p ` ` 8 o   ).).).).).).).).).).).).).).).).).).).).).).).).",
").).).).).).).).).).).).).).).).).).).. o $ 6 6 = O O # - 9 9 ; $ 3 B / r O .   ).).).).).).).).).).).).).).).).).).).).).).).).",
").).).).).).).).).).).).).).).).).).).).. o = = # > 1 = # - 9 6 $ 4 ~ ).).. . ).).).).).).).).).).).).).).).).).).).).).).).).).",
").).).).).).).).).).).).).).).).).).).).).o O O O g R f = # ; 6 = 4 ~ ).).  ).).).).).).).).).).).).).).).).).).).).).).).).).).",
").).).).).).).).).).).).).).).).).).).).).).o o > Q { Q 4 = ; 6 - f ~ ).).).).).).).).).).).).).).).).).).).).).).).).).).).).).",
").).).).).).).).).).).).).).).).).).).).).).).= ).|  .{ W f < , f E _ ).).).).).).).).).).).).).).).).).).).).).).).).).).).).).",
").).).).).).).).).).).).).).).).).).).).).).).).^ { .. .{ Q f f ! { | ).).).).).).).).).).).).).).).).).).).).).).).).).).).).).",
").).).).).).).).).).).).).).).).).).).).).).).^ ^ _  ... .{ W E {  .{ _ ).).).).).).).).).).).).).).).).).).).).).).).).).).).).",
").).).).).).).).).).).).).).).).).).).).).).>.#.@.} )..... .{ _ { { _ _ _ ).).).).).).).).).).).).).).).).).).).).).).).).).).).",
").).).).).).).).).).).).).).).).).).).).).).B.v.t.e.)....... .{ ( ) { X.X.).).).).).).).).).).).).).).).).).).).).).).).).).).).",
").).).).).).).).).).).).).).).).).).).).).).Q.P.d.r.).........X._ ( _ | ..).).).).).).).).).).).).).).).).).).).).).).).).).).).",
").).).).).).).).).).).).).).).).).).).).).).^.P.d.r.).|  .......X._ ^ { ..).).).).).).).).).).).).).).).).).).).).).).).).).).).",
").).).).).).).).).).).).).).).).).).).).).).Q.P.d.y.).{ | ..o.....| { { ).).).).).).).).).).).).).).).).).).).).).).).).).).).).",
").).).).).).).).).).).).).).).).).).).).).).).P.d.d.).t.3.6.6.5.$.X. .).).).).).).).).).).).).).).).).).).).).).).).).).).).).).",
").).).).).).).).).).).).).).).).).).).).).).).).).D.I.L.A.L.V.x.#._ ).).).).).).).).).).).).).).).).).).).).).).).).).).).).).).",
").).).).).).).).).).).).).).).).).).).).).).).).).V.T.W.W.R.D.s.,.).).).).).).).).).).).).).).).).).).).).).).).).).).).).).).).",
").).).).).).).).).).).).).).).).).).).).).).).).n.D.I.K.J.D.b.i.).).).).).).).).).).).).).).).).).).).).).).).).).).).).).).).).",
").).).).).).).).).).).).).).).).).).).).).).).).(./.).d.a.a.i.).).).).).).).).).).).).).).).).).).).).).).).).).).).).).).).).).",
").).).).).).).).).).).).).).).).).).).).).).).).).).).r.r.r.).).).).).).).).).).).).).).).).).).).).).).).).).).).).).).).).).).",
").).).).).).).).).).).).).).).).).).).).).).).).).).).r.r.r.).).).).).).).).).).).).).).).).).).).).).).).).).).).).).).).).).).",
").).).).).).).).).).).).).).).).).).).).).).).).).).).r.r.r.).).).).).).).).).).).).).).).).).).).).).).).).).).).).).).).).).).",
").).).).).).).).).).).).).).).).).).).).).).).).).).).r.r.r.r.).).).).).).).).).).).).).).).).).).).).).).).).).).).).).).).).).",
").).).).).).).).).).).).).).).).).).).).).).).).).).).r.r.r.r.a.J.).).).).).).).).).).).).).).).).).).).).).).).).).).).).).).).",
").).).).).).).).).).).).).).).).).).).).).).).).).).).).).).).).).).).).).).).).).).).).).).).).).).).).).).).).).).).).).).).).",
").).).).).).).).).).).).).).).).).).).).).).).).).).).).).).).).).).).).).).).).).).).).).).).).).).).).).).).).).).).).).).).)."
};
