/* XPM */
static const char *player_0_4[] = {
/* columns rows colors chars-per-pixel */
"64 64 192 2 ",
"   c #020201",
".  c #090100",
"X  c #0E0906",
"o  c #0E0C0A",
"O  c #140504",
"+  c #1A0502",
"@  c #160C05",
"#  c #180B06",
"$  c #100E0C",
"%  c #14110D",
"&  c #1F160C",
"*  c #161411",
"=  c #1C1611",
"-  c #260902",
";  c #2C0B01",
":  c #210700",
">  c #340C01",
",  c #390D00",
"<  c #3A0F0A",
"1  c #370E0F",
"2  c #2F1002",
"3  c #22180E",
"4  c #2B180B",
"5  c #341203",
"6  c #3C1302",
"7  c #3D1904",
"8  c #3E100A",
"9  c #381A0A",
"0  c #261C12",
"q  c #291C13",
"w  c #3F1010",
"e  c #371C10",
"r  c #25221C",
"t  c #2A2319",
"y  c #332516",
"u  c #392A19",
"i  c #2E2B24",
"p  c #322D27",
"a  c #35312A",
"s  c #39332A",
"d  c #3B3830",
"f  c #421602",
"g  c #451A03",
"h  c #4A1D04",
"j  c #44140D",
"k  c #4A150F",
"l  c #491C0C",
"z  c #541B0E",
"x  c #451314",
"c  c #4C1414",
"v  c #481E14",
"b  c #571A17",
"n  c #601A1A",
"m  c #472004",
"M  c #4D2204",
"N  c #4D250C",
"B  c #46200B",
"V  c #512605",
"C  c #562A05",
"Z  c #582C06",
"A  c #53240A",
"S  c #55290B",
"D  c #5A2D09",
"F  c #5C2F08",
"G  c #5A2B0B",
"H  c #58270C",
"J  c #5E310A",
"K  c #5E3109",
"L  c #5E300C",
"P  c #5E310A",
"I  c #442E1E",
"U  c #5D2F10",
"Y  c #532118",
"T  c #562818",
"R  c #5D281C",
"E  c #5F3212",
"W  c #583217",
"Q  c #61330B",
"!  c #61310D",
"~  c #63350C",
"^  c #66360D",
"/  c #63340C",
"(  c #69390F",
")  c #67380E",
"_  c #6F201F",
"`  c #613212",
"'  c #653411",
"]  c #683612",
"[  c #6B3B10",
"{  c #6A3911",
"}  c #6C3B12",
"|  c #6E3D12",
" . c #6D3B13",
".. c #64351C",
"X. c #63381A",
"o. c #6A3B1C",
"O. c #713F15",
"+. c #713E15",
"@. c #572E20",
"#. c #4A3620",
"$. c #4D3923",
"%. c #493A2E",
"&. c #4B3628",
"*. c #583928",
"=. c #692920",
"-. c #7D2725",
";. c #7D2D25",
":. c #663024",
">. c #773323",
",. c #7A3325",
"<. c #744116",
"1. c #764219",
"2. c #794519",
"3. c #7A4519",
"4. c #7E491C",
"5. c #5A4229",
"6. c #4C463B",
"7. c #4C463A",
"8. c #514B3F",
"9. c #694D2F",
"0. c #764D30",
"q. c #685238",
"w. c #7B5A37",
"e. c #554E42",
"r. c #5A5144",
"t. c #645447",
"y. c #735B4D",
"u. c #675F50",
"i. c #6C6354",
"p. c #676051",
"a. c #706758",
"s. c #8A2C2A",
"d. c #872B29",
"f. c #8A392A",
"g. c #94352D",
"h. c #9C372F",
"j. c #9D3A30",
"k. c #9E3731",
"l. c #A33D32",
"z. c #814B1D",
"x. c #874428",
"c. c #944F28",
"v. c #98512A",
"b. c #954D3F",
"n. c #935236",
"m. c #A64234",
"M. c #AD4336",
"N. c #AE4B38",
"B. c #B14637",
"V. c #B34A39",
"C. c #B94D3A",
"Z. c #A5593D",
"A. c #8C673E",
"S. c #AE5D40",
"D. c #B15B41",
"F. c #8F6940",
"G. c #976F43",
"H. c #9D7446",
"J. c #8C7050",
"K. c #9B7754",
"L. c #BB6244",
"P. c #AA7E4C",
"I. c #AA7448",
"U. c #B36C5A",
"Y. c #857965",
"T. c #BA7160",
"R. c #C27663",
"E. c #A8845C",
"W. c #BE8652",
"Q. c #96856C",
"!. c #9A8E79",
"~. c #988C76",
"^. c #B59C7A",
"/. c #CA8A57",
"(. c #CD975C",
"). c #D39C5F",
"_. c #A99B83",
"`. c #AEA188",
"'. c #BBA98E",
"]. c #CAAB83",
"[. c #CCAD92",
"{. c #C7B89C",
"}. c #D3BE9C",
"|. c #DEBC91",
" X c #D5C4A6",
".X c #DBCAAB",
"XX c #E3C3A5",
"oX c #EAD3AF",
"OX c #EDDBB9",
"+X c #F1E0BD",
"@X c #FF00FF",
"#X c black",
/* pixels */
"@X@X@X@X@X@X@X@X@X@X@X@X@X@X@X@X@X@X@X@X@X@X@X@X@X@X@X@X@X@X@X@X@X@X@X@X@X@X@X@X@X@X@X@X@X@X@X@X@X@X@X@X@X@X@X@X@X@X@X@X@X@X@X@X",
"@X@X@X@X@X@X@X@X@X@X@X@X@X@X@X@X@X@X@X@X@X@X@X@X@X@X@X@X@X@X@X@X@X@X@X@X@X@X@X@X@X@X@X@X@X@X@X@X@X@X@X@X@X@X@X@X@X@X@X@X@X@X@X@X",
"@X@X@X@X@X@X@X@X@X@X@X@X@X@X@X@X@X@X@X@X@X@X@X@X@X@X@X@X@X@X@X@X@X@X@X@X@X@X@X@X@X@X@X@X@X@X@X@X@X@X@X@X@X@X@X@X@X@X@X@X@X@X@X@X",
"@X@X@X@X@X@X@X@X@X@X@X@X@X@X@X@X@X@X@X@X@X@X@X@X@X@X@X@X@X@X@X@X@X@X@X@X@X@X@X@X@X@X@X@X@X@X@X@X@X@X@X@X@X@X@X@X@X@X@X@X@X@X@X@X",
"@X@X@X@X@X@X@X@X@X@X@X@X@X@X@X@X@X@X@X@X@X@X@X@X@X@X@X@X@X@X@X@X@X@X@X@X@X@X@X@X@X@X@X@X@X@X@X@X@X@X@X@X@X@X@X@X@X@X@X@X@X@X@X@X",
"@X@X@X@X@X@X@X@X@X@X@X@X@X@X@X@X@X@X@X@X@X@X@X@X@X@X@X@X@X@X@X@X@X@X@X@X@X@X@X@X@X@X@X@X@X@X@X@X@X@X@X@X@X@X@X@X@X@X@X@X@X@X@X@X",
"@X@X@X@X@X@X@X@X@X@X@X@X@X@X@X@X@X@X@X@X@X@X@X@X@X@X@X@X@X@X@X@X@X@X@X@X@X@X@X@X@X@X@X@X@X@X@X@X@X@X@X@X@X@X@X@X@X@X@X@X@X@X@X@X",
"@X@X@X@X@X@X@X@X@X@X@X@X@X@X@X@X@X@X@X@X@X@X@X@X@X@X@X@X@X@X@X@X@X@X@X@X@X@X@X@X@X@X@X@X@X@X@X@X@X@X@X@X@X@X@X@X@X@X@X@X@X@X@X@X",
"@X@X@X@X@X@X@X@X@X@X@X@X@X@X@X@X@X@X@X@X@X@X@X@X@X@X@X@X@X@X@X@X@X@X@X@X@X@X@X@X@X@X@X@X@X@X@X@X@X@X@X@X@X@X@X@X@X@X@X@X@X@X@X@X",
"@X@X@X@X@X@X@X@X@X@X@X@X@X@X@X@X@X@X@X@X@X@X@X@X@X@X@X@X@X@X@X@X@X@X@X@X@X@X@X@X@X@X@X@X@X@X@X@X@X@X@X@X@X@X@X@X@X@X@X@X@X@X@X@X",
"@X@X@X@X@X@X@X@X@X@X@X@X@X@X@X@X@X@X@X@X@X@X@X@X; ; 5 9 9 5 @X@X5 9 9 5 5 ; ; @X@X@X@X@X@X@X@X@X@X@X@X@X@X@X@X@X@X@X@X@X@X@X@X@X",
"@X@X@X@X@X@X@X@X@X@X@X@X@X@X@X@X@X@X@X@X@X- - ; > l U ` E U B 7 S E ` E N 6 ; ; - @X@X@X@X@X@X@X@X@X@X@X@X@X@X@X@X@X@X@X@X@X@X@X",
"@X@X@X@X@X@X@X@X@X@X@X@X@X@X@X@X@X@X@X@X; ; 5 6 f G { { ' ` S A U ' ] } ! h 7 5 ; ; @X@X@X@X@X@X@X@X@X@X@X@X@X@X@X@X@X@X@X@X@X@X",
"@X@X@X@X@X@X@X@X@X@X@X@X@X@X@X@X@X@X@X; > 6 g M V C G M g h G ` A g h A Z C V m 7 > ; @X@X@X@X@X@X@X@X@X@X@X@X@X@X@X@X@X@X@X@X@X",
"@X@X@X@X@X@X@X@X@X@X@X@X@X@X@X@X@X@X; 6 g h V Z C M g g g M D ! V h g g h C Z C M g 7 5 @X@X@X@X@X@X@X@X@X@X@X@X@X@X@X@X@X@X@X@X",
"@X@X@X@X@X@X@X@X@X@X@X@X@X@X@X@X@X; 7 V D Z C Z C M g h V C Z Z C V M g h V Z C C D H g 5 @X@X@X@X@X@X@X@X@X@X@X@X@X@X@X@X@X@X@X",
"@X@X@X@X@X@X@X@X@X@X@X@X@X@X@X@X; 6 S { } J Z Z Z C M g h C Z Z C M g h V C Z Z Z ^ | L g ; @X@X@X@X@X@X@X@X@X@X@X@X@X@X@X@X@X@X",
"@X@X@X@X@X@X@X@X@X@X@X@X@X@X@X@X; g ) 2.O.Q Q ^ F Z V f h L Q Z C h f M C Z Q ^ J { 2.O.S 5 @X@X@X@X@X@X@X@X@X@X@X@X@X@X@X@X@X@X",
"@X@X@X@X@X@X@X@X@X@X@X@X@X@X@X@X; N 1.z.<.~ { O.Q Z V g A  .( J D M f M C F } O.~ { 4.4.E 5 @X@X@X@X@X@X@X@X@X@X@X@X@X@X@X@X@X@X",
"@X@X@X@X@X@X@X@X@X@X@X@X@X@X@X@X; N 2.z.O.~ | <.Q Z V g A O.{ Q ^ H f h C F | <.^ { 4.4.` 5 @X@X@X@X@X@X@X@X@X@X@X@X@X@X@X@X@X@X",
"@X@X@X@X@X@X@X@X@X@X@X@X@X@X@X@X; B  .<.( J ^ { J Z V g A O.{ J ! A h M C Z ^ { Q ~ +.O.G 5 @X@X@X@X@X@X@X@X@X@X@X@X@X@X@X@X@X@X",
"@X@X@X@X@X@X@X@X@X@X@X@X@X@X@X@X; 7 D J F Z F F Z Z V g A  .( C h h V C C Z F F Z Z J J M 5 @X@X@X@X@X@X@X@X@X@X@X@X@X@X@X@X@X@X",
"@X@X@X@X@X@X@X@X@X@X@X@X@X@X@X@X; 7 V Z C Z Z C Z Z V f h ! Q V f g C Z Z Z Z Z Z C Z C g 2 @X@X@X@X@X@X@X@X@X@X@X@X@X@X@X@X@X@X",
"@X@X@X@X@X@X@X@X@X@X@X@X@X@X@X@X; 7 V Z Z Z Z Z Z Z V h g M C V g h C Z Z Z Z Z Z C Z C m 5 ; @X@X@X@X@X@X@X@X@X@X@X@X@X@X@X@X@X",
"@X@X@X@X@X@X@X@X@X@X@X@X@X@X@X; > f V Z Z Z Z Z Z Z C V h g M V V V C Z Z Z Z Z Z Z Z C h 6 ; - @X@X@X@X@X@X@X@X@X@X@X@X@X@X@X@X",
"@X@X@X@X@X@X@X@X@X@X@X@X@X@X- ; > 6 h V C Z C C C C Z C V h g M C Z Z Z C C C C Z Z C M f , ; - @X@X@X@X@X@X@X@X@X@X@X@X@X@X@X@X",
"@X@X@X@X@X@X@X@X@X@X@X@X@X@X- ; , , 6 M C Z F J J F Z C C V g f V Z C C Z J J J Z C V g 6 , > ; @X@X@X@X@X@X@X@X@X@X@X@X@X@X@X@X",
"@X@X@X@X@X@X@X@X@X@X@X@X@X@X- 5 f f 6 M C Z ^ O.O.^ Z C Z C g f M Z Z Z Q | <.{ J Z V f 7 g 6 ; @X@X@X@X@X@X@X@X@X@X@X@X@X@X@X@X",
"@X@X@X@X@X@X@X@X@X@X@X@X@X@X- 5 M M h G Q D !  .1.| J J Q C g f V J ~ J ^ <.O.' F J J V h M 7 ; @X@X@X@X@X@X@X@X@X@X@X@X@X@X@X@X",
"@X@X@X@X@X@X@X@X@X@X@X@X@X@X- 5 M V D { { D h A O.+.^ | } G g f M ^ O.) { <.U h V ^ | J C V 6 ; @X@X@X@X@X@X@X@X@X@X@X@X@X@X@X@X",
"@X@X@X@X@X@X@X@X@X@X@X@X@X@X- ; 7 M Z ^ ^ C g h  .2.<.2. .M 6 , g ! 2.<.<.1.H f M Q ^ J V g 5 ; @X@X@X@X@X@X@X@X@X@X@X@X@X@X@X@X",
"@X@X@X@X@X@X@X@X@X@X@X@X@X@X- ; , f V C Z C g h  .z.z.4.] g > > 6 H 2.z.z.2.H f M Z Z V h 6 ; - @X@X@X@X@X@X@X@X@X@X@X@X@X@X@X@X",
"@X@X@X@X@X@X@X@X@X@X@X@X@X@X- ; > , f M Z C g h  .z.4.4.' f > > , H 1.4.z.2.H f M Z C g 6 , ; - @X@X@X@X@X@X@X@X@X@X@X@X@X@X@X@X",
"@X@X@X@X@X@X@X@X@X@X@X@X@X@X@X; ; > 6 M Z C g h  .O.' ] G f > > , A ' '  .1.H f M Z V f > > ; @X@X@X@X@X@X@X@X@X@X@X@X@X@X@X@X@X",
"@X@X@X@X@X@X@X@X@X@X@X@X@X@X@X@X; ; , g V V g h ` G h M h 6 > > , g V h A ' A f M C M 7 > ; - @X@X@X@X@X@X@X@X@X@X@X@X@X@X@X@X@X",
"@X@X@X@X@X@X@X@X@X@X@X@X@X@X@X@X- ; , 6 g M g f h M h g 6 , > > , 6 f h M h f f M M 7 , > ; @X@X@X@X@X@X@X@X@X@X@X@X@X@X@X@X@X@X",
"@X@X@X@X@X@X@X@X@X@X@X@X@X@X@X@X- ; > 5 g V M g g M M 7 > > , , > > , f h g f h V M 6 , ; ; @X@X@X@X@X@X@X@X@X@X@X@X@X@X@X@X@X@X",
"@X@X@X@X@X@X@X@X@X@X@X@X@X@X@X@X@X- > g V C C V V C V 6 ; > , , > > ; , f M V C C V g 5 ; @X@X@X@X@X@X@X@X@X@X@X@X@X@X@X@X@X@X@X",
"@X@X@X@X@X@X@X@X@X@X@X@X@X@X@X@X@X@X5 m C Z Z Z Z Z V 7 ; ; > > > ; > > 6 g V Z C V f > - @X@X@X@X@X@X@X@X@X@X@X@X@X@X@X@X@X@X@X",
"@X@X@X@X@X@X@X@X@X@X@X@X@X@X@X@X@X@X2 g V C V M M V M 7 > ; > > ; > > > , , g M M g , ; @X@X@X@X@X@X@X@X@X@X@X@X@X@X@X@X@X@X@X@X",
"@X@X@X@X@X@X@X@X@X@X@X@X@X@X@X@X@X@X@X5 g M g 5 6 f 6 , > > ; ; > > , , , > , 5 6 , ; - @X@X@X@X@X@X@X@X@X@X@X@X@X@X@X@X@X@X@X@X",
"@X@X@X@X@X@X@X@X@X@X@X@X@X@X@X@X@X@X@X@X5 7 5 ; > , , , > > ; ; ; ; > > , > ; ; ; ; - @X@X@X@X@X@X@X@X@X@X@X@X@X@X@X@X@X@X@X@X@X",
"@X@X@X@X@X@X@X@X@X@X@X@X@X@X@X@X@X@X@X@X@X; ; ; > > > > > ; ; ; < > ; ; > > ; ; ; ; ; @X@X@X@X@X@X@X@X@X@X@X@X@X@X@X@X@X@X@X@X@X",
"@X@X@X@X@X@X@X@X@X@X@X@X@X@X@X@X@X@X@X@X@X- ; ; ; ; ; > > ; ; < c j ; ; ; ; > > > ; ; @X@X@X@X@X@X@X@X@X@X@X@X@X@X@X@X@X@X@X@X@X",
"@X@X@X@X@X@X@X@X@X@X@X@X@X@X@X@X@X@X@X@X@X+ - ; : ; 8 , ; : + - w 8 ; < k k 8 f z j : @X@X@X@X@X@X@X@X@X@X@X@X@X@X@X@X@X@X@X@X@X",
"@X@X@X@X@X@X@X@X@X@X@X@X@X@X@X@X@X@X@X@X@X. + + O 1 b k - + O O + - < b -.;.z l ,.R # @X@X@X@X@X@X@X@X@X@X@X@X@X@X@X@X@X@X@X@X@X",
"@X@X@X@X@X@X@X@X@X@X@X@X@X@X@X@X@X@X@X@X@X. O + O x -._ b c x x x c n -.k.j.Y v x...@ @X@X@X@X@X@X@X@X@X@X@X@X@X@X@X@X@X@X@X@X@X",
"@X@X@X@X@X@X@X@X@X@X@X@X@X@X@X@X@X@X@X@Xr s %.&.I :.g.g.s.d.d.d.d.d.s.h.M.m.=.T x.X.@ @X@X@X@X@X@X@X@X@X@X@X@X@X@X@X@X@X@X@X@X@X",
"@X@X@X@X@X@X@X@X@X@X@X@X@X@X@X@X@X@X@X@X7.!.'.^.K.Z.N.M.M.M.M.M.M.M.M.B.C.M.f.f.v.X.@ @X@X@X@X@X@X@X@X@X@X@X@X@X@X@X@X@X@X@X@X@X",
"@X@X@X@X@X@X@X@X@X@X@X@X@X@X@X@X@X@X@Xo e.{.+X}.K.n.V.B.M.M.M.B.C.C.C.V.M.l.;.>.c.X.@ @X@X@X@X@X@X@X@X@X@X@X@X@X@X@X@X@X@X@X@X@X",
"@X@X@X@X@X@X@X@X@X@X@X@X@X@X@X@X@X@X@Xo 6._.{.~.%.R m.M.l.j.l.M.C.C.B.l.l.g.b e o.W @ @X@X@X@X@X@X@X@X@X@X@X@X@X@X@X@X@X@X@X@X@X",
"@X@X@X@X@X@X@X@X@X@X@X@X@X@X@X@X@X@X@X@Xp 6.e.d = Y m.M.j.j.l.M.V.V.m.l.m.j.v # 4 9 @X@X@X@X@X@X@X@X@X@X@X@X@X@X@X@X@X@X@X@X@X@X",
"@X@X@X@X@X@X@X@X@X@X@X@X@X@X@X@X@X@X@X@X@Xo o   X @.S.L.D.Z.x.>.,.b.U.T.R.U.*.X   @X@X@X@X@X@X@X@X@X@X@X@X@X@X@X@X@X@X@X@X@X@X@X",
"@X@X@X@X@X@X@X@X@X@X@X@X@X@X@X@X@X@X@X@X@X@X@X@X@ *.I././.W.0.e q y.[.XXXX[.t.$ @X@X@X@X@X@X@X@X@X@X@X@X@X@X@X@X@X@X@X@X@X@X@X@X",
"@X@X@X@X@X@X@X@X@X@X@X@X@X@X@X@X@X@X@X@X@X@X@X@X@Xu 9.P.).(.H.5.0 p. X+X+X Xp.% @X@X@X@X@X@X@X@X@X@X@X@X@X@X@X@X@X@X@X@X@X@X@X@X",
"@X@X@X@X@X@X@X@X@X@X@X@X@X@X@X@X@X@X@X@X@X@X@X@X@X@Xy A.W.P.G.9.t 6._..XOX Xu.% @X@X@X@X@X@X@X@X@X@X@X@X@X@X@X@X@X@X@X@X@X@X@X@X",
"@X@X@X@X@X@X@X@X@X@X@X@X@X@X@X@X@X@X@X@X@X@X@X@X@X@X0 w.F.$.y 0 X * 8.`.OX Xu.% @X@X@X@X@X@X@X@X@X@X@X@X@X@X@X@X@X@X@X@X@X@X@X@X",
"@X@X@X@X@X@X@X@X@X@X@X@X@X@X@X@X@X@X@X@X@X@X@X@X@X@X% #.#.%         i !.OX Xu.% @X@X@X@X@X@X@X@X@X@X@X@X@X@X@X@X@X@X@X@X@X@X@X@X",
"@X@X@X@X@X@X@X@X@X@X@X@X@X@X@X@X@X@X@X@X@X@X@X@X@Xr r = X       @X  t Q.oX Xu.% @X@X@X@X@X@X@X@X@X@X@X@X@X@X@X@X@X@X@X@X@X@X@X@X",
"@X@X@X@X@X@X@X@X@X@X@X@X@X@X@X@X@X@X@X@X@X@X@X@X* e.a.a       @X@X@Xq J.|.}.i.*   @X@X@X@X@X@X@X@X@X@X@X@X@X@X@X@X@X@X@X@X@X@X@X",
"@X@X@X@X@X@X@X@X@X@X@X@X@X@X@X@X@X@X@X@X@X@X@X@X% e.i.a     @X@X@X@X3 9.E.].Q.7.%   @X@X@X@X@X@X@X@X@X@X@X@X@X@X@X@X@X@X@X@X@X@X",
"@X@X@X@X@X@X@X@X@X@X@X@X@X@X@X@X@X@X@X@X@X@X@X@X@Xr r $     @X@X@X@X@X3 5.E.^.Y.i   @X@X@X@X@X@X@X@X@X@X@X@X@X@X@X@X@X@X@X@X@X@X",
"@X@X@X@X@X@X@X@X@X@X@X@X@X@X@X@X@X@X@X@X@X@X@X@X@X@X@X@X@X@X@X@X@X@X@X  & $.q.r.i @X@X@X@X@X@X@X@X@X@X@X@X@X@X@X@X@X@X@X@X@X@X@X",
"@X@X@X@X@X@X@X@X@X@X@X@X@X@X@X@X@X@X@X@X@X@X@X@X@X@X@X@X@X@X@X@X@X@X@X    X o $ @X@X@X@X@X@X@X@X@X@X@X@X@X@X@X@X@X@X@X@X@X@X@X@X"
};
