/* XPM */
static const char *player_3_5[] = {
/* columns rows colors chars-per-pixel */
"64 64 180 2 ",
"   c #270902",
".  c #2C0B01",
"X  c #220701",
"o  c #350C01",
"O  c #3A0D01",
"+  c #2F1002",
"@  c #2F140E",
"#  c #351203",
"$  c #3C1302",
"%  c #3B1906",
"&  c #391708",
"*  c #3E1A08",
"=  c #32140B",
"-  c #3A1E15",
";  c #3C2117",
":  c #411502",
">  c #491507",
",  c #441B03",
"<  c #4A1E03",
"1  c #4C1509",
"2  c #431D0A",
"3  c #4B180F",
"4  c #55190D",
"5  c #571B0D",
"6  c #431F1A",
"7  c #5D1D11",
"8  c #611D13",
"9  c #462005",
"0  c #4D2204",
"q  c #47210B",
"w  c #4B240B",
"e  c #522605",
"r  c #562A05",
"t  c #592C06",
"y  c #502708",
"u  c #552B0E",
"i  c #5B2E09",
"p  c #5E310A",
"a  c #42271C",
"s  c #5A2F12",
"d  c #5E2711",
"f  c #5C3113",
"g  c #5B341C",
"h  c #63340C",
"j  c #69390F",
"k  c #652314",
"l  c #6E2519",
"z  c #652514",
"x  c #74261C",
"c  c #732D1C",
"v  c #7A281E",
"b  c #643512",
"n  c #673811",
"m  c #6C3B12",
"M  c #633A1E",
"N  c #6B3F1D",
"B  c #713F14",
"V  c #703F18",
"C  c #492D22",
"Z  c #4D3227",
"A  c #543A2D",
"S  c #593322",
"D  c #7E2C21",
"F  c #663D21",
"G  c #633E33",
"H  c #744219",
"J  c #794519",
"K  c #754418",
"L  c #474136",
"P  c #564336",
"I  c #704728",
"U  c #724929",
"Y  c #6D4A33",
"T  c #644A3B",
"R  c #734D39",
"E  c #645C4D",
"W  c #755F4D",
"Q  c #7E585D",
"!  c #7A614F",
"~  c #7C7063",
"^  c #822F22",
"/  c #912E2C",
"(  c #8D3328",
")  c #95352C",
"_  c #9A362F",
"`  c #963A2B",
"'  c #9B3C2E",
"]  c #9F3930",
"[  c #9B3630",
"{  c #A03F2F",
"}  c #A33D32",
"|  c #834B1D",
" . c #8D4723",
".. c #8A5729",
"X. c #94572C",
"o. c #8B5634",
"O. c #9A5C30",
"+. c #A34131",
"@. c #AB4335",
"#. c #AF4B35",
"$. c #B44C37",
"%. c #B44A38",
"&. c #AB5337",
"*. c #B55436",
"=. c #B65D36",
"-. c #B85138",
";. c #B15B3B",
":. c #B85137",
">. c #A26B3B",
",. c #B46632",
"<. c #B86338",
"1. c #805640",
"2. c #8D6744",
"3. c #976E48",
"4. c #9F764F",
"5. c #856D59",
"6. c #946E56",
"7. c #8B735E",
"8. c #BC6845",
"9. c #BE7542",
"0. c #BD784F",
"q. c #AF7B50",
"w. c #927B65",
"e. c #967F69",
"r. c #C07642",
"t. c #B08359",
"y. c #9B816A",
"u. c #B88F72",
"i. c #AA957D",
"p. c #B8957D",
"a. c #C4824A",
"s. c #C78852",
"d. c #CE935F",
"f. c #D29A5D",
"g. c #C59563",
"h. c #C79865",
"j. c #D39D63",
"k. c #D19B66",
"l. c #C49D7A",
"z. c #D6A46D",
"x. c #CBA57A",
"c. c #D3A376",
"v. c #DAAD7A",
"b. c #D6A976",
"n. c #DAB07D",
"m. c #A99A82",
"M. c #B69D83",
"N. c #B99A88",
"B. c #B4A68D",
"V. c #BDA78C",
"C. c #BCA59B",
"Z. c #BB91A4",
"A. c #C8AD8A",
"S. c #D8AE80",
"D. c #CDB08C",
"F. c #DAB282",
"G. c #DFBB8D",
"H. c #CCB093",
"J. c #D5B998",
"K. c #CDA3AD",
"L. c #CFBEA0",
"P. c #E5C59A",
"I. c #E4C89F",
"U. c #E1C095",
"Y. c #D5C2A3",
"T. c #DECAAB",
"R. c #D9C3AA",
"E. c #E6CBA4",
"W. c #E4CEAD",
"Q. c #E8C7AA",
"!. c #E9D4AF",
"~. c #EAD5B3",
"^. c #EBD8B7",
"/. c #EED6BE",
"(. c #EDDAB9",
"). c #DFB5C8",
"_. c #E4C1C5",
"`. c #ECCDC4",
"'. c #FF00FF",
"]. c black",
/* pixels */
"'.'.'.'.'.'.'.'.'.'.'.'.'.'.'.'.'.'.'.'.'.'.'.'.'.'.'.'.'.'.'.'.'.'.'.'.'.'.'.'.'.'.'.'.'.'.'.'.'.'.'.'.'.'.'.'.'.'.'.'.'.'.'.'.",
"'.'.'.'.'.'.'.'.'.'.'.'.'.'.'.'.'.'.'.'.'.'.'.'.'.'.'.'.'.'.'.'.'.'.'.'.'.'.'.'.'.'.'.'.'.'.'.'.'.'.'.'.'.'.'.'.'.'.'.'.'.'.'.'.",
"'.'.'.'.'.'.'.'.'.'.'.'.'.'.'.'.'.'.'.'.'.'.'.'.'.'.'.'.'.'.'.'.'.'.'.'.'.'.'.'.'.'.'.'.'.'.'.'.'.'.'.'.'.'.'.'.'.'.'.'.'.'.'.'.",
"'.'.'.'.'.'.'.'.'.'.'.'.'.'.'.'.'.'.'.'.'.'.'.'.'.'.'.'.'.'.'.'.'.'.'.'.'.'.'.'.'.'.'.'.'.'.'.'.'.'.'.'.'.'.'.'.'.'.'.'.'.'.'.'.",
"'.'.'.'.'.'.'.'.'.'.'.'.'.'.'.'.'.'.'.'.'.'.'.'.'.'.'.'.'.'.'.'.'.'.'.'.'.'.'.'.'.'.'.'.'.'.'.'.'.'.'.'.'.'.'.'.'.'.'.'.'.'.'.'.",
"'.'.'.'.'.'.'.'.'.'.'.'.'.'.'.'.'.'.'.'.'.'.'.'.'.'.'.'.'.'.'.'.'.'.'.'.'.'.'.'.'.'.'.'.'.'.'.'.'.'.'.'.'.'.'.'.'.'.'.'.'.'.'.'.",
"'.'.'.'.'.'.'.'.'.'.'.'.'.'.'.'.'.'.'.'.'.'.'.'.'.'.'.'.'.'.'.'.'.'.'.'.'.'.'.'.'.'.'.'.'.'.'.'.'.'.'.'.'.'.'.'.'.'.'.'.'.'.'.'.",
"'.'.'.'.'.'.'.'.'.'.'.'.'.'.'.'.'.'.'.'.'.'.'.'.'.'.'.'.'.'.'.'.'.'.'.'.'.'.'.'.'.'.'.'.'.'.'.'.'.'.'.'.'.'.'.'.'.'.'.'.'.'.'.'.",
"'.'.'.'.'.'.'.'.'.'.'.'.'.'.'.'.'.'.'.'.'.'.'.'.'.'.'.'.'.'.'.'.'.'.'.'.'.'.'.'.'.'.'.'.'.'.'.'.'.'.'.'.'.'.'.'.'.'.'.'.'.'.'.'.",
"'.'.'.'.'.'.'.'.'.'.'.'.'.'.'.'.'.'.'.'.'.'.'.'.'.'.'.'.'.'.'.'.'.'.'.'.'.'.'.'.'.'.'.'.'.'.'.'.'.'.'.'.'.'.'.'.'.'.'.'.'.'.'.'.",
"'.'.'.'.'.'.'.'.'.'.'.'.'.'.'.'.'.'.'.'.'.'.'.'.'.'.'.'.'.'.'.'.'.'.'.'.'.'.'.'.'.'.'.'.'.'.'.'.'.'.'.'.'.'.'.'.'.'.'.'.'.'.'.'.",
"'.'.'.'.'.'.'.'.'.'.'.'.'.'.'.'.'.'.'.'.'.'.'.'.'.'.'.'.'.'.'.'.'.'.'.'.'.'.'.'.'.'.'.'.'.'.'.'.'.'.'.'.'.'.'.'.'.'.'.'.'.'.'.'.",
"'.'.'.'.'.'.'.'.'.'.'.'.'.'.'.'.'.'.'.'.'.'.'.'.'.'.'.'.'.'.'.'.'.'.'.'.'.'.'.'.'.'.'.'.'.'.'.'.'.'.'.'.'.'.'.'.'.'.'.'.'.'.'.'.",
"'.'.'.'.'.'.'.'.'.'.'.'.'.'.'.'.'.'.'.'.'.'.'.'.'.'.. . . . . . . . . . . . '.'.'.'.'.'.'.'.'.'.'.'.'.'.'.'.'.'.'.'.'.'.'.'.'.'.",
"'.'.'.'.'.'.'.'.'.'.'.'.'.'.'.'.'.'.'.'.'.'.'.'.'.# , , , , , , , , , , , , # '.'.'.'.'.'.'.'.'.'.'.'.'.'.'.'.'.'.'.'.'.'.'.'.'.",
"'.'.'.'.'.'.'.'.'.'.'.'.'.'.'.'.'.'.'.'.'.'.'.'.* 9 e r t i i r r i i e 0 e 9 * '.'.'.'.'.'.'.'.'.'.'.'.'.'.'.'.'.'.'.'.'.'.'.'.",
"'.'.'.'.'.'.'.'.'.'.'.'.'.'.'.'.'.'.'.'.'.'.'.2 f h t t h m h t t h m w , e h s % '.'.'.'.'.'.'.'.'.'.'.'.'.'.'.'.'.'.'.'.'.'.'.",
"'.'.'.'.'.'.'.'.'.'.'.'.'.'.'.'.'.'.'.'.'.'.2 s H m p h m m h t t h n s w 9 i i %   '.'.'.'.'.'.'.'.'.'.'.'.'.'.'.'.'.'.'.'.'.'.",
"'.'.'.'.'.'.'.'.'.'.'.'.'.'.'.'.'.'.'.'.'.* f K J m h m B h t r r i h b u , 9 0 % . '.'.'.'.'.'.'.'.'.'.'.'.'.'.'.'.'.'.'.'.'.'.",
"'.'.'.'.'.'.'.'.'.'.'.'.'.'.'.'.'.'.'.'.2 f H J m p h B H p r r t h m u w 9 0 e 9 % . '.'.'.'.'.'.'.'.'.'.'.'.'.'.'.'.'.'.'.'.'.",
"'.'.'.'.'.'.'.'.'.'.'.'.'.'.'.'.'.'.'.  q V J m p r i j m h p t t h b w , e t t r y q & '.'.'.'.'.'.'.'.'.'.'.'.'.'.'.'.'.'.'.'.",
"'.'.'.'.'.'.'.'.'.'.'.'.'.'.'.'.'.'.'.. w m m p t t i p h m h t r t i r e r t t t h b 2 . '.'.'.'.'.'.'.'.'.'.'.'.'.'.'.'.'.'.'.",
"'.'.'.'.'.'.'.'.'.'.'.'.'.'.'.'.'.'.. % y h h t t h j h p h h t r t t t t t r r t h p , . '.'.'.'.'.'.'.'.'.'.'.'.'.'.'.'.'.'.'.",
"'.'.'.'.'.'.'.'.'.'.'.'.'.'.'.'.'.'.+ , r t t r t h m h t t t t t r 0 0 0 r e 0 r r 9 # '.'.'.'.'.'.'.'.'.'.'.'.'.'.'.'.'.'.'.'.",
"'.'.'.'.'.'.'.'.'.'.'.'.'.'.'.'.'.'.+ 9 r r r r t i p i r r r t r 0 $ % , 0 9 , 9 , # '.'.'.'.'.'.'.'.'.'.'.'.'.'.'.'.'.'.'.'.'.",
"'.'.'.'.'.'.'.'.'.'.'.'.'.'.'.'.'.'.+ 9 r t r r t t r t r r t r 0 $ % g g w f M w # . '.'.'.'.'.'.'.'.'.'.'.'.'.'.'.'.'.'.'.'.'.",
"'.'.'.'.'.'.'.'.'.'.'.'.'.'.'.'.'.  # 9 r r r r r r r r t p t e $ % g 3.3.Y 2.4.Y a '.'.'.'.'.'.'.'.'.'.'.'.'.'.'.'.'.'.'.'.'.'.",
"'.'.'.'.'.'.'.'.'.'.'.'.'.'.'.'.  . # 9 r r 0 < e r t t h m h 0 % g 3.x.D.M.A.J.p.! ; '.'.'.'.'.'.'.'.'.'.'.'.'.'.'.'.'.'.'.'.'.",
"'.'.'.'.'.'.'.'.'.'.'.'.'.'.'.'.  . $ 0 t r , : 0 r t h m m h 9 % I g.P.^.^.^.(.T.w.; '.'.'.'.'.'.'.'.'.'.'.'.'.'.'.'.'.'.'.'.'.",
"'.'.'.'.'.'.'.'.'.'.'.'.'.'.'.'.  . $ 0 t r , : 0 r i m m m h 9 % U g.P.^.(.W.W.T.w.; '.'.'.'.'.'.'.'.'.'.'.'.'.'.'.'.'.'.'.'.'.",
"'.'.'.'.'.'.'.'.'.'.'.'.'.'.'.'.  . $ 0 t r , : 0 t r u N ..J 0 % U g.P.^.W.l.u.H.w.; '.'.'.'.'.'.'.'.'.'.'.'.'.'.'.'.'.'.'.'.'.",
"'.'.'.'.'.'.'.'.'.'.'.'.'.'.'.'.  . $ 0 t r , : 0 t 0 % M >...e % U g.P.(.R.6.1.M.w.; '.'.'.'.'.'.'.'.'.'.'.'.'.'.'.'.'.'.'.'.'.",
"'.'.'.'.'.'.'.'.'.'.'.'.'.'.'.'.  . $ 9 t r , : 0 t 0 % s X.| e % U g.P.(.Y.W P i.y.C '.'.'.'.'.'.'.'.'.'.'.'.'.'.'.'.'.'.'.'.'.",
"'.'.'.'.'.'.'.'.'.'.'.'.'.'.'.'.'.. # 9 t r , : 0 t e $ 2 b h 9 % U h.P.(.Y.E L m.V.5.A '.'.'.'.'.'.'.'.'.'.'.'.'.'.'.'.'.'.'.'.",
"'.'.'.'.'.'.'.'.'.'.'.'.'.'.'.'.'.  o , r e , : e t e : $ % 9 9 % F t.J./.R.~ E B.Y.i.T '.'.'.'.'.'.'.'.'.'.'.'.'.'.'.'.'.'.'.'.",
"'.'.'.'.'.'.'.'.'.'.'.'.'.'.'.'.'.'.. $ < e , : 0 t e : $ , 0 0 $ 2 R N._._.C.B.L.M.W Z '.'.'.'.'.'.'.'.'.'.'.'.'.'.'.'.'.'.'.'.",
"'.'.'.'.'.'.'.'.'.'.'.'.'.'.'.'.'.'.. o , 0 , $ , e e < < e t e , # 6 Q Z.).`.(.W.e.a '.'.'.'.'.'.'.'.'.'.'.'.'.'.'.'.'.'.'.'.'.",
"'.'.'.'.'.'.'.'.'.'.'.'.'.'.'.'.'.'.. o : 0 , O $ < r r r r r r e , $ 6 Q K.`.(.Y.7.- '.'.'.'.'.'.'.'.'.'.'.'.'.'.'.'.'.'.'.'.'.",
"'.'.'.'.'.'.'.'.'.'.'.'.'.'.'.'.'.'.. . # : $ o O , r t t r 0 < e e , # G p.Q.J.e.T '.'.'.'.'.'.'.'.'.'.'.'.'.'.'.'.'.'.'.'.'.'.",
"'.'.'.'.'.'.'.'.'.'.'.'.'.'.'.'.'.'.'.. . o $ $ O : 0 r t r < , 0 0 , # g q.l.y.A @ '.'.'.'.'.'.'.'.'.'.'.'.'.'.'.'.'.'.'.'.'.'.",
"'.'.'.'.'.'.'.'.'.'.'.'.'.'.'.'.'.'.'.  . o , , $ O : 0 r r e 0 , $ # # f O.o.S = X '.'.'.'.'.'.'.'.'.'.'.'.'.'.'.'.'.'.'.'.'.'.",
"'.'.'.'.'.'.'.'.'.'.'.'.'.'.'.'.'.'.'.'.. o $ , $ o O : < < e e < $ o 3 c  .d o .   '.'.'.'.'.'.'.'.'.'.'.'.'.'.'.'.'.'.'.'.'.'.",
"'.'.'.'.'.'.'.'.'.'.'.'.'.'.'.'.'.'.'.'.'.. o O O o O O : > < e e , > x ) '.O o . '.'.'.'.'.'.'.'.'.'.'.'.'.'.'.'.'.'.'.'.'.'.'.",
"'.'.'.'.'.'.'.'.'.'.'.'.'.'.'.'.'.'.'.'.'.'.o o o o o O 1 k 7 < e < 1 v ] '.. . . '.'.'.'.'.'.'.'.'.'.'.'.'.'.'.'.'.'.'.'.'.'.'.",
"'.'.'.'.'.'.'.'.'.'.'.'.'.'.'.'.'.'.'.'.'.'.'.o o o o O 7 ( D 7 < : 1 v _ '.'.'.'.'.'.'.'.'.'.'.'.'.'.'.'.'.'.'.'.'.'.'.'.'.'.'.",
"'.'.'.'.'.'.'.'.'.'.'.'.'.'.'.'.'.'.'.'.'.'.'.'.O O O O k ' } D 4 O > v ] '.'.'.'.'.'.'.'.'.'.'.'.'.'.'.'.'.'.'.'.'.'.'.'.'.'.'.",
"'.'.'.'.'.'.'.'.'.'.'.'.'.'.'.'.'.'.'.'.'.'.'.'.z 7 8 1 k +.@.) x 4 1 ^ @.'.'.'.'.'.'.'.'.'.'.'.'.'.'.'.'.'.'.'.'.'.'.'.'.'.'.'.",
"'.'.'.'.'.'.'.'.'.'.'.'.'.'.'.'.'.'.'.'.'.'.,.,.'.'.( l c +.@.] ) v l ` %.'.'.'.'.'.'.'.'.'.'.'.'.'.'.'.'.'.'.'.'.'.'.'.'.'.'.'.",
"'.'.'.'.'.'.'.'.'.'.'.'.'.'.'.'.'.'.'.'.'.'.,.,.'.'.@.` ' #.@.} ] ' { @.@.} '.'.'.'.'.'.'.'.'.'.'.'.'.'.'.'.'.'.'.'.'.'.'.'.'.'.",
"'.'.'.'.'.'.'.'.'.'.'.'.'.'.'.'.'.'.'.'.'.'.'.'.'.'.$.#.;.8.8.;.&.#.%.@.} @.'.'.'.'.'.'.'.'.'.'.'.'.'.'.'.'.'.'.'.'.'.'.'.'.'.'.",
"'.'.'.'.'.'.'.'.'.'.'.'.'.'.'.'.'.'.'.'.'.'.'.'.'.'.-.=.9.d.k.s.9.<.$.} [ } '.'.'.'.'.'.'.'.'.'.'.'.'.'.'.'.'.'.'.'.'.'.'.'.'.'.",
"'.'.'.'.'.'.'.'.'.'.'.'.'.'.'.'.'.'.'.'.'.'.'.'.'.'.:.=.s.S.v.f.s.r.=.@.} _ '.'.'.'.'.'.'.'.'.'.'.'.'.'.'.'.'.'.'.'.'.'.'.'.'.'.",
"'.'.'.'.'.'.'.'.'.'.'.'.'.'.'.'.'.'.'.'.'.'.'.'.'.'.$.*.0.c.F.v.j.a.<.*.@./ '.'.'.'.'.'.'.'.'.'.'.'.'.'.'.'.'.'.'.'.'.'.'.'.'.'.",
"'.'.'.'.'.'.'.'.'.'.'.'.'.'.'.'.'.'.'.'.'.'.'.'.'.'.%.@.&.0.b.G.z.a.<.*.%.'.'.'.'.'.'.'.'.'.'.'.'.'.'.'.'.'.'.'.'.'.'.'.'.'.'.'.",
"'.'.'.'.'.'.'.'.'.'.'.'.'.'.'.'.'.'.'.'.'.'.'.'.'.'.'.'.;.a.k.n.z.'.'.'.'.'.'.'.'.'.'.'.'.'.'.'.'.'.'.'.'.'.'.'.'.'.'.'.'.'.'.'.",
"'.'.'.'.'.'.'.'.'.'.'.'.'.'.'.'.'.'.'.'.'.'.'.'.'.'.'.'.S.b.b.v.'.'.'.'.'.'.'.'.'.'.'.'.'.'.'.'.'.'.'.'.'.'.'.'.'.'.'.'.'.'.'.'.",
"'.'.'.'.'.'.'.'.'.'.'.'.'.'.'.'.'.'.'.'.'.'.'.'.'.'.(.(.!.E.I.I.'.'.f.f.'.'.'.^.'.'.'.'.'.'.'.'.'.'.'.'.'.'.'.'.'.'.'.'.'.'.'.'.",
"'.'.'.'.'.'.'.'.'.'.'.'.'.'.'.'.'.'.'.'.'.'.'.'.'.(.(.^.^.^.^.'.'.'.f.f.f.z.E.^.'.'.'.'.'.'.'.'.'.'.'.'.'.'.'.'.'.'.'.'.'.'.'.'.",
"'.'.'.'.'.'.'.'.'.'.'.'.'.'.'.'.'.'.'.'.'.'.'.'.E.E.W.~.^.'.'.'.'.'.f.f.f.j.G.~.'.'.'.'.'.'.'.'.'.'.'.'.'.'.'.'.'.'.'.'.'.'.'.'.",
"'.'.'.'.'.'.'.'.'.'.'.'.'.'.'.'.'.'.'.'.'.'.'.'.n.v.F.U.'.'.'.'.'.'.'.f.f.j.v.'.'.'.'.'.'.'.'.'.'.'.'.'.'.'.'.'.'.'.'.'.'.'.'.'.",
"'.'.'.'.'.'.'.'.'.'.'.'.'.'.'.'.'.'.'.'.'.'.'.'.f.f.z.P.'.'.'.'.'.'.'.'.f.f.'.'.'.'.'.'.'.'.'.'.'.'.'.'.'.'.'.'.'.'.'.'.'.'.'.'.",
"'.'.'.'.'.'.'.'.'.'.'.'.'.'.'.'.'.'.'.'.'.'.'.'.f.f.b./.'.'.'.'.'.'.'.'.'.'.'.'.'.'.'.'.'.'.'.'.'.'.'.'.'.'.'.'.'.'.'.'.'.'.'.'.",
"'.'.'.'.'.'.'.'.'.'.'.'.'.'.'.'.'.'.'.'.'.'.'.'.'.'.'.'.'.'.'.'.'.'.'.'.'.'.'.'.'.'.'.'.'.'.'.'.'.'.'.'.'.'.'.'.'.'.'.'.'.'.'.'.",
"'.'.'.'.'.'.'.'.'.'.'.'.'.'.'.'.'.'.'.'.'.'.'.'.'.'.'.'.'.'.'.'.'.'.'.'.'.'.'.'.'.'.'.'.'.'.'.'.'.'.'.'.'.'.'.'.'.'.'.'.'.'.'.'."
};
