/* XPM */
static const char *player_3_0[] = {
/* columns rows colors chars-per-pixel */
"64 64 203 2 ",
"   c #050202",
".  c #0D0302",
"X  c #0D0905",
"o  c #0C0B09",
"O  c #130502",
"+  c #1B0602",
"@  c #120E0B",
"#  c #1F0804",
"$  c #16110D",
"%  c #141211",
"&  c #1E1815",
"*  c #1B1611",
"=  c #250902",
"-  c #2B0B01",
";  c #2A0F0B",
":  c #260A05",
">  c #330C00",
",  c #3B0F01",
"<  c #2F1004",
"1  c #2A110D",
"2  c #331204",
"3  c #3C1302",
"4  c #3E1903",
"5  c #31140F",
"6  c #39120C",
"7  c #3C190B",
"8  c #281814",
"9  c #341E14",
"0  c #3D1C14",
"q  c #311710",
"w  c #3C2115",
"e  c #2C2927",
"r  c #411502",
"t  c #441C03",
"y  c #4A1D03",
"u  c #421D0A",
"i  c #49180A",
"p  c #55180E",
"a  c #5C1F0F",
"s  c #461915",
"d  c #4F1F18",
"f  c #461913",
"g  c #521C13",
"h  c #5C1C12",
"j  c #462006",
"k  c #4D2204",
"l  c #46200C",
"z  c #4C250C",
"x  c #4F280E",
"c  c #522605",
"v  c #562A05",
"b  c #592C06",
"n  c #542A0B",
"m  c #5B2E09",
"M  c #5E310A",
"N  c #472310",
"B  c #42241B",
"V  c #412F1C",
"C  c #582D12",
"Z  c #5D231C",
"A  c #552814",
"S  c #5B3317",
"D  c #64350D",
"F  c #67380F",
"G  c #69390F",
"H  c #642013",
"J  c #63291E",
"K  c #64231B",
"L  c #7B2A1F",
"P  c #633511",
"I  c #663913",
"U  c #6C3B11",
"Y  c #61391D",
"T  c #6A3615",
"R  c #723F15",
"E  c #482C21",
"W  c #553829",
"Q  c #473B35",
"!  c #583531",
"~  c #6A2A21",
"^  c #7C2C22",
"/  c #752B23",
"(  c #603B26",
")  c #7D3227",
"_  c #793229",
"`  c #744216",
"'  c #79451A",
"]  c #5A4126",
"[  c #464036",
"{  c #544235",
"}  c #764221",
"|  c #734A2D",
" . c #76462A",
".. c #644D3B",
"X. c #614937",
"o. c #714D3A",
"O. c #78553C",
"+. c #4B4A4A",
"@. c #554E47",
"#. c #6D5444",
"$. c #66564B",
"%. c #745B4A",
"&. c #695C53",
"*. c #705F56",
"=. c #696051",
"-. c #7A6451",
";. c #7D7361",
":. c #7D7C7C",
">. c #822E24",
",. c #883126",
"<. c #853229",
"1. c #8B372B",
"2. c #953C2E",
"3. c #9D3C2F",
"4. c #96352D",
"5. c #9D3830",
"6. c #943930",
"7. c #A23D31",
"8. c #84552B",
"9. c #825D3C",
"0. c #835734",
"q. c #985D32",
"w. c #975A2B",
"e. c #A54233",
"r. c #AB4335",
"t. c #AF4837",
"y. c #A04C3C",
"u. c #B24738",
"i. c #B44938",
"p. c #BA4E3B",
"a. c #88663F",
"s. c #95683F",
"d. c #94673E",
"f. c #A36C39",
"g. c #9F4C40",
"h. c #B75F52",
"j. c #8F6846",
"k. c #976A40",
"l. c #9F754E",
"z. c #876756",
"x. c #956D5A",
"c. c #A3784F",
"v. c #B86D58",
"b. c #8B7465",
"n. c #8C7668",
"m. c #977877",
"M. c #C56A57",
"N. c #CD705C",
"B. c #A5825D",
"V. c #B18559",
"C. c #9D856E",
"Z. c #BB8C60",
"A. c #B68E71",
"S. c #B09173",
"D. c #C59363",
"F. c #C79978",
"G. c #D7AC7A",
"H. c #D9AE7C",
"J. c #DBA479",
"K. c #A07882",
"L. c #AA9C8D",
"P. c #B19F8F",
"I. c #AFA188",
"U. c #B5A187",
"Y. c #B9A184",
"T. c #BCA78C",
"R. c #BFB094",
"E. c #B8A694",
"W. c #C39F81",
"Q. c #C2A88B",
"!. c #CAAA8D",
"~. c #D2B087",
"^. c #C7AD96",
"/. c #D8AC93",
"(. c #DDA694",
"). c #C9B397",
"_. c #CCB79A",
"`. c #CEBB9D",
"'. c #D4B997",
"]. c #E4B383",
"[. c #ECB29D",
"{. c #E1BB9F",
"}. c #E9BC99",
"|. c #D2ADAD",
" X c #CFBDA0",
".X c #CDA2B7",
"XX c #D5B7B6",
"oX c #E0B9BE",
"OX c #E5CBAC",
"+X c #E8CDA7",
"@X c #EAD1AA",
"#X c #EECAB5",
"$X c #EECCB8",
"%X c #F0CEB9",
"&X c #E9D5B4",
"*X c #ECD3BF",
"=X c #ECDAB9",
"-X c #F7D3BD",
";X c #E5BFCB",
":X c #EFD5C0",
">X c #EAC6CC",
",X c #FF00FF",
"<X c black",
/* pixels */
",X,X,X,X,X,X,X,X,X,X,X,X,X,X,X,X,X,X,X,X,X,X,X,X,X,X,X,X,X,X,X,X,X,X,X,X,X,X,X,X,X,X,X,X,X,X,X,X,X,X,X,X,X,X,X,X,X,X,X,X,X,X,X,X",
",X,X,X,X,X,X,X,X,X,X,X,X,X,X,X,X,X,X,X,X,X,X,X,X,X,X,X,X,X,X,X,X,X,X,X,X,X,X,X,X,X,X,X,X,X,X,X,X,X,X,X,X,X,X,X,X,X,X,X,X,X,X,X,X",
",X,X,X,X,X,X,X,X,X,X,X,X,X,X,X,X,X,X,X,X,X,X,X,X,X,X,X,X,X,X,X,X,X,X,X,X,X,X,X,X,X,X,X,X,X,X,X,X,X,X,X,X,X,X,X,X,X,X,X,X,X,X,X,X",
",X,X,X,X,X,X,X,X,X,X,X,X,X,X,X,X,X,X,X,X,X,X,X,X,X,X,X,X,X,X,X,X,X,X,X,X,X,X,X,X,X,X,X,X,X,X,X,X,X,X,X,X,X,X,X,X,X,X,X,X,X,X,X,X",
",X,X,X,X,X,X,X,X,X,X,X,X,X,X,X,X,X,X,X,X,X,X,X,X,X,X,X,X,X,X,X,X,X,X,X,X,X,X,X,X,X,X,X,X,X,X,X,X,X,X,X,X,X,X,X,X,X,X,X,X,X,X,X,X",
",X,X,X,X,X,X,X,X,X,X,X,X,X,X,X,X,X,X,X,X,X,X,X,X,X,X,X,X,X,X,X,X,X,X,X,X,X,X,X,X,X,X,X,X,X,X,X,X,X,X,X,X,X,X,X,X,X,X,X,X,X,X,X,X",
",X,X,X,X,X,X,X,X,X,X,X,X,X,X,X,X,X,X,X,X,X,X,X,X,X,X,X,X,X,X,X,X,X,X,X,X,X,X,X,X,X,X,X,X,X,X,X,X,X,X,X,X,X,X,X,X,X,X,X,X,X,X,X,X",
",X,X,X,X,X,X,X,X,X,X,X,X,X,X,X,X,X,X,X,X,X,X,X,X,X,X,X,X,X,X,X,X,X,X,X,X,X,X,X,X,X,X,X,X,X,X,X,X,X,X,X,X,X,X,X,X,X,X,X,X,X,X,X,X",
",X,X,X,X,X,X,X,X,X,X,X,X,X,X,X,X,X,X,X,X,X,X,X,X,X,X,X,X,X,X,X,X,X,X,X,X,X,X,X,X,X,X,X,X,X,X,X,X,X,X,X,X,X,X,X,X,X,X,X,X,X,X,X,X",
",X,X,X,X,X,X,X,X,X,X,X,X,X,X,X,X,X,X,X,X,X,X,X,X,X,X,X,X,X,X,X,X,X,X,X,X,X,X,X,X,X,X,X,X,X,X,X,X,X,X,X,X,X,X,X,X,X,X,X,X,X,X,X,X",
",X,X,X,X,X,X,X,X,X,X,X,X,X,X,X,X,X,X,X,X,X,X,X,X,X,X,X,X,X,X,X,X,X,X,X,X,X,X,X,X,X,X,X,X,X,X,X,X,X,X,X,X,X,X,X,X,X,X,X,X,X,X,X,X",
",X,X,X,X,X,X,X,X,X,X,X,X,X,X,X,X,X,X,X,X,X,X,X,X,X,X,X,X,X,X,X,X,X,X,X,X,X,X,X,X,X,X,X,X,X,X,X,X,X,X,X,X,X,X,X,X,X,X,X,X,X,X,X,X",
",X,X,X,X,X,X,X,X,X,X,X,X,X,X,X,X,X,X,X,X,X,X,X,X,X,X,X,X,X,X,X,X,X,X,X,X,X,X,X,X,X,X,X,X,X,X,X,X,X,X,X,X,X,X,X,X,X,X,X,X,X,X,X,X",
",X,X,X,X,X,X,X,X,X,X,X,X,X,X,X,X,X,X,X,X,X,X,X,X,X,X,X- - - - - - - - - - - - - ,X,X,X,X,X,X,X,X,X,X,X,X,X,X,X,X,X,X,X,X,X,X,X,X",
",X,X,X,X,X,X,X,X,X,X,X,X,X,X,X,X,X,X,X,X,X,X,X,X,X,X- 4 t t t t t t t t t t t 4 2 ,X,X,X,X,X,X,X,X,X,X,X,X,X,X,X,X,X,X,X,X,X,X,X",
",X,X,X,X,X,X,X,X,X,X,X,X,X,X,X,X,X,X,X,X,X,X,X,X,X2 t k v v m m b v v m b k k k u 7 ,X,X,X,X,X,X,X,X,X,X,X,X,X,X,X,X,X,X,X,X,X,X",
",X,X,X,X,X,X,X,X,X,X,X,X,X,X,X,X,X,X,X,X,X,X,X,X2 z P M b m G U D b M U M t j m P z 2 ,X,X,X,X,X,X,X,X,X,X,X,X,X,X,X,X,X,X,X,X,X",
",X,X,X,X,X,X,X,X,X,X,X,X,X,X,X,X,X,X,X,X,X,X,X2 z I ` F M F U G M v m F P n j z M z - ,X,X,X,X,X,X,X,X,X,X,X,X,X,X,X,X,X,X,X,X,X",
",X,X,X,X,X,X,X,X,X,X,X,X,X,X,X,X,X,X,X,X,X,X2 l T ' ` F F ` U m b v b M F P z t k k 2 ,X,X,X,X,X,X,X,X,X,X,X,X,X,X,X,X,X,X,X,X,X",
",X,X,X,X,X,X,X,X,X,X,X,X,X,X,X,X,X,X,X,X,X< z I ' ` F M F ` U b v v m F P z j k c c t 2 ,X,X,X,X,X,X,X,X,X,X,X,X,X,X,X,X,X,X,X,X",
",X,X,X,X,X,X,X,X,X,X,X,X,X,X,X,X,X,X,X,X,X2 C ' ` F b v D U U F b v m F M j k v b b v z u ,X,X,X,X,X,X,X,X,X,X,X,X,X,X,X,X,X,X,X",
",X,X,X,X,X,X,X,X,X,X,X,X,X,X,X,X,X,X,X,X,X2 n R F b b b m D U U M v b m m c v b b b m P n 2 ,X,X,X,X,X,X,X,X,X,X,X,X,X,X,X,X,X,X",
",X,X,X,X,X,X,X,X,X,X,X,X,X,X,X,X,X,X,X,X2 t m D m v m F F M D F m v b b b b b b b b m D n 2 ,X,X,X,X,X,X,X,X,X,X,X,X,X,X,X,X,X,X",
",X,X,X,X,X,X,X,X,X,X,X,X,X,X,X,X,X,X,X= 2 k b b v v m U U m b b b b v c k k c v k c v c t < ,X,X,X,X,X,X,X,X,X,X,X,X,X,X,X,X,X,X",
",X,X,X,X,X,X,X,X,X,X,X,X,X,X,X,X,X,X,X= 3 c b b v v b M M b v v v v c t 4 4 k k t j k 4 2 ,X,X,X,X,X,X,X,X,X,X,X,X,X,X,X,X,X,X,X",
",X,X,X,X,X,X,X,X,X,X,X,X,X,X,X,X,X,X,X= 3 k b b v b b b b b v v v c t 3 l Y C x Y S t 2 ,X,X,X,X,X,X,X,X,X,X,X,X,X,X,X,X,X,X,X,X",
",X,X,X,X,X,X,X,X,X,X,X,X,X,X,X,X,X,X,X- 3 c b v c v v v v b m M b y 3 u | c.9.o.l.j.W 0 ,X,X,X,X,X,X,X,X,X,X,X,X,X,X,X,X,X,X,X,X",
",X,X,X,X,X,X,X,X,X,X,X,X,X,X,X,X,X,X- - 4 c b c y k v b v b F U m t u | V.~.Q.Y.'.!.C.X.,X,X,X,X,X,X,X,X,X,X,X,X,X,X,X,X,X,X,X,X",
",X,X,X,X,X,X,X,X,X,X,X,X,X,X,X,X,X,X- > r c b k r t v b M F U G m 4 N d.G.+X&X&X=X=X).#.; ,X,X,X,X,X,X,X,X,X,X,X,X,X,X,X,X,X,X,X",
",X,X,X,X,X,X,X,X,X,X,X,X,X,X,X,X,X,X- > r c b k r t v b D U U F b 4 N k.H.@X=X&XOX&X).#.; ,X,X,X,X,X,X,X,X,X,X,X,X,X,X,X,X,X,X,X",
",X,X,X,X,X,X,X,X,X,X,X,X,X,X,X,X,X,X- > r c b k r t v b n C  .8.I 4 N s.G.@X=X'.A.W.Q.#.; ,X,X,X,X,X,X,X,X,X,X,X,X,X,X,X,X,X,X,X",
",X,X,X,X,X,X,X,X,X,X,X,X,X,X,X,X,X,X- > r c b k r t v v t u 8.f.` 4 N s.G.@X=XQ.O.x.Y.#.; ,X,X,X,X,X,X,X,X,X,X,X,X,X,X,X,X,X,X,X",
",X,X,X,X,X,X,X,X,X,X,X,X,X,X,X,X,X,X- > r c b c r t c v t 7 } w.U 4 N s.H.@X=XU.{ -.U.%.9 ,X,X,X,X,X,X,X,X,X,X,X,X,X,X,X,X,X,X,X",
",X,X,X,X,X,X,X,X,X,X,X,X,X,X,X,X,X,X- - 4 c b c y t y c y 3 A T m 4 N k.H.@X=XI.[ =.^.S.%.B ,X,X,X,X,X,X,X,X,X,X,X,X,X,X,X,X,X,X",
",X,X,X,X,X,X,X,X,X,X,X,X,X,X,X,X,X,X,X- 2 k v v v y r k k 3 3 t k t l 0.F.OX*XE.$.;. X_.b.E ,X,X,X,X,X,X,X,X,X,X,X,X,X,X,X,X,X,X",
",X,X,X,X,X,X,X,X,X,X,X,X,X,X,X,X,X,X,X= > r k v v y r y y 3 4 k c t 3 A x.|.>XXXP.R.`.C...,X,X,X,X,X,X,X,X,X,X,X,X,X,X,X,X,X,X,X",
",X,X,X,X,X,X,X,X,X,X,X,X,X,X,X,X,X,X,X= - , y v v y 3 t y t k v v k r 2 ! m..X;X*X=X_.#.q ,X,X,X,X,X,X,X,X,X,X,X,X,X,X,X,X,X,X,X",
",X,X,X,X,X,X,X,X,X,X,X,X,X,X,X,X,X,X,X= - > t v v y , , t k v v v v k r 6 ! K.oX:X&XT...; ,X,X,X,X,X,X,X,X,X,X,X,X,X,X,X,X,X,X,X",
",X,X,X,X,X,X,X,X,X,X,X,X,X,X,X,X,X,X,X,X- - 3 y c y , > r c b c y k v k 3 7 z./.OXT.z.W ,X,X,X,X,X,X,X,X,X,X,X,X,X,X,X,X,X,X,X,X",
",X,X,X,X,X,X,X,X,X,X,X,X,X,X,X,X,X,X,X,X,X- > r k k r , 3 k v c t t c c t 7 0.D.A.-.B ,X,X,X,X,X,X,X,X,X,X,X,X,X,X,X,X,X,X,X,X,X",
",X,X,X,X,X,X,X,X,X,X,X,X,X,X,X,X,X,X,X,X,X- > 3 k c k r , r k c c y t k t u } q.| B - ,X,X,X,X,X,X,X,X,X,X,X,X,X,X,X,X,X,X,X,X,X",
",X,X,X,X,X,X,X,X,X,X,X,X,X,X,X,X,X,X,X,X,X- - > t c c r > > r k v c t t i A J C u - - ,X,X,X,X,X,X,X,X,X,X,X,X,X,X,X,X,X,X,X,X,X",
",X,X,X,X,X,X,X,X,X,X,X,X,X,X,X,X,X,X,X,X,X,X= = > t k r r r 3 r k v k 4 g / s : - - - ,X,X,X,X,X,X,X,X,X,X,X,X,X,X,X,X,X,X,X,X,X",
",X,X,X,X,X,X,X,X,X,X,X,X,X,X,X,X,X,X,X,X,X,X. O - 3 3 3 p H p , r k k r h ^ s O + - ,X,X,X,X,X,X,X,X,X,X,X,X,X,X,X,X,X,X,X,X,X,X",
",X,X,X,X,X,X,X,X,X,X,X,X,X,X,X,X,X,X,X,X,X,X,X. + - > - g ,.^ p r t k t h ^ s . O ,X,X,X,X,X,X,X,X,X,X,X,X,X,X,X,X,X,X,X,X,X,X,X",
",X,X,X,X,X,X,X,X,X,X,X,X,X,X,X,X,X,X,X,X,X,X,X,X. + = : g 3.7.^ p y k y H >.s . ,X,X,X,X,X,X,X,X,X,X,X,X,X,X,X,X,X,X,X,X,X,X,X,X",
",X,X,X,X,X,X,X,X,X,X,X,X,X,X,X,X,X,X,X,X,X,X,X,X,X. # f / r.i.7.^ a y H ,.2.d O ,X,X,X,X,X,X,X,X,X,X,X,X,X,X,X,X,X,X,X,X,X,X,X,X",
",X,X,X,X,X,X,X,X,X,X,X,X,X,X,X,X,X,X,X,X,X,X,X,X,X+ 6 ~ 1.2.e.i.7.L H >.e.e.J ; ,X,X,X,X,X,X,X,X,X,X,X,X,X,X,X,X,X,X,X,X,X,X,X,X",
",X,X,X,X,X,X,X,X,X,X,X,X,X,X,X,X,X,X,X,X,X,X,X,X. 0 _ 6./ d ) i.i.3.4.7.r.7.1.K : ,X,X,X,X,X,X,X,X,X,X,X,X,X,X,X,X,X,X,X,X,X,X,X",
",X,X,X,X,X,X,X,X,X,X,X,X,X,X,X,X,X,X,X,X,X,X,X,X@ ! v.v. .q J t.p.i.r.7.7.r.r.) 1   ,X,X,X,X,X,X,X,X,X,X,X,X,X,X,X,X,X,X,X,X,X,X",
",X,X,X,X,X,X,X,X,X,X,X,X,X,X,X,X,X,X,X,X,X,X,X,X@ $./.J.9.9 J t.p.p.u.5.5.r.i.1.5   ,X,X,X,X,X,X,X,X,X,X,X,X,X,X,X,X,X,X,X,X,X,X",
",X,X,X,X,X,X,X,X,X,X,X,X,X,X,X,X,X,X,X,X,X,X,X,X% *.{.].a.9 J t.p.p.i.r.7.5.r.1.5   ,X,X,X,X,X,X,X,X,X,X,X,X,X,X,X,X,X,X,X,X,X,X",
",X,X,X,X,X,X,X,X,X,X,X,X,X,X,X,X,X,X,X,X,X,X,X,X% *.{.].a.9 Z e.p.p.p.p.r.5.<.J 1 ,X,X,X,X,X,X,X,X,X,X,X,X,X,X,X,X,X,X,X,X,X,X,X",
",X,X,X,X,X,X,X,X,X,X,X,X,X,X,X,X,X,X,X,X,X,X,X,X% &.!.F.9.w Z 3.i.p.p.p.i.2.Z 1 ,X,X,X,X,X,X,X,X,X,X,X,X,X,X,X,X,X,X,X,X,X,X,X,X",
",X,X,X,X,X,X,X,X,X,X,X,X,X,X,X,X,X,X,X,X,X,X,X,X,XQ $...( ~ <.7.u.p.p.p.2.J 5 ,X,X,X,X,X,X,X,X,X,X,X,X,X,X,X,X,X,X,X,X,X,X,X,X,X",
",X,X,X,X,X,X,X,X,X,X,X,X,X,X,X,X,X,X,X,X,X,X,X,X,X,X@ @ 0 _ g.h.M.N.M.y.~ 1 ,X,X,X,X,X,X,X,X,X,X,X,X,X,X,X,X,X,X,X,X,X,X,X,X,X,X",
",X,X,X,X,X,X,X,X,X,X,X,X,X,X,X,X,X,X,X,X,X,X,X,X,X,X,X,X+ B x.(.[.[.F.o.1 ,X,X,X,X,X,X,X,X,X,X,X,X,X,X,X,X,X,X,X,X,X,X,X,X,X,X,X",
",X,X,X,X,X,X,X,X,X,X,X,X,X,X,X,X,X,X,X,X,X,X,X,X,X,X,X,X,X& n.#X-X^.b.Q ,X,X,X,X,X,X,X,X,X,X,X,X,X,X,X,X,X,X,X,X,X,X,X,X,X,X,X,X",
",X,X,X,X,X,X,X,X,X,X,X,X,X,X,X,X,X,X,X,X,X,X,X,X,X,X,X,X,X& n.$X%Xm.e o ,X,X,X,X,X,X,X,X,X,X,X,X,X,X,X,X,X,X,X,X,X,X,X,X,X,X,X,X",
",X,X,X,X,X,X,X,X,X,X,X,X,X,X,X,X,X,X,X,X,X,X,X,X,X,X,X,X,X& b.#X#Xn.8 o ,X,X,X,X,X,X,X,X,X,X,X,X,X,X,X,X,X,X,X,X,X,X,X,X,X,X,X,X",
",X,X,X,X,X,X,X,X,X,X,X,X,X,X,X,X,X,X,X,X,X,X,X,X,X,X,X,X,X* z.}.}.B...@.+.,X,X,X,X,X,X,X,X,X,X,X,X,X,X,X,X,X,X,X,X,X,X,X,X,X,X,X",
",X,X,X,X,X,X,X,X,X,X,X,X,X,X,X,X,X,X,X,X,X,X,X,X,X,X,X,X,X$ o.Z.D.V.B.L.:.e ,X,X,X,X,X,X,X,X,X,X,X,X,X,X,X,X,X,X,X,X,X,X,X,X,X,X",
",X,X,X,X,X,X,X,X,X,X,X,X,X,X,X,X,X,X,X,X,X,X,X,X,X,X,X,X,X,XV W ] ] X.=.+.% ,X,X,X,X,X,X,X,X,X,X,X,X,X,X,X,X,X,X,X,X,X,X,X,X,X,X",
",X,X,X,X,X,X,X,X,X,X,X,X,X,X,X,X,X,X,X,X,X,X,X,X,X,X,X,X,X,XX X X X o @ o   ,X,X,X,X,X,X,X,X,X,X,X,X,X,X,X,X,X,X,X,X,X,X,X,X,X,X"
};
