/* XPM */
static const char *player_0_7[] = {
/* columns rows colors chars-per-pixel */
"64 64 184 2 ",
"   c #010100",
".  c #0A0403",
"X  c #0D0906",
"o  c #0E0C0A",
"O  c #130502",
"+  c #1B0602",
"@  c #120E0B",
"#  c #1C0F08",
"$  c #16120C",
"%  c #1A130B",
"&  c #1A1815",
"*  c #200701",
"=  c #260902",
"-  c #2B0A01",
";  c #220709",
":  c #240B0A",
">  c #2B0C0B",
",  c #340C01",
"<  c #3A0E01",
"1  c #350E09",
"2  c #3F0F08",
"3  c #2A140C",
"4  c #331203",
"5  c #3C1302",
"6  c #3D1903",
"7  c #32140C",
"8  c #3D1808",
"9  c #3A160C",
"0  c #211A11",
"q  c #261C15",
"w  c #391A12",
"e  c #391711",
"r  c #27241E",
"t  c #28221B",
"y  c #352516",
"u  c #3D2010",
"i  c #3E2C1A",
"p  c #2B2823",
"a  c #3F382F",
"s  c #39352D",
"d  c #421602",
"f  c #451A03",
"g  c #491D04",
"h  c #44120D",
"j  c #4A140E",
"k  c #441F0A",
"l  c #4D1E08",
"z  c #481310",
"x  c #451B15",
"c  c #4C1C16",
"v  c #531614",
"b  c #591D16",
"n  c #631D1C",
"m  c #6A1E1E",
"M  c #472005",
"N  c #4D2204",
"B  c #47210B",
"V  c #4B230B",
"C  c #512604",
"Z  c #562A05",
"A  c #582C06",
"S  c #53240A",
"D  c #58270C",
"F  c #55280A",
"G  c #5B2E09",
"H  c #5C2F08",
"J  c #59290D",
"K  c #592D0E",
"L  c #5B2C0A",
"P  c #5F3109",
"I  c #5F310A",
"U  c #4F2018",
"Y  c #412617",
"T  c #5B251C",
"R  c #51291D",
"E  c #42301D",
"W  c #5E3112",
"Q  c #602F0E",
"!  c #62330B",
"~  c #60320B",
"^  c #63340D",
"/  c #65360E",
"(  c #63340D",
")  c #69380F",
"_  c #68380F",
"`  c #63221E",
"'  c #633311",
"]  c #683612",
"[  c #6B3A10",
"{  c #6A3910",
"}  c #6F3D12",
"|  c #6B3A15",
" . c #6D3B13",
".. c #713E15",
"X. c #713E15",
"o. c #4B3824",
"O. c #473421",
"+. c #543922",
"@. c #433D34",
"#. c #5B3C31",
"$. c #692620",
"%. c #6B2B22",
"&. c #7C2624",
"*. c #7B2C25",
"=. c #722622",
"-. c #633423",
";. c #753426",
":. c #744115",
">. c #744116",
",. c #764218",
"<. c #7A451A",
"1. c #7E481A",
"2. c #7C481A",
"3. c #784417",
"4. c #5A4126",
"5. c #484439",
"6. c #584834",
"7. c #67492D",
"8. c #684C37",
"9. c #7A4C31",
"0. c #6E5030",
"q. c #785633",
"w. c #534D41",
"e. c #565044",
"r. c #665A48",
"t. c #7E6141",
"y. c #6C6354",
"u. c #786B57",
"i. c #8D2E2A",
"p. c #8C352B",
"a. c #8D382C",
"s. c #823328",
"d. c #95342D",
"f. c #993A2F",
"g. c #9B3630",
"h. c #9D3B30",
"j. c #A33D32",
"k. c #824C1D",
"l. c #8E4432",
"z. c #9C4A3A",
"x. c #865335",
"c. c #9E5A3C",
"v. c #A64133",
"b. c #AB4335",
"n. c #AE4836",
"m. c #B14737",
"M. c #B24738",
"N. c #B44938",
"B. c #B94D3B",
"V. c #84613B",
"C. c #926B41",
"Z. c #8F7657",
"A. c #B7624E",
"S. c #AA794D",
"D. c #BD6652",
"F. c #A27C53",
"G. c #847661",
"H. c #927D61",
"J. c #C6705A",
"K. c #A38159",
"L. c #B88355",
"P. c #8E826D",
"I. c #978B75",
"U. c #BF9A6E",
"Y. c #B48F77",
"T. c #AA9477",
"R. c #BFA47F",
"E. c #C69766",
"W. c #CE9A67",
"Q. c #B2A38A",
"!. c #B5A286",
"~. c #C39D83",
"^. c #C4AA86",
"/. c #DFB888",
"(. c #D8B488",
"). c #C2AE90",
"_. c #C5B69A",
"`. c #C4B497",
"'. c #E2BA9C",
"]. c #E5C499",
"[. c #EFDCBB",
"{. c #F0DDBB",
"}. c #FF00FF",
"|. c black",
/* pixels */
"}.}.}.}.}.}.}.}.}.}.}.}.}.}.}.}.}.}.}.}.}.}.}.}.}.}.}.}.}.}.}.}.}.}.}.}.}.}.}.}.}.}.}.}.}.}.}.}.}.}.}.}.}.}.}.}.}.}.}.}.}.}.}.}.",
"}.}.}.}.}.}.}.}.}.}.}.}.}.}.}.}.}.}.}.}.}.}.}.}.}.}.}.}.}.}.}.}.}.}.}.}.}.}.}.}.}.}.}.}.}.}.}.}.}.}.}.}.}.}.}.}.}.}.}.}.}.}.}.}.",
"}.}.}.}.}.}.}.}.}.}.}.}.}.}.}.}.}.}.}.}.}.}.}.}.}.}.}.}.}.}.}.}.}.}.}.}.}.}.}.}.}.}.}.}.}.}.}.}.}.}.}.}.}.}.}.}.}.}.}.}.}.}.}.}.",
"}.}.}.}.}.}.}.}.}.}.}.}.}.}.}.}.}.}.}.}.}.}.}.}.}.}.}.}.}.}.}.}.}.}.}.}.}.}.}.}.}.}.}.}.}.}.}.}.}.}.}.}.}.}.}.}.}.}.}.}.}.}.}.}.",
"}.}.}.}.}.}.}.}.}.}.}.}.}.}.}.}.}.}.}.}.}.}.}.}.}.}.}.}.}.}.}.}.}.}.}.}.}.}.}.}.}.}.}.}.}.}.}.}.}.}.}.}.}.}.}.}.}.}.}.}.}.}.}.}.",
"}.}.}.}.}.}.}.}.}.}.}.}.}.}.}.}.}.}.}.}.}.}.}.}.}.}.}.}.}.}.}.}.}.}.}.}.}.}.}.}.}.}.}.}.}.}.}.}.}.}.}.}.}.}.}.}.}.}.}.}.}.}.}.}.",
"}.}.}.}.}.}.}.}.}.}.}.}.}.}.}.}.}.}.}.}.}.}.}.}.}.}.}.}.}.}.}.}.}.}.}.}.}.}.}.}.}.}.}.}.}.}.}.}.}.}.}.}.}.}.}.}.}.}.}.}.}.}.}.}.",
"}.}.}.}.}.}.}.}.}.}.}.}.}.}.}.}.}.}.}.}.}.}.}.}.}.}.}.}.}.}.}.}.}.}.}.}.}.}.}.}.}.}.}.}.}.}.}.}.}.}.}.}.}.}.}.}.}.}.}.}.}.}.}.}.",
"}.}.}.}.}.}.}.}.}.}.}.}.}.}.}.}.}.}.}.}.}.}.}.}.}.}.}.}.}.}.}.}.}.}.}.}.}.}.}.}.}.}.}.}.}.}.}.}.}.}.}.}.}.}.}.}.}.}.}.}.}.}.}.}.",
"}.}.}.}.}.}.}.}.}.}.}.}.}.}.}.}.}.}.}.}.}.}.}.}.}.}.}.}.}.}.}.}.}.}.}.}.}.}.}.}.}.}.}.}.}.}.}.}.}.}.}.}.}.}.}.}.}.}.}.}.}.}.}.}.",
"}.}.}.}.}.}.}.}.}.}.}.}.}.}.}.}.}.}.}.}.}.}.}.}.}.}.}.}.}.}.}.}.}.}.}.}.}.}.}.}.}.}.}.}.}.}.}.}.}.}.}.}.}.}.}.}.}.}.}.}.}.}.}.}.",
"}.}.}.}.}.}.}.}.}.}.}.}.}.}.}.}.}.}.}.}.}.}.}.}.= = = = = = }.}.}.= = = = = }.}.}.}.}.}.}.}.}.}.}.}.}.}.}.}.}.}.}.}.}.}.}.}.}.}.",
"}.}.}.}.}.}.}.}.}.}.}.}.}.}.}.}.}.}.}.}.}.}.}.= - 5 k B B B 8 4 k B B B 8 , = }.}.}.}.}.}.}.}.}.}.}.}.}.}.}.}.}.}.}.}.}.}.}.}.}.",
"}.}.}.}.}.}.}.}.}.}.}.}.}.}.}.}.}.}.}.}.}.= - - 5 S ] | | ] V k W | | | K d , - = = }.}.}.}.}.}.}.}.}.}.}.}.}.}.}.}.}.}.}.}.}.}.",
"}.}.}.}.}.}.}.}.}.}.}.}.}.}.}.}.}.}.}.}.= , 5 f g L / Q K K K K K K L / I N f 6 , - = }.}.}.}.}.}.}.}.}.}.}.}.}.}.}.}.}.}.}.}.}.",
"}.}.}.}.}.}.}.}.}.}.}.}.}.}.}.}.}.}.}.4 4 5 N Z Z Z C g d g L ' N d d N C Z Z C f 5 4 }.}.}.}.}.}.}.}.}.}.}.}.}.}.}.}.}.}.}.}.}.",
"}.}.}.}.}.}.}.}.}.}.}.}.}.}.}.}.}.}.4 f N C Z H Z N d g N C G H C N g d g Z H Z C C N 5 - }.}.}.}.}.}.}.}.}.}.}.}.}.}.}.}.}.}.}.",
"}.}.}.}.}.}.}.}.}.}.}.}.}.}.}.}.}.4 f G ^ H Z Z Z N g g N Z H H Z C g d N Z A Z H ! ! V 5 }.}.}.}.}.}.}.}.}.}.}.}.}.}.}.}.}.}.}.",
"}.}.}.}.}.}.}.}.}.}.}.}.}.}.}.}.- 6 G ..} I G H H Z C d g L G H Z g d g Z H G H G _ :./ N 4 }.}.}.}.}.}.}.}.}.}.}.}.}.}.}.}.}.}.",
"}.}.}.}.}.}.}.}.}.}.}.}.}.}.}.}.- B } 1...! / [ I H C d l / / H Z g d N Z H / [ ! [ 2.3.K 4 }.}.}.}.}.}.}.}.}.}.}.}.}.}.}.}.}.}.",
"}.}.}.}.}.}.}.}.}.}.}.}.}.}.}.}.- V <.k.:.( } :.! H C d S } [ I ! C d g Z H } :.^ [ 1.k.' 4 }.}.}.}.}.}.}.}.}.}.}.}.}.}.}.}.}.}.",
"}.}.}.}.}.}.}.}.}.}.}.}.}.}.}.}.- V ,.1...( [ ..! H C d S ..[ ! ] K d N Z H [ ..^ _ <.2.W 4 }.}.}.}.}.}.}.}.}.}.}.}.}.}.}.}.}.}.",
"}.}.}.}.}.}.}.}.}.}.}.}.}.}.}.}.- M ^ [ / H ! / H H C d S ..[ G F S N C Z H ! ^ I ! _ [ F 4 }.}.}.}.}.}.}.}.}.}.}.}.}.}.}.}.}.}.",
"}.}.}.}.}.}.}.}.}.}.}.}.}.}.}.}.- 6 Z H H A H H H H C d N [ / C d d C A A Z A H A H H H M 4 }.}.}.}.}.}.}.}.}.}.}.}.}.}.}.}.}.}.",
"}.}.}.}.}.}.}.}.}.}.}.}.}.}.}.}.- 6 C H Z Z Z Z Z H C d f L H C d d Z H Z Z Z Z Z Z Z Z g 4 }.}.}.}.}.}.}.}.}.}.}.}.}.}.}.}.}.}.",
"}.}.}.}.}.}.}.}.}.}.}.}.}.}.}.= - f C H H A H H H H Z g d g C C g N Z Z A H H H A Z H A N 4 = }.}.}.}.}.}.}.}.}.}.}.}.}.}.}.}.}.",
"}.}.}.}.}.}.}.}.}.}.}.}.}.}.= = , d C Z A A Z Z Z Z Z Z N d g C Z Z Z A Z Z Z Z Z A Z Z g 5 - = }.}.}.}.}.}.}.}.}.}.}.}.}.}.}.}.",
"}.}.}.}.}.}.}.}.}.}.}.}.}.}.= = , 5 d N Z H H H H Z Z A Z N d g C H H H H H H H Z H Z g d < - = }.}.}.}.}.}.}.}.}.}.}.}.}.}.}.}.",
"}.}.}.}.}.}.}.}.}.}.}.}.}.}.= - 5 5 5 N Z H ! / / ! H Z A Z d d C Z Z A H / / ^ G H C d 5 5 , = }.}.}.}.}.}.}.}.}.}.}.}.}.}.}.}.",
"}.}.}.}.}.}.}.}.}.}.}.}.}.}.= 4 f d d N H G / :.:.[ H H H Z d d N H H H ^ :.,.[ I H Z d d g 5 = }.}.}.}.}.}.}.}.}.}.}.}.}.}.}.}.",
"}.}.}.}.}.}.}.}.}.}.}.}.}.}.= 4 N C C ! / H L ' ,.} ! / / A d d C ( _ ! / ,.| K L ^ / F C C 6 - }.}.}.}.}.}.}.}.}.}.}.}.}.}.}.}.",
"}.}.}.}.}.}.}.}.}.}.}.}.}.}.= 4 g C H [ [ G d l | :.[ :.} F d 5 N / :.} } :.K f C / } ! Z N 5 = }.}.}.}.}.}.}.}.}.}.}.}.}.}.}.}.",
"}.}.}.}.}.}.}.}.}.}.}.}.}.}.= - 5 g Z I I Z d g | 2.<.1.[ g < < d L <.2.1.,.D d N H ! G N d , = }.}.}.}.}.}.}.}.}.}.}.}.}.}.}.}.",
"}.}.}.}.}.}.}.}.}.}.}.}.}.}.= = , 5 g C H Z d g | k.k.k.] f , , < D <.k.k.<.D d N A Z N d < - = }.}.}.}.}.}.}.}.}.}.}.}.}.}.}.}.",
"}.}.}.}.}.}.}.}.}.}.}.}.}.}.}.= , < 5 N H Z d l | 2.<.<.' f , , < F ..<.<.<.K d N H C d < , - = }.}.}.}.}.}.}.}.}.}.}.}.}.}.}.}.",
"}.}.}.}.}.}.}.}.}.}.}.}.}.}.}.}.- , 5 N Z Z d g | | K L F 5 , , < l H K ' ..D d N H C d , - = }.}.}.}.}.}.}.}.}.}.}.}.}.}.}.}.}.",
"}.}.}.}.}.}.}.}.}.}.}.}.}.}.}.}.= - < f N C d f K L g g d < , , < d g g S L l d N C g 5 , = }.}.}.}.}.}.}.}.}.}.}.}.}.}.}.}.}.}.",
"}.}.}.}.}.}.}.}.}.}.}.}.}.}.}.}.= - , 4 f N g d f g g d < < , , , < 5 g l f 5 d N N 5 , , = }.}.}.}.}.}.}.}.}.}.}.}.}.}.}.}.}.}.",
"}.}.}.}.}.}.}.}.}.}.}.}.}.}.}.}.}.= , 5 N C C g g g d , , , < < , , , 5 d g g N C N f 4 - = }.}.}.}.}.}.}.}.}.}.}.}.}.}.}.}.}.}.",
"}.}.}.}.}.}.}.}.}.}.}.}.}.}.}.}.}.}.- f C Z Z A Z N 5 , - , , , , - , 5 g C Z Z Z Z g 4 = }.}.}.}.}.}.}.}.}.}.}.}.}.}.}.}.}.}.}.",
"}.}.}.}.}.}.}.}.}.}.}.}.}.}.}.}.}.}.= 4 d C Z Z Z C g 5 , - , , - - , d C Z Z Z Z N 5 - = }.}.}.}.}.}.}.}.}.}.}.}.}.}.}.}.}.}.}.",
"}.}.}.}.}.}.}.}.}.}.}.}.}.}.}.}.}.}.= - 5 d f g f g d 5 , = , , - - < d g g f g f 5 , = }.}.}.}.}.}.}.}.}.}.}.}.}.}.}.}.}.}.}.}.",
"}.}.}.}.}.}.}.}.}.}.}.}.}.}.}.}.}.}.}.= - , , , , < < < , - - , - , , < < < , - , , = }.}.}.}.}.}.}.}.}.}.}.}.}.}.}.}.}.}.}.}.}.",
"}.}.}.}.}.}.}.}.}.}.}.}.}.}.}.}.}.}.}.}.= = = = , , , , , , , - , , , , , , - = = = }.}.}.}.}.}.}.}.}.}.}.}.}.}.}.}.}.}.}.}.}.}.",
"}.}.}.}.}.}.}.}.}.}.}.}.}.}.}.}.}.}.}.}.= - - - - - , , , , 2 h < , , , , - - - - - }.}.}.}.}.}.}.}.}.}.}.}.}.}.}.}.}.}.}.}.}.}.",
"}.}.}.}.}.}.}.}.}.}.}.}.}.}.}.}.}.}.}.= = - , , , , , , - - z v 1 - , , , , , , , - = }.}.}.}.}.}.}.}.}.}.}.}.}.}.}.}.}.}.}.}.}.",
"}.}.}.}.}.}.}.}.}.}.}.}.}.}.}.}.}.}.}.O + = - 5 b n v 2 = + : > + + , j b n j , = * O }.}.}.}.}.}.}.}.}.}.}.}.}.}.}.}.}.}.}.}.}.",
"}.}.}.}.}.}.}.}.}.}.}.}.}.}.}.}.}.}.}.. # u 7 9 *.d.&.v 1 : ; ; ; > h m i.p.b 7 u 3 . }.}.}.}.}.}.}.}.}.}.}.}.}.}.}.}.}.}.}.}.}.",
"}.}.}.}.}.}.}.}.}.}.}.}.}.}.}.}.}.}.}.$ O.q.+.x p.v.d.&.m n n n n m =.i.j.j.T Y q.7.0 }.}.}.}.}.}.}.}.}.}.}.}.}.}.}.}.}.}.}.}.}.",
"}.}.}.}.}.}.}.}.}.}.}.}.}.}.}.}.}.}.q w.Z.L.x.%.h.N.v.j.g.g.g.g.g.g.g.j.M.n.*.;.S.K.r.s }.}.}.}.}.}.}.}.}.}.}.}.}.}.}.}.}.}.}.}.",
"}.}.}.}.}.}.}.}.}.}.}.}.}.}.}.}.}.}.p P.(.W.c.p.v.N.M.N.N.N.m.m.n.m.m.N.B.n.a.l.L.(.!.w.o }.}.}.}.}.}.}.}.}.}.}.}.}.}.}.}.}.}.}.",
"}.}.}.}.}.}.}.}.}.}.}.}.}.}.}.}.}.}.p I.].E.9.T p.j.v.M.B.B.m.v.v.v.v.N.N.h.$.-.S./.).e.o }.}.}.}.}.}.}.}.}.}.}.}.}.}.}.}.}.}.}.",
"}.}.}.}.}.}.}.}.}.}.}.}.}.}.}.}.}.}.r y.H.t.i 7 *.j.j.v.N.B.m.v.j.j.j.v.m.h.c q 7.Z.G.5.}.}.}.}.}.}.}.}.}.}.}.}.}.}.}.}.}.}.}.}.",
"}.}.}.}.}.}.}.}.}.}.}.}.}.}.}.}.}.}.}.r t 0 # e a.v.j.j.v.b.n.M.m.v.g.d.f.a.x X % t r }.}.}.}.}.}.}.}.}.}.}.}.}.}.}.}.}.}.}.}.}.",
"}.}.}.}.}.}.}.}.}.}.}.}.}.}.}.}.}.}.}.}.  . e ;.v.N.n.v.a.%.s.v.b.j.p.` c x : .   }.}.}.}.}.}.}.}.}.}.}.}.}.}.}.}.}.}.}.}.}.}.}.",
"}.}.}.}.}.}.}.}.}.}.}.}.}.}.}.}.}.}.}.}.}.O U l.A.J.D.z.T > x =.*.*.%.R i y % . }.}.}.}.}.}.}.}.}.}.}.}.}.}.}.}.}.}.}.}.}.}.}.}.",
"}.}.}.}.}.}.}.}.}.}.}.}.}.}.}.}.}.}.}.}.}.}.3 #.Y.'.~.8.: . O : : : w 0.C.V.E X }.}.}.}.}.}.}.}.}.}.}.}.}.}.}.}.}.}.}.}.}.}.}.}.",
"}.}.}.}.}.}.}.}.}.}.}.}.}.}.}.}.}.}.}.}.}.}.. a Q.[._.w.X           @ o.q.0.E }.}.}.}.}.}.}.}.}.}.}.}.}.}.}.}.}.}.}.}.}.}.}.}.}.",
"}.}.}.}.}.}.}.}.}.}.}.}.}.}.}.}.}.}.}.}.}.}.. s Q.{._.w.o }.}.        X $ % }.}.}.}.}.}.}.}.}.}.}.}.}.}.}.}.}.}.}.}.}.}.}.}.}.}.",
"}.}.}.}.}.}.}.}.}.}.}.}.}.}.}.}.}.}.}.}.}.}.o @.Q.{.`.w.o }.}.}.          }.}.}.}.}.}.}.}.}.}.}.}.}.}.}.}.}.}.}.}.}.}.}.}.}.}.}.",
"}.}.}.}.}.}.}.}.}.}.}.}.}.}.}.}.}.}.}.}.}.}.@.u.^.].R.6.X }.}.}.          }.}.}.}.}.}.}.}.}.}.}.}.}.}.}.}.}.}.}.}.}.}.}.}.}.}.}.",
"}.}.}.}.}.}.}.}.}.}.}.}.}.}.}.}.}.}.}.}.}.& y.T.U.E.F.o.X }.}.}.}.        }.}.}.}.}.}.}.}.}.}.}.}.}.}.}.}.}.}.}.}.}.}.}.}.}.}.}.",
"}.}.}.}.}.}.}.}.}.}.}.}.}.}.}.}.}.}.}.}.}.}.5.r.6.4.+.y }.}.}.}.}.}.}.}.}.}.}.}.}.}.}.}.}.}.}.}.}.}.}.}.}.}.}.}.}.}.}.}.}.}.}.}.",
"}.}.}.}.}.}.}.}.}.}.}.}.}.}.}.}.}.}.}.}.}.}.@ o X X X }.}.}.}.}.}.}.}.}.}.}.}.}.}.}.}.}.}.}.}.}.}.}.}.}.}.}.}.}.}.}.}.}.}.}.}.}."
};
