/* XPM */
static const char *player_1_3[] = {
/* columns rows colors chars-per-pixel */
"64 64 216 2 ",
"   c #030201",
".  c #0B0403",
"X  c #0D0B09",
"o  c #150502",
"O  c #140906",
"+  c #1D0B08",
"@  c #100E0C",
"#  c #11110E",
"$  c #1B140D",
"%  c #1B1915",
"&  c #1A1916",
"*  c #260901",
"=  c #2C0C01",
"-  c #280D0A",
";  c #330C01",
":  c #3A0E01",
">  c #2F1002",
",  c #2D110C",
"<  c #341202",
"1  c #3B1302",
"2  c #3D1904",
"3  c #37150D",
"4  c #251C14",
"5  c #3E1D13",
"6  c #391512",
"7  c #29221B",
"8  c #27241E",
"9  c #3C2B19",
"0  c #2A2621",
"q  c #2C2923",
"w  c #3B352D",
"e  c #373838",
"r  c #421502",
"t  c #441C03",
"y  c #4A1D04",
"u  c #431C0A",
"i  c #44150B",
"p  c #541C0B",
"a  c #591E0E",
"s  c #421B14",
"d  c #4C1B13",
"f  c #5D1D13",
"g  c #501B18",
"h  c #611E14",
"j  c #462005",
"k  c #4C2305",
"l  c #4C250B",
"z  c #4F280E",
"x  c #512605",
"c  c #552A05",
"v  c #592D06",
"b  c #522608",
"n  c #542A0B",
"m  c #5A2D0A",
"M  c #5E310A",
"N  c #422113",
"B  c #4E2812",
"V  c #4E2018",
"C  c #472719",
"Z  c #5B231A",
"A  c #562817",
"S  c #5E3110",
"D  c #5B351C",
"F  c #55321F",
"G  c #65360E",
"H  c #61330C",
"J  c #68380F",
"K  c #642114",
"L  c #6E241A",
"P  c #62251E",
"I  c #752A1D",
"U  c #78291E",
"Y  c #653610",
"T  c #633412",
"R  c #6A3A11",
"E  c #6D3B12",
"W  c #683719",
"Q  c #713E13",
"!  c #703F1F",
"~  c #4A2C26",
"^  c #4E3627",
"/  c #5A342A",
"(  c #5A3E2F",
")  c #573725",
"_  c #573932",
"`  c #6A2A21",
"'  c #732A23",
"]  c #7D2B22",
"[  c #663B23",
"{  c #7B3126",
"}  c #743B25",
"|  c #754216",
" . c #7B431B",
".. c #464137",
"X. c #5B4635",
"o. c #6B4225",
"O. c #694326",
"+. c #784E2D",
"@. c #7B502F",
"#. c #7F5634",
"$. c #775033",
"%. c #704C30",
"&. c #5E3D42",
"*. c #554C40",
"=. c #5B5347",
"-. c #585654",
";. c #654942",
":. c #685747",
">. c #675F50",
",. c #685D51",
"<. c #7F5841",
"1. c #7C6040",
"2. c #6E6455",
"3. c #822E26",
"4. c #8B3326",
"5. c #8B342A",
"6. c #8A392B",
"7. c #843427",
"8. c #9A3B2D",
"9. c #92392B",
"0. c #8B3F30",
"q. c #9C3630",
"w. c #9D3A31",
"e. c #A53E33",
"r. c #A93F34",
"t. c #80431D",
"y. c #89452C",
"u. c #9F422F",
"i. c #8D4531",
"p. c #994333",
"a. c #8C5F3B",
"s. c #875935",
"d. c #985D39",
"f. c #8F562C",
"g. c #A44233",
"h. c #AB4335",
"j. c #A74831",
"k. c #B14637",
"l. c #B24937",
"z. c #B54A39",
"x. c #BA4E3B",
"c. c #B24738",
"v. c #B75236",
"b. c #A75A34",
"n. c #946238",
"m. c #B7653A",
"M. c #8F5F47",
"N. c #B25D4A",
"B. c #966845",
"V. c #8F7657",
"C. c #977057",
"Z. c #A8774D",
"A. c #A27952",
"S. c #B26450",
"D. c #855F66",
"F. c #847866",
"G. c #927B64",
"H. c #997C61",
"J. c #967663",
"K. c #8F6E6E",
"L. c #A17E69",
"P. c #C77059",
"I. c #B88658",
"U. c #A38158",
"Y. c #968A74",
"T. c #998D77",
"R. c #978876",
"E. c #8E826D",
"W. c #A58666",
"Q. c #B6936D",
"!. c #BA9873",
"~. c #B18C6D",
"^. c #CC9A6C",
"/. c #C79665",
"(. c #C39E74",
"). c #D0A97C",
"_. c #A37C85",
"`. c #92908D",
"'. c #B89E81",
"]. c #B69C93",
"[. c #BBA68B",
"{. c #B4A286",
"}. c #BAAB91",
"|. c #C29E92",
" X c #CCAA8C",
".X c #D8B488",
"XX c #C1AD93",
"oX c #C5B398",
"OX c #D6BB9C",
"+X c #DCBF98",
"@X c #D0B193",
"#X c #E1BB99",
"$X c #C99EB1",
"%X c #D3B3AB",
"&X c #E4C59C",
"*X c #E0C095",
"=X c #D5C4A6",
"-X c #DDC9AA",
";X c #D9C7AB",
":X c #DDC3B7",
">X c #E5CBA6",
",X c #E2CDAC",
"<X c #E9CEA8",
"1X c #E6D0AD",
"2X c #E3CBB6",
"3X c #E6D3B2",
"4X c #EAD6B5",
"5X c #EBD8B7",
"6X c #EDDAB9",
"7X c #F0DCBC",
"8X c #DBB1C2",
"9X c #E4BCCB",
"0X c #E8C8C4",
"qX c #EED1C4",
"wX c #FF00FF",
"eX c black",
/* pixels */
"wXwXwXwXwXwXwXwXwXwXwXwXwXwXwXwXwXwXwXwXwXwXwXwXwXwXwXwXwXwXwXwXwXwXwXwXwXwXwXwXwXwXwXwXwXwXwXwXwXwXwXwXwXwXwXwXwXwXwXwXwXwXwXwX",
"wXwXwXwXwXwXwXwXwXwXwXwXwXwXwXwXwXwXwXwXwXwXwXwXwXwXwXwXwXwXwXwXwXwXwXwXwXwXwXwXwXwXwXwXwXwXwXwXwXwXwXwXwXwXwXwXwXwXwXwXwXwXwXwX",
"wXwXwXwXwXwXwXwXwXwXwXwXwXwXwXwXwXwXwXwXwXwXwXwXwXwXwXwXwXwXwXwXwXwXwXwXwXwXwXwXwXwXwXwXwXwXwXwXwXwXwXwXwXwXwXwXwXwXwXwXwXwXwXwX",
"wXwXwXwXwXwXwXwXwXwXwXwXwXwXwXwXwXwXwXwXwXwXwXwXwXwXwXwXwXwXwXwXwXwXwXwXwXwXwXwXwXwXwXwXwXwXwXwXwXwXwXwXwXwXwXwXwXwXwXwXwXwXwXwX",
"wXwXwXwXwXwXwXwXwXwXwXwXwXwXwXwXwXwXwXwXwXwXwXwXwXwXwXwXwXwXwXwXwXwXwXwXwXwXwXwXwXwXwXwXwXwXwXwXwXwXwXwXwXwXwXwXwXwXwXwXwXwXwXwX",
"wXwXwXwXwXwXwXwXwXwXwXwXwXwXwXwXwXwXwXwXwXwXwXwXwXwXwXwXwXwXwXwXwXwXwXwXwXwXwXwXwXwXwXwXwXwXwXwXwXwXwXwXwXwXwXwXwXwXwXwXwXwXwXwX",
"wXwXwXwXwXwXwXwXwXwXwXwXwXwXwXwXwXwXwXwXwXwXwXwXwXwXwXwXwXwXwXwXwXwXwXwXwXwXwXwXwXwXwXwXwXwXwXwXwXwXwXwXwXwXwXwXwXwXwXwXwXwXwXwX",
"wXwXwXwXwXwXwXwXwXwXwXwXwXwXwXwXwXwXwXwXwXwXwXwXwXwXwXwXwXwXwXwXwXwXwXwXwXwXwXwXwXwXwXwXwXwXwXwXwXwXwXwXwXwXwXwXwXwXwXwXwXwXwXwX",
"wXwXwXwXwXwXwXwXwXwXwXwXwXwXwXwXwXwXwXwXwXwXwXwXwXwXwXwXwXwXwXwXwXwXwXwXwXwXwXwXwXwXwXwXwXwXwXwXwXwXwXwXwXwXwXwXwXwXwXwXwXwXwXwX",
"wXwXwXwXwXwXwXwXwXwXwXwXwXwXwXwXwXwXwXwXwXwXwXwXwXwXwXwXwXwXwXwXwXwXwXwXwXwXwXwXwXwXwXwXwXwXwXwXwXwXwXwXwXwXwXwXwXwXwXwXwXwXwXwX",
"wXwXwXwXwXwXwXwXwXwXwXwXwXwXwXwXwXwXwXwXwXwXwXwXwXwXwXwXwXwXwXwXwXwXwXwXwXwXwXwXwXwXwXwXwXwXwXwXwXwXwXwXwXwXwXwXwXwXwXwXwXwXwXwX",
"wXwXwXwXwXwXwXwXwXwXwXwXwXwXwXwXwXwXwXwXwXwXwXwX* * * * * * wXwXwX* * * * * wXwXwXwXwXwXwXwXwXwXwXwXwXwXwXwXwXwXwXwXwXwXwXwXwXwX",
"wXwXwXwXwXwXwXwXwXwXwXwXwXwXwXwXwXwXwXwXwXwXwX= < 1 < 1 1 < < = < 1 1 1 < < < wXwXwXwXwXwXwXwXwXwXwXwXwXwXwXwXwXwXwXwXwXwXwXwXwX",
"wXwXwXwXwXwXwXwXwXwXwXwXwXwXwXwXwXwXwXwXwX= = 1 k b b k k k t 2 k k k x b k 2 < = = wXwXwXwXwXwXwXwXwXwXwXwXwXwXwXwXwXwXwXwXwXwX",
"wXwXwXwXwXwXwXwXwXwXwXwXwXwXwXwXwXwXwXwX< t l n m H G l j c m m n k k M G M m n j 1 = wXwXwXwXwXwXwXwXwXwXwXwXwXwXwXwXwXwXwXwXwX",
"wXwXwXwXwXwXwXwXwXwXwXwXwXwXwXwXwXwXwX< t m R R H G R n u k H Y n u l T R H G E H k < wXwXwXwXwXwXwXwXwXwXwXwXwXwXwXwXwXwXwXwXwX",
"wXwXwXwXwXwXwXwXwXwXwXwXwXwXwXwXwXwX< t m E E H v m H Y n t k n t l T Y H v M J Q G k < = wXwXwXwXwXwXwXwXwXwXwXwXwXwXwXwXwXwXwX",
"wXwXwXwXwXwXwXwXwXwXwXwXwXwXwXwXwX< 2 k G | R v v H G S l t k k u l m Y G v c H | Q v u 1 wXwXwXwXwXwXwXwXwXwXwXwXwXwXwXwXwXwXwX",
"wXwXwXwXwXwXwXwXwXwXwXwXwXwXwXwX= 1 k c G | R M v G R l t k c c x u u S R M v G Q R v b u > wXwXwXwXwXwXwXwXwXwXwXwXwXwXwXwXwXwX",
"wXwXwXwXwXwXwXwXwXwXwXwXwXwXwXwX= 2 b v m G E R M M M b k c v v c k k m H M G E J M v c j < wXwXwXwXwXwXwXwXwXwXwXwXwXwXwXwXwXwX",
"wXwXwXwXwXwXwXwXwXwXwXwXwXwXwXwX= 2 c H m b M R M v v v v v v v v v v v v v G Y n n H M j > wXwXwXwXwXwXwXwXwXwXwXwXwXwXwXwXwXwX",
"wXwXwXwXwXwXwXwXwXwXwXwXwXwXwXwX= 2 m R M 2 u c c c c c c c c b c c b c c c c k 2 l R H j > wXwXwXwXwXwXwXwXwXwXwXwXwXwXwXwXwXwX",
"wXwXwXwXwXwXwXwXwXwXwXwXwXwXwXwX= 2 c H n < < r r j x u u x j u k k t k k t r 1 ; u H M u = wXwXwXwXwXwXwXwXwXwXwXwXwXwXwXwXwXwX",
"wXwXwXwXwXwXwXwXwXwXwXwXwXwXwXwX= 2 x x t ; = 1 l l l z z k l B l l B l l B u ; = 1 k c u = wXwXwXwXwXwXwXwXwXwXwXwXwXwXwXwXwXwX",
"wXwXwXwXwXwXwXwXwXwXwXwXwXwXwXwX= 2 k t < ; ; A s.+.D #.#.D +.s.) o.a.O.O.a.o.3 ; : 2 k u < wXwXwXwXwXwXwXwXwXwXwXwXwXwXwXwXwXwX",
"wXwXwXwXwXwXwXwXwXwXwXwXwXwXwX= 2 k b n u 1 A a.!.Q.H.!.!.C.Q.!.H.W.(.W.W.(.A.[ u 2 l n k r < wXwXwXwXwXwXwXwXwXwXwXwXwXwXwXwXwX",
"wXwXwXwXwXwXwXwXwXwXwXwXwXwX* < k v H T l u #.(.&X,X-X,X,X-X,X,X-X,X,X,X,X>X.XA.A u S H m x 1 = wXwXwXwXwXwXwXwXwXwXwXwXwXwXwXwX",
"wXwXwXwXwXwXwXwXwXwXwXwXwXwX* < k G R n 2 5 V.+X4X6X5X5X6X6X6X6X6X6X6X6X6X5X<X!.) < l Y J m 2 = wXwXwXwXwXwXwXwXwXwXwXwXwXwXwXwX",
"wXwXwXwXwXwXwXwXwXwXwXwXwXwX* < k m T W B C G.,X4XOX XOX4X6X5X5X5X5X,X@X@X,X5X[.( N D W H c 2 = wXwXwXwXwXwXwXwXwXwXwXwXwXwXwXwX",
"wXwXwXwXwXwXwXwXwXwXwXwXwXwX* < k k S s.@.) G.,X3X~.M.'.4X6X5X5X5X6XOXC.C.OX6X[.X.[ a.! x k 2 = wXwXwXwXwXwXwXwXwXwXwXwXwXwXwXwX",
"wXwXwXwXwXwXwXwXwXwXwXwXwXwX* < k k H f.f.F G.,X,XG.( T.3X6X5X5X6X6XoX:.:.oX6X[.X.[ d. .x k 2 = wXwXwXwXwXwXwXwXwXwXwXwXwXwXwXwX",
"wXwXwXwXwXwXwXwXwXwXwXwXwXwX* < k c H  .W C G.1X,XF.w Y.3X6X5X5X6X7XXX*.*.oX7X[.( A t.E v b 2 = wXwXwXwXwXwXwXwXwXwXwXwXwXwXwXwX",
"wXwXwXwXwXwXwXwXwXwXwXwXwXwX* < k v c b r N G.3X,XF...T.3X6X5X5X6X6XoX=.=.oX7X[.( 1 p c v b 2 = wXwXwXwXwXwXwXwXwXwXwXwXwXwXwXwX",
"wXwXwXwXwXwXwXwXwXwXwXwXwXwX* < k x y t < 5 K.2X0X].F.}.4X6X5X5X5X6X=XY.R.%XqX]._ ; r y x x 2 = wXwXwXwXwXwXwXwXwXwXwXwXwXwXwXwX",
"wXwXwXwXwXwXwXwXwXwXwXwXwXwXwX< u t r t r N D.$X9X0X;X3X6X6X4X5X5X5X3X-X:X9X8X_./ 2 t r r y 2 = wXwXwXwXwXwXwXwXwXwXwXwXwXwXwXwX",
"wXwXwXwXwXwXwXwXwXwXwXwXwXwXwXwX< < : 1 t l / D.$X0X6X5X5X5X5X5X5X4X5X6XqX8X_.;.B u r 1 : < < wXwXwXwXwXwXwXwXwXwXwXwXwXwXwXwXwX",
"wXwXwXwXwXwXwXwXwXwXwXwXwXwXwXwX= = ; : r k 2 ~ D.|.#X&X>X4X6X6X5X1X&X&X@X_.&.3 k y 1 ; ; = wXwXwXwXwXwXwXwXwXwXwXwXwXwXwXwXwXwX",
"wXwXwXwXwXwXwXwXwXwXwXwXwXwXwXwX= = ; : r k 2 , C <.I./.).&X,X,X>X.X^./.C./ 3 < y y : ; ; = wXwXwXwXwXwXwXwXwXwXwXwXwXwXwXwXwXwX",
"wXwXwXwXwXwXwXwXwXwXwXwXwXwXwXwXwX= = ; 1 r 1 = ; B o.+.B.I.^.^./.A.@.o.D 1 = : r r : ; = = wXwXwXwXwXwXwXwXwXwXwXwXwXwXwXwXwXwX",
"wXwXwXwXwXwXwXwXwXwXwXwXwXwXwXwXwXwX= : 1 : 1 1 : i d V } b.m.m.m.y.Z d i : : 1 : 1 1 ; * wXwXwXwXwXwXwXwXwXwXwXwXwXwXwXwXwXwXwX",
"wXwXwXwXwXwXwXwXwXwXwXwXwXwXwXwXwXwX= 2 t 1 r t r p I 6.u.l.v.v.v.j.9.3.h r t t 1 r t < * wXwXwXwXwXwXwXwXwXwXwXwXwXwXwXwXwXwXwX",
"wXwXwXwXwXwXwXwXwXwXwXwXwXwXwXwXwXwX= 2 2 1 r t y a I 8.k.x.x.x.x.z.e.3.K y t t 1 1 2 < wXwXwXwXwXwXwXwXwXwXwXwXwXwXwXwXwXwXwXwX",
"wXwXwXwXwXwXwXwXwXwXwXwXwXwXwXwXwXwXwX= = = 1 y k y h 4.h.z.x.x.x.c.8.L p y y r : = = wXwXwXwXwXwXwXwXwXwXwXwXwXwXwXwXwXwXwXwXwX",
"wXwXwXwXwXwXwXwXwXwXwXwXwXwXwXwXwXwXwXwXo * d K p a U 8.c.x.x.x.x.z.h.4.K p K f , o wXwXwXwXwXwXwXwXwXwXwXwXwXwXwXwXwXwXwXwXwXwX",
"wXwXwXwXwXwXwXwXwXwXwXwXwXwXwXwXwXwXwXwX+ 6 ' ] p K 8.z.x.x.x.x.x.x.z.h.] p L ] g - wXwXwXwXwXwXwXwXwXwXwXwXwXwXwXwXwXwXwXwXwXwX",
"wXwXwXwXwXwXwXwXwXwXwXwXwXwXwXwXwXwXwX. 3 ' 5.] f I h.x.z.z.z.z.z.z.x.z.4.f L 4.3.d O wXwXwXwXwXwXwXwXwXwXwXwXwXwXwXwXwXwXwXwXwX",
"wXwXwXwXwXwXwXwXwXwXwXwXwXwXwXwXwXwXwX. s 7.' Z I 8.c.k.h.h.h.h.h.h.h.z.g.7.Z P 6.P O wXwXwXwXwXwXwXwXwXwXwXwXwXwXwXwXwXwXwXwXwX",
"wXwXwXwXwXwXwXwXwXwXwXwXwXwXwXwXwXwXwX. C i.F 6 7.k.h.h.e.e.e.e.e.e.e.h.k.u.V s y.[ O wXwXwXwXwXwXwXwXwXwXwXwXwXwXwXwXwXwXwXwXwX",
"wXwXwXwXwXwXwXwXwXwXwXwXwXwXwXwXwXwXwX$ ) B.[ 5 6.h.q.e.k.k.c.c.c.k.h.q.e.g.Z C a.$.4 wXwXwXwXwXwXwXwXwXwXwXwXwXwXwXwXwXwXwXwXwX",
"wXwXwXwXwXwXwXwXwXwXwXwXwXwXwXwXwXwX4 *.V.I.s.` w.h.w.w.h.z.x.x.x.h.e.q.r.h.{ } Z.U.>.w wXwXwXwXwXwXwXwXwXwXwXwXwXwXwXwXwXwXwXwX",
"wXwXwXwXwXwXwXwXwXwXwXwXwXwXwXwXwXwX0 E..X^.d.6.g.z.h.w.e.c.x.x.x.r.q.r.z.h.5.i.I..X{.*.X wXwXwXwXwXwXwXwXwXwXwXwXwXwXwXwXwXwXwX",
"wXwXwXwXwXwXwXwXwXwXwXwXwXwXwXwXwXwXq Y.*X/.+.Z 5.k.z.h.h.z.x.x.x.k.h.c.z.w.` [ Z..XXX*.X wXwXwXwXwXwXwXwXwXwXwXwXwXwXwXwXwXwXwX",
"wXwXwXwXwXwXwXwXwXwXwXwXwXwXwXwXwXwX8 2.G.1.9 3 3.h.c.z.x.x.x.x.x.x.z.z.h.8.d 4 %.V.F...wXwXwXwXwXwXwXwXwXwXwXwXwXwXwXwXwXwXwXwX",
"wXwXwXwXwXwXwXwXwXwXwXwXwXwXwXwXwXwXwX8 7 4 X , { e.r.k.x.x.x.x.x.x.x.h.h.g.V O $ 7 8 wXwXwXwXwXwXwXwXwXwXwXwXwXwXwXwXwXwXwXwXwX",
"wXwXwXwXwXwXwXwXwXwXwXwXwXwXwXwXwXwXwXwXwXwXwX- V { g.z.x.x.x.x.x.x.x.k.z.g.V .   wXwXwXwXwXwXwXwXwXwXwXwXwXwXwXwXwXwXwXwXwXwXwX",
"wXwXwXwXwXwXwXwXwXwXwXwXwXwXwXwXwXwXwXwXwXwXwXwX+ / S.P.N.p.6.6.6.6.p.N.N.0.s . wXwXwXwXwXwXwXwXwXwXwXwXwXwXwXwXwXwXwXwXwXwXwXwX",
"wXwXwXwXwXwXwXwXwXwXwXwXwXwXwXwXwXwXwXwXwXwXwXwX@ ;. X#XL.~ , , , , ~ J.J.^ + wXwXwXwXwXwXwXwXwXwXwXwXwXwXwXwXwXwXwXwXwXwXwXwXwX",
"wXwXwXwXwXwXwXwXwXwXwXwXwXwXwXwXwXwXwXwXwXwXwXwX# >.=X5XT.0         % X.:.0 wXwXwXwXwXwXwXwXwXwXwXwXwXwXwXwXwXwXwXwXwXwXwXwXwXwX",
"wXwXwXwXwXwXwXwXwXwXwXwXwXwXwXwXwXwXwXwXwXwXwXwX# >.=X6XT.0   wXwXwX  # % wXwXwXwXwXwXwXwXwXwXwXwXwXwXwXwXwXwXwXwXwXwXwXwXwXwXwX",
"wXwXwXwXwXwXwXwXwXwXwXwXwXwXwXwXwXwXwXwXwXwXwXwX& 2.=X4XY.0 wXwXwXwXwXwXwXwXwXwXwXwXwXwXwXwXwXwXwXwXwXwXwXwXwXwXwXwXwXwXwXwXwXwX",
"wXwXwXwXwXwXwXwXwXwXwXwXwXwXwXwXwXwXwXwXwXwXwXwX-.T.@X'.>.& wXwXwXwXwXwXwXwXwXwXwXwXwXwXwXwXwXwXwXwXwXwXwXwXwXwXwXwXwXwXwXwXwXwX",
"wXwXwXwXwXwXwXwXwXwXwXwXwXwXwXwXwXwXwXwXwXwXwXe `.XXW.X.%   wXwXwXwXwXwXwXwXwXwXwXwXwXwXwXwXwXwXwXwXwXwXwXwXwXwXwXwXwXwXwXwXwXwX",
"wXwXwXwXwXwXwXwXwXwXwXwXwXwXwXwXwXwXwXwXwXwX  & -.,.^ $   wXwXwXwXwXwXwXwXwXwXwXwXwXwXwXwXwXwXwXwXwXwXwXwXwXwXwXwXwXwXwXwXwXwXwX",
"wXwXwXwXwXwXwXwXwXwXwXwXwXwXwXwXwXwXwXwXwXwX    X @ .     wXwXwXwXwXwXwXwXwXwXwXwXwXwXwXwXwXwXwXwXwXwXwXwXwXwXwXwXwXwXwXwXwXwXwX"
};
