/* XPM */
static char * text_victory_xpm[] = {
"234 32 172 2",
"  	c #000000",
". 	c #B3B3B3",
"+ 	c #F9F9F9",
"@ 	c #818181",
"# 	c #686868",
"$ 	c #F6F6F6",
"% 	c #989898",
"& 	c #919191",
"* 	c #FEFEFE",
"= 	c #F3F3F3",
"- 	c #454545",
"; 	c #A8A8A8",
"> 	c #FFFFFF",
", 	c #7D7D7D",
"' 	c #9F9F9F",
") 	c #A0A0A0",
"! 	c #CCCCCC",
"~ 	c #262626",
"{ 	c #696969",
"] 	c #F7F7F7",
"^ 	c #FDFDFD",
"/ 	c #868686",
"( 	c #E2E2E2",
"_ 	c #D5D5D5",
": 	c #BFBFBF",
"< 	c #959595",
"[ 	c #3B3B3B",
"} 	c #ABABAB",
"| 	c #DDDDDD",
"1 	c #EFEFEF",
"2 	c #222222",
"3 	c #C4C4C4",
"4 	c #969696",
"5 	c #858585",
"6 	c #6D6D6D",
"7 	c #D7D7D7",
"8 	c #3D3D3D",
"9 	c #ECECEC",
"0 	c #A4A4A4",
"a 	c #5A5A5A",
"b 	c #D9D9D9",
"c 	c #D4D4D4",
"d 	c #606060",
"e 	c #8C8C8C",
"f 	c #F4F4F4",
"g 	c #A1A1A1",
"h 	c #DCDCDC",
"i 	c #4F4F4F",
"j 	c #DFDFDF",
"k 	c #888888",
"l 	c #7A7A7A",
"m 	c #FBFBFB",
"n 	c #D6D6D6",
"o 	c #BEBEBE",
"p 	c #9B9B9B",
"q 	c #BABABA",
"r 	c #EAEAEA",
"s 	c #9C9C9C",
"t 	c #EDEDED",
"u 	c #F8F8F8",
"v 	c #656565",
"w 	c #C6C6C6",
"x 	c #161616",
"y 	c #F5F5F5",
"z 	c #6E6E6E",
"A 	c #E0E0E0",
"B 	c #0D0D0D",
"C 	c #A5A5A5",
"D 	c #F2F2F2",
"E 	c #BCBCBC",
"F 	c #CBCBCB",
"G 	c #8E8E8E",
"H 	c #E4E4E4",
"I 	c #DBDBDB",
"J 	c #474747",
"K 	c #D0D0D0",
"L 	c #898989",
"M 	c #B0B0B0",
"N 	c #E9E9E9",
"O 	c #AEAEAE",
"P 	c #929292",
"Q 	c #9E9E9E",
"R 	c #D1D1D1",
"S 	c #E8E8E8",
"T 	c #555555",
"U 	c #CFCFCF",
"V 	c #E7E7E7",
"W 	c #585858",
"X 	c #353535",
"Y 	c #FAFAFA",
"Z 	c #5D5D5D",
"` 	c #CECECE",
" .	c #BDBDBD",
"..	c #1C1C1C",
"+.	c #FCFCFC",
"@.	c #626262",
"#.	c #F0F0F0",
"$.	c #666666",
"%.	c #383838",
"&.	c #808080",
"*.	c #E3E3E3",
"=.	c #C7C7C7",
"-.	c #797979",
";.	c #CDCDCD",
">.	c #4B4B4B",
",.	c #E1E1E1",
"'.	c #D3D3D3",
").	c #909090",
"!.	c #515151",
"~.	c #C0C0C0",
"{.	c #B6B6B6",
"].	c #404040",
"^.	c #DEDEDE",
"/.	c #D2D2D2",
"(.	c #6A6A6A",
"_.	c #F1F1F1",
":.	c #949494",
"<.	c #636363",
"[.	c #C8C8C8",
"}.	c #ADADAD",
"|.	c #757575",
"1.	c #8A8A8A",
"2.	c #EEEEEE",
"3.	c #4D4D4D",
"4.	c #7E7E7E",
"5.	c #BBBBBB",
"6.	c #DADADA",
"7.	c #707070",
"8.	c #A3A3A3",
"9.	c #C1C1C1",
"0.	c #B8B8B8",
"a.	c #494949",
"b.	c #A9A9A9",
"c.	c #5F5F5F",
"d.	c #2E2E2E",
"e.	c #7F7F7F",
"f.	c #B9B9B9",
"g.	c #AAAAAA",
"h.	c #D8D8D8",
"i.	c #A2A2A2",
"j.	c #C5C5C5",
"k.	c #767676",
"l.	c #5C5C5C",
"m.	c #565656",
"n.	c #AFAFAF",
"o.	c #828282",
"p.	c #535353",
"q.	c #737373",
"r.	c #E6E6E6",
"s.	c #E5E5E5",
"t.	c #8B8B8B",
"u.	c #848484",
"v.	c #6C6C6C",
"w.	c #323232",
"x.	c #A7A7A7",
"y.	c #B2B2B2",
"z.	c #979797",
"A.	c #2A2A2A",
"B.	c #939393",
"C.	c #C2C2C2",
"D.	c #A6A6A6",
"E.	c #EBEBEB",
"F.	c #8F8F8F",
"G.	c #B4B4B4",
"H.	c #717171",
"I.	c #727272",
"J.	c #CACACA",
"K.	c #B1B1B1",
"L.	c #C3C3C3",
"M.	c #7C7C7C",
"N.	c #787878",
"O.	c #9D9D9D",
"                                                                                                                                                                                                                                                                                                                                                                                                                                                                                    ",
"                                                                                                                                                                                                                                                                                                                                                                                                                                                                                    ",
"                                                                                                                                                                                                                                                                                                                                                                                                                                                                                    ",
"                                                                                                                                                                                                                                                                                                                                                                                                                                                                                    ",
"                                                                                                                                                                                                                                                                                                                                                                                                                                                                                    ",
"                                                                                                                                                                                                                                                                                                                                                                                                                                                                                    ",
"                                                                                                                                                                                                                                                                                                                                                                                                                                                                                    ",
"                                                                                                                                                                                                                                                                                                                                                                                                                                                                                    ",
"                        . + @                                                                                                                                                   # $ %                                                                                                                                                                                                                                                                                               ",
"                      & * = -                                                                                                                                                   ; > .                                                                                                                                                                                                         , $ '                                                                                 ",
"      ) + ! ~       { ] ^ /                                                                                                                                         ( _         : > <                                                                                                                                                         [ } | $ ^ 1 : 2                                 3 > 4                                                                   ) $ 5         ",
"      6 $ > 7 ~   8 9 > 0                                                                                                                                         a > b         c > d                                                                                                                                                       e f > > > > > > g                                 h > i                                                                   j > k         ",
"        l m > b [ n > o                                                                                                                                           p > q         r $                     s t u )                                                                                         s t u )                           v m ^ w @ - x < y z                                 1 1                                                                     t * 8         ",
"          4 * > $ > A B       C D E           F A     6 y G                                                   C D E           H I                             2 J K > L 8 , M N > h     O f P         Q > R $ S                     T U u V i       W K ] N 8                                         Q > R $ S                           ) > 7                   X q t Y | Z               8 > _             C D E           ` c                       8  .= m q   ..m V           ",
"            ) +.> + @.      C > > > #.$.%.&.` > *.    =.> @                   $.] 4     k y -.    # f ;.a >.,.> > > #.$.%.&.'.> h   ).1 7                 !.$ > > > > Y > > m 7 > ~.  {.> > .       ].] ^.8 ] /.                  (._.n C > :.    <.= +.[.> }.        ;.t B |.V y 6   1.2.2.i       ].] ^.8 ] /.                          (.^ * } ..            3.N D -.(.f A               4.> q           C > > > #.$.%.&.;.> V   1.1 2.{           6 2.u 5.^ 6.  7.> 3           ",
"              8.> F       <.Y _.7.: > > > > > > '   X y ] B                   5 > 9.    *.> }.    K > > * > > m 7.: > > > > > > 0.G +.> c                 a.$ > > > + b 3 p ].:.> ' 5 * K > '       b.> Q h ] c.                %.2.V d.; > e.  2 V > 4 L > &     - ^.^ Y $.y > > f., m > > g.      b.> Q h ] c.                            M * > _.q |.        '.* l     h.* x             ' > i.        <.Y _.7.: > > > > > > F d + > > =.        d > #.$.x > w   % > p           ",
"              ' > 9.      U > 4   C > t + *.> = ..  j.> r                     6 > `   k.> > [.  %.Y h.l...U > 4   C > t + *._ > C ] ^.> /.                  ].i m.> K         n.> o.2.6.:.> :.    p.> > t 2.z                   ~.* q.   .> c.  n.> [.  ;.> @   l.N r.^ b s.u t.> 6.1 ] u.^ h.      '.> t 2.z                                 , n +.> > H z   v.> _     w.= r               . > P       w.> > 4   C > t + *.( > ; 6.= k.* ,.      B > > 7.  6 > 5.  x.> $.          ",
"              y.> 0.    2 Y = B   j.> i     $ K   8.> ^ u 2                   2 m H   w f N V   z.> ,   2 Y = B   j.> i     {.> 1 A A.y S                       ).> {.         .> ! Y c.B.> C.- D.= > > F 8     L E.          - m '.  W D > %.2 = $ - 7.Y > }.F.y _.% > r * 1.  f > ^ t.  ^.+.(.c.y.> > F 8     L E.                              ].' r.> 9   y.> p   B ;.+.L               f.> z.    8 ^.> = B   j.> i     o > G.> 4   2.#.    A.= > =.B ) D > {.  t.S A.          ",
"              =.> O     a > '.  %.y *.    %.> ` x.^ 1 } > n.p.7 z               *.m ].$ 9.C.* a.F t     a > '.  %.y *.      R > #.>.  3 > g w.P s.x              .> <         [.> > {.  Z * > > > | h.> 8.w.-.F * ~.          ) > b.p f +.Y   k > o X V g ] > > D { z.> > q     R $ p     z N m r 5.^.> 8.w.-.F * ~.  H.] y ].                        I.+.1   }.> i.k.^.$ G                 8.> c ].& t > > '.  %.y *.      J.> 1 6.    I > -.u.r.> > / 6.2.g > K.                  ",
"              n > i.    A.Y /.p.6.f (.    B u > > D (.  ~.] 2.g                 0.> ` > 7.@ > }.= o     A.Y /.p.6.f (.      L.+ e.    8 ` $ u ^.4.              _ > k.        =.> V 2     y.y #.y.x ' > > > > > C.B           0.> > > w *.t   ' > D.I  .  g.+ _ W   Z f 6...                        ' > > > > > C.B   7.m ! B                   >.).` +.Y L   X c + _.9.>.                  W m > > > Y ).Y /.p.6.f (.      =.> u c.    y.> > > $ s = #.E [ % > 8...( S B           ",
"              : $ H.      . m D j.p.        8.] 7 W                             d * > ^.    S > > M.      . m D j.p.                                            9.D W         }.D @.                x ~.y ] h.5               N.$ r '   #.I   J ( $ x.                                              x ~.y ] h.5                           '.> > > > > _.G                                     :.2.Y h.6   . m D j.p.        O.+.&       [ j m 6.@.          5.> q.8 = K             ",
"                                                                                  L.D 6     M.y 7                                                                                                                                     X * :                                                                                               }.#.^ _.c ) A.                                                                      W                           x 9 E.B                   ",
"                                                                                                                                                                                                                            {.y.      & > o.                                                                                                                                                                                                    0 = : (.8 j.+./                     ",
"                                                                                                                                                                                                                            >.r F # J s.A                                                                                                                                                                                                         N./.$ m A u.                      ",
"                                                                                                                                                                                                                              %. .#.Y 6.m.                                                                                                                                                                                                                                          ",
"                                                                                                                                                                                                                                                                                                                                                                                                                                                                                    ",
"                                                                                                                                                                                                                                                                                                                                                                                                                                                                                    ",
"                                                                                                                                                                                                                                                                                                                                                                                                                                                                                    ",
"                                                                                                                                                                                                                                                                                                                                                                                                                                                                                    ",
"                                                                                                                                                                                                                                                                                                                                                                                                                                                                                    ",
"                                                                                                                                                                                                                                                                                                                                                                                                                                                                                    ",
"                                                                                                                                                                                                                                                                                                                                                                                                                                                                                    "};
