/* XPM */
static char * text_7_xpm[] = {
"16 32 37 1",
" 	c #000000",
".	c #0D0D0D",
"+	c #5A5A5A",
"@	c #4B4B4B",
"#	c #2A2A2A",
"$	c #1C1C1C",
"%	c #6D6D6D",
"&	c #868686",
"*	c #535353",
"=	c #BBBBBB",
"-	c #FFFFFF",
";	c #D1D1D1",
">	c #BEBEBE",
",	c #FBFBFB",
"'	c #F6F6F6",
")	c #F0F0F0",
"!	c #EBEBEB",
"~	c #E5E5E5",
"{	c #F4F4F4",
"]	c #636363",
"^	c #ACACAC",
"/	c #FDFDFD",
"(	c #828282",
"_	c #BDBDBD",
":	c #353535",
"<	c #EEEEEE",
"[	c #C3C3C3",
"}	c #898989",
"|	c #656565",
"1	c #FCFCFC",
"2	c #DDDDDD",
"3	c #D2D2D2",
"4	c #5C5C5C",
"5	c #FEFEFE",
"6	c #F1F1F1",
"7	c #474747",
"8	c #C9C9C9",
"                ",
"                ",
"                ",
"                ",
"                ",
"                ",
"                ",
"                ",
"                ",
"                ",
"                ",
"                ",
"                ",
"   .+@# $@%&*   ",
"   =--------;   ",
"   >-,')!~,{]   ",
"         ^/(    ",
"        (/_     ",
"       :<!#     ",
"       [-}      ",
"      |12       ",
"      3-&       ",
"     456        ",
"     7)8        ",
"                ",
"                ",
"                ",
"                ",
"                ",
"                ",
"                ",
"                "};
