/* XPM */
static char * text_closed_exit_xpm[] = {
"323 32 2 1",
" 	c #000000",
".	c #FFFFFF",
"                                                                                                                                                                                                                                                                                                                                   ",
"                                                                                                                                                                                                                                                                                                                                   ",
"                                                                                                                                                                                                                                                                                                                                   ",
"                                                                                                                                                                                                                                                                                                                                   ",
"                                                                                                                                                                                                                                                                                                                                   ",
"                                                                                                                                                                                                                                                                                                                                   ",
"                                                                                                                                                                                                                                                                                                                                   ",
"                                                                                                                                                                                                                                                                                                                                   ",
"                                                                                                                                                                                                                                                                                                                                   ",
"                                                                                                                                                                      .    .                                        ..                                                           .         ..                                      ",
"                                                                                                                                                                      ..   ..                    .                  ..                                                     .    ..         ..                       ....           ",
"           ..                                                                                                                                                        ..   ..                    ..                  .                                                     ..    ..                                 ......          ",
"          ...                                                                                                                                                        ..   ..                    ..                 ..                                                     ..    ..                                 ..  ..          ",
"          ...                ...                                            ...                       ...                                             ..             ..   ..     ...     ..     ..      ...        ..            ...              ...                     ..    ..        ..                            .          ",
"         .. ..     .   ..   ....         ..   .     ...    .    .          ....   .    .    .   ..   ....         ..   .     ...    .    .           ....     ...    ..   ..    ....    .... ........  ....     .....           ....  .     ..   ....   .   ..  ..   . ........ .  ...    ..   .  ...        ...       ..          ",
"        ..  ..    ..  .... ..  .         ..   ..  ......   ..  ..         ...     ..  ..   ..  .... ..  .         ..   ..  ......   ..  ..          .. ..   ......   .    .    ..  .   .. .. .......  ..  .    .....           ..  .  .    ...  ..  .  ..  .... ..   ......... .. ....    .   .. ....       .....    ...           ",
"        ..  ..    .. ..  ...  ..        ..    ..  ..  ..  ..   ..         ..     ..   ..   .. ..  ...  ..        ..    ..  ..  ..  ..   ..          ..  .   ..  ..  ..   ..   ..  ..   ..  .   ..    ..  ..   ..  ..          ..  ..  ..  ...  ..  ..  .. ..  ...    ..  ..    .. .. ..  ..   ....  ..     ..  ..   ...            ",
"       ........   ....    .....         ..   ..  ..    .  ..   ..         ...    ..   ..   ....    .....         ..   ..  ..    .  ..   ..         ..      ..    .  ..   ..   .....   ..       ..    .....   ..   ..          .....   ..  ..   .....   ....    ..   ..   ..    ....  ..  ..   ....  ..    ..   .   ..              ",
"      .........   ...     ...           ..   ..  ..   ..  ..  ...          ...   ..  ...   ...     ...           ..   ..  ..   ..  ..  ...         ..      ..   ..  ..   ..   ...     ..       ..    ...     ..  ...          ...     .. ..    ...     ...     ..   ..   ..    ...   ..  ..   ...   ..   ..   ..   ..              ",
"      ..      ..  ...     ..   ..       ..  ...  ..   ..  .. ....            ..  .. ....   ...     ..   ..       ..  ...  ..   ..  .. ....         .       ..   ..  ..   ..   ..   .. .       ..     ..   .. .  ....          ..   ..  ....    ..   .. ...     ..  ...  ..     ..    ..  ..   ..    ..   ..  ...                   ",
"     ..       ... ..      ......        .......  ..  ..   ....  .            ..  ....  .   ..      ......        .......  ..  ..   ....  .         ..   .  ..  ..   ..   ..   ......  ..   .  ..  .. ......  ....  ...        ......   ...     ......  ..      .......  ..  .. ..     .. ..   ..    ...  .  ....   ..              ",
"     ..        ..  .       ....          ..  ..  .....     ..   ..       ......   ..   ..   .       ....          ..  ..  .....     ..   ..        ......  .....    ..   ..    ....   ......   ....   ....   ...   ..          ....    ..       ....    .       ..  ..   ....  .         ..   .      ..  .... ..  ..               ",
"                                             ..   ...                    ....                                         ..   ...                      ...     ...     ..   ..            ...     ...                                                                  ..   ...                             ...  ..                   ",
"                                            ..                                                                       ..                                                                                                                                            ..                                         .                    ",
"                                       ..   ..                                                                  ..   ..                                                                                                                                       ..   ..                                        ..                    ",
"                                       .......                                                                  .......                                                                                                                                       .......                                  ..    ..                    ",
"                                         ....                                                                     ....                                                                                                                                          ....                                    ......                     ",
"                                                                                                                                                                                                                                                                                                         ....                      ",
"                                                                                                                                                                                                                                                                                                                                   ",
"                                                                                                                                                                                                                                                                                                                                   ",
"                                                                                                                                                                                                                                                                                                                                   ",
"                                                                                                                                                                                                                                                                                                                                   "};
