/* XPM */
static char * text_defeat_xpm[] = {
"221 32 174 2",
"  	c #000000",
". 	c #515151",
"+ 	c #EEEEEE",
"@ 	c #ABABAB",
"# 	c #B9B9B9",
"$ 	c #383838",
"% 	c #0D0D0D",
"& 	c #D8D8D8",
"* 	c #C1C1C1",
"= 	c #B2B2B2",
"- 	c #FFFFFF",
"; 	c #BEBEBE",
"> 	c #AFAFAF",
", 	c #F3F3F3",
"' 	c #3B3B3B",
") 	c #6A6A6A",
"! 	c #D1D1D1",
"~ 	c #878787",
"{ 	c #9F9F9F",
"] 	c #E2E2E2",
"^ 	c #DBDBDB",
"/ 	c #969696",
"( 	c #E6E6E6",
"_ 	c #636363",
": 	c #404040",
"< 	c #454545",
"[ 	c #5F5F5F",
"} 	c #C4C4C4",
"| 	c #EDEDED",
"1 	c #FBFBFB",
"2 	c #F8F8F8",
"3 	c #656565",
"4 	c #9C9C9C",
"5 	c #F5F5F5",
"6 	c #868686",
"7 	c #B6B6B6",
"8 	c #8C8C8C",
"9 	c #787878",
"0 	c #F9F9F9",
"a 	c #7E7E7E",
"b 	c #F6F6F6",
"c 	c #FDFDFD",
"d 	c #424242",
"e 	c #323232",
"f 	c #FCFCFC",
"g 	c #767676",
"h 	c #9D9D9D",
"i 	c #FAFAFA",
"j 	c #DADADA",
"k 	c #DFDFDF",
"l 	c #8A8A8A",
"m 	c #A7A7A7",
"n 	c #FEFEFE",
"o 	c #6C6C6C",
"p 	c #989898",
"q 	c #5C5C5C",
"r 	c #E7E7E7",
"s 	c #5D5D5D",
"t 	c #CBCBCB",
"u 	c #898989",
"v 	c #8B8B8B",
"w 	c #979797",
"x 	c #9E9E9E",
"y 	c #EAEAEA",
"z 	c #D5D5D5",
"A 	c #262626",
"B 	c #2A2A2A",
"C 	c #BDBDBD",
"D 	c #EFEFEF",
"E 	c #5A5A5A",
"F 	c #A3A3A3",
"G 	c #6D6D6D",
"H 	c #858585",
"I 	c #737373",
"J 	c #353535",
"K 	c #606060",
"L 	c #B3B3B3",
"M 	c #ECECEC",
"N 	c #3D3D3D",
"O 	c #B4B4B4",
"P 	c #F2F2F2",
"Q 	c #A9A9A9",
"R 	c #E3E3E3",
"S 	c #F7F7F7",
"T 	c #686868",
"U 	c #8E8E8E",
"V 	c #CCCCCC",
"W 	c #8F8F8F",
"X 	c #D4D4D4",
"Y 	c #F4F4F4",
"Z 	c #B1B1B1",
"` 	c #C2C2C2",
" .	c #D6D6D6",
"..	c #F0F0F0",
"+.	c #888888",
"@.	c #E0E0E0",
"#.	c #6E6E6E",
"$.	c #C7C7C7",
"%.	c #A6A6A6",
"&.	c #DDDDDD",
"*.	c #1C1C1C",
"=.	c #CACACA",
"-.	c #BFBFBF",
";.	c #999999",
">.	c #B7B7B7",
",.	c #F1F1F1",
"'.	c #DEDEDE",
").	c #D7D7D7",
"!.	c #222222",
"~.	c #ADADAD",
"{.	c #A1A1A1",
"].	c #585858",
"^.	c #C6C6C6",
"/.	c #7F7F7F",
"(.	c #D3D3D3",
"_.	c #939393",
":.	c #8D8D8D",
"<.	c #E5E5E5",
"[.	c #D2D2D2",
"}.	c #949494",
"|.	c #9A9A9A",
"1.	c #BBBBBB",
"2.	c #474747",
"3.	c #A0A0A0",
"4.	c #E8E8E8",
"5.	c #707070",
"6.	c #C5C5C5",
"7.	c #838383",
"8.	c #4F4F4F",
"9.	c #D0D0D0",
"0.	c #C3C3C3",
"a.	c #666666",
"b.	c #AAAAAA",
"c.	c #161616",
"d.	c #727272",
"e.	c #B0B0B0",
"f.	c #848484",
"g.	c #9B9B9B",
"h.	c #777777",
"i.	c #A2A2A2",
"j.	c #909090",
"k.	c #BCBCBC",
"l.	c #959595",
"m.	c #BABABA",
"n.	c #A4A4A4",
"o.	c #4B4B4B",
"p.	c #DCDCDC",
"q.	c #535353",
"r.	c #818181",
"s.	c #929292",
"t.	c #7D7D7D",
"u.	c #E1E1E1",
"v.	c #EBEBEB",
"w.	c #494949",
"x.	c #CECECE",
"y.	c #7C7C7C",
"z.	c #4D4D4D",
"A.	c #555555",
"B.	c #C8C8C8",
"C.	c #AEAEAE",
"D.	c #A5A5A5",
"E.	c #757575",
"F.	c #626262",
"G.	c #E4E4E4",
"H.	c #A8A8A8",
"I.	c #E9E9E9",
"J.	c #B8B8B8",
"K.	c #D9D9D9",
"L.	c #828282",
"M.	c #ACACAC",
"N.	c #565656",
"O.	c #C0C0C0",
"P.	c #7A7A7A",
"Q.	c #CFCFCF",
"                                                                                                                                                                                                                                                                                                                                                                                                                                                          ",
"                                                                                                                                                                                                                                                                                                                                                                                                                                                          ",
"                                                                                                                                                                                                                                                                                                                                                                                                                                                          ",
"                                                                                                                                                                                                                                                                                                                                                                                                                                                          ",
"                                                                                                                                                                                                                                                                                                                                                                                                                                                          ",
"                                                                                                                                                                                                                                                                                                                                                                                                                                                          ",
"                                                                                                                                                                                                                                                                                                                                                                                                                                                          ",
"                                                                                                                                                                                                                                                                                                                                                                                                                                                          ",
"                                                                              . + @                                                                             # + $                                                                                                                                                                                                     . + @                                                                           ",
"                      % & *                                                   = - ;                                       > , '                     > , '       , - )                                                                                                                                                                                                     = - ;                                                                           ",
"    ! + ~             { - ]                                                   ^ - /                                       ( - _                     ( - _     : - - <                                                                                                                                                     [ } | 1 2 ^ 3                                   ^ - /                                                               4 5 6       ",
"    7 - 1 8         9 0 1 a                                                   b c d                                     e f b                     e f b       g - ,                                                                                                                                                     h i - - - - - j                                   b c d                                                               k - l       ",
"      m n 2 o     ) 5 n p                                                   q - r                         s t 5 2 u     v - ^                     v - ^       w - &                   x y 1 z A                                     B C , D E     F 5 G                               x y 1 z A                       H n 1 * I J K | L                                 q - r                                                                 M n N       ",
"        O - M ' s P - F       Q | f R G     g S 7     T 5 4                 U - V         Q | f R G     W 0 - - f w X - - - Y | 2 +           X - - - Y | 2 + Z - 7 B ` b ( N       # - - - - /                     I  .0 ..+.    e @.- - - 0 #.  $.- %.  Q S &.A   *.=.2 -.        # - - - - /                        .- ;.                  Q | f R G                 U - V         Q | f R G     >.,.$ s '.i =.              I  .0 ..+.  *.1 r         ",
"          ).- & y - @       ; - - - - M !.  ~.- C     -.- {.                @ - ~.      ; - - - - M !.< 0 n ; ].    ^.- - - - | } /.          ^.- - - - | } /.$.- H (.- - - {     _.- , :.m - H                   m c - - - <.    [.- '.s <.- #.  ! - }.|.- - - +.  1.- - n 2.    _.- , :.m - H                       j - 3.                ; - - - - M !.              @ - ~.      ; - - - - M !.  4.- 5.M - - - +.          m c - - - <.  G - 6.        ",
"          d M - - #       H - 5 7.8.4.- l   9.- I   % D - s                 0.- ~     H - 5 7.8.4.- l ~ - ]           d 0 1 a.                  d 0 1 a.      k f b.- ^./ - -.  c.+ f d.H ,.&.%                 e.- b { f.- 9.  g.- 4.$   4.f !.  ^ - h.b | 1.- i.q 1 (.z - ~   c.+ f d.H ,.&.%                       j.c - ] > K         H - 5 7.8.4.- l               0.- ~     H - 5 7.8.4.- l   | c } - = = - k.        e.- b { f.- 9.  l.- g.        ",
"            l.- 4.        @.- }.    m.- n.  D D     h - f                    .- a.    @.- }.    m.- n.o.0 n 6..       g - k                     g - k         5 | b p.% q.- z   a - 5 4.- 9.'                 r.c b G   F - i.% + c #.  s.- +     ( S ` - 7.x - Q $.n T C - i.  a - 5 4.- 9.'                           t.).f - - u.7.    @.- }.    m.- n.               .- a.    @.- }.    m.- n.  , P 1 9.  g - X       r.c b G   F - i.  %.- o         ",
"            w - V       q.- v.      V - v w.- x.  _ S c b                   @.- w.  q.- v.      V - v   y.y - 2 n.    %.- C                     %.- C       z.- - b A.  % 1 Y % F - 0 x.~                     r - W   J + - a.r.- [.  ) b - r     ,.+ i [.  w - B.1 z   C.- #   F - 0 x.~                                   2.D.j n f E.q.- v.      V - v               @.- w.  q.- v.      V - v A n - Y <   w.- r       r - W   J + - a.  s.Y !.        ",
"            = - #       l - (.    5.1 D c.#.- x.t...P x.f c.                4.- 2.  l - (.    5.1 D c.    c.i.5 - y.  } - |.                    } - |.      ~ - - 4       '.- n.|.- p.N E w ^ u.            r.- j   c.[.- c *.b.- C :., 4.( +     S - f 3   :.- - - a   / - j   |.- p.N E w ^ u.5.S P '                         % ^ - { l - (.    5.1 D c.              4.- 2.  l - (.    5.1 D c.o - - {.      0 f E d r.- j   c.[.- c *.                ",
"            =.- %.      r.- | : l.5 - 4   : f - - 1 6 > - /                 | - F.  r.- | : l.5 - 4       z.u G.- |.  x.- H.s 6.I.              x.- H.s 6.I.~.- k         9 ,.B.A.i - - - - 2 ~             e.- O 9 '.S 5 ,.  i.- - - ..F.).- g.  i - t     5.- - ^     s - n b.A.i - - - - 2 ~ #.2 V                     e 5.> 4.- y J r.- | : l.5 - 4                 | - F.  r.- | : l.5 - 4   }.- y %       @.- - J.e.- O 9 '.S 5 ,.  !.R <.          ",
"            K.- _.      e P - - - - 7       b.2 ( L.  E P 6.                I.- a   e P - - - - 7   c.y - - - - @.B   >.- - - - M.              >.- - - - M.|.Y a                 j.v.1 | } N.              = - - - b L.S R   J k 2 (.].  }.2 O.  i - d.    c.@.+ F.      ` 2 m   j.v.1 | } N.                      6 n - - - - n t <   e P - - - - 7                   I.- a   e P - - - - 7     I S {         U b G.8.= - - - b L.S R   N , x.          ",
"            1.| [         P.r 1 <.}.                                        * D w.    P.r 1 <.}.      G.f ,.& g.c.    o.k i ( s.                o.k i ( s.                                                  A.4.2 Q.q E - (.                       .^                                                               d.+ c b ] m.F.        P.r 1 <.}.                    * D w.    P.r 1 <.}.                            A.4.2 Q.q E - (.                  ",
"                                                                                                                                                                                                                      g.- m.                                                                                                                                                                                                      g.- m.                  ",
"                                                                                                                                                                                                                      ).- ~                                                                                                                                                                                                       ).- ~                   ",
"                                                                                                                                                                                                          + '.Q T e m - + c.                                                                                                                                                                                          + '.Q T e m - + c.                  ",
"                                                                                                                                                                                                          g.i - - - - c 8                                                                                                                                                                                             g.i - - - - c 8                     ",
"                                                                                                                                                                                                            s 6.+ 1 ( +.                                                                                                                                                                                                s 6.+ 1 ( +.                      ",
"                                                                                                                                                                                                                                                                                                                                                                                                                                                          ",
"                                                                                                                                                                                                                                                                                                                                                                                                                                                          ",
"                                                                                                                                                                                                                                                                                                                                                                                                                                                          ",
"                                                                                                                                                                                                                                                                                                                                                                                                                                                          ",
"                                                                                                                                                                                                                                                                                                                                                                                                                                                          "};
