/* XPM */
static char * text_9_xpm[] = {
"16 32 44 1",
" 	c #000000",
".	c #656565",
"+	c #C4C4C4",
"@	c #EAEAEA",
"#	c #FCFCFC",
"$	c #E8E8E8",
"%	c #777777",
"&	c #A8A8A8",
"*	c #FAFAFA",
"=	c #FFFFFF",
"-	c #FBFBFB",
";	c #686868",
">	c #ADADAD",
",	c #B6B6B6",
"'	c #555555",
")	c #2E2E2E",
"!	c #E9E9E9",
"~	c #FDFDFD",
"{	c #161616",
"]	c #F8F8F8",
"^	c #878787",
"/	c #707070",
"(	c #FEFEFE",
"_	c #D5D5D5",
":	c #262626",
"<	c #F4F4F4",
"[	c #4D4D4D",
"}	c #727272",
"|	c #C2C2C2",
"1	c #969696",
"2	c #9F9F9F",
"3	c #F5F5F5",
"4	c #EDEDED",
"5	c #C8C8C8",
"6	c #EFEFEF",
"7	c #383838",
"8	c #515151",
"9	c #DEDEDE",
"0	c #A9A9A9",
"a	c #B5B5B5",
"b	c #CECECE",
"c	c #8D8D8D",
"d	c #A1A1A1",
"e	c #5C5C5C",
"                ",
"                ",
"                ",
"                ",
"                ",
"                ",
"                ",
"                ",
"                ",
"                ",
"                ",
"                ",
"                ",
"                ",
"      .+@#$%    ",
"     &*====-;   ",
"    >=-,')!~'   ",
"   {]~^  /(_    ",
"   :-<[}|*=1    ",
"    23-456#7    ",
"        8~9     ",
"        0=a     ",
"        b=c     ",
"        d]e     ",
"                ",
"                ",
"                ",
"                ",
"                ",
"                ",
"                ",
"                "};
