/* XPM */
static const char *wall_1[] = {
/* columns rows colors chars-per-pixel */
"64 64 197 2 ",
"   c #100C09",
".  c #1B150E",
"X  c #1D1B0F",
"o  c #17140B",
"O  c #1D1511",
"+  c #171B15",
"@  c #1B1A13",
"#  c #161F1B",
"$  c #1C1D19",
"%  c #22160E",
"&  c #241A0E",
"*  c #2B190E",
"=  c #371F0A",
"-  c #3E1C0E",
";  c #221612",
":  c #241A13",
">  c #2A1C14",
",  c #231E19",
"<  c #2C1E19",
"1  c #331E15",
"2  c #391F14",
"3  c #351F18",
"4  c #1D200B",
"5  c #1C2014",
"6  c #15211D",
"7  c #1C231B",
"8  c #1E281D",
"9  c #27210D",
"0  c #2E220F",
"q  c #34230E",
"w  c #3B2B0C",
"e  c #3B300E",
"r  c #242215",
"t  c #2C2314",
"y  c #2C2B14",
"u  c #24241B",
"i  c #2C241A",
"p  c #25281E",
"a  c #2C2A1D",
"s  c #332215",
"d  c #3C2314",
"f  c #352B13",
"g  c #3A2C15",
"h  c #33241C",
"j  c #3A241B",
"k  c #352A1C",
"l  c #3C2B1D",
"z  c #353011",
"x  c #3F3418",
"c  c #152522",
"v  c #1C2622",
"b  c #142826",
"n  c #1A2825",
"m  c #272720",
"M  c #232924",
"N  c #2D2B22",
"B  c #292D2B",
"V  c #352620",
"C  c #392721",
"Z  c #342B22",
"A  c #3C2B22",
"S  c #302C28",
"D  c #373024",
"F  c #3B3121",
"G  c #451D0E",
"H  c #4A1D0E",
"J  c #541D0F",
"K  c #441E12",
"L  c #4B1D11",
"P  c #541E12",
"I  c #45210F",
"U  c #442214",
"Y  c #4C2314",
"T  c #452B11",
"R  c #4B2816",
"E  c #43261C",
"W  c #4A261A",
"Q  c #432B1D",
"!  c #4C2B1C",
"~  c #532314",
"^  c #542A15",
"/  c #5D2915",
"(  c #522619",
")  c #542C1B",
"_  c #5B2C1C",
"`  c #443414",
"'  c #4A3312",
"]  c #423019",
"[  c #4B341E",
"{  c #56301E",
"}  c #5A301A",
"|  c #5A3F19",
" . c #533B15",
".. c #602A17",
"X. c #622F19",
"o. c #63321D",
"O. c #6A341B",
"+. c #673B1C",
"@. c #6A3F1E",
"#. c #72391E",
"$. c #422D24",
"%. c #4B2E23",
"&. c #442F28",
"*. c #532D23",
"=. c #5A2E21",
"-. c #433322",
";. c #4B3323",
":. c #4C3923",
">. c #4D3229",
",. c #533324",
"<. c #5A3524",
"1. c #533A26",
"2. c #5B3925",
"3. c #54342A",
"4. c #5A362A",
"5. c #553A2D",
"6. c #5D392B",
"7. c #5E3A31",
"8. c #633421",
"9. c #643B26",
"0. c #6C3D25",
"q. c #613629",
"w. c #633C2A",
"e. c #6A3D2B",
"r. c #753D20",
"t. c #703F29",
"y. c #613B31",
"u. c #5A401A",
"i. c #76451F",
"p. c #654224",
"a. c #6D4225",
"s. c #65402B",
"d. c #6C412C",
"f. c #744425",
"g. c #7B4626",
"h. c #764823",
"j. c #7C4A26",
"k. c #73442C",
"l. c #794629",
"z. c #774A2A",
"x. c #7C4A2B",
"c. c #664032",
"v. c #6C4230",
"b. c #784733",
"n. c #754930",
"m. c #7B4B33",
"M. c #724331",
"N. c #804724",
"B. c #834D26",
"V. c #894D24",
"C. c #834D29",
"Z. c #875027",
"A. c #8C5226",
"S. c #86512A",
"D. c #8B522A",
"F. c #915527",
"G. c #93562A",
"H. c #95592B",
"J. c #9B5C2C",
"K. c #824E34",
"L. c #855131",
"P. c #8B5432",
"I. c #8F5739",
"U. c #935632",
"Y. c #955A32",
"T. c #9C5D32",
"R. c #A15E2E",
"E. c #A15F33",
"W. c #9E6033",
"Q. c #A4612E",
"!. c #A56232",
"~. c #A46233",
"^. c #AA6631",
"/. c #AB6533",
"(. c #AE6835",
"). c #A76539",
"_. c #AE693A",
"`. c #B16A33",
"'. c #B06A36",
"]. c #B46B34",
"[. c #B66C35",
"{. c #B26B34",
"}. c #B96F36",
"|. c #B96E36",
" X c #B46C39",
".X c #B86E39",
"XX c #BD7136",
"oX c #BF7237",
"OX c #BC7037",
"+X c #BB7139",
"@X c #BD7139",
"#X c #C27539",
"$X c #C47639",
"%X c #CB7A3C",
"&X c #D17D3C",
"*X c #FF00FF",
"=X c black",
/* pixels */
"*X*X*X*X*X*X*X*X*X*X*X*X*X*X*X*X*X*X*X*X*X*X*X*X*X*X*X*X*X*X*X*X*X*X*X*X*X*X*X*X*X*X*X*X*X*X*X*X*X*X*X*X*X*X*X*X*X*X*X*X*X*X*X*X",
"*X*X*X*X*X*X*X*X*X*X*X*X*X*X*X*X*X*X*X*X*X*X*X*X*X*X*X*X*X*X*X*X*X*X*X*X*X*X*X*X*X*X*X*X*X*X*X*X*X*X*X*X*X*X*X*X*X*X*X*X*X*X*X*X",
"*X*X*X*X*X*X*X*X*X*X*X*X*X*X*X*X*X*X*X*X*X*X*X*X*X*XA.*X*X*X*X*X*XB.w.*X*X*X*X*X*X*X*X*X*X*X*X*X*X*X*X*X*X*X*X*X*X*X*X*X*X*X*X*X",
"*X*X*X*X*X*X*X*X*X*X*X*X*X*X*X*X*X*X*X*X*X*X*X*X*X[.H.C.k.Z.J.`.G.A.C.K.D.*X*X*X*X*X*X*X*X*X*X*X*X*X*X*X*X*X*X*X*X*X*X*X*X*X*X*X",
"*X*X*X*X*X*X*X*X*X*X*X*X*X*X*X*X*X*X*X*X*X*X*X*X[./.].Q./.J.`.J.A.G.H.!.D.C.n.*X*X*X*X*X*X*X*X*X*X*X*X*X*X*X*X*X*X*X*X*X*X*X*X*X",
"*X*X*X*X*X*X*X*X*X*X*X*X*X*X*X*X*X*X*X*X*X*X#XJ.J.OX%X$X|.J.`.G.G./.H.D.k.C.h.` *X*X*X*X*X*X*X*X*X*X*X*X*X*X*X*X*X*X*X*X*X*X*X*X",
"*X*X*X*X*X*X*X*X*X*X*X*X*X*X*X*X*X*X*X*X*X*X#X|.Q.#X%XXXJ.G.G.G.C.D.D.x.C.C.v.,.Y & *X*X*X*X*X*X*X*X*X*X*X*X*X*X*X*X*X*X*X*X*X*X",
"*X*X*X*X*X*X*X*X*X*X*X*X*X*X*X*X*X*X*X*X*XA.J.|.XX$XXXJ.H.T.x.~.x.k.D.D.j.6.4.6.%.0 & *X*X*X*X*X*X*X*X*X*X*X*X*X*X*X*X*X*X*X*X*X",
"*X*X*X*X*X*X*X*X*X*X*X*X*X*X*X*X*XH.*XF.H.G.B.D.R.XXJ.B.B.Z.k. X+X'.`.G.w.4.-.-.l I G & @ *X*X*X*X*X*X*X*X*X*X*X*X*X*X*X*X*X*X*X",
"*X*X*X*X*X*X*X*X*X*X*X*X*X*X*X*XI..X[.H.[.(.x.d.Z./.G.e.d.D.J.#XXXJ.J.!.x.z.d.,.Y q l i > > *X*X*X*X*X*X*X*X*X*X*X*X*X*X*X*X*X*X",
"*X*X*X*X*X*X*X*X*X*X*X*X*X*X*Xv.~.|.Q.Q.XXQ./.W.d.x.(.H.G.(.'.(.H.A.A.H.T.D.z.,.I d W %.~ G : *X*X*X*X*X*X*X*X*X*X*X*X*X*X*X*X*X",
"*X*X*X*X*X*X*X*X*X*X*X*X*X*X*Xc.d.H.`.|.'.H.G.K.C.H.oXXX[.J.x.x.A.A.A.C.e.<.,.z w R *.y.q.Y t *X*X*X*X*X*X*X*X*X*X*X*X*X*X*X*X*X",
"*X*X*X*X*X*X*X*X*X*X*X*X*X*XY.1.w.C.G.D.z.Z.B.w.C.].|.J.J.~.G.~.G.A.C.k.,.g R ] 2.~ Y *.&.C a : *X*X*X*X*X*X*X*X*X*X*X*X*X*X*X*X",
"*X*X*X*X*X*X*X*X*X*X*X*X*X*Xw.[ S.k.j.k.j.A.B.6.2.B.D.B.j.z.C.A.V.C.k.j.k.6.q._ e._ T Y k u u @ @ *X*X*X*X*X*X*X*X*X*X*X*X*X*X*X",
"*X*X*X*X*X*X*X*X*X*X*X*X*X+X!.r.k.d.z.d.D.A.C.w.f g ,.4.2.0.<.^ / e.g.B.j.l.e.=.e.e.<.R t @ @ $ i @ *X*X*X*X*X*X*X*X*X*X*X*X*X*X",
"*X*X*X*X*X*X*X*X*XA.*X[.H.Q.XX|.H.u.2.M.Y.k.f.w.$.k U A l ^ l r > ~ / <.4.4.4.^ ~ Y s r r , $ @ > r X @ *X*X*X*X*X*X*X*X*X*X*X*X",
"*X*X*X*X*X*X*X*XA.G.F.G.G.~.Q.(.C.h.e._ 4.,.) 4.,.l k -.<.! U : > H J ( %.,.4.s : : @ @ 7 a @ : ^ +.f a 6 + *X*X*X*X*X*X*X*X*X*X",
"*X*X*X*X*X*X*XB.G.^.H.B.Z.C.D.G.C.D.g._ A k k l <._ ,.n.Y.k.^ w U s G Y Q W k : @ O @ @ r a a l a.M.,.d 7 6 7 *X*X*X*X*X*X*X*X*X",
"*X*X*X*X*X*X*X2.B.H.!.x.C.Y.Z.h.s.j.e.6.F g } 2.| B.E.G.J.H.B.h.2.] s k k h : @ ; @ 5 u a Z 5.p.1.;.E r r n M n *X*X*X*X*X*X*X*X",
"*X*X*X*X*X*X*Xx a.e.D.T.d.d.2.' ,.z.e.3.,.B.`.[.Q.G.D.G.`.`.G.A.B.h.R i u $ u j U i p a y a D D k t 9 r Z B n c c *X*X*X*X*X*X*X",
"*X*X*X*X*X*X*X;.,.>.6.z.x.Y.X.I Q ,.=.e.G.XX$X$XQ.D.z.Z.D.G.A.A.Z.V./ > @ @ u >.! ;.>.F ;.>.5.4.,.%.Y U Z S v c c c *X*X*X*X*X*X",
"*X*X*X*X*X*X*Xf.1.>.6.w.(.'.9.T ^ 4.k.~.|.|.Q.[.`.H.T.C.a.B.G.j.w.B.i.f : @ 7 p k d.j.h.h.w.w.f.f.<.Y t M B 7 c c c *X*X*X*X*X*X",
"*X*X*X*X*X*X*X*Xj.Z.T.K.~.D.w.h.A.j.d.D.H.G.F.J.J.G.H.x.Z.H.~.k.d.C.j.2.g X @ 7 k a.k.w.j.h.p.:.<.q.~ i N M $ 6 $ c *X*X*X*X*X*X",
"*X*X*X*X*X*X*X*X*XF.G.m.d.w.j.G.^.G.B.B.B.A.G.`.`.Q.|.oX`.H.G.D.~.D.e.a.e 4 . 7 a ! ( ,.w.:.` 1.Q ! ~ U Z m @ O @ c *X*X*X*X*X*X",
"*X*X*X*X*X*X*X*X*X*XA.D.h.w.j.A.D.B.j.e.d.j.A.D.H.(.%X&XR.A.A.A.D.j.6.w.R r . + u h q Q 4.9.;.,.U t a Z u @ . . . *X*X*X*X*X*X*X",
"*X*X*X*X*X*X*X*X*XA.G.A.A.C.z.Z.d.w.d.j.z.d.j.f.j.x.'.#XD.B.B.C.6.4.%.( Y s @ O 7 u d U Q ! l C i @ 6 7 6 @ . @ *X*X*X*X*X*X*X*X",
"*X*X*X*X*X*X*X*XA.G.~.G.G./.G.T.D.h.h.h.2.4.l.B.B.w.k.T.d.<.6.w.&.C i j E W h O @ 7 u a N a j t 7 $ # c 6 # + # *X*X*X*X*X*X*X*X",
"*X*X*X*X*X*X*Xk.D.D.C.G.A.D.d.d.g.9.<.' R ,.4.2.h.a.) 6.q.( l A C N u A 3.%.t @ @ 7 7 8 p p j 2 : $ + # + + 6 c 7 *X*X*X*X*X*X*X",
"*X*X*X*X*X*X*X.X`.Q.{.'.D.2.k Q %.$.W [ f Q k i l f : i l Y [ l ;.h s ,.d.,.k r @ $ 7 u j h > r 7 @ @ @ @ 6 c c c *X*X*X*X*X*X*X",
"*X*X*X*X*X*X%X$X^.OX[.H.j.;.1 2 h i > > X : i r N i @ : s O.G.+.j.2.o.f.w.4.) U u r k g R d - i u : r 7 7 v c b b b *X*X*X*X*X*X",
"*X*X*X*X*X*X*X*X#X[.x.6.,.l R T g s k t @ . @ , a @ % G X./.!. .` d.U.d.7.6.0.) j ! a.9.f.^ P Y H G U k u s v c b v *X*X*X*X*X*X",
"*X*X*X*X*X*X*X*X*XD.z.6.A k d.W.H.O.@.] k : . O @ . * ~ k.E.l.2.) w.m.w.4.,.) Y A ,.C.B.g.<.%.*.Y = Y j r @ $ # c c b *X*X*X*X*X",
"*X*X*X*X*X*X*X*X*Xm.6.;.6.w.D.R.G.V.A.h.<.E > . . % Y #.e.k.g.d.j.B.j.x.w.x g k C %.d.g.) A D C s G Y 2 : @ + # + $ *X*X*X*X*X*X",
"*X*X*X*X*X*X*X*X%X_.s.w.Y.G./.|.J.A.A.A.j.w.4.> . % G } f.h.C.B.A.j.w.e.4.%.j u j W =.,.l k k u < U r : # + 6 + @ 6 7 *X*X*X*X*X",
"*X*X*X*X*X*X*X*X*X+XT.C.G.D.x./.).D.A.B.A.C.f.> . . & q { 8.t.j.h.2.*.( ~ Y > i E =.e.o.9.Y > , i i @ . @ + 6 + 6 6 c *X*X*X*X*X",
"*X*X*X*X*X*X*X*X_.K.9.9.h.B.j.x.m.k.h.0.j.d.^ > . . % - Y P ~ Q l l Y d K s : j ( w.j.B.N.~ > , 7 $ @ . @ # # c b c *X*X*X*X*X*X",
"*X*X*X*X*X*X*X*Xb.4.*.<.6.d.G.W.).).w.=.q.h i r @ . . : 2 L H > O & - > : : : H ~ 4.e.C.h.Q t r 7 6 # O . @ 6 b b *X*X*X*X*X*X*X",
"*X*X*X*X*X*X*X*X*X=.O.h.v.C.!.L.P.).w.%.U % @ @ @ : . . : 2 L *X. % % . O @ : K W ,.9.<.%.i i d i 6 @ . . . @ *X*X*X*X*X*X*X*X*X",
"*X*X*X*X*X*X*X*X*Xb.U.k.3.<.C.W.T.j.;.y & . . . @ h *X*XO ; > *X. . . *X: . @ h h h d j i r u k s : . . *X*X*X*X*X*X*X*X*X*X*X*X",
"*X*X*X*X*X*X*X*X*X*Xw.W i : f [ :.h : X 5 @ . . . : h h : ; ; O . . . *X;   O , : > G K a a 7 7 u @ . *X*X*X*X*X*X*X*X*X*X*X*X*X",
"*X*X*X*X*X*X*X*X*X*X*X& . . . @ k k r : : i : @ @ . ; > h < ; O . . . . O . O O : i U > u p u 6 # @ . *X*X*X*X*X*X*X*X*X*X*X*X*X",
"*X*X*X*X*X*X*X*X*X*X*X*X*X. . . @ : h k h : i h h *X*X*X*XV < ; O . . . O O . . . @ r 7 N Z 2 @ @ . *X*X*X*X*X*X*X*X*X*X*X*X*X*X",
"*X*X*X*X*X*X*X*X*X*X*X*X*X*X*X. . . : : r : : i C A *X*X*X*X< : ; ; ; O O . . . . . @ 7 u , % . . *X*X*X*X*X*X*X*X*X*X*X*X*X*X*X",
"*X*X*X*X*X*X*X*X*X*X*X*X*X*X*X*X*X*X*X*X*X: i j A A C C *X*X*X> ; ; ; O ; O *X*X*X*X. @ @ . . . *X*X*X*X*X*X*X*X*X*X*X*X*X*X*X*X",
"*X*X*X*X*X*X*X*X*X*X*X*X*X*X*X*X*X*X*X*X*X*X< < j $.C j j *X*X< : ; O ; ; *X*X*X*X*X*X. . . *X*X*X*X*X*X*X*X*X*X*X*X*X*X*X*X*X*X",
"*X*X*X*X*X*X*X*X*X*X*X*X*X*X*X*X*X*X*X*X*X*X*X< i C A j V V h < : ; ; ; ; *X*X*X*X*X*X*X*X*X*X*X*X*X*X*X*X*X*X*X*X*X*X*X*X*X*X*X",
"*X*X*X*X*X*X*X*X*X*X*X*X*X*X*X*X*X*X*X*X*X*X*X*Xi h j C C C j h : O ; ; ; *X*X*X*X*X*X*X*X*X*X*X*X*X*X*X*X*X*X*X*X*X*X*X*X*X*X*X",
"*X*X*X*X*X*X*X*X*X*X*X*X*X*X*X*X*X*X*X*X*X*X*X*X*X< h l A C j h > ; O ; : *X*X*X*X*X*X*X*X*X*X*X*X*X*X*X*X*X*X*X*X*X*X*X*X*X*X*X",
"*X*X*X*X*X*X*X*X*X*X*X*X*X*X*X*X*X*X*X*X*X*X*X*X*X*X*Xh A A C h < : ; ; ; ; *X*X*X*X*X*X*X*X*X*X*X*X*X*X*X*X*X*X*X*X*X*X*X*X*X*X",
"*X*X*X*X*X*X*X*X*X*X*X*X*X*X*X*X*X*X*X*X*X*X*X*X*X*X*X*Xl A A C h > ; ; : : > *X*X*X*X*X*X*X*X*X*X*X*X*X*X*X*X*X*X*X*X*X*X*X*X*X",
"*X*X*X*X*X*X*X*X*X*X*X*X*X*X*X*X*X*X*X*X*X*X*X*X*X*X*Xt h A $.$.j < : ; ; : ; O *X*X*X*X*X*X*X*X*X*X*X*X*X*X*X*X*X*X*X*X*X*X*X*X",
"*X*X*X*X*X*X*X*X*X*X*X*X*X*X*X*X*X*X*X*X*X*X*X X*X3.t > h C $.$.C h : ; ; ; ; O O > *X*X*X*X*X*X*X*X*X*X*X*X*X*X*X*X*X*X*X*X*X*X",
"*X*X*X*X*X*X*X*X*X*X*X*X*X*X*X*X*X*X*X*X*X|.*Xx._.m.s > h j A $.A h > ; ; : ; ; @ : > *X*X*X*X*X*X*X*X*X*X*X*X*X*X*X*X*X*X*X*X*X",
"*X*X*X*X*X*X*X*X*X*X*X*X*X*X*X*X*X*X*X*X8.z.w.g.^.Y.j : < C $.$.C h < : ; ; : : : : : @ *X*X*X*X*X*X*X*X*X*X*X*X*X*X*X*X*X*X*X*X",
"*X*X*X*X*X*X*X*X*X*X*X*X*X*X*X*X*X*X*XT.d.6.w.../ U > : h l $.A j h < > ; ; ; : : : : . . *X*X*X*X*X*X*X*X*X*X*X*X*X*X*X*X*X*X*X",
"*X*X*X*X*X*X*X*X*X*X*X*X*X*X*X*X*Xd.d.m.P.k.Y.#.~ E h i h A A j i < < < > ; ; ; : : : O . . *X*X*X*X*X*X*X*X*X*X*X*X*X*X*X*X*X*X",
"*X*X*X*X*X*X*X*X*X*X*X*X*X*X*X*XH.W.).).d.o././.#.D.6.h h C C h 1 < < < > : ; ; : : : : . . *X*X*X*X*X*X*X*X*X*X*X*X*X*X*X*X*X*X",
"*X*X*X*X*X*X*X*X*X*X*X*X*X*X*XH.!.L.P.~.w.,.z.~.0.j.6.h j h h 3 K 2 < < < > : : : : : : X . *X*X*X*X*X*X*X*X*X*X*X*X*X*X*X*X*X*X",
"*X*X*X*X*X*X*X*X*X*X*X*X*X*X*X*XJ.(.!.D.w.0.o.g.2.,.;.h h 3 h j L K > < > : : : : : > : @ o *X*X*X*X*X*X*X*X*X*X*X*X*X*X*X*X*X*X",
"*X*X*X*X*X*X*X*X*X*X*X*X*X*X*X*X*X|.g.*X0.e.q.K.S.,.z.Q > K %.$.2 1 > : : : : : : : > > : *X*X*X*X*X*X*X*X*X*X*X*X*X*X*X*X*X*X*X",
"*X*X*X*X*X*X*X*X*X*X*X*X*X*X*X*X*X*X*X*XR.O.*X).d.l 4.%.j Y s j K > > > s E s E W s s > *X*X*X*X*X*X*X*X*X*X*X*X*X*X*X*X*X*X*X*X",
"*X*X*X*X*X*X*X*X*X*X*X*X*X*X*X*X*X*X*X*X*X*X*X*X3.%.3.6.3.%.j $.Y d E %.4.4.6.4.q.! 3 *X*X*X*X*X*X*X*X*X*X*X*X*X*X*X*X*X*X*X*X*X",
"*X*X*X*X*X*X*X*X*X*X*X*X*X*X*X*X*X*X*X*X*X*X*X*X*X*Xw.P.w.>.>.3.*.%.3.3.3.*X3.3.*.*X*X*X*X*X*X*X*X*X*X*X*X*X*X*X*X*X*X*X*X*X*X*X",
"*X*X*X*X*X*X*X*X*X*X*X*X*X*X*X*X*X*X*X*X*X*X*X*X*X*X*X8.*X*X*X3.*X3.*X3.*X*X*X*X*X*X*X*X*X*X*X*X*X*X*X*X*X*X*X*X*X*X*X*X*X*X*X*X"
};
