/* XPM */
static const char *wall_16[] = {
/* columns rows colors chars-per-pixel */
"64 64 196 2 ",
"   c #100C09",
".  c #1B150E",
"X  c #1D1B0F",
"o  c #17140B",
"O  c #1D1511",
"+  c #171B15",
"@  c #1B1A13",
"#  c #161F1B",
"$  c #1C1D19",
"%  c #22160E",
"&  c #241A0E",
"*  c #2B190E",
"=  c #371F0A",
"-  c #3E1C0E",
";  c #221612",
":  c #241A13",
">  c #2A1C14",
",  c #231E19",
"<  c #2C1E19",
"1  c #331E15",
"2  c #391F14",
"3  c #351F18",
"4  c #1D200B",
"5  c #1C2014",
"6  c #15211D",
"7  c #1C231B",
"8  c #1E281D",
"9  c #27210D",
"0  c #2E220F",
"q  c #34230E",
"w  c #3B2B0C",
"e  c #3B300E",
"r  c #242215",
"t  c #2C2314",
"y  c #2C2B14",
"u  c #24241B",
"i  c #2C241A",
"p  c #25281E",
"a  c #2C2A1D",
"s  c #332215",
"d  c #3C2314",
"f  c #352B13",
"g  c #3A2C15",
"h  c #33241C",
"j  c #3A241B",
"k  c #352A1C",
"l  c #3C2B1D",
"z  c #353011",
"x  c #3F3418",
"c  c #152522",
"v  c #1C2622",
"b  c #142826",
"n  c #1A2825",
"m  c #272720",
"M  c #232924",
"N  c #2D2B22",
"B  c #292D2B",
"V  c #352620",
"C  c #392721",
"Z  c #342B22",
"A  c #3C2B22",
"S  c #302C28",
"D  c #373024",
"F  c #3B3121",
"G  c #451D0E",
"H  c #4A1D0E",
"J  c #541D0F",
"K  c #441E12",
"L  c #4B1D11",
"P  c #541E12",
"I  c #45210F",
"U  c #442214",
"Y  c #4C2314",
"T  c #452B11",
"R  c #4B2816",
"E  c #43261C",
"W  c #4A261A",
"Q  c #432B1D",
"!  c #4C2B1C",
"~  c #532314",
"^  c #542A15",
"/  c #5D2915",
"(  c #522619",
")  c #542C1B",
"_  c #5B2C1C",
"`  c #443414",
"'  c #4A3312",
"]  c #423019",
"[  c #4B341E",
"{  c #56301E",
"}  c #5A301A",
"|  c #5A3F19",
" . c #533B15",
".. c #622F19",
"X. c #62311D",
"o. c #6A341B",
"O. c #673B1C",
"+. c #6A3F1E",
"@. c #723A1E",
"#. c #422D24",
"$. c #4B2E23",
"%. c #442F28",
"&. c #532D23",
"*. c #5A2E21",
"=. c #433322",
"-. c #4B3323",
";. c #4C3923",
":. c #4D3229",
">. c #533324",
",. c #5A3524",
"<. c #533A26",
"1. c #5B3925",
"2. c #54342A",
"3. c #5A3629",
"4. c #553A2D",
"5. c #5D392B",
"6. c #5E3A31",
"7. c #643421",
"8. c #643B26",
"9. c #6C3D25",
"0. c #613629",
"q. c #643C2A",
"w. c #6A3D2B",
"e. c #753D20",
"r. c #703F29",
"t. c #613B31",
"y. c #5A401A",
"u. c #76451F",
"i. c #654224",
"p. c #6D4225",
"a. c #65402B",
"s. c #6C412C",
"d. c #744425",
"f. c #7B4626",
"g. c #764823",
"h. c #7C4A26",
"j. c #73452C",
"k. c #794629",
"l. c #774A2A",
"z. c #7C4A2B",
"x. c #664032",
"c. c #6C4230",
"v. c #784733",
"b. c #754930",
"n. c #7B4A33",
"m. c #724331",
"M. c #804724",
"N. c #834D26",
"B. c #894D24",
"V. c #834D29",
"C. c #875027",
"Z. c #8C5226",
"A. c #86512A",
"S. c #8B522A",
"D. c #915527",
"F. c #93562A",
"G. c #95592B",
"H. c #9B5C2C",
"J. c #824E34",
"K. c #865131",
"L. c #8A5332",
"P. c #8F5739",
"I. c #935632",
"U. c #955A32",
"Y. c #9C5D32",
"T. c #A15E2E",
"R. c #A15F33",
"E. c #9E6033",
"W. c #A4612E",
"Q. c #A56232",
"!. c #A46233",
"~. c #AA6631",
"^. c #AB6533",
"/. c #AE6836",
"(. c #A76539",
"). c #AE693A",
"_. c #B16A33",
"`. c #B06A36",
"'. c #B46B34",
"]. c #B66C35",
"[. c #B26B34",
"{. c #B96F36",
"}. c #B96E36",
"|. c #B46C39",
" X c #B86E39",
".X c #BD7136",
"XX c #BF7237",
"oX c #BC7037",
"OX c #BB7139",
"+X c #BD7139",
"@X c #C27539",
"#X c #C47639",
"$X c #CB7A3C",
"%X c #D17D3C",
"&X c #FF00FF",
"*X c black",
/* pixels */
"&X&X&X&X&X&X&X&X&X&X&X&X&X&X&X&X&X&X&X&X&X&X&X&X&X&X&X&X&X&X&X&X&X&X&X&X&X&X&X&X&X&X&X&X&X&X&X&X&X&X&X&X&X&X&X&X&X&X&X&X&X&X&X&X",
"&X&X&X&X&X&X&X&X&X&X&X&X&X&X&X&X&X&X&X&X&X&X&X&X&X&X&X&X&X&X&X&X&X&X&X&X&X&X&X&X&X&X&X&X&X&X&X&X&X&X&X&X&X&X&X&X&X&X&X&X&X&X&X&X",
"&X&X&X&X&X&X&X&X&X&X&X&X&X&X&X&X&X&X&X&X&X&X&X&X&X&XZ.&X&X&X&X&X&XN.q.&X&X&X&X&X&X&X&X&X&X&X&X&X&X&X&X&X&X&X&X&X&X&X&X&X&X&X&X&X",
"&X&X&X&X&X&X&X&X&X&X&X&X&X&X&X&X&X&X&X&X&X&X&X&X&X].G.N.j.C.H._.F.Z.V.J.S.&X&X&X&X&X&X&X&X&X&X&X&X&X&X&X&X&X&X&X&X&X&X&X&X&X&X&X",
"&X&X&X&X&X&X&X&X&X&X&X&X&X&X&X&X&X&X&X&X&X&X&X&X].^.'.W.^.H._.H.Z.F.G.Q.S.N.b.&X&X&X&X&X&X&X&X&X&X&X&X&X&X&X&X&X&X&X&X&X&X&X&X&X",
"&X&X&X&X&X&X&X&X&X&X&X&X&X&X&X&X&X&X&X&X&X&X@XH.H.oX$X#X}.H._.F.F.^.G.S.j.N.g.` &X&X&X&X&X&X&X&X&X&X&X&X&X&X&X&X&X&X&X&X&X&X&X&X",
"&X&X&X&X&X&X&X&X&X&X&X&X&X&X&X&X&X&X&X&X&X&X@X}.W.@X$X.XH.F.F.F.N.S.S.z.V.V.c.>.Y & &X&X&X&X&X&X&X&X&X&X&X&X&X&X&X&X&X&X&X&X&X&X",
"&X&X&X&X&X&X&X&X&X&X&X&X&X&X&X&X&X&X&X&X&XZ.H.}..X#X.XH.G.Y.z.!.z.j.S.S.h.5.3.5.$.0 & &X&X&X&X&X&X&X&X&X&X&X&X&X&X&X&X&X&X&X&X&X",
"&X&X&X&X&X&X&X&X&X&X&X&X&X&X&X&X&XG.&XD.G.F.N.S.T..XH.N.N.C.j.|.OX`._.F.q.3.=.=.l I G & @ &X&X&X&X&X&X&X&X&X&X&X&X&X&X&X&X&X&X&X",
"&X&X&X&X&X&X&X&X&X&X&X&X&X&X&X&XP. X].G.]./.z.s.C.^.F.w.s.S.H.@X.XH.H.Q.z.l.s.>.Y q l i > > &X&X&X&X&X&X&X&X&X&X&X&X&X&X&X&X&X&X",
"&X&X&X&X&X&X&X&X&X&X&X&X&X&X&Xc.!.}.W.W..XW.^.E.s.z.^.G.F./.`./.G.Z.Z.G.Y.S.l.>.I d W $.~ G : &X&X&X&X&X&X&X&X&X&X&X&X&X&X&X&X&X",
"&X&X&X&X&X&X&X&X&X&X&X&X&X&X&Xx.s.G._.}.`.G.F.J.V.G.XX.X].H.z.z.Z.Z.Z.V.w.,.>.z w R &.t.0.Y t &X&X&X&X&X&X&X&X&X&X&X&X&X&X&X&X&X",
"&X&X&X&X&X&X&X&X&X&X&X&X&X&XU.<.q.V.F.S.l.C.N.q.N.'.}.H.H.!.F.!.F.Z.V.j.>.g R ] 1.~ Y &.%.C a : &X&X&X&X&X&X&X&X&X&X&X&X&X&X&X&X",
"&X&X&X&X&X&X&X&X&X&X&X&X&X&Xq.[ A.j.h.j.h.Z.N.5.1.N.S.N.h.l.V.Z.B.V.j.h.j.5.0._ w._ T Y k u u @ @ &X&X&X&X&X&X&X&X&X&X&X&X&X&X&X",
"&X&X&X&X&X&X&X&X&X&X&X&X&XOXQ.e.j.s.l.s.S.Z.N.q.f g >.3.1.9.,.^ / w.f.N.h.k.w.*.w.w.,.R t @ @ $ i @ &X&X&X&X&X&X&X&X&X&X&X&X&X&X",
"&X&X&X&X&X&X&X&X&XZ.&X].G.W..X}.G.y.1.m.U.j.d.q.#.k U A l ^ l r > ~ / ,.3.3.3.^ ~ Y s r r , $ @ > r X @ &X&X&X&X&X&X&X&X&X&X&X&X",
"&X&X&X&X&X&X&X&XZ.F.D.F.F.!.W./.V.g.w._ 3.>.) 3.>.l k =.,.! U : > H J ( $.>.3.s : : @ @ 7 a @ : ^ O.f a 6 + &X&X&X&X&X&X&X&X&X&X",
"&X&X&X&X&X&X&XN.F.~.G.N.C.V.S.F.V.S.f._ A k k l ,._ >.b.U.j.^ w U s G Y Q W k : @ O @ @ r a a l p.m.>.d 7 6 7 &X&X&X&X&X&X&X&X&X",
"&X&X&X&X&X&X&X1.N.G.Q.z.V.U.C.g.a.h.w.5.F g } 1.| N.R.F.H.G.N.g.1.] s k k h : @ ; @ 5 u a Z 4.i.<.-.E r r n M n &X&X&X&X&X&X&X&X",
"&X&X&X&X&X&X&Xx p.w.S.Y.s.s.1.' >.l.w.2.>.N._.].W.F.S.F._._.F.Z.N.g.R i u $ u j U i p a y a D D k t 9 r Z B n c c &X&X&X&X&X&X&X",
"&X&X&X&X&X&X&X-.>.:.5.l.z.U...I Q >.X.w.F..X#X#XW.S.l.C.S.F.Z.Z.C.B./ > @ @ u :.! -.:.F -.:.4.3.>.$.Y U Z S v c c c &X&X&X&X&X&X",
"&X&X&X&X&X&X&Xd.<.:.5.q./.`.8.T ^ 3.j.!.}.}.W.]._.G.Y.V.p.N.F.h.q.N.u.f : @ 7 p k s.h.g.g.q.q.d.d.,.Y t M B 7 c c c &X&X&X&X&X&X",
"&X&X&X&X&X&X&X&Xh.C.Y.J.!.S.q.g.Z.h.s.S.G.F.D.H.H.F.G.z.C.G.!.j.s.N.h.1.g X @ 7 k p.j.q.h.g.i.;.,.0.~ i N M $ 6 $ c &X&X&X&X&X&X",
"&X&X&X&X&X&X&X&X&XD.F.n.s.q.h.F.~.F.N.N.N.Z.F._._.W.}.XX_.G.F.S.!.S.w.p.e 4 . 7 a ! ( >.q.;.` <.Q ! ~ U Z m @ O @ c &X&X&X&X&X&X",
"&X&X&X&X&X&X&X&X&X&XZ.S.g.q.h.Z.S.N.h.w.s.h.Z.S.G./.$X%XT.Z.Z.Z.S.h.5.q.R r . + u h q Q 3.8.-.>.U t a Z u @ . . . &X&X&X&X&X&X&X",
"&X&X&X&X&X&X&X&X&XZ.F.Z.Z.N.l.C.s.q.s.h.l.s.h.d.h.z.`.@XS.N.N.V.5.3.$.( Y s @ O 7 u d U Q ! l C i @ 6 7 6 @ . @ &X&X&X&X&X&X&X&X",
"&X&X&X&X&X&X&X&XZ.F.!.F.F.^.F.Y.S.g.g.g.1.3.k.N.N.q.j.Y.s.,.5.q.%.C i j E W h O @ 7 u a N a j t 7 $ # c 6 # + # &X&X&X&X&X&X&X&X",
"&X&X&X&X&X&X&Xj.S.S.V.F.Z.S.s.s.f.8.,.' R >.3.1.g.p.) 5.0.( l A C N u A 2.$.t @ @ 7 7 8 p p j 2 : $ + # + + 6 c 7 &X&X&X&X&X&X&X",
"&X&X&X&X&X&X&X X_.W.[.`.S.1.k Q $.#.W [ f Q k i l f : i l Y [ l -.h s >.s.>.k r @ $ 7 u j h > r 7 @ @ @ @ 6 c c c &X&X&X&X&X&X&X",
"&X&X&X&X&X&X$X#X~.oX].G.h.-.1 2 h i > > X : i r N i @ : s o.F.O.h.1.X.d.q.3.) U u r k g R d - i u : r 7 7 v c b b b &X&X&X&X&X&X",
"&X&X&X&X&X&X&X&X@X].z.5.>.l R T g s k t @ . @ , a @ % G ..^.Q. .` s.I.s.6.5.9.) j ! p.8.d.^ P Y H G U k u s v c b v &X&X&X&X&X&X",
"&X&X&X&X&X&X&X&X&XS.l.5.A k s.E.G.o.+.] k : . O @ . * ~ j.R.k.1.) q.n.q.3.>.) Y A >.V.N.f.,.$.&.Y = Y j r @ $ # c c b &X&X&X&X&X",
"&X&X&X&X&X&X&X&X&Xn.5.-.5.q.S.T.F.B.Z.g.,.E > . . % Y @.w.j.f.s.h.N.h.z.q.x g k C $.s.f.) A D C s G Y 2 : @ + # + $ &X&X&X&X&X&X",
"&X&X&X&X&X&X&X&X$X).a.q.U.F.^.}.H.Z.Z.Z.h.q.3.> . % G } d.g.N.N.Z.h.q.w.3.$.j u j W *.>.l k k u < U r : # + 6 + @ 6 7 &X&X&X&X&X",
"&X&X&X&X&X&X&X&X&XOXY.N.F.S.z.^.(.S.Z.N.Z.N.d.> . . & q { 7.r.h.g.1.&.( ~ Y > i E *.w.X.8.Y > , i i @ . @ + 6 + 6 6 c &X&X&X&X&X",
"&X&X&X&X&X&X&X&X).J.8.8.g.N.h.z.n.j.g.9.h.s.^ > . . % - Y P ~ Q l l Y d K s : j ( q.h.N.M.~ > , 7 $ @ . @ # # c b c &X&X&X&X&X&X",
"&X&X&X&X&X&X&X&Xv.3.&.,.5.s.F.E.(.(.q.*.0.h i r @ . . : 2 L H > O & - > : : : H ~ 3.w.V.g.Q t r 7 6 # O . @ 6 b b &X&X&X&X&X&X&X",
"&X&X&X&X&X&X&X&X&X*.o.g.c.V.Q.K.L.(.q.$.U % @ @ @ : . . : 2 L &X. % % . O @ : K W >.8.,.$.i i d i 6 @ . . . @ &X&X&X&X&X&X&X&X&X",
"&X&X&X&X&X&X&X&X&Xv.I.j.2.,.V.E.Y.h.-.y & . . . @ h &X&XO ; > &X. . . &X: . @ h h h d j i r u k s : . . &X&X&X&X&X&X&X&X&X&X&X&X",
"&X&X&X&X&X&X&X&X&X&Xq.W i : f [ ;.h : X 5 @ . . . : h h : ; ; O . . . &X;   O , : > G K a a 7 7 u @ . &X&X&X&X&X&X&X&X&X&X&X&X&X",
"&X&X&X&X&X&X&X&X&X&X&X& . . . @ k k r : : i : @ @ . ; > h < ; O . . . . O . O O : i U > u p u 6 # @ . &X&X&X&X&X&X&X&X&X&X&X&X&X",
"&X&X&X&X&X&X&X&X&X&X&X&X&X. . . @ : h k h : i h h &X&X&X&XV < ; O . . . O O . . . @ r 7 N Z 2 @ @ . &X&X&X&X&X&X&X&X&X&X&X&X&X&X",
"&X&X&X&X&X&X&X&X&X&X&X&X&X&X&X. . . : : r : : i C A &X&X&X&X< : ; ; ; O O . . . . . @ 7 u , % . . &X&X&X&X&X&X&X&X&X&X&X&X&X&X&X",
"&X&X&X&X&X&X&X&X&X&X&X&X&X&X&X&X&X&X&X&X&X: i j A A C C &X&X&X> ; ; ; O ; O &X&X&X&X. @ @ . . . &X&X&X&X&X&X&X&X&X&X&X&X&X&X&X&X",
"&X&X&X&X&X&X&X&X&X&X&X&X&X&X&X&X&X&X&X&X&X&X< < j #.C j j &X&X< : ; O ; ; &X&X&X&X&X&X. . . &X&X&X&X&X&X&X&X&X&X&X&X&X&X&X&X&X&X",
"&X&X&X&X&X&X&X&X&X&X&X&X&X&X&X&X&X&X&X&X&X&X&X< i C A j V V h < : ; ; ; ; &X&X&X&X&X&X&X&X&X&X&X&X&X&X&X&X&X&X&X&X&X&X&X&X&X&X&X",
"&X&X&X&X&X&X&X&X&X&X&X&X&X&X&X&X&X&X&X&X&X&X&X&Xi h j C C C j h : O ; ; ; &X&X&X&X&X&X&X&X&X&X&X&X&X&X&X&X&X&X&X&X&X&X&X&X&X&X&X",
"&X&X&X&X&X&X&X&X&X&X&X&X&X&X&X&X&X&X&X&X&X&X&X&X&X< h l A C j h > ; O ; : &X&X&X&X&X&X&X&X&X&X&X&X&X&X&X&X&X&X&X&X&X&X&X&X&X&X&X",
"&X&X&X&X&X&X&X&X&X&X&X&X&X&X&X&X&X&X&X&X&X&X&X&X&X&X&Xh A A C h < : ; ; ; ; &X&X&X&X&X&X&X&X&X&X&X&X&X&X&X&X&X&X&X&X&X&X&X&X&X&X",
"&X&X&X&X&X&X&X&X&X&X&X&X&X&X&X&X&X&X&X&X&X&X&X&X&X&X&X&Xl A A C h > ; ; : : > &X&X&X&X&X&X&X&X&X&X&X&X&X&X&X&X&X&X&X&X&X&X&X&X&X",
"&X&X&X&X&X&X&X&X&X&X&X&X&X&X&X&X&X&X&X&X&X&X&X&X&X&X&Xt h A #.#.j < : ; ; : ; O &X&X&X&X&X&X&X&X&X&X&X&X&X&X&X&X&X&X&X&X&X&X&X&X",
"&X&X&X&X&X&X&X&X&X&X&X&X&X&X&X&X&X&X&X&X&X&X&X|.&X2.t > h C #.#.C h : ; ; ; ; O O > &X&X&X&X&X&X&X&X&X&X&X&X&X&X&X&X&X&X&X&X&X&X",
"&X&X&X&X&X&X&X&X&X&X&X&X&X&X&X&X&X&X&X&X&X}.&Xz.).n.s > h j A #.A h > ; ; : ; ; @ : > &X&X&X&X&X&X&X&X&X&X&X&X&X&X&X&X&X&X&X&X&X",
"&X&X&X&X&X&X&X&X&X&X&X&X&X&X&X&X&X&Xs.s.j.V.q.f.~.U.j : < C #.#.C h < : ; ; : : : : : @ &X&X&X&X&X&X&X&X&X&X&X&X&X&X&X&X&X&X&X&X",
"&X&X&X&X&X&X&X&X&X&X&X&X&X&X&X&X&XG.E.(.!.q.&./ / U > : h l #.A j h < > ; ; ; : : : : . . &X&X&X&X&X&X&X&X&X&X&X&X&X&X&X&X&X&X&X",
"&X&X&X&X&X&X&X&X&X&X&X&X&X&X&X&XG.Q.K.K.!.s.q.X.~ E h i h A A j i < < < > ; ; ; : : : O . . &X&X&X&X&X&X&X&X&X&X&X&X&X&X&X&X&X&X",
"&X&X&X&X&X&X&X&X&X&X&X&X&X&X&X&XF.F.!./.A.q.Y.Q.@.S.5.h h C C h 1 < < < > : ; ; : : : : . . &X&X&X&X&X&X&X&X&X&X&X&X&X&X&X&X&X&X",
"&X&X&X&X&X&X&X&X&X&X&X&X&X&X&XG.Q.z.K.(.s.3.l.!.9.h.5.h j h h 3 K 2 < < < > : : : : : : X . &X&X&X&X&X&X&X&X&X&X&X&X&X&X&X&X&X&X",
"&X&X&X&X&X&X&X&X&X&X&X&X&X&X&X&XT./.Q.S.q.9.X.f.1.>.-.h h 3 h j L K > < > : : : : : > : @ o &X&X&X&X&X&X&X&X&X&X&X&X&X&X&X&X&X&X",
"&X&X&X&X&X&X&X&X&X&X&X&X&X&X&X&X&X}.f.&X9.w.0.J.A.>.l.Q > K $.#.2 1 > : : : : : : : > > : &X&X&X&X&X&X&X&X&X&X&X&X&X&X&X&X&X&X&X",
"&X&X&X&X&X&X&X&X&X&X&X&X&X&X&X&X&X&X&X&XT.o.&X(.s.l 3.$.j Y s j K > > > s E s E W s s > &X&X&X&X&X&X&X&X&X&X&X&X&X&X&X&X&X&X&X&X",
"&X&X&X&X&X&X&X&X&X&X&X&X&X&X&X&X&X&X&X&X&X&X&X&X2.$.2.5.2.$.j #.Y d E $.3.3.5.3.0.! 3 &X&X&X&X&X&X&X&X&X&X&X&X&X&X&X&X&X&X&X&X&X",
"&X&X&X&X&X&X&X&X&X&X&X&X&X&X&X&X&X&X&X&X&X&X&X&X&X&Xq.L.q.:.:.2.&.$.2.2.2.&X2.2.&.&X&X&X&X&X&X&X&X&X&X&X&X&X&X&X&X&X&X&X&X&X&X&X",
"&X&X&X&X&X&X&X&X&X&X&X&X&X&X&X&X&X&X&X&X&X&X&X&X&X&X&X7.&X&X&X2.&X2.&X2.&X&X&X&X&X&X&X&X&X&X&X&X&X&X&X&X&X&X&X&X&X&X&X&X&X&X&X&X"
};
