/* XPM */
static const char *enemy_0_0[] = {
/* columns rows colors chars-per-pixel */
"64 64 23 1 ",
"  c #6D1924",
". c #442823",
"X c #4F2B27",
"o c #4E3F30",
"O c #4B3D36",
"+ c #684740",
"@ c #756959",
"# c #832428",
"$ c #9E3931",
"% c #BB4F3C",
"& c #CF643D",
"* c #866A5C",
"= c #8D8375",
"- c #A88E7B",
"; c #A69F91",
": c #A9A392",
"> c #BDB7A6",
", c #CBB498",
"< c #D2CEBC",
"1 c #F1DCB8",
"2 c #EDEBDB",
"3 c #FFFFF3",
"4 c #FF00FF",
/* pixels */
"4444444444444444444444444444444444444444444444444444444444444444",
"4444444444444444444444444444444444444444444444444444444444444444",
"4444444444444444444444444444444444444444444444444444444444444444",
"4444444444444444444444444444444444444444444444444444444444444444",
"4444444444444444444444444444444444444444444444444444444444444444",
"4444444444444444444444444444444444444444444444444444444444444444",
"4444444444444444444444444444444444444444444444444444444444444444",
"4444444444444444444444444444444444444444444444444444444444444444",
"4444444444444444444444444444444444444444444444444444444444444444",
"4444444444444444444444444444444444444444444444444444444444444444",
"4444444444444444444444444444444444444444444444444444444444444444",
"4444444444444444444444444444444444444444444444444444444444444444",
"4444444444444444444444444444444444444444444444444444444444444444",
"44444444444444444444444444444444XXX44444444444444444444444444444",
"444444444444444444444444444444OO$$$X4444444444444444444444444444",
"444444444444444444444444444XXO<<2%%$X444444444444444444444444444",
"444444444444444444444444XXX##<<2%&%%$X44444444444444444444444444",
"44444444444444444444444O:###$$2%&&&2<#X4444444444444444444444444",
"4444444444444444444444O<<< #$$%%&&322:X4444444444444444444444444",
"4444444444444444444444O<<%$#$<<%%&222<#XX44444444444444444444444",
"44444444444444444444444O$$%$:<<<%%%2<$$# XX444444444444444444444",
"444444444444444444444444XX$$%3<<$$$$$$$## :O44444444444444444444",
"44444444444444444444444444XX$$&##$$$$$###$::O4444444444444444444",
"4444444444444444444444444.,-XX$%####::## $#:X4444444444444444444",
"44444444444444444444XXXO4..++*X$%%#:::>%$##X44444444444444444444",
"4444444444444444444X&%$@O44.*+-X$$$22<<$##X444444444444444444444",
"4444444444444444444O%%$#X44.**++XXX$<<#XXX4444444444444444444444",
"4444444444444444444O<$#X44.**------XXXX..44444444444444444444444",
"4444444444444444444O##X*..-----,,,-------.4444444444444444444444",
"44444444444444444444XX4.--,---,,,,,---,1,-.444444444444444444444",
"4444444444444444444444.-,11,-,,,1,,,-,1,,-.444444444444444444444",
"4444444444444444444444.-,,11,,,111,,,11,--.444444444444444444444",
"4444444444444444444444.--,,,,,11@11,,,,--*o444444444444444444444",
"4444444444444444444444o*---,-*,@<@,*-,-**@<o44444444444444444444",
"444444444444444444444o<@***--+,111,+--..*@;o44444444444444444444",
"444444444444444444444o<@*....-+1@1+-..@@o;o444444444444444444444",
"444444444444444444444o<3o4444..,1,..4o@oo@o444444444444444444444",
"4444444444444444444444o2o444444.1.444o=o4o4444444444444444444444",
"4444444444444444444444o<o4444444.4444oo4444444444444444444444444",
"4444444444444444444444o<o4444444444444o4444444444444444444444444",
"44444444444444444444444o4444444444444444444444444444444444444444",
"4444444444444444444444444444444444444444444444444444444444444444",
"4444444444444444444444444444444444444444444444444444444444444444",
"4444444444444444444444444444444444444444444444444444444444444444",
"4444444444444444444444444444444444444444444444444444444444444444",
"4444444444444444444444444444444444444444444444444444444444444444",
"4444444444444444444444444444444444444444444444444444444444444444",
"4444444444444444444444444444444444444444444444444444444444444444",
"4444444444444444444444444444444444444444444444444444444444444444",
"4444444444444444444444444444444444444444444444444444444444444444",
"4444444444444444444444444444444444444444444444444444444444444444",
"4444444444444444444444444444444444444444444444444444444444444444",
"4444444444444444444444444444444444444444444444444444444444444444",
"4444444444444444444444444444444444444444444444444444444444444444",
"4444444444444444444444444444444444444444444444444444444444444444",
"4444444444444444444444444444444444444444444444444444444444444444",
"4444444444444444444444444444444444444444444444444444444444444444",
"4444444444444444444444444444444444444444444444444444444444444444",
"4444444444444444444444444444444444444444444444444444444444444444",
"4444444444444444444444444444444444444444444444444444444444444444",
"4444444444444444444444444444444444444444444444444444444444444444",
"4444444444444444444444444444444444444444444444444444444444444444",
"4444444444444444444444444444444444444444444444444444444444444444",
"4444444444444444444444444444444444444444444444444444444444444444"
};
