/* XPM */
static const char *enemy_3_0[] = {
/* columns rows colors chars-per-pixel */
"64 64 27 1 ",
"  c #6D1924",
". c #442823",
"X c #4F2B27",
"o c #522B2B",
"O c #4E3F30",
"+ c #4B3D36",
"@ c #673A35",
"# c #794539",
"$ c #684740",
"% c #77544B",
"& c #756959",
"* c #832428",
"= c #9E3931",
"- c #BB4F3C",
"; c #CF643D",
": c #9A306C",
"> c #D5377E",
", c #866A5C",
"< c #A88E7B",
"1 c #A69F91",
"2 c #A9A392",
"3 c #CBB498",
"4 c #D2CEBC",
"5 c #F1DCB8",
"6 c #EDEBDB",
"7 c #FFFFF3",
"8 c #FF00FF",
/* pixels */
"8888888888888888888888888888888888888888888888888888888888888888",
"8888888888888888888888888888888888888888888888888888888888888888",
"8888888888888888888888888888888888888888888888888888888888888888",
"8888888888888888888888888888888888888888888888888888888888888888",
"8888888888888888888888888888888888888888888888888888888888888888",
"8888888888888888888888888888888888888888888888888888888888888888",
"8888888888888888888888888888888888888888888888888888888888888888",
"8888888888888888888888888888888888888888888888888888888888888888",
"8888888888888888888888888888888888888888888888888888888888888888",
"8888888888888888888888888888888888888888888888888888888888888888",
"8888888888888888888888888888888888888888888888888888888888888888",
"8888888888888888888888888888888888888888888888888888888888888888",
"8888888888888888888888888888888888888888888888888888888888888888",
"888888888888888888888888888888888888XXX8888888888888888888888888",
"8888888888888888888888888888888888XX*=-X888888888888888888888888",
"88888888888888888888888888888888XX**=--7+88888888888888888888888",
"888888888888888888888888888888XX*22==-;77+8888888888888888888888",
"88888888888888888888888888XXXX**2244--;;66+888888888888888888888",
"8888888888888888888888888X***= *2244-----4X888888888888888888888",
"8888888888888888888888888X**=-=**22==---===XX8888888888888888888",
"88888888888888888888888888X224== ***====4***=XX88888888888888888",
"888888888888888888888888888+222-=* ****222*=-=4+8888888888888888",
"8888888888888888888888888888++2*=-=** 22246-=42+8888888888888888",
"888888888888888888888888888.3<XX*==--=-776=***+88888888888888888",
"88888888888888888888888888XXX+$,X**======**XXX888888888888888888",
"8888888888888888888888888X;-=&+$<XX*****XXX888888888888888888888",
"8888888888888888888888888+--=*X,$$%XXXXX..8888888888888888888888",
"8888888888888888888888888+4=*X,,,,,<<<<.888888888888888888888888",
"8888888888888888888888888+**X,.%,<<<333<.88888888888888888888888",
"88888888888888888888888888XX..<3$<<33:33..8888888888888888888888",
"888888888888888888888888888.<<355$333>:5.,O888888888888888888888",
"88888888888888888888888888.<<<3353$333>5.&6O88888888888888888888",
"888888888888888888888888..3<<<<33<$33355.146O8888888888888888888",
"8888888888888888888888O.33<<<<$,<,O3@7@oO1146O888888888888888888",
"8888888888888888888888.3<&<<<<<O&46O37#@8OO146O88888888888888888",
"88888888888888888888O.3<O4&,,,,O146O<335.88O146O8888888888888888",
"88888888888888888888.5<,O46O,$$$O47O....8888O46O8888888888888888",
"888888888888888888888...O467....O67O888888888O4O8888888888888888",
"8888888888888888888888888O46OO&1O67O8888888888O88888888888888888",
"88888888888888888888888888O6OO1OO7O88888888888888888888888888888",
"88888888888888888888888888O4O14OO6O88888888888888888888888888888",
"888888888888888888888888888OO4O8O4O88888888888888888888888888888",
"88888888888888888888888888888O888O888888888888888888888888888888",
"8888888888888888888888888888888888888888888888888888888888888888",
"8888888888888888888888888888888888888888888888888888888888888888",
"8888888888888888888888888888888888888888888888888888888888888888",
"8888888888888888888888888888888888888888888888888888888888888888",
"8888888888888888888888888888888888888888888888888888888888888888",
"8888888888888888888888888888888888888888888888888888888888888888",
"8888888888888888888888888888888888888888888888888888888888888888",
"8888888888888888888888888888888888888888888888888888888888888888",
"8888888888888888888888888888888888888888888888888888888888888888",
"8888888888888888888888888888888888888888888888888888888888888888",
"8888888888888888888888888888888888888888888888888888888888888888",
"8888888888888888888888888888888888888888888888888888888888888888",
"8888888888888888888888888888888888888888888888888888888888888888",
"8888888888888888888888888888888888888888888888888888888888888888",
"8888888888888888888888888888888888888888888888888888888888888888",
"8888888888888888888888888888888888888888888888888888888888888888",
"8888888888888888888888888888888888888888888888888888888888888888",
"8888888888888888888888888888888888888888888888888888888888888888",
"8888888888888888888888888888888888888888888888888888888888888888",
"8888888888888888888888888888888888888888888888888888888888888888",
"8888888888888888888888888888888888888888888888888888888888888888"
};
