/* XPM */
static const char *enemy_2_5[] = {
/* columns rows colors chars-per-pixel */
"64 64 27 1 ",
"  c #6D1924",
". c #442823",
"X c #4F2B27",
"o c #522B2B",
"O c #4E3F30",
"+ c #4B3D36",
"@ c #673A35",
"# c #794539",
"$ c #684740",
"% c #77544B",
"& c #756959",
"* c #832428",
"= c #9E3931",
"- c #BB4F3C",
"; c #CF643D",
": c #9A306C",
"> c #D5377E",
", c #866A5C",
"< c #A88E7B",
"1 c #A69F91",
"2 c #A9A392",
"3 c #CBB498",
"4 c #D2CEBC",
"5 c #F1DCB8",
"6 c #EDEBDB",
"7 c #FFFFF3",
"8 c #FF00FF",
/* pixels */
"8888888888888888888888888888888888888888888888888888888888888888",
"8888888888888888888888888888888888888888888888888888888888888888",
"8888888888888888888888888888888888888888888888888888888888888888",
"8888888888888888888888888888888888888888888888888888888888888888",
"8888888888888888888888888888888888888888888888888888888888888888",
"8888888888888888888888888888888888888888888888888888888888888888",
"8888888888888888888888888888888888888888888888888888888888888888",
"8888888888888888888888888888888888888888888888888888888888888888",
"8888888888888888888888888888888888888888888888888888888888888888",
"8888888888888888888888888888888888888888888888888888888888888888",
"8888888888888888888888888888888888888888888888888888888888888888",
"8888888888888888888888888888888888888888888888888888888888888888",
"888888888888888888888888888XXX8888888888888888888888888888888888",
"88888888888888888888888888X-=*++88888888888888888888888888888888",
"8888888888888888888888888+7--422+XX88888888888888888888888888888",
"888888888888888888888888+77--4422**XXX88888888888888888888888888",
"88888888888888888888888+66--==22* ==-6X8888888888888888888888888",
"88888888888888888888888X=-==*** ==--442+888888888888888888888888",
"888888888888888888888XX===****==--==222X888888888888888888888888",
"8888888888888888888++=** * =-=*XXXXXX+X8888888888888888888888888",
"888888888888888888+67;-==-42+XX%%$  XX88888888888888888888888888",
"88888888888888888X46-===*+++%,,,%<$.8888888888888888888888888888",
"88888888888888888X****XXX,,%,,<,,,<3.888888888888888888888888888",
"888888888888888888XXXX .,<<,,<3<,$+XXX88888888888888888888888888",
"888888888888888888888X.,<3$$$$3<$+&=-;X8888888888888888888888888",
"8888888888888888888888..$$,,,%$$,X*=--+8888888888888888888888888",
"888888888888888888888888.<<<<,,,,,X*=4+8888888888888888888888888",
"88888888888888888888888.<333<<<,,.,X**+8888888888888888888888888",
"88888888888888888888888.33:33<<<<<..XX88888888888888888888888888",
"88888888888888888888888.5:>333<<,<<<.888888888888888888888888888",
"88888888888888888888888.5>3333<%<<<<<.88888888888888888888888888",
"88888888888888888888888.55333<$33<<<<3..888888888888888888888888",
"888888888888888888888888o@7@3$5533<<<<33.O8888888888888888888888",
"888888888888888888888888@#73$3533<<<<<O<3.8888888888888888888888",
"88888888888888888888888.533$<<33<$,,,&4O<3.O88888888888888888888",
"888888888888888888888888...O&<<<$%%,,&6O,<5.88888888888888888888",
"888888888888888888888888O1O74&<$.....&6O...888888888888888888888",
"8888888888888888888888888O7664OO11O8O66O888888888888888888888888",
"8888888888888888888888888O764O88O41OO6O8888888888888888888888888",
"888888888888888888888888O776O888O64OO6O8888888888888888888888888",
"888888888888888888888888O76O88888O4OO7O8888888888888888888888888",
"88888888888888888888888O76O888888O6OO7O8888888888888888888888888",
"88888888888888888888888OOO88888888O88O88888888888888888888888888",
"8888888888888888888888888888888888888888888888888888888888888888",
"8888888888888888888888888888888888888888888888888888888888888888",
"8888888888888888888888888888888888888888888888888888888888888888",
"8888888888888888888888888888888888888888888888888888888888888888",
"8888888888888888888888888888888888888888888888888888888888888888",
"8888888888888888888888888888888888888888888888888888888888888888",
"8888888888888888888888888888888888888888888888888888888888888888",
"8888888888888888888888888888888888888888888888888888888888888888",
"8888888888888888888888888888888888888888888888888888888888888888",
"8888888888888888888888888888888888888888888888888888888888888888",
"8888888888888888888888888888888888888888888888888888888888888888",
"8888888888888888888888888888888888888888888888888888888888888888",
"8888888888888888888888888888888888888888888888888888888888888888",
"8888888888888888888888888888888888888888888888888888888888888888",
"8888888888888888888888888888888888888888888888888888888888888888",
"8888888888888888888888888888888888888888888888888888888888888888",
"8888888888888888888888888888888888888888888888888888888888888888",
"8888888888888888888888888888888888888888888888888888888888888888",
"8888888888888888888888888888888888888888888888888888888888888888",
"8888888888888888888888888888888888888888888888888888888888888888",
"8888888888888888888888888888888888888888888888888888888888888888"
};
