/* XPM */
static const char *enemy_3_3[] = {
/* columns rows colors chars-per-pixel */
"64 64 23 1 ",
"  c #6D1924",
". c #442823",
"X c #4F2B27",
"o c #4E3F30",
"O c #4B3D36",
"+ c #684740",
"@ c #77544B",
"# c #756959",
"$ c #832428",
"% c #9E3931",
"& c #BB4F3C",
"* c #CF643D",
"= c #D5377E",
"- c #866A5C",
"; c #A88E7B",
": c #A69F91",
"> c #A9A392",
", c #CBB498",
"< c #D2CEBC",
"1 c #F1DCB8",
"2 c #EDEBDB",
"3 c #FFFFF3",
"4 c #FF00FF",
/* pixels */
"4444444444444444444444444444444444444444444444444444444444444444",
"4444444444444444444444444444444444444444444444444444444444444444",
"4444444444444444444444444444444444444444444444444444444444444444",
"4444444444444444444444444444444444444444444444444444444444444444",
"4444444444444444444444444444444444444444444444444444444444444444",
"4444444444444444444444444444444444444444444444444444444444444444",
"4444444444444444444444444444444444444444444444444444444444444444",
"4444444444444444444444444444444444444444444444444444444444444444",
"4444444444444444444444444444444444444444444444444444444444444444",
"4444444444444444444444444444444444444444444444444444444444444444",
"4444444444444444444444444444444444444444444444444444444444444444",
"4444444444444444444444444444444444444444444444444444444444444444",
"4444444444444444444444444444444444444444444444444444444444444444",
"444444444444444444444444444444444444XXX4444444444444444444444444",
"4444444444444444444444444444444444XX$%&X444444444444444444444444",
"44444444444444444444444444444444XX$$%&&3O44444444444444444444444",
"444444444444444444444444444444XX$>>%%&*33O4444444444444444444444",
"44444444444444444444444444XXXX$$>><<&&**22O444444444444444444444",
"4444444444444444444444444X$$$% $>><<&&&&&<X444444444444444444444",
"4444444444444444444444444X$$%&%$$>>%%&&&%%%XX4444444444444444444",
"44444444444444444444444444X>><%% $$$%%%%<$$$%XX44444444444444444",
"444444444444444444444444444O>>>&%$ $$$$>>>$%&%<O4444444444444444",
"4444444444444444444444444444OO>$%&%$$ >>><2&%<>O4444444444444444",
"444444444444444444444444444XXXOX$%%&&%&332%$$$O44444444444444444",
"44444444444444444444444444X*&%#OX$$%%%%%%$$XXX444444444444444444",
"44444444444444444444444444O&&%$X;XX$$$$$XXX444444444444444444444",
"44444444444444444444444444O<%$X-++@XXXXX..4444444444444444444444",
"44444444444444444444444444O$$X-.---;;;;.444444444444444444444444",
"444444444444444444444444444XX..;+++;,,,;.44444444444444444444444",
"4444444444444444444444444444.--;,,;+,=,,.44444444444444444444444",
"444444444444444444444444444.;-;,11,;+o=1.44444444444444444444444",
"44444444444444444444444444.;;;;,,1,;#3o1.44444444444444444444444",
"444444444444444444444444..,;;;;;,,;#233o.44444444444444444444444",
"4444444444444444444444o.,,;;;;;@+++#<233o44444444444444444444444",
"4444444444444444444444.,;o;;;;;;;;;+o<233o4444444444444444444444",
"44444444444444444444o.,;o<#---------;o<23o4444444444444444444444",
"44444444444444444444.1;-o<#--++++++-..o<23o444444444444444444444",
"444444444444444444444...o2<o........44oo<2o444444444444444444444",
"444444444444444444444444o2:o44o::o4444o:o<o444444444444444444444",
"444444444444444444444444o2o4444o:o4444o:oo4444444444444444444444",
"44444444444444444444444o32o4444o<o4444o<o44444444444444444444444",
"44444444444444444444444o3o444444o44444o2o44444444444444444444444",
"444444444444444444444444o44444444444444o444444444444444444444444",
"4444444444444444444444444444444444444444444444444444444444444444",
"4444444444444444444444444444444444444444444444444444444444444444",
"4444444444444444444444444444444444444444444444444444444444444444",
"4444444444444444444444444444444444444444444444444444444444444444",
"4444444444444444444444444444444444444444444444444444444444444444",
"4444444444444444444444444444444444444444444444444444444444444444",
"4444444444444444444444444444444444444444444444444444444444444444",
"4444444444444444444444444444444444444444444444444444444444444444",
"4444444444444444444444444444444444444444444444444444444444444444",
"4444444444444444444444444444444444444444444444444444444444444444",
"4444444444444444444444444444444444444444444444444444444444444444",
"4444444444444444444444444444444444444444444444444444444444444444",
"4444444444444444444444444444444444444444444444444444444444444444",
"4444444444444444444444444444444444444444444444444444444444444444",
"4444444444444444444444444444444444444444444444444444444444444444",
"4444444444444444444444444444444444444444444444444444444444444444",
"4444444444444444444444444444444444444444444444444444444444444444",
"4444444444444444444444444444444444444444444444444444444444444444",
"4444444444444444444444444444444444444444444444444444444444444444",
"4444444444444444444444444444444444444444444444444444444444444444",
"4444444444444444444444444444444444444444444444444444444444444444"
};
