/* XPM */
static const char *enemy_2_4[] = {
/* columns rows colors chars-per-pixel */
"64 64 26 1 ",
"  c #6D1924",
". c #442823",
"X c #4F2B27",
"o c #522B2B",
"O c #4E3F30",
"+ c #4B3D36",
"@ c #673A35",
"# c #794539",
"$ c #684740",
"% c #77544B",
"& c #756959",
"* c #832428",
"= c #9E3931",
"- c #BB4F3C",
"; c #CF643D",
": c #D5377E",
"> c #866A5C",
", c #A88E7B",
"< c #A69F91",
"1 c #A9A392",
"2 c #CBB498",
"3 c #D2CEBC",
"4 c #F1DCB8",
"5 c #EDEBDB",
"6 c #FFFFF3",
"7 c #FF00FF",
/* pixels */
"7777777777777777777777777777777777777777777777777777777777777777",
"7777777777777777777777777777777777777777777777777777777777777777",
"7777777777777777777777777777777777777777777777777777777777777777",
"7777777777777777777777777777777777777777777777777777777777777777",
"7777777777777777777777777777777777777777777777777777777777777777",
"7777777777777777777777777777777777777777777777777777777777777777",
"7777777777777777777777777777777777777777777777777777777777777777",
"7777777777777777777777777777777777777777777777777777777777777777",
"7777777777777777777777777777777777777777777777777777777777777777",
"7777777777777777777777777777777777777777777777777777777777777777",
"7777777777777777777777777777777777777777777777777777777777777777",
"7777777777777777777777777777777777777777777777777777777777777777",
"7777777777777777777777777777777777777777777777777777777777777777",
"7777777777777777777777777777777777777777777777777777777777777777",
"7777777777777777777777777777777777777777777777777777777777777777",
"7777777777777777777777777777777777777777777777777777777777777777",
"77777777777777777777777777XXXX++77777777777777777777777777777777",
"7777777777777777777777777+6--311+XX77777777777777777777777777777",
"777777777777777777777777+66-=3311 =XXXX7777777777777777777777777",
"77777777777777777777777+5-==**11==--331+777777777777777777777777",
"7777777777777777777777X===****==--==111X777777777777777777777777",
"77777777777777777777+X** * =-=*XXXXXX+X7777777777777777777777777",
"777777777777777777++6;-==-31+XX%%$  XX77777777777777777777777777",
"77777777777777777X35-===*+++%>>>+XXX7777777777777777777777777777",
"77777777777777777X****XXX>>%>>,+&=-;X777777777777777777777777777",
"777777777777777777XXXX .>,,>>,2X*=--+777777777777777777777777777",
"777777777777777777777X.>,2$$$$2,X*=3+777777777777777777777777777",
"7777777777777777777777..$$...%$.>X**+777777777777777777777777777",
"7777777777777777777777OO.4422,>,.>XX7777777777777777777777777777",
"77777777777777777777OO665&22,,,>>..77777777777777777777777777777",
"777777777777777777OO666553&,,,,,,>..7777777777777777777777777777",
"77777777777777777O6655533OO$$$,,,,>,.777777777777777777777777777",
"7777777777777777O553OOOOO:2222$,,>>,,.77777777777777777777777777",
"7777777777777777OOOO777.44222,,,>>,,,2..777777777777777777777777",
"777777777777777777777777o@6@2,,,,,,,,,22.O7777777777777777777777",
"777777777777777777777777@#62,,,,,,,,,,&,2.7777777777777777777777",
"77777777777777777777777.422,>>>>>>>>>&3&,2.O77777777777777777777",
"777777777777777777777777....$$$$$$$>>&5&>,4.77777777777777777777",
"777777777777777777777777O<<O.........O56O..777777777777777777777",
"777777777777777777777777O3<O3OOO777777O5O77777777777777777777777",
"777777777777777777777777O3<O<O77777777O53O7777777777777777777777",
"7777777777777777777777777O3OO7777777777O3O7777777777777777777777",
"77777777777777777777777777O7777777777777O77777777777777777777777",
"7777777777777777777777777777777777777777777777777777777777777777",
"7777777777777777777777777777777777777777777777777777777777777777",
"7777777777777777777777777777777777777777777777777777777777777777",
"7777777777777777777777777777777777777777777777777777777777777777",
"7777777777777777777777777777777777777777777777777777777777777777",
"7777777777777777777777777777777777777777777777777777777777777777",
"7777777777777777777777777777777777777777777777777777777777777777",
"7777777777777777777777777777777777777777777777777777777777777777",
"7777777777777777777777777777777777777777777777777777777777777777",
"7777777777777777777777777777777777777777777777777777777777777777",
"7777777777777777777777777777777777777777777777777777777777777777",
"7777777777777777777777777777777777777777777777777777777777777777",
"7777777777777777777777777777777777777777777777777777777777777777",
"7777777777777777777777777777777777777777777777777777777777777777",
"7777777777777777777777777777777777777777777777777777777777777777",
"7777777777777777777777777777777777777777777777777777777777777777",
"7777777777777777777777777777777777777777777777777777777777777777",
"7777777777777777777777777777777777777777777777777777777777777777",
"7777777777777777777777777777777777777777777777777777777777777777",
"7777777777777777777777777777777777777777777777777777777777777777",
"7777777777777777777777777777777777777777777777777777777777777777"
};
