/* XPM */
static const char *enemy_3_4[] = {
/* columns rows colors chars-per-pixel */
"64 64 25 1 ",
"  c #6D1924",
". c #442823",
"X c #4F2B27",
"o c #522B2B",
"O c #4E3F30",
"+ c #4B3D36",
"@ c #673A35",
"# c #794539",
"$ c #684740",
"% c #756959",
"& c #832428",
"* c #9E3931",
"= c #BB4F3C",
"- c #CF643D",
"; c #D5377E",
": c #866A5C",
"> c #A88E7B",
", c #A69F91",
"< c #A9A392",
"1 c #CBB498",
"2 c #D2CEBC",
"3 c #F1DCB8",
"4 c #EDEBDB",
"5 c #FFFFF3",
"6 c #FF00FF",
/* pixels */
"6666666666666666666666666666666666666666666666666666666666666666",
"6666666666666666666666666666666666666666666666666666666666666666",
"6666666666666666666666666666666666666666666666666666666666666666",
"6666666666666666666666666666666666666666666666666666666666666666",
"6666666666666666666666666666666666666666666666666666666666666666",
"6666666666666666666666666666666666666666666666666666666666666666",
"6666666666666666666666666666666666666666666666666666666666666666",
"6666666666666666666666666666666666666666666666666666666666666666",
"6666666666666666666666666666666666666666666666666666666666666666",
"6666666666666666666666666666666666666666666666666666666666666666",
"6666666666666666666666666666666666666666666666666666666666666666",
"6666666666666666666666666666666666666666666666666666666666666666",
"6666666666666666666666666666666666666666666666666666666666666666",
"6666666666666666666666666666666666666666666666666666666666666666",
"6666666666666666666666666666666666666666666666666666666666666666",
"66666666666666666666666666666666666XXX66666666666666666666666666",
"666666666666666666666666666666666XX&*=X6666666666666666666666666",
"666666666666666666666666666666XXX&&*==5+666666666666666666666666",
"66666666666666666666666666XXXX&&<<**=-55+66666666666666666666666",
"6666666666666666666666666X&&* &<<22==--44+6666666666666666666666",
"666666666666666666666666X&&*=*&<<22=====2 X666666666666666666666",
"6666666666666666666666666X<<2** <<&****2&&&XXX666666666666666666",
"66666666666666666666666666+<<<=*& &&&&<<<&*=*2+66666666666666666",
"666666666666666666666666666+XXX+=*&& <<<24=*2<+66666666666666666",
"666666666666666666666666666X-=*%+*==*=554*&&&+666666666666666666",
"666666666666666666666666666+==*&X&******&&XXX6666666666666666666",
"666666666666666666666666666+2*&XXX&&&&&XXX6666666666666666666666",
"666666666666666666666666666+&&X:.$XXXXX$..6666666666666666666666",
"6666666666666666666666666666XX:.>:>1133.OO6666666666666666666666",
"66666666666666666666666666666..::>>>11%455OO66666666666666666666",
"6666666666666666666666666666..:>>>>>>%244555OO666666666666666666",
"666666666666666666666666666.>:>>>>$$$OO2244455O66666666666666666",
"66666666666666666666666666.>>::>>$1111;OOOOO244O6666666666666666",
"666666666666666666666666..1>>>::>>>11133.666OOOO6666666666666666",
"6666666666666666666666O.11>>>>>>>>>1@5@o666666666666666666666666",
"6666666666666666666666.1>%>>>>>>>>>>15#@666666666666666666666666",
"66666666666666666666O.1>%2%:::::::::>113.66666666666666666666666",
"66666666666666666666.3>:%4%::$$$$$$$....666666666666666666666666",
"666666666666666666666..O54O.........O,,O666666666666666666666666",
"66666666666666666666666O4O666666OOO2O,2O666666666666666666666666",
"6666666666666666666666O24O66666666O,O,2O666666666666666666666666",
"6666666666666666666666O2O6666666666OO2O6666666666666666666666666",
"66666666666666666666666O6666666666666O66666666666666666666666666",
"6666666666666666666666666666666666666666666666666666666666666666",
"6666666666666666666666666666666666666666666666666666666666666666",
"6666666666666666666666666666666666666666666666666666666666666666",
"6666666666666666666666666666666666666666666666666666666666666666",
"6666666666666666666666666666666666666666666666666666666666666666",
"6666666666666666666666666666666666666666666666666666666666666666",
"6666666666666666666666666666666666666666666666666666666666666666",
"6666666666666666666666666666666666666666666666666666666666666666",
"6666666666666666666666666666666666666666666666666666666666666666",
"6666666666666666666666666666666666666666666666666666666666666666",
"6666666666666666666666666666666666666666666666666666666666666666",
"6666666666666666666666666666666666666666666666666666666666666666",
"6666666666666666666666666666666666666666666666666666666666666666",
"6666666666666666666666666666666666666666666666666666666666666666",
"6666666666666666666666666666666666666666666666666666666666666666",
"6666666666666666666666666666666666666666666666666666666666666666",
"6666666666666666666666666666666666666666666666666666666666666666",
"6666666666666666666666666666666666666666666666666666666666666666",
"6666666666666666666666666666666666666666666666666666666666666666",
"6666666666666666666666666666666666666666666666666666666666666666",
"6666666666666666666666666666666666666666666666666666666666666666"
};
