/* XPM */
static const char *enemy_1_0[] = {
/* columns rows colors chars-per-pixel */
"64 64 25 1 ",
"  c #6D1924",
". c #442823",
"X c #4F2B27",
"o c #4E3F30",
"O c #4B3D36",
"+ c #673A35",
"@ c #794539",
"# c #684740",
"$ c #756959",
"% c #832428",
"& c #9E3931",
"* c #BB4F3C",
"= c #CF643D",
"- c #9A306C",
"; c #D5377E",
": c #866A5C",
"> c #A88E7B",
", c #A9A392",
"< c #BDB7A6",
"1 c #CBB498",
"2 c #D2CEBC",
"3 c #F1DCB8",
"4 c #EDEBDB",
"5 c #FFFFF3",
"6 c #FF00FF",
/* pixels */
"6666666666666666666666666666666666666666666666666666666666666666",
"6666666666666666666666666666666666666666666666666666666666666666",
"6666666666666666666666666666666666666666666666666666666666666666",
"6666666666666666666666666666666666666666666666666666666666666666",
"6666666666666666666666666666666666666666666666666666666666666666",
"6666666666666666666666666666666666666666666666666666666666666666",
"6666666666666666666666666666666666666666666666666666666666666666",
"6666666666666666666666666666666666666666666666666666666666666666",
"6666666666666666666666666666666666666666666666666666666666666666",
"6666666666666666666666666666666666666666666666666666666666666666",
"6666666666666666666666666666666666666666666666666666666666666666",
"6666666666666666666666666666666666666666666666666666666666666666",
"6666666666666666666666666666666666666666666666666666666666666666",
"666666666666666666666666666666XXX6666666666666666666666666666666",
"66666666666666666666666666666X&&&OO66666666666666666666666666666",
"6666666666666666666666666666X&**422OXX66666666666666666666666666",
"666666666666666666666666666X&**=*422%%XXX66666666666666666666666",
"66666666666666666666666666X%24===*4&&%%%,O6666666666666666666666",
"66666666666666666666666666X,445==**&&% 222O666666666666666666666",
"666666666666666666666666XX%2444=**22&%&*22O666666666666666666666",
"6666666666666666666666XX %&&24***222,&*&&O6666666666666666666666",
"666666666666666666666O, %%&&&&&&&225*&&XX66666666666666666666666",
"66666666666666666666O,,&%%%&&&&&%%=&&XX6666666666666666666666666",
"66666666666666666666X,%& %%,,%%%%*&XX>1.666666666666666666666666",
"666666666666666666666X%%&*<,,,%**&X:##..6OXXX6666666666666666666",
"6666666666666666666666X%%&2244&&&X>#:.66O$&*=X666666666666666666",
"66666666666666666666666XXX%22&XXX##::.66X%&**O666666666666666666",
"66666666666666666666666666XXXX>>>>>>::.66X%&2O666666666666666666",
"666666666666666666666666..::>>>111>>>::..:X%%O666666666666666666",
"66666666666666666666666.>>>:1-11111-1:>>>.6XX6666666666666666666",
"6666666666666666666666.>1>>:1;-131-;1:>>1>.666666666666666666666",
"6666666666666666666666.131::11;333;11::131.666666666666666666666",
"6666666666666666666666.333#>113333311>#333.666666666666666666666",
"6666666666666666666666.131#>15+++++51>#131.666666666666666666666",
"666666666666666666666oo>1$#$>5@5@5@5>$#$1>oo66666666666666666666",
"666666666666666666666oo$$2...>13331>...2$$oo66666666666666666666",
"666666666666666666666oo245o66.......66o542oo66666666666666666666",
"666666666666666666666o$o45o66666666666o54oo666666666666666666666",
"6666666666666666666666oo25o66666666666o52o6666666666666666666666",
"6666666666666666666666oo24o66666666666o42o6666666666666666666666",
"6666666666666666666666o$o2o66666666666o2o66666666666666666666666",
"66666666666666666666666oo2o66666666666o2o66666666666666666666666",
"6666666666666666666666666o6666666666666o666666666666666666666666",
"6666666666666666666666666666666666666666666666666666666666666666",
"6666666666666666666666666666666666666666666666666666666666666666",
"6666666666666666666666666666666666666666666666666666666666666666",
"6666666666666666666666666666666666666666666666666666666666666666",
"6666666666666666666666666666666666666666666666666666666666666666",
"6666666666666666666666666666666666666666666666666666666666666666",
"6666666666666666666666666666666666666666666666666666666666666666",
"6666666666666666666666666666666666666666666666666666666666666666",
"6666666666666666666666666666666666666666666666666666666666666666",
"6666666666666666666666666666666666666666666666666666666666666666",
"6666666666666666666666666666666666666666666666666666666666666666",
"6666666666666666666666666666666666666666666666666666666666666666",
"6666666666666666666666666666666666666666666666666666666666666666",
"6666666666666666666666666666666666666666666666666666666666666666",
"6666666666666666666666666666666666666666666666666666666666666666",
"6666666666666666666666666666666666666666666666666666666666666666",
"6666666666666666666666666666666666666666666666666666666666666666",
"6666666666666666666666666666666666666666666666666666666666666666",
"6666666666666666666666666666666666666666666666666666666666666666",
"6666666666666666666666666666666666666666666666666666666666666666",
"6666666666666666666666666666666666666666666666666666666666666666"
};
