/* XPM */
static const char *enemy_0_4[] = {
/* columns rows colors chars-per-pixel */
"64 64 22 1 ",
"  c #6D1924",
". c #442823",
"X c #4F2B27",
"o c #4E3F30",
"O c #4B3D36",
"+ c #684740",
"@ c #756959",
"# c #832428",
"$ c #9E3931",
"% c #BB4F3C",
"& c #CF643D",
"* c #866A5C",
"= c #A88E7B",
"- c #A69F91",
"; c #A9A392",
": c #BDB7A6",
"> c #CBB498",
", c #D2CEBC",
"< c #F1DCB8",
"1 c #EDEBDB",
"2 c #FFFFF3",
"3 c #FF00FF",
/* pixels */
"3333333333333333333333333333333333333333333333333333333333333333",
"3333333333333333333333333333333333333333333333333333333333333333",
"3333333333333333333333333333333333333333333333333333333333333333",
"3333333333333333333333333333333333333333333333333333333333333333",
"3333333333333333333333333333333333333333333333333333333333333333",
"3333333333333333333333333333333333333333333333333333333333333333",
"3333333333333333333333333333333333333333333333333333333333333333",
"3333333333333333333333333333333333333333333333333333333333333333",
"3333333333333333333333333333333333333333333333333333333333333333",
"3333333333333333333333333333333333333333333333333333333333333333",
"3333333333333333333333333333333333333333333333333333333333333333",
"3333333333333333333333333333333333333333333333333333333333333333",
"33333333333333333333333333333333XXX33333333333333333333333333333",
"333333333333333333333333333333OO$$$X3333333333333333333333333333",
"333333333333333333333333333XXO,,1%%$X333333333333333333333333333",
"333333333333333333333333XXX##,,1%&%%$X33333333333333333333333333",
"33333333333333333333333O;###$$1%&&&1,#X3333333333333333333333333",
"3333333333333333333333O,,, #$$%%&&211;X3333333333333333333333333",
"3333333333333333333333O,,%$#$,,%%&111,#XX33333333333333333333333",
"33333333333333333333333O$$%$;,,,%%%1,$$# XX333333333333333333333",
"333333333333333333333333XX$$%2,,$$$$$$$## ;O33333333333333333333",
"33333333333333333333333333XX$$&##$$$$$###$;;O3333333333333333333",
"3333333333333333333333333.>=XX$%####;;## $#;X3333333333333333333",
"33333333333333333333XXXO3..++*X$%%#;;;:%$##X33333333333333333333",
"3333333333333333333X&%$@O33.*+=X$$$11,,$##X333333333333333333333",
"3333333333333333333O%%$#Xoo.**++XXX$,,#XXX3333333333333333333333",
"3333333333333333333O,$#Xo-.**======XXXX3333333333333333333333333",
"3333333333333333333O##X*..=====>>>=====.333333333333333333333333",
"33333333333333333333XX3.==>===>>>>>===>=.33333333333333333333333",
"33333333333333333333333.=><>=>>><>>>=><>=.3333333333333333333333",
"3333333333333333333333.=><<<>>><<<>>><<<>=.333333333333333333333",
"3333333333333333333333.=>>>>>><<@<<>>>>>>=.333333333333333333333",
"3333333333333333333333.==>=>=*>@,@>*=>=>==.333333333333333333333",
"3333333333333333333333.*==*==+><<<>+==*==*o333333333333333333333",
"33333333333333333333333o**...=+<@<+=...**@,o33333333333333333333",
"33333333333333333333333o@.@o3..><>..333.*@1o33333333333333333333",
"333333333333333333333333o3o3333.<.333333o12o33333333333333333333",
"33333333333333333333333333333333.3333333o12o33333333333333333333",
"3333333333333333333333333333333333333333o12o33333333333333333333",
"33333333333333333333333333333333333333333o1o33333333333333333333",
"33333333333333333333333333333333333333333o,o33333333333333333333",
"333333333333333333333333333333333333333333o333333333333333333333",
"3333333333333333333333333333333333333333333333333333333333333333",
"3333333333333333333333333333333333333333333333333333333333333333",
"3333333333333333333333333333333333333333333333333333333333333333",
"3333333333333333333333333333333333333333333333333333333333333333",
"3333333333333333333333333333333333333333333333333333333333333333",
"3333333333333333333333333333333333333333333333333333333333333333",
"3333333333333333333333333333333333333333333333333333333333333333",
"3333333333333333333333333333333333333333333333333333333333333333",
"3333333333333333333333333333333333333333333333333333333333333333",
"3333333333333333333333333333333333333333333333333333333333333333",
"3333333333333333333333333333333333333333333333333333333333333333",
"3333333333333333333333333333333333333333333333333333333333333333",
"3333333333333333333333333333333333333333333333333333333333333333",
"3333333333333333333333333333333333333333333333333333333333333333",
"3333333333333333333333333333333333333333333333333333333333333333",
"3333333333333333333333333333333333333333333333333333333333333333",
"3333333333333333333333333333333333333333333333333333333333333333",
"3333333333333333333333333333333333333333333333333333333333333333",
"3333333333333333333333333333333333333333333333333333333333333333",
"3333333333333333333333333333333333333333333333333333333333333333",
"3333333333333333333333333333333333333333333333333333333333333333",
"3333333333333333333333333333333333333333333333333333333333333333"
};
