/* XPM */
static const char *enemy_3_1[] = {
/* columns rows colors chars-per-pixel */
"64 64 27 1 ",
"  c #6D1924",
". c #442823",
"X c #4F2B27",
"o c #522B2B",
"O c #4E3F30",
"+ c #4B3D36",
"@ c #673A35",
"# c #794539",
"$ c #684740",
"% c #77544B",
"& c #756959",
"* c #832428",
"= c #9E3931",
"- c #BB4F3C",
"; c #CF643D",
": c #9A306C",
"> c #D5377E",
", c #866A5C",
"< c #A88E7B",
"1 c #A69F91",
"2 c #A9A392",
"3 c #CBB498",
"4 c #D2CEBC",
"5 c #F1DCB8",
"6 c #EDEBDB",
"7 c #FFFFF3",
"8 c #FF00FF",
/* pixels */
"8888888888888888888888888888888888888888888888888888888888888888",
"8888888888888888888888888888888888888888888888888888888888888888",
"8888888888888888888888888888888888888888888888888888888888888888",
"8888888888888888888888888888888888888888888888888888888888888888",
"8888888888888888888888888888888888888888888888888888888888888888",
"8888888888888888888888888888888888888888888888888888888888888888",
"8888888888888888888888888888888888888888888888888888888888888888",
"8888888888888888888888888888888888888888888888888888888888888888",
"8888888888888888888888888888888888888888888888888888888888888888",
"8888888888888888888888888888888888888888888888888888888888888888",
"8888888888888888888888888888888888888888888888888888888888888888",
"8888888888888888888888888888888888888888888888888888888888888888",
"8888888888888888888888888888888888888888888888888888888888888888",
"8888888888888888888888888888888888888888888888888888888888888888",
"8888888888888888888888888888888888888888888888888888888888888888",
"88888888888888888888888888888888888XXX88888888888888888888888888",
"888888888888888888888888888888888XX*=-X8888888888888888888888888",
"888888888888888888888888888888XXX**=--7+888888888888888888888888",
"88888888888888888888888888XXXX**22==-;77+88888888888888888888888",
"8888888888888888888888888X**= *2244--;;66+8888888888888888888888",
"888888888888888888888888X**=-=*2244-----4 X888888888888888888888",
"8888888888888888888888888X224== 22*====4***XXX888888888888888888",
"88888888888888888888888888+222-=* ****222*=-=4+88888888888888888",
"888888888888888888888888888++2*=-=** 22246-=42+88888888888888888",
"888888888888888888888888888.3XX*==--=-776=***+888888888888888888",
"88888888888888888888888888XXX+$X**======**XXX8888888888888888888",
"8888888888888888888888888X;-=&+$XX*****XXX8888888888888888888888",
"8888888888888888888888888+--=*X,$$XXXXX$...888888888888888888888",
"8888888888888888888888888+4=*X,,,,,<<<<.,<<..O888888888888888888",
"8888888888888888888888888+**X,.%,<<<333<.,<<&6OO8888888888888888",
"88888888888888888888888888XX..<3$<<33:33.,,&6667OO88888888888888",
"888888888888888888888888888.<<355$333>:5...O446667OO888888888888",
"88888888888888888888888888.<<<3353$333>5.888OOOO4667O88888888888",
"888888888888888888888888..3<<<<33<$33355.8888888OOOO888888888888",
"8888888888888888888888O.33<<<<$,<&O3@7@o888888888888888888888888",
"8888888888888888888888.3<&&<<<<O&6O<37#@888888888888888888888888",
"88888888888888888888O.3<O67OO,,O46O,<335.88888888888888888888888",
"88888888888888888888.5<,O4667O$O67O,....888888888888888888888888",
"888888888888888888888....OO466O46O..8888888888888888888888888888",
"888888888888888888888888888OO4O46O888888888888888888888888888888",
"888888888888888888888888888O&OO67O888888888888888888888888888888",
"888888888888888888888888888O1OO7O8888888888888888888888888888888",
"8888888888888888888888888888O88O88888888888888888888888888888888",
"8888888888888888888888888888888888888888888888888888888888888888",
"8888888888888888888888888888888888888888888888888888888888888888",
"8888888888888888888888888888888888888888888888888888888888888888",
"8888888888888888888888888888888888888888888888888888888888888888",
"8888888888888888888888888888888888888888888888888888888888888888",
"8888888888888888888888888888888888888888888888888888888888888888",
"8888888888888888888888888888888888888888888888888888888888888888",
"8888888888888888888888888888888888888888888888888888888888888888",
"8888888888888888888888888888888888888888888888888888888888888888",
"8888888888888888888888888888888888888888888888888888888888888888",
"8888888888888888888888888888888888888888888888888888888888888888",
"8888888888888888888888888888888888888888888888888888888888888888",
"8888888888888888888888888888888888888888888888888888888888888888",
"8888888888888888888888888888888888888888888888888888888888888888",
"8888888888888888888888888888888888888888888888888888888888888888",
"8888888888888888888888888888888888888888888888888888888888888888",
"8888888888888888888888888888888888888888888888888888888888888888",
"8888888888888888888888888888888888888888888888888888888888888888",
"8888888888888888888888888888888888888888888888888888888888888888",
"8888888888888888888888888888888888888888888888888888888888888888",
"8888888888888888888888888888888888888888888888888888888888888888"
};
