/* XPM */
static const char *enemy_1_5[] = {
/* columns rows colors chars-per-pixel */
"64 64 27 1 ",
"  c #6D1924",
". c #442823",
"X c #4F2B27",
"o c #4E3F30",
"O c #4B3D36",
"+ c #673A35",
"@ c #794539",
"# c #684740",
"$ c #77544B",
"% c #756959",
"& c #832428",
"* c #9E3931",
"= c #BB4F3C",
"- c #CF643D",
"; c #9A306C",
": c #D5377E",
"> c #866A5C",
", c #A88E7B",
"< c #A69F91",
"1 c #A9A392",
"2 c #BDB7A6",
"3 c #CBB498",
"4 c #D2CEBC",
"5 c #F1DCB8",
"6 c #EDEBDB",
"7 c #FFFFF3",
"8 c #FF00FF",
/* pixels */
"8888888888888888888888888888888888888888888888888888888888888888",
"8888888888888888888888888888888888888888888888888888888888888888",
"8888888888888888888888888888888888888888888888888888888888888888",
"8888888888888888888888888888888888888888888888888888888888888888",
"8888888888888888888888888888888888888888888888888888888888888888",
"8888888888888888888888888888888888888888888888888888888888888888",
"8888888888888888888888888888888888888888888888888888888888888888",
"8888888888888888888888888888888888888888888888888888888888888888",
"8888888888888888888888888888888888888888888888888888888888888888",
"8888888888888888888888888888888888888888888888888888888888888888",
"8888888888888888888888888888888888888888888888888888888888888888",
"8888888888888888888888888888888888888888888888888888888888888888",
"8888888888888888888888888888888888888888888888888888888888888888",
"8888888888888888888888888888888888888888888888888888888888888888",
"888888888888888888888888888888XXX8888888888888888888888888888888",
"88888888888888888888888888888X***OO88888888888888888888888888888",
"8888888888888888888888888888X*==644OXX88888888888888888888888888",
"888888888888888888888888888X*==-=644&&XXX88888888888888888888888",
"88888888888888888888888888X&46---=6**&&&1O8888888888888888888888",
"888888888888888888888888XXX1667--==**& 444O888888888888888888888",
"8888888888888888888888XX &*4666-=4441*=*4O8888888888888888888888",
"888888888888888888888O1 &&**46==*447=**XX88888888888888888888888",
"88888888888888888888O11*&&&*****&&-**XX8888888888888888888888888",
"88888888888888888888X1&* &&11&&&&=*XX#.8888888888888888888888888",
"888888888888888888888X&&*=2111&==*X>>,3.8OXXX8888888888888888888",
"8888888888888888888888X&&*4466***X,>##..XX%=-X888888888888888888",
"88888888888888888888888XXX&44*XXX3,#>.88.>X*=X888888888888888888",
"8888888888888888888888888.XXXX>>$##>>.88oo,X4O888888888888888888",
"88888888888888888888888888.>>,,,,,,,>>.o77o>XO888888888888888888",
"8888888888888888888888888.>>,,,333,,,>>%777oX8888888888888888888",
"888888888888888888888888.,,>3;33333;3>,%677o88888888888888888888",
"88888888888888888888888.3,,>3:;353;:3>,o4677o8888888888888888888",
"8888888888888888888888.353#>33:555:33>##o467o8888888888888888888",
"8888888888888888888888.555#,335555533,#..o477o888888888888888888",
"8888888888888888888888.35%#,37+++++73,%o%<o67o888888888888888888",
"888888888888888888888o.#%4o%,7@7@7@7,%8o%<o46o888888888888888888",
"888888888888888888888o<o<<oo.,35553,.888o%oo6o888888888888888888",
"888888888888888888888o<o%<o88.......8888o%oo4o888888888888888888",
"8888888888888888888888o<o%o88888888888888o88o8888888888888888888",
"8888888888888888888888o%o%%o888888888888888888888888888888888888",
"8888888888888888888888o%oo%o888888888888888888888888888888888888",
"88888888888888888888888o8o%o888888888888888888888888888888888888",
"88888888888888888888888888o8888888888888888888888888888888888888",
"8888888888888888888888888888888888888888888888888888888888888888",
"8888888888888888888888888888888888888888888888888888888888888888",
"8888888888888888888888888888888888888888888888888888888888888888",
"8888888888888888888888888888888888888888888888888888888888888888",
"8888888888888888888888888888888888888888888888888888888888888888",
"8888888888888888888888888888888888888888888888888888888888888888",
"8888888888888888888888888888888888888888888888888888888888888888",
"8888888888888888888888888888888888888888888888888888888888888888",
"8888888888888888888888888888888888888888888888888888888888888888",
"8888888888888888888888888888888888888888888888888888888888888888",
"8888888888888888888888888888888888888888888888888888888888888888",
"8888888888888888888888888888888888888888888888888888888888888888",
"8888888888888888888888888888888888888888888888888888888888888888",
"8888888888888888888888888888888888888888888888888888888888888888",
"8888888888888888888888888888888888888888888888888888888888888888",
"8888888888888888888888888888888888888888888888888888888888888888",
"8888888888888888888888888888888888888888888888888888888888888888",
"8888888888888888888888888888888888888888888888888888888888888888",
"8888888888888888888888888888888888888888888888888888888888888888",
"8888888888888888888888888888888888888888888888888888888888888888",
"8888888888888888888888888888888888888888888888888888888888888888"
};
