/* XPM */
static const char *player_1_0[] = {
/* columns rows colors chars-per-pixel */
"64 64 222 2 ",
"   c #030201",
".  c #0A0503",
"X  c #0D0A06",
"o  c #0E0D0B",
"O  c #140503",
"+  c #110E0B",
"@  c #160A07",
"#  c #12110E",
"$  c #1E120B",
"%  c #1A1814",
"&  c #260901",
"*  c #2B0C02",
"=  c #250B07",
"-  c #340D01",
";  c #3A0E01",
":  c #2F1002",
">  c #2B100C",
",  c #341203",
"<  c #3C1302",
"1  c #3D1904",
"2  c #35140B",
"3  c #3E1909",
"4  c #3B1708",
"5  c #281A12",
"6  c #3A1411",
"7  c #3C1C15",
"8  c #28241D",
"9  c #3C2516",
"0  c #2A2721",
"q  c #2D2922",
"w  c #342E26",
"e  c #3A362D",
"r  c #411502",
"t  c #431C04",
"y  c #4B1D04",
"u  c #47160A",
"i  c #541B0C",
"p  c #561D0C",
"a  c #421D13",
"s  c #481A15",
"d  c #5B1E14",
"f  c #561E1A",
"g  c #462005",
"h  c #4C2305",
"j  c #46200A",
"k  c #4B240B",
"l  c #4E280E",
"z  c #512605",
"x  c #542905",
"c  c #592D06",
"v  c #552A0B",
"b  c #5A2E0A",
"n  c #5A270E",
"m  c #5E310B",
"M  c #492413",
"N  c #492A1B",
"B  c #4A2318",
"V  c #532C12",
"C  c #54211A",
"Z  c #522E1B",
"A  c #5B2814",
"S  c #5C351A",
"D  c #5A341B",
"F  c #61330B",
"G  c #63340D",
"H  c #66360E",
"J  c #62330D",
"K  c #69390F",
"L  c #67380F",
"P  c #682216",
"I  c #65251D",
"U  c #6C241A",
"Y  c #67261A",
"T  c #71261C",
"R  c #77291E",
"E  c #623411",
"W  c #643512",
"Q  c #673810",
"!  c #6A3911",
"~  c #6E3C12",
"^  c #6B3A11",
"/  c #623A1D",
"(  c #693719",
")  c #703E12",
"_  c #482B26",
"`  c #512E25",
"'  c #483627",
"]  c #583827",
"[  c #573A31",
"{  c #7F2D25",
"}  c #772C26",
"|  c #673D25",
" . c #7D3226",
".. c #682A21",
"X. c #754215",
"o. c #75401C",
"O. c #57422C",
"+. c #49443A",
"@. c #5D4131",
"#. c #574A39",
"$. c #694229",
"%. c #784827",
"&. c #6B4C34",
"*. c #754E37",
"=. c #7C5739",
"-. c #62503B",
";. c #544D41",
":. c #5A5346",
">. c #664B45",
",. c #635542",
"<. c #645949",
"1. c #795A46",
"2. c #675F50",
"3. c #744F4E",
"4. c #6B6354",
"5. c #716757",
"6. c #832D26",
"7. c #8B332A",
"8. c #8C3A2C",
"9. c #863427",
"0. c #9B3A2E",
"q. c #95382C",
"w. c #9C3630",
"e. c #9E3B31",
"r. c #A43D32",
"t. c #A83E33",
"y. c #83422E",
"u. c #8B542B",
"i. c #934235",
"p. c #845738",
"a. c #945A38",
"s. c #904D2D",
"d. c #A34132",
"f. c #AB4335",
"g. c #AF4836",
"h. c #B14737",
"j. c #B24837",
"k. c #B54A39",
"l. c #BA4E3B",
"z. c #B65A34",
"x. c #A95230",
"c. c #91643C",
"v. c #9F4E41",
"b. c #845F5C",
"n. c #B15D4C",
"m. c #A65240",
"M. c #8C6645",
"N. c #886049",
"B. c #986D46",
"V. c #9F744D",
"C. c #92775F",
"Z. c #A5774A",
"A. c #B5774B",
"S. c #BD6854",
"D. c #A37951",
"F. c #B47E51",
"G. c #8A646D",
"H. c #887A65",
"J. c #927C65",
"K. c #977968",
"L. c #917070",
"P. c #A27E69",
"I. c #B9895A",
"U. c #AE8153",
"Y. c #968A75",
"T. c #998B75",
"R. c #978A76",
"E. c #8D816C",
"W. c #A98464",
"Q. c #B28C69",
"!. c #BB9368",
"~. c #B99477",
"^. c #A88E74",
"/. c #C38253",
"(. c #CB9E70",
"). c #C8A57A",
"_. c #A99B84",
"`. c #B89F82",
"'. c #B38A99",
"]. c #B89697",
"[. c #BCA283",
"{. c #BAA68B",
"}. c #B4A389",
"|. c #BBA893",
" X c #CAA68A",
".X c #CAAD8A",
"XX c #C2A887",
"oX c #D2AD82",
"OX c #CDB08C",
"+X c #D2B38D",
"@X c #DEB686",
"#X c #C3B297",
"$X c #CCB799",
"%X c #D7B896",
"&X c #C3AF91",
"*X c #E2BB8B",
"=X c #C59AAE",
"-X c #C9A8AA",
";X c #DEBBBF",
":X c #CAB5A2",
">X c #E0BDBB",
",X c #E2C196",
"<X c #D6C5A7",
"1X c #DEC6A5",
"2X c #D9C8AA",
"3X c #E2CEAD",
"4X c #E7CCA5",
"5X c #E3D0AF",
"6X c #E9D3AF",
"7X c #E3CDB4",
"8X c #E7C8B9",
"9X c #E7D3B3",
"0X c #EAD6B4",
"qX c #EBD8B7",
"wX c #ECDAB9",
"eX c #E9D4BA",
"rX c #DCB1C6",
"tX c #E5BDCC",
"yX c #E9C8C7",
"uX c #F0D8C0",
"iX c #FF00FF",
"pX c black",
/* pixels */
"iXiXiXiXiXiXiXiXiXiXiXiXiXiXiXiXiXiXiXiXiXiXiXiXiXiXiXiXiXiXiXiXiXiXiXiXiXiXiXiXiXiXiXiXiXiXiXiXiXiXiXiXiXiXiXiXiXiXiXiXiXiXiXiX",
"iXiXiXiXiXiXiXiXiXiXiXiXiXiXiXiXiXiXiXiXiXiXiXiXiXiXiXiXiXiXiXiXiXiXiXiXiXiXiXiXiXiXiXiXiXiXiXiXiXiXiXiXiXiXiXiXiXiXiXiXiXiXiXiX",
"iXiXiXiXiXiXiXiXiXiXiXiXiXiXiXiXiXiXiXiXiXiXiXiXiXiXiXiXiXiXiXiXiXiXiXiXiXiXiXiXiXiXiXiXiXiXiXiXiXiXiXiXiXiXiXiXiXiXiXiXiXiXiXiX",
"iXiXiXiXiXiXiXiXiXiXiXiXiXiXiXiXiXiXiXiXiXiXiXiXiXiXiXiXiXiXiXiXiXiXiXiXiXiXiXiXiXiXiXiXiXiXiXiXiXiXiXiXiXiXiXiXiXiXiXiXiXiXiXiX",
"iXiXiXiXiXiXiXiXiXiXiXiXiXiXiXiXiXiXiXiXiXiXiXiXiXiXiXiXiXiXiXiXiXiXiXiXiXiXiXiXiXiXiXiXiXiXiXiXiXiXiXiXiXiXiXiXiXiXiXiXiXiXiXiX",
"iXiXiXiXiXiXiXiXiXiXiXiXiXiXiXiXiXiXiXiXiXiXiXiXiXiXiXiXiXiXiXiXiXiXiXiXiXiXiXiXiXiXiXiXiXiXiXiXiXiXiXiXiXiXiXiXiXiXiXiXiXiXiXiX",
"iXiXiXiXiXiXiXiXiXiXiXiXiXiXiXiXiXiXiXiXiXiXiXiXiXiXiXiXiXiXiXiXiXiXiXiXiXiXiXiXiXiXiXiXiXiXiXiXiXiXiXiXiXiXiXiXiXiXiXiXiXiXiXiX",
"iXiXiXiXiXiXiXiXiXiXiXiXiXiXiXiXiXiXiXiXiXiXiXiXiXiXiXiXiXiXiXiXiXiXiXiXiXiXiXiXiXiXiXiXiXiXiXiXiXiXiXiXiXiXiXiXiXiXiXiXiXiXiXiX",
"iXiXiXiXiXiXiXiXiXiXiXiXiXiXiXiXiXiXiXiXiXiXiXiXiXiXiXiXiXiXiXiXiXiXiXiXiXiXiXiXiXiXiXiXiXiXiXiXiXiXiXiXiXiXiXiXiXiXiXiXiXiXiXiX",
"iXiXiXiXiXiXiXiXiXiXiXiXiXiXiXiXiXiXiXiXiXiXiXiXiXiXiXiXiXiXiXiXiXiXiXiXiXiXiXiXiXiXiXiXiXiXiXiXiXiXiXiXiXiXiXiXiXiXiXiXiXiXiXiX",
"iXiXiXiXiXiXiXiXiXiXiXiXiXiXiXiXiXiXiXiXiXiXiXiXiXiXiXiXiXiXiXiXiXiXiXiXiXiXiXiXiXiXiXiXiXiXiXiXiXiXiXiXiXiXiXiXiXiXiXiXiXiXiXiX",
"iXiXiXiXiXiXiXiXiXiXiXiXiXiXiXiXiXiXiXiXiXiXiXiXiXiXiXiXiXiXiXiXiXiXiXiXiXiXiXiXiXiXiXiXiXiXiXiXiXiXiXiXiXiXiXiXiXiXiXiXiXiXiXiX",
"iXiXiXiXiXiXiXiXiXiXiXiXiXiXiXiXiXiXiXiXiXiXiXiXiXiXiXiXiXiXiXiXiXiXiXiXiXiXiXiXiXiXiXiXiXiXiXiXiXiXiXiXiXiXiXiXiXiXiXiXiXiXiXiX",
"iXiXiXiXiXiXiXiXiXiXiXiXiXiXiXiXiXiXiXiXiXiXiXiX* * * * * * iXiX* * * * * * iXiXiXiXiXiXiXiXiXiXiXiXiXiXiXiXiXiXiXiXiXiXiXiXiXiX",
"iXiXiXiXiXiXiXiXiXiXiXiXiXiXiXiXiXiXiXiXiXiX& , 1 t t t t t , , 1 t t t t t , * & iXiXiXiXiXiXiXiXiXiXiXiXiXiXiXiXiXiXiXiXiXiXiX",
"iXiXiXiXiXiXiXiXiXiXiXiXiXiXiXiXiXiXiXiXiX, 4 t z b b z h z h j h h h c b x h 1 , : iXiXiXiXiXiXiXiXiXiXiXiXiXiXiXiXiXiXiXiXiXiX",
"iXiXiXiXiXiXiXiXiXiXiXiXiXiXiXiXiXiXiX* < h m E m H Q h t x J E b g t m K F J E v 1 * iXiXiXiXiXiXiXiXiXiXiXiXiXiXiXiXiXiXiXiXiX",
"iXiXiXiXiXiXiXiXiXiXiXiXiXiXiXiXiXiXiX< h G ~ K m F Q b k h b J h j v E H m H ~ ^ c 1 , iXiXiXiXiXiXiXiXiXiXiXiXiXiXiXiXiXiXiXiX",
"iXiXiXiXiXiXiXiXiXiXiXiXiXiXiXiXiX* , h J X.^ m b b G W V t h h t k E H m b b H X.^ x 1 * iXiXiXiXiXiXiXiXiXiXiXiXiXiXiXiXiXiXiX",
"iXiXiXiXiXiXiXiXiXiXiXiXiXiXiXiX* , t x H X.^ b b G ^ v k g h x g g k E H b x G X.) b h 1 * iXiXiXiXiXiXiXiXiXiXiXiXiXiXiXiXiXiX",
"iXiXiXiXiXiXiXiXiXiXiXiXiXiXiXiX* 1 z c F ~ ^ G b G H h t z b b x h g m L m m K ~ H b x t , iXiXiXiXiXiXiXiXiXiXiXiXiXiXiXiXiXiX",
"iXiXiXiXiXiXiXiXiXiXiXiXiXiXiXiX* 1 x b b m ^ ~ F b b x x x b b b x x b b b K ~ J b b b g : iXiXiXiXiXiXiXiXiXiXiXiXiXiXiXiXiXiX",
"iXiXiXiXiXiXiXiXiXiXiXiXiXiXiXiX* 1 c H b h c G b c x b b b x b b b c x x b F m h v H F g : iXiXiXiXiXiXiXiXiXiXiXiXiXiXiXiXiXiX",
"iXiXiXiXiXiXiXiXiXiXiXiXiXiXiXiX* 1 b ^ b 4 1 h h z x h h x z h x z h x x h h t , k ^ G g : iXiXiXiXiXiXiXiXiXiXiXiXiXiXiXiXiXiX",
"iXiXiXiXiXiXiXiXiXiXiXiXiXiXiXiX* 1 x b k , - < 1 g h t t h g t h h t h h t < - * 1 b b g : iXiXiXiXiXiXiXiXiXiXiXiXiXiXiXiXiXiX",
"iXiXiXiXiXiXiXiXiXiXiXiXiXiXiXiX* 1 h h < - * 3 S D k S S k D / l V / V V / M - * , t h t * iXiXiXiXiXiXiXiXiXiXiXiXiXiXiXiXiXiX",
"iXiXiXiXiXiXiXiXiXiXiXiXiXiXiXiX, t h t 4 - 4 | V.M.&.B.B.&.M.V.*.p.D.=.=.D.=.M - , 1 h h , * iXiXiXiXiXiXiXiXiXiXiXiXiXiXiXiXiX",
"iXiXiXiXiXiXiXiXiXiXiXiXiXiXiX, t h b b k 3 | D.oX.X`.OXOX`..X+X[.XX+X[.[.+X!.p.j u b b x g , * iXiXiXiXiXiXiXiXiXiXiXiXiXiXiXiX",
"iXiXiXiXiXiXiXiXiXiXiXiXiXiX& , h m H m j a M.oX4XqXqX0X0X0X0X0X0X0X0XqXqX0X,XW.Z 3 b W G x 1 * iXiXiXiXiXiXiXiXiXiXiXiXiXiXiXiX",
"iXiXiXiXiXiXiXiXiXiXiXiXiXiX& , h H ^ V 4 9 C.1XqX9X3X9XwXwXwXqXwXwX0X3X3X0X9X[.] 2 k W ^ b 1 * iXiXiXiXiXiXiXiXiXiXiXiXiXiXiXiX",
"iXiXiXiXiXiXiXiXiXiXiXiXiXiX& , h c E %.S N J.7X0X XQ.OX0XqX0X0XqXwX1X~.~.1XwX{.@.Z %.( c z 1 * iXiXiXiXiXiXiXiXiXiXiXiXiXiXiXiX",
"iXiXiXiXiXiXiXiXiXiXiXiXiXiX& , h h m a.u.` J.7X9XW.*.~.9XwXqXqXwXwX$XN.N.$XwX{.@.$.c.o.h h 1 * iXiXiXiXiXiXiXiXiXiXiXiXiXiXiXiX",
"iXiXiXiXiXiXiXiXiXiXiXiXiXiX& , h z J u.%.Z J.5X3XH.' T.9XwXqXqXwXwX#X,.,.#XwX{.@.( s.o.x z 1 * iXiXiXiXiXiXiXiXiXiXiXiXiXiXiXiX",
"iXiXiXiXiXiXiXiXiXiXiXiXiXiX& , h c F ^ n M J.5X3XH.e Y.9XwXqXqXwXwX#X;.;.#XwX{.[ k ^ J b x 1 * iXiXiXiXiXiXiXiXiXiXiXiXiXiXiXiX",
"iXiXiXiXiXiXiXiXiXiXiXiXiXiX& , h x z y < 7 K.7X7XE.:.^.0XwXqXqXwXwX$X4.4.:XuX|.[ - t z x x 1 * iXiXiXiXiXiXiXiXiXiXiXiXiXiXiXiX",
"iXiXiXiXiXiXiXiXiXiXiXiXiXiX& , h h t t < 7 L.;XyX-X_.$X0XqXqXqXqXwX2X{.|.;XyX].[ , t t y h 1 * iXiXiXiXiXiXiXiXiXiXiXiXiXiXiXiX",
"iXiXiXiXiXiXiXiXiXiXiXiXiXiXiX, t r < r t j 3.'.rXyXeXqXqXqX0X0X0XqXqX0XyXtX=XG.` t t r < t < * iXiXiXiXiXiXiXiXiXiXiXiXiXiXiXiX",
"iXiXiXiXiXiXiXiXiXiXiXiXiXiXiXiX* - - ; t h M >.'.>X0X9X9XqXqXwXqX9X9X0X8X-XG.` k t < ; - - * iXiXiXiXiXiXiXiXiXiXiXiXiXiXiXiXiX",
"iXiXiXiXiXiXiXiXiXiXiXiXiXiXiXiX& * - ; r h < 7 >.^.oX@X,X6XwXwX0X4X*X@X~.b._ , g y ; - - * iXiXiXiXiXiXiXiXiXiXiXiXiXiXiXiXiXiX",
"iXiXiXiXiXiXiXiXiXiXiXiXiXiXiXiX& * - - r y < * 2 $.B.D.!.+X%X%X%X(.U.Z.p.B * - t t ; - * * iXiXiXiXiXiXiXiXiXiXiXiXiXiXiXiXiXiX",
"iXiXiXiXiXiXiXiXiXiXiXiXiXiXiXiXiX* * - < < < - - u V D %.A././.A.a./ Z M - - - < < ; - * iXiXiXiXiXiXiXiXiXiXiXiXiXiXiXiXiXiXiX",
"iXiXiXiXiXiXiXiXiXiXiXiXiXiXiXiXiXiX* < r ; < r ; u d Y 9.x.z.z.z.s.T A i ; < r < < r , * iXiXiXiXiXiXiXiXiXiXiXiXiXiXiXiXiXiXiX",
"iXiXiXiXiXiXiXiXiXiXiXiXiXiXiXiXiXiX* t t < t y r p { 0.f.k.l.l.l.j.d.7.P u t t < r t , & iXiXiXiXiXiXiXiXiXiXiXiXiXiXiXiXiXiXiX",
"iXiXiXiXiXiXiXiXiXiXiXiXiXiXiXiXiXiXiX, , ; < t y i P 7.g.l.l.l.l.k.0.R p y y r ; , , , iXiXiXiXiXiXiXiXiXiXiXiXiXiXiXiXiXiXiXiX",
"iXiXiXiXiXiXiXiXiXiXiXiXiXiXiXiXiXiXiXiX& * r i i i P 7.g.k.l.l.l.j.0.R p y p u * & & iXiXiXiXiXiXiXiXiXiXiXiXiXiXiXiXiXiXiXiXiX",
"iXiXiXiXiXiXiXiXiXiXiXiXiXiXiXiXiXiXiXiXO = d T i d 7.f.k.l.l.l.l.l.h.0.T i P U 2 O iXiXiXiXiXiXiXiXiXiXiXiXiXiXiXiXiXiXiXiXiXiX",
"iXiXiXiXiXiXiXiXiXiXiXiXiXiXiXiXiXiXiXiX> f { 6.i U d.l.l.l.l.l.l.l.l.h.6.i U 6.I 6 iXiXiXiXiXiXiXiXiXiXiXiXiXiXiXiXiXiXiXiXiXiX",
"iXiXiXiXiXiXiXiXiXiXiXiXiXiXiXiXiXiXiX. 6 { 7.T P 6.g.k.j.j.h.h.j.j.k.k.q.U Y { 7.C O iXiXiXiXiXiXiXiXiXiXiXiXiXiXiXiXiXiXiXiXiX",
"iXiXiXiXiXiXiXiXiXiXiXiXiXiXiXiXiXiXiX. a 8...s  .d.j.f.r.r.r.r.r.r.f.h.g.q.C C 8.I @ iXiXiXiXiXiXiXiXiXiXiXiXiXiXiXiXiXiXiXiXiX",
"iXiXiXiXiXiXiXiXiXiXiXiXiXiXiXiXiXiXiX. N s.] 7 8.g.r.r.f.f.f.f.f.f.f.r.f.d.C 9 s.| @ iXiXiXiXiXiXiXiXiXiXiXiXiXiXiXiXiXiXiXiXiX",
"iXiXiXiXiXiXiXiXiXiXiXiXiXiXiXiXiXiXiX8 &.Z.$.B 8.f.w.r.g.k.k.k.k.j.f.w.r.d.I Z B.p.w iXiXiXiXiXiXiXiXiXiXiXiXiXiXiXiXiXiXiXiXiX",
"iXiXiXiXiXiXiXiXiXiXiXiXiXiXiXiXiXiX8 5.^.I.a. .d.h.r.w.r.k.l.l.l.f.w.r.g.g.7.y.F.!.J.+.iXiXiXiXiXiXiXiXiXiXiXiXiXiXiXiXiXiXiXiX",
"iXiXiXiXiXiXiXiXiXiXiXiXiXiXiXiXiXiXq R.,X(.a. .e.k.j.r.r.j.l.l.k.f.e.f.k.f.9.y.I.*X&X;.o iXiXiXiXiXiXiXiXiXiXiXiXiXiXiXiXiXiXiX",
"iXiXiXiXiXiXiXiXiXiXiXiXiXiXiXiXiXiX0 E..XI.$.a 6.f.k.h.j.l.l.l.l.k.h.k.h.0.f N B.).}.;.o iXiXiXiXiXiXiXiXiXiXiXiXiXiXiXiXiXiXiX",
"iXiXiXiXiXiXiXiXiXiXiXiXiXiXiXiXiXiXiX#.,.O.5 > } r.f.k.l.l.l.l.l.l.k.g.t.7.s $ ' -.:.e iXiXiXiXiXiXiXiXiXiXiXiXiXiXiXiXiXiXiXiX",
"iXiXiXiXiXiXiXiXiXiXiXiXiXiXiXiXiXiXiX# + X . = I i.n.S.n.i.8.8.8.m.S.S.v.} 6 . X + # iXiXiXiXiXiXiXiXiXiXiXiXiXiXiXiXiXiXiXiXiX",
"iXiXiXiXiXiXiXiXiXiXiXiXiXiXiXiXiXiXiXiXiXiXiXiX5 1. X%XP._ > > 7 1. X%XK._ @ iXiXiXiXiXiXiXiXiXiXiXiXiXiXiXiXiXiXiXiXiXiXiXiXiX",
"iXiXiXiXiXiXiXiXiXiXiXiXiXiXiXiXiXiXiXiXiXiXiXiX# 4.<XqXT.0     # 4.<XqXY.q iXiXiXiXiXiXiXiXiXiXiXiXiXiXiXiXiXiXiXiXiXiXiXiXiXiX",
"iXiXiXiXiXiXiXiXiXiXiXiXiXiXiXiXiXiXiXiXiXiXiXiX# 2.<XqXY.0   iX# 2.<XqXY.0 iXiXiXiXiXiXiXiXiXiXiXiXiXiXiXiXiXiXiXiXiXiXiXiXiXiX",
"iXiXiXiXiXiXiXiXiXiXiXiXiXiXiXiXiXiXiXiXiXiXiXiX% 4.<X0XY.0 iXiX# 2.<XqXT.w iXiXiXiXiXiXiXiXiXiXiXiXiXiXiXiXiXiXiXiXiXiXiXiXiXiX",
"iXiXiXiXiXiXiXiXiXiXiXiXiXiXiXiXiXiXiXiXiXiXiXiX;.T.3X4XJ.8 iXiX+ ,.+X0X|.4.e iXiXiXiXiXiXiXiXiXiXiXiXiXiXiXiXiXiXiXiXiXiXiXiXiX",
"iXiXiXiXiXiXiXiXiXiXiXiXiXiXiXiXiXiXiXiXiXiXiXw H.|.$X).1.5 iXiX+ O.Q.+X$X_.;.# iXiXiXiXiXiXiXiXiXiXiXiXiXiXiXiXiXiXiXiXiXiXiXiX",
"iXiXiXiXiXiXiXiXiXiXiXiXiXiXiXiXiXiXiXiXiXiX  % +.2.<.#.9 X iXiXiX9 O.,.2.:.q . iXiXiXiXiXiXiXiXiXiXiXiXiXiXiXiXiXiXiXiXiXiXiXiX",
"iXiXiXiXiXiXiXiXiXiXiXiXiXiXiXiXiXiXiXiXiXiX    o o o X .   iXiXiXiXX o o o .   iXiXiXiXiXiXiXiXiXiXiXiXiXiXiXiXiXiXiXiXiXiXiXiX"
};
