/* XPM */
static const char *player_3_8[] = {
/* columns rows colors chars-per-pixel */
"64 64 178 2 ",
"   c #270901",
".  c #2B0B01",
"X  c #2A0F0B",
"o  c #340B00",
"O  c #390D00",
"+  c #2F1002",
"@  c #2A120D",
"#  c #341204",
"$  c #3C1402",
"%  c #3E1A03",
"&  c #3C1A09",
"*  c #3C1C12",
"=  c #3E231A",
"-  c #421502",
";  c #441B03",
":  c #491E03",
">  c #4B1409",
",  c #431D09",
"<  c #4C1E0C",
"1  c #5B1A10",
"2  c #551D11",
"3  c #621F14",
"4  c #462005",
"5  c #4D2304",
"6  c #4B230A",
"7  c #46210B",
"8  c #512604",
"9  c #562A05",
"0  c #592C06",
"q  c #51270B",
"w  c #532A0D",
"e  c #5B2E09",
"r  c #5E3109",
"t  c #472310",
"y  c #4A2413",
"u  c #44281C",
"i  c #532C12",
"p  c #5C2E11",
"a  c #5F3210",
"s  c #5D361A",
"d  c #63340C",
"f  c #68380F",
"g  c #632413",
"h  c #682416",
"j  c #6F2619",
"k  c #652518",
"l  c #633511",
"z  c #673812",
"x  c #6B3B12",
"c  c #643C1E",
"v  c #763B1C",
"b  c #472C20",
"n  c #4C2827",
"m  c #4C3125",
"M  c #553C2E",
"N  c #7E2A21",
"B  c #6A3B23",
"V  c #724115",
"C  c #774418",
"Z  c #7A4519",
"A  c #494238",
"S  c #504135",
"D  c #6E4526",
"F  c #794120",
"G  c #7D4F2A",
"H  c #654C3D",
"J  c #634533",
"K  c #744E3B",
"L  c #7D5333",
"P  c #6D5444",
"I  c #765945",
"U  c #6C6255",
"Y  c #7D6451",
"T  c #716151",
"R  c #8B3526",
"E  c #8E3129",
"W  c #853B23",
"Q  c #9B362F",
"!  c #9F3F2F",
"~  c #9F3A31",
"^  c #A43D32",
"/  c #88572D",
"(  c #97582E",
")  c #915427",
"_  c #A44133",
"`  c #AC4335",
"'  c #AF4835",
"]  c #A6483E",
"[  c #A9473B",
"{  c #B14637",
"}  c #B14936",
"|  c #B64B39",
" . c #BA4D3B",
".. c #AD553D",
"X. c #96683F",
"o. c #96683F",
"O. c #A56B38",
"+. c #875E4A",
"@. c #815C53",
"#. c #AC5540",
"$. c #BE5B46",
"%. c #B85544",
"&. c #8E6B4C",
"*. c #8E6C56",
"=. c #8B735E",
"-. c #9A7552",
";. c #BA6E4A",
":. c #B56645",
">. c #8A626D",
",. c #8B7A66",
"<. c #997177",
"1. c #C77F66",
"2. c #C17763",
"3. c #AB835A",
"4. c #BA8456",
"5. c #AE8968",
"6. c #AB8065",
"7. c #BD9366",
"8. c #AC947B",
"9. c #BC9575",
"0. c #CE945A",
"q. c #D29A5E",
"w. c #D0965C",
"e. c #D39D64",
"r. c #D08B7A",
"t. c #D3977C",
"y. c #D8A36A",
"u. c #D7AD7B",
"i. c #D8AD7B",
"p. c #DBB07E",
"a. c #B49E83",
"s. c #B5A187",
"d. c #BFA68B",
"f. c #B0A289",
"g. c #BEA99A",
"h. c #D59B80",
"j. c #D4A98B",
"k. c #DDB685",
"l. c #C3AE9E",
"z. c #C6B296",
"x. c #CBB495",
"c. c #CBB79A",
"v. c #CDBA9C",
"b. c #D4BB9A",
"n. c #D9BB92",
"m. c #E5B28D",
"M. c #E0BD90",
"N. c #EABA93",
"B. c #E1BE98",
"V. c #C599AF",
"C. c #C9A2A8",
"Z. c #CDBDA0",
"A. c #D0BEA0",
"S. c #DFB7B7",
"D. c #DBBABD",
"F. c #DAC19C",
"G. c #E3C69D",
"H. c #DDC4A4",
"J. c #E2C4A2",
"K. c #E4CDAC",
"L. c #E5C9AB",
"P. c #F4C7AF",
"I. c #E9D0A9",
"U. c #E9D1AC",
"Y. c #FACFB7",
"T. c #E9D4B3",
"R. c #ECDAB9",
"E. c #ECD9B9",
"W. c #EAD4B7",
"Q. c #F0DEBC",
"!. c #FBD2B9",
"~. c #E6BECB",
"^. c #E8C0CC",
"/. c #EED4C2",
"(. c #F4E9DB",
"). c #F5EBE0",
"_. c #FF00FF",
"`. c black",
/* pixels */
"_._._._._._._._._._._._._._._._._._._._._._._._._._._._._._._._._._._._._._._._._._._._._._._._._._._._._._._._._._._._._._._._.",
"_._._._._._._._._._._._._._._._._._._._._._._._._._._._._._._._._._._._._._._._._._._._._._._._._._._._._._._._._._._._._._._._.",
"_._._._._._._._._._._._._._._._._._._._._._._._._._._._._._._._._._._._._._._._._._._._._._._._._._._._._._._._._._._._._._._._.",
"_._._._._._._._._._._._._._._._._._._._._._._._._._._._._._._._._._._._._._._._._._._._._._._._._._._._._._._._._._._._._._._._.",
"_._._._._._._._._._._._._._._._._._._._._._._._._._._._._._._._._._._._._._._._._._._._._._._._._._._._._._._._._._._._._._._._.",
"_._._._._._._._._._._._._._._._._._._._._._._._._._._._._._._._._._._._._._._._._._._._._._._._._._._._._._._._._._._._._._._._.",
"_._._._._._._._._._._._._._._._._._._._._._._._._._._._._._._._._._._._._._._._._._._._._._._._._._._._._._._._._._._._._._._._.",
"_._._._._._._._._._._._._._._._._._._._._._._._._._._._._._._._._._._._._._._._._._._._._._._._._._._._._._._._._._._._._._._._.",
"_._._._._._._._._._._._._._._._._._._._._._._._._._._._._._._._._._._._._._._._._._._._._._._._._._._._._._._._._._._._._._._._.",
"_._._._._._._._._._._._._._._._._._._._._._._._._._._._._._._._._._._._._._._._._._._._._._._._._._._._._._._._._._._._._._._._.",
"_._._._._._._._._._._._._._._._._._._._._._._._._._._.. + + + + + + + + + # # . _._._._._._._._._._._._._._._._._._._._._._._._.",
"_._._._._._._._._._._._._._._._._._._._._._._._._._.# % : : 4 4 4 4 4 4 : : : ; # _._._._._._._._._._._._._._._._._._._._._._._.",
"_._._._._._._._._._._._._._._._._._._._._._._._._.& 7 q 9 0 r d 0 9 0 d e 5 5 8 7 & _._._._._._._._._._._._._._._._._._._._._._.",
"_._._._._._._._._._._._._._._._._._._._._._._._.# q z d 0 r x x d 0 r x a 7 4 e l q # _._._._._._._._._._._._._._._._._._._._._.",
"_._._._._._._._._._._._._._._._._._._._._._._.$ q x C f d x x f e 0 0 d l e 7 7 e 6 . _._._._._._._._._._._._._._._._._._._._._.",
"_._._._._._._._._._._._._._._._._._._._._._.$ 6 x Z V d f V x e 9 9 0 d l l 7 ; 5 5 # . _._._._._._._._._._._._._._._._._._._._.",
"_._._._._._._._._._._._._._._._._._._._._.# q x Z V d 0 f V x e 9 9 r f l 7 : 5 9 8 5 $ . _._._._._._._._._._._._._._._._._._._.",
"_._._._._._._._._._._._._._._._._._._._._.# p Z V d 0 9 r x x f e 9 e f r 4 5 9 0 9 9 q 7 _._._._._._._._._._._._._._._._._._._.",
"_._._._._._._._._._._._._._._._._._._._._.# e x f 0 0 e r r x x r 9 0 0 0 9 9 0 0 0 r z w # _._._._._._._._._._._._._._._._._._.",
"_._._._._._._._._._._._._._._._._._._._.# : e d 0 9 e f f r r d e 9 9 9 9 9 9 0 9 9 0 d 6 # _._._._._._._._._._._._._._._._._._.",
"_._._._._._._._._._._._._._._._._._._.  $ 5 0 0 9 9 e f f e 9 0 0 0 9 8 : : 8 8 5 5 8 5 & . _._._._._._._._._._._._._._._._._._.",
"_._._._._._._._._._._._._._._._._._._.  $ 5 0 0 9 9 0 e e 0 9 9 9 9 8 - $ , 5 5 , 4 5 % . _._._._._._._._._._._._._._._._._._._.",
"_._._._._._._._._._._._._._._._._._._.. # 5 0 0 9 9 9 9 9 9 0 0 9 8 - # y D s i D c , . _._._._._._._._._._._._._._._._._._._._.",
"_._._._._._._._._._._._._._._._._._._.. $ 8 0 9 8 8 9 9 9 0 r r 0 : $ y L 3.&.I 3.-.J u _._._._._._._._._._._._._._._._._._._._.",
"_._._._._._._._._._._._._._._._._._.. o - 8 0 8 ; : 9 0 0 e f x e - , L 7.n.c.x.F.b.8.H _._._._._._._._._._._._._._._._._._._._.",
"_._._._._._._._._._._._._._._._._._.. o - 8 0 8 - ; 9 0 r f x f 0 % t o.i.I.R.R.R.Q.c.P X _._._._._._._._._._._._._._._._._._._.",
"_._._._._._._._._._._._._._._._._._.. o - 8 0 5 - ; 9 0 r x V x e % t o.i.I.R.T.H.L.z.P X _._._._._._._._._._._._._._._._._._._.",
"_._._._._._._._._._._._._._._._._._.. o - 8 0 5 - ; 9 0 8 i G ( x % t o.u.I.E.b.6.9.d.P X _._._._._._._._._._._._._._._._._._._.",
"_._._._._._._._._._._._._._._._._._.. o - 8 0 5 - ; 9 0 ; , / O.V % t o.u.I.R.d.K *.a.P X _._._._._._._._._._._._._._._._._._._.",
"_._._._._._._._._._._._._._._._._._.. o - 8 0 8 - ; 8 9 ; & v ) x % t o.i.I.R.s.S T s.Y = _._._._._._._._._._._._._._._._._._._.",
"_._._._._._._._._._._._._._._._._._.. . $ 8 0 9 5 ; : 5 : $ < p 0 % t o.i.I.R.f.A U z.s.Y u _._._._._._._._._._._._._._._._._._.",
"_._._._._._._._._._._._._._._._._._._.. # 4 9 0 9 : - 5 5 $ # ; 5 - , L 9.L./.g.U ,.A.z.=.b _._._._._._._._._._._._._._._._._._.",
"_._._._._._._._._._._._._._._._._._._.  . $ 5 9 9 : - : : - - 5 8 : $ y @.C.^.D.l.Z.v.,.M _._._._._._._._._._._._._._._._._._._.",
"_._._._._._._._._._._._._._._._._._._.  . O : 9 9 : $ - ; : 8 9 9 8 - # n >.V.~./.Q.c.P @ _._._._._._._._._._._._._._._._._._._.",
"_._._._._._._._._._._._._._._._._._._.  . o ; 8 9 : O O ; 8 9 9 9 8 8 - # n <.S.E.K.a.H X _._._._._._._._._._._._._._._._._._._.",
"_._._._._._._._._._._._._._._._._._._._.. . # ; 8 : O o - 8 0 8 : 5 9 8 $ & +.j.J.a.I m _._._._._._._._._._._._._._._._._._._._.",
"_._._._._._._._._._._._._._._._._._._._._.. o $ 8 5 - O $ : 8 8 : ; 5 8 ; & G 4.5.P * _._._._._._._._._._._._._._._._._._._._._.",
"_._._._._._._._._._._._._._._._._._._._._.. . $ 5 9 5 - O $ : 8 8 : ; 5 : , F ( B * . _._._._._._._._._._._._._._._._._._._._._.",
"_._._._._._._._._._._._._._._._._._._._._._.. o - 5 8 - o O $ : 8 8 : - < k W v - . . _._._._._._._._._._._._._._._._._._._._._.",
"_._._._._._._._._._._._._._._._._._._._._._._.. o ; : - o o O - 8 0 5 $ 2 R _._.o . . _._._._._._._._._._._._._._._._._._._._._.",
"_._._._._._._._._._._._._._._._._._._._._._._._.o O $ O O O O $ 8 0 8 ; h ! _._.  . _._._._._._._._._._._._._._._._._._._._._._.",
"_._._._._._._._._._._._._._._._._._._._._._._._._.o o o > 1 > - 5 8 5 g R ' _._._._._._._._._._._._._._._._._._._._._._._._._._.",
"_._._._._._._._._._._._._._._._._._._._._._._._._.- > 1 E E 3 - : : g R '  ._._._._._._._._._._._._._._._._._._._._._._._._._._.",
"_._._._._._._._._._._._._._._._._._._._._._._._._._.N E ` _ j - - g R '  . ._._._._._._._._._._._._._._._._._._._._._._._._._._.",
"_._._._._._._._._._._._._._._._._._._._._._._._._.Q Q Q ` ' R h h R }  .| { ` _._._._._._._._._._._._._._._._._._._._._._._._._.",
"_._._._._._._._._._._._._._._._._._._._._._._._.] [ _ ~ ` | ' _ _ '  .| ' ^ ^ ^ _._._._._._._._._._._._._._._._._._._._._._._._.",
"_._._._._._._._._._._._._._._._._._._._._._._._.r.1.;...' |  . . . .| ^ ^ ` ' ' _._._._._._._._._._._._._._._._._._._._._._._._.",
"_._._._._._._._._._._._._._._._._._._._._._._._.P.m.e._._.{ |  . . .} ^ Q ^ } | _._._._._._._._._._._._._._._._._._._._._._._._.",
"_._._._._._._._._._._._._._._._._._._._._._._._.!.N.y._._.^ ' |  . . .{ ^ Q _ | _._._._._._._._._._._._._._._._._._._._._._._._.",
"_._._._._._._._._._._._._._._._._._._._._._._._.Y.N.y._._.Q ^ ' |  . . .' ^ ^ _._._._._._._._._._._._._._._._._._._._._._._._._.",
"_._._._._._._._._._._._._._._._._._._._._._._._.Y.N.y._._.Q ^ ` | | |  . .| | _._._._._._._._._._._._._._._._._._._._._._._._._.",
"_._._._._._._._._._._._._._._._._._._._._._._._._._._._._.~ ^ { | { ` }  . ._._._._._._._._._._._._._._._._._._._._._._._._._._.",
"_._._._._._._._._._._._._._._._._._._._._._._._._._._._._.Q ^ ` ' ` ` { | | _._._._._._._._._._._._._._._._._._._._._._._._._._.",
"_._._._._._._._._._._._._._._._._._._._._._._._._._._._._._ _ _ _ [ %.$.$.$._._._._._._._._._._._._._._._._._._._._._._._._._._.",
"_._._._._._._._._._._._._._._._._._._._._._._._._._._._._.;.;.:.#.2.t.h.h.h._._._._._._._._._._._._._._._._._._._._._._._._._._.",
"_._._._._._._._._._._._._._._._._._._._._._._._._._._._.w.0.0.0._._.K.T.T.T.T._._._._._._._._._._._._._._._._._._._._._._._._._.",
"_._._._._._._._._._._._._._._._._._._._._._._._._._._._.q.q.q.q._._._.W.W.E.E.W._._._._._._._._._._._._._._._._._._._._._._._._.",
"_._._._._._._._._._._._._._._._._._._._._._._._._._._.q.q.q.q._._._._.M.G.T.E.E._._._._._._._._._._._._._._._._._._._._._._._._.",
"_._._._._._._._._._._._._._._._._._._._._._._._._._._.q.q.q.q._._._._.e.k.K.E.E._._._._._._._._._._._._._._._._._._._._._._._._.",
"_._._._._._._._._._._._._._._._._._._._._._._._._._._.q.q.q._._._._._.e.p.L.E._._._._._._._._._._._._._._._._._._._._._._._._._.",
"_._._._._._._._._._._._._._._._._._._._._._._._._._._._.q.e.i._._._._.B.J.U._._._._._._._._._._._._._._._._._._._._._._._._._._.",
"_._._._._._._._._._._._._._._._._._._._._._._._._._._._._.e.k.U._._._.).(._._._._._._._._._._._._._._._._._._._._._._._._._._._.",
"_._._._._._._._._._._._._._._._._._._._._._._._._._._._._._._._._._._._._._._._._._._._._._._._._._._._._._._._._._._._._._._._.",
"_._._._._._._._._._._._._._._._._._._._._._._._._._._._._._._._._._._._._._._._._._._._._._._._._._._._._._._._._._._._._._._._."
};
