/* XPM */
static const char *player_2_6[] = {
/* columns rows colors chars-per-pixel */
"64 64 176 2 ",
"   c #260901",
".  c #2B0A01",
"X  c #2A0F0B",
"o  c #340B00",
"O  c #390D00",
"+  c #331203",
"@  c #3B1302",
"#  c #3E1903",
"$  c #3C1A09",
"%  c #35150D",
"&  c #400F04",
"*  c #421503",
"=  c #451B03",
"-  c #4A1D03",
";  c #4C140A",
":  c #441D0C",
">  c #561A0E",
",  c #591C0F",
"<  c #5E1C12",
"1  c #631E14",
"2  c #472005",
"3  c #4D2304",
"4  c #46220C",
"5  c #4B240B",
"6  c #522605",
"7  c #562A05",
"8  c #592C06",
"9  c #5A260E",
"0  c #552A0C",
"q  c #5B2E09",
"w  c #5E3009",
"e  c #472410",
"r  c #43241C",
"t  c #462A1F",
"y  c #552C14",
"u  c #592E10",
"i  c #5A2E19",
"p  c #5C3010",
"a  c #573218",
"s  c #63340C",
"d  c #69390F",
"f  c #68370F",
"g  c #692217",
"h  c #792A1E",
"j  c #70241A",
"k  c #633510",
"l  c #6C3B11",
"z  c #6B3615",
"x  c #703E14",
"c  c #723E1A",
"v  c #482922",
"b  c #4B3125",
"n  c #7E2D20",
"m  c #643D20",
"M  c #734116",
"N  c #744219",
"B  c #7A4519",
"V  c #4A4237",
"C  c #6D4425",
"Z  c #7C4E2B",
"A  c #71482A",
"S  c #7D512D",
"D  c #654A3B",
"F  c #6B4938",
"G  c #6D5443",
"H  c #755547",
"J  c #79535B",
"K  c #6C6252",
"L  c #7F7265",
"P  c #822E23",
"I  c #8C3427",
"U  c #8E3229",
"Y  c #813121",
"T  c #93342B",
"R  c #9B3B2E",
"E  c #97372D",
"W  c #9E3A30",
"Q  c #A33C32",
"!  c #844D26",
"~  c #9C422E",
"^  c #965228",
"/  c #845935",
"(  c #A34333",
")  c #AB4534",
"_  c #AC4B33",
"`  c #B64C39",
"'  c #BA4D3A",
"]  c #B24837",
"[  c #AD5E34",
"{  c #B45A35",
"}  c #BA543E",
"|  c #B15E3C",
" . c #B55838",
".. c #95683F",
"X. c #966639",
"o. c #AA6637",
"O. c #B36631",
"+. c #B7673C",
"@. c #BD753E",
"#. c #865B42",
"$. c #BB5441",
"%. c #BF5C47",
"&. c #8C6441",
"*. c #976A40",
"=. c #856C59",
"-. c #8A6C54",
";. c #9E775A",
":. c #B86C44",
">. c #BE7642",
",. c #B97A4D",
"<. c #A0795A",
"1. c #946C6D",
"2. c #C47F4A",
"3. c #C17D46",
"4. c #C7725B",
"5. c #968974",
"6. c #A88561",
"7. c #B18A6D",
"8. c #B79168",
"9. c #A38C74",
"0. c #AC967C",
"q. c #C88A4F",
"w. c #CB8D54",
"e. c #CE9459",
"r. c #D29A5E",
"t. c #C48960",
"y. c #CB9968",
"u. c #D29D64",
"i. c #CE8F71",
"p. c #D08D74",
"a. c #CE9871",
"s. c #D7A56E",
"d. c #D7A974",
"f. c #D6AB7C",
"g. c #D9AE7B",
"h. c #D8A872",
"j. c #DBB17E",
"k. c #B59E84",
"l. c #B3A38A",
"z. c #BCA389",
"x. c #BFA98E",
"c. c #B0A087",
"v. c #BA90A3",
"b. c #D1A480",
"n. c #DCB383",
"m. c #DCAE91",
"M. c #CAB699",
"N. c #CBB496",
"B. c #D4BC9D",
"V. c #D9BC9B",
"C. c #E0BC95",
"Z. c #C199A2",
"A. c #C4ADA1",
"S. c #D0BCA4",
"D. c #DDB5B1",
"F. c #DFC199",
"G. c #E2C196",
"H. c #E3C39C",
"J. c #DBC4A4",
"K. c #D8C7A8",
"L. c #E3C9A3",
"P. c #E5CCAB",
"I. c #EAD0AA",
"U. c #E2C1B0",
"Y. c #EAD4B3",
"T. c #EDDBBA",
"R. c #EBD9B9",
"E. c #EDD3BB",
"W. c #F1DEBC",
"Q. c #DFBCC2",
"!. c #E4BCCA",
"~. c #EDD1C5",
"^. c #F0D6C4",
"/. c #F5EADE",
"(. c #FF00FF",
"). c black",
/* pixels */
"(.(.(.(.(.(.(.(.(.(.(.(.(.(.(.(.(.(.(.(.(.(.(.(.(.(.(.(.(.(.(.(.(.(.(.(.(.(.(.(.(.(.(.(.(.(.(.(.(.(.(.(.(.(.(.(.(.(.(.(.(.(.(.(.",
"(.(.(.(.(.(.(.(.(.(.(.(.(.(.(.(.(.(.(.(.(.(.(.(.(.(.(.(.(.(.(.(.(.(.(.(.(.(.(.(.(.(.(.(.(.(.(.(.(.(.(.(.(.(.(.(.(.(.(.(.(.(.(.(.",
"(.(.(.(.(.(.(.(.(.(.(.(.(.(.(.(.(.(.(.(.(.(.(.(.(.(.(.(.(.(.(.(.(.(.(.(.(.(.(.(.(.(.(.(.(.(.(.(.(.(.(.(.(.(.(.(.(.(.(.(.(.(.(.(.",
"(.(.(.(.(.(.(.(.(.(.(.(.(.(.(.(.(.(.(.(.(.(.(.(.(.(.(.(.(.(.(.(.(.(.(.(.(.(.(.(.(.(.(.(.(.(.(.(.(.(.(.(.(.(.(.(.(.(.(.(.(.(.(.(.",
"(.(.(.(.(.(.(.(.(.(.(.(.(.(.(.(.(.(.(.(.(.(.(.(.(.(.(.(.(.(.(.(.(.(.(.(.(.(.(.(.(.(.(.(.(.(.(.(.(.(.(.(.(.(.(.(.(.(.(.(.(.(.(.(.",
"(.(.(.(.(.(.(.(.(.(.(.(.(.(.(.(.(.(.(.(.(.(.(.(.(.(.(.(.(.(.(.(.(.(.(.(.(.(.(.(.(.(.(.(.(.(.(.(.(.(.(.(.(.(.(.(.(.(.(.(.(.(.(.(.",
"(.(.(.(.(.(.(.(.(.(.(.(.(.(.(.(.(.(.(.(.(.(.(.(.(.(.(.(.(.(.(.(.(.(.(.(.(.(.(.(.(.(.(.(.(.(.(.(.(.(.(.(.(.(.(.(.(.(.(.(.(.(.(.(.",
"(.(.(.(.(.(.(.(.(.(.(.(.(.(.(.(.(.(.(.(.(.(.(.(.(.(.(.(.(.(.(.(.(.(.(.(.(.(.(.(.(.(.(.(.(.(.(.(.(.(.(.(.(.(.(.(.(.(.(.(.(.(.(.(.",
"(.(.(.(.(.(.(.(.(.(.(.(.(.(.(.(.(.(.(.(.(.(.(.(.(.(.(.(.(.(.(.(.(.(.(.(.(.(.(.(.(.(.(.(.(.(.(.(.(.(.(.(.(.(.(.(.(.(.(.(.(.(.(.(.",
"(.(.(.(.(.(.(.(.(.(.(.(.(.(.(.(.(.(.(.(.(.(.(.(.(.(.(.(.(.(.(.(.(.(.(.(.(.(.(.(.(.(.(.(.(.(.(.(.(.(.(.(.(.(.(.(.(.(.(.(.(.(.(.(.",
"(.(.(.(.(.(.(.(.(.(.(.(.(.(.(.(.(.(.(.(.(.(.(.(.(.(.(.(.(.(.(.(.(.(.(.(.(.(.(.(.(.(.(.(.(.(.(.(.(.(.(.(.(.(.(.(.(.(.(.(.(.(.(.(.",
"(.(.(.(.(.(.(.(.(.(.(.(.(.(.(.(.(.(.(.(.(.(.(.(.(.(.(.(.(.(.(.(.(.(.(.(.(.(.(.(.(.(.(.(.(.(.(.(.(.(.(.(.(.(.(.(.(.(.(.(.(.(.(.(.",
"(.(.(.(.(.(.(.(.(.(.(.(.(.(.(.(.(.(.(.(.(.(.(.(.(.(.(.(.(.(.(.(.(.(.(.(.(.(.(.(.(.(.(.(.(.(.(.(.(.(.(.(.(.(.(.(.(.(.(.(.(.(.(.(.",
"(.(.(.(.(.(.(.(.(.(.(.(.(.(.(.(.(.(.(.(.(.(.(.(.(.(.(.(.(.(.(.(.(.(.(.(.(.(.(.(.(.(.(.(.(.(.(.(.(.(.(.(.(.(.(.(.(.(.(.(.(.(.(.(.",
"(.(.(.(.(.(.(.(.(.(.(.(.(.(.(.(.(.(.(.(.(.(.(.(.(.                      (.(.(.(.(.(.(.(.(.(.(.(.(.(.(.(.(.(.(.(.(.(.(.(.(.(.(.(.",
"(.(.(.(.(.(.(.(.(.(.(.(.(.(.(.(.(.(.(.(.(.(.(.(.+ + + + + + + + + + + + + (.(.(.(.(.(.(.(.(.(.(.(.(.(.(.(.(.(.(.(.(.(.(.(.(.(.(.",
"(.(.(.(.(.(.(.(.(.(.(.(.(.(.(.(.(.(.(.(.(.(.(.+ = 3 3 3 3 3 3 3 3 3 3 3 = + (.(.(.(.(.(.(.(.(.(.(.(.(.(.(.(.(.(.(.(.(.(.(.(.(.(.",
"(.(.(.(.(.(.(.(.(.(.(.(.(.(.(.(.(.(.(.(.(.(.: 0 7 3 3 q s 8 7 w f s 8 7 7 5 $ (.(.(.(.(.(.(.(.(.(.(.(.(.(.(.(.(.(.(.(.(.(.(.(.(.",
"(.(.(.(.(.(.(.(.(.(.(.(.(.(.(.(.(.(.(.(.(.+ 0 k 8 = 4 k l w 7 w l l s 8 f l u $ (.(.(.(.(.(.(.(.(.(.(.(.(.(.(.(.(.(.(.(.(.(.(.(.",
"(.(.(.(.(.(.(.(.(.(.(.(.(.(.(.(.(.(.(.(.(.. 5 8 2 5 p k s 8 7 8 f l l s f B x u $ (.(.(.(.(.(.(.(.(.(.(.(.(.(.(.(.(.(.(.(.(.(.(.",
"(.(.(.(.(.(.(.(.(.(.(.(.(.(.(.(.(.(.(.(.. @ 3 3 = 5 p k s 8 7 7 8 l M f s l B N 0 $ (.(.(.(.(.(.(.(.(.(.(.(.(.(.(.(.(.(.(.(.(.(.",
"(.(.(.(.(.(.(.(.(.(.(.(.(.(.(.(.(.(.(.+ # 3 7 7 3 = 4 k l w 7 8 q l M f 8 s x B c 0 + (.(.(.(.(.(.(.(.(.(.(.(.(.(.(.(.(.(.(.(.(.",
"(.(.(.(.(.(.(.(.(.(.(.(.(.(.(.(.(.(.+ 5 0 8 8 8 7 3 3 8 s 8 7 w d l f w 7 8 s x B u + (.(.(.(.(.(.(.(.(.(.(.(.(.(.(.(.(.(.(.(.(.",
"(.(.(.(.(.(.(.(.(.(.(.(.(.(.(.(.(.(.+ 0 f w 8 8 8 7 7 8 8 7 7 w l d w w w 8 8 s l q @ . (.(.(.(.(.(.(.(.(.(.(.(.(.(.(.(.(.(.(.(.",
"(.(.(.(.(.(.(.(.(.(.(.(.(.(.(.(.(.(.+ 5 q 8 7 7 7 7 7 7 7 7 7 8 w q w d l q 7 8 w 8 3 + (.(.(.(.(.(.(.(.(.(.(.(.(.(.(.(.(.(.(.(.",
"(.(.(.(.(.(.(.(.(.(.(.(.(.(.(.(.(.(.. # 3 6 3 2 6 3 = = 3 7 8 7 7 7 q f f q 7 7 8 8 3 @   (.(.(.(.(.(.(.(.(.(.(.(.(.(.(.(.(.(.(.",
"(.(.(.(.(.(.(.(.(.(.(.(.(.(.(.(.(.(.(.. @ 2 5 5 3 5 : @ * 3 7 7 7 7 8 8 8 8 8 8 8 8 3 @   (.(.(.(.(.(.(.(.(.(.(.(.(.(.(.(.(.(.(.",
"(.(.(.(.(.(.(.(.(.(.(.(.(.(.(.(.(.(.(.(.. 4 C Z a m S i + * 3 7 8 8 7 7 7 7 7 7 8 8 3 @ . (.(.(.(.(.(.(.(.(.(.(.(.(.(.(.(.(.(.(.",
"(.(.(.(.(.(.(.(.(.(.(.(.(.(.(.(.(.(.(.(.b H 6.8.-.;.8.&.y @ = 8 s w 7 7 8 7 6 6 7 8 6 @ . (.(.(.(.(.(.(.(.(.(.(.(.(.(.(.(.(.(.(.",
"(.(.(.(.(.(.(.(.(.(.(.(.(.(.(.(.(.(.(.X D k.J.L.B.J.F.y./ : = q l l q 8 8 7 - = 6 8 6 * o . (.(.(.(.(.(.(.(.(.(.(.(.(.(.(.(.(.(.",
"(.(.(.(.(.(.(.(.(.(.(.(.(.(.(.(.(.(.(.X G M.W.T.T.T.I.g.*.e # 8 f l l s 8 7 = * 3 8 6 * o . (.(.(.(.(.(.(.(.(.(.(.(.(.(.(.(.(.(.",
"(.(.(.(.(.(.(.(.(.(.(.(.(.(.(.(.(.(.(.X G N.J.B.P.T.I.g...e # w M N l w 8 7 = * 3 8 6 * o . (.(.(.(.(.(.(.(.(.(.(.(.(.(.(.(.(.(.",
"(.(.(.(.(.(.(.(.(.(.(.(.(.(.(.(.(.(.(.X G z.7.;.N.R.I.g...e # l X.S 5 3 7 7 = * 3 8 6 * o . (.(.(.(.(.(.(.(.(.(.(.(.(.(.(.(.(.(.",
"(.(.(.(.(.(.(.(.(.(.(.(.(.(.(.(.(.(.(.X G k.-.F z.R.I.g...4 # M o.! $ = 7 7 = * 3 8 6 * o . (.(.(.(.(.(.(.(.(.(.(.(.(.(.(.(.(.(.",
"(.(.(.(.(.(.(.(.(.(.(.(.(.(.(.(.(.(.(.b =.l.K V c.T.I.g.*.e # f ! z @ = 7 7 = * 3 8 6 * o . (.(.(.(.(.(.(.(.(.(.(.(.(.(.(.(.(.(.",
"(.(.(.(.(.(.(.(.(.(.(.(.(.(.(.(.(.(.t =.x.M.K V c.T.I.f...4 # 7 0 : @ 3 8 7 = * 3 8 6 @ . (.(.(.(.(.(.(.(.(.(.(.(.(.(.(.(.(.(.(.",
"(.(.(.(.(.(.(.(.(.(.(.(.(.(.(.(.(.(.t =.x.S.5.L A.~.U.7.A : = 3 = @ @ 3 8 7 = * 3 6 = +   (.(.(.(.(.(.(.(.(.(.(.(.(.(.(.(.(.(.(.",
"(.(.(.(.(.(.(.(.(.(.(.(.(.(.(.(.(.(.(.b =.M.K.S.Q.!.Z.H : @ - 7 3 = * 3 7 6 = * 3 3 @ .   (.(.(.(.(.(.(.(.(.(.(.(.(.(.(.(.(.(.(.",
"(.(.(.(.(.(.(.(.(.(.(.(.(.(.(.(.(.(.(.X G M.W.^.!.v.J v @ = 6 7 7 6 3 6 6 = @ * 3 - O .   (.(.(.(.(.(.(.(.(.(.(.(.(.(.(.(.(.(.(.",
"(.(.(.(.(.(.(.(.(.(.(.(.(.(.(.(.(.(.(.(.D 0.K.E.D.1.r + = 6 6 6 7 7 7 7 3 @ o @ - = o . (.(.(.(.(.(.(.(.(.(.(.(.(.(.(.(.(.(.(.(.",
"(.(.(.(.(.(.(.(.(.(.(.(.(.(.(.(.(.(.(.(.r D 9.V.b.#.$ @ 6 6 - - 6 8 8 7 - @ O O @ o . . (.(.(.(.(.(.(.(.(.(.(.(.(.(.(.(.(.(.(.(.",
"(.(.(.(.(.(.(.(.(.(.(.(.(.(.(.(.(.(.(.(.(.% D <.,.Z $ + = - = - 7 8 7 3 * @ * * O o . (.(.(.(.(.(.(.(.(.(.(.(.(.(.(.(.(.(.(.(.(.",
"(.(.(.(.(.(.(.(.(.(.(.(.(.(.(.(.(.(.(.(.(.. % i ^ c + . o * - 6 6 6 3 * O O = = @ . . (.(.(.(.(.(.(.(.(.(.(.(.(.(.(.(.(.(.(.(.(.",
"(.(.(.(.(.(.(.(.(.(.(.(.(.(.(.(.(.(.(.(.(.. . * z 9 o o @ - 6 6 - * * O O O @ @ o . (.(.(.(.(.(.(.(.(.(.(.(.(.(.(.(.(.(.(.(.(.(.",
"(.(.(.(.(.(.(.(.(.(.(.(.(.(.(.(.(.(.(.(.(.. . o (.(.> * @ = 3 - > ; O o O O O o . (.(.(.(.(.(.(.(.(.(.(.(.(.(.(.(.(.(.(.(.(.(.(.",
"(.(.(.(.(.(.(.(.(.(.(.(.(.(.(.(.(.(.(.(.(.(..   (.(.n > @ * * , h g & o o o o o (.(.(.(.(.(.(.(.(.(.(.(.(.(.(.(.(.(.(.(.(.(.(.(.",
"(.(.(.(.(.(.(.(.(.(.(.(.(.(.(.(.(.(.(.(.(.(.(.(.(.(.U < ; 1 j P R h * o o o o (.(.(.(.(.(.(.(.(.(.(.(.(.(.(.(.(.(.(.(.(.(.(.(.(.",
"(.(.(.(.(.(.(.(.(.(.(.(.(.(.(.(.(.(.(.(.(.(.(.(.(.(.U < , P E Q ) n * * * * 9 (.(.(.(.(.(.(.(.(.(.(.(.(.(.(.(.(.(.(.(.(.(.(.(.(.",
"(.(.(.(.(.(.(.(.(.(.(.(.(.(.(.(.(.(.(.(.(.(.(.(.(.(.R g 1 U Q Q ) Y > g h (.^ O.(.(.(.(.(.(.(.(.(.(.(.(.(.(.(.(.(.(.(.(.(.(.(.(.",
"(.(.(.(.(.(.(.(.(.(.(.(.(.(.(.(.(.(.(.(.(.(.(.(.(.] ) I P T W Q Q T P E Q (.O.O.(.(.(.(.(.(.(.(.(.(.(.(.(.(.(.(.(.(.(.(.(.(.(.(.",
"(.(.(.(.(.(.(.(.(.(.(.(.(.(.(.(.(.(.(.(.(.(.(.(.Q ) ) _ ) ( ( ( ( ) ) ` ' (.O.O.(.(.(.(.(.(.(.(.(.(.(.(.(.(.(.(.(.(.(.(.(.(.(.(.",
"(.(.(.(.(.(.(.(.(.(.(.(.(.(.(.(.(.(.(.(.(.(.(.(.) Q W _ { { :.:.|  .' ' ' (.O.O.(.(.(.(.(.(.(.(.(.(.(.(.(.(.(.(.(.(.(.(.(.(.(.(.",
"(.(.(.(.(.(.(.(.(.(.(.(.(.(.(.(.(.(.(.(.(.(.(.(.Q R ~ o.@.3.y.y.>.{ ' ' ' (.(.(.(.(.(.(.(.(.(.(.(.(.(.(.(.(.(.(.(.(.(.(.(.(.(.(.",
"(.(.(.(.(.(.(.(.(.(.(.(.(.(.(.(.(.(.(.(.(.(.(.(.T ~ [ 3.e.u.n.f.,.{ ' ' ' (.(.(.(.(.(.(.(.(.(.(.(.(.(.(.(.(.(.(.(.(.(.(.(.(.(.(.",
"(.(.(.(.(.(.(.(.(.(.(.(.(.(.(.(.(.(.(.(.(.(.(.(.Q _ +.q.s.n.f.t.| _ ` ' ' (.(.(.(.(.(.(.(.(.(.(.(.(.(.(.(.(.(.(.(.(.(.(.(.(.(.(.",
"(.(.(.(.(.(.(.(.(.(.(.(.(.(.(.(.(.(.(.(.(.(.(.(.`  .>.w.j.H.a.+.) ) ` ' (.(.(.(.(.(.(.(.(.(.(.(.(.(.(.(.(.(.(.(.(.(.(.(.(.(.(.(.",
"(.(.(.(.(.(.(.(.(.(.(.(.(.(.(.(.(.(.(.(.(.(.(.(.(.2.w.e.j.H.i.} ] ` $.%.(.(.(.(.(.(.(.(.(.(.(.(.(.(.(.(.(.(.(.(.(.(.(.(.(.(.(.(.",
"(.(.(.(.(.(.(.(.(.(.(.(.(.(.(.(.(.(.(.(.(.(.(.(.(.(.r.r.d.C.p.$.} 4.p.m.(.(.(.(.(.(.(.(.(.(.(.(.(.(.(.(.(.(.(.(.(.(.(.(.(.(.(.(.",
"(.(.(.(.(.(.(.(.(.(.(.(.(.(.(.(.(.(.(.(.(.(.(.(.(.r.r.r.u.(.(.(.(.(.P.Y.G.s.(.(.(.(.(.(.(.(.(.(.(.(.(.(.(.(.(.(.(.(.(.(.(.(.(.(.",
"(.(.(.(.(.(.(.(.(.(.(.(.(.(.(.(.(.(.(.(.(.(.(.L.d.r.r.r.(.(.(.(.(.(.(.Y.G.s.(.(.(.(.(.(.(.(.(.(.(.(.(.(.(.(.(.(.(.(.(.(.(.(.(.(.",
"(.(.(.(.(.(.(.(.(.(.(.(.(.(.(.(.(.(.(.(.(.(.(.H.d.r.r.(.(.(.(.(.(.(.(.(.P.H.(.(.(.(.(.(.(.(.(.(.(.(.(.(.(.(.(.(.(.(.(.(.(.(.(.(.",
"(.(.(.(.(.(.(.(.(.(.(.(.(.(.(.(.(.(.(.(.(.(.(.(.(.(.(.(.(.(.(.(.(.(.(.(.(./.(.(.(.(.(.(.(.(.(.(.(.(.(.(.(.(.(.(.(.(.(.(.(.(.(.(.",
"(.(.(.(.(.(.(.(.(.(.(.(.(.(.(.(.(.(.(.(.(.(.(.(.(.(.(.(.(.(.(.(.(.(.(.(.(.(.(.(.(.(.(.(.(.(.(.(.(.(.(.(.(.(.(.(.(.(.(.(.(.(.(.(.",
"(.(.(.(.(.(.(.(.(.(.(.(.(.(.(.(.(.(.(.(.(.(.(.(.(.(.(.(.(.(.(.(.(.(.(.(.(.(.(.(.(.(.(.(.(.(.(.(.(.(.(.(.(.(.(.(.(.(.(.(.(.(.(.(."
};
