/* XPM */
static const char *player_3_3[] = {
/* columns rows colors chars-per-pixel */
"64 64 179 2 ",
"   c #270A01",
".  c #2B0A01",
"X  c #220602",
"o  c #340C00",
"O  c #3A0E01",
"+  c #2F1002",
"@  c #341303",
"#  c #3A1403",
"$  c #3C1805",
"%  c #3D150B",
"&  c #38180B",
"*  c #34110B",
"=  c #3A1E15",
"-  c #3D2117",
";  c #3D2219",
":  c #411502",
">  c #441B03",
",  c #4A1E03",
"<  c #4B1608",
"1  c #421C09",
"2  c #481C0B",
"3  c #471607",
"4  c #52170D",
"5  c #53190B",
"6  c #5B1E0F",
"7  c #462004",
"8  c #4D2304",
"9  c #47210D",
"0  c #4E260B",
"q  c #4E280F",
"w  c #512505",
"e  c #562A05",
"r  c #592C06",
"t  c #51260B",
"y  c #52290C",
"u  c #5A2E0A",
"i  c #5E300A",
"p  c #4A2412",
"a  c #4F2910",
"s  c #43271C",
"d  c #522B16",
"f  c #5E3214",
"g  c #5C351D",
"h  c #63340C",
"j  c #69390F",
"k  c #642115",
"l  c #662F18",
"z  c #652319",
"x  c #78271E",
"c  c #7A291F",
"v  c #75271F",
"b  c #653711",
"n  c #6C3C13",
"m  c #6F3719",
"M  c #6D3F19",
"N  c #723F14",
"B  c #512D24",
"V  c #4E3327",
"C  c #573234",
"Z  c #7E2C20",
"A  c #643C22",
"S  c #734115",
"D  c #7B451A",
"F  c #494036",
"G  c #4F493E",
"H  c #5A4032",
"J  c #6D4325",
"K  c #724829",
"L  c #784F2E",
"P  c #7A4B20",
"I  c #644738",
"U  c #634A3B",
"Y  c #684E3E",
"T  c #7E5534",
"R  c #72503C",
"E  c #6A4441",
"W  c #6A5848",
"Q  c #79604E",
"!  c #6E6456",
"~  c #7D6250",
"^  c #852D24",
"/  c #8C3227",
"(  c #8A3427",
")  c #9C372F",
"_  c #9F3D2F",
"`  c #97392D",
"'  c #9E3931",
"]  c #A33D32",
"[  c #904E26",
"{  c #885324",
"}  c #875D38",
"|  c #A74133",
" . c #AB4235",
".. c #B14737",
"X. c #B24837",
"o. c #B04738",
"O. c #B54A39",
"+. c #B94D3B",
"@. c #AB513D",
"#. c #BC553D",
"$. c #9E6637",
"%. c #A16739",
"&. c #B25B4B",
"*. c #BA5744",
"=. c #B55E52",
"-. c #8E6548",
";. c #96684F",
":. c #8D755F",
">. c #94785D",
",. c #A3724C",
"<. c #BB6755",
"1. c #927B65",
"2. c #987C61",
"3. c #956D7B",
"4. c #977176",
"5. c #A57C62",
"6. c #C1644F",
"7. c #C16652",
"8. c #B98B5C",
"9. c #9C866F",
"0. c #908371",
"q. c #B78761",
"w. c #B79066",
"e. c #BE9061",
"r. c #B2916E",
"t. c #A79077",
"y. c #A7977F",
"u. c #AC957C",
"i. c #B89671",
"p. c #C9885B",
"a. c #C59664",
"s. c #C79865",
"d. c #D59A65",
"f. c #C79878",
"g. c #D6997A",
"h. c #D6A26B",
"j. c #D8A26A",
"k. c #DAB07E",
"l. c #A18E83",
"z. c #B49E83",
"x. c #AFA188",
"c. c #BFA286",
"v. c #C49A93",
"b. c #CDAC8D",
"n. c #DFBC8F",
"m. c #DAB48F",
"M. c #CBA896",
"N. c #D9AD91",
"B. c #C5B396",
"V. c #D8B896",
"C. c #E2A995",
"Z. c #EABA93",
"A. c #D3BFA1",
"S. c #D3AABB",
"D. c #E2C196",
"F. c #E5C69A",
"G. c #E5C59A",
"H. c #D4C2A5",
"J. c #DEC7A8",
"K. c #DECAAB",
"L. c #DEC1BA",
"P. c #E4CDAC",
"I. c #E5C6A5",
"U. c #ECCCB7",
"Y. c #FACFB7",
"T. c #EAD5B4",
"R. c #EBD8B7",
"E. c #EDDAB9",
"W. c #EDDBB9",
"Q. c #E6D2B1",
"!. c #F8D0B7",
"~. c #F1DBBD",
"^. c #FBD0B8",
"/. c #E3BBCA",
"(. c #EFCFC8",
"). c #EDCDC6",
"_. c #F8F1EB",
"`. c #FF00FF",
"'. c black",
/* pixels */
"`.`.`.`.`.`.`.`.`.`.`.`.`.`.`.`.`.`.`.`.`.`.`.`.`.`.`.`.`.`.`.`.`.`.`.`.`.`.`.`.`.`.`.`.`.`.`.`.`.`.`.`.`.`.`.`.`.`.`.`.`.`.`.`.",
"`.`.`.`.`.`.`.`.`.`.`.`.`.`.`.`.`.`.`.`.`.`.`.`.`.`.`.`.`.`.`.`.`.`.`.`.`.`.`.`.`.`.`.`.`.`.`.`.`.`.`.`.`.`.`.`.`.`.`.`.`.`.`.`.",
"`.`.`.`.`.`.`.`.`.`.`.`.`.`.`.`.`.`.`.`.`.`.`.`.`.`.`.`.`.`.`.`.`.`.`.`.`.`.`.`.`.`.`.`.`.`.`.`.`.`.`.`.`.`.`.`.`.`.`.`.`.`.`.`.",
"`.`.`.`.`.`.`.`.`.`.`.`.`.`.`.`.`.`.`.`.`.`.`.`.`.`.`.`.`.`.`.`.`.`.`.`.`.`.`.`.`.`.`.`.`.`.`.`.`.`.`.`.`.`.`.`.`.`.`.`.`.`.`.`.",
"`.`.`.`.`.`.`.`.`.`.`.`.`.`.`.`.`.`.`.`.`.`.`.`.`.`.`.`.`.`.`.`.`.`.`.`.`.`.`.`.`.`.`.`.`.`.`.`.`.`.`.`.`.`.`.`.`.`.`.`.`.`.`.`.",
"`.`.`.`.`.`.`.`.`.`.`.`.`.`.`.`.`.`.`.`.`.`.`.`.`.`.`.`.`.`.`.`.`.`.`.`.`.`.`.`.`.`.`.`.`.`.`.`.`.`.`.`.`.`.`.`.`.`.`.`.`.`.`.`.",
"`.`.`.`.`.`.`.`.`.`.`.`.`.`.`.`.`.`.`.`.`.`.`.`.`.`.`.`.`.`.`.`.`.`.`.`.`.`.`.`.`.`.`.`.`.`.`.`.`.`.`.`.`.`.`.`.`.`.`.`.`.`.`.`.",
"`.`.`.`.`.`.`.`.`.`.`.`.`.`.`.`.`.`.`.`.`.`.`.`.`.`.`.`.`.`.`.`.`.`.`.`.`.`.`.`.`.`.`.`.`.`.`.`.`.`.`.`.`.`.`.`.`.`.`.`.`.`.`.`.",
"`.`.`.`.`.`.`.`.`.`.`.`.`.`.`.`.`.`.`.`.`.`.`.`.`.`.`.`.`.`.`.`.`.`.`.`.`.`.`.`.`.`.`.`.`.`.`.`.`.`.`.`.`.`.`.`.`.`.`.`.`.`.`.`.",
"`.`.`.`.`.`.`.`.`.`.`.`.`.`.`.`.`.`.`.`.`.`.`.`.`.`.`.`.`.`.`.`.`.`.`.`.`.`.`.`.`.`.`.`.`.`.`.`.`.`.`.`.`.`.`.`.`.`.`.`.`.`.`.`.",
"`.`.`.`.`.`.`.`.`.`.`.`.`.`.`.`.`.`.`.`.`.`.`.`.`.`.`.`.`.`.`.`.`.`.`.`.`.`.`.`.`.`.`.`.`.`.`.`.`.`.`.`.`.`.`.`.`.`.`.`.`.`.`.`.",
"`.`.`.`.`.`.`.`.`.`.`.`.`.`.`.`.`.`.`.`.`.`.`.`.`.`.                        `.`.`.`.`.`.`.`.`.`.`.`.`.`.`.`.`.`.`.`.`.`.`.`.`.`.",
"`.`.`.`.`.`.`.`.`.`.`.`.`.`.`.`.`.`.`.`.`.`.`.`.`.@ @ # # @ @ # # @ @ # # @ @ `.`.`.`.`.`.`.`.`.`.`.`.`.`.`.`.`.`.`.`.`.`.`.`.`.",
"`.`.`.`.`.`.`.`.`.`.`.`.`.`.`.`.`.`.`.`.`.`.`.`.@ > 8 8 w w w w w w w 8 8 8 > @ `.`.`.`.`.`.`.`.`.`.`.`.`.`.`.`.`.`.`.`.`.`.`.`.",
"`.`.`.`.`.`.`.`.`.`.`.`.`.`.`.`.`.`.`.`.`.`.`.& y u r r h j h r r h h 0 7 e u y & `.`.`.`.`.`.`.`.`.`.`.`.`.`.`.`.`.`.`.`.`.`.`.",
"`.`.`.`.`.`.`.`.`.`.`.`.`.`.`.`.`.`.`.`.`.`.& q n n i i j n h r r h n y 2 8 h i $   `.`.`.`.`.`.`.`.`.`.`.`.`.`.`.`.`.`.`.`.`.`.",
"`.`.`.`.`.`.`.`.`.`.`.`.`.`.`.`.`.`.`.`.`.@ y M D n h n n h u e r i h b y > 8 t &   `.`.`.`.`.`.`.`.`.`.`.`.`.`.`.`.`.`.`.`.`.`.",
"`.`.`.`.`.`.`.`.`.`.`.`.`.`.`.`.`.`.`.`.$ y n D S h h N N i e e r h h f q > 8 8 > @ `.`.`.`.`.`.`.`.`.`.`.`.`.`.`.`.`.`.`.`.`.`.",
"`.`.`.`.`.`.`.`.`.`.`.`.`.`.`.`.`.`.`.  2 n D S h r i n N h r e r h n q > 8 e e w 7 & `.`.`.`.`.`.`.`.`.`.`.`.`.`.`.`.`.`.`.`.`.",
"`.`.`.`.`.`.`.`.`.`.`.`.`.`.`.`.`.`.`.  9 M S h r e r h n n h r r i h t 8 e r r r i u 1 `.`.`.`.`.`.`.`.`.`.`.`.`.`.`.`.`.`.`.`.",
"`.`.`.`.`.`.`.`.`.`.`.`.`.`.`.`.`.`.`.@ 0 b h r r i h i h n h r e r r r r r r r r h h 1   `.`.`.`.`.`.`.`.`.`.`.`.`.`.`.`.`.`.`.",
"`.`.`.`.`.`.`.`.`.`.`.`.`.`.`.`.`.`.+ > e u r e r h n h r u r r e e e w e e e w e r t &   `.`.`.`.`.`.`.`.`.`.`.`.`.`.`.`.`.`.`.",
"`.`.`.`.`.`.`.`.`.`.`.`.`.`.`.`.`.`.@ 7 e r e e r h h i r e e r e w > $ 1 w 8 1 8 8 $ @ `.`.`.`.`.`.`.`.`.`.`.`.`.`.`.`.`.`.`.`.",
"`.`.`.`.`.`.`.`.`.`.`.`.`.`.`.`.`.`.+ 7 e r r r r r r r e e e e w : # 9 q 8 q a 8 $ . `.`.`.`.`.`.`.`.`.`.`.`.`.`.`.`.`.`.`.`.`.",
"`.`.`.`.`.`.`.`.`.`.`.`.`.`.`.`.`.`.@ 7 e r e e e e e e r r r w : @ p T T g L } g & `.`.`.`.`.`.`.`.`.`.`.`.`.`.`.`.`.`.`.`.`.`.",
"`.`.`.`.`.`.`.`.`.`.`.`.`.`.`.`.`.  @ 8 e e 8 8 e r e e i h h 8 $ p T w.i.2.r.f.>.U `.`.`.`.`.`.`.`.`.`.`.`.`.`.`.`.`.`.`.`.`.`.",
"`.`.`.`.`.`.`.`.`.`.`.`.`.`.`.`.  . # 8 r e , : w r r i h n h 8 $ J 8.n.P.K.P.Q.A.:.- `.`.`.`.`.`.`.`.`.`.`.`.`.`.`.`.`.`.`.`.`.",
"`.`.`.`.`.`.`.`.`.`.`.`.`.`.`.`.  . # 8 r e > : 8 r u j n j i 8 $ K s.F.E.E.E.E.P.1.- `.`.`.`.`.`.`.`.`.`.`.`.`.`.`.`.`.`.`.`.`.",
"`.`.`.`.`.`.`.`.`.`.`.`.`.`.`.`.  . O 8 r e > : 8 r r i M P M 8 $ K a.F.R.Q.V.b.V.1.- `.`.`.`.`.`.`.`.`.`.`.`.`.`.`.`.`.`.`.`.`.",
"`.`.`.`.`.`.`.`.`.`.`.`.`.`.`.`.  . # , r e > : 8 r w 1 A $.{ 8 & K a.F.E.J.5.;.c.1.; `.`.`.`.`.`.`.`.`.`.`.`.`.`.`.`.`.`.`.`.`.",
"`.`.`.`.`.`.`.`.`.`.`.`.`.`.`.`.  . # 8 r e > : w r 8 & g %.{ w & K a.F.E.H.~ I u.1.; `.`.`.`.`.`.`.`.`.`.`.`.`.`.`.`.`.`.`.`.`.",
"`.`.`.`.`.`.`.`.`.`.`.`.`.`.`.`.  . # 8 r e , > 8 e 8 $ t D N 8 $ K a.F.W.H.W F y.u.Y s `.`.`.`.`.`.`.`.`.`.`.`.`.`.`.`.`.`.`.`.",
"`.`.`.`.`.`.`.`.`.`.`.`.`.`.`.`.`.  o 1 e e w 8 > , 8 : # 2 t 8 $ J e.G.~.H.! G x.A.t.U `.`.`.`.`.`.`.`.`.`.`.`.`.`.`.`.`.`.`.`.",
"`.`.`.`.`.`.`.`.`.`.`.`.`.`.`.`.`.`.. $ 8 e r w : > w : # $ 8 8 $ d -.M.).L.l.0.B.B.1.H `.`.`.`.`.`.`.`.`.`.`.`.`.`.`.`.`.`.`.`.",
"`.`.`.`.`.`.`.`.`.`.`.`.`.`.`.`.`.`.  o > e r w : : , > > 8 e w : @ B 4.S./.L.K.K.9.V `.`.`.`.`.`.`.`.`.`.`.`.`.`.`.`.`.`.`.`.`.",
"`.`.`.`.`.`.`.`.`.`.`.`.`.`.`.`.`.`.  o : w r w : # : , w e r e 8 $ % C 3.S.(.~.K.1.= `.`.`.`.`.`.`.`.`.`.`.`.`.`.`.`.`.`.`.`.`.",
"`.`.`.`.`.`.`.`.`.`.`.`.`.`.`.`.`.`.  . # , w 8 # o # 8 r e w w e 8 $ * E v.U.K.z.Q = `.`.`.`.`.`.`.`.`.`.`.`.`.`.`.`.`.`.`.`.`.",
"`.`.`.`.`.`.`.`.`.`.`.`.`.`.`.`.`.`.`.  o # 8 8 : O # , e e , > 8 e 8 @ A q.m.z.W s `.`.`.`.`.`.`.`.`.`.`.`.`.`.`.`.`.`.`.`.`.`.",
"`.`.`.`.`.`.`.`.`.`.`.`.`.`.`.`.`.`.`.    o , w 8 : O : 8 w 8 , > 8 8 $ f %.,.R = X `.`.`.`.`.`.`.`.`.`.`.`.`.`.`.`.`.`.`.`.`.`.",
"`.`.`.`.`.`.`.`.`.`.`.`.`.`.`.`.`.`.`.`.  o : w e , O o : 8 e w > > , 2 l [ m %     `.`.`.`.`.`.`.`.`.`.`.`.`.`.`.`.`.`.`.`.`.`.",
"`.`.`.`.`.`.`.`.`.`.`.`.`.`.`.`.`.`.`.`.`.. o > 8 , O O O : 8 e 8 : 1 z ( `.3 o     `.`.`.`.`.`.`.`.`.`.`.`.`.`.`.`.`.`.`.`.`.`.",
"`.`.`.`.`.`.`.`.`.`.`.`.`.`.`.`.`.`.`.`.`.  o # : : : 4 4 : : 8 w > 3 v ' `.. .   `.`.`.`.`.`.`.`.`.`.`.`.`.`.`.`.`.`.`.`.`.`.`.",
"`.`.`.`.`.`.`.`.`.`.`.`.`.`.`.`.`.`.`.`.`.`.o O O o < c c 4 O : 8 > < x ' `.`.  `.`.`.`.`.`.`.`.`.`.`.`.`.`.`.`.`.`.`.`.`.`.`.`.",
"`.`.`.`.`.`.`.`.`.`.`.`.`.`.`.`.`.`.`.`.`.`.`.`.o o k _ _ Z 4 : 8 , < c ) `.`.`.`.`.`.`.`.`.`.`.`.`.`.`.`.`.`.`.`.`.`.`.`.`.`.`.",
"`.`.`.`.`.`.`.`.`.`.`.`.`.`.`.`.`.`.`.`.`.`.`.`.`.4 ` O.O.] c 6 , 5 k / ] `.`.`.`.`.`.`.`.`.`.`.`.`.`.`.`.`.`.`.`.`.`.`.`.`.`.`.",
"`.`.`.`.`.`.`.`.`.`.`.`.`.`.`.`.`.`.`.`.`.`.`.`.`.^ ] ..+.X.] Z 6 k / | ..`.`.`.`.`.`.`.`.`.`.`.`.`.`.`.`.`.`.`.`.`.`.`.`.`.`.`.",
"`.`.`.`.`.`.`.`.`.`.`.`.`.`.`.`.`.`.`.`.`.`.`.`.`.) '  .+.+.O.' ^ / |  .] ] `.`.`.`.`.`.`.`.`.`.`.`.`.`.`.`.`.`.`.`.`.`.`.`.`.`.",
"`.`.`.`.`.`.`.`.`.`.`.`.`.`.`.`.`.`.`.`.`.`.`.`.=.&.@.`.`.+.+.X.] ]  . .] ] `.`.`.`.`.`.`.`.`.`.`.`.`.`.`.`.`.`.`.`.`.`.`.`.`.`.",
"`.`.`.`.`.`.`.`.`.`.`.`.`.`.`.`.`.`.`.`.`.`.`.`.C.g.p.`.`.+.+.+.X.] ) ] ..X.`.`.`.`.`.`.`.`.`.`.`.`.`.`.`.`.`.`.`.`.`.`.`.`.`.`.",
"`.`.`.`.`.`.`.`.`.`.`.`.`.`.`.`.`.`.`.`.`.`.`.`.!.Z.h.`.`.+.+.+.+. .' '  .O.`.`.`.`.`.`.`.`.`.`.`.`.`.`.`.`.`.`.`.`.`.`.`.`.`.`.",
"`.`.`.`.`.`.`.`.`.`.`.`.`.`.`.`.`.`.`.`.`.`.`.`.^.Z.j.`.`.O.+.+.+.+. .' ' o.`.`.`.`.`.`.`.`.`.`.`.`.`.`.`.`.`.`.`.`.`.`.`.`.`.`.",
"`.`.`.`.`.`.`.`.`.`.`.`.`.`.`.`.`.`.`.`.`.`.`.`.Y.Z.h.`.`. ...+.+.+.O. . .`.`.`.`.`.`.`.`.`.`.`.`.`.`.`.`.`.`.`.`.`.`.`.`.`.`.`.",
"`.`.`.`.`.`.`.`.`.`.`.`.`.`.`.`.`.`.`.`.`.`.`.`.`.Z.d.`... . ...+.+.+.+.`.`.`.`.`.`.`.`.`.`.`.`.`.`.`.`.`.`.`.`.`.`.`.`.`.`.`.`.",
"`.`.`.`.`.`.`.`.`.`.`.`.`.`.`.`.`.`.`.`.`.`.`.`.`.`.`.#.O... . .O.+.+.`.`.`.`.`.`.`.`.`.`.`.`.`.`.`.`.`.`.`.`.`.`.`.`.`.`.`.`.`.",
"`.`.`.`.`.`.`.`.`.`.`.`.`.`.`.`.`.`.`.`.`.`.`.`.`.`.`.+.O. . . .O.+.`.`.`.`.`.`.`.`.`.`.`.`.`.`.`.`.`.`.`.`.`.`.`.`.`.`.`.`.`.`.",
"`.`.`.`.`.`.`.`.`.`.`.`.`.`.`.`.`.`.`.`.`.`.`.`.`.`.`.6.*.&.<.7.*.`.`.`.`.`.`.`.`.`.`.`.`.`.`.`.`.`.`.`.`.`.`.`.`.`.`.`.`.`.`.`.",
"`.`.`.`.`.`.`.`.`.`.`.`.`.`.`.`.`.`.`.`.`.`.`.`.`.`.P.`.f.N.V.N.`.`.`.`.`.`.`.`.`.`.`.`.`.`.`.`.`.`.`.`.`.`.`.`.`.`.`.`.`.`.`.`.",
"`.`.`.`.`.`.`.`.`.`.`.`.`.`.`.`.`.`.`.`.`.`.`.`.`.`.`.`.`.R.R.T.`.`.`.`.`.`.`.`.`.`.`.`.`.`.`.`.`.`.`.`.`.`.`.`.`.`.`.`.`.`.`.`.",
"`.`.`.`.`.`.`.`.`.`.`.`.`.`.`.`.`.`.`.`.`.`.`.`.`.`.`.`.`.E.E.E.`.`.`.`.`.`.`.`.`.`.`.`.`.`.`.`.`.`.`.`.`.`.`.`.`.`.`.`.`.`.`.`.",
"`.`.`.`.`.`.`.`.`.`.`.`.`.`.`.`.`.`.`.`.`.`.`.`.`.`.`.`.`.T.T.T.`.`.`.`.`.`.`.`.`.`.`.`.`.`.`.`.`.`.`.`.`.`.`.`.`.`.`.`.`.`.`.`.",
"`.`.`.`.`.`.`.`.`.`.`.`.`.`.`.`.`.`.`.`.`.`.`.`.`.`.`.`.`.D.D.n.k.`.`.`.`.`.`.`.`.`.`.`.`.`.`.`.`.`.`.`.`.`.`.`.`.`.`.`.`.`.`.`.",
"`.`.`.`.`.`.`.`.`.`.`.`.`.`.`.`.`.`.`.`.`.`.`.`.`.`.`.`.`.h.h.h.h.I._.`.`.`.`.`.`.`.`.`.`.`.`.`.`.`.`.`.`.`.`.`.`.`.`.`.`.`.`.`.",
"`.`.`.`.`.`.`.`.`.`.`.`.`.`.`.`.`.`.`.`.`.`.`.`.`.`.`.`.`.`.`.`.`.`.`.`.`.`.`.`.`.`.`.`.`.`.`.`.`.`.`.`.`.`.`.`.`.`.`.`.`.`.`.`.",
"`.`.`.`.`.`.`.`.`.`.`.`.`.`.`.`.`.`.`.`.`.`.`.`.`.`.`.`.`.`.`.`.`.`.`.`.`.`.`.`.`.`.`.`.`.`.`.`.`.`.`.`.`.`.`.`.`.`.`.`.`.`.`.`."
};
