/* XPM */
static const char *player_0_6[] = {
/* columns rows colors chars-per-pixel */
"64 64 198 2 ",
"   c #010101",
".  c #0A0403",
"X  c #0D0804",
"o  c #0D0C0B",
"O  c #150502",
"+  c #1C0602",
"@  c #130C06",
"#  c #190807",
"$  c #120F0B",
"%  c #1D0908",
"&  c #1D1007",
"*  c #12100E",
"=  c #1B140D",
"-  c #151310",
";  c #1C1913",
":  c #240700",
">  c #260902",
",  c #2C0B01",
"<  c #230B09",
"1  c #2A0A09",
"2  c #340C00",
"3  c #390D01",
"4  c #330E09",
"5  c #3A0F0F",
"6  c #2F1003",
"7  c #2A180F",
"8  c #341203",
"9  c #3C1201",
"0  c #3D1904",
"q  c #3A1209",
"w  c #36180F",
"e  c #3E1A09",
"r  c #36120E",
"t  c #2F1612",
"y  c #261C11",
"u  c #3B1511",
"i  c #292117",
"p  c #26221D",
"a  c #2B251E",
"s  c #382C1D",
"d  c #2D2922",
"f  c #2A2721",
"g  c #3A362E",
"h  c #3E3326",
"j  c #430F07",
"k  c #421602",
"l  c #451A03",
"z  c #4A1D04",
"x  c #42100C",
"c  c #4C1D0C",
"v  c #46190B",
"b  c #451814",
"n  c #541B13",
"m  c #5C1E16",
"M  c #531619",
"N  c #5B1919",
"B  c #571614",
"V  c #601D1B",
"C  c #4D2204",
"Z  c #462009",
"A  c #4D230C",
"S  c #462004",
"D  c #522605",
"F  c #562A05",
"G  c #592C06",
"H  c #53230A",
"J  c #562A0C",
"K  c #5C2F08",
"L  c #5C2F0B",
"P  c #5C2D0E",
"I  c #5B2B0B",
"U  c #5E3109",
"Y  c #5E3009",
"T  c #5E3109",
"R  c #442418",
"E  c #472712",
"W  c #5D2E10",
"Q  c #542219",
"!  c #502317",
"~  c #5E3216",
"^  c #602F0E",
"/  c #61330B",
"(  c #62330B",
")  c #62340B",
"_  c #62320E",
"`  c #64350C",
"'  c #67370E",
"]  c #63340C",
"[  c #67380E",
"{  c #69380F",
"}  c #69390F",
"|  c #602F10",
" . c #6B251D",
".. c #662A18",
"X. c #62251D",
"o. c #613312",
"O. c #653410",
"+. c #643412",
"@. c #693613",
"#. c #673815",
"$. c #6A3911",
"%. c #6C3B12",
"&. c #6E3C12",
"*. c #6C3B13",
"=. c #63351A",
"-. c #713E15",
";. c #713E14",
":. c #753D1E",
">. c #4A3621",
",. c #543D24",
"<. c #423E35",
"1. c #5C3D30",
"2. c #6A2721",
"3. c #712720",
"4. c #742C23",
"5. c #7B2D24",
"6. c #693E29",
"7. c #7D3224",
"8. c #734015",
"9. c #744116",
"0. c #774318",
"q. c #7A4619",
"w. c #7E491B",
"e. c #784417",
"r. c #5D4529",
"t. c #524A3E",
"y. c #5B4F3E",
"u. c #654327",
"i. c #75452A",
"p. c #634E39",
"a. c #70573A",
"s. c #785B3A",
"d. c #5D5344",
"f. c #5C5548",
"g. c #61594C",
"h. c #6C5E4D",
"j. c #78584A",
"k. c #685F51",
"l. c #6D604D",
"z. c #6D6353",
"x. c #716858",
"c. c #842F26",
"v. c #843128",
"b. c #8C3328",
"n. c #94312D",
"m. c #913B2E",
"M. c #9B392F",
"N. c #9E3B31",
"B. c #9B3630",
"V. c #A13E32",
"C. c #824B1C",
"Z. c #93562C",
"A. c #8D4E35",
"S. c #994737",
"D. c #9B4A3C",
"F. c #865336",
"G. c #AC4335",
"H. c #A44C37",
"J. c #B04537",
"K. c #B34738",
"L. c #B54939",
"P. c #BA4D3B",
"I. c #B34837",
"U. c #AE533B",
"Y. c #88643D",
"T. c #AA6B3B",
"R. c #AA594A",
"E. c #8D6A43",
"W. c #8D7150",
"Q. c #A16842",
"!. c #AA7D4B",
"~. c #B37946",
"^. c #B56354",
"/. c #BC6855",
"(. c #867760",
"). c #837966",
"_. c #907E64",
"`. c #BD8A55",
"'. c #B28459",
"]. c #8E826E",
"[. c #998D76",
"{. c #A68368",
"}. c #C7905B",
"|. c #C8935A",
" X c #D49C5F",
".X c #C09668",
"XX c #D19C69",
"oX c #AA9E86",
"OX c #B2A083",
"+X c #CBA58C",
"@X c #D6B68C",
"#X c #D5AE93",
"$X c #C3B499",
"%X c #D5C4A6",
"&X c #E6CFAC",
"*X c #EAD8B7",
"=X c #FF00FF",
"-X c black",
/* pixels */
"=X=X=X=X=X=X=X=X=X=X=X=X=X=X=X=X=X=X=X=X=X=X=X=X=X=X=X=X=X=X=X=X=X=X=X=X=X=X=X=X=X=X=X=X=X=X=X=X=X=X=X=X=X=X=X=X=X=X=X=X=X=X=X=X",
"=X=X=X=X=X=X=X=X=X=X=X=X=X=X=X=X=X=X=X=X=X=X=X=X=X=X=X=X=X=X=X=X=X=X=X=X=X=X=X=X=X=X=X=X=X=X=X=X=X=X=X=X=X=X=X=X=X=X=X=X=X=X=X=X",
"=X=X=X=X=X=X=X=X=X=X=X=X=X=X=X=X=X=X=X=X=X=X=X=X=X=X=X=X=X=X=X=X=X=X=X=X=X=X=X=X=X=X=X=X=X=X=X=X=X=X=X=X=X=X=X=X=X=X=X=X=X=X=X=X",
"=X=X=X=X=X=X=X=X=X=X=X=X=X=X=X=X=X=X=X=X=X=X=X=X=X=X=X=X=X=X=X=X=X=X=X=X=X=X=X=X=X=X=X=X=X=X=X=X=X=X=X=X=X=X=X=X=X=X=X=X=X=X=X=X",
"=X=X=X=X=X=X=X=X=X=X=X=X=X=X=X=X=X=X=X=X=X=X=X=X=X=X=X=X=X=X=X=X=X=X=X=X=X=X=X=X=X=X=X=X=X=X=X=X=X=X=X=X=X=X=X=X=X=X=X=X=X=X=X=X",
"=X=X=X=X=X=X=X=X=X=X=X=X=X=X=X=X=X=X=X=X=X=X=X=X=X=X=X=X=X=X=X=X=X=X=X=X=X=X=X=X=X=X=X=X=X=X=X=X=X=X=X=X=X=X=X=X=X=X=X=X=X=X=X=X",
"=X=X=X=X=X=X=X=X=X=X=X=X=X=X=X=X=X=X=X=X=X=X=X=X=X=X=X=X=X=X=X=X=X=X=X=X=X=X=X=X=X=X=X=X=X=X=X=X=X=X=X=X=X=X=X=X=X=X=X=X=X=X=X=X",
"=X=X=X=X=X=X=X=X=X=X=X=X=X=X=X=X=X=X=X=X=X=X=X=X=X=X=X=X=X=X=X=X=X=X=X=X=X=X=X=X=X=X=X=X=X=X=X=X=X=X=X=X=X=X=X=X=X=X=X=X=X=X=X=X",
"=X=X=X=X=X=X=X=X=X=X=X=X=X=X=X=X=X=X=X=X=X=X=X=X=X=X=X=X=X=X=X=X=X=X=X=X=X=X=X=X=X=X=X=X=X=X=X=X=X=X=X=X=X=X=X=X=X=X=X=X=X=X=X=X",
"=X=X=X=X=X=X=X=X=X=X=X=X=X=X=X=X=X=X=X=X=X=X=X=X=X=X=X=X=X=X=X=X=X=X=X=X=X=X=X=X=X=X=X=X=X=X=X=X=X=X=X=X=X=X=X=X=X=X=X=X=X=X=X=X",
"=X=X=X=X=X=X=X=X=X=X=X=X=X=X=X=X=X=X=X=X=X=X=X=X=X=X=X=X=X=X=X=X=X=X=X=X=X=X=X=X=X=X=X=X=X=X=X=X=X=X=X=X=X=X=X=X=X=X=X=X=X=X=X=X",
"=X=X=X=X=X=X=X=X=X=X=X=X=X=X=X=X=X=X=X=X=X=X=X=X=X=X=X=X=X=X=X=X=X=X=X=X=X=X=X=X=X=X=X=X=X=X=X=X=X=X=X=X=X=X=X=X=X=X=X=X=X=X=X=X",
"=X=X=X=X=X=X=X=X=X=X=X=X=X=X=X=X=X=X=X=X=X=X=X=X=X=X=X=X=X=X=X=X=X=X=X=X=X=X=X=X=X=X=X=X=X=X=X=X=X=X=X=X=X=X=X=X=X=X=X=X=X=X=X=X",
"=X=X=X=X=X=X=X=X=X=X=X=X=X=X=X=X=X=X=X=X=X=X=X=X=X=X=X=X=X=X=X=X=X=X=X=X=X=X=X=X=X=X=X=X=X=X=X=X=X=X=X=X=X=X=X=X=X=X=X=X=X=X=X=X",
"=X=X=X=X=X=X=X=X=X=X=X=X=X=X=X=X=X=X=X=X=X=X=X=X=X> > > > > =X=X=X> > > > > =X=X=X=X=X=X=X=X=X=X=X=X=X=X=X=X=X=X=X=X=X=X=X=X=X=X",
"=X=X=X=X=X=X=X=X=X=X=X=X=X=X=X=X=X=X=X=X=X=X=X=X, 8 e e e e q =Xe e e e q , , =X=X=X=X=X=X=X=X=X=X=X=X=X=X=X=X=X=X=X=X=X=X=X=X=X",
"=X=X=X=X=X=X=X=X=X=X=X=X=X=X=X=X=X=X=X=X=X> , , 3 A +.#.#.o.A v W #.#.#.J 9 , , > =X=X=X=X=X=X=X=X=X=X=X=X=X=X=X=X=X=X=X=X=X=X=X",
"=X=X=X=X=X=X=X=X=X=X=X=X=X=X=X=X=X=X=X=X, , 8 0 l I $.O.| W J J P W o.@._ C k 9 2 , =X=X=X=X=X=X=X=X=X=X=X=X=X=X=X=X=X=X=X=X=X=X",
"=X=X=X=X=X=X=X=X=X=X=X=X=X=X=X=X=X=X=X, 2 9 z D F F D z k z P O.H k z D F F F C k 8 , =X=X=X=X=X=X=X=X=X=X=X=X=X=X=X=X=X=X=X=X=X",
"=X=X=X=X=X=X=X=X=X=X=X=X=X=X=X=X=X=X, 0 S C D G F C l l z C L U D z z l z F G F C S l 8 =X=X=X=X=X=X=X=X=X=X=X=X=X=X=X=X=X=X=X=X",
"=X=X=X=X=X=X=X=X=X=X=X=X=X=X=X=X=X8 0 J / G F F F C l z C F G G F D z l z F G F G U K S 8 =X=X=X=X=X=X=X=X=X=X=X=X=X=X=X=X=X=X=X",
"=X=X=X=X=X=X=X=X=X=X=X=X=X=X=X=X, 0 J %.&.U G G G F C l z F G G F C k z F F G G G { -._ z 6 =X=X=X=X=X=X=X=X=X=X=X=X=X=X=X=X=X=X",
"=X=X=X=X=X=X=X=X=X=X=X=X=X=X=X=X, Z %.q.8./ ` [ U G D k z _ ) G F z 9 C F G ` ` / $.q.9.J 8 =X=X=X=X=X=X=X=X=X=X=X=X=X=X=X=X=X=X",
"=X=X=X=X=X=X=X=X=X=X=X=X=X=X=X=X, A 0.C.8.) &.8./ G D k H *.{ U K C k z F K &.8.` $.w.w.o.q =X=X=X=X=X=X=X=X=X=X=X=X=X=X=X=X=X=X",
"=X=X=X=X=X=X=X=X=X=X=X=X=X=X=X=X, A 0.C.;.) &.8./ G D l H -.$./ @.J k C F K &.8.` { q.w.~ q =X=X=X=X=X=X=X=X=X=X=X=X=X=X=X=X=X=X",
"=X=X=X=X=X=X=X=X=X=X=X=X=X=X=X=X, Z $.&.` U ` [ U G D l H -.$.K P J z D F G ` { U / %.&.J 8 =X=X=X=X=X=X=X=X=X=X=X=X=X=X=X=X=X=X",
"=X=X=X=X=X=X=X=X=X=X=X=X=X=X=X=X, 0 F K G G G G G G D k H $.{ D l l D F G G G G G G K G S 8 =X=X=X=X=X=X=X=X=X=X=X=X=X=X=X=X=X=X",
"=X=X=X=X=X=X=X=X=X=X=X=X=X=X=X=X, 0 D G F F F F G G D l z K U D k l F G F F F F F F G F z 8 =X=X=X=X=X=X=X=X=X=X=X=X=X=X=X=X=X=X",
"=X=X=X=X=X=X=X=X=X=X=X=X=X=X=X=X, k F G G G G G G G F z l C D D z C F G G G G G G F G F S 8 , =X=X=X=X=X=X=X=X=X=X=X=X=X=X=X=X=X",
"=X=X=X=X=X=X=X=X=X=X=X=X=X=X=X, 2 k D F G G G G G G F F z l z D D F F G G G G G G G F F z 9 , > =X=X=X=X=X=X=X=X=X=X=X=X=X=X=X=X",
"=X=X=X=X=X=X=X=X=X=X=X=X=X=X> , 3 9 z D F G G F F G G G D z l z F G G G G F F G G G F C k 3 , > =X=X=X=X=X=X=X=X=X=X=X=X=X=X=X=X",
"=X=X=X=X=X=X=X=X=X=X=X=X=X=X> , 9 9 9 C F G U / / U G G F D l k D G F F L / ) / G G D k 3 9 2 , =X=X=X=X=X=X=X=X=X=X=X=X=X=X=X=X",
"=X=X=X=X=X=X=X=X=X=X=X=X=X=X> 8 l l k C G G ` 8.9.{ G G G F l k C G G G / -.9.%.U G D l k l 9 , =X=X=X=X=X=X=X=X=X=X=X=X=X=X=X=X",
"=X=X=X=X=X=X=X=X=X=X=X=X=X=X> 8 S D C K ] K K @.0.&.U / ] G l k D / ` U ` 0.-.^ L / _ D C C 0 , =X=X=X=X=X=X=X=X=X=X=X=X=X=X=X=X",
"=X=X=X=X=X=X=X=X=X=X=X=X=X=X> 8 z D L $.$.L z H *.-.{ -.&.I k 9 C ` 8.$.%.9.P z D ` &./ F C 9 , =X=X=X=X=X=X=X=X=X=X=X=X=X=X=X=X",
"=X=X=X=X=X=X=X=X=X=X=X=X=X=X> , 9 C G / / F l z *.q.e.q.*.z 9 3 k P q.q.q.0.J k C U ] U D k 2 , =X=X=X=X=X=X=X=X=X=X=X=X=X=X=X=X",
"=X=X=X=X=X=X=X=X=X=X=X=X=X=X> , 3 k C F G F l z *.C.C.C.@.k 2 2 9 J q.C.C.q.J k C G F D l 9 , > =X=X=X=X=X=X=X=X=X=X=X=X=X=X=X=X",
"=X=X=X=X=X=X=X=X=X=X=X=X=X=X> , 2 3 9 C F F l z @.w.C.q.o.k 2 2 3 J 9.w.w.-.J l C F D z 9 3 , > =X=X=X=X=X=X=X=X=X=X=X=X=X=X=X=X",
"=X=X=X=X=X=X=X=X=X=X=X=X=X=X=X, , , 2 9 C D C C J #.0.O.c 9 2 2 3 l J _ _ P P J C C D C k 3 , > =X=X=X=X=X=X=X=X=X=X=X=X=X=X=X=X",
"=X=X=X=X=X=X=X=X=X=X=X=X=X=X=X=X> > , 2 9 S D C l H o.H k 3 3 3 3 3 9 z z z J P l l D C l 3 , > =X=X=X=X=X=X=X=X=X=X=X=X=X=X=X=X",
"=X=X=X=X=X=X=X=X=X=X=X=X=X=X=X=X=X> , 2 3 9 S C k k z z l 3 2 3 3 2 3 9 k z C l 9 l C l 8 3 , > =X=X=X=X=X=X=X=X=X=X=X=X=X=X=X=X",
"=X=X=X=X=X=X=X=X=X=X=X=X=X=X=X=X=X=X, , 3 0 C D z l l l k 3 2 3 3 3 2 2 9 l z l l C D z 9 2 , =X=X=X=X=X=X=X=X=X=X=X=X=X=X=X=X=X",
"=X=X=X=X=X=X=X=X=X=X=X=X=X=X=X=X=X=X=X, 8 z F F F F D l 9 , 2 2 2 2 2 , 2 9 z D F F F F z , > =X=X=X=X=X=X=X=X=X=X=X=X=X=X=X=X=X",
"=X=X=X=X=X=X=X=X=X=X=X=X=X=X=X=X=X=X=X> 2 k C F G G F D k 3 , , 2 2 , , 2 3 z F G G G G S 6 =X=X=X=X=X=X=X=X=X=X=X=X=X=X=X=X=X=X",
"=X=X=X=X=X=X=X=X=X=X=X=X=X=X=X=X=X=X=X=X, 2 k z C C C D D l 2 , 2 2 , 2 2 3 k z S C F C 0 , =X=X=X=X=X=X=X=X=X=X=X=X=X=X=X=X=X=X",
"=X=X=X=X=X=X=X=X=X=X=X=X=X=X=X=X=X=X=X=X, 2 3 9 9 9 k C D C 9 , 2 , , 2 3 3 3 9 8 0 S 0 , =X=X=X=X=X=X=X=X=X=X=X=X=X=X=X=X=X=X=X",
"=X=X=X=X=X=X=X=X=X=X=X=X=X=X=X=X=X=X=X=Xr n v 2 2 2 3 k l l 9 2 , , 2 2 3 3 3 2 , 8 8 , > =X=X=X=X=X=X=X=X=X=X=X=X=X=X=X=X=X=X=X",
"=X=X=X=X=X=X=X=X=X=X=X=X=X=X=X=X=X=X=X. u 3.n > , 2 2 3 3 3 3 2 , 3 j 3 2 2 2 2 , , , , > =X=X=X=X=X=X=X=X=X=X=X=X=X=X=X=X=X=X=X",
"=X=X=X=X=X=X=X=X=X=X=X=X=X=X=X=X=X=X=X. u 4.Q < , 3 2 , , 2 , > , x B x , , 2 2 2 2 , , > =X=X=X=X=X=X=X=X=X=X=X=X=X=X=X=X=X=X=X",
"=X=X=X=X=X=X=X=X=X=X=X=X=X=X=X=X=X=X=X. R A.F.u.=.A , + + > + O O 1 5 4 q n m n 3 > : : =X=X=X=X=X=X=X=X=X=X=X=X=X=X=X=X=X=X=X=X",
"=X=X=X=X=X=X=X=X=X=X=X=X=X=X=X=X=X=X=Xp p.'.}.~.Z.@.q < < 1 > # O # < 4 m c.v. .c < . =X=X=X=X=X=X=X=X=X=X=X=X=X=X=X=X=X=X=X=X=X",
"=X=X=X=X=X=X=X=X=X=X=X=X=X=X=X=X=X=Xp x.OX@XXXT.:... .V N N N M M M N  .b.N.4.Q =.E X =X=X=X=X=X=X=X=X=X=X=X=X=X=X=X=X=X=X=X=X=X",
"=X=X=X=X=X=X=X=X=X=X=X=X=X=X=X=X=X=Xd [.*X&X{.i...5.M.B.n.n.n.n.n.n.n.N.G.G.4.! ~ E @ =X=X=X=X=X=X=X=X=X=X=X=X=X=X=X=X=X=X=X=X=X",
"=X=X=X=X=X=X=X=X=X=X=X=X=X=X=X=X=X=Xf ].%X$Xh.R 7.G.I.J.G.G.G.J.K.K.K.L.L.K.m.X.w & =X=X=X=X=X=X=X=X=X=X=X=X=X=X=X=X=X=X=X=X=X=X",
"=X=X=X=X=X=X=X=X=X=X=X=X=X=X=X=X=X=X=Xt.k.f.d t v.K.L.J.G.G.G.G.L.P.P.J.G.V.4.b % =X=X=X=X=X=X=X=X=X=X=X=X=X=X=X=X=X=X=X=X=X=X=X",
"=X=X=X=X=X=X=X=X=X=X=X=X=X=X=X=X=X=X=X* * $ . < 2.D././.^.^.^.R.S.H.U.m.5.3.b # =X=X=X=X=X=X=X=X=X=X=X=X=X=X=X=X=X=X=X=X=X=X=X=X",
"=X=X=X=X=X=X=X=X=X=X=X=X=X=X=X=X=X=X=X=X=X=X=X=Xt j.+X#X+X+X+X{.1.i.Q.6.t < # =X=X=X=X=X=X=X=X=X=X=X=X=X=X=X=X=X=X=X=X=X=X=X=X=X",
"=X=X=X=X=X=X=X=X=X=X=X=X=X=X=X=X=X=X=X=X=X=X=X=X- z.$XoX).).).g.a r.!.Y.s @   =X=X=X=X=X=X=X=X=X=X=X=X=X=X=X=X=X=X=X=X=X=X=X=X=X",
"=X=X=X=X=X=X=X=X=X=X=X=X=X=X=X=X=X=X=X=X=X=X=X=X- g.[.l.s ; - o $ r.`.|.E.h $   =X=X=X=X=X=X=X=X=X=X=X=X=X=X=X=X=X=X=X=X=X=X=X=X",
"=X=X=X=X=X=X=X=X=X=X=X=X=X=X=X=X=X=X=X=X=X=X=X=X=Xg y.a.,.@     X r.`. X.X_.<.o =X=X=X=X=X=X=X=X=X=X=X=X=X=X=X=X=X=X=X=X=X=X=X=X",
"=X=X=X=X=X=X=X=X=X=X=X=X=X=X=X=X=X=X=X=X=X=X=X=X=Xg d.a.,.$     X >.s.Y.W.(.t.* =X=X=X=X=X=X=X=X=X=X=X=X=X=X=X=X=X=X=X=X=X=X=X=X",
"=X=X=X=X=X=X=X=X=X=X=X=X=X=X=X=X=X=X=X=X=X=X=X=X- d.).t.=       =X=Xy y i a p =X=X=X=X=X=X=X=X=X=X=X=X=X=X=X=X=X=X=X=X=X=X=X=X=X",
"=X=X=X=X=X=X=X=X=X=X=X=X=X=X=X=X=X=X=X=X=X=X=X=X=X<.t.p       =X=X=X=X=X=X=X=X=X=X=X=X=X=X=X=X=X=X=X=X=X=X=X=X=X=X=X=X=X=X=X=X=X",
"=X=X=X=X=X=X=X=X=X=X=X=X=X=X=X=X=X=X=X=X=X=X=X=X=X=Xo .     =X=X=X=X=X=X=X=X=X=X=X=X=X=X=X=X=X=X=X=X=X=X=X=X=X=X=X=X=X=X=X=X=X=X"
};
