/* XPM */
static const char *player_1_7[] = {
/* columns rows colors chars-per-pixel */
"64 64 214 2 ",
"   c #020100",
".  c #090504",
"X  c #0C0906",
"o  c #0D0C0B",
"O  c #150502",
"+  c #140906",
"@  c #120E0B",
"#  c #1E0A08",
"$  c #16120E",
"%  c #141312",
"&  c #260901",
"*  c #2C0C01",
"=  c #2C0E0A",
"-  c #330C01",
";  c #3A0E01",
":  c #2F1002",
">  c #2D100B",
",  c #27100C",
"<  c #341202",
"1  c #3B1302",
"2  c #3D1904",
"3  c #33130F",
"4  c #3B180B",
"5  c #261B13",
"6  c #331510",
"7  c #3E1D13",
"8  c #3B1814",
"9  c #27221D",
"0  c #29231B",
"q  c #3B2A18",
"w  c #2A2721",
"e  c #2C2923",
"r  c #322E27",
"t  c #3B352D",
"y  c #383939",
"u  c #421502",
"i  c #441C03",
"p  c #4A1D04",
"a  c #431C0A",
"s  c #44150B",
"d  c #541C0B",
"f  c #591E0E",
"g  c #411B14",
"h  c #4C1C14",
"j  c #5D1D13",
"k  c #501B18",
"l  c #611E14",
"z  c #462005",
"x  c #4C2305",
"c  c #4C250B",
"v  c #4F280E",
"b  c #512605",
"n  c #552A05",
"m  c #592D06",
"M  c #522608",
"N  c #542A0B",
"B  c #5A2D0A",
"V  c #5E310A",
"C  c #422113",
"Z  c #4E2812",
"A  c #472719",
"S  c #5B231B",
"D  c #562917",
"F  c #5E3110",
"G  c #5B351C",
"H  c #55321F",
"J  c #65360E",
"K  c #61330C",
"L  c #68380F",
"P  c #642114",
"I  c #6E241A",
"U  c #62251E",
"Y  c #752A1D",
"T  c #78291E",
"R  c #653610",
"E  c #633412",
"W  c #6A3A11",
"Q  c #6D3B12",
"!  c #683719",
"~  c #713E13",
"^  c #703F1F",
"/  c #553B25",
"(  c #5B352B",
")  c #5A3E2F",
"_  c #573524",
"`  c #50312D",
"'  c #6A2A21",
"]  c #732A23",
"[  c #7D2B22",
"{  c #663B23",
"}  c #7A3026",
"|  c #743B25",
" . c #754216",
".. c #7B431B",
"X. c #5B442B",
"o. c #484339",
"O. c #5F4231",
"+. c #6B4225",
"@. c #694326",
"#. c #784E2D",
"$. c #7B502F",
"%. c #684B37",
"&. c #7F5634",
"*. c #775033",
"=. c #7A4C30",
"-. c #5E3D42",
";. c #554C40",
":. c #5B5347",
">. c #5A5B5C",
",. c #654943",
"<. c #685747",
"1. c #7D5A46",
"2. c #645E55",
"3. c #7C6040",
"4. c #6C6253",
"5. c #726C64",
"6. c #822E26",
"7. c #8B3326",
"8. c #8B342A",
"9. c #8B3A2C",
"0. c #843427",
"q. c #9B3B2D",
"w. c #933A2D",
"e. c #9C3630",
"r. c #9D3B31",
"t. c #A43E33",
"y. c #A83F34",
"u. c #80431D",
"i. c #89452C",
"p. c #9F422F",
"a. c #894633",
"s. c #9F4131",
"d. c #8C5F3B",
"f. c #875935",
"g. c #985D39",
"h. c #8F562C",
"j. c #A54133",
"k. c #AB4335",
"l. c #A64C38",
"z. c #B14637",
"x. c #B24937",
"c. c #B54A39",
"v. c #BA4E3B",
"b. c #B24738",
"n. c #B75236",
"m. c #A75A34",
"M. c #946238",
"N. c #B7653A",
"B. c #8F5F47",
"V. c #A95846",
"C. c #966845",
"Z. c #8F7657",
"A. c #977057",
"S. c #A8774D",
"D. c #A27952",
"F. c #855F66",
"G. c #867765",
"H. c #927B64",
"J. c #997C61",
"K. c #947C69",
"L. c #8F6E6E",
"P. c #C26C57",
"I. c #A98359",
"U. c #B88658",
"Y. c #978B75",
"T. c #988A77",
"R. c #8E826D",
"E. c #A48568",
"W. c #B6936D",
"Q. c #BA9873",
"!. c #B18C6D",
"~. c #CC9A6C",
"^. c #C79765",
"/. c #C39E74",
"(. c #D0A97C",
"). c #A37C85",
"_. c #B89C8D",
"`. c #BBA68B",
"'. c #B6A286",
"]. c #B3A796",
"[. c #C29E92",
"{. c #CAAA8B",
"}. c #D3B48B",
"|. c #DAB485",
" X c #C2AE90",
".X c #C5B398",
"XX c #D6BB9C",
"oX c #DDBB99",
"OX c #D1AB92",
"+X c #E1BF99",
"@X c #C99EB1",
"#X c #D3B3AB",
"$X c #E4C59C",
"%X c #E4C398",
"&X c #D5C4A5",
"*X c #DDC9AA",
"=X c #D9C7AB",
"-X c #DDC3B7",
";X c #E5CBA6",
":X c #E2CDAC",
">X c #E9CEA8",
",X c #E6D0AD",
"<X c #E3CBB6",
"1X c #E6D3B2",
"2X c #EAD6B5",
"3X c #EBD8B7",
"4X c #EDDAB9",
"5X c #F0DCBC",
"6X c #DBB1C2",
"7X c #E4BCCB",
"8X c #E8C8C4",
"9X c #EED1C4",
"0X c #FF00FF",
"qX c black",
/* pixels */
"0X0X0X0X0X0X0X0X0X0X0X0X0X0X0X0X0X0X0X0X0X0X0X0X0X0X0X0X0X0X0X0X0X0X0X0X0X0X0X0X0X0X0X0X0X0X0X0X0X0X0X0X0X0X0X0X0X0X0X0X0X0X0X0X",
"0X0X0X0X0X0X0X0X0X0X0X0X0X0X0X0X0X0X0X0X0X0X0X0X0X0X0X0X0X0X0X0X0X0X0X0X0X0X0X0X0X0X0X0X0X0X0X0X0X0X0X0X0X0X0X0X0X0X0X0X0X0X0X0X",
"0X0X0X0X0X0X0X0X0X0X0X0X0X0X0X0X0X0X0X0X0X0X0X0X0X0X0X0X0X0X0X0X0X0X0X0X0X0X0X0X0X0X0X0X0X0X0X0X0X0X0X0X0X0X0X0X0X0X0X0X0X0X0X0X",
"0X0X0X0X0X0X0X0X0X0X0X0X0X0X0X0X0X0X0X0X0X0X0X0X0X0X0X0X0X0X0X0X0X0X0X0X0X0X0X0X0X0X0X0X0X0X0X0X0X0X0X0X0X0X0X0X0X0X0X0X0X0X0X0X",
"0X0X0X0X0X0X0X0X0X0X0X0X0X0X0X0X0X0X0X0X0X0X0X0X0X0X0X0X0X0X0X0X0X0X0X0X0X0X0X0X0X0X0X0X0X0X0X0X0X0X0X0X0X0X0X0X0X0X0X0X0X0X0X0X",
"0X0X0X0X0X0X0X0X0X0X0X0X0X0X0X0X0X0X0X0X0X0X0X0X0X0X0X0X0X0X0X0X0X0X0X0X0X0X0X0X0X0X0X0X0X0X0X0X0X0X0X0X0X0X0X0X0X0X0X0X0X0X0X0X",
"0X0X0X0X0X0X0X0X0X0X0X0X0X0X0X0X0X0X0X0X0X0X0X0X0X0X0X0X0X0X0X0X0X0X0X0X0X0X0X0X0X0X0X0X0X0X0X0X0X0X0X0X0X0X0X0X0X0X0X0X0X0X0X0X",
"0X0X0X0X0X0X0X0X0X0X0X0X0X0X0X0X0X0X0X0X0X0X0X0X0X0X0X0X0X0X0X0X0X0X0X0X0X0X0X0X0X0X0X0X0X0X0X0X0X0X0X0X0X0X0X0X0X0X0X0X0X0X0X0X",
"0X0X0X0X0X0X0X0X0X0X0X0X0X0X0X0X0X0X0X0X0X0X0X0X0X0X0X0X0X0X0X0X0X0X0X0X0X0X0X0X0X0X0X0X0X0X0X0X0X0X0X0X0X0X0X0X0X0X0X0X0X0X0X0X",
"0X0X0X0X0X0X0X0X0X0X0X0X0X0X0X0X0X0X0X0X0X0X0X0X0X0X0X0X0X0X0X0X0X0X0X0X0X0X0X0X0X0X0X0X0X0X0X0X0X0X0X0X0X0X0X0X0X0X0X0X0X0X0X0X",
"0X0X0X0X0X0X0X0X0X0X0X0X0X0X0X0X0X0X0X0X0X0X0X0X0X0X0X0X0X0X0X0X0X0X0X0X0X0X0X0X0X0X0X0X0X0X0X0X0X0X0X0X0X0X0X0X0X0X0X0X0X0X0X0X",
"0X0X0X0X0X0X0X0X0X0X0X0X0X0X0X0X0X0X0X0X0X0X0X0X& & & & & & 0X0X0X& & & & & 0X0X0X0X0X0X0X0X0X0X0X0X0X0X0X0X0X0X0X0X0X0X0X0X0X0X",
"0X0X0X0X0X0X0X0X0X0X0X0X0X0X0X0X0X0X0X0X0X0X0X* < 1 < 1 1 < < * < 1 1 1 < < < 0X0X0X0X0X0X0X0X0X0X0X0X0X0X0X0X0X0X0X0X0X0X0X0X0X",
"0X0X0X0X0X0X0X0X0X0X0X0X0X0X0X0X0X0X0X0X0X* * 1 x M M x x x i 2 x x x b M x 2 < * * 0X0X0X0X0X0X0X0X0X0X0X0X0X0X0X0X0X0X0X0X0X0X",
"0X0X0X0X0X0X0X0X0X0X0X0X0X0X0X0X0X0X0X0X< i c N B K J c z n B B N x x V J V B N z 1 * 0X0X0X0X0X0X0X0X0X0X0X0X0X0X0X0X0X0X0X0X0X",
"0X0X0X0X0X0X0X0X0X0X0X0X0X0X0X0X0X0X0X< i B W W K J W N a x K R N a c E W K J Q K x < 0X0X0X0X0X0X0X0X0X0X0X0X0X0X0X0X0X0X0X0X0X",
"0X0X0X0X0X0X0X0X0X0X0X0X0X0X0X0X0X0X< i B Q Q K m B K R N i x N i c E R K m V L ~ J x < * 0X0X0X0X0X0X0X0X0X0X0X0X0X0X0X0X0X0X0X",
"0X0X0X0X0X0X0X0X0X0X0X0X0X0X0X0X0X< 2 x J  .W m m K J F c i x x a c B R J m n K  .~ m a 1 0X0X0X0X0X0X0X0X0X0X0X0X0X0X0X0X0X0X0X",
"0X0X0X0X0X0X0X0X0X0X0X0X0X0X0X0X* 1 x n J  .W V m J W c i x n n b a a F W V m J ~ W m M a : 0X0X0X0X0X0X0X0X0X0X0X0X0X0X0X0X0X0X",
"0X0X0X0X0X0X0X0X0X0X0X0X0X0X0X0X* 2 M m B J Q W V V V M x n m m n x x B K V J Q L V m n z < 0X0X0X0X0X0X0X0X0X0X0X0X0X0X0X0X0X0X",
"0X0X0X0X0X0X0X0X0X0X0X0X0X0X0X0X* 2 n K B M V W V m m m m m m m m m m m m m J R N N K V z : 0X0X0X0X0X0X0X0X0X0X0X0X0X0X0X0X0X0X",
"0X0X0X0X0X0X0X0X0X0X0X0X0X0X0X0X* 2 B W V 2 a n n n n n n n n M n n M n n n n x 2 c W K z : 0X0X0X0X0X0X0X0X0X0X0X0X0X0X0X0X0X0X",
"0X0X0X0X0X0X0X0X0X0X0X0X0X0X0X0X* 2 n K N < < u u z b a a b z a x x i x x i u 1 - a K V a * 0X0X0X0X0X0X0X0X0X0X0X0X0X0X0X0X0X0X",
"0X0X0X0X0X0X0X0X0X0X0X0X0X0X0X0X* 2 b b i - * 1 c c c v v x c Z c c Z c c Z a - * 1 x n a * 0X0X0X0X0X0X0X0X0X0X0X0X0X0X0X0X0X0X",
"0X0X0X0X0X0X0X0X0X0X0X0X0X0X0X0X* 2 x i < - - D f.#.G &.&.G #.f._ @.d.@.@.d.+.4 - ; 2 x a < 0X0X0X0X0X0X0X0X0X0X0X0X0X0X0X0X0X0X",
"0X0X0X0X0X0X0X0X0X0X0X0X0X0X0X* 2 x M N a 1 D d.Q.W.J.Q.Q.A.W.Q.J.E./.E.E./.D.{ a 2 c N x u < 0X0X0X0X0X0X0X0X0X0X0X0X0X0X0X0X0X",
"0X0X0X0X0X0X0X0X0X0X0X0X0X0X& < x m K E c a &./.$X:X*X:X:X*X:X:X*X:X:X:X:X;X|.D.D a F K B b 1 * 0X0X0X0X0X0X0X0X0X0X0X0X0X0X0X0X",
"0X0X0X0X0X0X0X0X0X0X0X0X0X0X& < x J W N 2 7 Z.oX2X4X3X3X4X4X4X4X4X4X4X4X4X3X>XQ./ < c R L B 2 * 0X0X0X0X0X0X0X0X0X0X0X0X0X0X0X0X",
"0X0X0X0X0X0X0X0X0X0X0X0X0X0X& < x B E ! Z A H.:X2XXX{.XX2X4X3X3X3X3X:XOXOX:X3X`.) C G ! K n 2 * 0X0X0X0X0X0X0X0X0X0X0X0X0X0X0X0X",
"0X0X0X0X0X0X0X0X0X0X0X0X0X0X& < x x F f.$._ H.:X1X!.B.'.2X4X3X3X4X4XXXA.A.XX4X`.O.{ d.^ b x 2 * 0X0X0X0X0X0X0X0X0X0X0X0X0X0X0X0X",
"0X0X0X0X0X0X0X0X0X0X0X0X0X0X& < x x K h.h.H H.:X:XH.) T.1X4X3X3X4X4X.X<.<..X4X`.O.{ g...b x 2 * 0X0X0X0X0X0X0X0X0X0X0X0X0X0X0X0X",
"0X0X0X0X0X0X0X0X0X0X0X0X0X0X& < x n K ..! A H.,X:XG.t Y.1X4X3X3X4X4X.X;.;..X5X`.) D u.Q m M 2 * 0X0X0X0X0X0X0X0X0X0X0X0X0X0X0X0X",
"0X0X0X0X0X0X0X0X0X0X0X0X0X0X& < x m n M u C K.1X:XG.o.T.1X4X3X3X4X4X.X:.:..X5X`.) 1 d n m M 2 * 0X0X0X0X0X0X0X0X0X0X0X0X0X0X0X0X",
"0X0X0X0X0X0X0X0X0X0X0X0X0X0X& < x b p i < 7 K.<X8X_.G.`.2X4X3X3X3X4X&XY.T.#X9X_.) - u p b b 2 * 0X0X0X0X0X0X0X0X0X0X0X0X0X0X0X0X",
"0X0X0X0X0X0X0X0X0X0X0X0X0X0X0X< a i u i u C F.@X7X8X=X1X4X4X2X3X3X3X1X*X-X7X6X).` 2 i u u p 2 * 0X0X0X0X0X0X0X0X0X0X0X0X0X0X0X0X",
"0X0X0X0X0X0X0X0X0X0X0X0X0X0X0X0X< < ; 1 i c ( F.@X8X5X3X3X3X3X3X3X2X3X4X9X6X).,.Z a u 1 ; < < 0X0X0X0X0X0X0X0X0X0X0X0X0X0X0X0X0X",
"0X0X0X0X0X0X0X0X0X0X0X0X0X0X0X0X* * - ; u x 2 ` F.[.+X$X;X2X4X4X3X,X$X$XOX).-.4 x p 1 - - * 0X0X0X0X0X0X0X0X0X0X0X0X0X0X0X0X0X0X",
"0X0X0X0X0X0X0X0X0X0X0X0X0X0X0X0X* * - ; u x 2 > A 1.U.^.(.$X:X:X;X}.~.^.A.( 3 < p p ; - - * 0X0X0X0X0X0X0X0X0X0X0X0X0X0X0X0X0X0X",
"0X0X0X0X0X0X0X0X0X0X0X0X0X0X0X0X0X* * - 1 u 1 * - Z +.#.C.U.~.~.^.D.$.+.G 1 * ; u u ; - * * 0X0X0X0X0X0X0X0X0X0X0X0X0X0X0X0X0X0X",
"0X0X0X0X0X0X0X0X0X0X0X0X0X0X0X0X0X0X* ; 1 ; 1 1 ; s h D | m.N.N.N.i.S h s ; ; 1 ; 1 1 - & 0X0X0X0X0X0X0X0X0X0X0X0X0X0X0X0X0X0X0X",
"0X0X0X0X0X0X0X0X0X0X0X0X0X0X0X0X0X0X* 2 i 1 u i u d Y 8.p.x.n.n.n.j.w.6.l u i i 1 u i < & 0X0X0X0X0X0X0X0X0X0X0X0X0X0X0X0X0X0X0X",
"0X0X0X0X0X0X0X0X0X0X0X0X0X0X0X0X0X0X* 2 2 1 u i p f Y q.z.v.v.v.v.c.t.6.P p i i 1 1 2 < 0X0X0X0X0X0X0X0X0X0X0X0X0X0X0X0X0X0X0X0X",
"0X0X0X0X0X0X0X0X0X0X0X0X0X0X0X0X0X0X0X* * * 1 p x p l 7.k.c.v.v.v.b.q.I d p p u ; * * 0X0X0X0X0X0X0X0X0X0X0X0X0X0X0X0X0X0X0X0X0X",
"0X0X0X0X0X0X0X0X0X0X0X0X0X0X0X0X0X0X0X0XO & h P d f T q.b.v.v.v.v.c.j.7.P d P j > O 0X0X0X0X0X0X0X0X0X0X0X0X0X0X0X0X0X0X0X0X0X0X",
"0X0X0X0X0X0X0X0X0X0X0X0X0X0X0X0X0X0X0X0X# 8 ] [ d P q.c.v.v.v.v.v.v.c.k.[ d I [ k , 0X0X0X0X0X0X0X0X0X0X0X0X0X0X0X0X0X0X0X0X0X0X",
"0X0X0X0X0X0X0X0X0X0X0X0X0X0X0X0X0X0X0X. 3 ] 8.[ j Y k.v.c.c.c.c.c.c.v.c.7.j I 7.6.h + 0X0X0X0X0X0X0X0X0X0X0X0X0X0X0X0X0X0X0X0X0X",
"0X0X0X0X0X0X0X0X0X0X0X0X0X0X0X0X0X0X0X. g 0.] S Y q.b.z.k.k.k.k.k.k.k.c.j.0.S U 8.U + 0X0X0X0X0X0X0X0X0X0X0X0X0X0X0X0X0X0X0X0X0X",
"0X0X0X0X0X0X0X0X0X0X0X0X0X0X0X0X0X0X0X. A a.H 8 0.z.k.k.t.t.t.t.t.t.t.k.z.s.D g i.{ + 0X0X0X0X0X0X0X0X0X0X0X0X0X0X0X0X0X0X0X0X0X",
"0X0X0X0X0X0X0X0X0X0X0X0X0X0X0X0X0X0X0X$ / C.{ 7 9.k.e.t.z.z.b.b.b.z.k.e.t.j.S A d.*.5 0X0X0X0X0X0X0X0X0X0X0X0X0X0X0X0X0X0X0X0X0X",
"0X0X0X0X0X0X0X0X0X0X0X0X0X0X0X0X0X0X5 ;.Z.U.f.' r.k.r.r.k.c.v.v.v.k.t.e.y.k.} | S.I.<.t 0X0X0X0X0X0X0X0X0X0X0X0X0X0X0X0X0X0X0X0X",
"0X0X0X0X0X0X0X0X0X0X0X0X0X0X0X0X0X0Xw R.}.~.g.8.j.c.k.r.t.b.v.v.v.y.e.y.c.k.8.a.U.|.'.;.o 0X0X0X0X0X0X0X0X0X0X0X0X0X0X0X0X0X0X0X",
"0X0X0X0X0X0X0X0X0X0X0X0X0X0X0X0X0X0Xe Y.%X^.=.S 8.z.c.k.k.c.v.v.v.z.k.b.c.r.' { S.|. X;.o 0X0X0X0X0X0X0X0X0X0X0X0X0X0X0X0X0X0X0X",
"0X0X0X0X0X0X0X0X0X0X0X0X0X0X0X0X0X0X9 4.H.3.q 6 6.k.b.c.v.v.v.v.v.v.c.b.z.r.h 5 %.Z.G.o.0X0X0X0X0X0X0X0X0X0X0X0X0X0X0X0X0X0X0X0X",
"0X0X0X0X0X0X0X0X0X0X0X0X0X0X0X0X0X0X0X9 0 5 X , } t.k.b.v.v.v.v.v.v.c.k.j.w.h + $ 0 9 0X0X0X0X0X0X0X0X0X0X0X0X0X0X0X0X0X0X0X0X0X",
"0X0X0X0X0X0X0X0X0X0X0X0X0X0X0X0X0X0X0X0X0X    + g } j.c.v.v.v.v.v.v.v.k.9.S 6 0X0X0X0X0X0X0X0X0X0X0X0X0X0X0X0X0X0X0X0X0X0X0X0X0X",
"0X0X0X0X0X0X0X0X0X0X0X0X0X0X0X0X0X0X0X0X0X0X0X  + ( V.l.9.9.9.9.9.V.P.P.a.6 0X0X0X0X0X0X0X0X0X0X0X0X0X0X0X0X0X0X0X0X0X0X0X0X0X0X",
"0X0X0X0X0X0X0X0X0X0X0X0X0X0X0X0X0X0X0X0X0X0X0X0X@ ,.E.%.6 > 3 > 8 1.OXoXH.9 0X0X0X0X0X0X0X0X0X0X0X0X0X0X0X0X0X0X0X0X0X0X0X0X0X0X",
"0X0X0X0X0X0X0X0X0X0X0X0X0X0X0X0X0X0X0X0X0X0X0X0X0Xo.<.r .       @ 4.&X3XY.w 0X0X0X0X0X0X0X0X0X0X0X0X0X0X0X0X0X0X0X0X0X0X0X0X0X0X",
"0X0X0X0X0X0X0X0X0X0X0X0X0X0X0X0X0X0X0X0X0X0X0X0X0X0X% X   0X0X0X@ 2.=X3XY.w 0X0X0X0X0X0X0X0X0X0X0X0X0X0X0X0X0X0X0X0X0X0X0X0X0X0X",
"0X0X0X0X0X0X0X0X0X0X0X0X0X0X0X0X0X0X0X0X0X0X0X0X0X0X0X0X0X0X0X0X@ 2.&X3XT.r 0X0X0X0X0X0X0X0X0X0X0X0X0X0X0X0X0X0X0X0X0X0X0X0X0X0X",
"0X0X0X0X0X0X0X0X0X0X0X0X0X0X0X0X0X0X0X0X0X0X0X0X0X0X0X0X0X0X0X0X@ <.}.$X'.5.y 0X0X0X0X0X0X0X0X0X0X0X0X0X0X0X0X0X0X0X0X0X0X0X0X0X",
"0X0X0X0X0X0X0X0X0X0X0X0X0X0X0X0X0X0X0X0X0X0X0X0X0X0X0X0X0X0X0X0X@ X.I.^.{.].>.% 0X0X0X0X0X0X0X0X0X0X0X0X0X0X0X0X0X0X0X0X0X0X0X0X",
"0X0X0X0X0X0X0X0X0X0X0X0X0X0X0X0X0X0X0X0X0X0X0X0X0X0X0X0X0X0X0X0X0Xq / X.<.2.t X 0X0X0X0X0X0X0X0X0X0X0X0X0X0X0X0X0X0X0X0X0X0X0X0X",
"0X0X0X0X0X0X0X0X0X0X0X0X0X0X0X0X0X0X0X0X0X0X0X0X0X0X0X0X0X0X0X0X0X0XX X o o .   0X0X0X0X0X0X0X0X0X0X0X0X0X0X0X0X0X0X0X0X0X0X0X0X"
};
