/* XPM */
static const char *player_2_8[] = {
/* columns rows colors chars-per-pixel */
"64 64 181 2 ",
"   c #270901",
".  c #2B0B01",
"X  c #2A0F0B",
"o  c #340B00",
"O  c #390D00",
"+  c #2F1002",
"@  c #2A120D",
"#  c #341204",
"$  c #3C1402",
"%  c #3E1A03",
"&  c #3C1A09",
"*  c #3C1C12",
"=  c #3E231A",
"-  c #421502",
";  c #441B03",
":  c #491E03",
">  c #4B1409",
",  c #431D09",
"<  c #4C1E0C",
"1  c #5B1A10",
"2  c #551D11",
"3  c #621F14",
"4  c #462005",
"5  c #4D2304",
"6  c #4B230A",
"7  c #46210B",
"8  c #512604",
"9  c #562A05",
"0  c #592C06",
"q  c #51270B",
"w  c #532A0D",
"e  c #5B2E09",
"r  c #5E3109",
"t  c #472310",
"y  c #4A2413",
"u  c #44281C",
"i  c #532C12",
"p  c #5C2E11",
"a  c #5F3210",
"s  c #5D361A",
"d  c #63340C",
"f  c #68380F",
"g  c #632413",
"h  c #682416",
"j  c #6A2618",
"k  c #633511",
"l  c #673812",
"z  c #6B3B12",
"x  c #643C1E",
"c  c #763B1C",
"v  c #4A2924",
"b  c #4C3125",
"n  c #553C2E",
"m  c #7E2A21",
"M  c #6A3B23",
"N  c #724115",
"B  c #774418",
"V  c #7A4519",
"C  c #494238",
"Z  c #504135",
"A  c #6E4526",
"S  c #794120",
"D  c #7D4F2A",
"F  c #654C3D",
"G  c #634533",
"H  c #744E3B",
"J  c #7D5333",
"K  c #6D5444",
"L  c #765945",
"P  c #6C6255",
"I  c #7D6451",
"U  c #716151",
"Y  c #8B3526",
"T  c #8E3129",
"R  c #853B23",
"E  c #9B362F",
"W  c #9F3F2F",
"Q  c #9F3A31",
"!  c #A43D32",
"~  c #A93F32",
"^  c #88572D",
"/  c #97582E",
"(  c #915427",
")  c #A44133",
"_  c #AC4335",
"`  c #AF4835",
"'  c #A8473C",
"]  c #B14637",
"[  c #B14936",
"{  c #B64B39",
"}  c #BA4E3B",
"|  c #AD553D",
" . c #BB503D",
".. c #96683F",
"X. c #96683F",
"o. c #A56B38",
"O. c #875E4A",
"+. c #815C53",
"@. c #AD5541",
"#. c #BF5B48",
"$. c #B95443",
"%. c #8E6B4C",
"&. c #8E6C56",
"*. c #8B735E",
"=. c #9A7552",
"-. c #BA6E4A",
";. c #B56645",
":. c #8A626D",
">. c #8B7A66",
",. c #997177",
"<. c #C15C49",
"1. c #CD745F",
"2. c #C77F66",
"3. c #C77565",
"4. c #D27E6A",
"5. c #AB835A",
"6. c #BA8456",
"7. c #AE8968",
"8. c #AB8065",
"9. c #BD9366",
"0. c #AC947B",
"q. c #BC9575",
"w. c #CE945A",
"e. c #D29A5E",
"r. c #D0965C",
"t. c #D49D65",
"y. c #D08B7A",
"u. c #DD947F",
"i. c #D8A36A",
"p. c #D7AD7B",
"a. c #D9AD7C",
"s. c #B49E83",
"d. c #B5A187",
"f. c #BFA68B",
"g. c #B0A289",
"h. c #BEA99A",
"j. c #E09B85",
"k. c #D4A98B",
"l. c #C3AE9E",
"z. c #C6B296",
"x. c #CBB495",
"c. c #CBB79A",
"v. c #CDBA9C",
"b. c #D4BB9A",
"n. c #D9BB92",
"m. c #E1AE80",
"M. c #E6B48E",
"N. c #E3B184",
"B. c #EAAE98",
"V. c #EABA93",
"C. c #E2BE98",
"Z. c #C599AF",
"A. c #C9A2A8",
"S. c #CDBDA0",
"D. c #D0BEA0",
"F. c #DFB7B7",
"G. c #DBBABD",
"H. c #DAC19C",
"J. c #DDC4A4",
"K. c #E2CCAC",
"L. c #E4C5A7",
"P. c #F4C7AF",
"I. c #F6CAAD",
"U. c #F1C3A2",
"Y. c #E9D0A9",
"T. c #EAD1AA",
"R. c #FACDB6",
"E. c #F6CEB3",
"W. c #ECDAB9",
"Q. c #ECDAB9",
"!. c #EAD3B7",
"~. c #FED3BD",
"^. c #F0DEBC",
"/. c #E6BECB",
"(. c #E8C0CC",
"). c #EED4C2",
"_. c #FED5C0",
"`. c #F6E9DD",
"'. c #F5EBE0",
"]. c #FF00FF",
"[. c black",
/* pixels */
"].].].].].].].].].].].].].].].].].].].].].].].].].].].].].].].].].].].].].].].].].].].].].].].].].].].].].].].].].].].].].].].].",
"].].].].].].].].].].].].].].].].].].].].].].].].].].].].].].].].].].].].].].].].].].].].].].].].].].].].].].].].].].].].].].].].",
"].].].].].].].].].].].].].].].].].].].].].].].].].].].].].].].].].].].].].].].].].].].].].].].].].].].].].].].].].].].].].].].].",
"].].].].].].].].].].].].].].].].].].].].].].].].].].].].].].].].].].].].].].].].].].].].].].].].].].].].].].].].].].].].].].].].",
"].].].].].].].].].].].].].].].].].].].].].].].].].].].].].].].].].].].].].].].].].].].].].].].].].].].].].].].].].].].].].].].].",
"].].].].].].].].].].].].].].].].].].].].].].].].].].].].].].].].].].].].].].].].].].].].].].].].].].].].].].].].].].].].].].].].",
"].].].].].].].].].].].].].].].].].].].].].].].].].].].].].].].].].].].].].].].].].].].].].].].].].].].].].].].].].].].].].].].].",
"].].].].].].].].].].].].].].].].].].].].].].].].].].].].].].].].].].].].].].].].].].].].].].].].].].].].].].].].].].].].].].].].",
"].].].].].].].].].].].].].].].].].].].].].].].].].].].].].].].].].].].].].].].].].].].].].].].].].].].].].].].].].].].].].].].].",
"].].].].].].].].].].].].].].].].].].].].].].].].].].].].].].].].].].].].].].].].].].].].].].].].].].].].].].].].].].].].].].].].",
"].].].].].].].].].].].].].].].].].].].].].].].].. # # + + + + + + + + + . ].].].].].].].].].].].].].].].].].].].].].].].].].].].",
"].].].].].].].].].].].].].].].].].].].].].].].# ; : : : 4 4 4 4 4 4 : : % # ].].].].].].].].].].].].].].].].].].].].].].].].].].",
"].].].].].].].].].].].].].].].].].].].].].].& 6 8 5 5 e d 0 9 0 d r 0 9 q 6 & ].].].].].].].].].].].].].].].].].].].].].].].].].",
"].].].].].].].].].].].].].].].].].].].].].# w k e 4 , a z r 9 d z z r 0 d l w # ].].].].].].].].].].].].].].].].].].].].].].].].",
"].].].].].].].].].].].].].].].].].].].].].. 6 e 6 6 e k d 0 9 e f z z d f B z w & ].].].].].].].].].].].].].].].].].].].].].].].",
"].].].].].].].].].].].].].].].].].].].].. # 4 5 ; 6 k k d 0 9 9 e z N f d N V z 6 & ].].].].].].].].].].].].].].].].].].].].].].",
"].].].].].].].].].].].].].].].].].].].. $ 4 8 9 5 : 6 k f r 9 9 e z N f 0 d N V z q # ].].].].].].].].].].].].].].].].].].].].].",
"].].].].].].].].].].].].].].].].].].].7 q 9 0 0 9 4 4 r f e 9 e f z z r 9 0 f N V p # ].].].].].].].].].].].].].].].].].].].].].",
"].].].].].].].].].].].].].].].].].].# w l r 0 0 0 9 9 0 0 0 9 r z z r r e 0 0 f z e # ].].].].].].].].].].].].].].].].].].].].].",
"].].].].].].].].].].].].].].].].].].# 6 d 0 9 9 0 0 9 9 9 9 0 e d r r f f e 9 0 d e : # ].].].].].].].].].].].].].].].].].].].].",
"].].].].].].].].].].].].].].].].].].. % 5 8 5 4 8 8 : : 8 9 0 0 0 9 e f f e 9 9 0 9 5 $   ].].].].].].].].].].].].].].].].].].].",
"].].].].].].].].].].].].].].].].].].].. % 4 4 7 5 4 , $ - 8 9 9 9 9 0 e e 0 9 9 9 0 5 $   ].].].].].].].].].].].].].].].].].].].",
"].].].].].].].].].].].].].].].].].].].].. , x A i s A y # - 8 9 0 0 9 9 9 9 9 9 0 0 5 # . ].].].].].].].].].].].].].].].].].].].",
"].].].].].].].].].].].].].].].].].].].].u G =.5.L %.5.J y $ : 0 r r 0 9 9 9 8 8 9 0 8 $ . ].].].].].].].].].].].].].].].].].].].",
"].].].].].].].].].].].].].].].].].].].].F 0.b.H.x.c.n.9.J , - e z f e 0 0 9 : ; 8 9 8 - o . ].].].].].].].].].].].].].].].].].].",
"].].].].].].].].].].].].].].].].].].].X K c.^.Q.W.W.Y.a.X.t % 0 f z f r 0 9 ; - 8 0 8 - o . ].].].].].].].].].].].].].].].].].].",
"].].].].].].].].].].].].].].].].].].].X K z.K.J.T.W.Y.a.X.t % e z N z r 0 9 ; - 5 0 8 - o . ].].].].].].].].].].].].].].].].].].",
"].].].].].].].].].].].].].].].].].].].X K f.q.8.b.W.Y.p.X.t % z ^ D i 8 0 9 ; - 5 0 8 - o . ].].].].].].].].].].].].].].].].].].",
"].].].].].].].].].].].].].].].].].].].X K s.&.H f.W.Y.p.X.t % N o.^ , ; 9 9 ; - 5 0 8 - o . ].].].].].].].].].].].].].].].].].].",
"].].].].].].].].].].].].].].].].].].].= I d.U Z d.W.Y.p.X.t % z ( c % ; 9 8 ; - 8 0 8 - o . ].].].].].].].].].].].].].].].].].].",
"].].].].].].].].].].].].].].].].].].u I d.z.P C g.W.Y.p.X.t % 0 p < $ : 8 : ; 5 9 0 8 $ . . ].].].].].].].].].].].].].].].].].].",
"].].].].].].].].].].].].].].].].].].v *.z.D.>.P h.).K.q.J , - 5 ; $ $ 4 5 - : 9 0 9 5 # . ].].].].].].].].].].].].].].].].].].].",
"].].].].].].].].].].].].].].].].].].].n >.v.S.l.G.(.A.+.y $ : 8 5 - - : : - : 9 9 5 $ .   ].].].].].].].].].].].].].].].].].].].",
"].].].].].].].].].].].].].].].].].].].@ K c.^.)./.Z.:.v # - 8 9 9 8 : ; - $ : 9 9 : O .   ].].].].].].].].].].].].].].].].].].].",
"].].].].].].].].].].].].].].].].].].].X F s.K.Q.F.,.v # - 8 8 9 9 9 8 ; O O : 9 8 ; O .   ].].].].].].].].].].].].].].].].].].].",
"].].].].].].].].].].].].].].].].].].].].b L s.L.k.O.& $ 8 9 5 : 8 0 8 - o O : 8 ; $ . . ].].].].].].].].].].].].].].].].].].].].",
"].].].].].].].].].].].].].].].].].].].].].* K 7.6.D & ; 8 5 ; : 8 8 : $ O - 5 8 $ o . ].].].].].].].].].].].].].].].].].].].].].",
"].].].].].].].].].].].].].].].].].].].].].. * M / S , : 4 ; : 8 8 : $ O - 5 9 5 $ . . ].].].].].].].].].].].].].].].].].].].].].",
"].].].].].].].].].].].].].].].].].].].].].. . - c R h < - : 8 8 : $ O O - 8 5 - O . ].].].].].].].].].].].].].].].].].].].].].].",
"].].].].].].].].].].].].].].].].].].].].].. . o ].].Y 2 $ 5 0 8 - O o O - : ; O . ].].].].].].].].].].].].].].].].].].].].].].].",
"].].].].].].].].].].].].].].].].].].].].].]..   ].].W h ; 8 9 8 $ O O O O $ O o ].].].].].].].].].].].].].].].].].].].].].].].].",
"].].].].].].].].].].].].].].].].].].].].].].].].].].` Y g 5 8 5 - > 1 > o o o ].].].].].].].].].].].].].].].].].].].].].].].].].",
"].].].].].].].].].].].].].].].].].].].].].].].].].].} [ Y g : : - 3 T T 1 > - ].].].].].].].].].].].].].].].].].].].].].].].].].",
"].].].].].].].].].].].].].].].].].].].].].].].].].].} } ` Y g - - j ) _ T m ].].].].].].].].].].].].].].].].].].].].].].].].].].",
"].].].].].].].].].].].].].].].].].].].].].].].].]._ ] { } [ Y h h Y ` _ E E E ].].].].].].].].].].].].].].].].].].].].].].].].].",
"].].].].].].].].].].].].].].].].].].].].].].].].! ! ~ ` { } ` ) ) ` { _ Q ) ' ' ].].].].].].].].].].].].].].].].].].].].].].].].",
"].].].].].].].].].].].].].].].].].].].].].].].].` ` _ ! ! { } } } } { ` | -.2.y.].].].].].].].].].].].].].].].].].].].].].].].].",
"].].].].].].].].].].].].].].].].].].].].].].].].{ [ ! E ! [ } } } { ] ].].t.M.P.].].].].].].].].].].].].].].].].].].].].].].].].",
"].].].].].].].].].].].].].].].].].].].].].].].].{ ) E ! ] } } } { ` ! ].].i.V.~.].].].].].].].].].].].].].].].].].].].].].].].].",
"].].].].].].].].].].].].].].].].].].].].].].].].].~ ! ` } } } { ` ! E ].].i.V.R.].].].].].].].].].].].].].].].].].].].].].].].].",
"].].].].].].].].].].].].].].].].].].].].].].].].].[ { { } { { { _ ! E ].].i.V.R.].].].].].].].].].].].].].].].].].].].].].].].].",
"].].].].].].].].].].].].].].].].].].].].].].].].].]. .} [ _ ] { ] ! Q ].].].].].].].].].].].].].].].].].].].].].].].].].].].].].",
"].].].].].].].].].].].].].].].].].].].].].].].].].].1.<.] ~ _ ` _ ! E ].].].].].].].].].].].].].].].].].].].].].].].].].].].].].",
"].].].].].].].].].].].].].].].].].].].].].].].].].].B.4.#.$.' ) ) ) ) ].].].].].].].].].].].].].].].].].].].].].].].].].].].].].",
"].].].].].].].].].].].].].].].].].].].].].].].].].].R.B.j.u.3.@.;.-.-.].].].].].].].].].].].].].].].].].].].].].].].].].].].].].",
"].].].].].].].].].].].].].].].].].].].].].].].].].~.~.~.R.R.].].w.w.w.r.].].].].].].].].].].].].].].].].].].].].].].].].].].].].",
"].].].].].].].].].].].].].].].].].].].].].].].].~.~.~.~.~.].].].e.e.e.e.].].].].].].].].].].].].].].].].].].].].].].].].].].].].",
"].].].].].].].].].].].].].].].].].].].].].].].].~.~.R.U.V.].].].].e.e.e.e.].].].].].].].].].].].].].].].].].].].].].].].].].].].",
"].].].].].].].].].].].].].].].].].].].].].].].].~.~.I.N.t.].].].].e.e.e.e.].].].].].].].].].].].].].].].].].].].].].].].].].].].",
"].].].].].].].].].].].].].].].].].].].].].].].].]._.I.m.t.].].].].].e.e.e.].].].].].].].].].].].].].].].].].].].].].].].].].].].",
"].].].].].].].].].].].].].].].].].].].].].].].].].].E.L.C.].].].].a.t.e.].].].].].].].].].].].].].].].].].].].].].].].].].].].].",
"].].].].].].].].].].].].].].].].].].].].].].].].].].].`.'.].].].R.M.t.].].].].].].].].].].].].].].].].].].].].].].].].].].].].].",
"].].].].].].].].].].].].].].].].].].].].].].].].].].].].].].].].].].].].].].].].].].].].].].].].].].].].].].].].].].].].].].].].",
"].].].].].].].].].].].].].].].].].].].].].].].].].].].].].].].].].].].].].].].].].].].].].].].].].].].].].].].].].].].].].].].]."
};
