/* XPM */
static const char *player_3_4[] = {
/* columns rows colors chars-per-pixel */
"64 64 181 2 ",
"   c #260903",
".  c #2B0B01",
"X  c #240D09",
"o  c #340C00",
"O  c #390D01",
"+  c #2F1002",
"@  c #331203",
"#  c #3C1402",
"$  c #3D1903",
"%  c #371209",
"&  c #3D1A09",
"*  c #38170D",
"=  c #391E15",
"-  c #321610",
";  c #3B2015",
":  c #421503",
">  c #451B03",
",  c #4A1D03",
"<  c #4E160A",
"1  c #431E09",
"2  c #4C180B",
"3  c #561E0C",
"4  c #5C1E15",
"5  c #641F16",
"6  c #462004",
"7  c #4C2204",
"8  c #452009",
"9  c #4A230B",
"0  c #512604",
"q  c #562A05",
"w  c #592C06",
"e  c #51250D",
"r  c #542A0C",
"t  c #5B2F09",
"y  c #5E310A",
"u  c #4A2510",
"i  c #442215",
"p  c #532C15",
"a  c #532D1A",
"s  c #5B3113",
"d  c #5D351A",
"f  c #62340C",
"g  c #6A390F",
"h  c #652114",
"j  c #6D2419",
"k  c #672816",
"l  c #74261C",
"z  c #70281A",
"x  c #633511",
"c  c #673811",
"v  c #6C3B11",
"b  c #67331A",
"n  c #703E14",
"m  c #713F18",
"M  c #4C382C",
"N  c #553B2D",
"B  c #5C3F2E",
"V  c #413B32",
"C  c #593F32",
"Z  c #573333",
"A  c #7D2A21",
"S  c #744116",
"D  c #7A4619",
"F  c #724018",
"G  c #5A4032",
"H  c #6F4627",
"J  c #764625",
"K  c #694737",
"L  c #6B5242",
"P  c #715947",
"I  c #685E52",
"U  c #7E6553",
"Y  c #842F24",
"T  c #883625",
"R  c #94352B",
"E  c #9B362F",
"W  c #9C3630",
"Q  c #A23C32",
"!  c #854924",
"~  c #895528",
"^  c #92552D",
"/  c #8D5B33",
"(  c #A64132",
")  c #AC4335",
"_  c #AD4A35",
"`  c #B14737",
"'  c #B24C36",
"]  c #B44A39",
"[  c #B94D3A",
"{  c #AC5435",
"}  c #B35536",
"|  c #B65D36",
" . c #B9533D",
".. c #B95E3C",
"X. c #B75138",
"o. c #8B613D",
"O. c #9F6633",
"+. c #B76739",
"@. c #BE5A43",
"#. c #BC5640",
"$. c #866447",
"%. c #8E6B4B",
"&. c #9A6E58",
"*. c #BC6342",
"=. c #B86644",
"-. c #A97A4C",
";. c #BF7542",
":. c #BD754D",
">. c #BA7550",
",. c #8F6A63",
"<. c #837663",
"1. c #9D7D66",
"2. c #976F7C",
"3. c #A87C61",
"4. c #C17C43",
"5. c #C36852",
"6. c #C47857",
"7. c #C97A61",
"8. c #AE855C",
"9. c #BD8B5D",
"0. c #9A8B75",
"q. c #968A74",
"w. c #A68366",
"e. c #A18B72",
"r. c #AC8F76",
"t. c #AB947B",
"y. c #CB8C57",
"u. c #CC8754",
"i. c #CE935C",
"p. c #D29A5D",
"a. c #D09759",
"s. c #CC8864",
"d. c #CB966A",
"f. c #CD9360",
"g. c #D29F6B",
"h. c #D49F66",
"j. c #D08F70",
"k. c #C59D70",
"l. c #D19F70",
"z. c #D4A26A",
"x. c #C7A07D",
"c. c #DAAF7D",
"v. c #D3A67F",
"b. c #DAB07D",
"n. c #AA8086",
"m. c #B39C82",
"M. c #A99889",
"N. c #BBA58A",
"B. c #C19E81",
"V. c #C8AA8C",
"C. c #D9AE83",
"Z. c #DEB685",
"A. c #DDB689",
"S. c #C3AF97",
"D. c #DCAD91",
"F. c #CCB595",
"G. c #C9B699",
"H. c #DDBB96",
"J. c #D7B796",
"K. c #E0BE92",
"L. c #CEAFA4",
"P. c #CDA2B7",
"I. c #D3ADB5",
"U. c #D5B6B6",
"Y. c #DDC39E",
"T. c #E2C49B",
"R. c #D3C1A3",
"E. c #DCC4A5",
"W. c #E3C7A3",
"Q. c #E6CCA7",
"!. c #E5CDAA",
"~. c #E8D2AF",
"^. c #E8C7BA",
"/. c #E7D5B4",
"(. c #EBD5B1",
"). c #EBD8B7",
"_. c #ECD4BD",
"`. c #ECDAB9",
"'. c #E8C2CC",
"]. c #FF00FF",
"[. c black",
/* pixels */
"].].].].].].].].].].].].].].].].].].].].].].].].].].].].].].].].].].].].].].].].].].].].].].].].].].].].].].].].].].].].].].].].",
"].].].].].].].].].].].].].].].].].].].].].].].].].].].].].].].].].].].].].].].].].].].].].].].].].].].].].].].].].].].].].].].].",
"].].].].].].].].].].].].].].].].].].].].].].].].].].].].].].].].].].].].].].].].].].].].].].].].].].].].].].].].].].].].].].].].",
"].].].].].].].].].].].].].].].].].].].].].].].].].].].].].].].].].].].].].].].].].].].].].].].].].].].].].].].].].].].].].].].].",
"].].].].].].].].].].].].].].].].].].].].].].].].].].].].].].].].].].].].].].].].].].].].].].].].].].].].].].].].].].].].].].].].",
"].].].].].].].].].].].].].].].].].].].].].].].].].].].].].].].].].].].].].].].].].].].].].].].].].].].].].].].].].].].].].].].].",
"].].].].].].].].].].].].].].].].].].].].].].].].].].].].].].].].].].].].].].].].].].].].].].].].].].].].].].].].].].].].].].].].",
"].].].].].].].].].].].].].].].].].].].].].].].].].].].].].].].].].].].].].].].].].].].].].].].].].].].].].].].].].].].].].].].].",
"].].].].].].].].].].].].].].].].].].].].].].].].].].].].].].].].].].].].].].].].].].].].].].].].].].].].].].].].].].].].].].].].",
"].].].].].].].].].].].].].].].].].].].].].].].].].].].].].].].].].].].].].].].].].].].].].].].].].].].].].].].].].].].].].].].].",
"].].].].].].].].].].].].].].].].].].].].].].].].. @ @ + + + + + + @ @ + . ].].].].].].].].].].].].].].].].].].].].].].].].].].].",
"].].].].].].].].].].].].].].].].].].].].].].].@ > , 6 6 6 6 6 6 6 , , , $ @ ].].].].].].].].].].].].].].].].].].].].].].].].].].",
"].].].].].].].].].].].].].].].].].].].].].].& 9 q q w f f w q w f r 7 0 0 9 & ].].].].].].].].].].].].].].].].].].].].].].].].].",
"].].].].].].].].].].].].].].].].].].].].].& p c y w f v v y w f v t > 7 y x 9 . ].].].].].].].].].].].].].].].].].].].].].].].].",
"].].].].].].].].].].].].].].].].].].].].& p m S f f v v f w w t f x r 8 9 y 8 . ].].].].].].].].].].].].].].].].].].].].].].].].",
"].].].].].].].].].].].].].].].].].].].& r F D n f g S f w q q w f c s 8 > 7 , @ ].].].].].].].].].].].].].].].].].].].].].].].].",
"].].].].].].].].].].].].].].].].].].% p m D v f t g S f w q q y c y 8 6 7 q 0 , % ].].].].].].].].].].].].].].].].].].].].].].].",
"].].].].].].].].].].].].].].].].].].% x D n f w w f v v f w q y f t , 7 q w w q e 1 ].].].].].].].].].].].].].].].].].].].].].].",
"].].].].].].].].].].].].].].].].].. $ s v f w w t y f v v t q w w w q q w w w y c r @ ].].].].].].].].].].].].].].].].].].].].].",
"].].].].].].].].].].].].].].].].. # 7 t f w q y c f t f f w q q q q q q q q q t y 9 . ].].].].].].].].].].].].].].].].].].].].].",
"].].].].].].].].].].].].].].].].. $ q w w q q y c f w q w w w q 7 , 7 0 0 7 7 q 7 $ . ].].].].].].].].].].].].].].].].].].].].].",
"].].].].].].].].].].].].].].].].. $ q w q q q w y t w q q q q 7 : & 1 7 7 8 7 7 # . ].].].].].].].].].].].].].].].].].].].].].].",
"].].].].].].].].].].].].].].].].. $ q w w w w w w q w w w q 7 # % a H s s H d $ . ].].].].].].].].].].].].].].].].].].].].].].].",
"].].].].].].].].].].].].].].].].. $ q w q 0 q q w q w y y q > # a o.8.$.$.8.%.B ].].].].].].].].].].].].].].].].].].].].].].].].",
"].].].].].].].].].].].].].].].. o > q w 7 > 7 q w w y c g q # u o.k.H.F.F.Y.F.e.N ].].].].].].].].].].].].].].].].].].].].].].].",
"].].].].].].].].].].].].].].  . o > q w 7 : , q w f g v f q # p -.Z.(.`.`.`.`.N.G X ].].].].].].].].].].].].].].].].].].].].].].",
"].].].].].].].].].].].].].].  . o > q w 7 # , q w f v F c q # p -.Z.(.`.!.E.!.N.C X ].].].].].].].].].].].].].].].].].].].].].].",
"].].].].].].].].].].].].].].  . o > q w 7 : , q q 7 s ~ ~ y # p -.Z.(.(.V.3.B.m.G X ].].].].].].].].].].].].].].].].].].].].].].",
"].].].].].].].].].].].].].].  . o > q w 7 : , q q > 9 / O.c # p -.Z.(./.r.K 1.t.C   ].].].].].].].].].].].].].].].].].].].].].].",
"].].].].].].].].].].].].].].  . o > q w 7 : , q q > 1 J ~ f $ p -.Z.(./.0.M <.m.L = ].].].].].].].].].].].].].].].].].].].].].].",
"].].].].].].].].].].].].].].].. o > q w 0 , > , 0 , # e f q $ p -.Z.(./.q.V <.G.t.P = ].].].].].].].].].].].].].].].].].].].].].",
"].].].].].].].].].].].].].].].].. # 7 q q 0 > : 7 , # # , 7 $ u o.x.^._.M.I 0.R.N.U ; ].].].].].].].].].].].].].].].].].].].].].",
"].].].].].].].].].].].].].].].].  o : 0 w q > : 7 , # > 7 0 > & a ,.I.'.U.S.R.S.U M ].].].].].].].].].].].].].].].].].].].].].].",
"].].].].].].].].].].].].].].].].  . # 7 w q > # > > , 0 w q 7 # % Z 2.P.'._.`.N.C X ].].].].].].].].].].].].].].].].].].].].].].",
"].].].].].].].].].].].].].].].].  . O , q 0 > O O > 0 q q q 0 7 # % Z n.^._.E.t.N ].].].].].].].].].].].].].].].].].].].].].].].",
"].].].].].].].].].].].].].].].].].. o # , 0 > O O > q q 0 , 7 q 7 @ i &.H.E.e.L ].].].].].].].].].].].].].].].].].].].].].].].].",
"].].].].].].].].].].].].].].].].].].. o : 0 7 > : > , 7 , > , 7 0 $ 8 / 9.w.K - ].].].].].].].].].].].].].].].].].].].].].].].].",
"].].].].].].].].].].].].].].].].].].. o : 0 q 0 0 , : : , , > > 7 > 9 ! ^ b *   ].].].].].].].].].].].].].].].].].].].].].].].].",
"].].].].].].].].].].].].].].].].].].].. o > 0 0 , 3 j j h , , , > 2 z T b # .   ].].].].].].].].].].].].].].].].].].].].].].].].",
"].].].].].].].].].].].].].].].].].].].. . O > , : h R E l < , 7 # 4 T ].].o .   ].].].].].].].].].].].].].].].].].].].].].].].].",
"].].].].].].].].].].].].].].].].].].].].].o # # : z ( Q A < , 7 : 5 R ].].. . ].].].].].].].].].].].].].].].].].].].].].].].].].",
"].].].].].].].].].].].].].].].].].].].].].O O O : Y ' ` R j 3 > : 5 R ].].].].].].].].].].].].].].].].].].].].].].].].].].].].].",
"].].].].].].].].].].].].].].].].].].].].].].O O ].) [ [ ) R j 2 : h R ].].].].].].].].].].].].].].].].].].].].].].].].].].].].].",
"].].].].].].].].].].].].].].].].].].].].].].].].R ) [ [ ` Q Y j < j Q ].].].].].].].].].].].].].].].].].].].].].].].].].].].].].",
"].].].].].].].].].].].].].].].].].].].].].].].].Q ) ] [ ) Q Q R l Y Q ) ].].].].].].].].].].].].].].].].].].].].].].].].].].].].",
"].].].].].].].].].].].].].].].].].].].].].].].].[  .@.#.' ( ) ) R R Q Q Q ].].].].].].].].].].].].].].].].].].].].].].].].].].].",
"].].].].].].].].].].].].].].].].].].].].].].].].+.6.j.s.=.} ' ) E E ) ) ) ].].].].].].].].].].].].].].].].].].].].].].].].].].].",
"].].].].].].].].].].].].].].].].].].].].].].].].+.d.T.A.f.;..._ W W ) ] [ ].].].].].].].].].].].].].].].].].].].].].].].].].].].",
"].].].].].].].].].].].].].].].].].].].].].].].].+.d.W.Q.A.i.;.| _ Q W ) [ ].].].].].].].].].].].].].].].].].].].].].].].].].].].",
"].].].].].].].].].].].].].].].].].].].].].].].].{ >.v.W.T.z.4.+.X.) Q ) ].].].].].].].].].].].].].].].].].].].].].].].].].].].].",
"].].].].].].].].].].].].].].].].].].].].].].].].( { :.C.T.h.;.| X.] ) ].].].].].].].].].].].].].].].].].].].].].].].].].].].].].",
"].].].].].].].].].].].].].].].].].].].].].].].].) ' ..s.].].*. .[ ] ) ].].].].].].].].].].].].].].].].].].].].].].].].].].].].].",
"].].].].].].].].].].].].].].].].].].].].].].].]. .5.7.s.].].7.@.*.*.=.:.].].].].].].].].].].].].].].].].].].].].].].].].].].].].",
"].].].].].].].].].].].].].].].].].].].].].].].].].D.H.C.Z.Q.].].u.y.y.i.p.].].].].].].].].].].].].].].].].].].].].].].].].].].].",
"].].].].].].].].].].].].].].].].].].].].].].].].].].(.T.T.~.].].p.p.p.p.p.].].].].].].].].].].].].].].].].].].].].].].].].].].].",
"].].].].].].].].].].].].].].].].].].].].].].].].].).).(.(.).].].p.p.p.p.].].].].].].].].].].].].].].].].].].].].].].].].].].].].",
"].].].].].].].].].].].].].].].].].].].].].].].].).).).`.`.].].].p.p.p.].].].].].].].].].].].].].].].].].].].].].].].].].].].].].",
"].].].].].].].].].].].].].].].].].].].].].].].].`.`.`.).].].].].p.p.p.].].].].].].].].].].].].].].].].].].].].].].].].].].].].].",
"].].].].].].].].].].].].].].].].].].].].].].].].Q.Q.Q.].].].].].l.g.].].].].].].].].].].].].].].].].].].].].].].].].].].].].].].",
"].].].].].].].].].].].].].].].].].].].].].].].].b.c.c.].].].].].L.L.].].].].].].].].].].].].].].].].].].].].].].].].].].].].].].",
"].].].].].].].].].].].].].].].].].].].].].].].].p.p.h.Z.].].].].].].].].].].].].].].].].].].].].].].].].].].].].].].].].].].].].",
"].].].].].].].].].].].].].].].].].].].].].].].].].a.z.K.].].].].].].].].].].].].].].].].].].].].].].].].].].].].].].].].].].].].",
"].].].].].].].].].].].].].].].].].].].].].].].].].].].].].].].].].].].].].].].].].].].].].].].].].].].].].].].].].].].].].].].].",
"].].].].].].].].].].].].].].].].].].].].].].].].].].].].].].].].].].].].].].].].].].].].].].].].].].].].].].].].].].].].].].].]."
};
