/* XPM */
static const char *player_0_0[] = {
/* columns rows colors chars-per-pixel */
"64 64 187 2 ",
"   c #030202",
".  c #0C0402",
"X  c #0D0905",
"o  c #0F0D0B",
"O  c #160504",
"+  c #1C0602",
"@  c #1F0708",
"#  c #110E0B",
"$  c #12110E",
"%  c #1F130B",
"&  c #161411",
"*  c #260902",
"=  c #2C0B01",
"-  c #200B08",
";  c #240700",
":  c #340C01",
">  c #390E01",
",  c #3C0F09",
"<  c #2F1002",
"1  c #2C110D",
"2  c #2B1B0F",
"3  c #341203",
"4  c #3C1301",
"5  c #3E1903",
"6  c #3F120C",
"7  c #37190B",
"8  c #370E10",
"9  c #390E10",
"0  c #281C10",
"q  c #271D13",
"w  c #361B15",
"e  c #26231E",
"r  c #29241C",
"t  c #3F2817",
"y  c #392918",
"u  c #3E2313",
"i  c #2A2721",
"p  c #2E2A24",
"a  c #382F23",
"s  c #39352D",
"d  c #421602",
"f  c #451A03",
"g  c #4A1D04",
"h  c #43120C",
"j  c #4D1E09",
"k  c #431E0A",
"l  c #441111",
"z  c #4A1312",
"x  c #461C15",
"c  c #4D1E17",
"v  c #521C14",
"b  c #581715",
"n  c #641C1A",
"m  c #4D2204",
"M  c #4C230B",
"N  c #462004",
"B  c #512505",
"V  c #562A05",
"C  c #582C06",
"Z  c #53240A",
"A  c #552B0D",
"S  c #5C2E09",
"D  c #5B2C0A",
"F  c #5E3109",
"G  c #5E3009",
"H  c #4B261A",
"J  c #592E11",
"K  c #552918",
"L  c #47331E",
"P  c #5E3010",
"I  c #53341D",
"U  c #61330B",
"Y  c #63330B",
"T  c #63340B",
"R  c #62320E",
"E  c #63350E",
"W  c #65350D",
"Q  c #64350D",
"!  c #69390F",
"~  c #69390F",
"^  c #67261C",
"/  c #643312",
"(  c #693713",
")  c #6B3A10",
"_  c #6A3911",
"`  c #6E3D13",
"'  c #6F3D15",
"]  c #6D3B13",
"[  c #713E15",
"{  c #713E15",
"}  c #4B2E25",
"|  c #443320",
" . c #563E24",
".. c #433E35",
"X. c #762521",
"o. c #7D2625",
"O. c #712F25",
"+. c #7D3227",
"@. c #754216",
"#. c #744116",
"$. c #764218",
"%. c #794519",
"&. c #7E491B",
"*. c #784417",
"=. c #5B452D",
"-. c #574229",
";. c #474137",
":. c #514B3F",
">. c #5F4C36",
",. c #654229",
"<. c #604B33",
"1. c #62513D",
"2. c #7C5D3D",
"3. c #514C40",
"4. c #5B5245",
"5. c #565044",
"6. c #635543",
"7. c #675D4D",
"8. c #78584A",
"9. c #675F51",
"0. c #695F51",
"q. c #6A6252",
"w. c #716757",
"e. c #812726",
"r. c #872A28",
"t. c #8C2D2A",
"y. c #833027",
"u. c #833228",
"i. c #8A392B",
"p. c #88382C",
"a. c #96362D",
"s. c #96382E",
"d. c #903F31",
"f. c #9E3A30",
"g. c #A43C32",
"h. c #A83F34",
"j. c #814A1D",
"k. c #814B1D",
"l. c #83422E",
"z. c #9C4B3C",
"x. c #96593A",
"c. c #A44133",
"v. c #AC4335",
"b. c #B14737",
"n. c #B34837",
"m. c #B54A39",
"M. c #B94D3A",
"N. c #8F653E",
"B. c #A35244",
"V. c #AE5C4E",
"C. c #B05F51",
"Z. c #806241",
"A. c #966E45",
"S. c #B57F51",
"D. c #897B66",
"F. c #9D7A67",
"G. c #937D62",
"H. c #AF8759",
"J. c #B78659",
"K. c #8D816C",
"L. c #968469",
"P. c #978B75",
"I. c #9A8C76",
"U. c #9C8F78",
"Y. c #AF946F",
"T. c #BE9567",
"R. c #B89C77",
"E. c #C18F5E",
"W. c #C39868",
"Q. c #D19D6A",
"!. c #CBA77B",
"~. c #B2A084",
"^. c #C9A38B",
"/. c #CDAF89",
"(. c #D0B28A",
"). c #C3AF91",
"_. c #D8B196",
"`. c #DBBD93",
"'. c #E3BB8A",
"]. c #E5C499",
"[. c #D7C5A6",
"{. c #D6C6A8",
"}. c #ECD9B7",
"|. c #ECDAB9",
" X c #EBD7B6",
".X c #FF00FF",
"XX c black",
/* pixels */
".X.X.X.X.X.X.X.X.X.X.X.X.X.X.X.X.X.X.X.X.X.X.X.X.X.X.X.X.X.X.X.X.X.X.X.X.X.X.X.X.X.X.X.X.X.X.X.X.X.X.X.X.X.X.X.X.X.X.X.X.X.X.X.X",
".X.X.X.X.X.X.X.X.X.X.X.X.X.X.X.X.X.X.X.X.X.X.X.X.X.X.X.X.X.X.X.X.X.X.X.X.X.X.X.X.X.X.X.X.X.X.X.X.X.X.X.X.X.X.X.X.X.X.X.X.X.X.X.X",
".X.X.X.X.X.X.X.X.X.X.X.X.X.X.X.X.X.X.X.X.X.X.X.X.X.X.X.X.X.X.X.X.X.X.X.X.X.X.X.X.X.X.X.X.X.X.X.X.X.X.X.X.X.X.X.X.X.X.X.X.X.X.X.X",
".X.X.X.X.X.X.X.X.X.X.X.X.X.X.X.X.X.X.X.X.X.X.X.X.X.X.X.X.X.X.X.X.X.X.X.X.X.X.X.X.X.X.X.X.X.X.X.X.X.X.X.X.X.X.X.X.X.X.X.X.X.X.X.X",
".X.X.X.X.X.X.X.X.X.X.X.X.X.X.X.X.X.X.X.X.X.X.X.X.X.X.X.X.X.X.X.X.X.X.X.X.X.X.X.X.X.X.X.X.X.X.X.X.X.X.X.X.X.X.X.X.X.X.X.X.X.X.X.X",
".X.X.X.X.X.X.X.X.X.X.X.X.X.X.X.X.X.X.X.X.X.X.X.X.X.X.X.X.X.X.X.X.X.X.X.X.X.X.X.X.X.X.X.X.X.X.X.X.X.X.X.X.X.X.X.X.X.X.X.X.X.X.X.X",
".X.X.X.X.X.X.X.X.X.X.X.X.X.X.X.X.X.X.X.X.X.X.X.X.X.X.X.X.X.X.X.X.X.X.X.X.X.X.X.X.X.X.X.X.X.X.X.X.X.X.X.X.X.X.X.X.X.X.X.X.X.X.X.X",
".X.X.X.X.X.X.X.X.X.X.X.X.X.X.X.X.X.X.X.X.X.X.X.X.X.X.X.X.X.X.X.X.X.X.X.X.X.X.X.X.X.X.X.X.X.X.X.X.X.X.X.X.X.X.X.X.X.X.X.X.X.X.X.X",
".X.X.X.X.X.X.X.X.X.X.X.X.X.X.X.X.X.X.X.X.X.X.X.X.X.X.X.X.X.X.X.X.X.X.X.X.X.X.X.X.X.X.X.X.X.X.X.X.X.X.X.X.X.X.X.X.X.X.X.X.X.X.X.X",
".X.X.X.X.X.X.X.X.X.X.X.X.X.X.X.X.X.X.X.X.X.X.X.X.X.X.X.X.X.X.X.X.X.X.X.X.X.X.X.X.X.X.X.X.X.X.X.X.X.X.X.X.X.X.X.X.X.X.X.X.X.X.X.X",
".X.X.X.X.X.X.X.X.X.X.X.X.X.X.X.X.X.X.X.X.X.X.X.X.X.X.X.X.X.X.X.X.X.X.X.X.X.X.X.X.X.X.X.X.X.X.X.X.X.X.X.X.X.X.X.X.X.X.X.X.X.X.X.X",
".X.X.X.X.X.X.X.X.X.X.X.X.X.X.X.X.X.X.X.X.X.X.X.X.X.X.X.X.X.X.X.X.X.X.X.X.X.X.X.X.X.X.X.X.X.X.X.X.X.X.X.X.X.X.X.X.X.X.X.X.X.X.X.X",
".X.X.X.X.X.X.X.X.X.X.X.X.X.X.X.X.X.X.X.X.X.X.X.X.X.X.X.X.X.X.X.X.X.X.X.X.X.X.X.X.X.X.X.X.X.X.X.X.X.X.X.X.X.X.X.X.X.X.X.X.X.X.X.X",
".X.X.X.X.X.X.X.X.X.X.X.X.X.X.X.X.X.X.X.X.X.X.X.X* = 3 3 3 3 .X.X3 3 3 3 = * .X.X.X.X.X.X.X.X.X.X.X.X.X.X.X.X.X.X.X.X.X.X.X.X.X.X",
".X.X.X.X.X.X.X.X.X.X.X.X.X.X.X.X.X.X.X.X.X.X* * : k A J J A k 7 A J J J M 3 * * * .X.X.X.X.X.X.X.X.X.X.X.X.X.X.X.X.X.X.X.X.X.X.X",
".X.X.X.X.X.X.X.X.X.X.X.X.X.X.X.X.X.X.X.X.X* = 3 5 Z ] ] ( / A M P ( ( ' R f 3 3 = * .X.X.X.X.X.X.X.X.X.X.X.X.X.X.X.X.X.X.X.X.X.X",
".X.X.X.X.X.X.X.X.X.X.X.X.X.X.X.X.X.X.X* = > d m B C S Z j M D / Z g Z C S B m g 4 : * .X.X.X.X.X.X.X.X.X.X.X.X.X.X.X.X.X.X.X.X.X",
".X.X.X.X.X.X.X.X.X.X.X.X.X.X.X.X.X.X.X3 5 f B V V B g f f g S R B f f g m V C B g d 4 3 .X.X.X.X.X.X.X.X.X.X.X.X.X.X.X.X.X.X.X.X",
".X.X.X.X.X.X.X.X.X.X.X.X.X.X.X.X.X= 3 m V V V C V m f g M B C C V B m f g B C V V C B 5 = .X.X.X.X.X.X.X.X.X.X.X.X.X.X.X.X.X.X.X",
".X.X.X.X.X.X.X.X.X.X.X.X.X.X.X.X* 3 M E ! F C C V B g f g V C C V m f g B V C C C Q ) A 5 = .X.X.X.X.X.X.X.X.X.X.X.X.X.X.X.X.X.X",
".X.X.X.X.X.X.X.X.X.X.X.X.X.X.X.X= k E *.#.U F U S C B d g S F C V g d m V C F U F ) %.` Z 3 .X.X.X.X.X.X.X.X.X.X.X.X.X.X.X.X.X.X",
".X.X.X.X.X.X.X.X.X.X.X.X.X.X.X.X= M $.k.#.T ) { U C B d M ) ! S C g d g V S ) ` E ) &.&.P 3 .X.X.X.X.X.X.X.X.X.X.X.X.X.X.X.X.X.X",
".X.X.X.X.X.X.X.X.X.X.X.X.X.X.X.X= M %.k.#.E ` @.T C B f Z [ ) U Q Z d g V S ` @.Q ) &.k./ 3 .X.X.X.X.X.X.X.X.X.X.X.X.X.X.X.X.X.X",
".X.X.X.X.X.X.X.X.X.X.X.X.X.X.X.X= M ' *.) U ! ` U C B f Z [ ) U Q A g m V C ! ` U Q @.@.D 3 .X.X.X.X.X.X.X.X.X.X.X.X.X.X.X.X.X.X",
".X.X.X.X.X.X.X.X.X.X.X.X.X.X.X.X= k S U F C F F C C B d Z ' ! V g g B V V C F F C S U U M 3 .X.X.X.X.X.X.X.X.X.X.X.X.X.X.X.X.X.X",
".X.X.X.X.X.X.X.X.X.X.X.X.X.X.X.X* 5 B C C V C C C C B d g R T B d f V C C V C C C C C V N < .X.X.X.X.X.X.X.X.X.X.X.X.X.X.X.X.X.X",
".X.X.X.X.X.X.X.X.X.X.X.X.X.X.X.X= 5 B C C C C C C C B f f B C B f g V C C C C C C V C V g 3 * .X.X.X.X.X.X.X.X.X.X.X.X.X.X.X.X.X",
".X.X.X.X.X.X.X.X.X.X.X.X.X.X.X* : d B C C C C C C C V B g f m B B B V C C C C C C V C V m 3 = * .X.X.X.X.X.X.X.X.X.X.X.X.X.X.X.X",
".X.X.X.X.X.X.X.X.X.X.X.X.X.X* * : d m V V V V V V V C V B f g m V V C C V V V V V C V B f > = * .X.X.X.X.X.X.X.X.X.X.X.X.X.X.X.X",
".X.X.X.X.X.X.X.X.X.X.X.X.X.X* = > > d m V C C S S C C C V B f f B C C C C C S C C C B f 4 > : * .X.X.X.X.X.X.X.X.X.X.X.X.X.X.X.X",
".X.X.X.X.X.X.X.X.X.X.X.X.X.X* : 5 d 4 m V C Q ` ` Q C V C V f d m V V C U ) ` ! F C B d 4 d 3 * .X.X.X.X.X.X.X.X.X.X.X.X.X.X.X.X",
".X.X.X.X.X.X.X.X.X.X.X.X.X.X* 3 m m f B F S R [ %.` S F F V f d B F F S Q @.$.( S S S g g m 5 = .X.X.X.X.X.X.X.X.X.X.X.X.X.X.X.X",
".X.X.X.X.X.X.X.X.X.X.X.X.X.X* 3 m B V Q ) S m A [ ` E ) ] C d d B Q { Q ! @./ Z V Q ] S B B 5 * .X.X.X.X.X.X.X.X.X.X.X.X.X.X.X.X",
".X.X.X.X.X.X.X.X.X.X.X.X.X.X* = d B S Q Q C f g ] @.[ @.] B 4 > g R *.#.#.$.A d B U ! U V g 3 * .X.X.X.X.X.X.X.X.X.X.X.X.X.X.X.X",
".X.X.X.X.X.X.X.X.X.X.X.X.X.X* = > f B C C V f g ] k.k.&.( f > : 4 A %.k.k.%.A d m C C V g 4 = * .X.X.X.X.X.X.X.X.X.X.X.X.X.X.X.X",
".X.X.X.X.X.X.X.X.X.X.X.X.X.X* * : 4 f B C V f g ] k.k.&./ d : : > A %.k.k.%.A d m C V g 4 > = * .X.X.X.X.X.X.X.X.X.X.X.X.X.X.X.X",
".X.X.X.X.X.X.X.X.X.X.X.X.X.X.X* : : 4 m C V f g ] $.] ] D d : : > Z ) ] [ $.A d m C B d > : = * .X.X.X.X.X.X.X.X.X.X.X.X.X.X.X.X",
".X.X.X.X.X.X.X.X.X.X.X.X.X.X.X.X* = 4 g V V f g / / Z B m 4 : : > f B B A ( Z d m V M d : * * .X.X.X.X.X.X.X.X.X.X.X.X.X.X.X.X.X",
".X.X.X.X.X.X.X.X.X.X.X.X.X.X.X.X* = > 5 g B f d j Z g f d > : : > 4 f g m Z f d m m 5 4 : * .X.X.X.X.X.X.X.X.X.X.X.X.X.X.X.X.X.X",
".X.X.X.X.X.X.X.X.X.X.X.X.X.X.X.X* = : 3 k B g d d g g 5 > : > > > : 4 f g d d f B m 4 : : * .X.X.X.X.X.X.X.X.X.X.X.X.X.X.X.X.X.X",
".X.X.X.X.X.X.X.X.X.X.X.X.X.X.X.X.X* : 5 M V V B m g 5 : = : > > > : = 4 f m B B V B g 3 * .X.X.X.X.X.X.X.X.X.X.X.X.X.X.X.X.X.X.X",
".X.X.X.X.X.X.X.X.X.X.X.X.X.X.X.X.X.X= 5 m V C C C B d > = : : : : = : 5 m V C C C B f 3 * .X.X.X.X.X.X.X.X.X.X.X.X.X.X.X.X.X.X.X",
".X.X.X.X.X.X.X.X.X.X.X.X.X.X.X.X.X.X* : d m B B B V B f > = : : = : 5 m B B B B B g 4 = * .X.X.X.X.X.X.X.X.X.X.X.X.X.X.X.X.X.X.X",
".X.X.X.X.X.X.X.X.X.X.X.X.X.X.X.X.X.X.X* > 5 5 4 d m V B 5 = = : = 3 m V B f 5 4 5 4 = * .X.X.X.X.X.X.X.X.X.X.X.X.X.X.X.X.X.X.X.X",
".X.X.X.X.X.X.X.X.X.X.X.X.X.X.X.X.X.X.X.X= = = = > d g m d : = = = 4 g m f > = * = = * .X.X.X.X.X.X.X.X.X.X.X.X.X.X.X.X.X.X.X.X.X",
".X.X.X.X.X.X.X.X.X.X.X.X.X.X.X.X.X.X.X.X* * * * : > 4 4 > > > : : > 4 4 > > = * * * .X.X.X.X.X.X.X.X.X.X.X.X.X.X.X.X.X.X.X.X.X.X",
".X.X.X.X.X.X.X.X.X.X.X.X.X.X.X.X.X.X.X.X* = : = = = = : : > h z , : : : = = = : = = .X.X.X.X.X.X.X.X.X.X.X.X.X.X.X.X.X.X.X.X.X.X",
".X.X.X.X.X.X.X.X.X.X.X.X.X.X.X.X.X.X.X+ ; = : > 6 h , > * * 6 z = * : , h h , : = * + .X.X.X.X.X.X.X.X.X.X.X.X.X.X.X.X.X.X.X.X.X",
".X.X.X.X.X.X.X.X.X.X.X.X.X.X.X.X.X.X.X. + = = 6 ^ o.n h * O + @ O + : b X.X.v : = - . .X.X.X.X.X.X.X.X.X.X.X.X.X.X.X.X.X.X.X.X.X",
".X.X.X.X.X.X.X.X.X.X.X.X.X.X.X.X.X.X.X  2 I u 6 y.f.r.n z 9 8 8 9 l b o.a.a.v 7 I t X .X.X.X.X.X.X.X.X.X.X.X.X.X.X.X.X.X.X.X.X.X",
".X.X.X.X.X.X.X.X.X.X.X.X.X.X.X.X.X.X.Xr <.A.,.H i.v.f.t.e.o.o.o.o.e.r.a.v.c.^ I N.2.a .X.X.X.X.X.X.X.X.X.X.X.X.X.X.X.X.X.X.X.X.X",
".X.X.X.X.X.X.X.X.X.X.X.X.X.X.X.X.X.Xe w.Y.E.x.+.c.n.b.v.h.h.h.h.h.h.v.v.n.v.p.l.S.T.D.;..X.X.X.X.X.X.X.X.X.X.X.X.X.X.X.X.X.X.X.X",
".X.X.X.X.X.X.X.X.X.X.X.X.X.X.X.X.X.Xp P.].Q.x.+.f.n.M.n.v.v.v.b.n.M.M.n.b.c.u.l.J.'.).5.o .X.X.X.X.X.X.X.X.X.X.X.X.X.X.X.X.X.X.X",
".X.X.X.X.X.X.X.X.X.X.X.X.X.X.X.X.X.Xi K./.H.,.x y.v.b.v.g.h.h.v.n.M.n.v.h.a.K H A.!.~.3.o .X.X.X.X.X.X.X.X.X.X.X.X.X.X.X.X.X.X.X",
".X.X.X.X.X.X.X.X.X.X.X.X.X.X.X.X.X.X.X:.6.-.0 1 u.v.v.g.g.v.v.b.n.n.v.g.h.s.c % | 1.4.s .X.X.X.X.X.X.X.X.X.X.X.X.X.X.X.X.X.X.X.X",
".X.X.X.X.X.X.X.X.X.X.X.X.X.X.X.X.X.X.X$ # X . 1 O.z.V.C.B.d.i.i.i.z.V.C.B.p.x X X # $ .X.X.X.X.X.X.X.X.X.X.X.X.X.X.X.X.X.X.X.X.X",
".X.X.X.X.X.X.X.X.X.X.X.X.X.X.X.X.X.X.X.X.X.X.X.Xw 8.^._.F.} 1 1 w 8.^._.F.} - .X.X.X.X.X.X.X.X.X.X.X.X.X.X.X.X.X.X.X.X.X.X.X.X.X",
".X.X.X.X.X.X.X.X.X.X.X.X.X.X.X.X.X.X.X.X.X.X.X.X$ 0.[.}.I.i     $ q.[.}.P.p .X.X.X.X.X.X.X.X.X.X.X.X.X.X.X.X.X.X.X.X.X.X.X.X.X.X",
".X.X.X.X.X.X.X.X.X.X.X.X.X.X.X.X.X.X.X.X.X.X.X.X$ 9.{.|.P.i   .X$ 9.{.|.P.i   .X.X.X.X.X.X.X.X.X.X.X.X.X.X.X.X.X.X.X.X.X.X.X.X.X",
".X.X.X.X.X.X.X.X.X.X.X.X.X.X.X.X.X.X.X.X.X.X.X  & q.[. XP.i .X.X$ 7.[.}.U.p     .X.X.X.X.X.X.X.X.X.X.X.X.X.X.X.X.X.X.X.X.X.X.X.X",
".X.X.X.X.X.X.X.X.X.X.X.X.X.X.X.X.X.X.X.X.X.X  $ ;.L.`.].G.r .X.X# 6.(.].R.7.e   .X.X.X.X.X.X.X.X.X.X.X.X.X.X.X.X.X.X.X.X.X.X.X.X",
".X.X.X.X.X.X.X.X.X.X.X.X.X.X.X.X.X.X.X.X.X.X  p D.R.W.T.Z.q .X.X# =.H.W.R.U.:.o .X.X.X.X.X.X.X.X.X.X.X.X.X.X.X.X.X.X.X.X.X.X.X.X",
".X.X.X.X.X.X.X.X.X.X.X.X.X.X.X.X.X.X.X.X.X.X.Xp 4.1.=. .L .X.X.X.Xy  .-.>.6....X.X.X.X.X.X.X.X.X.X.X.X.X.X.X.X.X.X.X.X.X.X.X.X.X",
".X.X.X.X.X.X.X.X.X.X.X.X.X.X.X.X.X.X.X.X.X.X.X.X# o X X X .X.X.X.X.XX X X o .X.X.X.X.X.X.X.X.X.X.X.X.X.X.X.X.X.X.X.X.X.X.X.X.X.X"
};
