/* XPM */
static const char *player_1_1[] = {
/* columns rows colors chars-per-pixel */
"64 64 224 2 ",
"   c #030201",
".  c #0A0604",
"X  c #0C0B09",
"o  c #130300",
"O  c #120B05",
"+  c #180B05",
"@  c #11100D",
"#  c #191612",
"$  c #260901",
"%  c #2B0C01",
"&  c #270B07",
"*  c #340C01",
"=  c #3A0D00",
"-  c #2F1002",
";  c #2C110C",
":  c #241A0E",
">  c #201008",
",  c #341203",
"<  c #3B1302",
"1  c #3D1904",
"2  c #33120B",
"3  c #3B1708",
"4  c #3E190A",
"5  c #281A15",
"6  c #3D1C14",
"7  c #371812",
"8  c #29241D",
"9  c #2A2014",
"0  c #3A2918",
"q  c #3A261A",
"w  c #2A2A2A",
"e  c #272522",
"r  c #3B352C",
"t  c #33302B",
"y  c #411402",
"u  c #431C04",
"i  c #491C03",
"p  c #4C1409",
"a  c #451807",
"s  c #581A0F",
"d  c #551A0F",
"f  c #441E13",
"g  c #5A1B13",
"h  c #462005",
"j  c #4C2305",
"k  c #46200A",
"l  c #4B240B",
"z  c #4E280E",
"x  c #512605",
"c  c #542905",
"v  c #592D06",
"b  c #552A0B",
"n  c #5A2E0A",
"m  c #56270C",
"M  c #5E310B",
"N  c #492413",
"B  c #492817",
"V  c #542B13",
"C  c #522D1A",
"Z  c #5D2615",
"A  c #5C341A",
"S  c #5A341B",
"D  c #45321D",
"F  c #61330B",
"G  c #63340D",
"H  c #66360E",
"J  c #62330D",
"K  c #69390F",
"L  c #67380F",
"P  c #632312",
"I  c #6B2C14",
"U  c #68271B",
"Y  c #772B1C",
"T  c #623411",
"R  c #643512",
"E  c #673810",
"W  c #6A3911",
"Q  c #6E3C12",
"!  c #6B3A11",
"~  c #63371C",
"^  c #623A1D",
"/  c #6C3918",
"(  c #703E12",
")  c #4A2C28",
"_  c #512E25",
"`  c #59382A",
"'  c #573A31",
"]  c #4C392D",
"[  c #682B21",
"{  c #7D2B22",
"}  c #792622",
"|  c #653E23",
" . c #793624",
".. c #754215",
"X. c #75401C",
"o. c #5D4131",
"O. c #54463C",
"+. c #484137",
"@. c #6A4629",
"#. c #784827",
"$. c #6E4C33",
"%. c #744936",
"&. c #795637",
"*. c #564E42",
"=. c #584D42",
"-. c #5A5346",
";. c #674B44",
":. c #6D564B",
">. c #7E6140",
",. c #6C6354",
"<. c #777878",
"1. c #862D27",
"2. c #8B3B2B",
"3. c #883625",
"4. c #95352C",
"5. c #953B2C",
"6. c #9A3C2D",
"7. c #98372D",
"8. c #9C3630",
"9. c #9C3B30",
"0. c #A33D32",
"q. c #8B542B",
"w. c #944336",
"e. c #825635",
"r. c #835E3F",
"t. c #925735",
"y. c #944E2A",
"u. c #A34131",
"i. c #AB4335",
"p. c #AB4C33",
"a. c #B04637",
"s. c #B34A37",
"d. c #B54A39",
"f. c #BA4D3A",
"g. c #A85537",
"h. c #B65835",
"j. c #A4562E",
"k. c #86633D",
"l. c #9D6639",
"z. c #845F5C",
"x. c #AB5D45",
"c. c #8C6645",
"v. c #886049",
"b. c #8B6F4F",
"n. c #966E49",
"m. c #9F754E",
"M. c #9D7044",
"N. c #826150",
"B. c #92775F",
"V. c #A8794C",
"C. c #B5774B",
"Z. c #B66352",
"A. c #A37951",
"S. c #BF6A47",
"D. c #8A646D",
"F. c #877663",
"G. c #927C66",
"H. c #947B6B",
"J. c #917070",
"K. c #A17D68",
"L. c #C06B57",
"P. c #AE8153",
"I. c #968A75",
"U. c #9C8C74",
"Y. c #918273",
"T. c #95856C",
"R. c #A88563",
"E. c #BB9267",
"W. c #A2967F",
"Q. c #AA9473",
"!. c #B99477",
"~. c #AD856E",
"^. c #C58557",
"/. c #CD9E70",
"(. c #D6AC7A",
"). c #DCB07E",
"_. c #9E9F9F",
"`. c #BA9D82",
"'. c #B38A99",
"]. c #B39A90",
"[. c #BCA283",
"{. c #B4A58C",
"}. c #BAA68B",
"|. c #BAA393",
" X c #ADA28B",
".X c #A7A6A3",
"XX c #B0AAA2",
"oX c #C7AA88",
"OX c #D2AD82",
"+X c #D1AA8E",
"@X c #CDB08C",
"#X c #D3B28C",
"$X c #DEB686",
"%X c #C3B297",
"&X c #CBB699",
"*X c #CAB69A",
"=X c #D9B896",
"-X c #E0BA8B",
";X c #C59AAE",
":X c #C9A8AA",
">X c #CBBAA6",
",X c #DEBBBF",
"<X c #E0BDBB",
"1X c #E4C398",
"2X c #DEC6A4",
"3X c #DAC9AA",
"4X c #E2CEAE",
"5X c #E7CCA6",
"6X c #E3D0AF",
"7X c #EBD3AE",
"8X c #E3CDB4",
"9X c #E7C8B9",
"0X c #E6D2B3",
"qX c #EAD6B4",
"wX c #EBD8B7",
"eX c #ECDAB9",
"rX c #E9D4BA",
"tX c #F2E0BD",
"yX c #DCB1C6",
"uX c #E5BDCC",
"iX c #E9C8C7",
"pX c #F0D8C0",
"aX c #FF00FF",
"sX c black",
/* pixels */
"aXaXaXaXaXaXaXaXaXaXaXaXaXaXaXaXaXaXaXaXaXaXaXaXaXaXaXaXaXaXaXaXaXaXaXaXaXaXaXaXaXaXaXaXaXaXaXaXaXaXaXaXaXaXaXaXaXaXaXaXaXaXaXaX",
"aXaXaXaXaXaXaXaXaXaXaXaXaXaXaXaXaXaXaXaXaXaXaXaXaXaXaXaXaXaXaXaXaXaXaXaXaXaXaXaXaXaXaXaXaXaXaXaXaXaXaXaXaXaXaXaXaXaXaXaXaXaXaXaX",
"aXaXaXaXaXaXaXaXaXaXaXaXaXaXaXaXaXaXaXaXaXaXaXaXaXaXaXaXaXaXaXaXaXaXaXaXaXaXaXaXaXaXaXaXaXaXaXaXaXaXaXaXaXaXaXaXaXaXaXaXaXaXaXaX",
"aXaXaXaXaXaXaXaXaXaXaXaXaXaXaXaXaXaXaXaXaXaXaXaXaXaXaXaXaXaXaXaXaXaXaXaXaXaXaXaXaXaXaXaXaXaXaXaXaXaXaXaXaXaXaXaXaXaXaXaXaXaXaXaX",
"aXaXaXaXaXaXaXaXaXaXaXaXaXaXaXaXaXaXaXaXaXaXaXaXaXaXaXaXaXaXaXaXaXaXaXaXaXaXaXaXaXaXaXaXaXaXaXaXaXaXaXaXaXaXaXaXaXaXaXaXaXaXaXaX",
"aXaXaXaXaXaXaXaXaXaXaXaXaXaXaXaXaXaXaXaXaXaXaXaXaXaXaXaXaXaXaXaXaXaXaXaXaXaXaXaXaXaXaXaXaXaXaXaXaXaXaXaXaXaXaXaXaXaXaXaXaXaXaXaX",
"aXaXaXaXaXaXaXaXaXaXaXaXaXaXaXaXaXaXaXaXaXaXaXaXaXaXaXaXaXaXaXaXaXaXaXaXaXaXaXaXaXaXaXaXaXaXaXaXaXaXaXaXaXaXaXaXaXaXaXaXaXaXaXaX",
"aXaXaXaXaXaXaXaXaXaXaXaXaXaXaXaXaXaXaXaXaXaXaXaXaXaXaXaXaXaXaXaXaXaXaXaXaXaXaXaXaXaXaXaXaXaXaXaXaXaXaXaXaXaXaXaXaXaXaXaXaXaXaXaX",
"aXaXaXaXaXaXaXaXaXaXaXaXaXaXaXaXaXaXaXaXaXaXaXaXaXaXaXaXaXaXaXaXaXaXaXaXaXaXaXaXaXaXaXaXaXaXaXaXaXaXaXaXaXaXaXaXaXaXaXaXaXaXaXaX",
"aXaXaXaXaXaXaXaXaXaXaXaXaXaXaXaXaXaXaXaXaXaXaXaXaXaXaXaXaXaXaXaXaXaXaXaXaXaXaXaXaXaXaXaXaXaXaXaXaXaXaXaXaXaXaXaXaXaXaXaXaXaXaXaX",
"aXaXaXaXaXaXaXaXaXaXaXaXaXaXaXaXaXaXaXaXaXaXaXaXaXaXaXaXaXaXaXaXaXaXaXaXaXaXaXaXaXaXaXaXaXaXaXaXaXaXaXaXaXaXaXaXaXaXaXaXaXaXaXaX",
"aXaXaXaXaXaXaXaXaXaXaXaXaXaXaXaXaXaXaXaXaXaXaXaXaXaXaXaXaXaXaXaXaXaXaXaXaXaXaXaXaXaXaXaXaXaXaXaXaXaXaXaXaXaXaXaXaXaXaXaXaXaXaXaX",
"aXaXaXaXaXaXaXaXaXaXaXaXaXaXaXaXaXaXaXaXaXaXaXaXaXaXaXaXaXaXaXaXaXaXaXaXaXaXaXaXaXaXaXaXaXaXaXaXaXaXaXaXaXaXaXaXaXaXaXaXaXaXaXaX",
"aXaXaXaXaXaXaXaXaXaXaXaXaXaXaXaXaXaXaXaXaXaXaXaX% % % % % % aXaX% % % % % % aXaXaXaXaXaXaXaXaXaXaXaXaXaXaXaXaXaXaXaXaXaXaXaXaXaX",
"aXaXaXaXaXaXaXaXaXaXaXaXaXaXaXaXaXaXaXaXaXaX$ , 1 u u u u u , , 1 u u u u u , % $ aXaXaXaXaXaXaXaXaXaXaXaXaXaXaXaXaXaXaXaXaXaXaX",
"aXaXaXaXaXaXaXaXaXaXaXaXaXaXaXaXaXaXaXaXaX, 3 u x n n x j x j k j j j v n c j 1 , - aXaXaXaXaXaXaXaXaXaXaXaXaXaXaXaXaXaXaXaXaXaX",
"aXaXaXaXaXaXaXaXaXaXaXaXaXaXaXaXaXaXaX% < j M T M H E j u c J T n h u M K F J T b 1 % aXaXaXaXaXaXaXaXaXaXaXaXaXaXaXaXaXaXaXaXaX",
"aXaXaXaXaXaXaXaXaXaXaXaXaXaXaXaXaXaXaX< j G Q K M F E n l j n J j k b T H M H Q ! v 1 , aXaXaXaXaXaXaXaXaXaXaXaXaXaXaXaXaXaXaXaX",
"aXaXaXaXaXaXaXaXaXaXaXaXaXaXaXaXaX% , j J ..! M n n G R V u j j u l T H M n n H ..! c 1 % aXaXaXaXaXaXaXaXaXaXaXaXaXaXaXaXaXaXaX",
"aXaXaXaXaXaXaXaXaXaXaXaXaXaXaXaX% , u c H ..! n n G ! b l h j c h h l T H n c G ..( n j 1 % aXaXaXaXaXaXaXaXaXaXaXaXaXaXaXaXaXaX",
"aXaXaXaXaXaXaXaXaXaXaXaXaXaXaXaX% 1 x n F Q ! G n G H j u x n n c j h M L M M K Q H n c u , aXaXaXaXaXaXaXaXaXaXaXaXaXaXaXaXaXaX",
"aXaXaXaXaXaXaXaXaXaXaXaXaXaXaXaX% 1 c n n M ! Q F n n c c c n n n c c n n n K Q J n n n h - aXaXaXaXaXaXaXaXaXaXaXaXaXaXaXaXaXaX",
"aXaXaXaXaXaXaXaXaXaXaXaXaXaXaXaX% 1 v H n j v G M v c n n v c n n n v c c n F M j b H F h - aXaXaXaXaXaXaXaXaXaXaXaXaXaXaXaXaXaX",
"aXaXaXaXaXaXaXaXaXaXaXaXaXaXaXaX% 1 n ! n 3 1 j j x c j j c x j c x j c c j j u , l ! G h - aXaXaXaXaXaXaXaXaXaXaXaXaXaXaXaXaXaX",
"aXaXaXaXaXaXaXaXaXaXaXaXaXaXaXaX% 1 c n l , * < 1 h j u u j h u j j u j j u < * % 1 n n h - aXaXaXaXaXaXaXaXaXaXaXaXaXaXaXaXaXaX",
"aXaXaXaXaXaXaXaXaXaXaXaXaXaXaXaX% 1 j j < * % 4 A S l A A l S ^ z V ^ V V ^ N * % , u j u % aXaXaXaXaXaXaXaXaXaXaXaXaXaXaXaXaXaX",
"aXaXaXaXaXaXaXaXaXaXaXaXaXaXaXaX, u j u 3 * 3 | m.c.$.n.n.$.c.m.$.r.A.&.&.A.&.N * , 1 j j , % aXaXaXaXaXaXaXaXaXaXaXaXaXaXaXaXaX",
"aXaXaXaXaXaXaXaXaXaXaXaXaXaXaX, u j n n l 4 | A.OXoX`.@X@X`.oX#X[.oX#X[.[.#XE.e.l a n n c h , % aXaXaXaXaXaXaXaXaXaXaXaXaXaXaXaX",
"aXaXaXaXaXaXaXaXaXaXaXaXaXaX$ , j M H M k f c.OX5XwXwXqXqXqXqXqXqXqXqXwXwXqX1XR.S 4 n R G c 1 % aXaXaXaXaXaXaXaXaXaXaXaXaXaXaXaX",
"aXaXaXaXaXaXaXaXaXaXaXaXaXaX$ , j H ! V 3 q B.2XwX0X4X0XeXeXeXwXeXeXqX4X4XqXqX[.` 2 l R ! n 1 % aXaXaXaXaXaXaXaXaXaXaXaXaXaXaXaX",
"aXaXaXaXaXaXaXaXaXaXaXaXaXaX$ , j v T #.A B G.4XqXoX~.@XqXwXqXqXwXeX2X!.!.2XeX}.o.C #./ v x 1 % aXaXaXaXaXaXaXaXaXaXaXaXaXaXaXaX",
"aXaXaXaXaXaXaXaXaXaXaXaXaXaX$ , j j M t.q._ G.8X6XR.%.!.qXeXwXwXwXeX&Xv.v.&XeX}.o.@.l.X.j j 1 % aXaXaXaXaXaXaXaXaXaXaXaXaXaXaXaX",
"aXaXaXaXaXaXaXaXaXaXaXaXaXaX$ , j x J q.q.C G.4X4XF.] U.0XeXwXwXeXeX%X;.;.%XeX}.o.~ y...c x 1 % aXaXaXaXaXaXaXaXaXaXaXaXaXaXaXaX",
"aXaXaXaXaXaXaXaXaXaXaXaXaXaX$ , j v F ! m B G.4X4XF.r I.0XeXwXwXeXeX%X*.*.%XeX}.' l ! H n c 1 % aXaXaXaXaXaXaXaXaXaXaXaXaXaXaXaX",
"aXaXaXaXaXaXaXaXaXaXaXaXaXaX$ , j c x i < 6 H.8X8XY.-.W.qXeXwXwXeXeX*X,.,.>XpX|.' * a x c c 1 % aXaXaXaXaXaXaXaXaXaXaXaXaXaXaXaX",
"aXaXaXaXaXaXaXaXaXaXaXaXaXaX$ , j j u u < 6 J.,XiX:X X*XqXeXwXwXwXeX3X{.|.,XiX].' , u i i j 1 % aXaXaXaXaXaXaXaXaXaXaXaXaXaXaXaX",
"aXaXaXaXaXaXaXaXaXaXaXaXaXaXaX, u y < u u k :.'.yXiXrXwXwXwXqXqXqXwXwXqXiXuX;XD._ u u y < u < % aXaXaXaXaXaXaXaXaXaXaXaXaXaXaXaX",
"aXaXaXaXaXaXaXaXaXaXaXaXaXaXaXaX% * * < u j B ;.'.<XqXqXqXqXwXwXwXqXqXqX9X:XD._ l i < = * * % aXaXaXaXaXaXaXaXaXaXaXaXaXaXaXaXaX",
"aXaXaXaXaXaXaXaXaXaXaXaXaXaXaXaX% % * = y j < 6 ;.~.OX$X1X7XwXwXqX5X-X$X!.z.) , h i = * * % aXaXaXaXaXaXaXaXaXaXaXaXaXaXaXaXaXaX",
"aXaXaXaXaXaXaXaXaXaXaXaXaXaXaXaX$ % * * y i < % 4 @.M.V.E.#X=X=X=X/.P.V.e.N % * i i < * * % aXaXaXaXaXaXaXaXaXaXaXaXaXaXaXaXaXaX",
"aXaXaXaXaXaXaXaXaXaXaXaXaXaXaXaXaX% % * = < < < u z V S #.C.^.^.C.t.~ C N < * * < i i < % aXaXaXaXaXaXaXaXaXaXaXaXaXaXaXaXaXaXaX",
"aXaXaXaXaXaXaXaXaXaXaXaXaXaXaXaXaXaX% * < y < a P I Z U 3.j.h.h.h.y.U Z d a < < y i u , $ aXaXaXaXaXaXaXaXaXaXaXaXaXaXaXaXaXaXaX",
"aXaXaXaXaXaXaXaXaXaXaXaXaXaXaXaXaXaX% * < i y p { 4.7.0.i.d.f.f.d.a.u.2.Y m < < u u < % $ aXaXaXaXaXaXaXaXaXaXaXaXaXaXaXaXaXaXaX",
"aXaXaXaXaXaXaXaXaXaXaXaXaXaXaXaXaXaXaX% * < < p } 8.i.i.a.d.f.f.f.d.u.3.I c , $ , < % % aXaXaXaXaXaXaXaXaXaXaXaXaXaXaXaXaXaXaXaX",
"aXaXaXaXaXaXaXaXaXaXaXaXaXaXaXaXaXaXaXo $ * = p } 8.i.i.i.d.f.f.f.d.6.I x u $ o % * % aXaXaXaXaXaXaXaXaXaXaXaXaXaXaXaXaXaXaXaXaX",
"aXaXaXaXaXaXaXaXaXaXaXaXaXaXaXaXaXaXaX  o % = d 1.9.0.i.d.f.f.f.f.s.5.P y < + o $ * aXaXaXaXaXaXaXaXaXaXaXaXaXaXaXaXaXaXaXaXaXaX",
"aXaXaXaXaXaXaXaXaXaXaXaXaXaXaXaXaXaXaX  o * s Y 4.0.i.d.f.f.f.f.d.6.I p p g 2 o % = aXaXaXaXaXaXaXaXaXaXaXaXaXaXaXaXaXaXaXaXaXaX",
"aXaXaXaXaXaXaXaXaXaXaXaXaXaXaXaXaXaXaX  > V 3.7.0.i.d.f.d.d.a.d.i.3.s y s { Z 2 % % aXaXaXaXaXaXaXaXaXaXaXaXaXaXaXaXaXaXaXaXaXaX",
"aXaXaXaXaXaXaXaXaXaXaXaXaXaXaXaXaXaXaX. 0 e.g.u.i.d.f.f.a.i.0.0.0.7.{ s P 2.9.[ ; . aXaXaXaXaXaXaXaXaXaXaXaXaXaXaXaXaXaXaXaXaXaX",
"aXaXaXaXaXaXaXaXaXaXaXaXaXaXaXaXaXaXaXaX0 $.t.p.d.f.d.i.0.i.i.i.i.i.0.3.2.g.S.t.7   aXaXaXaXaXaXaXaXaXaXaXaXaXaXaXaXaXaXaXaXaXaX",
"aXaXaXaXaXaXaXaXaXaXaXaXaXaXaXaXaXaXaXaXaX: / g.f.f.s.9.8.i.s.d.d.s.i.9.x.^./.m.0   aXaXaXaXaXaXaXaXaXaXaXaXaXaXaXaXaXaXaXaXaXaX",
"aXaXaXaXaXaXaXaXaXaXaXaXaXaXaXaXaXaXaXaXaXO ~ j.p.a.s.i.0.8.i.f.f.i.1.[ >.oX1XQ.r . aXaXaXaXaXaXaXaXaXaXaXaXaXaXaXaXaXaXaXaXaXaX",
"aXaXaXaXaXaXaXaXaXaXaXaXaXaXaXaXaXaXaXaXaXO B  .5.i.f.f.i.9.i.f.f.i.{ 7 =.*XtX{.r . aXaXaXaXaXaXaXaXaXaXaXaXaXaXaXaXaXaXaXaXaXaX",
"aXaXaXaXaXaXaXaXaXaXaXaXaXaXaXaXaXaXaXaXaXaX+ 6 { i.d.f.d.s.d.f.f.f.4.f O.{.3XW.r . aXaXaXaXaXaXaXaXaXaXaXaXaXaXaXaXaXaXaXaXaXaX",
"aXaXaXaXaXaXaXaXaXaXaXaXaXaXaXaXaXaXaXaXaXaX  ; } 0.i.d.f.f.f.f.f.f.i. .` ;.,.-.e aXaXaXaXaXaXaXaXaXaXaXaXaXaXaXaXaXaXaXaXaXaXaX",
"aXaXaXaXaXaXaXaXaXaXaXaXaXaXaXaXaXaXaXaXaXaXaX& U w.Z.L.x.w.2.2.2.g.Z.Z. .5 @ @ aXaXaXaXaXaXaXaXaXaXaXaXaXaXaXaXaXaXaXaXaXaXaXaX",
"aXaXaXaXaXaXaXaXaXaXaXaXaXaXaXaXaXaXaXaXaXaXaXaX; ;.`.=XK.) ; ; q N.+X=XF.5   aXaXaXaXaXaXaXaXaXaXaXaXaXaXaXaXaXaXaXaXaXaXaXaXaX",
"aXaXaXaXaXaXaXaXaXaXaXaXaXaXaXaXaXaXaXaXaXaXaX  . t F.%XU.e   # *.W.0XwXI.e aXaXaXaXaXaXaXaXaXaXaXaXaXaXaXaXaXaXaXaXaXaXaXaXaXaX",
"aXaXaXaXaXaXaXaXaXaXaXaXaXaXaXaXaXaXaXaXaXaX  X e t ,. XI.8   t U.2X7X5XT.8 aXaXaXaXaXaXaXaXaXaXaXaXaXaXaXaXaXaXaXaXaXaXaXaXaXaX",
"aXaXaXaXaXaXaXaXaXaXaXaXaXaXaXaXaXaXaXaXaXaX. w <._.XX>XI.8   0 R.).).(.b.9 aXaXaXaXaXaXaXaXaXaXaXaXaXaXaXaXaXaXaXaXaXaXaXaXaXaX",
"aXaXaXaXaXaXaXaXaXaXaXaXaXaXaXaXaXaXaXaXaXaX. w <..XXX*XG.8   9 $.k.k.k.@.: aXaXaXaXaXaXaXaXaXaXaXaXaXaXaXaXaXaXaXaXaXaXaXaXaXaX",
"aXaXaXaXaXaXaXaXaXaXaXaXaXaXaXaXaXaXaXaXaXaX  X e w +.b.>.5 aXaX: : : : : aXaXaXaXaXaXaXaXaXaXaXaXaXaXaXaXaXaXaXaXaXaXaXaXaXaXaX",
"aXaXaXaXaXaXaXaXaXaXaXaXaXaXaXaXaXaXaXaXaXaXaX      X 0 D aXaXaXaXaXaXaXaXaXaXaXaXaXaXaXaXaXaXaXaXaXaXaXaXaXaXaXaXaXaXaXaXaXaXaX",
"aXaXaXaXaXaXaXaXaXaXaXaXaXaXaXaXaXaXaXaXaXaXaXaX      . . aXaXaXaXaXaXaXaXaXaXaXaXaXaXaXaXaXaXaXaXaXaXaXaXaXaXaXaXaXaXaXaXaXaXaX"
};
