/* XPM */
static const char *player_1_2[] = {
/* columns rows colors chars-per-pixel */
"64 64 217 2 ",
"   c #020201",
".  c #090604",
"X  c #0D0905",
"o  c #0D0C0B",
"O  c #1C0601",
"+  c #140A05",
"@  c #1B120C",
"#  c #14110E",
"$  c #1A1918",
"%  c #260901",
"&  c #2B0B01",
"*  c #260C0A",
"=  c #340C01",
"-  c #3A0E00",
";  c #310F0F",
":  c #2E1002",
">  c #27130B",
",  c #331202",
"<  c #3B1402",
"1  c #3D1904",
"2  c #38150B",
"3  c #261C16",
"4  c #3D1C13",
"5  c #381211",
"6  c #27231C",
"7  c #3C2B1A",
"8  c #352218",
"9  c #2B2922",
"0  c #2B2925",
"q  c #392F26",
"w  c #3A352B",
"e  c #363738",
"r  c #421502",
"t  c #441C03",
"y  c #491D03",
"u  c #4D140A",
"i  c #431D0B",
"p  c #4B1B0A",
"a  c #451508",
"s  c #52180C",
"d  c #531C0B",
"f  c #461E12",
"g  c #571D18",
"h  c #671E18",
"j  c #472005",
"k  c #4C2305",
"l  c #47210A",
"z  c #4B230A",
"x  c #512705",
"c  c #552A05",
"v  c #592C06",
"b  c #502609",
"n  c #542A0A",
"m  c #5B2D0A",
"M  c #59260B",
"N  c #5E310A",
"B  c #422215",
"V  c #4B2312",
"C  c #4F2A1A",
"Z  c #4C2717",
"A  c #542E16",
"S  c #5C2C15",
"D  c #5B2011",
"F  c #5D3112",
"G  c #54311C",
"H  c #5D361C",
"J  c #47331E",
"K  c #63340C",
"L  c #67380F",
"P  c #69390F",
"I  c #66241A",
"U  c #752B1A",
"Y  c #633511",
"T  c #6A3A11",
"R  c #6E3C12",
"E  c #6A3A10",
"W  c #693A1B",
"Q  c #763819",
"!  c #463829",
"~  c #57382A",
"^  c #433E34",
"/  c #553631",
"(  c #472B22",
")  c #7C2B22",
"_  c #792722",
"`  c #633C21",
"'  c #753622",
"]  c #623D37",
"[  c #754215",
"{  c #76411D",
"}  c #5D462D",
"|  c #5E4131",
" . c #53473B",
".. c #6D4224",
"X. c #65492D",
"o. c #744A2A",
"O. c #784627",
"+. c #7C512F",
"@. c #654236",
"#. c #754834",
"$. c #7D5433",
"%. c #584E40",
"&. c #564E42",
"*. c #595245",
"=. c #585754",
"-. c #63584A",
";. c #795948",
":. c #744E50",
">. c #695250",
",. c #686051",
"<. c #796F60",
"1. c #7A7160",
"2. c #842D24",
"3. c #833224",
"4. c #883529",
"5. c #943A2A",
"6. c #9D3B2E",
"7. c #95352B",
"8. c #9C3730",
"9. c #9E3931",
"0. c #A43C32",
"q. c #A83F34",
"w. c #85481E",
"e. c #8A4B27",
"r. c #87542E",
"t. c #834C3F",
"y. c #964434",
"u. c #855934",
"i. c #965632",
"p. c #A0462E",
"a. c #AC4335",
"s. c #A94A32",
"d. c #B14737",
"f. c #B54A39",
"g. c #B94D3B",
"h. c #B14937",
"j. c #B65235",
"k. c #BB543A",
"l. c #A8582F",
"z. c #8C613B",
"x. c #A46237",
"c. c #B4683D",
"v. c #B65846",
"b. c #876549",
"n. c #986F4A",
"m. c #976B47",
"M. c #8C6D52",
"N. c #977759",
"B. c #9C7050",
"V. c #BB6942",
"C. c #A57C5B",
"Z. c #867867",
"A. c #937B65",
"S. c #977769",
"D. c #936C75",
"F. c #A57A60",
"G. c #BE7E68",
"H. c #C9725B",
"J. c #C06954",
"K. c #AA845C",
"L. c #8C816D",
"P. c #998C76",
"I. c #AA8663",
"U. c #B58E66",
"Y. c #BA9268",
"T. c #A49378",
"R. c #B69474",
"E. c #B28972",
"W. c #C5996A",
"Q. c #D59676",
"!. c #CEA47A",
"~. c #D4A77C",
"^. c #D1A472",
"/. c #908E8B",
"(. c #A59880",
"). c #A49286",
"_. c #AE8593",
"`. c #B48D94",
"'. c #B3A58B",
"]. c #BBA68B",
"[. c #BCA280",
"{. c #BDA594",
"}. c #C6A789",
"|. c #C3B297",
" X c #C8B69A",
".X c #DCBD93",
"XX c #D5BC9D",
"oX c #D9B697",
"OX c #D7B08C",
"+X c #CFABA3",
"@X c #CEBDA2",
"#X c #DBBDA2",
"$X c #D1BBA9",
"%X c #D2A8B9",
"&X c #D9BBB8",
"*X c #E1C39B",
"=X c #D5C1A1",
"-X c #DCC5A3",
";X c #DACAAB",
":X c #E3CAA3",
">X c #E8CCA3",
",X c #E2CDAD",
"<X c #E7CAA7",
"1X c #E4D0AF",
"2X c #E9D1AC",
"3X c #E4C8BD",
"4X c #E6D2B2",
"5X c #EAD6B4",
"6X c #EBD8B7",
"7X c #EDDAB9",
"8X c #F0DDBC",
"9X c #E1B7C7",
"0X c #E4BECA",
"qX c #EFD2C6",
"wX c #EECFC8",
"eX c #FF00FF",
"rX c black",
/* pixels */
"eXeXeXeXeXeXeXeXeXeXeXeXeXeXeXeXeXeXeXeXeXeXeXeXeXeXeXeXeXeXeXeXeXeXeXeXeXeXeXeXeXeXeXeXeXeXeXeXeXeXeXeXeXeXeXeXeXeXeXeXeXeXeXeX",
"eXeXeXeXeXeXeXeXeXeXeXeXeXeXeXeXeXeXeXeXeXeXeXeXeXeXeXeXeXeXeXeXeXeXeXeXeXeXeXeXeXeXeXeXeXeXeXeXeXeXeXeXeXeXeXeXeXeXeXeXeXeXeXeX",
"eXeXeXeXeXeXeXeXeXeXeXeXeXeXeXeXeXeXeXeXeXeXeXeXeXeXeXeXeXeXeXeXeXeXeXeXeXeXeXeXeXeXeXeXeXeXeXeXeXeXeXeXeXeXeXeXeXeXeXeXeXeXeXeX",
"eXeXeXeXeXeXeXeXeXeXeXeXeXeXeXeXeXeXeXeXeXeXeXeXeXeXeXeXeXeXeXeXeXeXeXeXeXeXeXeXeXeXeXeXeXeXeXeXeXeXeXeXeXeXeXeXeXeXeXeXeXeXeXeX",
"eXeXeXeXeXeXeXeXeXeXeXeXeXeXeXeXeXeXeXeXeXeXeXeXeXeXeXeXeXeXeXeXeXeXeXeXeXeXeXeXeXeXeXeXeXeXeXeXeXeXeXeXeXeXeXeXeXeXeXeXeXeXeXeX",
"eXeXeXeXeXeXeXeXeXeXeXeXeXeXeXeXeXeXeXeXeXeXeXeXeXeXeXeXeXeXeXeXeXeXeXeXeXeXeXeXeXeXeXeXeXeXeXeXeXeXeXeXeXeXeXeXeXeXeXeXeXeXeXeX",
"eXeXeXeXeXeXeXeXeXeXeXeXeXeXeXeXeXeXeXeXeXeXeXeXeXeXeXeXeXeXeXeXeXeXeXeXeXeXeXeXeXeXeXeXeXeXeXeXeXeXeXeXeXeXeXeXeXeXeXeXeXeXeXeX",
"eXeXeXeXeXeXeXeXeXeXeXeXeXeXeXeXeXeXeXeXeXeXeXeXeXeXeXeXeXeXeXeXeXeXeXeXeXeXeXeXeXeXeXeXeXeXeXeXeXeXeXeXeXeXeXeXeXeXeXeXeXeXeXeX",
"eXeXeXeXeXeXeXeXeXeXeXeXeXeXeXeXeXeXeXeXeXeXeXeXeXeXeXeXeXeXeXeXeXeXeXeXeXeXeXeXeXeXeXeXeXeXeXeXeXeXeXeXeXeXeXeXeXeXeXeXeXeXeXeX",
"eXeXeXeXeXeXeXeXeXeXeXeXeXeXeXeXeXeXeXeXeXeXeXeXeXeXeXeXeXeXeXeXeXeXeXeXeXeXeXeXeXeXeXeXeXeXeXeXeXeXeXeXeXeXeXeXeXeXeXeXeXeXeXeX",
"eXeXeXeXeXeXeXeXeXeXeXeXeXeXeXeXeXeXeXeXeXeXeXeXeXeXeXeXeXeXeXeXeXeXeXeXeXeXeXeXeXeXeXeXeXeXeXeXeXeXeXeXeXeXeXeXeXeXeXeXeXeXeXeX",
"eXeXeXeXeXeXeXeXeXeXeXeXeXeXeXeXeXeXeXeXeXeXeXeXeXeXeXeXeXeXeXeXeXeXeXeXeXeXeXeXeXeXeXeXeXeXeXeXeXeXeXeXeXeXeXeXeXeXeXeXeXeXeXeX",
"eXeXeXeXeXeXeXeXeXeXeXeXeXeXeXeXeXeXeXeXeXeXeXeXeXeXeXeXeXeXeXeXeXeXeXeXeXeXeXeXeXeXeXeXeXeXeXeXeXeXeXeXeXeXeXeXeXeXeXeXeXeXeXeX",
"eXeXeXeXeXeXeXeXeXeXeXeXeXeXeXeXeXeXeXeXeXeXeXeXeXeXeXeXeXeXeXeXeXeXeXeXeXeXeXeXeXeXeXeXeXeXeXeXeXeXeXeXeXeXeXeXeXeXeXeXeXeXeXeX",
"eXeXeXeXeXeXeXeXeXeXeXeXeXeXeXeXeXeXeXeXeXeXeXeXeX% % % % % eXeXeX% % % % % eXeXeXeXeXeXeXeXeXeXeXeXeXeXeXeXeXeXeXeXeXeXeXeXeXeX",
"eXeXeXeXeXeXeXeXeXeXeXeXeXeXeXeXeXeXeXeXeXeXeXeX, , , , , , & eX, , , , , , & eXeXeXeXeXeXeXeXeXeXeXeXeXeXeXeXeXeXeXeXeXeXeXeXeX",
"eXeXeXeXeXeXeXeXeXeXeXeXeXeXeXeXeXeXeXeXeX& & , t k k k k k 1 < t k k k k k 1 & & eXeXeXeXeXeXeXeXeXeXeXeXeXeXeXeXeXeXeXeXeXeXeX",
"eXeXeXeXeXeXeXeXeXeXeXeXeXeXeXeXeXeXeXeX, 1 l b n K K b k c b b c k k m K m b z 1 , eXeXeXeXeXeXeXeXeXeXeXeXeXeXeXeXeXeXeXeXeXeX",
"eXeXeXeXeXeXeXeXeXeXeXeXeXeXeXeXeXeXeX& 1 n T E K L E b t k K E n t l Y E K L E N k , eXeXeXeXeXeXeXeXeXeXeXeXeXeXeXeXeXeXeXeXeX",
"eXeXeXeXeXeXeXeXeXeXeXeXeXeXeXeXeXeX& 1 n E R L m N L Y b t b m j z F T K m K P R N j , eXeXeXeXeXeXeXeXeXeXeXeXeXeXeXeXeXeXeXeX",
"eXeXeXeXeXeXeXeXeXeXeXeXeXeXeXeXeX, 1 k L [ E v v N L Y b t k k t z F T K v c K [ R c t , eXeXeXeXeXeXeXeXeXeXeXeXeXeXeXeXeXeXeX",
"eXeXeXeXeXeXeXeXeXeXeXeXeXeXeXeX& 1 k c L [ E m v L E b t k c c k t l Y E N v L [ R v x t : eXeXeXeXeXeXeXeXeXeXeXeXeXeXeXeXeXeX",
"eXeXeXeXeXeXeXeXeXeXeXeXeXeXeXeX& 1 c v N L R P N K K b k c v v c k k m K N L R E K v c j , eXeXeXeXeXeXeXeXeXeXeXeXeXeXeXeXeXeX",
"eXeXeXeXeXeXeXeXeXeXeXeXeXeXeXeX& 1 c N m n K R K v v c c v v m v c c v v m P E m n N m j : eXeXeXeXeXeXeXeXeXeXeXeXeXeXeXeXeXeX",
"eXeXeXeXeXeXeXeXeXeXeXeXeXeXeXeX& 1 m E N t k m v c c c c v c c c c c c c c m b t b E K j : eXeXeXeXeXeXeXeXeXeXeXeXeXeXeXeXeXeX",
"eXeXeXeXeXeXeXeXeXeXeXeXeXeXeXeX& 1 v L n , 1 t t k x j j x k j x k t k k t t 1 , l L K j : eXeXeXeXeXeXeXeXeXeXeXeXeXeXeXeXeXeX",
"eXeXeXeXeXeXeXeXeXeXeXeXeXeXeXeX& 1 c c t = & < i z k z z k z z k z z z z l 1 = & < x c t : eXeXeXeXeXeXeXeXeXeXeXeXeXeXeXeXeXeX",
"eXeXeXeXeXeXeXeXeXeXeXeXeXeXeXeX& 1 k t , = & V o...A o.o.A ..+.G ` +.H H +.H , & - 1 k t , eXeXeXeXeXeXeXeXeXeXeXeXeXeXeXeXeXeX",
"eXeXeXeXeXeXeXeXeXeXeXeXeXeXeXeX1 t x z a < V $.U.I.M.I.I.M.I.U.M.N.Y.N.N.Y.n.H 1 < z b k 1 , eXeXeXeXeXeXeXeXeXeXeXeXeXeXeXeXeX",
"eXeXeXeXeXeXeXeXeXeXeXeXeXeXeX, j c N Y z i +.Y..X-XXX-X-XXX-X-XXX=X:X=X=X*X!.m.Z i F K v k 1 & eXeXeXeXeXeXeXeXeXeXeXeXeXeXeXeX",
"eXeXeXeXeXeXeXeXeXeXeXeXeXeX% , k K L m 1 4 M..X5X7X7X7X7X7X7X7X7X7X7X7X7X6X>XR.~ , z T L v 1 & eXeXeXeXeXeXeXeXeXeXeXeXeXeXeXeX",
"eXeXeXeXeXeXeXeXeXeXeXeXeXeX% , k K T F i B A.;X6X-XoX:X6X7X6X6X7X7X1XXXXX4X6X].~ 2 A T L n 1 & eXeXeXeXeXeXeXeXeXeXeXeXeXeXeXeX",
"eXeXeXeXeXeXeXeXeXeXeXeXeXeX% , k x S r.o.G A.,X4XR.B.}.5X7X5X6X6X7XXXF.F.#X7X].| ` u.W b k 1 & eXeXeXeXeXeXeXeXeXeXeXeXeXeXeXeX",
"eXeXeXeXeXeXeXeXeXeXeXeXeXeX% , k k m i.r.~ A.,X,XA.@.T.4X7X6X6X7X7X X;.;. X7X].| ..x.{ k k 1 & eXeXeXeXeXeXeXeXeXeXeXeXeXeXeXeX",
"eXeXeXeXeXeXeXeXeXeXeXeXeXeX% , k c K w.Q C A.1X,XZ.! P.4X7X6X6X7X7X|.%.%.|.7X].| S e.R v x 1 & eXeXeXeXeXeXeXeXeXeXeXeXeXeXeXeX",
"eXeXeXeXeXeXeXeXeXeXeXeXeXeX% , k v v m p B A.4X,XZ.^ P.4X7X6X6X7X7X|.*.*.|.8X].~ a M m v c 1 & eXeXeXeXeXeXeXeXeXeXeXeXeXeXeXeX",
"eXeXeXeXeXeXeXeXeXeXeXeXeXeX% , k x k t - 4 S.3X3X).<.'.5X7X6X6X7X7X@XZ.Z.$XqX{./ = r y x x 1 & eXeXeXeXeXeXeXeXeXeXeXeXeXeXeXeX",
"eXeXeXeXeXeXeXeXeXeXeXeXeXeX% , j y r t 1 B D.%X0X&X@X;X5X6X6X6X6X6X4X=X$X0X9X_./ < t t t k 1 & eXeXeXeXeXeXeXeXeXeXeXeXeXeXeXeX",
"eXeXeXeXeXeXeXeXeXeXeXeXeXeXeX, 1 < - r r l ] D.%XwX7X6X6X5X5X5X5X6X6X7XqX9X_.:.C t r < < 1 , eXeXeXeXeXeXeXeXeXeXeXeXeXeXeXeXeX",
"eXeXeXeXeXeXeXeXeXeXeXeXeXeXeXeX& & = - t k i / D.+X:X>X2X5X6X6X6X2X>X>X#X`.:.f k y < = = & eXeXeXeXeXeXeXeXeXeXeXeXeXeXeXeXeXeX",
"eXeXeXeXeXeXeXeXeXeXeXeXeXeXeXeX% & = - r k 1 ; / M.W.^.OX:X4X4X,X.X^.W.C.@.4 , j y < = = & eXeXeXeXeXeXeXeXeXeXeXeXeXeXeXeXeXeX",
"eXeXeXeXeXeXeXeXeXeXeXeXeXeXeXeXeX& = = < r < = 1 H +.u.B.W.~.~.!.K.z.u.` 2 & - r y r < & & eXeXeXeXeXeXeXeXeXeXeXeXeXeXeXeXeXeX",
"eXeXeXeXeXeXeXeXeXeXeXeXeXeXeXeXeX& & = - < - < t z p V ' x.V.V.c.e.S f i < - - < t t , & eXeXeXeXeXeXeXeXeXeXeXeXeXeXeXeXeXeXeX",
"eXeXeXeXeXeXeXeXeXeXeXeXeXeXeXeXeXeX& = < t r < r d U ) 5.s.j.j.j.p.3._ I p r < t y 1 = % eXeXeXeXeXeXeXeXeXeXeXeXeXeXeXeXeXeXeX",
"eXeXeXeXeXeXeXeXeXeXeXeXeXeXeXeXeXeX& & < t r - u U 6.a.d.g.g.g.g.f.a.5.U M 1 = r r - & eXeXeXeXeXeXeXeXeXeXeXeXeXeXeXeXeXeXeXeX",
"eXeXeXeXeXeXeXeXeXeXeXeXeXeXeXeXeXeXeX% & - - a h 7.a.a.a.f.g.g.g.a.5.U m k : O & - & eXeXeXeXeXeXeXeXeXeXeXeXeXeXeXeXeXeXeXeXeX",
"eXeXeXeXeXeXeXeXeXeXeXeXeXeXeXeXeXeXeX+ O & = u ) 8.q.a.d.g.g.g.f.5.I p t 1 % + & = eXeXeXeXeXeXeXeXeXeXeXeXeXeXeXeXeXeXeXeXeXeX",
"eXeXeXeXeXeXeXeXeXeXeXeXeXeXeXeXeXeXeX  > V p s 2.0.a.d.g.g.g.g.h.3.u u s u 2 ; - - eXeXeXeXeXeXeXeXeXeXeXeXeXeXeXeXeXeXeXeXeXeX",
"eXeXeXeXeXeXeXeXeXeXeXeXeXeXeXeXeXeXeX. 7 +.W D 2.a.h.g.g.g.g.g.h.3.s h _ ) 3.' p = eXeXeXeXeXeXeXeXeXeXeXeXeXeXeXeXeXeXeXeXeXeX",
"eXeXeXeXeXeXeXeXeXeXeXeXeXeXeXeXeXeXeXeX7 X...Q 6.d.g.g.f.a.a.a.a.4.I g g I y.i.V O eXeXeXeXeXeXeXeXeXeXeXeXeXeXeXeXeXeXeXeXeXeX",
"eXeXeXeXeXeXeXeXeXeXeXeXeXeXeXeXeXeXeXeXeX> W l.j.g.g.h.a.q.0.0.0.6._ 5 @ q m.n.7 . eXeXeXeXeXeXeXeXeXeXeXeXeXeXeXeXeXeXeXeXeXeX",
"eXeXeXeXeXeXeXeXeXeXeXeXeXeXeXeXeXeXeXeXeX+ W l.k.g.f.0.9.a.a.a.a.0._ ; q Z.}.T.w . eXeXeXeXeXeXeXeXeXeXeXeXeXeXeXeXeXeXeXeXeXeX",
"eXeXeXeXeXeXeXeXeXeXeXeXeXeXeXeXeXeXeXeXeX+ Z O.p.f.h.0.8.0.d.g.g.a.) 5  .|.7X'.w . eXeXeXeXeXeXeXeXeXeXeXeXeXeXeXeXeXeXeXeXeXeX",
"eXeXeXeXeXeXeXeXeXeXeXeXeXeXeXeXeXeXeXeXeXeX+ 4 3.a.f.d.0.8.a.g.g.v.y.Z  .'.;XT.w . eXeXeXeXeXeXeXeXeXeXeXeXeXeXeXeXeXeXeXeXeXeX",
"eXeXeXeXeXeXeXeXeXeXeXeXeXeXeXeXeXeXeXeXeXeX  * _ a.g.g.d.q.a.g.k.H.G.t.~ -.,.*.9 eXeXeXeXeXeXeXeXeXeXeXeXeXeXeXeXeXeXeXeXeXeXeX",
"eXeXeXeXeXeXeXeXeXeXeXeXeXeXeXeXeXeXeXeXeXeXeX* I y.J.H.v.y.4.y.v.Q.oXE.#.3 # # eXeXeXeXeXeXeXeXeXeXeXeXeXeXeXeXeXeXeXeXeXeXeXeX",
"eXeXeXeXeXeXeXeXeXeXeXeXeXeXeXeXeXeXeXeXeXeXeXeX8 ;.}.OXS.( > C m.~.<X#XZ.3   eXeXeXeXeXeXeXeXeXeXeXeXeXeXeXeXeXeXeXeXeXeXeXeXeX",
"eXeXeXeXeXeXeXeXeXeXeXeXeXeXeXeXeXeXeXeXeXeXeX9 -.(.@X(.&.#   @ } K..X2XP.9 eXeXeXeXeXeXeXeXeXeXeXeXeXeXeXeXeXeXeXeXeXeXeXeXeXeX",
"eXeXeXeXeXeXeXeXeXeXeXeXeXeXeXeXeXeXeXeXeXeXeXq L. X X1.9       @ X.K.[.Z.9 eXeXeXeXeXeXeXeXeXeXeXeXeXeXeXeXeXeXeXeXeXeXeXeXeXeX",
"eXeXeXeXeXeXeXeXeXeXeXeXeXeXeXeXeXeXeXeXeXeXeX6 *.P.@X'.-.#     . 8 !  .^ eXeXeXeXeXeXeXeXeXeXeXeXeXeXeXeXeXeXeXeXeXeXeXeXeXeXeX",
"eXeXeXeXeXeXeXeXeXeXeXeXeXeXeXeXeXeXeXeXeXeXeX0 =.P..X*XA.6     eXeXX X eXeXeXeXeXeXeXeXeXeXeXeXeXeXeXeXeXeXeXeXeXeXeXeXeXeXeXeX",
"eXeXeXeXeXeXeXeXeXeXeXeXeXeXeXeXeXeXeXeXeXeXeXe /.{.W.W.b.3 eXeXeXeXeXeXeXeXeXeXeXeXeXeXeXeXeXeXeXeXeXeXeXeXeXeXeXeXeXeXeXeXeXeX",
"eXeXeXeXeXeXeXeXeXeXeXeXeXeXeXeXeXeXeXeXeXeX  $ =.,.| } J eXeXeXeXeXeXeXeXeXeXeXeXeXeXeXeXeXeXeXeXeXeXeXeXeXeXeXeXeXeXeXeXeXeXeX",
"eXeXeXeXeXeXeXeXeXeXeXeXeXeXeXeXeXeXeXeXeXeX    o o X X X eXeXeXeXeXeXeXeXeXeXeXeXeXeXeXeXeXeXeXeXeXeXeXeXeXeXeXeXeXeXeXeXeXeXeX"
};
