/* XPM */
static const char *player_2_0[] = {
/* columns rows colors chars-per-pixel */
"64 64 178 2 ",
"   c #270A02",
".  c #2B0B01",
"X  c #2A0F0B",
"o  c #340C00",
"O  c #3A0E01",
"+  c #2F1004",
"@  c #331204",
"#  c #3C1302",
"$  c #3E1903",
"%  c #3C190B",
"&  c #3A130A",
"*  c #2E1610",
"=  c #391E15",
"-  c #411502",
";  c #441B03",
":  c #4A1D03",
">  c #421D0A",
",  c #491A0A",
"<  c #471209",
"1  c #551C0C",
"2  c #51170B",
"3  c #5D1E10",
"4  c #541C12",
"5  c #462006",
"6  c #4D2204",
"7  c #46200C",
"8  c #4C250C",
"9  c #4F280E",
"0  c #522605",
"q  c #562A05",
"w  c #592C06",
"e  c #542A0B",
"r  c #5B2E09",
"t  c #5E310A",
"y  c #472310",
"u  c #43251A",
"i  c #5E2214",
"p  c #582E10",
"a  c #542B14",
"s  c #5B3317",
"d  c #64350D",
"f  c #67380F",
"g  c #69390F",
"h  c #652513",
"j  c #6F2818",
"k  c #6A2417",
"l  c #702919",
"z  c #633511",
"x  c #663913",
"c  c #6C3B11",
"v  c #61391D",
"b  c #6A3615",
"n  c #723F15",
"m  c #482C21",
"M  c #583926",
"N  c #53352D",
"B  c #573231",
"V  c #744216",
"C  c #79451A",
"Z  c #464036",
"A  c #544235",
"S  c #73492D",
"D  c #784523",
"F  c #604638",
"G  c #664D3D",
"H  c #724F35",
"J  c #7F553F",
"K  c #6D5444",
"L  c #61584C",
"P  c #715847",
"I  c #775E4D",
"U  c #696051",
"Y  c #7A6451",
"T  c #7D7361",
"R  c #822D22",
"E  c #8B3626",
"W  c #823624",
"Q  c #953A2A",
"!  c #9D3D2F",
"~  c #96362C",
"^  c #9C3630",
"/  c #9F3931",
"(  c #A33D32",
")  c #81401E",
"_  c #885729",
"`  c #81522D",
"'  c #975A2B",
"]  c #835937",
"[  c #A34232",
"{  c #AB4335",
"}  c #AF4836",
"|  c #A54339",
" . c #B24737",
".. c #B24937",
"X. c #B14738",
"o. c #B54A39",
"O. c #BA4D3B",
"+. c #95683F",
"@. c #996439",
"#. c #A36C39",
"$. c #BF5C48",
"%. c #8F6846",
"&. c #976A40",
"*. c #9F754E",
"=. c #896656",
"-. c #967159",
";. c #B46445",
":. c #A3784F",
">. c #B76756",
",. c #BD6B55",
"<. c #B4695A",
"1. c #8F7661",
"2. c #98707C",
"3. c #C46B56",
"4. c #C67059",
"5. c #C47766",
"6. c #B1875D",
"7. c #9D856E",
"8. c #B68E71",
"9. c #A9937A",
"0. c #BC9A78",
"q. c #CE935C",
"w. c #C18F61",
"e. c #D49E62",
"r. c #C58A76",
"t. c #C69C74",
"y. c #D6A36A",
"u. c #D7AC7A",
"i. c #D9AE7C",
"p. c #DBA379",
"a. c #A07882",
"s. c #B19F8F",
"d. c #AFA188",
"f. c #B5A187",
"g. c #B9A184",
"h. c #BCA78C",
"j. c #B8A694",
"k. c #BFB094",
"l. c #C39F81",
"z. c #C2A88B",
"x. c #CBAF8C",
"c. c #D6B184",
"v. c #C1AE93",
"b. c #DAAE93",
"n. c #C9B397",
"m. c #CCB79A",
"M. c #CEBB9D",
"N. c #DAB396",
"B. c #DEB698",
"V. c #D7B998",
"C. c #E2AF81",
"Z. c #E3B183",
"A. c #ECBA9F",
"S. c #D2ADAD",
"D. c #CFBDA0",
"F. c #CDA2B7",
"G. c #D5B7B6",
"H. c #E0B9BE",
"J. c #E4C79F",
"K. c #E1C196",
"L. c #E8CDA7",
"P. c #E5CBAC",
"I. c #E3C7A4",
"U. c #F5CAAC",
"Y. c #E9D1AB",
"T. c #E9D6B5",
"R. c #EAD6B5",
"E. c #EBD8B7",
"W. c #ECD3BF",
"Q. c #EDDAB9",
"!. c #ECDAB8",
"~. c #E5BFCB",
"^. c #EAC6CC",
"/. c #EFD5C0",
"(. c #EEDFC3",
"). c #F7F0E4",
"_. c #FF00FF",
"`. c black",
/* pixels */
"_._._._._._._._._._._._._._._._._._._._._._._._._._._._._._._._._._._._._._._._._._._._._._._._._._._._._._._._._._._._._._._._.",
"_._._._._._._._._._._._._._._._._._._._._._._._._._._._._._._._._._._._._._._._._._._._._._._._._._._._._._._._._._._._._._._._.",
"_._._._._._._._._._._._._._._._._._._._._._._._._._._._._._._._._._._._._._._._._._._._._._._._._._._._._._._._._._._._._._._._.",
"_._._._._._._._._._._._._._._._._._._._._._._._._._._._._._._._._._._._._._._._._._._._._._._._._._._._._._._._._._._._._._._._.",
"_._._._._._._._._._._._._._._._._._._._._._._._._._._._._._._._._._._._._._._._._._._._._._._._._._._._._._._._._._._._._._._._.",
"_._._._._._._._._._._._._._._._._._._._._._._._._._._._._._._._._._._._._._._._._._._._._._._._._._._._._._._._._._._._._._._._.",
"_._._._._._._._._._._._._._._._._._._._._._._._._._._._._._._._._._._._._._._._._._._._._._._._._._._._._._._._._._._._._._._._.",
"_._._._._._._._._._._._._._._._._._._._._._._._._._._._._._._._._._._._._._._._._._._._._._._._._._._._._._._._._._._._._._._._.",
"_._._._._._._._._._._._._._._._._._._._._._._._._._._._._._._._._._._._._._._._._._._._._._._._._._._._._._._._._._._._._._._._.",
"_._._._._._._._._._._._._._._._._._._._._._._._._._._._._._._._._._._._._._._._._._._._._._._._._._._._._._._._._._._._._._._._.",
"_._._._._._._._._._._._._._._._._._._._._._._._._._._._._._._._._._._._._._._._._._._._._._._._._._._._._._._._._._._._._._._._.",
"_._._._._._._._._._._._._._._._._._._._._._._._._._._._._._._._._._._._._._._._._._._._._._._._._._._._._._._._._._._._._._._._.",
"_._._._._._._._._._._._._._._._._._._._._._._._._._._._._._._._._._._._._._._._._._._._._._._._._._._._._._._._._._._._._._._._.",
"_._._._._._._._._._._._._._._._._._._._._._._._.. . . . . . . . . . . . . _._._._._._._._._._._._._._._._._._._._._._._._._._._.",
"_._._._._._._._._._._._._._._._._._._._._._._.@ $ ; ; ; ; ; ; ; ; ; ; ; $ . _._._._._._._._._._._._._._._._._._._._._._._._._._.",
"_._._._._._._._._._._._._._._._._._._._._._.% > 6 6 6 q r q q w r r q q 6 ; @ _._._._._._._._._._._._._._._._._._._._._._._._._.",
"_._._._._._._._._._._._._._._._._._._._._.@ 9 z r 5 ; t c t w d c g r w t z 9 @ _._._._._._._._._._._._._._._._._._._._._._._._.",
"_._._._._._._._._._._._._._._._._._._._._.. 8 t 8 5 e z f r q t g c f t f V x 8 @ _._._._._._._._._._._._._._._._._._._._._._._.",
"_._._._._._._._._._._._._._._._._._._._._.@ 5 6 ; 8 z f t w q w r c V f f V C b 7 @ _._._._._._._._._._._._._._._._._._._._._._.",
"_._._._._._._._._._._._._._._._._._._._.@ ; 0 0 5 5 9 z f r q q w c V f t f V C x 9 + _._._._._._._._._._._._._._._._._._._._._.",
"_._._._._._._._._._._._._._._._._._._.> 8 q w w q 5 5 t f r q w f c c d q w f V C p @ _._._._._._._._._._._._._._._._._._._._._.",
"_._._._._._._._._._._._._._._._._._.@ e z r w w w q 0 r r w q t c c d r w w w f n e @ _._._._._._._._._._._._._._._._._._._._._.",
"_._._._._._._._._._._._._._._._._._.@ e d r w w w w w w w w q r f d t f f r q r d r ; @ _._._._._._._._._._._._._._._._._._._._.",
"_._._._._._._._._._._._._._._._._._.+ ; 0 q 0 6 q 0 6 6 0 q w w w w r c c r q q w w 6 @   _._._._._._._._._._._._._._._._._._._.",
"_._._._._._._._._._._._._._._._._._._.@ $ 6 5 ; 6 5 $ # ; 0 q q q q w t t w q q q w 0 #   _._._._._._._._._._._._._._._._._._._.",
"_._._._._._._._._._._._._._._._._._._._.@ ; s v 9 p v 7 # ; 0 q q q w w w w w q w w 6 #   _._._._._._._._._._._._._._._._._._._.",
"_._._._._._._._._._._._._._._._._._._._.= M %.*.H ] :.S > # : w t t w q q q q 0 q w 0 #   _._._._._._._._._._._._._._._._._._._.",
"_._._._._._._._._._._._._._._._._._._._.F 7.x.N.g.z.c.6.S > ; r c f w q w q 6 : 0 w 0 # .   _._._._._._._._._._._._._._._._._._.",
"_._._._._._._._._._._._._._._._._._._.X K n.!.!.T.T.L.u.+.y $ r g c f t w q ; - 6 w 0 - o   _._._._._._._._._._._._._._._._._._.",
"_._._._._._._._._._._._._._._._._._._.X K n.R.P.T.!.Y.i.&.y $ w f c c d w q ; - 6 w 0 - o   _._._._._._._._._._._._._._._._._._.",
"_._._._._._._._._._._._._._._._._._._.X K z.l.8.V.E.Y.u.+.y $ x _ D p e w q ; - 6 w 0 - o   _._._._._._._._._._._._._._._._._._.",
"_._._._._._._._._._._._._._._._._._._.X K g.-.J z.E.Y.u.+.y $ V #.` > ; q q ; - 6 w 0 - o   _._._._._._._._._._._._._._._._._._.",
"_._._._._._._._._._._._._._._._._._._.= I f.Y A f.!.Y.i.+.y $ c ' D % ; q 0 ; - 0 w 0 - o   _._._._._._._._._._._._._._._._._._.",
"_._._._._._._._._._._._._._._._._._.u P 9.v.U Z d.!.Y.i.&.y $ r b 9 $ : 0 : ; : 0 w 0 # .   _._._._._._._._._._._._._._._._._._.",
"_._._._._._._._._._._._._._._._._._.m 1.m.D.T L j.W.P.t.] 7 ; 6 ; # # 5 6 - : q q q 5 #   _._._._._._._._._._._._._._._._._._._.",
"_._._._._._._._._._._._._._._._._._._.G 7.M.k.s.G.^.S.=.a $ ; 0 5 # # : : - : q q 6 - o   _._._._._._._._._._._._._._._._._._._.",
"_._._._._._._._._._._._._._._._._._._.* K m.!.W.~.F.2.B @ - 6 q q 6 ; : ; # : q q : O .   _._._._._._._._._._._._._._._._._._._.",
"_._._._._._._._._._._._._._._._._._._.X G h.T./.H.a.B & - 6 q q q q 6 ; O O : q q ; o .   _._._._._._._._._._._._._._._._._._._.",
"_._._._._._._._._._._._._._._._._._._._.N =.h.P.b.=.% # 6 q 6 : 0 w 0 - o O : 0 : # .   _._._._._._._._._._._._._._._._._._._._.",
"_._._._._._._._._._._._._._._._._._._._._.u Y 0.w.` % ; 0 0 ; ; 0 q 6 # O - 6 6 - o   _._._._._._._._._._._._._._._._._._._._._.",
"_._._._._._._._._._._._._._._._._._._._._.. u S @.D > ; 6 ; : 0 0 : - O - 6 q 6 # o   _._._._._._._._._._._._._._._._._._._._._.",
"_._._._._._._._._._._._._._._._._._._._._.  . , ) W i , ; ; 0 q 6 - o o - 0 0 ; o .   _._._._._._._._._._._._._._._._._._._._._.",
"_._._._._._._._._._._._._._._._._._._._._.  . o _.! R 4 $ 6 q 6 - O - O - 6 ; O .   _._._._._._._._._._._._._._._._._._._._._._.",
"_._._._._._._._._._._._._._._._._._._._._._.    _._.! i - 6 6 - O 1 k 2 # # # o _._._._._._._._._._._._._._._._._._._._._._._._.",
"_._._._._._._._._._._._._._._._._._._._._._._._._._.[ h ; 6 ; - 3 R ~ k O o O o _._._._._._._._._._._._._._._._._._._._._._._._.",
"_._._._._._._._._._._._._._._._._._._._._._._._._._.[ j : 6 : 3 E } ..Q < o o _._._._._._._._._._._._._._._._._._._._._._._._._.",
"_._._._._._._._._._._._._._._._._._._._._._._._._._...Q j 1 h E } O.O.{ R _._._._._._._._._._._._._._._._._._._._._._._._._._._.",
"_._._._._._._._._._._._._._._._._._._._._._._._._.} ....Q l E } O.O.o.( ~ _._._._._._._._._._._._._._._._._._._._._._._._._._._.",
"_._._._._._._._._._._._._._._._._._._._._._._._./ ( { X.} [ } O.O.O._.( ( | _._._._._._._._._._._._._._._._._._._._._._._._._._.",
"_._._._._._._._._._._._._._._._._._._._._._._._.{ { { ( { o.O.O.O.O._.;.,.5._._._._._._._._._._._._._._._._._._._._._._._._._._.",
"_._._._._._._._._._._._._._._._._._._._._._._._.o...{ ^ ( ..O.O.O.O._.q.p.A._._._._._._._._._._._._._._._._._._._._._._._._._._.",
"_._._._._._._._._._._._._._._._._._._._._._._._.O.{ ^ ( { o.O.O.O.O._.e.Z.U._._._._._._._._._._._._._._._._._._._._._._._._._._.",
"_._._._._._._._._._._._._._._._._._._._._._._._.o.( / { O.O.O.O. .{ _.e.C.U._._._._._._._._._._._._._._._._._._._._._._._._._._.",
"_._._._._._._._._._._._._._._._._._._._._._._._._.X.X.o.O.O.O...( | _.y.C.U._._._._._._._._._._._._._._._._._._._._._._._._._._.",
"_._._._._._._._._._._._._._._._._._._._._._._._._._._.O.O.O.O. .| <.N._._._._._._._._._._._._._._._._._._._._._._._._._._._._._.",
"_._._._._._._._._._._._._._._._._._._._._._._._._._._.O.$.3.4.,.>.r.I._._._._._._._._._._._._._._._._._._._._._._._._._._._._._.",
"_._._._._._._._._._._._._._._._._._._._._._._._._._._._._.b.B.B.N.B._._._._._._._._._._._._._._._._._._._._._._._._._._._._._._.",
"_._._._._._._._._._._._._._._._._._._._._._._._._._._._._.E.E.E.E.E._._._._._._._._._._._._._._._._._._._._._._._._._._._._._._.",
"_._._._._._._._._._._._._._._._._._._._._._._._._._._._._._.E.!.!.!._._._._._._._._._._._._._._._._._._._._._._._._._._._._._._.",
"_._._._._._._._._._._._._._._._._._._._._._._._._._._._._._.T.T.T.T._._._._._._._._._._._._._._._._._._._._._._._._._._._._._._.",
"_._._._._._._._._._._._._._._._._._._._._._._._._._._._._._.T.Y.J.K._._._._._._._._._._._._._._._._._._._._._._._._._._._._._._.",
"_._._._._._._._._._._._._._._._._._._._._._._._._._._._.).(.T.I.c.y._._._._._._._._._._._._._._._._._._._._._._._._._._._._._._.",
"_._._._._._._._._._._._._._._._._._._._._._._._._._._._._._._._._._._._._._._._._._._._._._._._._._._._._._._._._._._._._._._._.",
"_._._._._._._._._._._._._._._._._._._._._._._._._._._._._._._._._._._._._._._._._._._._._._._._._._._._._._._._._._._._._._._._."
};
