/* XPM */
static const char *player_0_8[] = {
/* columns rows colors chars-per-pixel */
"64 64 193 2 ",
"   c #030201",
".  c #0A0604",
"X  c #0C0905",
"o  c #0C0B09",
"O  c #160504",
"+  c #1A0603",
"@  c #1C0C06",
"#  c #1D0B09",
"$  c #180808",
"%  c #1C160E",
"&  c #15110B",
"*  c #191714",
"=  c #1B1915",
"-  c #151411",
";  c #210701",
":  c #260902",
">  c #2C0B01",
",  c #340B01",
"<  c #390D01",
"1  c #360E0B",
"2  c #3D0F09",
"3  c #2F1002",
"4  c #2B140C",
"5  c #25130E",
"6  c #341204",
"7  c #3B1302",
"8  c #3D1903",
"9  c #3E150D",
"0  c #3E1C0A",
"q  c #321D0D",
"w  c #291D14",
"e  c #301711",
"r  c #3B1411",
"t  c #361C12",
"y  c #26231E",
"u  c #29261F",
"i  c #2C2013",
"p  c #3F2310",
"a  c #372818",
"s  c #312519",
"d  c #282620",
"f  c #2C2A24",
"g  c #372720",
"h  c #302C26",
"j  c #3C372E",
"k  c #3F3A32",
"l  c #421602",
"z  c #451A03",
"x  c #4A1D04",
"c  c #46120D",
"v  c #48140E",
"b  c #461D08",
"n  c #461214",
"m  c #4C1413",
"M  c #521614",
"N  c #5D1B19",
"B  c #6C1F1E",
"V  c #621B1A",
"C  c #4D2204",
"Z  c #4D250C",
"A  c #472008",
"S  c #522605",
"D  c #562A05",
"F  c #582C06",
"G  c #53240A",
"H  c #55290B",
"J  c #5A2D09",
"K  c #5C2F08",
"L  c #5A2B0B",
"P  c #58270C",
"I  c #5E310A",
"U  c #5E3109",
"Y  c #5E300C",
"T  c #5E310A",
"R  c #422611",
"E  c #412D1D",
"W  c #4C2914",
"Q  c #5D2F10",
"!  c #552716",
"~  c #4A331D",
"^  c #5F3212",
"/  c #61330B",
"(  c #61310D",
")  c #63350C",
"_  c #66360D",
"`  c #63340C",
"'  c #67380E",
"]  c #69390F",
"[  c #65241E",
"{  c #72271F",
"}  c #613212",
"|  c #653411",
" . c #683612",
".. c #6B3B10",
"X. c #6A3911",
"o. c #6C3B12",
"O. c #6E3D12",
"+. c #6D3B13",
"@. c #6F3F1E",
"#. c #65331B",
"$. c #713F15",
"%. c #713E15",
"&. c #493520",
"*. c #533B24",
"=. c #583725",
"-. c #423D33",
";. c #642C21",
":. c #722D23",
">. c #7C2C25",
",. c #7C2624",
"<. c #6F3627",
"1. c #613E26",
"2. c #6B3B2D",
"3. c #7C3427",
"4. c #763024",
"5. c #744116",
"6. c #764219",
"7. c #794519",
"8. c #7A4519",
"9. c #7E491C",
"0. c #474137",
"q. c #4D473C",
"w. c #5B4730",
"e. c #6E5030",
"r. c #60513E",
"t. c #765837",
"y. c #554E42",
"u. c #5D5649",
"i. c #625848",
"p. c #6A6253",
"a. c #746C5B",
"s. c #766856",
"d. c #892B2A",
"f. c #832B26",
"g. c #902F2B",
"h. c #843329",
"j. c #8A372A",
"k. c #99362E",
"l. c #953B2F",
"z. c #92312C",
"x. c #9A3B30",
"c. c #A43C32",
"v. c #A93E32",
"b. c #814B1D",
"n. c #824424",
"m. c #8D4E26",
"M. c #904F27",
"N. c #914529",
"B. c #8E4334",
"V. c #9F4E36",
"C. c #A24434",
"Z. c #AD4436",
"A. c #B04637",
"S. c #B44938",
"D. c #B94D3A",
"F. c #A3583C",
"G. c #88643C",
"H. c #94613E",
"J. c #BC5846",
"K. c #B65241",
"L. c #8B6645",
"P. c #976F43",
"I. c #997045",
"U. c #9F735F",
"Y. c #A16F4A",
"T. c #A9794A",
"R. c #A8705C",
"E. c #897A65",
"W. c #B2814F",
"Q. c #A18059",
"!. c #B59268",
"~. c #AB9678",
"^. c #B9A17F",
"/. c #D4997F",
"(. c #C3A279",
"). c #AE9E85",
"_. c #AD9F88",
"`. c #AFA189",
"'. c #B1A38A",
"]. c #B9A88C",
"[. c #B6A890",
"{. c #BCAD93",
"}. c #D89D82",
"|. c #C0AB90",
" X c #C8B89B",
".X c #D9C09B",
"XX c #D1C2A4",
"oX c #E3CCAC",
"OX c #E3D1B1",
"+X c #EBD5B4",
"@X c #F0DEBC",
"#X c #FF00FF",
"$X c black",
/* pixels */
"#X#X#X#X#X#X#X#X#X#X#X#X#X#X#X#X#X#X#X#X#X#X#X#X#X#X#X#X#X#X#X#X#X#X#X#X#X#X#X#X#X#X#X#X#X#X#X#X#X#X#X#X#X#X#X#X#X#X#X#X#X#X#X#X",
"#X#X#X#X#X#X#X#X#X#X#X#X#X#X#X#X#X#X#X#X#X#X#X#X#X#X#X#X#X#X#X#X#X#X#X#X#X#X#X#X#X#X#X#X#X#X#X#X#X#X#X#X#X#X#X#X#X#X#X#X#X#X#X#X",
"#X#X#X#X#X#X#X#X#X#X#X#X#X#X#X#X#X#X#X#X#X#X#X#X#X#X#X#X#X#X#X#X#X#X#X#X#X#X#X#X#X#X#X#X#X#X#X#X#X#X#X#X#X#X#X#X#X#X#X#X#X#X#X#X",
"#X#X#X#X#X#X#X#X#X#X#X#X#X#X#X#X#X#X#X#X#X#X#X#X#X#X#X#X#X#X#X#X#X#X#X#X#X#X#X#X#X#X#X#X#X#X#X#X#X#X#X#X#X#X#X#X#X#X#X#X#X#X#X#X",
"#X#X#X#X#X#X#X#X#X#X#X#X#X#X#X#X#X#X#X#X#X#X#X#X#X#X#X#X#X#X#X#X#X#X#X#X#X#X#X#X#X#X#X#X#X#X#X#X#X#X#X#X#X#X#X#X#X#X#X#X#X#X#X#X",
"#X#X#X#X#X#X#X#X#X#X#X#X#X#X#X#X#X#X#X#X#X#X#X#X#X#X#X#X#X#X#X#X#X#X#X#X#X#X#X#X#X#X#X#X#X#X#X#X#X#X#X#X#X#X#X#X#X#X#X#X#X#X#X#X",
"#X#X#X#X#X#X#X#X#X#X#X#X#X#X#X#X#X#X#X#X#X#X#X#X#X#X#X#X#X#X#X#X#X#X#X#X#X#X#X#X#X#X#X#X#X#X#X#X#X#X#X#X#X#X#X#X#X#X#X#X#X#X#X#X",
"#X#X#X#X#X#X#X#X#X#X#X#X#X#X#X#X#X#X#X#X#X#X#X#X#X#X#X#X#X#X#X#X#X#X#X#X#X#X#X#X#X#X#X#X#X#X#X#X#X#X#X#X#X#X#X#X#X#X#X#X#X#X#X#X",
"#X#X#X#X#X#X#X#X#X#X#X#X#X#X#X#X#X#X#X#X#X#X#X#X#X#X#X#X#X#X#X#X#X#X#X#X#X#X#X#X#X#X#X#X#X#X#X#X#X#X#X#X#X#X#X#X#X#X#X#X#X#X#X#X",
"#X#X#X#X#X#X#X#X#X#X#X#X#X#X#X#X#X#X#X#X#X#X#X#X#X#X#X#X#X#X#X#X#X#X#X#X#X#X#X#X#X#X#X#X#X#X#X#X#X#X#X#X#X#X#X#X#X#X#X#X#X#X#X#X",
"#X#X#X#X#X#X#X#X#X#X#X#X#X#X#X#X#X#X#X#X#X#X#X#X> > 6 6 6 6 #X#X6 6 6 6 6 > > #X#X#X#X#X#X#X#X#X#X#X#X#X#X#X#X#X#X#X#X#X#X#X#X#X",
"#X#X#X#X#X#X#X#X#X#X#X#X#X#X#X#X#X#X#X#X#X: : > , b Q } ^ Q A 0 H ^ } ^ Z 7 > > : #X#X#X#X#X#X#X#X#X#X#X#X#X#X#X#X#X#X#X#X#X#X#X",
"#X#X#X#X#X#X#X#X#X#X#X#X#X#X#X#X#X#X#X#X> > 6 7 l F X.X.| } H G Q |  .o.( x 8 6 > > #X#X#X#X#X#X#X#X#X#X#X#X#X#X#X#X#X#X#X#X#X#X",
"#X#X#X#X#X#X#X#X#X#X#X#X#X#X#X#X#X#X#X> , 7 z C S D F C z x L } G z x G F D S C 8 , > #X#X#X#X#X#X#X#X#X#X#X#X#X#X#X#X#X#X#X#X#X",
"#X#X#X#X#X#X#X#X#X#X#X#X#X#X#X#X#X#X> 7 z x S F D C z z x C J ( S x z z x D F D C x 8 6 #X#X#X#X#X#X#X#X#X#X#X#X#X#X#X#X#X#X#X#X",
"#X#X#X#X#X#X#X#X#X#X#X#X#X#X#X#X#X> 8 S J F D F D C z x S D F F D S C z x S F D D J P z 6 #X#X#X#X#X#X#X#X#X#X#X#X#X#X#X#X#X#X#X",
"#X#X#X#X#X#X#X#X#X#X#X#X#X#X#X#X> 7 H X.o.I F F F D C z x D F F D C z x S D F F F _ O.Y z > #X#X#X#X#X#X#X#X#X#X#X#X#X#X#X#X#X#X",
"#X#X#X#X#X#X#X#X#X#X#X#X#X#X#X#X> b | 7.$./ / _ K F S l x Y / F D x l C D F / _ I X.7.$.H 6 #X#X#X#X#X#X#X#X#X#X#X#X#X#X#X#X#X#X",
"#X#X#X#X#X#X#X#X#X#X#X#X#X#X#X#X> Z 6.b.5.) X.$./ F S z G +.] I J C l C D K o.$.) X.9.9.^ 6 #X#X#X#X#X#X#X#X#X#X#X#X#X#X#X#X#X#X",
"#X#X#X#X#X#X#X#X#X#X#X#X#X#X#X#X> Z 7.b.$.) O.5./ F S z G $.X./ _ P l x D K O.5._ X.9.9.} 6 #X#X#X#X#X#X#X#X#X#X#X#X#X#X#X#X#X#X",
"#X#X#X#X#X#X#X#X#X#X#X#X#X#X#X#X> A +.5.] I _ X.I F S z G $.X.I ( G x C D F _ X./ ) %.$.L 6 #X#X#X#X#X#X#X#X#X#X#X#X#X#X#X#X#X#X",
"#X#X#X#X#X#X#X#X#X#X#X#X#X#X#X#X> 8 J I K F K K F F S z G +.] D x x S D D F K K F F I I C 6 #X#X#X#X#X#X#X#X#X#X#X#X#X#X#X#X#X#X",
"#X#X#X#X#X#X#X#X#X#X#X#X#X#X#X#X> 8 S F D F F D F F S l x ( / S l z D F F F F F F D F D b 3 #X#X#X#X#X#X#X#X#X#X#X#X#X#X#X#X#X#X",
"#X#X#X#X#X#X#X#X#X#X#X#X#X#X#X#X> 8 S F F F F F F F S x z C D S z x D F F F F F F D F D A 6 > #X#X#X#X#X#X#X#X#X#X#X#X#X#X#X#X#X",
"#X#X#X#X#X#X#X#X#X#X#X#X#X#X#X> , l S F F F F F F F D S x z C S S S D F F F F F F F F D x 7 > : #X#X#X#X#X#X#X#X#X#X#X#X#X#X#X#X",
"#X#X#X#X#X#X#X#X#X#X#X#X#X#X: > , 7 x S D F D D D D F D S x z C D F F F D D D D F F D C l < > : #X#X#X#X#X#X#X#X#X#X#X#X#X#X#X#X",
"#X#X#X#X#X#X#X#X#X#X#X#X#X#X: > < < 7 C D F K I I K F D D S z l S F D D F I I I F D S z 7 < , > #X#X#X#X#X#X#X#X#X#X#X#X#X#X#X#X",
"#X#X#X#X#X#X#X#X#X#X#X#X#X#X: 6 l l 7 C D F _ $.$._ F D F D z l C F F F / O.5.X.I F S l 8 z 7 > #X#X#X#X#X#X#X#X#X#X#X#X#X#X#X#X",
"#X#X#X#X#X#X#X#X#X#X#X#X#X#X: 6 C C x F / J ( +.6.O.I I / D z l S I ) I _ 5.$.| K I I S x C 8 > #X#X#X#X#X#X#X#X#X#X#X#X#X#X#X#X",
"#X#X#X#X#X#X#X#X#X#X#X#X#X#X: 6 C S J X.X.J x G $.%._ O.o.F z l C _ $.' X.5.Q x S _ O.I D S 7 > #X#X#X#X#X#X#X#X#X#X#X#X#X#X#X#X",
"#X#X#X#X#X#X#X#X#X#X#X#X#X#X: > 8 C F _ _ D z x +.7.5.7.+.C 7 < z ( 7.5.5.6.P l C / _ I S z 6 > #X#X#X#X#X#X#X#X#X#X#X#X#X#X#X#X",
"#X#X#X#X#X#X#X#X#X#X#X#X#X#X: > < l S D F D z x +.b.b.9. .z , , 7 P 7.b.b.7.P l C F F S x 7 > : #X#X#X#X#X#X#X#X#X#X#X#X#X#X#X#X",
"#X#X#X#X#X#X#X#X#X#X#X#X#X#X: > , < l C F D z x +.b.9.9.| l , , < P 6.9.b.7.P l C F D z 7 < > : #X#X#X#X#X#X#X#X#X#X#X#X#X#X#X#X",
"#X#X#X#X#X#X#X#X#X#X#X#X#X#X#X> > , 7 C F D z x +.$.|  .L l , , < G | | +.6.P l S F S l , , > #X#X#X#X#X#X#X#X#X#X#X#X#X#X#X#X#X",
"#X#X#X#X#X#X#X#X#X#X#X#X#X#X#X#X> > < x S S z x } L x C x 7 , , < z S x G | G l S D C 8 , > : #X#X#X#X#X#X#X#X#X#X#X#X#X#X#X#X#X",
"#X#X#X#X#X#X#X#X#X#X#X#X#X#X#X#X: > < 7 b C z l x C x z 7 < , , < 7 l x C x l l C C 8 < , > #X#X#X#X#X#X#X#X#X#X#X#X#X#X#X#X#X#X",
"#X#X#X#X#X#X#X#X#X#X#X#X#X#X#X#X: > , 6 b S C z l z z 7 < , < < , , < l x z l x S C 7 < > > #X#X#X#X#X#X#X#X#X#X#X#X#X#X#X#X#X#X",
"#X#X#X#X#X#X#X#X#X#X#X#X#X#X#X#X#X> > l S D D S S x 8 , > , < < , , > 7 z C S D D S b 6 > #X#X#X#X#X#X#X#X#X#X#X#X#X#X#X#X#X#X#X",
"#X#X#X#X#X#X#X#X#X#X#X#X#X#X#X#X#X#X> 7 C D F F F S x 7 > > , , , > < l C D F F D S l , : #X#X#X#X#X#X#X#X#X#X#X#X#X#X#X#X#X#X#X",
"#X#X#X#X#X#X#X#X#X#X#X#X#X#X#X#X#X#X> , 8 C C C C S x 7 , > , , > > < z C C C C D x 6 > #X#X#X#X#X#X#X#X#X#X#X#X#X#X#X#X#X#X#X#X",
"#X#X#X#X#X#X#X#X#X#X#X#X#X#X#X#X#X#X#X> , 7 7 6 7 l 7 < , > > , > > < 7 l 7 7 8 C z > #X#X#X#X#X#X#X#X#X#X#X#X#X#X#X#X#X#X#X#X#X",
"#X#X#X#X#X#X#X#X#X#X#X#X#X#X#X#X#X#X#X#X> > > > , < < < , , > > > , < < < , > > 8 8 > #X#X#X#X#X#X#X#X#X#X#X#X#X#X#X#X#X#X#X#X#X",
"#X#X#X#X#X#X#X#X#X#X#X#X#X#X#X#X#X#X#X#X> > > > , , , , , , < < , , , , , , > > > > #X#X#X#X#X#X#X#X#X#X#X#X#X#X#X#X#X#X#X#X#X#X",
"#X#X#X#X#X#X#X#X#X#X#X#X#X#X#X#X#X#X#X#X> > , , > > > , , , v M < , , , > > > , , > > #X#X#X#X#X#X#X#X#X#X#X#X#X#X#X#X#X#X#X#X#X",
"#X#X#X#X#X#X#X#X#X#X#X#X#X#X#X#X#X#X#X+ ; > , < v m c < : ; 1 r : ; , 2 1 : ; > , > > #X#X#X#X#X#X#X#X#X#X#X#X#X#X#X#X#X#X#X#X#X",
"#X#X#X#X#X#X#X#X#X#X#X#X#X#X#X#X#X#X#X  + > > 9 { f.B c : O $ $ O + 2 N m # : 6 > : #X#X#X#X#X#X#X#X#X#X#X#X#X#X#X#X#X#X#X#X#X#X",
"#X#X#X#X#X#X#X#X#X#X#X#X#X#X#X#X#X#X#X  4 ! 0 9 h.c.d.B M n n n n m V ,.N 4 ~ 1.e X #X#X#X#X#X#X#X#X#X#X#X#X#X#X#X#X#X#X#X#X#X#X",
"#X#X#X#X#X#X#X#X#X#X#X#X#X#X#X#X#X#X#X. p n.#.! l.A.c.z.d.d.d.d.d.d.g.k.3.=.L.Q.r.f #X#X#X#X#X#X#X#X#X#X#X#X#X#X#X#X#X#X#X#X#X#X",
"#X#X#X#X#X#X#X#X#X#X#X#X#X#X#X#X#X#X#X. R M.N.h.C.S.S.Z.Z.Z.Z.Z.Z.Z.Z.Z.F.Y.(..X].p.= #X#X#X#X#X#X#X#X#X#X#X#X#X#X#X#X#X#X#X#X#X",
"#X#X#X#X#X#X#X#X#X#X#X#X#X#X#X#X#X#X#X. R m.n.:.l.Z.A.S.D.D.S.Z.Z.Z.A.S.V.L.^.+XOXE.= #X#X#X#X#X#X#X#X#X#X#X#X#X#X#X#X#X#X#X#X#X",
"#X#X#X#X#X#X#X#X#X#X#X#X#X#X#X#X#X#X#X. p @.W r >.c.c.Z.S.D.Z.c.c.c.c.Z.3.E s.{.{.s.= #X#X#X#X#X#X#X#X#X#X#X#X#X#X#X#X#X#X#X#X#X",
"#X#X#X#X#X#X#X#X#X#X#X#X#X#X#X#X#X#X#X#X4 q @ 4 h.c.c.c.Z.S.S.Z.x.k.c.Z.4.5 f q.y.k #X#X#X#X#X#X#X#X#X#X#X#X#X#X#X#X#X#X#X#X#X#X",
"#X#X#X#X#X#X#X#X#X#X#X#X#X#X#X#X#X#X#X#X#X    4 j.A.v.c.Z.S.l.:.[ >.k.Z.:.# . o o #X#X#X#X#X#X#X#X#X#X#X#X#X#X#X#X#X#X#X#X#X#X#X",
"#X#X#X#X#X#X#X#X#X#X#X#X#X#X#X#X#X#X#X#X#X#X  e B.J.J.J.K.C.;.t t ;.l.l.[ # #X#X#X#X#X#X#X#X#X#X#X#X#X#X#X#X#X#X#X#X#X#X#X#X#X#X",
"#X#X#X#X#X#X#X#X#X#X#X#X#X#X#X#X#X#X#X#X#X#X. g U.}.}./.R.2.1.e.t.H.F.<.r O #X#X#X#X#X#X#X#X#X#X#X#X#X#X#X#X#X#X#X#X#X#X#X#X#X#X",
"#X#X#X#X#X#X#X#X#X#X#X#X#X#X#X#X#X#X#X#X#X#X. j _.+XoX|.s.s *.G.I.W.T.*.$ #X#X#X#X#X#X#X#X#X#X#X#X#X#X#X#X#X#X#X#X#X#X#X#X#X#X#X",
"#X#X#X#X#X#X#X#X#X#X#X#X#X#X#X#X#X#X#X#X#X#X. j '.@XXXa.d o % s E t.P.&.X #X#X#X#X#X#X#X#X#X#X#X#X#X#X#X#X#X#X#X#X#X#X#X#X#X#X#X",
"#X#X#X#X#X#X#X#X#X#X#X#X#X#X#X#X#X#X#X#X#X#X. j '.@X Xy.o       X a *.i   #X#X#X#X#X#X#X#X#X#X#X#X#X#X#X#X#X#X#X#X#X#X#X#X#X#X#X",
"#X#X#X#X#X#X#X#X#X#X#X#X#X#X#X#X#X#X#X#X#X#X. j `.OX_.0.o #X#X    . & w y #X#X#X#X#X#X#X#X#X#X#X#X#X#X#X#X#X#X#X#X#X#X#X#X#X#X#X",
"#X#X#X#X#X#X#X#X#X#X#X#X#X#X#X#X#X#X#X#X#X  o -._.[.p.y . #X#X#X    * u.p.u #X#X#X#X#X#X#X#X#X#X#X#X#X#X#X#X#X#X#X#X#X#X#X#X#X#X",
"#X#X#X#X#X#X#X#X#X#X#X#X#X#X#X#X#X#X#X#X#X. h s.^.E.h o #X#X#X#X    * u.p.u #X#X#X#X#X#X#X#X#X#X#X#X#X#X#X#X#X#X#X#X#X#X#X#X#X#X",
"#X#X#X#X#X#X#X#X#X#X#X#X#X#X#X#X#X#X#X#X#X- i.~.!.t.% #X#X#X#X#X    . = y #X#X#X#X#X#X#X#X#X#X#X#X#X#X#X#X#X#X#X#X#X#X#X#X#X#X#X",
"#X#X#X#X#X#X#X#X#X#X#X#X#X#X#X#X#X#X#X#X#X#Xq.i.w.E #X#X#X#X#X#X#X#X#X#X#X#X#X#X#X#X#X#X#X#X#X#X#X#X#X#X#X#X#X#X#X#X#X#X#X#X#X#X",
"#X#X#X#X#X#X#X#X#X#X#X#X#X#X#X#X#X#X#X#X#X#Xo o o o #X#X#X#X#X#X#X#X#X#X#X#X#X#X#X#X#X#X#X#X#X#X#X#X#X#X#X#X#X#X#X#X#X#X#X#X#X#X"
};
