/* XPM */
static const char *player_0_3[] = {
/* columns rows colors chars-per-pixel */
"64 64 194 2 ",
"   c #020101",
".  c #0D0905",
"X  c #0E0D0A",
"o  c #0A0401",
"O  c #130400",
"+  c #1B0602",
"@  c #110E0B",
"#  c #190C07",
"$  c #15120F",
"%  c #18120A",
"&  c #161511",
"*  c #1E1810",
"=  c #260902",
"-  c #2B0A01",
";  c #220709",
":  c #240909",
">  c #2C0B0B",
",  c #200701",
"<  c #340C01",
"1  c #3A0E01",
"2  c #350E09",
"3  c #3F0F08",
"4  c #2A140C",
"5  c #331203",
"6  c #3C1302",
"7  c #3D1903",
"8  c #3D1808",
"9  c #36150B",
"0  c #241C12",
"q  c #2D1C12",
"w  c #201E1A",
"e  c #371610",
"r  c #2C2013",
"t  c #27241E",
"y  c #29231C",
"u  c #342616",
"i  c #3D2010",
"p  c #3D2A19",
"a  c #362718",
"s  c #2A2721",
"d  c #2E2A24",
"f  c #322E27",
"g  c #36332C",
"h  c #421602",
"j  c #451A03",
"k  c #491D04",
"l  c #44120D",
"z  c #4A140E",
"x  c #441F0A",
"c  c #4D1E08",
"v  c #4A1B16",
"b  c #451812",
"n  c #531614",
"m  c #591D16",
"M  c #631D1C",
"N  c #6A1E1E",
"B  c #4D2204",
"V  c #47210B",
"C  c #4B230B",
"Z  c #472005",
"A  c #512604",
"S  c #562A05",
"D  c #582C06",
"F  c #53240A",
"G  c #58270C",
"H  c #55280A",
"J  c #5B2E09",
"K  c #5C2F08",
"L  c #59290D",
"P  c #592D0E",
"I  c #5B2C0A",
"U  c #5F3109",
"Y  c #5F310A",
"T  c #412617",
"R  c #5A251C",
"E  c #47331E",
"W  c #5E3112",
"Q  c #602F0E",
"!  c #61320B",
"~  c #63340D",
"^  c #65360E",
"/  c #63340D",
"(  c #69380F",
")  c #68380F",
"_  c #633311",
"`  c #683612",
"'  c #6B3A10",
"]  c #6A3910",
"[  c #6F3D12",
"{  c #6B3A15",
"}  c #6D3B13",
"|  c #713E15",
" . c #713E15",
".. c #4A3521",
"X. c #553B24",
"o. c #5C3927",
"O. c #433E34",
"+. c #6A2A21",
"@. c #7C2624",
"#. c #7A2E24",
"$. c #742221",
"%. c #633523",
"&. c #723D2A",
"*. c #7A3025",
"=. c #744115",
"-. c #744116",
";. c #764218",
":. c #7A451A",
">. c #7E481A",
",. c #7C481A",
"<. c #784417",
"1. c #5B442B",
"2. c #474237",
"3. c #504439",
"4. c #62472B",
"5. c #62482C",
"6. c #684D30",
"7. c #7A4C30",
"8. c #685238",
"9. c #775534",
"0. c #7A5534",
"q. c #7D5935",
"w. c #534C41",
"e. c #585144",
"r. c #695E4D",
"t. c #665E50",
"y. c #7C6040",
"u. c #6C6354",
"i. c #8D2E2A",
"p. c #8C352B",
"a. c #813127",
"s. c #94332C",
"d. c #9B3A2F",
"f. c #98372F",
"g. c #9B3630",
"h. c #9D3E31",
"j. c #A3392F",
"k. c #A33C32",
"l. c #A83F34",
"z. c #824C1D",
"x. c #8E4531",
"c. c #865335",
"v. c #98553A",
"b. c #AC4335",
"n. c #A74B3E",
"m. c #A94A3C",
"M. c #A84535",
"N. c #B04637",
"B. c #B54A39",
"V. c #B64B3A",
"C. c #B7513D",
"Z. c #83603B",
"A. c #865344",
"S. c #AE4D40",
"D. c #806241",
"F. c #966D43",
"G. c #9F7145",
"H. c #8F7656",
"J. c #917757",
"K. c #AA6240",
"L. c #AB7A4D",
"P. c #BE714A",
"I. c #857865",
"U. c #927D61",
"Y. c #C97A4F",
"T. c #A38159",
"R. c #B88355",
"E. c #8C816C",
"W. c #968469",
"Q. c #968B75",
"!. c #9A8D78",
"~. c #BE9261",
"^. c #A88872",
"/. c #BC8672",
"(. c #A5947D",
"). c #B69A77",
"_. c #C89867",
"`. c #CD957D",
"'. c #AFA28A",
"]. c #B5A286",
"[. c #DFB888",
"{. c #D8B488",
"}. c #C2AE90",
"|. c #C3B195",
" X c #DBBD93",
".X c #E2C297",
"XX c #D6C4A6",
"oX c #DCCCAD",
"OX c #E3CCAD",
"+X c #EAD3B3",
"@X c #ECDAB9",
"#X c #EBD8B7",
"$X c #FF00FF",
"%X c black",
/* pixels */
"$X$X$X$X$X$X$X$X$X$X$X$X$X$X$X$X$X$X$X$X$X$X$X$X$X$X$X$X$X$X$X$X$X$X$X$X$X$X$X$X$X$X$X$X$X$X$X$X$X$X$X$X$X$X$X$X$X$X$X$X$X$X$X$X",
"$X$X$X$X$X$X$X$X$X$X$X$X$X$X$X$X$X$X$X$X$X$X$X$X$X$X$X$X$X$X$X$X$X$X$X$X$X$X$X$X$X$X$X$X$X$X$X$X$X$X$X$X$X$X$X$X$X$X$X$X$X$X$X$X",
"$X$X$X$X$X$X$X$X$X$X$X$X$X$X$X$X$X$X$X$X$X$X$X$X$X$X$X$X$X$X$X$X$X$X$X$X$X$X$X$X$X$X$X$X$X$X$X$X$X$X$X$X$X$X$X$X$X$X$X$X$X$X$X$X",
"$X$X$X$X$X$X$X$X$X$X$X$X$X$X$X$X$X$X$X$X$X$X$X$X$X$X$X$X$X$X$X$X$X$X$X$X$X$X$X$X$X$X$X$X$X$X$X$X$X$X$X$X$X$X$X$X$X$X$X$X$X$X$X$X",
"$X$X$X$X$X$X$X$X$X$X$X$X$X$X$X$X$X$X$X$X$X$X$X$X$X$X$X$X$X$X$X$X$X$X$X$X$X$X$X$X$X$X$X$X$X$X$X$X$X$X$X$X$X$X$X$X$X$X$X$X$X$X$X$X",
"$X$X$X$X$X$X$X$X$X$X$X$X$X$X$X$X$X$X$X$X$X$X$X$X$X$X$X$X$X$X$X$X$X$X$X$X$X$X$X$X$X$X$X$X$X$X$X$X$X$X$X$X$X$X$X$X$X$X$X$X$X$X$X$X",
"$X$X$X$X$X$X$X$X$X$X$X$X$X$X$X$X$X$X$X$X$X$X$X$X$X$X$X$X$X$X$X$X$X$X$X$X$X$X$X$X$X$X$X$X$X$X$X$X$X$X$X$X$X$X$X$X$X$X$X$X$X$X$X$X",
"$X$X$X$X$X$X$X$X$X$X$X$X$X$X$X$X$X$X$X$X$X$X$X$X$X$X$X$X$X$X$X$X$X$X$X$X$X$X$X$X$X$X$X$X$X$X$X$X$X$X$X$X$X$X$X$X$X$X$X$X$X$X$X$X",
"$X$X$X$X$X$X$X$X$X$X$X$X$X$X$X$X$X$X$X$X$X$X$X$X$X$X$X$X$X$X$X$X$X$X$X$X$X$X$X$X$X$X$X$X$X$X$X$X$X$X$X$X$X$X$X$X$X$X$X$X$X$X$X$X",
"$X$X$X$X$X$X$X$X$X$X$X$X$X$X$X$X$X$X$X$X$X$X$X$X$X$X$X$X$X$X$X$X$X$X$X$X$X$X$X$X$X$X$X$X$X$X$X$X$X$X$X$X$X$X$X$X$X$X$X$X$X$X$X$X",
"$X$X$X$X$X$X$X$X$X$X$X$X$X$X$X$X$X$X$X$X$X$X$X$X$X$X$X$X$X$X$X$X$X$X$X$X$X$X$X$X$X$X$X$X$X$X$X$X$X$X$X$X$X$X$X$X$X$X$X$X$X$X$X$X",
"$X$X$X$X$X$X$X$X$X$X$X$X$X$X$X$X$X$X$X$X$X$X$X$X= = = = = = $X$X$X= = = = = $X$X$X$X$X$X$X$X$X$X$X$X$X$X$X$X$X$X$X$X$X$X$X$X$X$X",
"$X$X$X$X$X$X$X$X$X$X$X$X$X$X$X$X$X$X$X$X$X$X$X= - 9 x V V V 8 9 x V V V 8 < = $X$X$X$X$X$X$X$X$X$X$X$X$X$X$X$X$X$X$X$X$X$X$X$X$X",
"$X$X$X$X$X$X$X$X$X$X$X$X$X$X$X$X$X$X$X$X$X= - - 6 F ` { { ` C x W { { { P h < - = = $X$X$X$X$X$X$X$X$X$X$X$X$X$X$X$X$X$X$X$X$X$X",
"$X$X$X$X$X$X$X$X$X$X$X$X$X$X$X$X$X$X$X$X= < 6 j k I ^ Q P P P P P P I ^ Y B j 7 < - = $X$X$X$X$X$X$X$X$X$X$X$X$X$X$X$X$X$X$X$X$X",
"$X$X$X$X$X$X$X$X$X$X$X$X$X$X$X$X$X$X$X5 5 6 B S S S A k h k I _ B h h B A S S A j 6 5 $X$X$X$X$X$X$X$X$X$X$X$X$X$X$X$X$X$X$X$X$X",
"$X$X$X$X$X$X$X$X$X$X$X$X$X$X$X$X$X$X5 j B A S K S B h k B A J K A B k h k S K S A A B 6 - $X$X$X$X$X$X$X$X$X$X$X$X$X$X$X$X$X$X$X",
"$X$X$X$X$X$X$X$X$X$X$X$X$X$X$X$X$X5 j J ~ K S S S B k k B S K K S A k h B S D S K ! ! C 6 $X$X$X$X$X$X$X$X$X$X$X$X$X$X$X$X$X$X$X",
"$X$X$X$X$X$X$X$X$X$X$X$X$X$X$X$X- 7 J | [ Y J K K S A h k I J K S k h k S K J K J ) =.^ B 5 $X$X$X$X$X$X$X$X$X$X$X$X$X$X$X$X$X$X",
"$X$X$X$X$X$X$X$X$X$X$X$X$X$X$X$X- V [ >.| ! ^ ' Y K A h c ^ ^ K S k h B S K ^ ' ! ' ,.<.P 9 $X$X$X$X$X$X$X$X$X$X$X$X$X$X$X$X$X$X",
"$X$X$X$X$X$X$X$X$X$X$X$X$X$X$X$X- C :.z.=./ [ =.! K A h F [ ' Y ! A h k S K [ =.^ ' >.z._ 9 $X$X$X$X$X$X$X$X$X$X$X$X$X$X$X$X$X$X",
"$X$X$X$X$X$X$X$X$X$X$X$X$X$X$X$X- C ;.>.| / ' | ! K A h F | ' ! ` P h B S K ' | ~ ) :.,.W 9 $X$X$X$X$X$X$X$X$X$X$X$X$X$X$X$X$X$X",
"$X$X$X$X$X$X$X$X$X$X$X$X$X$X$X$X- Z ~ ' ^ K ! ^ K K A h F | ' J H F B A S K ! ~ Y ! ) ' H 5 $X$X$X$X$X$X$X$X$X$X$X$X$X$X$X$X$X$X",
"$X$X$X$X$X$X$X$X$X$X$X$X$X$X$X$X- 7 S K K D K K K K A h B ' ^ A h h A D D S D K D K K K Z - $X$X$X$X$X$X$X$X$X$X$X$X$X$X$X$X$X$X",
"$X$X$X$X$X$X$X$X$X$X$X$X$X$X$X$X- 7 A K S S S S S K A h j I K A h h S K S S S S S S S S k 5 $X$X$X$X$X$X$X$X$X$X$X$X$X$X$X$X$X$X",
"$X$X$X$X$X$X$X$X$X$X$X$X$X$X$X= - j A K K D K K K K S k h k A A k B S S D K K K D S K D B 5 = $X$X$X$X$X$X$X$X$X$X$X$X$X$X$X$X$X",
"$X$X$X$X$X$X$X$X$X$X$X$X$X$X= = < h A S D D S S S S S S B h k A S S S D S S S S S D S S k 6 - = $X$X$X$X$X$X$X$X$X$X$X$X$X$X$X$X",
"$X$X$X$X$X$X$X$X$X$X$X$X$X$X= = < 6 h B S K K K K D D D S B h k A K K K K K K K S K S k h 1 - = $X$X$X$X$X$X$X$X$X$X$X$X$X$X$X$X",
"$X$X$X$X$X$X$X$X$X$X$X$X$X$X= - 6 6 6 B S K ! ^ ^ ! K S D S h h A S S D K ^ ^ ~ J K A h 6 6 < = $X$X$X$X$X$X$X$X$X$X$X$X$X$X$X$X",
"$X$X$X$X$X$X$X$X$X$X$X$X$X$X= 5 j h h B K J ^ =.=.' K K K S h h B K K K ~ =.;.' Y K S h h k 6 = $X$X$X$X$X$X$X$X$X$X$X$X$X$X$X$X",
"$X$X$X$X$X$X$X$X$X$X$X$X$X$X= 5 B A A ! ^ K I _ ;.[ ! ^ ^ D h h A / ) ! ^ ;.{ P I ~ ^ H A A 7 - $X$X$X$X$X$X$X$X$X$X$X$X$X$X$X$X",
"$X$X$X$X$X$X$X$X$X$X$X$X$X$X= 5 k A K ' ' J h c { =.' =.[ H h 6 B ^ =.[ [ =.P j A ^ [ ! S B 6 = $X$X$X$X$X$X$X$X$X$X$X$X$X$X$X$X",
"$X$X$X$X$X$X$X$X$X$X$X$X$X$X= - 6 k S Y Y S h k { ,.:.>.' k 1 1 h I :.,.>.;.G h B K ! J B h < = $X$X$X$X$X$X$X$X$X$X$X$X$X$X$X$X",
"$X$X$X$X$X$X$X$X$X$X$X$X$X$X= = < 6 k A K S h k { z.z.z.` j < < 1 G :.z.z.:.G h B D S B h 1 - = $X$X$X$X$X$X$X$X$X$X$X$X$X$X$X$X",
"$X$X$X$X$X$X$X$X$X$X$X$X$X$X$X= < 1 6 B K S h c { ,.:.:._ j < < 1 H | :.:.:.P h B K A h 1 < - = $X$X$X$X$X$X$X$X$X$X$X$X$X$X$X$X",
"$X$X$X$X$X$X$X$X$X$X$X$X$X$X$X$X- < 6 B S S h k { { P I H 6 < < 1 c K P _ | G h B K A h < - = $X$X$X$X$X$X$X$X$X$X$X$X$X$X$X$X$X",
"$X$X$X$X$X$X$X$X$X$X$X$X$X$X$X$X= - 1 j B A h j P I k k h 1 < < 1 h k k F I c h B A k 6 < = $X$X$X$X$X$X$X$X$X$X$X$X$X$X$X$X$X$X",
"$X$X$X$X$X$X$X$X$X$X$X$X$X$X$X$X= - < 5 j B k h j k k h 1 1 < < < 1 6 k c j 6 h B B 6 < < = $X$X$X$X$X$X$X$X$X$X$X$X$X$X$X$X$X$X",
"$X$X$X$X$X$X$X$X$X$X$X$X$X$X$X$X$X= < 6 B A A k k k h < < < 1 1 < < < 6 h k k B A B j 5 - = $X$X$X$X$X$X$X$X$X$X$X$X$X$X$X$X$X$X",
"$X$X$X$X$X$X$X$X$X$X$X$X$X$X$X$X$X$X- j A S S D S B 6 < - < < < < - < 6 k A S S S S k 5 = $X$X$X$X$X$X$X$X$X$X$X$X$X$X$X$X$X$X$X",
"$X$X$X$X$X$X$X$X$X$X$X$X$X$X$X$X$X$X= 5 h A S S S A k 6 < - < < - - < h A S S S S B 6 - = $X$X$X$X$X$X$X$X$X$X$X$X$X$X$X$X$X$X$X",
"$X$X$X$X$X$X$X$X$X$X$X$X$X$X$X$X$X$X= - 6 h j k j k h 6 < = < < - - 1 h k k j k j 6 < = $X$X$X$X$X$X$X$X$X$X$X$X$X$X$X$X$X$X$X$X",
"$X$X$X$X$X$X$X$X$X$X$X$X$X$X$X$X$X$X$X= - < < < < 1 1 1 < - - < - < < 1 1 1 < - < < = $X$X$X$X$X$X$X$X$X$X$X$X$X$X$X$X$X$X$X$X$X",
"$X$X$X$X$X$X$X$X$X$X$X$X$X$X$X$X$X$X$X$X= = = = < < < < < < < - < < < < < < - = = = $X$X$X$X$X$X$X$X$X$X$X$X$X$X$X$X$X$X$X$X$X$X",
"$X$X$X$X$X$X$X$X$X$X$X$X$X$X$X$X$X$X$X$X= - - - - - < < < < 3 l 1 < < < < - - - - - $X$X$X$X$X$X$X$X$X$X$X$X$X$X$X$X$X$X$X$X$X$X",
"$X$X$X$X$X$X$X$X$X$X$X$X$X$X$X$X$X$X$X, = - < < < < < < - - z n 2 - < < < < < < < - = $X$X$X$X$X$X$X$X$X$X$X$X$X$X$X$X$X$X$X$X$X",
"$X$X$X$X$X$X$X$X$X$X$X$X$X$X$X$X$X$X$XO + = - 6 m M n 3 , + : > + + < z m M z < = , O $X$X$X$X$X$X$X$X$X$X$X$X$X$X$X$X$X$X$X$X$X",
"$X$X$X$X$X$X$X$X$X$X$X$X$X$X$X$X$X$X$X  # i 9 8 #.s.@.n 2 : ; ; ; > l N i.p.m 5 i 4 o $X$X$X$X$X$X$X$X$X$X$X$X$X$X$X$X$X$X$X$X$X",
"$X$X$X$X$X$X$X$X$X$X$X$X$X$X$X$X$X$X$X$ ..q.X.b p.b.s.@.N M M M M N $.i.l.k.R T 9.4.0 $X$X$X$X$X$X$X$X$X$X$X$X$X$X$X$X$X$X$X$X$X",
"$X$X$X$X$X$X$X$X$X$X$X$X$X$X$X$X$X$Xw w.H.R.c.+.h.V.b.k.g.g.g.g.g.g.g.l.N.b.*.&.L.T.r.g $X$X$X$X$X$X$X$X$X$X$X$X$X$X$X$X$X$X$X$X",
"$X$X$X$X$X$X$X$X$X$X$X$X$X$X$X$X$X$Xs E.{._.v.p.M.V.V.N.N.N.N.N.V.V.V.V.V.b.p.x.R.{.].w.X $X$X$X$X$X$X$X$X$X$X$X$X$X$X$X$X$X$X$X",
"$X$X$X$X$X$X$X$X$X$X$X$X$X$X$X$X$X$Xd Q..X_.7.R p.N.V.b.b.l.b.b.V.C.V.b.b.d.+.%.L.[.}.e.X $X$X$X$X$X$X$X$X$X$X$X$X$X$X$X$X$X$X$X",
"$X$X$X$X$X$X$X$X$X$X$X$X$X$X$X$X$X$Xt u.U.y.p e a.b.b.l.k.l.l.b.V.V.b.k.j.s.v q 6.J.I.2.$X$X$X$X$X$X$X$X$X$X$X$X$X$X$X$X$X$X$X$X",
"$X$X$X$X$X$X$X$X$X$X$X$X$X$X$X$X$X$X$Xt y 0 . 4 #.d.f.h.M.C.C.B.N.m.m.n.S.n.o.0 * 0 y $X$X$X$X$X$X$X$X$X$X$X$X$X$X$X$X$X$X$X$X$X",
"$X$X$X$X$X$X$X$X$X$X$X$X$X$X$X$X$X$X$X$X$X    # e v R v.P.Y.Y.K.&.A./.`.`.`.^.t.w   $X$X$X$X$X$X$X$X$X$X$X$X$X$X$X$X$X$X$X$X$X$X",
"$X$X$X$X$X$X$X$X$X$X$X$X$X$X$X$X$X$X$X$X$X$X  . q p ..0.F.G.G.9.a 3.(.XX+XOX|.I.f $X$X$X$X$X$X$X$X$X$X$X$X$X$X$X$X$X$X$X$X$X$X$X",
"$X$X$X$X$X$X$X$X$X$X$X$X$X$X$X$X$X$X$X$X$X$X  0 6.F.Z.X.a u u 0 . & w.'.@XoXE.O.$X$X$X$X$X$X$X$X$X$X$X$X$X$X$X$X$X$X$X$X$X$X$X$X",
"$X$X$X$X$X$X$X$X$X$X$X$X$X$X$X$X$X$X$X$X$X$X$Xr 4.9.5.r o           d !.#XXXu.& $X$X$X$X$X$X$X$X$X$X$X$X$X$X$X$X$X$X$X$X$X$X$X$X",
"$X$X$X$X$X$X$X$X$X$X$X$X$X$X$X$X$X$X$X$X$X$X$X$X% % @ o         $X  s Q.@XXXt.@ $X$X$X$X$X$X$X$X$X$X$X$X$X$X$X$X$X$X$X$X$X$X$X$X",
"$X$X$X$X$X$X$X$X$X$X$X$X$X$X$X$X$X$X$X$X$X$X$X$X$X            $X$X$Xs Q.#XXXu.&   $X$X$X$X$X$X$X$X$X$X$X$X$X$X$X$X$X$X$X$X$X$X$X",
"$X$X$X$X$X$X$X$X$X$X$X$X$X$X$X$X$X$X$X$X$X$X$X$X$X$X        $X$X$X$Xy U..X XW.2.$   $X$X$X$X$X$X$X$X$X$X$X$X$X$X$X$X$X$X$X$X$X$X",
"$X$X$X$X$X$X$X$X$X$X$X$X$X$X$X$X$X$X$X$X$X$X$X$X$X$X      $X$X$X$X$X0 D.~._.).I.d o $X$X$X$X$X$X$X$X$X$X$X$X$X$X$X$X$X$X$X$X$X$X",
"$X$X$X$X$X$X$X$X$X$X$X$X$X$X$X$X$X$X$X$X$X$X$X$X$X$X$X$X$X$X$X$X$X$X$XE X.1.8.e.d $X$X$X$X$X$X$X$X$X$X$X$X$X$X$X$X$X$X$X$X$X$X$X",
"$X$X$X$X$X$X$X$X$X$X$X$X$X$X$X$X$X$X$X$X$X$X$X$X$X$X$X$X$X$X$X$X$X$X$X. . . X @ $X$X$X$X$X$X$X$X$X$X$X$X$X$X$X$X$X$X$X$X$X$X$X$X"
};
