/* XPM */
static const char *player_3_2[] = {
/* columns rows colors chars-per-pixel */
"64 64 177 2 ",
"   c #260902",
".  c #2C0A01",
"X  c #350B00",
"o  c #390D00",
"O  c #2F1002",
"+  c #331203",
"@  c #3C1302",
"#  c #3C1905",
"$  c #3C150C",
"%  c #3F1B09",
"&  c #3A1F16",
"*  c #3C2117",
"=  c #411502",
"-  c #451B03",
";  c #4A1E04",
":  c #431E0C",
">  c #4C170F",
",  c #511A0A",
"<  c #5A1E0E",
"1  c #571E10",
"2  c #651F14",
"3  c #462004",
"4  c #4C2304",
"5  c #4A240B",
"6  c #47210B",
"7  c #522604",
"8  c #562A05",
"9  c #592C06",
"0  c #502609",
"q  c #52290B",
"w  c #5B2E09",
"e  c #5E3109",
"r  c #43261D",
"t  c #532E16",
"y  c #542711",
"u  c #5A321A",
"i  c #5D3110",
"p  c #64350D",
"a  c #69380F",
"s  c #682A1A",
"d  c #70261E",
"f  c #623511",
"g  c #673814",
"h  c #6C3B12",
"j  c #6C3F1C",
"k  c #61361C",
"l  c #713F15",
"z  c #4D3226",
"x  c #5B372B",
"c  c #5A3F31",
"v  c #752820",
"b  c #7C2B20",
"n  c #643C25",
"m  c #763E20",
"M  c #754215",
"N  c #754419",
"B  c #7A4419",
"V  c #4B4239",
"C  c #5D4234",
"Z  c #6C4425",
"A  c #704729",
"S  c #72492A",
"D  c #7A502D",
"F  c #6D4B3A",
"G  c #623D40",
"H  c #6E4A49",
"J  c #695E4E",
"K  c #78604E",
"L  c #6A6253",
"P  c #832227",
"I  c #872729",
"U  c #813323",
"Y  c #873F21",
"T  c #8E3229",
"R  c #95342D",
"E  c #9B362F",
"W  c #9F3C2F",
"Q  c #9F3931",
"!  c #9C3630",
"~  c #A33C31",
"^  c #854922",
"/  c #875324",
"(  c #935228",
")  c #AA582F",
"_  c #A54636",
"`  c #AD4435",
"'  c #A74A36",
"]  c #B14636",
"[  c #B14738",
"{  c #B54A39",
"}  c #B94D3B",
"|  c #B4563B",
" . c #976536",
".. c #A26738",
"X. c #B36530",
"o. c #A95B40",
"O. c #BC5946",
"+. c #BC5340",
"@. c #86684F",
"#. c #81614C",
"$. c #9A6F4E",
"%. c #856852",
"&. c #87705B",
"*. c #A66E40",
"=. c #A07359",
"-. c #BE725F",
";. c #807564",
":. c #927A65",
">. c #BE7E6B",
",. c #C1654F",
"<. c #C27A4F",
"1. c #C36D57",
"2. c #C57A5F",
"3. c #AD855C",
"4. c #B08258",
"5. c #9E866F",
"6. c #948478",
"7. c #AB8665",
"8. c #B98B6A",
"9. c #B69169",
"0. c #A38C75",
"q. c #A7967F",
"w. c #B0977E",
"e. c #C78755",
"r. c #C48359",
"t. c #CE945B",
"y. c #D1995D",
"u. c #C78961",
"i. c #C59563",
"p. c #C79865",
"a. c #D39C60",
"s. c #D29379",
"d. c #D6A36C",
"f. c #D4A067",
"g. c #D9AD7A",
"h. c #A07888",
"j. c #A47E81",
"k. c #AD9E86",
"l. c #BFA78C",
"z. c #C79D9D",
"x. c #C3A689",
"c. c #DAAB8E",
"v. c #DBB68B",
"b. c #DEB98A",
"n. c #C1AD90",
"m. c #D1AE97",
"M. c #CDB89B",
"N. c #C5B295",
"B. c #DFB79A",
"V. c #D4BC9D",
"C. c #DDBD9C",
"Z. c #D4B9B1",
"A. c #E1C196",
"S. c #E6C59A",
"D. c #E5C59A",
"F. c #D3C1A5",
"G. c #DAC4A4",
"H. c #DFC9AA",
"J. c #DCC1B6",
"K. c #E3CDAC",
"L. c #E2CAA7",
"P. c #E8D1A8",
"I. c #EDCDBD",
"U. c #EAD5B5",
"Y. c #EBD8B7",
"T. c #EDDAB9",
"R. c #EDDBB9",
"E. c #E4D0B2",
"W. c #F1DCBD",
"Q. c #D8AEC1",
"!. c #DBB3C1",
"~. c #E4BDC9",
"^. c #EECFC9",
"/. c #EFD1C5",
"(. c #FAF5F0",
"). c #FF00FF",
"_. c black",
/* pixels */
").).).).).).).).).).).).).).).).).).).).).).).).).).).).).).).).).).).).).).).).).).).).).).).).).).).).).).).).).).).).).).).).",
").).).).).).).).).).).).).).).).).).).).).).).).).).).).).).).).).).).).).).).).).).).).).).).).).).).).).).).).).).).).).).).).",
").).).).).).).).).).).).).).).).).).).).).).).).).).).).).).).).).).).).).).).).).).).).).).).).).).).).).).).).).).).).).).).).",
").).).).).).).).).).).).).).).).).).).).).).).).).).).).).).).).).).).).).).).).).).).).).).).).).).).).).).).).).).).).).).).).",
").).).).).).).).).).).).).).).).).).).).).).).).).).).).).).).).).).).).).).).).).).).).).).).).).).).).).).).).).).).).).).).).",
").).).).).).).).).).).).).).).).).).).).).).).).).).).).).).).).).).).).).).).).).).).).).).).).).).).).).).).).).).).).).).).).",
").).).).).).).).).).).).).).).).).).).).).).).).).).).).).).).).).).).).).).).).).).).).).).).).).).).).).).).).).).).).).).).).",
").).).).).).).).).).).).).).).).).).).).).).).).).).).).).).).).).).).).).).).).).).).).).).).).).).).).).).).).).).).).).).).).",
").).).).).).).).).).).).).).).).).).).).).).).).).).).).).).).).).).).).).).).).).).).).).).).).).).).).).).).).).).).).).).).).",
").).).).).).).).).).).).).).).).).).).).).).).).).).).).).).).).).).).).).).).).).).).).).).).).).).).).).).).).).).).).).).).).",
").).).).).).).).).).).).).).).).).).).).).).).).).).).).).).).).).).).).).).).).).).).).).).).).).).).).).).).).).).).).).).).).",
").).).).).).).).).).).).).).).).).).).).).).).).).).).).).).).).).).).).).).).).).).).).).).).).).).).).).).).).).).).).).).).).",
").).).).).).).).).).).).).).).).).).).).).).).).).).).).).).).).).).).).).).).).).).).).).).).).).).).).).).).).).).).).).).).).",
").).).).).).).).).).).).).).).).).).).).).).).).).).).).).).).).).).).).).).).).).).).).).).).).).).).).).).).).).).).).).).).).",
").).).).).).).).).).).).).).).).).).).).).).).).).).                        ).).).).).).).).).).).).).).).).).).).).).).).).).).",
").).).).).).).).).).).).).).).).).).).).).).).).).. + + + + + + + + + + + + . ).).).).).).).).).).).).).).).).).).).).).).).).).",
").).).).).).).).).).).).).).).).).).).).).).).).. # 3 3 4 4 4 3 3 4 4 3 3 3 # + ).).).).).).).).).).).).).).).).).).).).).).).).",
").).).).).).).).).).).).).).).).).).).).).).).# 5 q 8 w e a p w w p p 4 3 8 q 5 # ).).).).).).).).).).).).).).).).).).).).).).).",
").).).).).).).).).).).).).).).).).).).).).).+ 5 g g w w a l a w w a g q - 4 p i #   ).).).).).).).).).).).).).).).).).).).).).).",
").).).).).).).).).).).).).).).).).).).).).+ 5 g N h p a h a e 9 8 e a f q - q 8 #   ).).).).).).).).).).).).).).).).).).).).).).",
").).).).).).).).).).).).).).).).).).).).# 5 g B M a p l M e 8 8 9 e a f q - 3 4 - + ).).).).).).).).).).).).).).).).).).).).).).",
").).).).).).).).).).).).).).).).).).).  : g B M a w w h l p 9 8 w a g q - 4 8 8 7 - + ).).).).).).).).).).).).).).).).).).).).).",
").).).).).).).).).).).).).).).).).).).  6 l M a w 8 w a g h p w w p p 0 3 8 w w w w q % ).).).).).).).).).).).).).).).).).).).).",
").).).).).).).).).).).).).).).).).).).+ 5 g a w w w e w a h a w 8 w w 9 8 w w w w a f :   ).).).).).).).).).).).).).).).).).).).",
").).).).).).).).).).).).).).).).).).O - 8 e w 8 w a g p w e w w 8 8 8 8 8 9 8 8 w w 8 #   ).).).).).).).).).).).).).).).).).).).",
").).).).).).).).).).).).).).).).).).O 3 8 w 9 8 w p a p 8 8 8 w 8 7 ; - 3 7 3 3 7 4 - + ).).).).).).).).).).).).).).).).).).).).",
").).).).).).).).).).).).).).).).).).O 3 8 w 9 9 w w w w 8 8 8 8 7 - @ : 6 4 5 5 3 - + ).).).).).).).).).).).).).).).).).).).).).",
").).).).).).).).).).).).).).).).).).+ 3 8 w 8 8 8 8 8 8 8 w w 7 - + : A S t Z D t # ).).).).).).).).).).).).).).).).).).).).).).",
").).).).).).).).).).).).).).).).).  + 3 8 8 7 7 8 w 8 8 w p e 4 @ : S 3.7.@.7.9.@.C ).).).).).).).).).).).).).).).).).).).).).).",
").).).).).).).).).).).).).).).).  . @ 4 9 8 ; - 7 w w w a h a 4 # n 4.v.G.V.G.L.N.&.* ).).).).).).).).).).).).).).).).).).).).).",
").).).).).).).).).).).).).).).).  . @ 4 w 8 - = 4 9 w a h a e 3 # S p.D.R.R.R.T.K.:.* ).).).).).).).).).).).).).).).).).).).).).",
").).).).).).).).).).).).).).).).  . @ 4 w 8 - = 4 9 w f j N a 3 # S i.D.Y.U.C.V.G.:.* ).).).).).).).).).).).).).).).).).).).).).",
").).).).).).).).).).).).).).).).  . @ 4 w 8 - = 4 9 7 6 j  ./ 4 # S i.D.R.H.7.=.x.:.* ).).).).).).).).).).).).).).).).).).).).).",
").).).).).).).).).).).).).).).).  . @ 4 w 8 - = 4 9 4 # k ../ 0 # S i.D.R.G.%.F w.:.* ).).).).).).).).).).).).).).).).).).).).).",
").).).).).).).).).).).).).).).).  . @ 4 w 8 - = 4 w 4 # y ^ B 4 # S i.D.T.F.J V q.0.C ).).).).).).).).).).).).).).).).).).).).).",
").).).).).).).).).).).).).).).).).  + ; 8 8 - = 4 w 7 @ = 0 9 3 # A i.D.W.F.L V k.M.5.C ).).).).).).).).).).).).).).).).).).).).",
").).).).).).).).).).).).).).).).).).. # 7 7 - = 7 w 7 = o @ 3 3 # u $.m./.J.6.;.N.M.5.C ).).).).).).).).).).).).).).).).).).).).",
").).).).).).).).).).).).).).).).).).  o - 7 - = 4 8 7 - = 4 8 7 @ # x j.!.~.Z.F.G.0.c ).).).).).).).).).).).).).).).).).).).).).",
").).).).).).).).).).).).).).).).).).  X = 4 - @ = 4 7 4 7 8 w 8 ; @ $ G h.Q.^.W.K.:.& ).).).).).).).).).).).).).).).).).).).).).",
").).).).).).).).).).).).).).).).).).  X @ ; = o o - 8 8 8 7 8 8 8 4 @ $ H z.I.E.n.%.& ).).).).).).).).).).).).).).).).).).).).).",
").).).).).).).).).).).).).).).).).).).  X @ o o o - 8 8 4 - 4 8 w 8 - + n 8.B.l.K z ).).).).).).).).).).).).).).).).).).).).).).",
").).).).).).).).).).).).).).).).).).).  . o o o o @ ; 7 7 ; - 4 8 4 # + u *.4.#.r   ).).).).).).).).).).).).).).).).).).).).).).",
").).).).).).).).).).).).).).).).).).).  . X o o o o @ ; 7 7 - = ; ; $ $ s ( m : .   ).).).).).).).).).).).).).).).).).).).).).).",
").).).).).).).).).).).).).).).).).).).).  . X o o o o = ; 7 - o # 1 d v U Y , X     ).).).).).).).).).).).).).).).).).).).).).).",
").).).).).).).).).).).).).).).).).).).).).  X o o o o = ; 7 - @ > d R ~ ` ).X .   ).).).).).).).).).).).).).).).).).).).).).).).",
").).).).).).).).).).).).).).).).).).).).).).o o o o @ ; 7 7 ; , b R ~ ` } ).).  ).).).).).).).).).).).).).).).).).).).).).).).).",
").).).).).).).).).).).).).).).).).).).).).).).).).o @ 4 7 ; < b ~ ` ` { } ).).).).).).).).).).).).).).).).).).).).).).).).).).).",
").).).).).).).).).).).).).).).).).).).).).).).).).2 , ; ; < b ~ { } } } } ).).).).).).).).).).).).).).).).).).).).).).).).).).).",
").).).).).).).).).).).).).).).).).).).).).).).).O._ U < < b ~ { } } } } } ).).P ).).).).).).).).).).).).).).).).).).).).).).).).",
").).).).).).).).).).).).).).).).).).).).).).).B.s.2.o.U b W { } } { ` ` ` E I P ).).).).).).).).).).).).).).).).).).).).).).).).",
").).).).).).).).).).).).).).).).).).).).).).Y.U.K.v.r.' ~ [ } } [ ` ~ ~ ~ ~ R T ).).).).).).).).).).).).).).).).).).).).).).).).",
").).).).).).).).).).).).).).).).).).).).).).U.Y.Y.P.u._ ` { } [ ~ ~ ` ` ` ` ' ) ) ).).).).).).).).).).).).).).).).).).).).).).).",
").).).).).).).).).).).).).).).).).).).).).).Y.Y.Y.R.).~ ` { } [ Q ! ~ { } } | X.X.X.).).).).).).).).).).).).).).).).).).).).).).",
").).).).).).).).).).).).).).).).).).).).).).Y.Y.R.).).` { } } } [ ~ E ` } } } ).X.X.).).).).).).).).).).).).).).).).).).).).).).",
").).).).).).).).).).).).).).).).).).).).).).).).).).).` ` { } } } ` ~ ` } } ).).).).).).).).).).).).).).).).).).).).).).).).).).",
").).).).).).).).).).).).).).).).).).).).).).).).).).).| | } } { { O.1.1.,.+.).).).).).).).).).).).).).).).).).).).).).).).).).).",
").).).).).).).).).).).).).).).).).).).).).).).).y.y.t.e.<.).).)._ -.c.B.c.).).).).).).).).).).).).).).).).).).).).).).).).).).).",
").).).).).).).).).).).).).).).).).).).).).).).).y.y.y.y.).).).).).>.K.R.Y.).).).).).).).).).).).).).).).).).).).).).).).).).).).",
").).).).).).).).).).).).).).).).).).).).).).).).d.f.a.).).).).).).).).R.R.R.).).).).).).).).).).).).).).).).).).).).).).).).).).",
").).).).).).).).).).).).).).).).).).).).).).).).A.b.).).).).).).).).).U.U.U.).).).).).).).).).).).).).).).).).).).).).).).).).).",
").).).).).).).).).).).).).).).).).).).).).).).).).).).).).).).).).).).A.A.D.U.).).).).).).).).).).).).).).).).).).).).).).).).).",
").).).).).).).).).).).).).).).).).).).).).).).).).).).).).).).).).).).d.d.g.U.(.).).).).).).).).).).).).).).).).).).).).).).).).",
").).).).).).).).).).).).).).).).).).).).).).).).).).).).).).).).).).).).).).).).).).).).).).).).).).).).).).).).).).).).).).).).",
").).).).).).).).).).).).).).).).).).).).).).).).).).).).).).).).).).).).).).).).).).).).).).).).).).).).).).).).).).).).).).).)."
};
