/* XPM */
static const char *player_2_2[] = {
/* columns rows colors chars-per-pixel */
"64 64 179 2 ",
"   c #260901",
".  c #2B0B01",
"X  c #2A0F0B",
"o  c #350B00",
"O  c #390D00",
"+  c #331203",
"@  c #3B1402",
"#  c #3E1903",
"$  c #3A130A",
"%  c #3D1A09",
"&  c #32160F",
"*  c #411602",
"=  c #451B03",
"-  c #4A1D03",
";  c #421708",
":  c #441C0B",
">  c #4F1A08",
",  c #491706",
"<  c #521D09",
"1  c #5B1A0F",
"2  c #591C15",
"3  c #611E14",
"4  c #472005",
"5  c #4D2304",
"6  c #46220C",
"7  c #4B240B",
"8  c #522605",
"9  c #562A05",
"0  c #592C06",
"q  c #552A0C",
"w  c #5B2E09",
"e  c #5E3009",
"r  c #472410",
"t  c #43241C",
"y  c #462A1F",
"u  c #552C14",
"i  c #592E10",
"p  c #5F2F18",
"a  c #5A2718",
"s  c #5C3010",
"d  c #573218",
"f  c #63340C",
"g  c #68370F",
"h  c #69390F",
"j  c #652114",
"k  c #6F281A",
"l  c #682316",
"z  c #752A1F",
"x  c #633510",
"c  c #673810",
"v  c #6C3B11",
"b  c #6B371A",
"n  c #703E14",
"m  c #713F18",
"M  c #773A1B",
"N  c #472220",
"B  c #492F23",
"V  c #4B3125",
"C  c #782A21",
"Z  c #643D20",
"A  c #734116",
"S  c #744219",
"D  c #7A4519",
"F  c #4A4237",
"G  c #6D4425",
"H  c #7B4E2B",
"J  c #71482A",
"K  c #7D512D",
"L  c #654A3B",
"P  c #6B4938",
"I  c #6D5443",
"U  c #755547",
"Y  c #79535B",
"T  c #6C6252",
"R  c #7F7265",
"E  c #822327",
"W  c #842E26",
"Q  c #922F2C",
"!  c #8B3227",
"~  c #8E3429",
"^  c #883A24",
"/  c #9B382F",
"(  c #96372D",
")  c #9D3730",
"_  c #9E3931",
"`  c #A43D33",
"'  c #844D26",
"]  c #915128",
"[  c #9B4733",
"{  c #845935",
"}  c #A64D2F",
"|  c #A8562E",
" . c #AB4235",
".. c #A84434",
"X. c #B24737",
"o. c #B24738",
"O. c #B54A39",
"+. c #B94D3A",
"@. c #AF553D",
"#. c #B9513B",
"$. c #B45739",
"%. c #95683F",
"&. c #966639",
"*. c #B1622F",
"=. c #A46936",
"-. c #B46631",
";. c #865B41",
":. c #BD5842",
">. c #8C6441",
",. c #976A40",
"<. c #856C59",
"1. c #8A6C54",
"2. c #9F7157",
"3. c #9D7C5C",
"4. c #B76947",
"5. c #B56847",
"6. c #B37C4D",
"7. c #BC6F53",
"8. c #A0795A",
"9. c #946C6D",
"0. c #C1734B",
"q. c #C36B55",
"w. c #968974",
"e. c #A88561",
"r. c #B18A6D",
"t. c #B79168",
"y. c #A38C74",
"u. c #AC967C",
"i. c #C98956",
"p. c #D1995D",
"a. c #CE886E",
"s. c #C59B6D",
"d. c #D39E64",
"f. c #D6A46C",
"g. c #D7AC7A",
"h. c #D9AE7B",
"j. c #D5A478",
"k. c #B59E84",
"l. c #B0A087",
"z. c #B3A38A",
"x. c #BCA389",
"c. c #BFA98E",
"v. c #BA90A3",
"b. c #DAA78B",
"n. c #D1A480",
"m. c #DDB587",
"M. c #CAB699",
"N. c #CBB496",
"B. c #D4BC9D",
"V. c #D9BC9B",
"C. c #E1BF93",
"Z. c #C199A2",
"A. c #C4ADA1",
"S. c #D0BCA4",
"D. c #DDB5B1",
"F. c #DFC199",
"G. c #E2C196",
"H. c #DBC4A4",
"J. c #D8C7A8",
"K. c #E3C9A4",
"L. c #E4CCAC",
"P. c #E3C4A0",
"I. c #E9D0AA",
"U. c #EBD1AA",
"Y. c #E2C1B0",
"T. c #EAD5B4",
"R. c #EBD8B7",
"E. c #EDDBBA",
"W. c #ECD9B9",
"Q. c #EDD3BB",
"!. c #F1DEBC",
"~. c #DFBCC2",
"^. c #E4BCCA",
"/. c #EDD1C5",
"(. c #F0D6C4",
"). c #F0E0CB",
"_. c #F1E3D2",
"`. c #FF00FF",
"'. c black",
/* pixels */
"`.`.`.`.`.`.`.`.`.`.`.`.`.`.`.`.`.`.`.`.`.`.`.`.`.`.`.`.`.`.`.`.`.`.`.`.`.`.`.`.`.`.`.`.`.`.`.`.`.`.`.`.`.`.`.`.`.`.`.`.`.`.`.`.",
"`.`.`.`.`.`.`.`.`.`.`.`.`.`.`.`.`.`.`.`.`.`.`.`.`.`.`.`.`.`.`.`.`.`.`.`.`.`.`.`.`.`.`.`.`.`.`.`.`.`.`.`.`.`.`.`.`.`.`.`.`.`.`.`.",
"`.`.`.`.`.`.`.`.`.`.`.`.`.`.`.`.`.`.`.`.`.`.`.`.`.`.`.`.`.`.`.`.`.`.`.`.`.`.`.`.`.`.`.`.`.`.`.`.`.`.`.`.`.`.`.`.`.`.`.`.`.`.`.`.",
"`.`.`.`.`.`.`.`.`.`.`.`.`.`.`.`.`.`.`.`.`.`.`.`.`.`.`.`.`.`.`.`.`.`.`.`.`.`.`.`.`.`.`.`.`.`.`.`.`.`.`.`.`.`.`.`.`.`.`.`.`.`.`.`.",
"`.`.`.`.`.`.`.`.`.`.`.`.`.`.`.`.`.`.`.`.`.`.`.`.`.`.`.`.`.`.`.`.`.`.`.`.`.`.`.`.`.`.`.`.`.`.`.`.`.`.`.`.`.`.`.`.`.`.`.`.`.`.`.`.",
"`.`.`.`.`.`.`.`.`.`.`.`.`.`.`.`.`.`.`.`.`.`.`.`.`.`.`.`.`.`.`.`.`.`.`.`.`.`.`.`.`.`.`.`.`.`.`.`.`.`.`.`.`.`.`.`.`.`.`.`.`.`.`.`.",
"`.`.`.`.`.`.`.`.`.`.`.`.`.`.`.`.`.`.`.`.`.`.`.`.`.`.`.`.`.`.`.`.`.`.`.`.`.`.`.`.`.`.`.`.`.`.`.`.`.`.`.`.`.`.`.`.`.`.`.`.`.`.`.`.",
"`.`.`.`.`.`.`.`.`.`.`.`.`.`.`.`.`.`.`.`.`.`.`.`.`.`.`.`.`.`.`.`.`.`.`.`.`.`.`.`.`.`.`.`.`.`.`.`.`.`.`.`.`.`.`.`.`.`.`.`.`.`.`.`.",
"`.`.`.`.`.`.`.`.`.`.`.`.`.`.`.`.`.`.`.`.`.`.`.`.`.`.`.`.`.`.`.`.`.`.`.`.`.`.`.`.`.`.`.`.`.`.`.`.`.`.`.`.`.`.`.`.`.`.`.`.`.`.`.`.",
"`.`.`.`.`.`.`.`.`.`.`.`.`.`.`.`.`.`.`.`.`.`.`.`.`.`.`.`.`.`.`.`.`.`.`.`.`.`.`.`.`.`.`.`.`.`.`.`.`.`.`.`.`.`.`.`.`.`.`.`.`.`.`.`.",
"`.`.`.`.`.`.`.`.`.`.`.`.`.`.`.`.`.`.`.`.`.`.`.`.`.`.`.`.`.`.`.`.`.`.`.`.`.`.`.`.`.`.`.`.`.`.`.`.`.`.`.`.`.`.`.`.`.`.`.`.`.`.`.`.",
"`.`.`.`.`.`.`.`.`.`.`.`.`.`.`.`.`.`.`.`.`.`.`.`.`.`.`.`.`.`.`.`.`.`.`.`.`.`.`.`.`.`.`.`.`.`.`.`.`.`.`.`.`.`.`.`.`.`.`.`.`.`.`.`.",
"`.`.`.`.`.`.`.`.`.`.`.`.`.`.`.`.`.`.`.`.`.`.`.`.`.`.`.`.`.`.`.`.`.`.`.`.`.`.`.`.`.`.`.`.`.`.`.`.`.`.`.`.`.`.`.`.`.`.`.`.`.`.`.`.",
"`.`.`.`.`.`.`.`.`.`.`.`.`.`.`.`.`.`.`.`.`.`.`.`.`.`.`.`.`.`.`.`.`.`.`.`.`.`.`.`.`.`.`.`.`.`.`.`.`.`.`.`.`.`.`.`.`.`.`.`.`.`.`.`.",
"`.`.`.`.`.`.`.`.`.`.`.`.`.`.`.`.`.`.`.`.`.`.`.`.`.                      `.`.`.`.`.`.`.`.`.`.`.`.`.`.`.`.`.`.`.`.`.`.`.`.`.`.`.`.",
"`.`.`.`.`.`.`.`.`.`.`.`.`.`.`.`.`.`.`.`.`.`.`.`.+ + + + + + + + + + + + + `.`.`.`.`.`.`.`.`.`.`.`.`.`.`.`.`.`.`.`.`.`.`.`.`.`.`.",
"`.`.`.`.`.`.`.`.`.`.`.`.`.`.`.`.`.`.`.`.`.`.`.+ = 5 5 5 5 5 5 5 5 5 5 5 = + `.`.`.`.`.`.`.`.`.`.`.`.`.`.`.`.`.`.`.`.`.`.`.`.`.`.",
"`.`.`.`.`.`.`.`.`.`.`.`.`.`.`.`.`.`.`.`.`.`.: q 9 5 5 w f 0 9 e g f 0 9 9 7 % `.`.`.`.`.`.`.`.`.`.`.`.`.`.`.`.`.`.`.`.`.`.`.`.`.",
"`.`.`.`.`.`.`.`.`.`.`.`.`.`.`.`.`.`.`.`.`.+ q x 0 = 6 x v e 9 e v v f 0 g v i % `.`.`.`.`.`.`.`.`.`.`.`.`.`.`.`.`.`.`.`.`.`.`.`.",
"`.`.`.`.`.`.`.`.`.`.`.`.`.`.`.`.`.`.`.`.`.. 7 0 4 7 s x f 0 9 0 g v v f g D m i % `.`.`.`.`.`.`.`.`.`.`.`.`.`.`.`.`.`.`.`.`.`.`.",
"`.`.`.`.`.`.`.`.`.`.`.`.`.`.`.`.`.`.`.`.. @ 5 5 = 7 s x f 0 9 9 0 v A g f v D S q % `.`.`.`.`.`.`.`.`.`.`.`.`.`.`.`.`.`.`.`.`.`.",
"`.`.`.`.`.`.`.`.`.`.`.`.`.`.`.`.`.`.`.+ # 5 9 9 5 = 6 x v e 9 0 w v A g 0 f n D m q + `.`.`.`.`.`.`.`.`.`.`.`.`.`.`.`.`.`.`.`.`.",
"`.`.`.`.`.`.`.`.`.`.`.`.`.`.`.`.`.`.+ 7 q 0 0 0 9 5 5 0 f 0 9 e h v g e 9 0 f n D i + `.`.`.`.`.`.`.`.`.`.`.`.`.`.`.`.`.`.`.`.`.",
"`.`.`.`.`.`.`.`.`.`.`.`.`.`.`.`.`.`.+ q c e 0 0 0 9 9 0 0 9 9 e v h e e e 0 0 f v w @ . `.`.`.`.`.`.`.`.`.`.`.`.`.`.`.`.`.`.`.`.",
"`.`.`.`.`.`.`.`.`.`.`.`.`.`.`.`.`.`.+ 7 w 0 9 9 9 9 9 9 9 9 9 0 e w e h v w 9 0 e 0 5 + `.`.`.`.`.`.`.`.`.`.`.`.`.`.`.`.`.`.`.`.",
"`.`.`.`.`.`.`.`.`.`.`.`.`.`.`.`.`.`.. # 5 8 5 4 8 5 = = 5 9 0 9 9 9 w g g w 9 9 0 0 5 @   `.`.`.`.`.`.`.`.`.`.`.`.`.`.`.`.`.`.`.",
"`.`.`.`.`.`.`.`.`.`.`.`.`.`.`.`.`.`.`.. @ 4 7 7 5 7 : @ * 5 9 9 9 9 9 0 0 0 0 0 0 0 5 @   `.`.`.`.`.`.`.`.`.`.`.`.`.`.`.`.`.`.`.",
"`.`.`.`.`.`.`.`.`.`.`.`.`.`.`.`.`.`.`.`.. 6 G H d Z K d + * 5 9 0 0 9 9 9 9 9 9 0 0 5 @   `.`.`.`.`.`.`.`.`.`.`.`.`.`.`.`.`.`.`.",
"`.`.`.`.`.`.`.`.`.`.`.`.`.`.`.`.`.`.`.`.V U e.t.1.3.t.>.u @ = 0 f f 9 9 0 9 8 8 9 0 8 @ . `.`.`.`.`.`.`.`.`.`.`.`.`.`.`.`.`.`.`.",
"`.`.`.`.`.`.`.`.`.`.`.`.`.`.`.`.`.`.`.X L k.H.K.B.H.F.s.{ : * w v v w 0 0 9 - = 8 0 8 * o   `.`.`.`.`.`.`.`.`.`.`.`.`.`.`.`.`.`.",
"`.`.`.`.`.`.`.`.`.`.`.`.`.`.`.`.`.`.`.X I M.!.E.E.E.I.h.,.r # 0 g v v f 0 9 = * 5 0 8 * o   `.`.`.`.`.`.`.`.`.`.`.`.`.`.`.`.`.`.",
"`.`.`.`.`.`.`.`.`.`.`.`.`.`.`.`.`.`.`.X I N.H.B.L.E.I.h.%.r # e A S v e 0 9 = * 5 0 8 * o   `.`.`.`.`.`.`.`.`.`.`.`.`.`.`.`.`.`.",
"`.`.`.`.`.`.`.`.`.`.`.`.`.`.`.`.`.`.`.X I x.r.2.N.W.I.g.%.r # v &.K 7 5 9 9 = * 5 0 8 * o   `.`.`.`.`.`.`.`.`.`.`.`.`.`.`.`.`.`.",
"`.`.`.`.`.`.`.`.`.`.`.`.`.`.`.`.`.`.`.X I k.1.P x.W.I.g.%.6 # A =.' % = 9 9 = * 5 0 8 * o   `.`.`.`.`.`.`.`.`.`.`.`.`.`.`.`.`.`.",
"`.`.`.`.`.`.`.`.`.`.`.`.`.`.`.`.`.`.`.V <.z.T F l.E.I.h.,.r # g ' b @ = 9 9 = * 5 0 8 * o   `.`.`.`.`.`.`.`.`.`.`.`.`.`.`.`.`.`.",
"`.`.`.`.`.`.`.`.`.`.`.`.`.`.`.`.`.`.y <.c.M.T F z.E.I.g.%.6 # 9 q ; @ 5 0 9 = * 5 0 8 @ . `.`.`.`.`.`.`.`.`.`.`.`.`.`.`.`.`.`.`.",
"`.`.`.`.`.`.`.`.`.`.`.`.`.`.`.`.`.`.y <.c.S.w.R A./.Y.r.J : * 5 = @ @ 5 0 9 = * 5 8 = +   `.`.`.`.`.`.`.`.`.`.`.`.`.`.`.`.`.`.`.",
"`.`.`.`.`.`.`.`.`.`.`.`.`.`.`.`.`.`.`.B <.M.J.S.~.^.Z.U : @ - 9 5 = * 5 9 8 = * 5 5 @ .   `.`.`.`.`.`.`.`.`.`.`.`.`.`.`.`.`.`.`.",
"`.`.`.`.`.`.`.`.`.`.`.`.`.`.`.`.`.`.`.X I M.!.(.^.v.Y N @ = 8 9 0 8 5 8 8 = @ * 5 - O .   `.`.`.`.`.`.`.`.`.`.`.`.`.`.`.`.`.`.`.",
"`.`.`.`.`.`.`.`.`.`.`.`.`.`.`.`.`.`.`.`.L u.J.Q.D.9.t + = 8 9 9 8 8 9 9 5 @ O @ - * O   `.`.`.`.`.`.`.`.`.`.`.`.`.`.`.`.`.`.`.`.",
"`.`.`.`.`.`.`.`.`.`.`.`.`.`.`.`.`.`.`.`.t L y.V.n.;.% @ 5 9 9 8 - 5 9 9 - @ o O @ O .   `.`.`.`.`.`.`.`.`.`.`.`.`.`.`.`.`.`.`.`.",
"`.`.`.`.`.`.`.`.`.`.`.`.`.`.`.`.`.`.`.`.`.& L 8.6.H @ + 5 9 8 - = 5 9 5 * O o O o o   `.`.`.`.`.`.`.`.`.`.`.`.`.`.`.`.`.`.`.`.`.",
"`.`.`.`.`.`.`.`.`.`.`.`.`.`.`.`.`.`.`.`.`.  $ p ] M : $ ; 5 = * 5 9 5 * O O O o o .   `.`.`.`.`.`.`.`.`.`.`.`.`.`.`.`.`.`.`.`.`.",
"`.`.`.`.`.`.`.`.`.`.`.`.`.`.`.`.`.`.`.`.`.  . @ M ^ C z a ; O @ 5 8 * O o o O o .   `.`.`.`.`.`.`.`.`.`.`.`.`.`.`.`.`.`.`.`.`.`.",
"`.`.`.`.`.`.`.`.`.`.`.`.`.`.`.`.`.`.`.`.`.  . o `.`.` _ W 2 * @ 5 5 = O o o O o . `.`.`.`.`.`.`.`.`.`.`.`.`.`.`.`.`.`.`.`.`.`.`.",
"`.`.`.`.`.`.`.`.`.`.`.`.`.`.`.`.`.`.`.`.`.`.    `.`.O. ./ W 3 , 5 9 5 * O o o o `.`.`.`.`.`.`.`.`.`.`.`.`.`.`.`.`.`.`.`.`.`.`.`.",
"`.`.`.`.`.`.`.`.`.`.`.`.`.`.`.`.`.`.`.`.`.`.`.`.`.`.+.o. . .! l < 5 8 * O o `.`.`.`.`.`.`.`.`.`.`.`.`.`.`.`.`.`.`.`.`.`.`.`.`.`.",
"`.`.`.`.`.`.`.`.`.`.`.`.`.`.`.`.`.`.`.`.`.`.`.`.`.`.+.+.+.O. .~ j < - > 1 `.`.`.`.`.`.`.`.`.`.`.`.`.`.`.`.`.`.`.`.`.`.`.`.`.`.`.",
"`.`.`.`.`.`.`.`.`.`.`.`.`.`.`.`.`.`.`.`.`.`.`.E `.`.+.+.+.+.O. .! l < k ( #.`.`.`.`.`.`.`.`.`.`.`.`.`.`.`.`.`.`.`.`.`.`.`.`.`.`.",
"`.`.`.`.`.`.`.`.`.`.`.`.`.`.`.`.`.`.`.`.`.`.E E Q `  . .X.+.+.O. .! z [ 7.a.b.`.`.`.`.`.`.`.`.`.`.`.`.`.`.`.`.`.`.`.`.`.`.`.`.`.",
"`.`.`.`.`.`.`.`.`.`.`.`.`.`.`.`.`.`.`.`.`.`.~ ~ / ` ` `  . .O.+.O.` [ 4.j.P.T.R.`.`.`.`.`.`.`.`.`.`.`.`.`.`.`.`.`.`.`.`.`.`.`.`.",
"`.`.`.`.`.`.`.`.`.`.`.`.`.`.`.`.`.`.`.`.`.*.| } X.X.X. .` )  .+.+. ...5.C.R.W.R.`.`.`.`.`.`.`.`.`.`.`.`.`.`.`.`.`.`.`.`.`.`.`.`.",
"`.`.`.`.`.`.`.`.`.`.`.`.`.`.`.`.`.`.`.`.`.-.-.$.#.+.O. ._ /  .+.+.o...`.`.E.R.R.`.`.`.`.`.`.`.`.`.`.`.`.`.`.`.`.`.`.`.`.`.`.`.`.",
"`.`.`.`.`.`.`.`.`.`.`.`.`.`.`.`.`.`.`.`.`.-.-.`.+.+.o._ )  .O.+.+.O.X.`.`.E.R.R.`.`.`.`.`.`.`.`.`.`.`.`.`.`.`.`.`.`.`.`.`.`.`.`.",
"`.`.`.`.`.`.`.`.`.`.`.`.`.`.`.`.`.`.`.`.`.`.`.`.+.+.O. . .O.+.+.+.o. .`.`.`.`.`.`.`.`.`.`.`.`.`.`.`.`.`.`.`.`.`.`.`.`.`.`.`.`.`.",
"`.`.`.`.`.`.`.`.`.`.`.`.`.`.`.`.`.`.`.`.`.`.`.`.O.O.O.O.O.O.O.+.+.O.@.4.`.`.`.`.`.`.`.`.`.`.`.`.`.`.`.`.`.`.`.`.`.`.`.`.`.`.`.`.",
"`.`.`.`.`.`.`.`.`.`.`.`.`.`.`.`.`.`.`.`.`.`.`.`.`.:.:.#.o. . .`.`.0.i.i.p.p.`.`.`.`.`.`.`.`.`.`.`.`.`.`.`.`.`.`.`.`.`.`.`.`.`.`.",
"`.`.`.`.`.`.`.`.`.`.`.`.`.`.`.`.`.`.`.`.`.`.`.`.`.b.a.q.o.` `.`.`.`.p.p.p.p.`.`.`.`.`.`.`.`.`.`.`.`.`.`.`.`.`.`.`.`.`.`.`.`.`.`.",
"`.`.`.`.`.`.`.`.`.`.`.`.`.`.`.`.`.`.`.`.`.`.`.`.W.T.L.`.`.`.`.`.`.`.`.p.d.f.`.`.`.`.`.`.`.`.`.`.`.`.`.`.`.`.`.`.`.`.`.`.`.`.`.`.",
"`.`.`.`.`.`.`.`.`.`.`.`.`.`.`.`.`.`.`.`.`.`.`.`.R.R.R.`.`.`.`.`.`.`.`.`.m.C.`.`.`.`.`.`.`.`.`.`.`.`.`.`.`.`.`.`.`.`.`.`.`.`.`.`.",
"`.`.`.`.`.`.`.`.`.`.`.`.`.`.`.`.`.`.`.`.`.`.`.).K.G.G.`.`.`.`.`.`.`.`.`.`.`.`.`.`.`.`.`.`.`.`.`.`.`.`.`.`.`.`.`.`.`.`.`.`.`.`.`.",
"`.`.`.`.`.`.`.`.`.`.`.`.`.`.`.`.`.`.`.`.`.`.`._.m.f.f.`.`.`.`.`.`.`.`.`.`.`.`.`.`.`.`.`.`.`.`.`.`.`.`.`.`.`.`.`.`.`.`.`.`.`.`.`.",
"`.`.`.`.`.`.`.`.`.`.`.`.`.`.`.`.`.`.`.`.`.`.`.`.`.`.`.`.`.`.`.`.`.`.`.`.`.`.`.`.`.`.`.`.`.`.`.`.`.`.`.`.`.`.`.`.`.`.`.`.`.`.`.`.",
"`.`.`.`.`.`.`.`.`.`.`.`.`.`.`.`.`.`.`.`.`.`.`.`.`.`.`.`.`.`.`.`.`.`.`.`.`.`.`.`.`.`.`.`.`.`.`.`.`.`.`.`.`.`.`.`.`.`.`.`.`.`.`.`."
};
