/* XPM */
static const char *player_3_6[] = {
/* columns rows colors chars-per-pixel */
"64 64 182 2 ",
"   c #260902",
".  c #2C0B01",
"X  c #350B00",
"o  c #390D00",
"O  c #2F1002",
"+  c #331203",
"@  c #3C1302",
"#  c #3C1805",
"$  c #3A160F",
"%  c #3F1B09",
"&  c #3A1F16",
"*  c #3C2117",
"=  c #421503",
"-  c #491407",
";  c #441B03",
":  c #491D03",
">  c #4F150B",
",  c #431E0C",
"<  c #481A09",
"1  c #531A0C",
"2  c #5B1C10",
"3  c #462004",
"4  c #4C2304",
"5  c #4A240B",
"6  c #47210B",
"7  c #522604",
"8  c #562A05",
"9  c #592C06",
"0  c #502609",
"q  c #52290B",
"w  c #5B2E09",
"e  c #5E3109",
"r  c #43261D",
"t  c #542C14",
"y  c #542711",
"u  c #5C321A",
"i  c #5D3110",
"p  c #64350D",
"a  c #69380F",
"s  c #642114",
"d  c #692317",
"f  c #6D2218",
"g  c #74261C",
"h  c #79291F",
"j  c #623511",
"k  c #673814",
"l  c #6C3B12",
"z  c #6C3F1C",
"x  c #61361C",
"c  c #713F15",
"v  c #733617",
"b  c #4D3226",
"n  c #5B372B",
"m  c #5A3F31",
"M  c #643C25",
"N  c #773F20",
"B  c #754215",
"V  c #754419",
"C  c #7A4419",
"Z  c #4B4239",
"A  c #5D4234",
"S  c #6C4425",
"D  c #704729",
"F  c #72492A",
"G  c #7A502D",
"H  c #6D4B3A",
"J  c #623D40",
"K  c #6E4A49",
"L  c #695E4E",
"P  c #78604E",
"I  c #6A6253",
"U  c #863224",
"Y  c #8D3228",
"T  c #94342C",
"R  c #9C3A2F",
"E  c #97372D",
"W  c #9F3831",
"Q  c #A03F2F",
"!  c #A23C31",
"~  c #854922",
"^  c #875324",
"/  c #905027",
"(  c #A1462F",
")  c #A95F2C",
"_  c #A44232",
"`  c #AB4335",
"'  c #AD4935",
"]  c #B44C36",
"[  c #B44A39",
"{  c #BA4D3A",
"}  c #B14636",
"|  c #AE5634",
" . c #A85236",
".. c #B55436",
"X. c #B15A34",
"o. c #BA523D",
"O. c #B8593B",
"+. c #976536",
"@. c #A26738",
"#. c #B46631",
"$. c #B66C3C",
"%. c #BA6A3C",
"&. c #B5633A",
"*. c #BE5A44",
"=. c #83654E",
"-. c #9A6F4E",
";. c #856852",
":. c #87705B",
">. c #A66E40",
",. c #BB6943",
"<. c #BF7A41",
"1. c #A07359",
"2. c #BB7752",
"3. c #807564",
"4. c #927A65",
"5. c #C26A46",
"6. c #C6754D",
"7. c #C77B54",
"8. c #CB7E67",
"9. c #AD855C",
"0. c #B08258",
"q. c #9E866F",
"w. c #948478",
"e. c #AB8665",
"r. c #B98B6A",
"t. c #B69169",
"y. c #A38C75",
"u. c #A7967F",
"i. c #B0977E",
"p. c #C5824C",
"a. c #CA8351",
"s. c #C98952",
"d. c #C9905C",
"f. c #D29A5D",
"g. c #D0965B",
"h. c #C88B61",
"j. c #C59563",
"k. c #CA9969",
"l. c #D29D65",
"z. c #D19E6C",
"x. c #D4A067",
"c. c #A27B84",
"v. c #AD9E86",
"b. c #BFA78C",
"n. c #D59A80",
"m. c #C79D9D",
"M. c #C3A689",
"N. c #DBB485",
"B. c #DCBA8D",
"V. c #C1AD90",
"C. c #D1AE97",
"Z. c #CDB89B",
"A. c #C5B295",
"S. c #D4BC9D",
"D. c #DDBD9C",
"F. c #DFBD90",
"G. c #E2BE9A",
"H. c #D4B9B1",
"J. c #E6C59A",
"K. c #E6C69A",
"L. c #D3C1A5",
"P. c #DAC4A4",
"I. c #DFC9AA",
"U. c #DCC1B6",
"Y. c #E3C4A3",
"T. c #E2CFAE",
"R. c #E2CAA7",
"E. c #E8D1AD",
"W. c #EBCEB7",
"Q. c #E9D4B3",
"!. c #EDDAB9",
"~. c #EEDDBB",
"^. c #E8D4B4",
"/. c #F1DCBD",
"(. c #D8AEC1",
"). c #DBB3C1",
"_. c #E4BDC9",
"`. c #EECFC9",
"'. c #EFD1C5",
"]. c #F5E9DD",
"[. c #FF00FF",
"{. c black",
/* pixels */
"[.[.[.[.[.[.[.[.[.[.[.[.[.[.[.[.[.[.[.[.[.[.[.[.[.[.[.[.[.[.[.[.[.[.[.[.[.[.[.[.[.[.[.[.[.[.[.[.[.[.[.[.[.[.[.[.[.[.[.[.[.[.[.[.",
"[.[.[.[.[.[.[.[.[.[.[.[.[.[.[.[.[.[.[.[.[.[.[.[.[.[.[.[.[.[.[.[.[.[.[.[.[.[.[.[.[.[.[.[.[.[.[.[.[.[.[.[.[.[.[.[.[.[.[.[.[.[.[.[.",
"[.[.[.[.[.[.[.[.[.[.[.[.[.[.[.[.[.[.[.[.[.[.[.[.[.[.[.[.[.[.[.[.[.[.[.[.[.[.[.[.[.[.[.[.[.[.[.[.[.[.[.[.[.[.[.[.[.[.[.[.[.[.[.[.",
"[.[.[.[.[.[.[.[.[.[.[.[.[.[.[.[.[.[.[.[.[.[.[.[.[.[.[.[.[.[.[.[.[.[.[.[.[.[.[.[.[.[.[.[.[.[.[.[.[.[.[.[.[.[.[.[.[.[.[.[.[.[.[.[.",
"[.[.[.[.[.[.[.[.[.[.[.[.[.[.[.[.[.[.[.[.[.[.[.[.[.[.[.[.[.[.[.[.[.[.[.[.[.[.[.[.[.[.[.[.[.[.[.[.[.[.[.[.[.[.[.[.[.[.[.[.[.[.[.[.",
"[.[.[.[.[.[.[.[.[.[.[.[.[.[.[.[.[.[.[.[.[.[.[.[.[.[.[.[.[.[.[.[.[.[.[.[.[.[.[.[.[.[.[.[.[.[.[.[.[.[.[.[.[.[.[.[.[.[.[.[.[.[.[.[.",
"[.[.[.[.[.[.[.[.[.[.[.[.[.[.[.[.[.[.[.[.[.[.[.[.[.[.[.[.[.[.[.[.[.[.[.[.[.[.[.[.[.[.[.[.[.[.[.[.[.[.[.[.[.[.[.[.[.[.[.[.[.[.[.[.",
"[.[.[.[.[.[.[.[.[.[.[.[.[.[.[.[.[.[.[.[.[.[.[.[.[.[.[.[.[.[.[.[.[.[.[.[.[.[.[.[.[.[.[.[.[.[.[.[.[.[.[.[.[.[.[.[.[.[.[.[.[.[.[.[.",
"[.[.[.[.[.[.[.[.[.[.[.[.[.[.[.[.[.[.[.[.[.[.[.[.[.[.[.[.[.[.[.[.[.[.[.[.[.[.[.[.[.[.[.[.[.[.[.[.[.[.[.[.[.[.[.[.[.[.[.[.[.[.[.[.",
"[.[.[.[.[.[.[.[.[.[.[.[.[.[.[.[.[.[.[.[.[.[.[.[.[.[.[.[.[.[.[.[.[.[.[.[.[.[.[.[.[.[.[.[.[.[.[.[.[.[.[.[.[.[.[.[.[.[.[.[.[.[.[.[.",
"[.[.[.[.[.[.[.[.[.[.[.[.[.[.[.[.[.[.[.[.[.[.[.[.[.[.[.[.[.[.[.[.[.[.[.[.[.[.[.[.[.[.[.[.[.[.[.[.[.[.[.[.[.[.[.[.[.[.[.[.[.[.[.[.",
"[.[.[.[.[.[.[.[.[.[.[.[.[.[.[.[.[.[.[.[.[.[.[.[.[.[.[.[.[.[.[.[.[.[.[.[.[.[.[.[.[.[.[.[.[.[.[.[.[.[.[.[.[.[.[.[.[.[.[.[.[.[.[.[.",
"[.[.[.[.[.[.[.[.[.[.[.[.[.[.[.[.[.[.[.[.[.[.[.[.[.[.[.[.[.[.[.[.[.[.[.[.[.[.[.[.[.[.[.[.[.[.[.[.[.[.[.[.[.[.[.[.[.[.[.[.[.[.[.[.",
"[.[.[.[.[.[.[.[.[.[.[.[.[.[.[.[.[.[.[.[.[.[.[.[.[.[.[.[.[.[.[.[.[.[.[.[.[.[.[.[.[.[.[.[.[.[.[.[.[.[.[.[.[.[.[.[.[.[.[.[.[.[.[.[.",
"[.[.[.[.[.[.[.[.[.[.[.[.[.[.[.[.[.[.[.[.[.[.[.[.[.[.                        [.[.[.[.[.[.[.[.[.[.[.[.[.[.[.[.[.[.[.[.[.[.[.[.[.[.",
"[.[.[.[.[.[.[.[.[.[.[.[.[.[.[.[.[.[.[.[.[.[.[.[.[.. + + + + + + + + + + + + . [.[.[.[.[.[.[.[.[.[.[.[.[.[.[.[.[.[.[.[.[.[.[.[.[.",
"[.[.[.[.[.[.[.[.[.[.[.[.[.[.[.[.[.[.[.[.[.[.[.[.. # 3 3 4 4 4 3 3 4 4 3 3 3 # + [.[.[.[.[.[.[.[.[.[.[.[.[.[.[.[.[.[.[.[.[.[.[.[.",
"[.[.[.[.[.[.[.[.[.[.[.[.[.[.[.[.[.[.[.[.[.[.[.# 5 q 8 w e a p w w p p 4 3 8 q 5 # [.[.[.[.[.[.[.[.[.[.[.[.[.[.[.[.[.[.[.[.[.[.[.",
"[.[.[.[.[.[.[.[.[.[.[.[.[.[.[.[.[.[.[.[.[.[.+ 5 k k w w a c a w w a k q ; 4 p i #   [.[.[.[.[.[.[.[.[.[.[.[.[.[.[.[.[.[.[.[.[.[.",
"[.[.[.[.[.[.[.[.[.[.[.[.[.[.[.[.[.[.[.[.[.+ 5 k V l p a l a e 9 8 e a j q ; q 8 #   [.[.[.[.[.[.[.[.[.[.[.[.[.[.[.[.[.[.[.[.[.[.",
"[.[.[.[.[.[.[.[.[.[.[.[.[.[.[.[.[.[.[.[.# 5 k C B a p c B e 8 8 9 e a j q ; 3 4 ; + [.[.[.[.[.[.[.[.[.[.[.[.[.[.[.[.[.[.[.[.[.[.",
"[.[.[.[.[.[.[.[.[.[.[.[.[.[.[.[.[.[.[.  , k C B a w w l c p 9 8 w a k q ; 4 8 8 7 ; + [.[.[.[.[.[.[.[.[.[.[.[.[.[.[.[.[.[.[.[.[.",
"[.[.[.[.[.[.[.[.[.[.[.[.[.[.[.[.[.[.[.  6 c B a w 8 w a k l p w w p p 0 3 8 w w w w q % [.[.[.[.[.[.[.[.[.[.[.[.[.[.[.[.[.[.[.[.",
"[.[.[.[.[.[.[.[.[.[.[.[.[.[.[.[.[.[.[.+ 5 k a w w w e w a l a w 8 w w 9 8 w w w w a j ,   [.[.[.[.[.[.[.[.[.[.[.[.[.[.[.[.[.[.[.",
"[.[.[.[.[.[.[.[.[.[.[.[.[.[.[.[.[.[.O ; 8 e w 8 w a k p w e w w 8 8 8 8 8 9 8 8 w w 8 #   [.[.[.[.[.[.[.[.[.[.[.[.[.[.[.[.[.[.[.",
"[.[.[.[.[.[.[.[.[.[.[.[.[.[.[.[.[.[.O 3 8 w 9 8 w p a p 8 8 8 w 8 7 : ; 3 7 3 3 7 4 ; + [.[.[.[.[.[.[.[.[.[.[.[.[.[.[.[.[.[.[.[.",
"[.[.[.[.[.[.[.[.[.[.[.[.[.[.[.[.[.[.O 3 8 w 9 9 w w w w 8 8 8 8 7 ; @ , 6 4 5 5 3 ; + [.[.[.[.[.[.[.[.[.[.[.[.[.[.[.[.[.[.[.[.[.",
"[.[.[.[.[.[.[.[.[.[.[.[.[.[.[.[.[.[.+ 3 8 w 8 8 8 8 8 8 8 w w 7 ; + , D F t S G t # [.[.[.[.[.[.[.[.[.[.[.[.[.[.[.[.[.[.[.[.[.[.",
"[.[.[.[.[.[.[.[.[.[.[.[.[.[.[.[.[.  + 3 8 8 7 7 8 w 8 8 w p e 4 @ , F 9.e.;.e.t.;.A [.[.[.[.[.[.[.[.[.[.[.[.[.[.[.[.[.[.[.[.[.[.",
"[.[.[.[.[.[.[.[.[.[.[.[.[.[.[.[.  . @ 4 9 8 : ; 7 w w w a l a 4 # M 0.B.P.S.P.R.A.:.* [.[.[.[.[.[.[.[.[.[.[.[.[.[.[.[.[.[.[.[.[.",
"[.[.[.[.[.[.[.[.[.[.[.[.[.[.[.[.  . @ 4 w 8 ; = 4 9 w a l a e 3 # F j.J.!.!.!.~.T.4.* [.[.[.[.[.[.[.[.[.[.[.[.[.[.[.[.[.[.[.[.[.",
"[.[.[.[.[.[.[.[.[.[.[.[.[.[.[.[.  . @ 4 w 8 ; = 4 9 w j z V a 3 # F j.J.!.^.D.S.P.4.* [.[.[.[.[.[.[.[.[.[.[.[.[.[.[.[.[.[.[.[.[.",
"[.[.[.[.[.[.[.[.[.[.[.[.[.[.[.[.  . @ 4 w 8 ; = 4 9 7 6 z +.^ 4 # F j.J.!.I.e.1.M.4.* [.[.[.[.[.[.[.[.[.[.[.[.[.[.[.[.[.[.[.[.[.",
"[.[.[.[.[.[.[.[.[.[.[.[.[.[.[.[.  . @ 4 w 8 ; = 4 9 4 # x @.^ 0 # F j.J.!.P.=.H i.4.* [.[.[.[.[.[.[.[.[.[.[.[.[.[.[.[.[.[.[.[.[.",
"[.[.[.[.[.[.[.[.[.[.[.[.[.[.[.[.  . @ 4 w 8 ; = 4 w 4 # y ~ C 4 # F j.J.~.L.L Z u.y.A [.[.[.[.[.[.[.[.[.[.[.[.[.[.[.[.[.[.[.[.[.",
"[.[.[.[.[.[.[.[.[.[.[.[.[.[.[.[.[.  + : 8 8 ; = 4 w 7 @ = 0 w 3 # D j.J./.L.I Z v.Z.q.A [.[.[.[.[.[.[.[.[.[.[.[.[.[.[.[.[.[.[.[.",
"[.[.[.[.[.[.[.[.[.[.[.[.[.[.[.[.[.[.. # 7 7 ; = 7 w 7 = o @ 3 3 # u -.C.'.U.w.3.A.Z.q.A [.[.[.[.[.[.[.[.[.[.[.[.[.[.[.[.[.[.[.[.",
"[.[.[.[.[.[.[.[.[.[.[.[.[.[.[.[.[.[.  o ; 7 ; = 4 8 7 ; = 4 8 7 @ # n c.)._.H.L.P.y.m [.[.[.[.[.[.[.[.[.[.[.[.[.[.[.[.[.[.[.[.[.",
"[.[.[.[.[.[.[.[.[.[.[.[.[.[.[.[.[.[.  X = 4 ; @ = 4 7 4 4 8 w 8 : @ $ J c.(.`./.T.4.& [.[.[.[.[.[.[.[.[.[.[.[.[.[.[.[.[.[.[.[.[.",
"[.[.[.[.[.[.[.[.[.[.[.[.[.[.[.[.[.[.  X @ : = o o ; 8 8 8 8 7 7 7 4 @ $ K m.W.T.V.;.& [.[.[.[.[.[.[.[.[.[.[.[.[.[.[.[.[.[.[.[.[.",
"[.[.[.[.[.[.[.[.[.[.[.[.[.[.[.[.[.[.[.  X @ @ o o ; 7 w w 8 : : 7 7 ; + M r.D.b.P b [.[.[.[.[.[.[.[.[.[.[.[.[.[.[.[.[.[.[.[.[.[.",
"[.[.[.[.[.[.[.[.[.[.[.[.[.[.[.[.[.[.[.  . o = = @ @ : 7 w 8 4 : : ; # + u >.0.=.r   [.[.[.[.[.[.[.[.[.[.[.[.[.[.[.[.[.[.[.[.[.[.",
"[.[.[.[.[.[.[.[.[.[.[.[.[.[.[.[.[.[.[.  . o ; : @ o @ : 7 7 8 7 ; @ . . y / N , .   [.[.[.[.[.[.[.[.[.[.[.[.[.[.[.[.[.[.[.[.[.[.",
"[.[.[.[.[.[.[.[.[.[.[.[.[.[.[.[.[.[.[.[.  . @ @ o o o @ = ; 4 8 4 @ X X < v 1 X     [.[.[.[.[.[.[.[.[.[.[.[.[.[.[.[.[.[.[.[.[.[.",
"[.[.[.[.[.[.[.[.[.[.[.[.[.[.[.[.[.[.[.[.[.  X o o o o o = 1 1 4 : = @ > 2 [.X .   [.[.[.[.[.[.[.[.[.[.[.[.[.[.[.[.[.[.[.[.[.[.[.",
"[.[.[.[.[.[.[.[.[.[.[.[.[.[.[.[.[.[.[.[.[.[.X o o o o o 1 h d - - @ - f Y [.[.  [.[.[.[.[.[.[.[.[.[.[.[.[.[.[.[.[.[.[.[.[.[.[.[.",
"[.[.[.[.[.[.[.[.[.[.[.[.[.[.[.[.[.[.[.[.[.[.[.o o o o o s E Y g f 1 > h R [.[.[.[.[.[.[.[.[.[.[.[.[.[.[.[.[.[.[.[.[.[.[.[.[.[.[.",
"[.[.[.[.[.[.[.[.[.[.[.[.[.[.[.[.[.[.[.[.[.[.[.[.- = - = s Q ` R T d 1 h ! [.[.[.[.[.[.[.[.[.[.[.[.[.[.[.[.[.[.[.[.[.[.[.[.[.[.[.",
"[.[.[.[.[.[.[.[.[.[.[.[.[.[.[.[.[.[.[.[.[.[.[.) [.g g 2 d _ ` ! E g 2 U ' [.[.[.[.[.[.[.[.[.[.[.[.[.[.[.[.[.[.[.[.[.[.[.[.[.[.[.",
"[.[.[.[.[.[.[.[.[.[.[.[.[.[.[.[.[.[.[.[.[.[.#.#.[.[.R U U ! ! W E U U _ [ _ [.[.[.[.[.[.[.[.[.[.[.[.[.[.[.[.[.[.[.[.[.[.[.[.[.[.",
"[.[.[.[.[.[.[.[.[.[.[.[.[.[.[.[.[.[.[.[.[.[.#.#.[.[.[ ] ` _ _ _ _ _ ' ' ` ! [.[.[.[.[.[.[.[.[.[.[.[.[.[.[.[.[.[.[.[.[.[.[.[.[.[.",
"[.[.[.[.[.[.[.[.[.[.[.[.[.[.[.[.[.[.[.[.[.[.#.#.[.[.{ { ..X.,.,.&.X.X._ W ` [.[.[.[.[.[.[.[.[.[.[.[.[.[.[.[.[.[.[.[.[.[.[.[.[.[.",
"[.[.[.[.[.[.[.[.[.[.[.[.[.[.[.[.[.[.[.[.[.[.[.[.[.[.{ { ..%.d.z.s.<.$. .R ! [.[.[.[.[.[.[.[.[.[.[.[.[.[.[.[.[.[.[.[.[.[.[.[.[.[.",
"[.[.[.[.[.[.[.[.[.[.[.[.[.[.[.[.[.[.[.[.[.[.[.[.[.[.{ { ..%.k.N.l.s.p.$.( E [.[.[.[.[.[.[.[.[.[.[.[.[.[.[.[.[.[.[.[.[.[.[.[.[.[.",
"[.[.[.[.[.[.[.[.[.[.[.[.[.[.[.[.[.[.[.[.[.[.[.[.[.[.{ { ] | 2.h.7.6.5.%.| _ [.[.[.[.[.[.[.[.[.[.[.[.[.[.[.[.[.[.[.[.[.[.[.[.[.[.",
"[.[.[.[.[.[.[.[.[.[.[.[.[.[.[.[.[.[.[.[.[.[.[.[.[.[.{ { } ` | O.O.*.,.%.%...[.[.[.[.[.[.[.[.[.[.[.[.[.[.[.[.[.[.[.[.[.[.[.[.[.[.",
"[.[.[.[.[.[.[.[.[.[.[.[.[.[.[.[.[.[.[.[.[.[.[.[.[.[.[.*.o.[ ] ] o.5.a.s.a.[.[.[.[.[.[.[.[.[.[.[.[.[.[.[.[.[.[.[.[.[.[.[.[.[.[.[.",
"[.[.[.[.[.[.[.[.[.[.[.[.[.[.[.[.[.[.[.[.[.[.[.[.[.[.G.n.8.*.{ { o.6.g.f.f.[.[.[.[.[.[.[.[.[.[.[.[.[.[.[.[.[.[.[.[.[.[.[.[.[.[.[.",
"[.[.[.[.[.[.[.[.[.[.[.[.[.[.[.[.[.[.[.[.[.[.[.[.l.N.E.E.Y.[.[.[.[.[.f.f.f.[.[.[.[.[.[.[.[.[.[.[.[.[.[.[.[.[.[.[.[.[.[.[.[.[.[.[.",
"[.[.[.[.[.[.[.[.[.[.[.[.[.[.[.[.[.[.[.[.[.[.[.[.x.N.E.~.[.[.[.[.[.[.[.f.f.l.F.[.[.[.[.[.[.[.[.[.[.[.[.[.[.[.[.[.[.[.[.[.[.[.[.[.",
"[.[.[.[.[.[.[.[.[.[.[.[.[.[.[.[.[.[.[.[.[.[.[.[.G.Y.Q.[.[.[.[.[.[.[.[.[.f.x.F.[.[.[.[.[.[.[.[.[.[.[.[.[.[.[.[.[.[.[.[.[.[.[.[.[.",
"[.[.[.[.[.[.[.[.[.[.[.[.[.[.[.[.[.[.[.[.[.[.[.[.].].[.[.[.[.[.[.[.[.[.[.[.[.[.[.[.[.[.[.[.[.[.[.[.[.[.[.[.[.[.[.[.[.[.[.[.[.[.[.",
"[.[.[.[.[.[.[.[.[.[.[.[.[.[.[.[.[.[.[.[.[.[.[.[.[.[.[.[.[.[.[.[.[.[.[.[.[.[.[.[.[.[.[.[.[.[.[.[.[.[.[.[.[.[.[.[.[.[.[.[.[.[.[.[.",
"[.[.[.[.[.[.[.[.[.[.[.[.[.[.[.[.[.[.[.[.[.[.[.[.[.[.[.[.[.[.[.[.[.[.[.[.[.[.[.[.[.[.[.[.[.[.[.[.[.[.[.[.[.[.[.[.[.[.[.[.[.[.[.[."
};
