/* XPM */
static const char *player_1_8[] = {
/* columns rows colors chars-per-pixel */
"64 64 215 2 ",
"   c #030202",
".  c #0B0403",
"X  c #0B0906",
"o  c #0D0C09",
"O  c #130605",
"+  c #120F0B",
"@  c #180806",
"#  c #17140E",
"$  c #0F1010",
"%  c #1B1814",
"&  c #171512",
"*  c #210700",
"=  c #260901",
"-  c #2B0C01",
";  c #260C0B",
":  c #340C01",
">  c #390E00",
",  c #330F0C",
"<  c #2F1002",
"1  c #241A0F",
"2  c #331202",
"3  c #3B1302",
"4  c #3D1903",
"5  c #3E1C0E",
"6  c #381409",
"7  c #271D12",
"8  c #371812",
"9  c #2B251E",
"0  c #3F2116",
"q  c #2A2721",
"w  c #2B2A28",
"e  c #322A24",
"r  c #34312B",
"t  c #3A362E",
"y  c #3A3A39",
"u  c #373531",
"i  c #421502",
"p  c #441C04",
"a  c #491C03",
"s  c #431D0A",
"d  c #48120A",
"f  c #53190C",
"g  c #451A14",
"h  c #581C14",
"j  c #6B1F1F",
"k  c #462005",
"l  c #4B2305",
"z  c #46200B",
"x  c #4C240A",
"c  c #512605",
"v  c #552A05",
"b  c #592D06",
"n  c #512509",
"m  c #542A0B",
"M  c #5A2D09",
"N  c #5E310B",
"B  c #4C2413",
"V  c #46291A",
"C  c #512A13",
"Z  c #522D1B",
"A  c #592B16",
"S  c #43311E",
"D  c #5C3113",
"F  c #5B341C",
"G  c #622E0D",
"H  c #63340C",
"J  c #69390F",
"K  c #642314",
"L  c #6B241C",
"P  c #662216",
"I  c #73261D",
"U  c #643611",
"Y  c #6A3A10",
"T  c #6D3C12",
"R  c #6A3A12",
"E  c #66391A",
"W  c #793A19",
"Q  c #412120",
"!  c #592E25",
"~  c #483727",
"^  c #573827",
"/  c #403B32",
"(  c #5A3A36",
")  c #6A2620",
"_  c #772C22",
"`  c #663528",
"'  c #7A3426",
"]  c #713F32",
"[  c #754216",
"{  c #78421E",
"}  c #5E4231",
"|  c #514B3F",
" . c #5D503D",
".. c #6B4223",
"X. c #6C492C",
"o. c #724527",
"O. c #74492A",
"+. c #654A37",
"@. c #7A5B3A",
"#. c #774E2F",
"$. c #5A4E40",
"%. c #595143",
"&. c #665C4C",
"*. c #7C5B43",
"=. c #72584B",
"-. c #6E5350",
";. c #7A654A",
":. c #6B6252",
">. c #786B57",
",. c #7C7162",
"<. c #822E27",
"1. c #883528",
"2. c #96352C",
"3. c #9A352F",
"4. c #9B3A2D",
"5. c #973B2F",
"6. c #9C3B30",
"7. c #A43D33",
"8. c #97493A",
"9. c #895B38",
"0. c #985A36",
"q. c #904E28",
"w. c #A44132",
"e. c #AC4335",
"r. c #AD4C3A",
"t. c #AB4937",
"y. c #B14636",
"u. c #B34837",
"i. c #B44A39",
"p. c #BA4D3B",
"a. c #AE533C",
"s. c #A85738",
"d. c #B65634",
"f. c #8A623D",
"g. c #92653C",
"h. c #A5683C",
"j. c #BD5B45",
"k. c #BC5945",
"l. c #AE5C4B",
"z. c #8D6C4A",
"x. c #866347",
"c. c #996D42",
"v. c #997451",
"b. c #84705A",
"n. c #BE674A",
"m. c #BB7449",
"M. c #A57758",
"N. c #A47246",
"B. c #825C60",
"V. c #827562",
"C. c #897C69",
"Z. c #937C66",
"A. c #987A67",
"S. c #8E6B6D",
"D. c #AF7C64",
"F. c #C07849",
"G. c #AC835A",
"H. c #A2835C",
"J. c #B3895B",
"K. c #968A75",
"L. c #988874",
"P. c #978A74",
"I. c #B28A6A",
"U. c #B69975",
"Y. c #AE8E71",
"T. c #CA8555",
"R. c #C49977",
"E. c #D39A7F",
"W. c #CC9869",
"Q. c #CAA478",
"!. c #D7AC7B",
"~. c #A37B89",
"^. c #878685",
"/. c #AB9B83",
"(. c #AD8891",
"). c #BBA68C",
"_. c #B9A387",
"`. c #BDA393",
"'. c #BA90A3",
"]. c #A2A2A1",
"[. c #C09E81",
"{. c #D79D82",
"}. c #D9B58A",
"|. c #C4AF95",
" X c #C3B397",
".X c #CBB394",
"XX c #C8B79B",
"oX c #D5BC9A",
"OX c #D9BE98",
"+X c #CEAB88",
"@X c #C099A2",
"#X c #CDB8A6",
"$X c #D6B3B4",
"%X c #C6B6AB",
"&X c #DCC09A",
"*X c #E3C59C",
"=X c #DCC4A4",
"-X c #DBC9A9",
";X c #E3CEAE",
":X c #E7CCA8",
">X c #EAD2AC",
",X c #E3D0AF",
"<X c #E3C7B6",
"1X c #E6D3B3",
"2X c #EAD6B4",
"3X c #EBD8B7",
"4X c #ECDAB9",
"5X c #EDD7BD",
"6X c #F0DDBB",
"7X c #D8ACC1",
"8X c #E4BDC8",
"9X c #EAC5CB",
"0X c #EFD3C4",
"qX c #FF00FF",
"wX c black",
/* pixels */
"qXqXqXqXqXqXqXqXqXqXqXqXqXqXqXqXqXqXqXqXqXqXqXqXqXqXqXqXqXqXqXqXqXqXqXqXqXqXqXqXqXqXqXqXqXqXqXqXqXqXqXqXqXqXqXqXqXqXqXqXqXqXqXqX",
"qXqXqXqXqXqXqXqXqXqXqXqXqXqXqXqXqXqXqXqXqXqXqXqXqXqXqXqXqXqXqXqXqXqXqXqXqXqXqXqXqXqXqXqXqXqXqXqXqXqXqXqXqXqXqXqXqXqXqXqXqXqXqXqX",
"qXqXqXqXqXqXqXqXqXqXqXqXqXqXqXqXqXqXqXqXqXqXqXqXqXqXqXqXqXqXqXqXqXqXqXqXqXqXqXqXqXqXqXqXqXqXqXqXqXqXqXqXqXqXqXqXqXqXqXqXqXqXqXqX",
"qXqXqXqXqXqXqXqXqXqXqXqXqXqXqXqXqXqXqXqXqXqXqXqXqXqXqXqXqXqXqXqXqXqXqXqXqXqXqXqXqXqXqXqXqXqXqXqXqXqXqXqXqXqXqXqXqXqXqXqXqXqXqXqX",
"qXqXqXqXqXqXqXqXqXqXqXqXqXqXqXqXqXqXqXqXqXqXqXqXqXqXqXqXqXqXqXqXqXqXqXqXqXqXqXqXqXqXqXqXqXqXqXqXqXqXqXqXqXqXqXqXqXqXqXqXqXqXqXqX",
"qXqXqXqXqXqXqXqXqXqXqXqXqXqXqXqXqXqXqXqXqXqXqXqXqXqXqXqXqXqXqXqXqXqXqXqXqXqXqXqXqXqXqXqXqXqXqXqXqXqXqXqXqXqXqXqXqXqXqXqXqXqXqXqX",
"qXqXqXqXqXqXqXqXqXqXqXqXqXqXqXqXqXqXqXqXqXqXqXqXqXqXqXqXqXqXqXqXqXqXqXqXqXqXqXqXqXqXqXqXqXqXqXqXqXqXqXqXqXqXqXqXqXqXqXqXqXqXqXqX",
"qXqXqXqXqXqXqXqXqXqXqXqXqXqXqXqXqXqXqXqXqXqXqXqXqXqXqXqXqXqXqXqXqXqXqXqXqXqXqXqXqXqXqXqXqXqXqXqXqXqXqXqXqXqXqXqXqXqXqXqXqXqXqXqX",
"qXqXqXqXqXqXqXqXqXqXqXqXqXqXqXqXqXqXqXqXqXqXqXqXqXqXqXqXqXqXqXqXqXqXqXqXqXqXqXqXqXqXqXqXqXqXqXqXqXqXqXqXqXqXqXqXqXqXqXqXqXqXqXqX",
"qXqXqXqXqXqXqXqXqXqXqXqXqXqXqXqXqXqXqXqXqXqXqXqXqXqXqXqXqXqXqXqXqXqXqXqXqXqXqXqXqXqXqXqXqXqXqXqXqXqXqXqXqXqXqXqXqXqXqXqXqXqXqXqX",
"qXqXqXqXqXqXqXqXqXqXqXqXqXqXqXqXqXqXqXqXqXqXqXqX- < < 2 2 < qXqX- 2 < < < < - qXqXqXqXqXqXqXqXqXqXqXqXqXqXqXqXqXqXqXqXqXqXqXqXqX",
"qXqXqXqXqXqXqXqXqXqXqXqXqXqXqXqXqXqXqXqXqX= = 2 p k k p p p 3 2 p p p p k p 3 - = qXqXqXqXqXqXqXqXqXqXqXqXqXqXqXqXqXqXqXqXqXqXqX",
"qXqXqXqXqXqXqXqXqXqXqXqXqXqXqXqXqXqXqXqX- 3 p x m N N n l c x x c l l M H b x s 4 2 qXqXqXqXqXqXqXqXqXqXqXqXqXqXqXqXqXqXqXqXqXqX",
"qXqXqXqXqXqXqXqXqXqXqXqXqXqXqXqXqXqXqX- 4 n U U N J R x p c H U M k s D R H H U M p 2 qXqXqXqXqXqXqXqXqXqXqXqXqXqXqXqXqXqXqXqXqX",
"qXqXqXqXqXqXqXqXqXqXqXqXqXqXqXqXqXqX- 4 n U T J N H J D x p m M l x M U H M H R T M p 2 qXqXqXqXqXqXqXqXqXqXqXqXqXqXqXqXqXqXqXqX",
"qXqXqXqXqXqXqXqXqXqXqXqXqXqXqXqXqX- 3 l J [ R M b N H U m p l l p x U U H b b H [ T c 4 2 qXqXqXqXqXqXqXqXqXqXqXqXqXqXqXqXqXqXqX",
"qXqXqXqXqXqXqXqXqXqXqXqXqXqXqXqX- 3 l v J [ R b b J R m s l c v l p x U R M b H [ T M l p < qXqXqXqXqXqXqXqXqXqXqXqXqXqXqXqXqXqX",
"qXqXqXqXqXqXqXqXqXqXqXqXqXqXqXqX- 4 c b N R T J N H H x k c b b v l k N J N H R T J b v k 2 qXqXqXqXqXqXqXqXqXqXqXqXqXqXqXqXqXqX",
"qXqXqXqXqXqXqXqXqXqXqXqXqXqXqXqX- 4 v M M M U T H b b v v v b b b v v b b M J T N M N b k 2 qXqXqXqXqXqXqXqXqXqXqXqXqXqXqXqXqXqX",
"qXqXqXqXqXqXqXqXqXqXqXqXqXqXqXqX= 4 M J N p n N b v v v v v v v b b v v v b N M p n R H k < qXqXqXqXqXqXqXqXqXqXqXqXqXqXqXqXqXqX",
"qXqXqXqXqXqXqXqXqXqXqXqXqXqXqXqX= 4 M J M 6 3 a k l c l l c l l c l l c c k a p 2 x J H k < qXqXqXqXqXqXqXqXqXqXqXqXqXqXqXqXqXqX",
"qXqXqXqXqXqXqXqXqXqXqXqXqXqXqXqX- 4 c M l : : 3 4 k l z z l k s l l s l l s 3 > - 4 v b k < qXqXqXqXqXqXqXqXqXqXqXqXqXqXqXqXqXqX",
"qXqXqXqXqXqXqXqXqXqXqXqXqXqXqXqX- 4 l p 3 : - s ..E C ....C E ..C F o.D D o.Z : - 2 4 l p 2 qXqXqXqXqXqXqXqXqXqXqXqXqXqXqXqXqXqX",
"qXqXqXqXqXqXqXqXqXqXqXqXqXqXqXqX2 p c l 3 2 s X.M.v.*.M.M.*.v.G.*.z.G.x.x.G.f.C 3 3 p l l 3 - qXqXqXqXqXqXqXqXqXqXqXqXqXqXqXqXqX",
"qXqXqXqXqXqXqXqXqXqXqXqXqXqXqX2 p c M N x s o.J.}.oX.XoXoX|.oXOX.X.X&X.X.XOXR.f.B s N N v l 3 - qXqXqXqXqXqXqXqXqXqXqXqXqXqXqXqX",
"qXqXqXqXqXqXqXqXqXqXqXqXqXqX= 2 l H J N s 5 z.}.>X4X4X4X3X3X3X3X3X3X4X4X4X2X*XI.^ 3 m U J v 4 - qXqXqXqXqXqXqXqXqXqXqXqXqXqXqXqX",
"qXqXqXqXqXqXqXqXqXqXqXqXqXqX= 2 l H R A 5 0 Z.-X3X;X=X;X3X4X3X3X4X4X1X=X=X1X2X_.^ 6 C E R b 4 = qXqXqXqXqXqXqXqXqXqXqXqXqXqXqXqX",
"qXqXqXqXqXqXqXqXqXqXqXqXqXqX= 2 l c D #...Z Z.;X1X[.D.+X2X3X3X3X3X4X=XI.I.=X4X).} F #.E m c 4 - qXqXqXqXqXqXqXqXqXqXqXqXqXqXqXqX",
"qXqXqXqXqXqXqXqXqXqXqXqXqXqX= 2 l l D 0.9.! Z.,X;XA.+.Y.1X4X3X3X4X4X.X*.*.XX4X).} ..h.{ l l 4 - qXqXqXqXqXqXqXqXqXqXqXqXqXqXqXqX",
"qXqXqXqXqXqXqXqXqXqXqXqXqXqX= 2 l c H q.{ Z Z.1X;XV.~ L.1X4X3X3X4X6X X$.$. X4X).} E q.W v c 4 - qXqXqXqXqXqXqXqXqXqXqXqXqXqXqXqX",
"qXqXqXqXqXqXqXqXqXqXqXqXqXqX= 2 l b M G n V Z.1X;XV./ K.1X4X3X3X4X6X X%.%. X4X).( s G G b c 4 - qXqXqXqXqXqXqXqXqXqXqXqXqXqXqXqX",
"qXqXqXqXqXqXqXqXqXqXqXqXqXqX= 2 l v c a > 5 A.<X<XK.&./.1X4X3X3X4X4XXX>.,.#X0X`.( : i l v c 4 - qXqXqXqXqXqXqXqXqXqXqXqXqXqXqXqX",
"qXqXqXqXqXqXqXqXqXqXqXqXqXqX= 2 l a p p 4 g S.$X9X$X|.=X2X3X3X3X3X4X;XXX%X8X8X(.( 3 p p a l 4 - qXqXqXqXqXqXqXqXqXqXqXqXqXqXqXqX",
"qXqXqXqXqXqXqXqXqXqXqXqXqXqXqX2 4 4 3 i p z -.~.7X9X5X3X3X3X2X2X2X3X3X4X0X8X'.B.Z p p 3 3 4 3 qXqXqXqXqXqXqXqXqXqXqXqXqXqXqXqXqX",
"qXqXqXqXqXqXqXqXqXqXqXqXqXqXqXqX- : > > p l s ( (.$X:X>X>X3X4X4X3X1X>X>X<X@X-.V l a 3 > : - - qXqXqXqXqXqXqXqXqXqXqXqXqXqXqXqXqX",
"qXqXqXqXqXqXqXqXqXqXqXqXqXqXqXqX= - : > i l 3 8 ( A.Q.!.}.>X2X2X1X*X}.!.I.=.Q 2 a a > : : = qXqXqXqXqXqXqXqXqXqXqXqXqXqXqXqXqXqX",
"qXqXqXqXqXqXqXqXqXqXqXqXqXqXqXqX= - : : 3 p 3 - , F 9.c.G.Q.}.}.+XI.c.g.O.5 = : p i > : - = qXqXqXqXqXqXqXqXqXqXqXqXqXqXqXqXqXqX",
"qXqXqXqXqXqXqXqXqXqXqXqXqXqXqXqXqX= - > > 3 > > : 4 B C o.h.m.F.m.9.F B s > : > 3 3 > - = qXqXqXqXqXqXqXqXqXqXqXqXqXqXqXqXqXqXqX",
"qXqXqXqXqXqXqXqXqXqXqXqXqXqXqXqXqXqX- 4 i 3 i i 3 d P I 1.t.d.d.d.w._ L f i i p 3 3 p 2 = qXqXqXqXqXqXqXqXqXqXqXqXqXqXqXqXqXqXqX",
"qXqXqXqXqXqXqXqXqXqXqXqXqXqXqXqXqXqX- 4 p 3 i a a P 2.w.e.i.p.p.p.u.w.1.P a p a 3 i p 3 qXqXqXqXqXqXqXqXqXqXqXqXqXqXqXqXqXqXqXqX",
"qXqXqXqXqXqXqXqXqXqXqXqXqXqXqXqXqXqXqX2 > > > i n W w.e.e.i.p.p.p.u.4.L f a p 3 > > 2 qXqXqXqXqXqXqXqXqXqXqXqXqXqXqXqXqXqXqXqXqX",
"qXqXqXqXqXqXqXqXqXqXqXqXqXqXqXqXqXqXqXqX* * = i K 1.w.e.y.i.p.p.p.i.4.h 3 4 < * - : qXqXqXqXqXqXqXqXqXqXqXqXqXqXqXqXqXqXqXqXqXqX",
"qXqXqXqXqXqXqXqXqXqXqXqXqXqXqXqXqXqXqXqXO @ = d I 2.7.y.p.p.p.p.p.p.w.K i i , * qXqXqXqXqXqXqXqXqXqXqXqXqXqXqXqXqXqXqXqXqXqXqXqX",
"qXqXqXqXqXqXqXqXqXqXqXqXqXqXqXqXqXqXqXqX; g d f 1.e.y.i.p.p.p.p.p.p.w.P f P L h ; qXqXqXqXqXqXqXqXqXqXqXqXqXqXqXqXqXqXqXqXqXqXqX",
"qXqXqXqXqXqXqXqXqXqXqXqXqXqXqXqXqXqXqX. , j L I w.p.p.u.e.e.e.e.e.y.w._ P L <.) ;   qXqXqXqXqXqXqXqXqXqXqXqXqXqXqXqXqXqXqXqXqXqX",
"qXqXqXqXqXqXqXqXqXqXqXqXqXqXqXqXqXqXqX. 8 <.2.4.e.p.u.e.7.7.7.7.7.7.7.4._ g ) _ 8 O qXqXqXqXqXqXqXqXqXqXqXqXqXqXqXqXqXqXqXqXqXqX",
"qXqXqXqXqXqXqXqXqXqXqXqXqXqXqXqXqXqXqX. V 0.a.e.y.e.7.7.e.e.e.e.e.e.e.7.<.) 1.5.' g O qXqXqXqXqXqXqXqXqXqXqXqXqXqXqXqXqXqXqXqXqX",
"qXqXqXqXqXqXqXqXqXqXqXqXqXqXqXqXqXqXqXqXS 9.s.a.i.e.3.7.e.i.p.p.i.u.7.3.2.6.i.j.a.` @ qXqXqXqXqXqXqXqXqXqXqXqXqXqXqXqXqXqXqXqXqX",
"qXqXqXqXqXqXqXqXqXqXqXqXqXqXqXqXqXqXqXqX% S 9.m.j.u.e.3.7.u.p.p.p.e.3.7.e.r.n.T.T.#.+ qXqXqXqXqXqXqXqXqXqXqXqXqXqXqXqXqXqXqXqXqX",
"qXqXqXqXqXqXqXqXqXqXqXqXqXqXqXqXqXqXqXqXqX% ;.W.n.u.u.7.7.i.p.p.p.e.7.e.6.' c.W.Q.;.# qXqXqXqXqXqXqXqXqXqXqXqXqXqXqXqXqXqXqXqXqX",
"qXqXqXqXqXqXqXqXqXqXqXqXqXqXqXqXqXqXqXqXqX% >.Y.l.e.u.i.i.p.p.p.p.i.i.u.' 0 @.!.&XV.% qXqXqXqXqXqXqXqXqXqXqXqXqXqXqXqXqXqXqXqXqX",
"qXqXqXqXqXqXqXqXqXqXqXqXqXqXqXqXqXqXqXqXqXqX/ +.8.e.e.u.p.p.p.p.p.p.p.e.L 8 >.OX=X,.% qXqXqXqXqXqXqXqXqXqXqXqXqXqXqXqXqXqXqXqXqX",
"qXqXqXqXqXqXqXqXqXqXqXqXqXqXqXqXqXqXqXqXqXqXX 8 1.y.e.y.p.p.p.p.p.p.i.e.<.! =.L.P.| + qXqXqXqXqXqXqXqXqXqXqXqXqXqXqXqXqXqXqXqXqX",
"qXqXqXqXqXqXqXqXqXqXqXqXqXqXqXqXqXqXqXqXqXqX& V 8.j.j.j.k.t.w.r.k.j.j.k.r.1.! e 9 &   qXqXqXqXqXqXqXqXqXqXqXqXqXqXqXqXqXqXqXqXqX",
"qXqXqXqXqXqXqXqXqXqXqXqXqXqXqXqXqXqXqXqXqX& %.Z.R.{.{.E.M.` B ] D.{.{.E.M.` 8 qXqXqXqXqXqXqXqXqXqXqXqXqXqXqXqXqXqXqXqXqXqXqXqXqX",
"qXqXqXqXqXqXqXqXqXqXqXqXqXqXqXqXqXqXqXqXqX% &.K././._..XZ.9 X e C..X;X;XL.e qXqXqXqXqXqXqXqXqXqXqXqXqXqXqXqXqXqXqXqXqXqXqXqXqXqX",
"qXqXqXqXqXqXqXqXqXqXqXqXqXqXqXqXqXqXqXqXqXqXr t t t  .H.z.7   o r C.-X3XK.q qXqXqXqXqXqXqXqXqXqXqXqXqXqXqXqXqXqXqXqXqXqXqXqXqXqX",
"qXqXqXqXqXqXqXqXqXqXqXqXqXqXqXqXqXqXqXqXqXqXqX. X 7 X.N.f.7     # :.-X3XK.q qXqXqXqXqXqXqXqXqXqXqXqXqXqXqXqXqXqXqXqXqXqXqXqXqXqX",
"qXqXqXqXqXqXqXqXqXqXqXqXqXqXqXqXqXqXqXqXqXqXqXqXr =.I.J.@.1 qXqX# &.oX1XK.q qXqXqXqXqXqXqXqXqXqXqXqXqXqXqXqXqXqXqXqXqXqXqXqXqXqX",
"qXqXqXqXqXqXqXqXqXqXqXqXqXqXqXqXqXqXqXqXqXqXqXy ^.%X#Xb.S qXqXqX+ +.Q.:XP.e qXqXqXqXqXqXqXqXqXqXqXqXqXqXqXqXqXqXqXqXqXqXqXqXqXqX",
"qXqXqXqXqXqXqXqXqXqXqXqXqXqXqXqXqXqXqXqXqXqXqXy ^.].^.y o qXqXqXX S z.Q.U.:.t qXqXqXqXqXqXqXqXqXqXqXqXqXqXqXqXqXqXqXqXqXqXqXqXqX",
"qXqXqXqXqXqXqXqXqXqXqXqXqXqXqXqXqXqXqXqXqXqXqXqXr r w $   qXqXqXqXqXS z.U.Y.%.o qXqXqXqXqXqXqXqXqXqXqXqXqXqXqXqXqXqXqXqXqXqXqXqX",
"qXqXqXqXqXqXqXqXqXqXqXqXqXqXqXqXqXqXqXqXqXqXqXqXqXqXqXqXqXqXqXqXqXqXqX~ +.$.e X qXqXqXqXqXqXqXqXqXqXqXqXqXqXqXqXqXqXqXqXqXqXqXqX",
"qXqXqXqXqXqXqXqXqXqXqXqXqXqXqXqXqXqXqXqXqXqXqXqXqXqXqXqXqXqXqXqXqXqXqXX X o .   qXqXqXqXqXqXqXqXqXqXqXqXqXqXqXqXqXqXqXqXqXqXqXqX"
};
