/* XPM */
static const char *player_2_3[] = {
/* columns rows colors chars-per-pixel */
"64 64 167 2 ",
"   c #270A02",
".  c #2B0B01",
"X  c #340C01",
"o  c #390E01",
"O  c #341304",
"+  c #3B1402",
"@  c #3E1904",
"#  c #3E1B0A",
"$  c #33170E",
"%  c #331811",
"&  c #421502",
"*  c #491607",
"=  c #441C03",
"-  c #4A1E03",
";  c #451D0B",
":  c #4A1309",
">  c #50160C",
",  c #541C0C",
"<  c #5D1D11",
"1  c #601F11",
"2  c #462005",
"3  c #4D2304",
"4  c #462009",
"5  c #4B240B",
"6  c #512605",
"7  c #562A05",
"8  c #592C06",
"9  c #512609",
"0  c #542A0B",
"q  c #5B2E0A",
"w  c #5E300A",
"e  c #4D2610",
"r  c #4F2911",
"t  c #47251A",
"y  c #462A1F",
"u  c #5D2414",
"i  c #592E10",
"p  c #502B19",
"a  c #5B341A",
"s  c #64350C",
"d  c #68380F",
"f  c #6D231A",
"g  c #72251B",
"h  c #643612",
"j  c #6C3B12",
"k  c #613A1E",
"l  c #693B18",
"z  c #713F14",
"x  c #793F1E",
"c  c #492E22",
"v  c #4B2B26",
"b  c #4B3025",
"n  c #40382F",
"m  c #5F3A20",
"M  c #573430",
"N  c #5D3F32",
"B  c #633C21",
"V  c #754216",
"C  c #79451A",
"Z  c #7A4219",
"A  c #474238",
"S  c #5B4032",
"D  c #6E4629",
"F  c #794A20",
"G  c #744A2D",
"H  c #654B3B",
"J  c #6E5544",
"K  c #785946",
"L  c #7B6250",
"P  c #842F24",
"I  c #863024",
"U  c #9A362E",
"Y  c #9B3A2E",
"T  c #97352D",
"R  c #9B3730",
"E  c #9F3931",
"W  c #A43D32",
"Q  c #A83F33",
"!  c #8C4B25",
"~  c #935D2B",
"^  c #81573A",
"/  c #875C38",
"(  c #975F33",
")  c #A74033",
"_  c #AC4335",
"`  c #B14737",
"'  c #B14738",
"]  c #B54A39",
"[  c #B94D3B",
"{  c #AB523F",
"}  c #BC583F",
"|  c #BB503D",
" . c #8B603A",
".. c #956336",
"X. c #B35B4C",
"o. c #BB5946",
"O. c #91624A",
"+. c #856D59",
"@. c #AA794D",
"#. c #B66054",
"$. c #B96654",
"%. c #A97956",
"&. c #855F69",
"*. c #896366",
"=. c #857968",
"-. c #857967",
";. c #967B63",
":. c #C36A55",
">. c #AF875E",
",. c #B58556",
"<. c #B88757",
"1. c #B98958",
"2. c #9D866F",
"3. c #9F8771",
"4. c #958974",
"5. c #A48567",
"6. c #A38C74",
"7. c #B18D72",
"8. c #AC977D",
"9. c #BC9A78",
"0. c #CB8A60",
"q. c #D49F66",
"w. c #D4967B",
"e. c #D6A36D",
"r. c #D8A16E",
"t. c #C4A078",
"y. c #DAA670",
"u. c #B68B85",
"i. c #AE998F",
"p. c #B39D83",
"a. c #BEAA8E",
"s. c #B9AB90",
"d. c #C19C88",
"f. c #D99D80",
"g. c #C6A98B",
"h. c #D5A98E",
"j. c #DAB388",
"k. c #DBB281",
"l. c #CBB79A",
"z. c #DCB296",
"x. c #DFBB91",
"c. c #D7BB9C",
"v. c #E3AB98",
"b. c #E2BE92",
"n. c #EDBF9B",
"m. c #CAA1B2",
"M. c #E0BFBE",
"N. c #E3C194",
"B. c #EEC09B",
"V. c #DCC7A7",
"C. c #DECBAD",
"Z. c #D4C1A2",
"A. c #E2CDAC",
"S. c #E7CAB3",
"D. c #E9D6B5",
"F. c #EAD5B4",
"G. c #ECD9B6",
"H. c #EDDAB9",
"J. c #EDDAB9",
"K. c #E7D4B3",
"L. c #FBD3BC",
"P. c #F1DBBF",
"I. c #E2B9CA",
"U. c #E8C8C3",
"Y. c #F5EBE0",
"T. c #FF00FF",
"R. c black",
/* pixels */
"T.T.T.T.T.T.T.T.T.T.T.T.T.T.T.T.T.T.T.T.T.T.T.T.T.T.T.T.T.T.T.T.T.T.T.T.T.T.T.T.T.T.T.T.T.T.T.T.T.T.T.T.T.T.T.T.T.T.T.T.T.T.T.T.",
"T.T.T.T.T.T.T.T.T.T.T.T.T.T.T.T.T.T.T.T.T.T.T.T.T.T.T.T.T.T.T.T.T.T.T.T.T.T.T.T.T.T.T.T.T.T.T.T.T.T.T.T.T.T.T.T.T.T.T.T.T.T.T.T.",
"T.T.T.T.T.T.T.T.T.T.T.T.T.T.T.T.T.T.T.T.T.T.T.T.T.T.T.T.T.T.T.T.T.T.T.T.T.T.T.T.T.T.T.T.T.T.T.T.T.T.T.T.T.T.T.T.T.T.T.T.T.T.T.T.",
"T.T.T.T.T.T.T.T.T.T.T.T.T.T.T.T.T.T.T.T.T.T.T.T.T.T.T.T.T.T.T.T.T.T.T.T.T.T.T.T.T.T.T.T.T.T.T.T.T.T.T.T.T.T.T.T.T.T.T.T.T.T.T.T.",
"T.T.T.T.T.T.T.T.T.T.T.T.T.T.T.T.T.T.T.T.T.T.T.T.T.T.T.T.T.T.T.T.T.T.T.T.T.T.T.T.T.T.T.T.T.T.T.T.T.T.T.T.T.T.T.T.T.T.T.T.T.T.T.T.",
"T.T.T.T.T.T.T.T.T.T.T.T.T.T.T.T.T.T.T.T.T.T.T.T.T.T.T.T.T.T.T.T.T.T.T.T.T.T.T.T.T.T.T.T.T.T.T.T.T.T.T.T.T.T.T.T.T.T.T.T.T.T.T.T.",
"T.T.T.T.T.T.T.T.T.T.T.T.T.T.T.T.T.T.T.T.T.T.T.T.T.T.T.T.T.T.T.T.T.T.T.T.T.T.T.T.T.T.T.T.T.T.T.T.T.T.T.T.T.T.T.T.T.T.T.T.T.T.T.T.",
"T.T.T.T.T.T.T.T.T.T.T.T.T.T.T.T.T.T.T.T.T.T.T.T.T.T.T.T.T.T.T.T.T.T.T.T.T.T.T.T.T.T.T.T.T.T.T.T.T.T.T.T.T.T.T.T.T.T.T.T.T.T.T.T.",
"T.T.T.T.T.T.T.T.T.T.T.T.T.T.T.T.T.T.T.T.T.T.T.T.T.T.T.T.T.T.T.T.T.T.T.T.T.T.T.T.T.T.T.T.T.T.T.T.T.T.T.T.T.T.T.T.T.T.T.T.T.T.T.T.",
"T.T.T.T.T.T.T.T.T.T.T.T.T.T.T.T.T.T.T.T.T.T.T.T.T.T.T.T.T.T.T.T.T.T.T.T.T.T.T.T.T.T.T.T.T.T.T.T.T.T.T.T.T.T.T.T.T.T.T.T.T.T.T.T.",
"T.T.T.T.T.T.T.T.T.T.T.T.T.T.T.T.T.T.T.T.T.T.T.T.T.T.T.T.T.T.T.T.T.T.T.T.T.T.T.T.T.T.T.T.T.T.T.T.T.T.T.T.T.T.T.T.T.T.T.T.T.T.T.T.",
"T.T.T.T.T.T.T.T.T.T.T.T.T.T.T.T.T.T.T.T.T.T.T.                        T.T.T.T.T.T.T.T.T.T.T.T.T.T.T.T.T.T.T.T.T.T.T.T.T.T.T.T.T.",
"T.T.T.T.T.T.T.T.T.T.T.T.T.T.T.T.T.T.T.T.T.T.O O + + O + + + O O + + O . T.T.T.T.T.T.T.T.T.T.T.T.T.T.T.T.T.T.T.T.T.T.T.T.T.T.T.T.",
"T.T.T.T.T.T.T.T.T.T.T.T.T.T.T.T.T.T.T.T.T.O = 3 3 3 6 6 3 6 6 6 6 3 3 @ O T.T.T.T.T.T.T.T.T.T.T.T.T.T.T.T.T.T.T.T.T.T.T.T.T.T.T.",
"T.T.T.T.T.T.T.T.T.T.T.T.T.T.T.T.T.T.T.T.# 0 q 6 2 0 s s 8 8 s d w 8 q 0 5 O T.T.T.T.T.T.T.T.T.T.T.T.T.T.T.T.T.T.T.T.T.T.T.T.T.T.",
"T.T.T.T.T.T.T.T.T.T.T.T.T.T.T.T.T.T.T.  ; h w 3 4 q j s 8 8 d j s q w j h 5 O T.T.T.T.T.T.T.T.T.T.T.T.T.T.T.T.T.T.T.T.T.T.T.T.T.",
"T.T.T.T.T.T.T.T.T.T.T.T.T.T.T.T.T.T.T.. @ 0 3 ; i h s q 8 8 q s z d s z C l 5 O T.T.T.T.T.T.T.T.T.T.T.T.T.T.T.T.T.T.T.T.T.T.T.T.",
"T.T.T.T.T.T.T.T.T.T.T.T.T.T.T.T.T.T.. + - 6 3 - 0 h s w 8 7 7 s V j s s V C h 5 O T.T.T.T.T.T.T.T.T.T.T.T.T.T.T.T.T.T.T.T.T.T.T.",
"T.T.T.T.T.T.T.T.T.T.T.T.T.T.T.T.T.O @ 3 7 7 7 3 = 0 j s 8 8 q s z j 8 8 s V C h #   T.T.T.T.T.T.T.T.T.T.T.T.T.T.T.T.T.T.T.T.T.T.",
"T.T.T.T.T.T.T.T.T.T.T.T.T.T.T.T.. 4 q q 8 8 8 6 3 0 s w 8 8 s j d s 8 7 q s V l #   T.T.T.T.T.T.T.T.T.T.T.T.T.T.T.T.T.T.T.T.T.T.",
"T.T.T.T.T.T.T.T.T.T.T.T.T.T.T.T.. 4 h s 8 8 8 8 8 8 8 8 7 8 s j s w s w 7 8 s h 4 O T.T.T.T.T.T.T.T.T.T.T.T.T.T.T.T.T.T.T.T.T.T.",
"T.T.T.T.T.T.T.T.T.T.T.T.T.T.T.T.. @ 0 8 7 6 7 7 7 6 7 7 7 8 q w 8 s j s 8 8 8 q 6 @ . T.T.T.T.T.T.T.T.T.T.T.T.T.T.T.T.T.T.T.T.T.",
"T.T.T.T.T.T.T.T.T.T.T.T.T.T.T.T.T.O @ 3 3 = 3 3 = @ - 6 7 8 7 7 8 s s w 8 7 8 8 7 = . T.T.T.T.T.T.T.T.T.T.T.T.T.T.T.T.T.T.T.T.T.",
"T.T.T.T.T.T.T.T.T.T.T.T.T.T.T.T.T.T.O = 5 r 5 5 r ; + = 6 7 7 7 7 8 8 8 8 8 8 8 7 = . T.T.T.T.T.T.T.T.T.T.T.T.T.T.T.T.T.T.T.T.T.",
"T.T.T.T.T.T.T.T.T.T.T.T.T.T.T.T.T.T.T.# B  .D m / G ; + = 7 8 8 7 7 7 7 7 7 7 8 7 = . T.T.T.T.T.T.T.T.T.T.T.T.T.T.T.T.T.T.T.T.T.",
"T.T.T.T.T.T.T.T.T.T.T.T.T.T.T.T.T.T.T.J 5.t.5.;.9.>.G ; @ 6 s s q 7 7 7 6 3 6 8 7 - X . T.T.T.T.T.T.T.T.T.T.T.T.T.T.T.T.T.T.T.T.",
"T.T.T.T.T.T.T.T.T.T.T.T.T.T.T.T.T.T.c 2.V.K.C.C.A.j.@.a + 6 d j s q 8 7 3 & - 7 7 - X .   T.T.T.T.T.T.T.T.T.T.T.T.T.T.T.T.T.T.T.",
"T.T.T.T.T.T.T.T.T.T.T.T.T.T.T.T.T.T.b 6.D.H.H.H.G.N.1.B + 3 s j j s 8 7 - + - 7 7 - o .   T.T.T.T.T.T.T.T.T.T.T.T.T.T.T.T.T.T.T.",
"T.T.T.T.T.T.T.T.T.T.T.T.T.T.T.T.T.T.b 6.c.g.c.D.D.b.<.B + 6 V F l q 8 7 3 & - 7 7 - o .   T.T.T.T.T.T.T.T.T.T.T.T.T.T.T.T.T.T.T.",
"T.T.T.T.T.T.T.T.T.T.T.T.T.T.T.T.T.T.b 6.9.O.7.A.G.b.<.k + q ~ ..a - 7 8 3 & - 7 7 - X .   T.T.T.T.T.T.T.T.T.T.T.T.T.T.T.T.T.T.T.",
"T.T.T.T.T.T.T.T.T.T.T.T.T.T.T.T.T.T.b 6.3.N ;.C.G.b.<.B O q ~ ( r @ 6 8 3 & - 7 7 - o .   T.T.T.T.T.T.T.T.T.T.T.T.T.T.T.T.T.T.T.",
"T.T.T.T.T.T.T.T.T.T.T.T.T.T.T.T.T.c K p.4.n -.C.G.N.1.B + 7 Z x ; @ 6 6 - = 3 7 7 - X . T.T.T.T.T.T.T.T.T.T.T.T.T.T.T.T.T.T.T.T.",
"T.T.T.T.T.T.T.T.T.T.T.T.T.T.T.T.$ J p.Z.4.A =.C.H.x.,.k + 3 9 ; O = 6 - = 3 7 8 7 = . . T.T.T.T.T.T.T.T.T.T.T.T.T.T.T.T.T.T.T.T.",
"T.T.T.T.T.T.T.T.T.T.T.T.T.T.T.T.T.H 3.l.s.=.i.U.U.d.^ e @ 3 3 + + = 3 = & 6 8 7 - + . T.T.T.T.T.T.T.T.T.T.T.T.T.T.T.T.T.T.T.T.T.",
"T.T.T.T.T.T.T.T.T.T.T.T.T.T.T.T.T.% S 8.A.C.M.I.m.*.t + = 6 7 3 & = - & & 6 8 6 & X . T.T.T.T.T.T.T.T.T.T.T.T.T.T.T.T.T.T.T.T.T.",
"T.T.T.T.T.T.T.T.T.T.T.T.T.T.T.T.T.T.c 6.K.P.U.m.&.v O & 3 7 8 7 3 - & + & 6 8 6 + X . T.T.T.T.T.T.T.T.T.T.T.T.T.T.T.T.T.T.T.T.T.",
"T.T.T.T.T.T.T.T.T.T.T.T.T.T.T.T.T.T.y +.a.A.S.u.M X & 6 6 6 6 7 7 - o X & 6 6 - X . . T.T.T.T.T.T.T.T.T.T.T.T.T.T.T.T.T.T.T.T.T.",
"T.T.T.T.T.T.T.T.T.T.T.T.T.T.T.T.T.T.T.c L g.j.%.p O 3 7 3 = 3 7 7 = o o = 6 - + . . T.T.T.T.T.T.T.T.T.T.T.T.T.T.T.T.T.T.T.T.T.T.",
"T.T.T.T.T.T.T.T.T.T.T.T.T.T.T.T.T.T.T.  t K @.( e @ 3 3 = - 6 6 - + o & 3 6 = X .   T.T.T.T.T.T.T.T.T.T.T.T.T.T.T.T.T.T.T.T.T.T.",
"T.T.T.T.T.T.T.T.T.T.T.T.T.T.T.T.T.T.T.  . ; x ! u ; - = - 6 6 - + X + 3 7 3 @ X . T.T.T.T.T.T.T.T.T.T.T.T.T.T.T.T.T.T.T.T.T.T.T.",
"T.T.T.T.T.T.T.T.T.T.T.T.T.T.T.T.T.T.T.  . X , T.P u @ - 6 6 - + o o + - 3 & X . T.T.T.T.T.T.T.T.T.T.T.T.T.T.T.T.T.T.T.T.T.T.T.T.",
"T.T.T.T.T.T.T.T.T.T.T.T.T.T.T.T.T.T.T.T.. . T.T.T f & - 6 - + & , > + & & o X T.T.T.T.T.T.T.T.T.T.T.T.T.T.T.T.T.T.T.T.T.T.T.T.T.",
"T.T.T.T.T.T.T.T.T.T.T.T.T.T.T.T.T.T.T.T.T.  T.T.T f & - 3 + & < P g & X o o T.T.T.T.T.T.T.T.T.T.T.T.T.T.T.T.T.T.T.T.T.T.T.T.T.T.",
"T.T.T.T.T.T.T.T.T.T.T.T.T.T.T.T.T.T.T.T.T.T.T.T.T g * - - & < P W Y > X X T.T.T.T.T.T.T.T.T.T.T.T.T.T.T.T.T.T.T.T.T.T.T.T.T.T.T.",
"T.T.T.T.T.T.T.T.T.T.T.T.T.T.T.T.T.T.T.T.T.T.T.T.W P < - - < P ) ] ] T.: T.T.T.T.T.T.T.T.T.T.T.T.T.T.T.T.T.T.T.T.T.T.T.T.T.T.T.T.",
"T.T.T.T.T.T.T.T.T.T.T.T.T.T.T.T.T.T.T.T.T.T.T.T._ Q P 1 1 P ) ] [ _ Y T.T.T.T.T.T.T.T.T.T.T.T.T.T.T.T.T.T.T.T.T.T.T.T.T.T.T.T.T.",
"T.T.T.T.T.T.T.T.T.T.T.T.T.T.T.T.T.T.T.T.T.T.T.W _ _ W I P Q ] [ ] Q E Y T.T.T.T.T.T.T.T.T.T.T.T.T.T.T.T.T.T.T.T.T.T.T.T.T.T.T.T.",
"T.T.T.T.T.T.T.T.T.T.T.T.T.T.T.T.T.T.T.T.T.T.Q Q Q _ ) W _ ] [ [ T.T.{ X.#.T.T.T.T.T.T.T.T.T.T.T.T.T.T.T.T.T.T.T.T.T.T.T.T.T.T.T.",
"T.T.T.T.T.T.T.T.T.T.T.T.T.T.T.T.T.T.T.T.T.T.' ' _ W R _ ] [ [ [ T.T.0.f.v.T.T.T.T.T.T.T.T.T.T.T.T.T.T.T.T.T.T.T.T.T.T.T.T.T.T.T.",
"T.T.T.T.T.T.T.T.T.T.T.T.T.T.T.T.T.T.T.T.T.T.[ ' Q R E _ [ [ [ [ T.T.y.n.L.T.T.T.T.T.T.T.T.T.T.T.T.T.T.T.T.T.T.T.T.T.T.T.T.T.T.T.",
"T.T.T.T.T.T.T.T.T.T.T.T.T.T.T.T.T.T.T.T.T.T.T._ R W ' [ [ [ ] ] T.T.y.B.L.T.T.T.T.T.T.T.T.T.T.T.T.T.T.T.T.T.T.T.T.T.T.T.T.T.T.T.",
"T.T.T.T.T.T.T.T.T.T.T.T.T.T.T.T.T.T.T.T.T.T.T.T._ _ [ [ [ ] _ Q T.T.y.n.L.T.T.T.T.T.T.T.T.T.T.T.T.T.T.T.T.T.T.T.T.T.T.T.T.T.T.T.",
"T.T.T.T.T.T.T.T.T.T.T.T.T.T.T.T.T.T.T.T.T.T.T.T.[ [ [ [ ] ` _ _ ' T.r.B.T.T.T.T.T.T.T.T.T.T.T.T.T.T.T.T.T.T.T.T.T.T.T.T.T.T.T.T.",
"T.T.T.T.T.T.T.T.T.T.T.T.T.T.T.T.T.T.T.T.T.T.T.T.T.[ [ [ ` _ _ ` ] } T.T.T.T.T.T.T.T.T.T.T.T.T.T.T.T.T.T.T.T.T.T.T.T.T.T.T.T.T.T.",
"T.T.T.T.T.T.T.T.T.T.T.T.T.T.T.T.T.T.T.T.T.T.T.T.T.T.T.[ ] _ _ _ ] | T.T.T.T.T.T.T.T.T.T.T.T.T.T.T.T.T.T.T.T.T.T.T.T.T.T.T.T.T.T.",
"T.T.T.T.T.T.T.T.T.T.T.T.T.T.T.T.T.T.T.T.T.T.T.T.T.T.T.[ o.:.$.X.o.:.T.T.T.T.T.T.T.T.T.T.T.T.T.T.T.T.T.T.T.T.T.T.T.T.T.T.T.T.T.T.",
"T.T.T.T.T.T.T.T.T.T.T.T.T.T.T.T.T.T.T.T.T.T.T.T.T.T.T.T.w.z.z.h.T.T.K.T.T.T.T.T.T.T.T.T.T.T.T.T.T.T.T.T.T.T.T.T.T.T.T.T.T.T.T.T.",
"T.T.T.T.T.T.T.T.T.T.T.T.T.T.T.T.T.T.T.T.T.T.T.T.T.T.T.T.T.G.G.D.T.T.T.T.T.T.T.T.T.T.T.T.T.T.T.T.T.T.T.T.T.T.T.T.T.T.T.T.T.T.T.T.",
"T.T.T.T.T.T.T.T.T.T.T.T.T.T.T.T.T.T.T.T.T.T.T.T.T.T.T.T.T.H.H.H.T.T.T.T.T.T.T.T.T.T.T.T.T.T.T.T.T.T.T.T.T.T.T.T.T.T.T.T.T.T.T.T.",
"T.T.T.T.T.T.T.T.T.T.T.T.T.T.T.T.T.T.T.T.T.T.T.T.T.T.T.T.T.D.D.D.T.T.T.T.T.T.T.T.T.T.T.T.T.T.T.T.T.T.T.T.T.T.T.T.T.T.T.T.T.T.T.T.",
"T.T.T.T.T.T.T.T.T.T.T.T.T.T.T.T.T.T.T.T.T.T.T.T.T.T.T.T.k.b.N.N.T.T.T.T.T.T.T.T.T.T.T.T.T.T.T.T.T.T.T.T.T.T.T.T.T.T.T.T.T.T.T.T.",
"T.T.T.T.T.T.T.T.T.T.T.T.T.T.T.T.T.T.T.T.T.T.T.T.T.T.Y.b.q.e.e.e.T.T.T.T.T.T.T.T.T.T.T.T.T.T.T.T.T.T.T.T.T.T.T.T.T.T.T.T.T.T.T.T.",
"T.T.T.T.T.T.T.T.T.T.T.T.T.T.T.T.T.T.T.T.T.T.T.T.T.T.T.T.T.T.T.T.T.T.T.T.T.T.T.T.T.T.T.T.T.T.T.T.T.T.T.T.T.T.T.T.T.T.T.T.T.T.T.T.",
"T.T.T.T.T.T.T.T.T.T.T.T.T.T.T.T.T.T.T.T.T.T.T.T.T.T.T.T.T.T.T.T.T.T.T.T.T.T.T.T.T.T.T.T.T.T.T.T.T.T.T.T.T.T.T.T.T.T.T.T.T.T.T.T."
};
